G04*
G04 #@! TF.GenerationSoftware,Altium Limited,Altium Designer,22.9.1 (49)*
G04*
G04 Layer_Color=16711935*
%FSLAX25Y25*%
%MOIN*%
G70*
G04*
G04 #@! TF.SameCoordinates,5CD507B9-0275-4A0A-92E1-85163E932064*
G04*
G04*
G04 #@! TF.FilePolarity,Negative*
G04*
G01*
G75*
%ADD35C,0.06706*%
%ADD36R,0.06706X0.06706*%
%ADD37R,0.06706X0.06706*%
%ADD38C,0.08268*%
%ADD39C,0.09055*%
%ADD40C,0.01981*%
D35*
X189559Y36386D02*
D03*
X129559D02*
D03*
X119559D02*
D03*
X179559D02*
D03*
X169559D02*
D03*
X159559D02*
D03*
X149559D02*
D03*
X139559D02*
D03*
X109559D02*
D03*
X258559Y107386D02*
D03*
Y117386D02*
D03*
Y127386D02*
D03*
Y137386D02*
D03*
Y147386D02*
D03*
Y157386D02*
D03*
Y167386D02*
D03*
D36*
X99559Y36386D02*
D03*
D37*
X258559Y97386D02*
D03*
D38*
X210059Y162386D02*
D03*
X220059D02*
D03*
D39*
X26059Y157386D02*
D03*
X46059D02*
D03*
D40*
X143199Y106634D02*
D03*
X135974D02*
D03*
X146811Y110246D02*
D03*
X139587D02*
D03*
X132362D02*
D03*
X143199Y113858D02*
D03*
X135974D02*
D03*
X146811Y117471D02*
D03*
X139587D02*
D03*
X132362D02*
D03*
X143199Y121083D02*
D03*
X135974D02*
D03*
M02*
