G04*
G04 #@! TF.GenerationSoftware,Altium Limited,Altium Designer,22.9.1 (49)*
G04*
G04 Layer_Color=128*
%FSLAX25Y25*%
%MOIN*%
G70*
G04*
G04 #@! TF.SameCoordinates,5CD507B9-0275-4A0A-92E1-85163E932064*
G04*
G04*
G04 #@! TF.FilePolarity,Positive*
G04*
G01*
G75*
%ADD51C,0.00200*%
D51*
X187787Y36386D02*
X191331D01*
X189559Y34614D02*
Y38157D01*
X127787Y36386D02*
X131331D01*
X129559Y34614D02*
Y38157D01*
X117787Y36386D02*
X121331D01*
X119559Y34614D02*
Y38157D01*
X177787Y36386D02*
X181331D01*
X179559Y34614D02*
Y38157D01*
X167787Y36386D02*
X171331D01*
X169559Y34614D02*
Y38157D01*
X157787Y36386D02*
X161331D01*
X159559Y34614D02*
Y38157D01*
X147787Y36386D02*
X151331D01*
X149559Y34614D02*
Y38157D01*
X137787Y36386D02*
X141331D01*
X139559Y34614D02*
Y38157D01*
X107787Y36386D02*
X111331D01*
X109559Y34614D02*
Y38157D01*
X97787Y36386D02*
X101331D01*
X99559Y34614D02*
Y38157D01*
X256787Y97386D02*
X260331D01*
X258559Y95614D02*
Y99158D01*
X256787Y107386D02*
X260331D01*
X258559Y105614D02*
Y109158D01*
X256787Y117386D02*
X260331D01*
X258559Y115614D02*
Y119158D01*
X256787Y127386D02*
X260331D01*
X258559Y125614D02*
Y129157D01*
X256787Y137386D02*
X260331D01*
X258559Y135614D02*
Y139157D01*
X256787Y147386D02*
X260331D01*
X258559Y145614D02*
Y149158D01*
X256787Y157386D02*
X260331D01*
X258559Y155614D02*
Y159158D01*
X256787Y167386D02*
X260331D01*
X258559Y165614D02*
Y169158D01*
X208091Y162386D02*
X212028D01*
X210059Y160417D02*
Y164354D01*
X218091Y162386D02*
X222028D01*
X220059Y160417D02*
Y164354D01*
X23697Y157386D02*
X28421D01*
X26059Y155024D02*
Y159748D01*
X43697Y157386D02*
X48421D01*
X46059Y155024D02*
Y159748D01*
X142805Y106634D02*
X143593D01*
X143199Y106240D02*
Y107028D01*
X135581Y106634D02*
X136368D01*
X135974Y106240D02*
Y107028D01*
X146417Y110246D02*
X147205D01*
X146811Y109852D02*
Y110640D01*
X139193Y110246D02*
X139980D01*
X139587Y109852D02*
Y110640D01*
X131968Y110246D02*
X132756D01*
X132362Y109852D02*
Y110640D01*
X142805Y113858D02*
X143593D01*
X143199Y113465D02*
Y114252D01*
X135581Y113858D02*
X136368D01*
X135974Y113465D02*
Y114252D01*
X146417Y117471D02*
X147205D01*
X146811Y117077D02*
Y117864D01*
X139193Y117471D02*
X139980D01*
X139587Y117077D02*
Y117864D01*
X131968Y117471D02*
X132756D01*
X132362Y117077D02*
Y117864D01*
X142805Y121083D02*
X143593D01*
X143199Y120689D02*
Y121476D01*
X135581Y121083D02*
X136368D01*
X135974Y120689D02*
Y121476D01*
M02*
