G04*
G04 #@! TF.GenerationSoftware,Altium Limited,Altium Designer,22.9.1 (49)*
G04*
G04 Layer_Color=2752767*
%FSLAX25Y25*%
%MOIN*%
G70*
G04*
G04 #@! TF.SameCoordinates,5CD507B9-0275-4A0A-92E1-85163E932064*
G04*
G04*
G04 #@! TF.FilePolarity,Positive*
G04*
G01*
G75*
%ADD50C,0.00267*%
%ADD51C,0.00200*%
D50*
X190359Y36386D02*
G03*
X190359Y36386I-800J0D01*
G01*
X130359D02*
G03*
X130359Y36386I-800J0D01*
G01*
X120359D02*
G03*
X120359Y36386I-800J0D01*
G01*
X180359D02*
G03*
X180359Y36386I-800J0D01*
G01*
X170359D02*
G03*
X170359Y36386I-800J0D01*
G01*
X160359D02*
G03*
X160359Y36386I-800J0D01*
G01*
X150359D02*
G03*
X150359Y36386I-800J0D01*
G01*
X140359D02*
G03*
X140359Y36386I-800J0D01*
G01*
X110359D02*
G03*
X110359Y36386I-800J0D01*
G01*
X100359D02*
G03*
X100359Y36386I-800J0D01*
G01*
X259359Y97386D02*
G03*
X259359Y97386I-800J0D01*
G01*
Y107386D02*
G03*
X259359Y107386I-800J0D01*
G01*
Y117386D02*
G03*
X259359Y117386I-800J0D01*
G01*
Y127386D02*
G03*
X259359Y127386I-800J0D01*
G01*
Y137386D02*
G03*
X259359Y137386I-800J0D01*
G01*
Y147386D02*
G03*
X259359Y147386I-800J0D01*
G01*
Y157386D02*
G03*
X259359Y157386I-800J0D01*
G01*
Y167386D02*
G03*
X259359Y167386I-800J0D01*
G01*
D51*
X210059Y161586D02*
X209259Y163186D01*
X210859D01*
X210059Y161586D01*
X220059D02*
X219259Y163186D01*
X220859D01*
X220059Y161586D01*
X26059Y156586D02*
X26459Y156986D01*
X26859D01*
X26459Y157386D01*
X26859Y157786D01*
X26459D01*
X26059Y158186D01*
X25659Y157786D01*
X25259D01*
X25659Y157386D01*
X25259Y156986D01*
X25659D01*
X26059Y156586D01*
X46059D02*
X46459Y156986D01*
X46859D01*
X46459Y157386D01*
X46859Y157786D01*
X46459D01*
X46059Y158186D01*
X45659Y157786D01*
X45259D01*
X45659Y157386D01*
X45259Y156986D01*
X45659D01*
X46059Y156586D01*
X142399Y105834D02*
Y107434D01*
X143999D01*
Y105834D01*
X142399D01*
X135174D02*
Y107434D01*
X136774D01*
Y105834D01*
X135174D01*
X146011Y109446D02*
Y111046D01*
X147611D01*
Y109446D01*
X146011D01*
X138787D02*
Y111046D01*
X140387D01*
Y109446D01*
X138787D01*
X131562D02*
Y111046D01*
X133162D01*
Y109446D01*
X131562D01*
X142399Y113058D02*
Y114658D01*
X143999D01*
Y113058D01*
X142399D01*
X135174D02*
Y114658D01*
X136774D01*
Y113058D01*
X135174D01*
X146011Y116671D02*
Y118271D01*
X147611D01*
Y116671D01*
X146011D01*
X138787D02*
Y118271D01*
X140387D01*
Y116671D01*
X138787D01*
X131562D02*
Y118271D01*
X133162D01*
Y116671D01*
X131562D01*
X142399Y120283D02*
Y121883D01*
X143999D01*
Y120283D01*
X142399D01*
X135174D02*
Y121883D01*
X136774D01*
Y120283D01*
X135174D01*
M02*
