M48
;Layer_Color=9474304
;FILE_FORMAT=2:5
INCH,LZ
;TYPE=PLATED
T1F00S00C0.00787
T2F00S00C0.03543
T3F00S00C0.03937
T4F00S00C0.04724
%
T01
X0135974Y0106634
X0143199
X0146811Y0110246
X0143199Y0113858
X0139587Y0110246
X0135974Y0113858
X0132362Y0110246
Y0117471
X0139587
X0135974Y0121083
X0143199
X0146811Y0117471
T02
X0099559Y0036386
X0109559
X0119559
X0129559
X0139559
X0149559
X0159559
X0169559
X0179559
X0189559
X0258559Y0097386
Y0107386
Y0117386
Y0127386
Y0137386
Y0147386
Y0157386
Y0167386
T03
X0210059Y0162386
X0220059
T04
X0026059Y0157386
X0046059
M30
