G04*
G04 #@! TF.GenerationSoftware,Altium Limited,Altium Designer,22.9.1 (49)*
G04*
G04 Layer_Physical_Order=1*
G04 Layer_Color=255*
%FSLAX44Y44*%
%MOMM*%
G71*
G04*
G04 #@! TF.SameCoordinates,24B0C1BF-96A6-467D-9BB2-DF91BAA7A13C*
G04*
G04*
G04 #@! TF.FilePolarity,Positive*
G04*
G01*
G75*
%ADD11C,0.4000*%
%ADD14C,0.2540*%
G04:AMPARAMS|DCode=15|XSize=0.3mm|YSize=1mm|CornerRadius=0mm|HoleSize=0mm|Usage=FLASHONLY|Rotation=135.000|XOffset=0mm|YOffset=0mm|HoleType=Round|Shape=Rectangle|*
%AMROTATEDRECTD15*
4,1,4,0.4596,0.2475,-0.2475,-0.4596,-0.4596,-0.2475,0.2475,0.4596,0.4596,0.2475,0.0*
%
%ADD15ROTATEDRECTD15*%

G04:AMPARAMS|DCode=16|XSize=3.6mm|YSize=3.6mm|CornerRadius=0.09mm|HoleSize=0mm|Usage=FLASHONLY|Rotation=45.000|XOffset=0mm|YOffset=0mm|HoleType=Round|Shape=RoundedRectangle|*
%AMROUNDEDRECTD16*
21,1,3.6000,3.4200,0,0,45.0*
21,1,3.4200,3.6000,0,0,45.0*
1,1,0.1800,2.4183,0.0000*
1,1,0.1800,0.0000,-2.4183*
1,1,0.1800,-2.4183,0.0000*
1,1,0.1800,0.0000,2.4183*
%
%ADD16ROUNDEDRECTD16*%
G04:AMPARAMS|DCode=17|XSize=0.3mm|YSize=1mm|CornerRadius=0mm|HoleSize=0mm|Usage=FLASHONLY|Rotation=225.000|XOffset=0mm|YOffset=0mm|HoleType=Round|Shape=Rectangle|*
%AMROTATEDRECTD17*
4,1,4,-0.2475,0.4596,0.4596,-0.2475,0.2475,-0.4596,-0.4596,0.2475,-0.2475,0.4596,0.0*
%
%ADD17ROTATEDRECTD17*%

G04:AMPARAMS|DCode=18|XSize=1.9mm|YSize=3.37mm|CornerRadius=0.0665mm|HoleSize=0mm|Usage=FLASHONLY|Rotation=90.000|XOffset=0mm|YOffset=0mm|HoleType=Round|Shape=RoundedRectangle|*
%AMROUNDEDRECTD18*
21,1,1.9000,3.2370,0,0,90.0*
21,1,1.7670,3.3700,0,0,90.0*
1,1,0.1330,1.6185,0.8835*
1,1,0.1330,1.6185,-0.8835*
1,1,0.1330,-1.6185,-0.8835*
1,1,0.1330,-1.6185,0.8835*
%
%ADD18ROUNDEDRECTD18*%
%ADD19R,0.9000X1.0000*%
%ADD20R,2.1500X1.0000*%
%ADD21R,2.1500X3.2500*%
%ADD22R,2.1500X1.0000*%
%ADD23R,2.1800X1.6000*%
%ADD24R,1.2000X1.8000*%
G04:AMPARAMS|DCode=25|XSize=1.2mm|YSize=1.8mm|CornerRadius=0mm|HoleSize=0mm|Usage=FLASHONLY|Rotation=225.000|XOffset=0mm|YOffset=0mm|HoleType=Round|Shape=Rectangle|*
%AMROTATEDRECTD25*
4,1,4,-0.2121,1.0607,1.0607,-0.2121,0.2121,-1.0607,-1.0607,0.2121,-0.2121,1.0607,0.0*
%
%ADD25ROTATEDRECTD25*%

%ADD26R,1.8000X1.2000*%
%ADD27R,1.1000X1.7000*%
%ADD28R,1.7000X1.1000*%
%ADD29R,2.5000X2.0000*%
%ADD30R,2.5000X0.5000*%
%ADD31R,1.8000X2.5000*%
%ADD32R,0.8000X1.4000*%
%ADD33R,1.4000X0.8000*%
%ADD34R,0.9500X2.1500*%
%ADD35R,3.2500X2.1500*%
%ADD59C,0.7500*%
%ADD60C,0.3000*%
%ADD61C,0.5000*%
%ADD62C,0.7000*%
%ADD63C,1.0000*%
%ADD64C,1.2500*%
%ADD65C,0.6000*%
%ADD66C,0.5600*%
%ADD67C,0.8000*%
%ADD68C,1.5000*%
%ADD69C,2.2000*%
%ADD70C,0.9000*%
%ADD71C,2.0000*%
%ADD72C,1.0000*%
G36*
X570230Y388620D02*
X568960Y387350D01*
Y19050D01*
X554990Y5080D01*
X15240D01*
X0Y20320D01*
X1270Y21590D01*
Y386080D01*
X22860Y407670D01*
X551180D01*
X570230Y388620D01*
D02*
G37*
%LPC*%
G36*
X499530Y398170D02*
X488990D01*
Y390130D01*
X499530D01*
Y398170D01*
D02*
G37*
G36*
X479990D02*
X469450D01*
Y390130D01*
X479990D01*
Y398170D01*
D02*
G37*
G36*
X554530D02*
X543990D01*
Y390130D01*
X554530D01*
Y398170D01*
D02*
G37*
G36*
X534990D02*
X524450D01*
Y390130D01*
X534990D01*
Y398170D01*
D02*
G37*
G36*
X554530Y381130D02*
X543990D01*
Y373090D01*
X554530D01*
Y381130D01*
D02*
G37*
G36*
X534990D02*
X524450D01*
Y373090D01*
X534990D01*
Y381130D01*
D02*
G37*
G36*
X499530Y381130D02*
X488990D01*
Y373090D01*
X499530D01*
Y381130D01*
D02*
G37*
G36*
X479990D02*
X469450D01*
Y373090D01*
X479990D01*
Y381130D01*
D02*
G37*
G36*
X376610Y380077D02*
Y372800D01*
X383887D01*
X383795Y373140D01*
X382145Y376000D01*
X379810Y378335D01*
X376950Y379985D01*
X376610Y380077D01*
D02*
G37*
G36*
X499530Y362670D02*
X488990D01*
Y362130D01*
X499530D01*
Y362670D01*
D02*
G37*
G36*
X479990D02*
X469450D01*
Y362130D01*
X479990D01*
Y362670D01*
D02*
G37*
G36*
X383887Y363800D02*
X376610D01*
Y356523D01*
X376950Y356615D01*
X379810Y358265D01*
X382145Y360600D01*
X383795Y363460D01*
X383887Y363800D01*
D02*
G37*
G36*
X309880Y397698D02*
X76200D01*
X73850Y397388D01*
X71661Y396482D01*
X69781Y395039D01*
X12371Y337629D01*
X10928Y335749D01*
X10022Y333559D01*
X9712Y331210D01*
Y107180D01*
X10022Y104831D01*
X10928Y102641D01*
X12371Y100761D01*
X23830Y89302D01*
Y82140D01*
X49830D01*
Y83557D01*
X64840D01*
Y78380D01*
X80582D01*
Y75422D01*
X80200Y74310D01*
X79312Y74310D01*
X78160D01*
Y64770D01*
Y55230D01*
X80200D01*
Y59383D01*
X81470Y59942D01*
X81660Y59767D01*
Y53770D01*
X97660D01*
Y60566D01*
X98428Y62421D01*
X98738Y64770D01*
Y70485D01*
X99911Y70971D01*
X156491Y14391D01*
X158371Y12948D01*
X160560Y12042D01*
X162910Y11732D01*
X162910Y11732D01*
X225814D01*
X226250Y11552D01*
X228600Y11242D01*
X372449D01*
X374799Y11552D01*
X376988Y12458D01*
X378868Y13901D01*
X474345Y109378D01*
X475615Y108852D01*
Y81782D01*
X475598Y81771D01*
X475232Y81405D01*
X475071Y81165D01*
X474980Y81078D01*
X474805Y80834D01*
X474649Y80487D01*
X474635Y80457D01*
X474476Y80220D01*
X474473Y80208D01*
X474467Y80197D01*
X474397Y80022D01*
X474375Y79907D01*
X474260Y79741D01*
X474242Y79654D01*
X474198Y79578D01*
X474160Y79268D01*
X474094Y78962D01*
X474077Y77724D01*
X474093Y77638D01*
X474082Y77551D01*
X474164Y77249D01*
X474221Y76941D01*
X474268Y76868D01*
X474292Y76783D01*
X474388Y76659D01*
X474411Y76610D01*
X474441Y76462D01*
X474580Y76253D01*
X474687Y76027D01*
X474690Y76024D01*
X474770Y75847D01*
X474945Y75603D01*
X475037Y75516D01*
X475197Y75276D01*
X475266Y75207D01*
X475337Y75102D01*
X475529Y74910D01*
X475615Y74852D01*
Y65725D01*
X475545Y65635D01*
X475529Y65623D01*
X475477Y65593D01*
X475460Y65572D01*
X475424Y65548D01*
X475372Y65495D01*
X475347Y65458D01*
X475325Y65441D01*
X475289Y65377D01*
X475267Y65355D01*
X475128Y65148D01*
X475120Y65139D01*
X475057Y65076D01*
X475041Y65052D01*
X474960Y64962D01*
X474855Y64788D01*
X474849Y64770D01*
X474676Y64546D01*
X474641Y64477D01*
X474636Y64461D01*
X474631Y64455D01*
X474583Y64339D01*
X474571Y64322D01*
X474545Y64256D01*
X474441Y64101D01*
X474402Y63905D01*
X474399Y63897D01*
X474387Y63878D01*
X474384Y63871D01*
X474260Y63691D01*
X474242Y63605D01*
X474198Y63529D01*
X474160Y63219D01*
X474094Y62913D01*
X474077Y61674D01*
X474079Y61660D01*
X474076Y61646D01*
X474151Y61269D01*
X474221Y60892D01*
X474229Y60880D01*
X474232Y60865D01*
X474347Y60693D01*
X474414Y60529D01*
X474518Y60219D01*
X474565Y60163D01*
X474569Y60154D01*
X474581Y60098D01*
X474720Y59890D01*
X474826Y59664D01*
X474863Y59631D01*
X474890Y59585D01*
X475015Y59447D01*
X475023Y59436D01*
X475050Y59409D01*
X475058Y59399D01*
X475197Y59192D01*
X475337Y59052D01*
X475358Y59038D01*
X475477Y58884D01*
X475477Y58884D01*
X475477Y58884D01*
X475542Y58847D01*
X475615Y58774D01*
Y49637D01*
X475563Y49602D01*
X475372Y49411D01*
X475301Y49305D01*
X475232Y49236D01*
X475093Y49028D01*
X475085Y49019D01*
X475040Y48974D01*
X475028Y48957D01*
X475022Y48950D01*
X475004Y48937D01*
X474988Y48913D01*
X474925Y48843D01*
X474821Y48669D01*
X474803Y48620D01*
X474649Y48389D01*
X474631Y48371D01*
X474621Y48347D01*
X474598Y48313D01*
X474593Y48287D01*
X474579Y48264D01*
X474541Y48165D01*
X474441Y48016D01*
X474402Y47820D01*
X474399Y47812D01*
X474387Y47793D01*
X474384Y47786D01*
X474260Y47607D01*
X474242Y47521D01*
X474199Y47445D01*
X474160Y47134D01*
X474094Y46829D01*
X474077Y45590D01*
X474093Y45504D01*
X474082Y45417D01*
X474164Y45115D01*
X474221Y44808D01*
X474268Y44734D01*
X474292Y44650D01*
X474364Y44556D01*
X474408Y44459D01*
X474441Y44292D01*
X474562Y44111D01*
X474606Y44001D01*
X474613Y43991D01*
X474616Y43978D01*
X474643Y43937D01*
X474665Y43889D01*
X474693Y43862D01*
X474742Y43789D01*
X474745Y43777D01*
X474780Y43707D01*
X474888Y43569D01*
X475040Y43334D01*
X475051Y43327D01*
X475057Y43317D01*
X475092Y43282D01*
X475162Y43177D01*
X475266Y43073D01*
X475337Y42968D01*
X475563Y42741D01*
X475615Y42707D01*
Y19725D01*
X498818D01*
X498825Y19705D01*
X498930Y19531D01*
X499012Y19440D01*
X499090Y19340D01*
X499271Y19068D01*
X499375Y18964D01*
X499446Y18859D01*
X499673Y18632D01*
X499778Y18562D01*
X499795Y18544D01*
X499880Y18488D01*
X499945Y18409D01*
X500137Y18252D01*
X500314Y18158D01*
X500469Y18031D01*
X500992Y17751D01*
X501231Y17679D01*
X501280Y17656D01*
X501476Y17521D01*
X501562Y17502D01*
X501639Y17459D01*
X501949Y17420D01*
X502254Y17355D01*
X503493Y17337D01*
X503579Y17353D01*
X503666Y17342D01*
X503968Y17425D01*
X504276Y17481D01*
X504349Y17529D01*
X504434Y17552D01*
X504589Y17673D01*
X504680Y17694D01*
X505064Y17869D01*
X505198Y17965D01*
X505351Y18028D01*
X505560Y18168D01*
X505667Y18274D01*
X505669Y18276D01*
X505941Y18457D01*
X506010Y18527D01*
X506115Y18597D01*
X506220Y18702D01*
X506277Y18787D01*
X506356Y18853D01*
X506513Y19045D01*
X506525Y19067D01*
X506544Y19084D01*
X506789Y19398D01*
X506860Y19539D01*
X506962Y19659D01*
X506998Y19725D01*
X514893D01*
X514964Y19569D01*
X515138Y19325D01*
X515230Y19239D01*
X515390Y18999D01*
X515530Y18859D01*
X515551Y18845D01*
X515671Y18691D01*
X515671Y18691D01*
X515671Y18690D01*
X515727Y18658D01*
X515810Y18551D01*
X515810Y18551D01*
X515810Y18551D01*
X515981Y18454D01*
X516083Y18345D01*
X516328Y18170D01*
X516434Y18123D01*
X516522Y18047D01*
X516735Y17929D01*
X516764Y17909D01*
X516807Y17889D01*
X516815Y17885D01*
X516853Y17848D01*
X517175Y17723D01*
X517434Y17606D01*
X517604Y17492D01*
X517619Y17489D01*
X517632Y17481D01*
X518010Y17412D01*
X518385Y17337D01*
X518400Y17340D01*
X518415Y17337D01*
X519618Y17355D01*
X519924Y17420D01*
X520233Y17459D01*
X520310Y17503D01*
X520396Y17521D01*
X520517Y17605D01*
X520688Y17675D01*
X520998Y17778D01*
X521053Y17826D01*
X521063Y17830D01*
X521120Y17841D01*
X521327Y17980D01*
X521553Y18087D01*
X521586Y18123D01*
X521632Y18151D01*
X521770Y18276D01*
X521781Y18283D01*
X521808Y18311D01*
X521817Y18319D01*
X522025Y18458D01*
X522165Y18597D01*
X522179Y18618D01*
X522333Y18738D01*
X522333Y18738D01*
X522333Y18738D01*
X522365Y18794D01*
X522472Y18877D01*
X522537Y18990D01*
X522543Y18996D01*
X522580Y19027D01*
X522610Y19064D01*
X522629Y19082D01*
X522643Y19104D01*
X522737Y19219D01*
X522766Y19274D01*
X522921Y19519D01*
X522983Y19598D01*
X523014Y19662D01*
X523057Y19725D01*
X530969D01*
X531011Y19623D01*
X531150Y19414D01*
X531257Y19307D01*
X531258Y19305D01*
X531440Y19033D01*
X531544Y18929D01*
X531614Y18824D01*
X531754Y18684D01*
X531870Y18607D01*
X531962Y18503D01*
X532398Y18171D01*
X532542Y18101D01*
X532665Y18000D01*
X533119Y17755D01*
X533362Y17681D01*
X533414Y17656D01*
X533610Y17521D01*
X533696Y17503D01*
X533772Y17459D01*
X534082Y17420D01*
X534388Y17355D01*
X535627Y17337D01*
X535713Y17353D01*
X535800Y17342D01*
X536102Y17425D01*
X536409Y17481D01*
X536483Y17529D01*
X536568Y17552D01*
X536710Y17663D01*
X536773Y17676D01*
X537017Y17781D01*
X537040Y17797D01*
X537041Y17797D01*
X537215Y17867D01*
X537226Y17874D01*
X537239Y17876D01*
X537428Y18003D01*
X537440Y18006D01*
X537510Y18041D01*
X537648Y18148D01*
X537882Y18300D01*
X537889Y18311D01*
X537900Y18318D01*
X537934Y18352D01*
X538040Y18423D01*
X538144Y18527D01*
X538249Y18597D01*
X538476Y18824D01*
X538570Y18965D01*
X538693Y19080D01*
X538741Y19148D01*
X538856Y19289D01*
X538950Y19465D01*
X539077Y19620D01*
X539133Y19725D01*
X561975D01*
Y42399D01*
X561991Y42410D01*
X561998Y42420D01*
X562009Y42427D01*
X562043Y42462D01*
X562149Y42532D01*
X562253Y42636D01*
X562358Y42706D01*
X562585Y42933D01*
X562679Y43074D01*
X562802Y43190D01*
X562851Y43258D01*
X562965Y43398D01*
X563046Y43548D01*
X563158Y43677D01*
X563287Y43903D01*
X563380Y44058D01*
X563455Y44269D01*
X563566Y44463D01*
X563601Y44567D01*
X563606Y44606D01*
X563696Y44737D01*
X563714Y44823D01*
X563758Y44899D01*
X563797Y45209D01*
X563862Y45515D01*
X563880Y46754D01*
X563864Y46840D01*
X563875Y46927D01*
X563792Y47229D01*
X563735Y47536D01*
X563688Y47610D01*
X563665Y47694D01*
X563541Y47853D01*
X563518Y47951D01*
X563308Y48404D01*
X563243Y48494D01*
X563205Y48599D01*
X563101Y48773D01*
X562933Y48959D01*
X562794Y49166D01*
X562690Y49271D01*
X562620Y49376D01*
X562515Y49480D01*
X562430Y49537D01*
X562365Y49617D01*
X562173Y49774D01*
X562150Y49786D01*
X562133Y49805D01*
X561975Y49928D01*
Y58477D01*
X562002Y58504D01*
X562011Y58512D01*
X562219Y58651D01*
X562724Y59157D01*
X562885Y59397D01*
X562977Y59483D01*
X563151Y59728D01*
X563233Y59910D01*
X563270Y59943D01*
X563377Y60169D01*
X563515Y60377D01*
X563545Y60525D01*
X563610Y60662D01*
X563622Y60711D01*
X563725Y60865D01*
X563728Y60880D01*
X563736Y60893D01*
X563805Y61270D01*
X563880Y61646D01*
X563877Y61660D01*
X563880Y61675D01*
X563862Y62879D01*
X563797Y63184D01*
X563758Y63494D01*
X563714Y63571D01*
X563696Y63657D01*
X563581Y63823D01*
X563559Y63938D01*
X563490Y64113D01*
X563419Y64222D01*
X563379Y64345D01*
X563205Y64660D01*
X563182Y64686D01*
X563171Y64718D01*
X563066Y64893D01*
X562898Y65078D01*
X562759Y65286D01*
X562645Y65400D01*
X562642Y65406D01*
X562582Y65461D01*
X562479Y65593D01*
X562479Y65594D01*
X562479Y65594D01*
X562423Y65626D01*
X562340Y65733D01*
X562209Y65808D01*
X562168Y65855D01*
X561975Y66005D01*
Y74561D01*
X561976Y74562D01*
X562184Y74701D01*
X562288Y74805D01*
X562393Y74875D01*
X562533Y75015D01*
X562610Y75130D01*
X562714Y75223D01*
X563046Y75659D01*
X563116Y75802D01*
X563217Y75926D01*
X563462Y76379D01*
X563536Y76622D01*
X563561Y76675D01*
X563696Y76871D01*
X563714Y76957D01*
X563758Y77033D01*
X563797Y77343D01*
X563862Y77649D01*
X563880Y78888D01*
X563864Y78974D01*
X563875Y79062D01*
X563792Y79363D01*
X563735Y79670D01*
X563688Y79744D01*
X563664Y79829D01*
X563544Y79984D01*
X563523Y80074D01*
X563348Y80458D01*
X563280Y80553D01*
X563240Y80663D01*
X563136Y80838D01*
X563053Y80928D01*
X562976Y81028D01*
X562794Y81300D01*
X562690Y81404D01*
X562620Y81510D01*
X562393Y81736D01*
X562288Y81807D01*
X562254Y81841D01*
X562147Y81912D01*
X562063Y82009D01*
X561975Y82077D01*
Y110490D01*
X477253D01*
X476727Y111760D01*
X524369Y159402D01*
X525812Y161282D01*
X526718Y163471D01*
X527028Y165821D01*
Y178860D01*
Y199460D01*
X532700D01*
Y239960D01*
X503200D01*
Y228788D01*
X431750D01*
X426640Y233897D01*
X424760Y235340D01*
X422571Y236247D01*
X420222Y236556D01*
X416400D01*
Y242870D01*
X396400D01*
Y229460D01*
X396322Y228870D01*
Y227847D01*
X393573Y225098D01*
X392400Y225584D01*
Y242870D01*
X375888D01*
X374451Y244307D01*
X374808Y244663D01*
X358933Y260538D01*
X359568Y261173D01*
X342312Y278430D01*
X345140Y281258D01*
X359887Y266512D01*
X359252Y265877D01*
X377637Y247492D01*
X385241Y255096D01*
X411494D01*
X413843Y255406D01*
X416033Y256313D01*
X417913Y257755D01*
X425519Y265361D01*
X426962Y267241D01*
X427868Y269431D01*
X428178Y271780D01*
X428178Y271780D01*
Y276109D01*
X436555D01*
X438375Y276471D01*
X439918Y277502D01*
X440949Y279045D01*
X441311Y280865D01*
Y298535D01*
X440949Y300355D01*
X439918Y301898D01*
X438375Y302929D01*
X436555Y303291D01*
X404185D01*
X402365Y302929D01*
X400822Y301898D01*
X399791Y300355D01*
X399429Y298535D01*
Y280865D01*
X399791Y279045D01*
X400822Y277502D01*
X402365Y276471D01*
X404185Y276109D01*
X408795D01*
X409321Y274839D01*
X407734Y273252D01*
X380161D01*
X375904Y277509D01*
X376539Y278144D01*
X370590Y284093D01*
X394920Y308422D01*
X443230D01*
X444832Y308633D01*
X446101Y307678D01*
Y269240D01*
Y251710D01*
X445200D01*
Y233710D01*
X474700D01*
Y251710D01*
X466778D01*
Y259700D01*
X467940D01*
Y269240D01*
Y278780D01*
X466778D01*
Y310390D01*
X466654Y311333D01*
X474396Y319074D01*
X484490D01*
X484916Y319130D01*
X500888Y319130D01*
X501767Y318636D01*
X501995Y318491D01*
X502569Y316349D01*
X503688Y314411D01*
X505271Y312828D01*
X507209Y311709D01*
X509371Y311130D01*
X511609D01*
X513771Y311709D01*
X515709Y312828D01*
X517292Y314411D01*
X518411Y316349D01*
X518990Y318511D01*
Y320749D01*
X518411Y322911D01*
X517292Y324849D01*
X515709Y326432D01*
X513771Y327551D01*
X511609Y328130D01*
X509371D01*
X507209Y327551D01*
X505271Y326432D01*
X503688Y324849D01*
X502569Y322911D01*
X502260Y321757D01*
X500990Y321924D01*
Y327130D01*
Y335130D01*
Y343130D01*
Y356130D01*
X499530D01*
Y356130D01*
X484490D01*
X469450D01*
Y356130D01*
X467990D01*
Y348186D01*
X441311D01*
Y351735D01*
X440949Y353555D01*
X439918Y355098D01*
X438375Y356129D01*
X436555Y356491D01*
X404185D01*
X402365Y356129D01*
X400822Y355098D01*
X399791Y353555D01*
X399429Y351735D01*
Y334065D01*
X399791Y332245D01*
X400822Y330702D01*
X402365Y329671D01*
X404185Y329309D01*
X436555D01*
X438375Y329671D01*
X439918Y330702D01*
X440949Y332245D01*
X441311Y334065D01*
Y335074D01*
X446307D01*
X446793Y333901D01*
X439470Y326578D01*
X391160D01*
X388811Y326268D01*
X386621Y325362D01*
X384741Y323919D01*
X355448Y294626D01*
X354275Y295112D01*
Y356502D01*
X355306Y357097D01*
X357913Y359704D01*
X359520Y362487D01*
X360712Y362609D01*
X360958Y362536D01*
X362076Y360600D01*
X364410Y358265D01*
X367270Y356615D01*
X367610Y356523D01*
Y368300D01*
X372110D01*
D01*
X367610D01*
Y380077D01*
X367270Y379985D01*
X364410Y378335D01*
X362076Y376000D01*
X360958Y374064D01*
X360712Y373991D01*
X359520Y374113D01*
X357913Y376896D01*
X355306Y379503D01*
X352114Y381346D01*
X348553Y382300D01*
X344867D01*
X341306Y381346D01*
X338114Y379503D01*
X335507Y376896D01*
X334645Y375403D01*
X333375D01*
X332513Y376896D01*
X329906Y379503D01*
X328299Y380430D01*
X328165Y381453D01*
X327258Y383642D01*
X325816Y385522D01*
X316299Y395039D01*
X314419Y396482D01*
X312229Y397388D01*
X309880Y397698D01*
D02*
G37*
G36*
X511609Y372130D02*
X509371D01*
X507209Y371551D01*
X505271Y370432D01*
X503688Y368849D01*
X502569Y366911D01*
X501990Y364749D01*
Y362511D01*
X502569Y360349D01*
X503688Y358411D01*
X505271Y356828D01*
X507209Y355709D01*
X509371Y355130D01*
X511609D01*
X513771Y355709D01*
X515709Y356828D01*
X517292Y358411D01*
X518411Y360349D01*
X518990Y362511D01*
Y364749D01*
X518411Y366911D01*
X517292Y368849D01*
X515709Y370432D01*
X513771Y371551D01*
X511609Y372130D01*
D02*
G37*
G36*
X499530Y310170D02*
X488990D01*
Y302130D01*
X499530D01*
Y310170D01*
D02*
G37*
G36*
X479990D02*
X469450D01*
Y302130D01*
X479990D01*
Y310170D01*
D02*
G37*
G36*
X554530D02*
X543990D01*
Y302130D01*
X554530D01*
Y310170D01*
D02*
G37*
G36*
X534990D02*
X524450D01*
Y302130D01*
X534990D01*
Y310170D01*
D02*
G37*
G36*
X554530Y293130D02*
X543990D01*
Y285090D01*
X554530D01*
Y293130D01*
D02*
G37*
G36*
X534990D02*
X524450D01*
Y285090D01*
X534990D01*
Y293130D01*
D02*
G37*
G36*
X499530Y293130D02*
X488990D01*
Y285090D01*
X499530D01*
Y293130D01*
D02*
G37*
G36*
X479990D02*
X469450D01*
Y285090D01*
X479990D01*
Y293130D01*
D02*
G37*
G36*
X478980Y278780D02*
X476940D01*
Y273740D01*
X478980D01*
Y278780D01*
D02*
G37*
G36*
Y264740D02*
X476940D01*
Y259700D01*
X478980D01*
Y264740D01*
D02*
G37*
G36*
X69160Y74310D02*
X67120D01*
Y69270D01*
X69160D01*
Y74310D01*
D02*
G37*
G36*
Y60270D02*
X67120D01*
Y55230D01*
X69160D01*
Y60270D01*
D02*
G37*
G36*
X457890Y39128D02*
Y37520D01*
X459498D01*
X459423Y37650D01*
X458020Y39053D01*
X457890Y39128D01*
D02*
G37*
G36*
X448890D02*
X448760Y39053D01*
X447356Y37650D01*
X447282Y37520D01*
X448890D01*
Y39128D01*
D02*
G37*
G36*
X459498Y28520D02*
X457890D01*
Y26912D01*
X458020Y26986D01*
X459423Y28390D01*
X459498Y28520D01*
D02*
G37*
G36*
X448890D02*
X447282D01*
X447356Y28390D01*
X448760Y26986D01*
X448890Y26912D01*
Y28520D01*
D02*
G37*
%LPD*%
G36*
X286083Y378272D02*
X284707Y376896D01*
X282864Y373704D01*
X281910Y370143D01*
Y367138D01*
X271141Y356369D01*
X269699Y354489D01*
X268792Y352299D01*
X268482Y349950D01*
Y330500D01*
X267560D01*
Y313772D01*
X261720Y307932D01*
X260547Y308418D01*
Y344170D01*
X260280Y346193D01*
X259500Y348078D01*
X258257Y349697D01*
X242367Y365588D01*
X242600Y366457D01*
Y370143D01*
X241646Y373704D01*
X239803Y376896D01*
X238427Y378272D01*
X238953Y379542D01*
X285557D01*
X286083Y378272D01*
D02*
G37*
G36*
X335507Y359704D02*
X338114Y357097D01*
X339145Y356502D01*
Y293807D01*
X329458Y284120D01*
X328370Y284828D01*
Y356211D01*
X329906Y357097D01*
X332513Y359704D01*
X333375Y361197D01*
X334645D01*
X335507Y359704D01*
D02*
G37*
G36*
X310107D02*
X312714Y357097D01*
X314250Y356211D01*
Y287484D01*
X311570Y284805D01*
X310300Y285331D01*
Y290140D01*
X306760D01*
Y283600D01*
X308569D01*
X309040Y282463D01*
X308256Y281510D01*
X302260D01*
Y267045D01*
X302070Y266801D01*
X300800Y267237D01*
Y280050D01*
X298760D01*
Y270510D01*
X294260D01*
Y266010D01*
X287720D01*
Y264547D01*
X286547Y264061D01*
X282534Y268074D01*
X281176Y269116D01*
X280609Y269351D01*
X269446Y280513D01*
Y282140D01*
X287760D01*
Y293367D01*
X289350Y294025D01*
X290812Y295148D01*
X293047Y297382D01*
X294220Y296896D01*
Y283600D01*
X297760D01*
Y294640D01*
X302260D01*
Y299140D01*
X310300D01*
Y304500D01*
X311560D01*
Y330500D01*
X291560D01*
Y315843D01*
X291467Y315772D01*
X288733Y313038D01*
X287560Y313524D01*
Y330500D01*
X286638D01*
Y346190D01*
X294748Y354300D01*
X297753D01*
X301314Y355254D01*
X304506Y357097D01*
X307113Y359704D01*
X307975Y361197D01*
X309245D01*
X310107Y359704D01*
D02*
G37*
G36*
X311714Y263500D02*
X311374Y263381D01*
X311074Y263181D01*
X310814Y262901D01*
X310594Y262540D01*
X310414Y262101D01*
X310274Y261581D01*
X310174Y260980D01*
X310114Y260301D01*
X310094Y259541D01*
X306094D01*
X306290Y263540D01*
X312094D01*
X311714Y263500D01*
D02*
G37*
G36*
X193373Y378272D02*
X191997Y376896D01*
X190154Y373704D01*
X189200Y370143D01*
Y366457D01*
X190154Y362896D01*
X191997Y359704D01*
X194604Y357097D01*
X197796Y355254D01*
X201357Y354300D01*
X205043D01*
X205912Y354533D01*
X235293Y325152D01*
Y308910D01*
X215930D01*
Y296264D01*
X215822Y295440D01*
Y268540D01*
X210790D01*
Y244540D01*
X229535D01*
X231397Y242678D01*
X230912Y241504D01*
X173556D01*
X163020Y252040D01*
X152190D01*
Y246000D01*
X153199D01*
X167268Y231931D01*
X169087Y230716D01*
X170486Y230438D01*
X170361Y229168D01*
X155780D01*
X143579Y241369D01*
X141699Y242812D01*
X139509Y243718D01*
X137160Y244028D01*
X90378D01*
X88028Y243718D01*
X85839Y242812D01*
X83959Y241369D01*
X78101Y235511D01*
X76659Y233631D01*
X75752Y231442D01*
X75442Y229092D01*
Y223508D01*
X75057Y223108D01*
X74674Y222922D01*
X73419Y223598D01*
Y257820D01*
X74820D01*
Y290820D01*
X48820D01*
Y257820D01*
X50221D01*
Y217580D01*
X50616Y214578D01*
X51775Y211780D01*
X53152Y209985D01*
Y204962D01*
X52770Y203850D01*
X51882Y203850D01*
X50730D01*
Y194310D01*
Y184770D01*
X52770D01*
X53152Y183658D01*
Y151270D01*
X53340Y149845D01*
Y136380D01*
X70840D01*
Y148538D01*
X70998Y148920D01*
X71308Y151270D01*
Y194310D01*
Y210109D01*
X72275Y211370D01*
X73250Y213724D01*
X74520Y213471D01*
Y196550D01*
X76012D01*
Y151130D01*
X76322Y148780D01*
X76340Y148736D01*
Y136380D01*
X93840D01*
Y148736D01*
X93858Y148780D01*
X94168Y151130D01*
Y196550D01*
X94520D01*
Y222550D01*
X93598D01*
Y225332D01*
X94138Y225872D01*
X133400D01*
X145601Y213671D01*
X147481Y212229D01*
X149670Y211322D01*
X152020Y211012D01*
X186198D01*
X187310Y210630D01*
X187310Y209742D01*
Y208590D01*
X196850D01*
X206390D01*
Y210630D01*
X207502Y211012D01*
X210328D01*
X211440Y210630D01*
X211440Y209742D01*
Y208590D01*
X220980D01*
X230520D01*
Y210630D01*
X231632Y211012D01*
X239794D01*
X247316Y203490D01*
Y192750D01*
X247565Y192501D01*
X246151Y191087D01*
X249687Y187552D01*
X257465Y179773D01*
X260217Y177021D01*
X252934Y169738D01*
X240546Y182126D01*
X240289Y182298D01*
X240271Y182339D01*
X238829Y184219D01*
X236949Y185662D01*
X234760Y186568D01*
X232410Y186878D01*
X207808D01*
X207808Y186878D01*
X205458Y186568D01*
X203269Y185662D01*
X201389Y184219D01*
X194261Y177091D01*
X192819Y175211D01*
X192212Y173748D01*
X184020D01*
Y176100D01*
X168020D01*
Y170103D01*
X167830Y169928D01*
X166560Y170487D01*
Y174640D01*
X164520D01*
Y165100D01*
Y155560D01*
X166560D01*
Y159713D01*
X167830Y160272D01*
X168020Y160097D01*
Y154100D01*
X184020D01*
Y155592D01*
X200680D01*
X201270Y155670D01*
X209180D01*
Y161673D01*
X209448Y162320D01*
X209758Y164670D01*
Y166877D01*
X210716Y167664D01*
X211840Y167198D01*
Y157430D01*
X214380D01*
Y164970D01*
X223380D01*
Y157430D01*
X225920D01*
Y168722D01*
X232410D01*
X234760Y169032D01*
X235875Y169494D01*
X246522Y158847D01*
X246861Y158620D01*
X246986Y157356D01*
X237869Y148239D01*
X227380D01*
Y149170D01*
X210380D01*
Y139241D01*
X208990Y137851D01*
X207720Y138377D01*
Y147910D01*
X205180D01*
Y140370D01*
X196180D01*
Y147910D01*
X193640D01*
Y137099D01*
X189652D01*
X184596Y142156D01*
X183640Y142889D01*
Y150700D01*
X167640D01*
Y140224D01*
X167571Y139700D01*
Y136700D01*
X167640Y136176D01*
Y128700D01*
X173695D01*
X173802Y128656D01*
X175496Y128433D01*
X179387Y124542D01*
X178901Y123368D01*
X147320D01*
X144644Y123016D01*
X142151Y121983D01*
X140010Y120340D01*
X122718Y103048D01*
X105340D01*
Y107880D01*
X64840D01*
Y101713D01*
X49830D01*
Y102140D01*
X36668D01*
X33841Y104967D01*
X34327Y106140D01*
X34527D01*
X35199Y106052D01*
X35872Y106140D01*
X49830D01*
Y126140D01*
X45538D01*
Y129630D01*
X46790D01*
Y148630D01*
X38299D01*
X37125Y149116D01*
X34450Y149468D01*
X34290D01*
X31614Y149116D01*
X30440Y148630D01*
X27868D01*
Y155090D01*
X29790D01*
Y163130D01*
Y171170D01*
X27868D01*
Y327450D01*
X64254Y363837D01*
X65241Y363027D01*
X64177Y361435D01*
X63046Y358705D01*
X62470Y355807D01*
Y352853D01*
X63046Y349955D01*
X64177Y347225D01*
X65819Y344768D01*
X67908Y342679D01*
X70365Y341037D01*
X73095Y339907D01*
X75993Y339330D01*
X76066D01*
X94221Y321175D01*
Y290820D01*
X92820D01*
Y257820D01*
X118820D01*
Y290820D01*
X117419D01*
Y325980D01*
X117024Y328982D01*
X115865Y331780D01*
X114022Y334182D01*
X92470Y355734D01*
Y355807D01*
X91894Y358705D01*
X90763Y361435D01*
X89121Y363892D01*
X87032Y365981D01*
X84575Y367623D01*
X81845Y368754D01*
X78947Y369330D01*
X75993D01*
X73095Y368754D01*
X70365Y367623D01*
X68773Y366559D01*
X67963Y367546D01*
X79960Y379542D01*
X192847D01*
X193373Y378272D01*
D02*
G37*
G36*
X246911Y258182D02*
X247062Y257753D01*
X247314Y257256D01*
X247668Y256691D01*
X248122Y256057D01*
X249332Y254586D01*
X250946Y252842D01*
X251904Y251867D01*
X249783Y249746D01*
X248808Y250704D01*
X245592Y253528D01*
X244959Y253982D01*
X244394Y254336D01*
X243897Y254588D01*
X243468Y254739D01*
X243108Y254790D01*
X246860Y258542D01*
X246911Y258182D01*
D02*
G37*
G36*
X334292Y250733D02*
X334208Y250571D01*
X334133Y250387D01*
X334069Y250182D01*
X334014Y249958D01*
X333969Y249712D01*
X333910Y249158D01*
X333895Y248850D01*
X333890Y248521D01*
X330890D01*
X330885Y248850D01*
X330811Y249712D01*
X330766Y249958D01*
X330711Y250182D01*
X330647Y250387D01*
X330572Y250571D01*
X330488Y250733D01*
X330393Y250876D01*
X334387D01*
X334292Y250733D01*
D02*
G37*
G36*
X272614Y258802D02*
X273972Y257760D01*
X274540Y257525D01*
X285044Y247021D01*
X281224Y243201D01*
X274770Y236747D01*
X271989Y239528D01*
Y246464D01*
X271969Y246568D01*
X271994Y246694D01*
X271567Y248840D01*
X270351Y250659D01*
X260547Y260464D01*
Y269210D01*
X261720Y269696D01*
X272614Y258802D01*
D02*
G37*
G36*
X273265Y232452D02*
X274737Y231158D01*
X274815Y231128D01*
X274860Y231137D01*
X272781Y229059D01*
X272790Y229104D01*
X272760Y229181D01*
X272692Y229292D01*
X272584Y229436D01*
X272253Y229824D01*
X271126Y230996D01*
X272922Y232792D01*
X273265Y232452D01*
D02*
G37*
G36*
X269569Y228755D02*
X270647Y227823D01*
X270842Y227694D01*
X271007Y227608D01*
X271143Y227564D01*
X271248Y227562D01*
X271324Y227601D01*
X269246Y225523D01*
X269224Y225537D01*
X269166Y225587D01*
X268346Y226384D01*
X267428Y227298D01*
X269224Y229094D01*
X269569Y228755D01*
D02*
G37*
G36*
X303775Y222928D02*
X303893Y221481D01*
X303997Y220893D01*
X304130Y220396D01*
X304292Y219989D01*
X304484Y219672D01*
X304706Y219446D01*
X304958Y219310D01*
X305238Y219265D01*
X299282D01*
X299562Y219310D01*
X299814Y219446D01*
X300036Y219672D01*
X300228Y219989D01*
X300390Y220396D01*
X300523Y220893D01*
X300627Y221481D01*
X300701Y222159D01*
X300760Y223787D01*
X303760D01*
X303775Y222928D01*
D02*
G37*
G36*
X421571Y213291D02*
X423451Y211849D01*
X425640Y210942D01*
X427990Y210632D01*
X503200D01*
Y199460D01*
X508872D01*
Y182620D01*
X501700Y175448D01*
X468120D01*
Y177370D01*
X452120D01*
Y171373D01*
X451930Y171198D01*
X450660Y171757D01*
Y175910D01*
X448620D01*
Y166370D01*
Y156830D01*
X450660D01*
Y160983D01*
X451930Y161542D01*
X452120Y161367D01*
Y155370D01*
X468120D01*
Y157292D01*
X494925D01*
X495411Y156119D01*
X449203Y109911D01*
X448030Y110398D01*
X448030Y122600D01*
X448730Y123580D01*
X448730Y123780D01*
Y130120D01*
X432650D01*
X432650Y123780D01*
X431950Y122800D01*
X431950Y122600D01*
Y116260D01*
X439990D01*
Y107260D01*
X431950D01*
Y100720D01*
X438353D01*
X438839Y99547D01*
X368689Y29398D01*
X250035D01*
X249549Y30571D01*
X268021Y49043D01*
X269280Y48877D01*
X269467Y48554D01*
X272074Y45947D01*
X275266Y44104D01*
X278827Y43150D01*
X282513D01*
X286074Y44104D01*
X289266Y45947D01*
X291873Y48554D01*
X292735Y50047D01*
X294005D01*
X294867Y48554D01*
X297474Y45947D01*
X300666Y44104D01*
X304227Y43150D01*
X307913D01*
X311474Y44104D01*
X314666Y45947D01*
X317273Y48554D01*
X318135Y50047D01*
X319405D01*
X320267Y48554D01*
X322874Y45947D01*
X326066Y44104D01*
X329627Y43150D01*
X333313D01*
X336874Y44104D01*
X340066Y45947D01*
X342673Y48554D01*
X343535Y50047D01*
X344805D01*
X345667Y48554D01*
X348274Y45947D01*
X351466Y44104D01*
X355027Y43150D01*
X358713D01*
X362274Y44104D01*
X365466Y45947D01*
X368073Y48554D01*
X369916Y51746D01*
X370870Y55307D01*
Y58993D01*
X369916Y62554D01*
X368073Y65746D01*
X365466Y68353D01*
X364687Y68803D01*
Y98760D01*
X382810D01*
Y121620D01*
Y147620D01*
X362810D01*
Y137688D01*
X349754D01*
X329806Y157635D01*
X327987Y158851D01*
X325841Y159278D01*
X325673D01*
X325187Y160451D01*
X331004Y166268D01*
X333756Y169020D01*
X339055Y163721D01*
X338902Y162560D01*
X339212Y160210D01*
X340118Y158021D01*
X341561Y156141D01*
X343441Y154698D01*
X345630Y153792D01*
X347980Y153482D01*
X363380D01*
Y149560D01*
X383380D01*
Y172251D01*
X385230Y172619D01*
X387049Y173835D01*
X387751Y174536D01*
X388840Y173829D01*
X388840Y172942D01*
Y167060D01*
X392880D01*
Y174100D01*
X390078D01*
X389111Y174100D01*
X388404Y175189D01*
X390067Y176852D01*
X398360D01*
X398902Y176960D01*
X408050D01*
Y188048D01*
X409320Y188727D01*
X409510Y188600D01*
Y178420D01*
X411550D01*
Y187960D01*
X416050D01*
Y192460D01*
X422590D01*
Y197500D01*
X417441D01*
X412515Y202425D01*
X410696Y203641D01*
X408550Y204068D01*
X401583D01*
X400727Y205179D01*
X400704Y205338D01*
X400956Y207251D01*
X400956Y207252D01*
Y210371D01*
X407455Y216870D01*
X416400D01*
Y216870D01*
X417670Y217192D01*
X421571Y213291D01*
D02*
G37*
G36*
X360666Y230521D02*
X361614Y231469D01*
X368171Y224911D01*
X370051Y223468D01*
X372240Y222562D01*
X372400Y222541D01*
Y216870D01*
X384726D01*
X385586Y215634D01*
X385584Y215600D01*
X385322Y213609D01*
Y210489D01*
X379773Y204940D01*
X378530Y203321D01*
X378073Y202217D01*
X377749Y201436D01*
X377660Y200755D01*
X376362Y199457D01*
X373630D01*
X373122Y199390D01*
X362380D01*
Y196624D01*
X350297D01*
X349465Y197456D01*
X349006Y197763D01*
X347515Y199254D01*
X355470Y207209D01*
X347692Y214987D01*
X344156Y218523D01*
X337085Y225594D01*
X330797Y231882D01*
X331728Y232812D01*
X331768D01*
X333464Y233036D01*
X334522Y233474D01*
X350350D01*
X352047Y233697D01*
X353628Y234352D01*
X354986Y235394D01*
X355389Y235798D01*
X360666Y230521D01*
D02*
G37*
G36*
X324720Y199548D02*
X324856Y199296D01*
X325082Y199074D01*
X325399Y198882D01*
X325806Y198720D01*
X326303Y198587D01*
X326891Y198483D01*
X327569Y198409D01*
X329197Y198350D01*
Y195350D01*
X328338Y195335D01*
X326891Y195217D01*
X326303Y195114D01*
X325806Y194980D01*
X325399Y194818D01*
X325082Y194626D01*
X324856Y194404D01*
X324720Y194153D01*
X324675Y193872D01*
Y199828D01*
X324720Y199548D01*
D02*
G37*
G36*
X279845Y193872D02*
X279799Y194153D01*
X279664Y194404D01*
X279438Y194626D01*
X279121Y194818D01*
X278714Y194980D01*
X278217Y195114D01*
X277629Y195217D01*
X276951Y195291D01*
X275323Y195350D01*
Y198350D01*
X276182Y198365D01*
X277629Y198483D01*
X278217Y198587D01*
X278714Y198720D01*
X279121Y198882D01*
X279438Y199074D01*
X279664Y199296D01*
X279799Y199548D01*
X279845Y199828D01*
Y193872D01*
D02*
G37*
G36*
X295149Y178567D02*
X294926Y178747D01*
X294682Y178863D01*
X294415Y178915D01*
X294128Y178903D01*
X293818Y178827D01*
X293487Y178687D01*
X293134Y178482D01*
X292760Y178214D01*
X292363Y177881D01*
X291946Y177485D01*
X289824Y179606D01*
X290221Y180024D01*
X290553Y180420D01*
X290822Y180794D01*
X291026Y181147D01*
X291166Y181478D01*
X291243Y181788D01*
X291255Y182076D01*
X291203Y182342D01*
X291087Y182587D01*
X290907Y182810D01*
X295149Y178567D01*
D02*
G37*
G36*
X288270Y151031D02*
X285070D01*
X285089Y151076D01*
X285106Y151157D01*
X285121Y151275D01*
X285145Y151619D01*
X285170Y153117D01*
X288170D01*
X288270Y151031D01*
D02*
G37*
G36*
X254739Y142443D02*
X254764Y142289D01*
X254806Y142130D01*
X254866Y141965D01*
X254942Y141795D01*
X255036Y141620D01*
X255146Y141440D01*
X255418Y141064D01*
X255579Y140869D01*
X249881D01*
X250042Y141064D01*
X250314Y141440D01*
X250424Y141620D01*
X250518Y141795D01*
X250594Y141965D01*
X250654Y142130D01*
X250696Y142289D01*
X250721Y142443D01*
X250730Y142592D01*
X254730D01*
X254739Y142443D01*
D02*
G37*
G36*
X366871Y129080D02*
X366841Y129365D01*
X366750Y129620D01*
X366598Y129845D01*
X366386Y130040D01*
X366113Y130205D01*
X365780Y130340D01*
X365386Y130445D01*
X364931Y130520D01*
X364416Y130565D01*
X363840Y130580D01*
Y133580D01*
X364416Y133595D01*
X364931Y133640D01*
X365386Y133715D01*
X365780Y133820D01*
X366113Y133955D01*
X366386Y134120D01*
X366598Y134315D01*
X366750Y134540D01*
X366841Y134795D01*
X366871Y135080D01*
Y129080D01*
D02*
G37*
G36*
Y108760D02*
X366841Y109045D01*
X366750Y109300D01*
X366598Y109525D01*
X366386Y109720D01*
X366113Y109885D01*
X365780Y110020D01*
X365386Y110125D01*
X364931Y110200D01*
X364416Y110245D01*
X363840Y110260D01*
Y113260D01*
X364416Y113275D01*
X364931Y113320D01*
X365386Y113395D01*
X365780Y113500D01*
X366113Y113635D01*
X366386Y113800D01*
X366598Y113995D01*
X366750Y114220D01*
X366841Y114475D01*
X366871Y114760D01*
Y108760D01*
D02*
G37*
G36*
X214090Y120125D02*
Y118889D01*
X214045Y118830D01*
X212886Y116032D01*
X212491Y113030D01*
Y92140D01*
X212886Y89138D01*
X214045Y86340D01*
X214711Y85472D01*
Y83120D01*
X213330D01*
Y59120D01*
X243130D01*
Y83120D01*
X237909D01*
Y89920D01*
X237514Y92922D01*
X236355Y95719D01*
X235689Y96588D01*
Y109403D01*
X239190D01*
Y109220D01*
X257604D01*
Y107760D01*
X254690D01*
Y101220D01*
Y94680D01*
X257604D01*
Y60022D01*
X227470Y29888D01*
X166670D01*
X137248Y59310D01*
X137774Y60580D01*
X145730D01*
Y66620D01*
X136790D01*
Y61564D01*
X135520Y61038D01*
X115359Y81198D01*
X115845Y82372D01*
X127000D01*
X129676Y82724D01*
X132169Y83757D01*
X134310Y85400D01*
X151602Y102692D01*
X190090D01*
Y100030D01*
X210090D01*
Y110459D01*
X210428Y113030D01*
X210090Y115601D01*
Y120961D01*
X211580D01*
X212820Y121124D01*
X214090Y120125D01*
D02*
G37*
G36*
X535673Y105084D02*
X535708Y105014D01*
X535865Y104962D01*
X536144Y104892D01*
X536249Y104787D01*
X536388Y104752D01*
X536702Y104508D01*
X536772Y104438D01*
X536842Y104403D01*
X537069Y104177D01*
X537104Y104107D01*
X537243Y103967D01*
X537278Y103897D01*
X537348Y103828D01*
X537418Y103653D01*
X537453Y103583D01*
X537557Y103339D01*
X537697Y102886D01*
X537732Y102537D01*
X537766Y94407D01*
X541081Y94373D01*
X541535Y94338D01*
X541744Y94303D01*
X541918Y94268D01*
X542389Y94215D01*
X542616Y94163D01*
X542808Y94111D01*
X542948Y94076D01*
X543192Y94041D01*
X543541Y93902D01*
X543802Y93849D01*
X543994Y93762D01*
X544134Y93727D01*
X544361Y93640D01*
X544553Y93553D01*
X544744Y93500D01*
X544832Y93413D01*
X545024Y93361D01*
X545146Y93273D01*
X545320Y93204D01*
X545390Y93169D01*
X545564Y93064D01*
X546053Y92785D01*
X546123Y92715D01*
X546297Y92611D01*
X546541Y92471D01*
X546646Y92366D01*
X546768Y92314D01*
X546786Y92262D01*
X546855Y92227D01*
X547047Y92070D01*
X547169Y91982D01*
X547274Y91878D01*
X547344Y91843D01*
X547518Y91669D01*
X547588Y91634D01*
X547623Y91564D01*
X547693Y91529D01*
X548303Y90918D01*
X548321Y90866D01*
X548391Y90831D01*
X548478Y90709D01*
X548617Y90569D01*
X548652Y90500D01*
X548792Y90360D01*
X548896Y90186D01*
X548966Y90116D01*
X549001Y90046D01*
X549106Y89942D01*
X549141Y89872D01*
X549315Y89628D01*
X549350Y89558D01*
X549420Y89488D01*
X549699Y88999D01*
X549769Y88930D01*
X549804Y88790D01*
X549943Y88581D01*
X549978Y88441D01*
X550118Y88232D01*
X550170Y88040D01*
X550257Y87953D01*
X550309Y87726D01*
X550432Y87499D01*
X550501Y87220D01*
X550606Y86976D01*
X550641Y86836D01*
X550693Y86644D01*
X550780Y86418D01*
X550833Y86086D01*
X550920Y85789D01*
X550955Y85650D01*
X551007Y85179D01*
X551042Y84970D01*
X551077Y84795D01*
X551112Y84342D01*
X551147Y81027D01*
X551251Y80992D01*
X559695Y80957D01*
X559869Y80887D01*
X560114Y80818D01*
X560288Y80748D01*
X560358Y80678D01*
X560497Y80643D01*
X560811Y80399D01*
X560881Y80329D01*
X560951Y80294D01*
X561178Y80068D01*
X561213Y79998D01*
X561352Y79858D01*
X561387Y79788D01*
X561492Y79614D01*
X561666Y79230D01*
X561701Y79091D01*
X561788Y78934D01*
X561841Y78916D01*
X561823Y77678D01*
X561754Y77643D01*
X561701Y77486D01*
X561666Y77346D01*
X561422Y76893D01*
X561091Y76456D01*
X560951Y76317D01*
X560881Y76282D01*
X560742Y76142D01*
X560567Y76038D01*
X560253Y75863D01*
X560079Y75793D01*
X559887Y75741D01*
X559590Y75654D01*
X558823Y75619D01*
X551234Y75637D01*
X551129Y75567D01*
X551147Y64943D01*
X551286Y64908D01*
X559765Y64873D01*
X560009Y64768D01*
X560201Y64716D01*
X560428Y64594D01*
X560602Y64489D01*
X560916Y64245D01*
X561003Y64193D01*
X561038Y64123D01*
X561091Y64071D01*
X561143Y64053D01*
X561178Y63983D01*
X561317Y63844D01*
X561422Y63669D01*
X561596Y63355D01*
X561666Y63181D01*
X561719Y62954D01*
X561754Y62884D01*
X561823Y62849D01*
X561841Y61646D01*
X561788Y61593D01*
X561736Y61576D01*
X561631Y61157D01*
X561527Y61052D01*
X561492Y60913D01*
X561317Y60669D01*
X561282Y60599D01*
X560776Y60093D01*
X560602Y59988D01*
X560532Y59918D01*
X560305Y59831D01*
X560253Y59779D01*
X560009Y59709D01*
X559660Y59605D01*
X559520Y59570D01*
X551147Y59535D01*
X551129Y48911D01*
X551182Y48858D01*
X551321Y48823D01*
X551426Y48858D01*
X559660Y48823D01*
X559835Y48754D01*
X560079Y48684D01*
X560253Y48614D01*
X560567Y48440D01*
X560881Y48196D01*
X561073Y48038D01*
X561178Y47934D01*
X561213Y47864D01*
X561352Y47724D01*
X561457Y47550D01*
X561666Y47096D01*
X561701Y46957D01*
X561788Y46800D01*
X561841Y46782D01*
X561823Y45544D01*
X561754Y45509D01*
X561701Y45352D01*
X561666Y45212D01*
X561631Y45108D01*
X561527Y44933D01*
X561387Y44689D01*
X561230Y44497D01*
X561143Y44375D01*
X560916Y44148D01*
X560846Y44113D01*
X560707Y43974D01*
X560637Y43939D01*
X560567Y43869D01*
X560393Y43799D01*
X560323Y43764D01*
X560079Y43660D01*
X559625Y43520D01*
X559381Y43485D01*
X551147Y43450D01*
X551112Y40171D01*
X551077Y39682D01*
X551042Y39508D01*
X550972Y39089D01*
X550938Y38740D01*
X550903Y38601D01*
X550815Y38304D01*
X550763Y38008D01*
X550693Y37833D01*
X550641Y37641D01*
X550589Y37414D01*
X550466Y37118D01*
X550414Y36926D01*
X550362Y36874D01*
X550292Y36699D01*
X550240Y36507D01*
X550187Y36455D01*
X550048Y36106D01*
X549978Y36036D01*
X549926Y35844D01*
X549838Y35757D01*
X549769Y35583D01*
X549734Y35513D01*
X549664Y35443D01*
X549490Y35129D01*
X549193Y34693D01*
X549141Y34641D01*
X549036Y34466D01*
X548966Y34396D01*
X548931Y34327D01*
X548827Y34222D01*
X548792Y34152D01*
X548635Y33960D01*
X548548Y33838D01*
X548408Y33699D01*
X548373Y33629D01*
X548303Y33594D01*
X548268Y33524D01*
X547658Y32914D01*
X547606Y32896D01*
X547571Y32826D01*
X547361Y32652D01*
X547309Y32600D01*
X547239Y32565D01*
X547135Y32460D01*
X547065Y32425D01*
X546873Y32268D01*
X546524Y31989D01*
X545687Y31466D01*
X545425Y31344D01*
X545355Y31274D01*
X545163Y31221D01*
X545076Y31134D01*
X544797Y31030D01*
X544553Y30925D01*
X544413Y30890D01*
X544343Y30820D01*
X544099Y30750D01*
X543960Y30715D01*
X543715Y30611D01*
X543576Y30576D01*
X543384Y30524D01*
X543157Y30436D01*
X542826Y30384D01*
X542529Y30297D01*
X542389Y30262D01*
X541918Y30210D01*
X541709Y30175D01*
X541535Y30140D01*
X541081Y30105D01*
X537766Y30070D01*
X537732Y29965D01*
X537697Y21522D01*
X537627Y21347D01*
X537557Y21103D01*
X537278Y20580D01*
X537121Y20388D01*
X537034Y20266D01*
X536807Y20039D01*
X536737Y20004D01*
X536598Y19865D01*
X536528Y19830D01*
X536458Y19760D01*
X536284Y19690D01*
X536214Y19655D01*
X535970Y19551D01*
X535830Y19516D01*
X535673Y19429D01*
X535656Y19376D01*
X534417Y19394D01*
X534382Y19463D01*
X534225Y19516D01*
X534086Y19551D01*
X533632Y19795D01*
X533196Y20126D01*
X533056Y20266D01*
X533021Y20336D01*
X532882Y20475D01*
X532847Y20545D01*
X532707Y20754D01*
X532533Y21138D01*
X532481Y21330D01*
X532428Y21487D01*
X532393Y21627D01*
X532359Y22394D01*
X532376Y29983D01*
X532306Y30087D01*
X521682Y30070D01*
X521647Y29931D01*
X521612Y21487D01*
X521543Y21313D01*
X521508Y21173D01*
X521421Y20946D01*
X521368Y20894D01*
X521281Y20667D01*
X521194Y20580D01*
X521159Y20510D01*
X521002Y20318D01*
X520932Y20214D01*
X520862Y20179D01*
X520810Y20126D01*
X520793Y20074D01*
X520723Y20039D01*
X520583Y19900D01*
X520409Y19795D01*
X520339Y19725D01*
X520199Y19690D01*
X519990Y19551D01*
X519711Y19516D01*
X519624Y19463D01*
X519589Y19394D01*
X518385Y19376D01*
X518246Y19516D01*
X517949Y19568D01*
X517827Y19655D01*
X517513Y19830D01*
X517269Y20004D01*
X517199Y20074D01*
X517146Y20092D01*
X517112Y20161D01*
X517059Y20214D01*
X517007Y20231D01*
X516972Y20301D01*
X516832Y20440D01*
X516797Y20510D01*
X516623Y20754D01*
X516588Y20894D01*
X516518Y20964D01*
X516449Y21208D01*
X516361Y21435D01*
X516326Y21609D01*
X516292Y30018D01*
X516257Y30087D01*
X505615Y30053D01*
X505563Y29896D01*
X505598Y29791D01*
X505563Y21557D01*
X505493Y21382D01*
X505423Y21138D01*
X505354Y20964D01*
X505179Y20650D01*
X504935Y20336D01*
X504778Y20144D01*
X504673Y20039D01*
X504604Y20004D01*
X504499Y19900D01*
X504429Y19865D01*
X504220Y19725D01*
X503836Y19551D01*
X503696Y19516D01*
X503539Y19429D01*
X503522Y19376D01*
X502283Y19394D01*
X502248Y19463D01*
X502091Y19516D01*
X501952Y19551D01*
X501428Y19830D01*
X501237Y19987D01*
X501184Y20039D01*
X501114Y20074D01*
X500888Y20301D01*
X500853Y20371D01*
X500713Y20510D01*
X500678Y20580D01*
X500574Y20754D01*
X500399Y21138D01*
X500260Y21592D01*
X500225Y21836D01*
X500190Y30070D01*
X496875Y30105D01*
X496422Y30140D01*
X496247Y30175D01*
X496038Y30210D01*
X495567Y30262D01*
X495340Y30314D01*
X495044Y30401D01*
X494747Y30454D01*
X494572Y30524D01*
X494381Y30576D01*
X494154Y30628D01*
X493857Y30750D01*
X493630Y30838D01*
X493578Y30890D01*
X493351Y30942D01*
X493125Y31064D01*
X492898Y31152D01*
X492845Y31204D01*
X492671Y31274D01*
X492217Y31518D01*
X492148Y31588D01*
X492008Y31623D01*
X491903Y31727D01*
X491659Y31867D01*
X491171Y32216D01*
X490979Y32373D01*
X490927Y32425D01*
X490752Y32530D01*
X490682Y32600D01*
X490612Y32634D01*
X490299Y32949D01*
X490229Y32983D01*
X489653Y33559D01*
X489618Y33629D01*
X489339Y33908D01*
X489304Y33978D01*
X489165Y34117D01*
X489130Y34187D01*
X489025Y34292D01*
X488990Y34362D01*
X488938Y34449D01*
X488885Y34466D01*
X488781Y34641D01*
X488711Y34710D01*
X488571Y34955D01*
X488327Y35338D01*
X488223Y35513D01*
X488048Y35827D01*
X487978Y36001D01*
X487943Y36071D01*
X487874Y36141D01*
X487839Y36281D01*
X487664Y36664D01*
X487629Y36804D01*
X487560Y36874D01*
X487525Y37013D01*
X487403Y37345D01*
X487350Y37502D01*
X487281Y37781D01*
X487176Y38025D01*
X487123Y38356D01*
X487089Y38496D01*
X487036Y38688D01*
X487001Y38828D01*
X486949Y39299D01*
X486914Y39473D01*
X486879Y39682D01*
X486844Y40136D01*
X486810Y43450D01*
X486705Y43485D01*
X478261Y43520D01*
X478087Y43590D01*
X477843Y43660D01*
X477319Y43939D01*
X477127Y44096D01*
X477075Y44148D01*
X477005Y44183D01*
X476779Y44410D01*
X476744Y44480D01*
X476604Y44619D01*
X476569Y44689D01*
X476499Y44759D01*
X476430Y44933D01*
X476395Y45003D01*
X476325Y45073D01*
X476273Y45300D01*
X476238Y45439D01*
X476168Y45544D01*
X476116Y45561D01*
X476133Y46800D01*
X476203Y46835D01*
X476290Y47062D01*
X476325Y47236D01*
X476395Y47306D01*
X476482Y47533D01*
X476569Y47620D01*
X476674Y47794D01*
X476779Y47899D01*
X476814Y47969D01*
X477005Y48161D01*
X477075Y48196D01*
X477215Y48335D01*
X477389Y48440D01*
X477703Y48614D01*
X477878Y48684D01*
X478069Y48736D01*
X478227Y48789D01*
X478366Y48823D01*
X479134Y48858D01*
X486722Y48841D01*
X486827Y48911D01*
X486810Y59535D01*
X486670Y59570D01*
X478227Y59605D01*
X478052Y59674D01*
X477912Y59709D01*
X477686Y59796D01*
X477633Y59849D01*
X477407Y59936D01*
X477285Y60058D01*
X477110Y60163D01*
X476866Y60407D01*
X476814Y60424D01*
X476779Y60494D01*
X476639Y60634D01*
X476534Y60808D01*
X476465Y60878D01*
X476430Y61018D01*
X476290Y61227D01*
X476255Y61506D01*
X476116Y61646D01*
X476133Y62884D01*
X476203Y62919D01*
X476290Y63146D01*
X476325Y63320D01*
X476395Y63390D01*
X476465Y63565D01*
X476499Y63634D01*
X476604Y63739D01*
X476709Y63913D01*
X476779Y63983D01*
X476814Y64053D01*
X476866Y64105D01*
X476936Y64140D01*
X476970Y64210D01*
X477040Y64245D01*
X477127Y64297D01*
X477162Y64367D01*
X477354Y64489D01*
X477424Y64559D01*
X477616Y64611D01*
X477703Y64699D01*
X477947Y64768D01*
X478174Y64855D01*
X478349Y64890D01*
X486757Y64925D01*
X486827Y64960D01*
X486792Y75602D01*
X486635Y75654D01*
X486530Y75619D01*
X478296Y75654D01*
X478122Y75724D01*
X477878Y75793D01*
X477703Y75863D01*
X477389Y76038D01*
X477319Y76108D01*
X477145Y76212D01*
X477040Y76317D01*
X476970Y76352D01*
X476779Y76544D01*
X476744Y76613D01*
X476639Y76718D01*
X476604Y76788D01*
X476430Y77032D01*
X476395Y77172D01*
X476325Y77242D01*
X476290Y77381D01*
X476238Y77573D01*
X476168Y77678D01*
X476116Y77695D01*
X476133Y78934D01*
X476203Y78969D01*
X476255Y79125D01*
X476290Y79265D01*
X476360Y79440D01*
X476430Y79509D01*
X476465Y79649D01*
X476639Y79893D01*
X476674Y79963D01*
X477040Y80329D01*
X477110Y80364D01*
X477250Y80504D01*
X477319Y80539D01*
X477389Y80608D01*
X477616Y80696D01*
X477668Y80748D01*
X477843Y80818D01*
X478035Y80870D01*
X478331Y80957D01*
X478680Y80992D01*
X486810Y81027D01*
X486844Y84342D01*
X486879Y84795D01*
X486914Y85005D01*
X486949Y85179D01*
X487001Y85650D01*
X487054Y85877D01*
X487089Y86016D01*
X487141Y86208D01*
X487176Y86453D01*
X487315Y86801D01*
X487368Y87063D01*
X487455Y87255D01*
X487490Y87395D01*
X487577Y87621D01*
X487629Y87674D01*
X487682Y87865D01*
X487839Y88232D01*
X487943Y88406D01*
X488013Y88581D01*
X488048Y88651D01*
X488257Y88999D01*
X488432Y89313D01*
X488502Y89383D01*
X488606Y89558D01*
X488746Y89802D01*
X488851Y89907D01*
X488903Y90029D01*
X488955Y90046D01*
X488990Y90116D01*
X489147Y90308D01*
X489322Y90517D01*
X489409Y90639D01*
X489548Y90779D01*
X489566Y90831D01*
X489636Y90866D01*
X489723Y90988D01*
X490264Y91529D01*
X490333Y91564D01*
X490647Y91878D01*
X490717Y91913D01*
X490857Y92052D01*
X490927Y92087D01*
X491031Y92192D01*
X491101Y92227D01*
X491206Y92331D01*
X491450Y92471D01*
X491520Y92541D01*
X491694Y92646D01*
X491764Y92715D01*
X491869Y92750D01*
X491938Y92820D01*
X492566Y93169D01*
X492741Y93239D01*
X492811Y93273D01*
X492880Y93343D01*
X493020Y93378D01*
X493404Y93553D01*
X493578Y93622D01*
X493822Y93727D01*
X494014Y93779D01*
X494206Y93867D01*
X494520Y93936D01*
X494764Y94041D01*
X495096Y94093D01*
X495288Y94146D01*
X495567Y94215D01*
X496038Y94268D01*
X496212Y94303D01*
X496422Y94338D01*
X496875Y94373D01*
X500190Y94407D01*
X500225Y94512D01*
X500260Y102956D01*
X500329Y103130D01*
X500399Y103374D01*
X500678Y103897D01*
X500835Y104089D01*
X500888Y104142D01*
X500923Y104212D01*
X501289Y104578D01*
X501463Y104683D01*
X501777Y104857D01*
X501952Y104927D01*
X502179Y104979D01*
X502283Y105049D01*
X502301Y105101D01*
X503539Y105084D01*
X503574Y105014D01*
X503801Y104927D01*
X503975Y104892D01*
X504045Y104822D01*
X504272Y104735D01*
X504359Y104648D01*
X504429Y104613D01*
X504621Y104456D01*
X504743Y104368D01*
X504900Y104212D01*
X504935Y104142D01*
X505075Y104002D01*
X505179Y103828D01*
X505249Y103758D01*
X505284Y103618D01*
X505388Y103444D01*
X505423Y103304D01*
X505563Y102851D01*
X505598Y102083D01*
X505580Y94495D01*
X505650Y94390D01*
X516274Y94407D01*
X516309Y94547D01*
X516344Y103025D01*
X516449Y103270D01*
X516501Y103461D01*
X516623Y103618D01*
X516675Y103810D01*
X516797Y103932D01*
X516902Y104107D01*
X517007Y104212D01*
X517024Y104264D01*
X517094Y104299D01*
X517181Y104421D01*
X517304Y104508D01*
X517373Y104578D01*
X517548Y104683D01*
X517617Y104752D01*
X517757Y104787D01*
X517966Y104927D01*
X518246Y104962D01*
X518333Y105049D01*
X518350Y105101D01*
X519606Y105066D01*
X519711Y104962D01*
X520007Y104909D01*
X520269Y104752D01*
X520374Y104717D01*
X520479Y104613D01*
X520653Y104508D01*
X520758Y104403D01*
X520810Y104386D01*
X520845Y104316D01*
X520897Y104264D01*
X520950Y104246D01*
X520984Y104177D01*
X521124Y104037D01*
X521229Y103863D01*
X521298Y103793D01*
X521386Y103566D01*
X521438Y103514D01*
X521508Y103270D01*
X521595Y103043D01*
X521630Y102868D01*
X521665Y94460D01*
X521700Y94390D01*
X525817D01*
X532341Y94425D01*
X532393Y94582D01*
X532359Y94686D01*
X532393Y102921D01*
X532428Y103025D01*
X532498Y103200D01*
X532533Y103339D01*
X532603Y103514D01*
X532777Y103828D01*
X533109Y104264D01*
X533283Y104438D01*
X533353Y104473D01*
X533493Y104613D01*
X533562Y104648D01*
X533772Y104787D01*
X533911Y104822D01*
X533981Y104892D01*
X534260Y104962D01*
X534417Y105049D01*
X534435Y105101D01*
X535673Y105084D01*
D02*
G37*
G36*
X100716Y95778D02*
X100437Y94860D01*
X100440Y93801D01*
X100726Y92600D01*
X101294Y91257D01*
X102146Y89772D01*
X103280Y88145D01*
X104698Y86375D01*
X108381Y82410D01*
X101309Y75339D01*
X99256Y77322D01*
X95576Y80440D01*
X93948Y81574D01*
X92463Y82426D01*
X91120Y82994D01*
X89919Y83280D01*
X88860Y83283D01*
X87942Y83004D01*
X87167Y82441D01*
X101279Y96553D01*
X100716Y95778D01*
D02*
G37*
G36*
X274552Y145552D02*
Y69784D01*
X272074Y68353D01*
X271889Y68168D01*
X270716Y68654D01*
Y143375D01*
X273379Y146038D01*
X274552Y145552D01*
D02*
G37*
G36*
X349053Y100145D02*
Y68803D01*
X348274Y68353D01*
X345667Y65746D01*
X344805Y64253D01*
X343535D01*
X342673Y65746D01*
X340066Y68353D01*
X339287Y68803D01*
Y108252D01*
X340460Y108738D01*
X349053Y100145D01*
D02*
G37*
G36*
X323255Y113848D02*
X323653Y112887D01*
Y68803D01*
X322874Y68353D01*
X320267Y65746D01*
X319405Y64253D01*
X318135D01*
X317273Y65746D01*
X314666Y68353D01*
X311474Y70196D01*
X307913Y71150D01*
X304227D01*
X301462Y70409D01*
X292787Y79084D01*
Y142656D01*
X293961Y143142D01*
X323255Y113848D01*
D02*
G37*
G36*
X241161Y27931D02*
X234090Y20807D01*
X229087Y25810D01*
X229168Y25881D01*
X230252Y26941D01*
X236211Y32881D01*
X241161Y27931D01*
D02*
G37*
%LPC*%
G36*
X289760Y280050D02*
X287720D01*
Y275010D01*
X289760D01*
Y280050D01*
D02*
G37*
G36*
X132770Y367142D02*
Y358830D01*
X141082D01*
X140887Y359556D01*
X139105Y362644D01*
X136584Y365165D01*
X133496Y366947D01*
X132770Y367142D01*
D02*
G37*
G36*
X123770D02*
X123044Y366947D01*
X119956Y365165D01*
X117435Y362644D01*
X115653Y359556D01*
X115458Y358830D01*
X123770D01*
Y367142D01*
D02*
G37*
G36*
X141082Y349830D02*
X132770D01*
Y341518D01*
X133496Y341713D01*
X136584Y343495D01*
X139105Y346016D01*
X140887Y349104D01*
X141082Y349830D01*
D02*
G37*
G36*
X123770D02*
X115458D01*
X115653Y349104D01*
X117435Y346016D01*
X119956Y343495D01*
X123044Y341713D01*
X123770Y341518D01*
Y349830D01*
D02*
G37*
G36*
X210470Y307450D02*
X206430D01*
Y300410D01*
X210470D01*
Y307450D01*
D02*
G37*
G36*
X197430D02*
X193390D01*
Y300410D01*
X197430D01*
Y307450D01*
D02*
G37*
G36*
X210470Y291410D02*
X206430D01*
Y284370D01*
X210470D01*
Y291410D01*
D02*
G37*
G36*
X197430D02*
X193390D01*
Y284370D01*
X197430D01*
Y291410D01*
D02*
G37*
G36*
X161130Y267080D02*
X152190D01*
Y261040D01*
X161130D01*
Y267080D01*
D02*
G37*
G36*
X143190D02*
X134250D01*
Y261040D01*
X143190D01*
Y267080D01*
D02*
G37*
G36*
Y252040D02*
X134250D01*
Y246000D01*
X143190D01*
Y252040D01*
D02*
G37*
G36*
X41730Y203850D02*
X39690D01*
Y198810D01*
X41730D01*
Y203850D01*
D02*
G37*
G36*
X230520Y199590D02*
X225480D01*
Y197550D01*
X230520D01*
Y199590D01*
D02*
G37*
G36*
X216480D02*
X211440D01*
Y197550D01*
X216480D01*
Y199590D01*
D02*
G37*
G36*
X206390D02*
X201350D01*
Y197550D01*
X206390D01*
Y199590D01*
D02*
G37*
G36*
X192350D02*
X187310D01*
Y197550D01*
X192350D01*
Y199590D01*
D02*
G37*
G36*
X41730Y189810D02*
X39690D01*
Y184770D01*
X41730D01*
Y189810D01*
D02*
G37*
G36*
X139920Y191880D02*
X132650D01*
Y181610D01*
X139920D01*
Y191880D01*
D02*
G37*
G36*
X130110D02*
X122840D01*
Y181610D01*
X130110D01*
Y191880D01*
D02*
G37*
G36*
X155520Y174640D02*
X153480D01*
Y169600D01*
X155520D01*
Y174640D01*
D02*
G37*
G36*
X139920Y179070D02*
X132650D01*
Y168800D01*
X139920D01*
Y179070D01*
D02*
G37*
G36*
X130110D02*
X122840D01*
Y168800D01*
X130110D01*
Y179070D01*
D02*
G37*
G36*
X45330Y171170D02*
X38790D01*
Y167630D01*
X45330D01*
Y171170D01*
D02*
G37*
G36*
X155520Y160600D02*
X153480D01*
Y155560D01*
X155520D01*
Y160600D01*
D02*
G37*
G36*
X45330Y158630D02*
X38790D01*
Y155090D01*
X45330D01*
Y158630D01*
D02*
G37*
G36*
X166180Y149240D02*
X164140D01*
Y144200D01*
X166180D01*
Y149240D01*
D02*
G37*
G36*
X155140D02*
X153100D01*
Y144200D01*
X155140D01*
Y149240D01*
D02*
G37*
G36*
X118520Y222550D02*
X98520D01*
Y196550D01*
X99442D01*
Y193340D01*
X97380D01*
Y167340D01*
X98302D01*
Y157340D01*
X98612Y154991D01*
X99012Y154023D01*
Y151130D01*
X99322Y148780D01*
X99340Y148736D01*
Y136380D01*
X116840D01*
Y148736D01*
X116858Y148780D01*
X117168Y151130D01*
Y156630D01*
X116858Y158980D01*
X116840Y159024D01*
Y165880D01*
X116458D01*
Y167340D01*
X117380D01*
Y182827D01*
X117598Y184480D01*
X117598Y184480D01*
Y196550D01*
X118520D01*
Y222550D01*
D02*
G37*
G36*
X166180Y135200D02*
X164140D01*
Y130160D01*
X166180D01*
Y135200D01*
D02*
G37*
G36*
X155140D02*
X153100D01*
Y130160D01*
X155140D01*
Y135200D01*
D02*
G37*
G36*
X473240Y204250D02*
X464450D01*
Y201210D01*
X473240D01*
Y204250D01*
D02*
G37*
G36*
X455450D02*
X446660D01*
Y201210D01*
X455450D01*
Y204250D01*
D02*
G37*
G36*
X473240Y192210D02*
X464450D01*
Y189170D01*
X473240D01*
Y192210D01*
D02*
G37*
G36*
X455450D02*
X446660D01*
Y189170D01*
X455450D01*
Y192210D01*
D02*
G37*
G36*
X422590Y183460D02*
X420550D01*
Y178420D01*
X422590D01*
Y183460D01*
D02*
G37*
G36*
X439620Y175910D02*
X437580D01*
Y170870D01*
X439620D01*
Y175910D01*
D02*
G37*
G36*
X401880Y174100D02*
Y167060D01*
X405920D01*
Y174100D01*
X401880D01*
D02*
G37*
G36*
X439620Y161870D02*
X437580D01*
Y156830D01*
X439620D01*
Y161870D01*
D02*
G37*
G36*
X405920Y158060D02*
X401880D01*
Y151020D01*
X405920D01*
Y158060D01*
D02*
G37*
G36*
X392880D02*
X388840D01*
Y151020D01*
X392880D01*
Y158060D01*
D02*
G37*
G36*
X448730Y145660D02*
X445190D01*
Y139120D01*
X448730D01*
Y145660D01*
D02*
G37*
G36*
X436190D02*
X432650D01*
Y139120D01*
X436190D01*
Y145660D01*
D02*
G37*
G36*
X406810Y147620D02*
Y147620D01*
X386810D01*
Y121620D01*
Y98760D01*
X406810D01*
Y99260D01*
X425490D01*
Y122120D01*
X426190D01*
Y147120D01*
X407190D01*
X406810Y147620D01*
D02*
G37*
G36*
X245690Y107760D02*
X240650D01*
Y105720D01*
X245690D01*
Y107760D01*
D02*
G37*
G36*
Y96720D02*
X240650D01*
Y94680D01*
X245690D01*
Y96720D01*
D02*
G37*
G36*
X163670Y81660D02*
X154730D01*
Y75620D01*
X163670D01*
Y81660D01*
D02*
G37*
G36*
X145730D02*
X136790D01*
Y75620D01*
X145730D01*
Y81660D01*
D02*
G37*
G36*
X163670Y66620D02*
X154730D01*
Y60580D01*
X163670D01*
Y66620D01*
D02*
G37*
G36*
X537609Y83679D02*
X499719Y83644D01*
X499614Y83609D01*
X499440Y83539D01*
X499300Y83504D01*
X499126Y83434D01*
X499056Y83365D01*
X498829Y83278D01*
X498742Y83190D01*
X498568Y83086D01*
X498463Y82981D01*
X498393Y82946D01*
X498323Y82841D01*
X498254Y82806D01*
X498166Y82684D01*
X498062Y82580D01*
X497957Y82405D01*
X497782Y82091D01*
X497713Y81917D01*
X497660Y81725D01*
X497608Y81568D01*
X497573Y81428D01*
X497538Y80975D01*
X497573Y42979D01*
X497608Y42875D01*
X497678Y42700D01*
X497713Y42561D01*
X497782Y42386D01*
X497852Y42316D01*
X497939Y42090D01*
X498027Y42003D01*
X498131Y41828D01*
X498236Y41723D01*
X498271Y41654D01*
X498376Y41584D01*
X498410Y41514D01*
X498533Y41427D01*
X498637Y41322D01*
X498812Y41217D01*
X499126Y41043D01*
X499300Y40973D01*
X499492Y40921D01*
X499789Y40834D01*
X500242Y40799D01*
X513117D01*
X538237Y40834D01*
X538412Y40903D01*
X538656Y40973D01*
X538831Y41043D01*
X539145Y41217D01*
X539214Y41287D01*
X539389Y41392D01*
X539494Y41497D01*
X539563Y41531D01*
X539720Y41688D01*
X539755Y41758D01*
X539895Y41898D01*
X540000Y42072D01*
X540069Y42142D01*
X540104Y42282D01*
X540244Y42491D01*
X540279Y42735D01*
X540348Y42910D01*
X540383Y43049D01*
X540418Y43503D01*
X540383Y81498D01*
X540313Y81672D01*
X540244Y81917D01*
X540174Y82091D01*
X540000Y82405D01*
X539930Y82475D01*
X539825Y82649D01*
X539720Y82754D01*
X539686Y82824D01*
X539581Y82894D01*
X539546Y82963D01*
X539424Y83051D01*
X539319Y83155D01*
X539145Y83260D01*
X538831Y83434D01*
X538656Y83504D01*
X538464Y83557D01*
X538307Y83609D01*
X538168Y83644D01*
X537609Y83679D01*
D02*
G37*
%LPD*%
G36*
X535028Y78271D02*
X535045Y46224D01*
X534993Y46172D01*
X516466D01*
X502929Y46207D01*
X502911Y78253D01*
X502964Y78306D01*
X535028Y78271D01*
D02*
G37*
D11*
X238451Y140170D02*
X256859Y158577D01*
X237960Y140170D02*
X238451D01*
X250847Y163172D02*
X252262D01*
X236220Y177800D02*
X250847Y163172D01*
X252730Y138430D02*
Y142592D01*
X270937Y160799D01*
Y164961D01*
X304644Y155858D02*
X320202Y140300D01*
X320910D01*
X321409Y139799D01*
X304644Y155858D02*
Y155858D01*
X303891Y156611D02*
X304644Y155858D01*
X310260Y270510D02*
Y273510D01*
Y267510D02*
Y270510D01*
X305563Y244368D02*
Y245873D01*
X308094Y248404D01*
Y265344D01*
X310260Y267510D01*
X280670Y57150D02*
Y152400D01*
X286670Y76550D02*
Y149831D01*
Y76550D02*
X306070Y57150D01*
X232410Y177800D02*
X236220D01*
D14*
X266386Y246694D02*
X266616Y246464D01*
Y237302D02*
Y246464D01*
X261846Y234676D02*
Y239804D01*
Y234676D02*
X273474Y223048D01*
X266616Y237302D02*
X277334Y226584D01*
X273474Y223048D02*
X273799D01*
D15*
X316932Y233018D02*
D03*
X320468Y229483D02*
D03*
X345217Y204734D02*
D03*
X341681Y208270D02*
D03*
X338146Y211805D02*
D03*
X331075Y218876D02*
D03*
X327539Y222412D02*
D03*
X334610Y215341D02*
D03*
X324003Y225947D02*
D03*
X313397Y236554D02*
D03*
X309861Y240090D02*
D03*
X306326Y243625D02*
D03*
X256404Y193562D02*
D03*
X270546Y179420D02*
D03*
X267011Y182955D02*
D03*
X263475Y186491D02*
D03*
X259940Y190026D02*
D03*
X295295Y154671D02*
D03*
X291759Y158207D02*
D03*
X288224Y161742D02*
D03*
X277617Y172349D02*
D03*
X281153Y168813D02*
D03*
X284688Y165278D02*
D03*
X274082Y175884D02*
D03*
D16*
X302260Y196850D02*
D03*
D17*
X306609Y154600D02*
D03*
X310144Y158136D02*
D03*
X313680Y161672D02*
D03*
X317215Y165207D02*
D03*
X295012Y244261D02*
D03*
X320751Y168743D02*
D03*
X324286Y172278D02*
D03*
X327822Y175814D02*
D03*
X331357Y179349D02*
D03*
X334893Y182885D02*
D03*
X338428Y186420D02*
D03*
X341964Y189956D02*
D03*
X345500Y193491D02*
D03*
X291477Y240726D02*
D03*
X287941Y237190D02*
D03*
X284406Y233655D02*
D03*
X280870Y230119D02*
D03*
X277334Y226584D02*
D03*
X273799Y223048D02*
D03*
X270263Y219513D02*
D03*
X266728Y215977D02*
D03*
X263192Y212442D02*
D03*
X259657Y208906D02*
D03*
X256121Y205371D02*
D03*
D18*
X420370Y342900D02*
D03*
Y289700D02*
D03*
D19*
X200680Y140370D02*
D03*
X218880Y140170D02*
D03*
X218880Y164970D02*
D03*
X200680Y164670D02*
D03*
D20*
X459950Y196710D02*
D03*
Y219710D02*
D03*
D21*
X517950D02*
D03*
D22*
X459950Y242710D02*
D03*
D23*
X147690Y256540D02*
D03*
X225690D02*
D03*
X150230Y71120D02*
D03*
X228230D02*
D03*
D24*
X382400Y229870D02*
D03*
X406400D02*
D03*
X225930Y295910D02*
D03*
X201930D02*
D03*
X224090Y113030D02*
D03*
X200090D02*
D03*
X396810Y134620D02*
D03*
X372810D02*
D03*
X373380Y162560D02*
D03*
X397380D02*
D03*
X396810Y111760D02*
D03*
X372810D02*
D03*
X301560Y317500D02*
D03*
X277560D02*
D03*
X84520Y209550D02*
D03*
X108520D02*
D03*
X107380Y180340D02*
D03*
X131380D02*
D03*
D25*
X360275Y280265D02*
D03*
X343305Y263295D02*
D03*
X375515Y263755D02*
D03*
X358545Y246785D02*
D03*
D26*
X36830Y92140D02*
D03*
Y116140D02*
D03*
D27*
X302260Y294640D02*
D03*
X278260D02*
D03*
X440690Y134620D02*
D03*
X416690D02*
D03*
X439990Y111760D02*
D03*
X415990D02*
D03*
D28*
X34290Y163130D02*
D03*
Y139130D02*
D03*
D29*
X539490Y297630D02*
D03*
Y385630D02*
D03*
X484490D02*
D03*
Y297630D02*
D03*
D30*
Y357630D02*
D03*
Y349630D02*
D03*
Y341630D02*
D03*
Y333630D02*
D03*
Y325630D02*
D03*
D31*
X61820Y274320D02*
D03*
X105820D02*
D03*
D32*
X175640Y139700D02*
D03*
X159640D02*
D03*
X176020Y165100D02*
D03*
X160020D02*
D03*
X444120Y166370D02*
D03*
X460120D02*
D03*
X472440Y269240D02*
D03*
X456440D02*
D03*
X416050Y187960D02*
D03*
X400050D02*
D03*
X310260Y270510D02*
D03*
X294260D02*
D03*
X46230Y194310D02*
D03*
X62230D02*
D03*
X73660Y64770D02*
D03*
X89660D02*
D03*
D33*
X196850Y220090D02*
D03*
Y204090D02*
D03*
X373380Y191390D02*
D03*
Y207390D02*
D03*
X220980Y220090D02*
D03*
Y204090D02*
D03*
X250190Y117220D02*
D03*
Y101220D02*
D03*
D34*
X108090Y151130D02*
D03*
X85090D02*
D03*
X62090D02*
D03*
D35*
X85090Y93130D02*
D03*
D59*
X385300Y199413D02*
X393139Y207251D01*
X379600Y191640D02*
X385300Y197340D01*
Y199413D01*
X373380Y191390D02*
X373630Y191640D01*
X379600D01*
X393139Y207251D02*
Y213609D01*
X250180Y234950D02*
X254826D01*
X225690Y256540D02*
X226160Y257010D01*
X252730Y260350D02*
Y344170D01*
X228590Y256540D02*
X250180Y234950D01*
X393139Y213609D02*
X405400Y225870D01*
X226340Y117220D02*
X250190D01*
X224090Y114970D02*
X226340Y117220D01*
X224090Y113030D02*
Y114970D01*
X356870Y57150D02*
Y101600D01*
X330716Y116086D02*
X331470Y115333D01*
Y57150D02*
Y115333D01*
X243110Y258540D02*
Y328390D01*
X228600Y368300D02*
X252730Y344170D01*
X203200Y368300D02*
X243110Y328390D01*
X225460Y295440D02*
X225930Y295910D01*
X225690Y256540D02*
X228590D01*
X250190Y135890D02*
X252730Y138430D01*
X250190Y117220D02*
Y135890D01*
D60*
X347049Y177800D02*
X383084D01*
X387744Y182460D02*
X398360D01*
X348030Y183890D02*
X382103D01*
X392550Y194337D02*
Y196410D01*
X394600Y198460D02*
X408550D01*
X382103Y183890D02*
X392550Y194337D01*
X383084Y177800D02*
X387744Y182460D01*
X392550Y196410D02*
X394600Y198460D01*
X338428Y186420D02*
X347049Y177800D01*
X416050Y187960D02*
Y190960D01*
X341964Y189956D02*
X348030Y183890D01*
X408550Y198460D02*
X416050Y190960D01*
X398360Y182460D02*
X400050Y184150D01*
X147690Y256540D02*
X150590D01*
X171233Y235897D01*
X236202D01*
X250345Y221753D01*
Y218218D02*
Y221753D01*
Y218218D02*
X259657Y208906D01*
X254826Y234950D02*
X270263Y219513D01*
X252730Y260350D02*
X266386Y246694D01*
X243110Y258540D02*
X261846Y239804D01*
X320496Y265886D02*
X330200Y275590D01*
X320496Y243653D02*
Y265886D01*
X332390Y248521D02*
Y252380D01*
X335070Y196850D02*
X341964Y189956D01*
X302260Y196850D02*
X335070D01*
X253676Y163172D02*
X254581Y164077D01*
X255204D02*
X267450Y176324D01*
X267450D01*
X256859Y158577D02*
Y158577D01*
X267450Y176324D02*
X270546Y179420D01*
X256613Y158823D02*
X256859Y158577D01*
X252262Y163172D02*
X253676D01*
X254581Y164077D02*
X255204D01*
X256613Y158823D02*
X257078Y158880D01*
X268659Y170462D02*
X274082Y175884D01*
X270937Y165669D02*
X277617Y172349D01*
X270937Y164961D02*
Y165669D01*
X257078Y158880D02*
X268659Y170462D01*
X268659D01*
X256404Y193562D02*
X260683Y197841D01*
X258596Y202414D02*
X260683Y200326D01*
X257500Y203992D02*
X258596Y202896D01*
Y202414D02*
Y202896D01*
X260683Y197841D02*
Y200326D01*
X313397Y236554D02*
X320496Y243653D01*
X316932Y233018D02*
X325722Y241808D01*
Y241854D01*
X332390Y248521D01*
X320468Y229483D02*
X330353Y239368D01*
X331722D01*
X345500Y193491D02*
X347974Y191016D01*
X373006D02*
X373380Y191390D01*
X347974Y191016D02*
X373006D01*
X302260Y189920D02*
Y196850D01*
X281153Y168813D02*
X302260Y189920D01*
X271780Y196850D02*
X302260D01*
X264217Y204345D02*
X264284D01*
X271780Y196850D01*
X259657Y208906D02*
X264217Y204345D01*
X302260Y232488D02*
X309861Y240090D01*
X302260Y196850D02*
Y232488D01*
X325841Y153670D02*
X347431Y132080D01*
X370270D01*
X372810Y134620D01*
X325120Y147320D02*
X360680Y111760D01*
X372810D01*
X320960Y147320D02*
X325120D01*
X313240Y155040D02*
X320960Y147320D01*
X313240Y155040D02*
X313240D01*
X321681Y153670D02*
X325841D01*
X310144Y158136D02*
X313240Y155040D01*
X313680Y161672D02*
X321681Y153670D01*
X292820Y152196D02*
X295295Y154671D01*
X347980Y162560D02*
Y162727D01*
X331357Y179349D02*
X347980Y162727D01*
X264160Y144749D02*
X284688Y165278D01*
X90590Y93130D02*
X91010Y92710D01*
X85090Y93130D02*
X90590D01*
X280670Y152400D02*
Y154188D01*
X288224Y161742D01*
X286670Y153117D02*
X291759Y158207D01*
X286670Y149831D02*
Y153117D01*
D61*
X330200Y275590D02*
X346710Y292100D01*
X357104Y246785D02*
X358545D01*
X332429Y240030D02*
X350350D01*
X357104Y246785D01*
X332390Y252380D02*
X343305Y263295D01*
X331722Y239368D02*
X331768D01*
X332429Y240030D01*
X277898Y263438D02*
X292258Y249078D01*
X262890Y277798D02*
Y299830D01*
Y277798D02*
X277250Y263438D01*
X277898D01*
X471680Y325630D02*
X484490D01*
X456440Y310390D02*
X471680Y325630D01*
X262890Y299830D02*
X277560Y314500D01*
X296460Y311000D02*
X298060D01*
X321409Y137060D02*
Y139799D01*
Y137060D02*
X356870Y101600D01*
X298060Y311000D02*
X301560Y314500D01*
Y317500D01*
X277560Y314500D02*
Y317500D01*
X420370Y342900D02*
X421640Y341630D01*
X484490D01*
X459360Y333630D02*
X484490D01*
X457200Y331470D02*
X459360Y333630D01*
X264160Y55880D02*
Y144749D01*
X250561Y209517D02*
Y209517D01*
X239988Y220090D02*
X250561Y209517D01*
Y209517D02*
X253623Y206455D01*
D62*
X346710Y292100D02*
Y368300D01*
X229090Y20810D02*
X264160Y55880D01*
X228600Y20320D02*
X229090Y20810D01*
X456440Y244210D02*
X457940Y242710D01*
X459950D01*
D63*
Y219710D02*
X517950D01*
X405400Y228870D02*
X406400Y229870D01*
X405400Y225870D02*
Y228870D01*
X427990Y219710D02*
X459950D01*
X407400Y227478D02*
X420222D01*
X427990Y219710D01*
X76200Y388620D02*
X309880D01*
X18790Y331210D02*
X76200Y388620D01*
X36830Y92635D02*
X84595D01*
X18790Y107180D02*
X33830Y92140D01*
X319397Y370213D02*
X321310Y368300D01*
X319397Y370213D02*
Y379103D01*
X309880Y388620D02*
X319397Y379103D01*
X18790Y107180D02*
Y331210D01*
X33830Y92140D02*
X36830D01*
X517950Y165821D02*
Y178860D01*
X372449Y20320D02*
X517950Y165821D01*
X505460Y166370D02*
X517950Y178860D01*
X228600Y20320D02*
X372449D01*
X91010Y92710D02*
X162910Y20810D01*
X229090D01*
X396810Y111760D02*
X415990D01*
X396810Y134620D02*
X416690D01*
X347980Y162560D02*
X373380D01*
X277560Y349950D02*
X295910Y368300D01*
X277560Y317500D02*
Y349950D01*
X196850Y220090D02*
X220980D01*
X152020D02*
X196850D01*
X356595Y249325D02*
X374590Y231330D01*
X381970D01*
Y226060D02*
Y231330D01*
X517950Y178860D02*
Y219710D01*
X460120Y166370D02*
X505460D01*
X443230Y317500D02*
X457200Y331470D01*
X391160Y317500D02*
X443230D01*
X356870Y283210D02*
X391160Y317500D01*
X419100Y271780D02*
Y288430D01*
X420370Y289700D01*
X372975Y266295D02*
X375097Y264174D01*
X411494D01*
X419100Y271780D01*
X200680Y170672D02*
X207808Y177800D01*
X232410D01*
X200680Y164670D02*
Y170672D01*
X176450Y164670D02*
X200680D01*
X176020Y165100D02*
X176450Y164670D01*
X137160Y234950D02*
X152020Y220090D01*
X220980D02*
X239988D01*
X84520Y209550D02*
Y229092D01*
X90378Y234950D01*
X137160D01*
X89660Y64770D02*
Y88560D01*
X107380Y157340D02*
X108090Y156630D01*
X107380Y157340D02*
Y180340D01*
X108090Y151130D02*
Y156630D01*
X107380Y183340D02*
X108520Y184480D01*
X107380Y180340D02*
Y183340D01*
X108520Y184480D02*
Y209550D01*
X85090Y151130D02*
Y204580D01*
X62230Y151270D02*
Y194310D01*
Y217170D01*
D64*
X456440Y244210D02*
Y269240D01*
Y310390D01*
X35199Y116390D02*
Y138380D01*
X34450Y139130D02*
X35199Y138380D01*
X34290Y139130D02*
X34450D01*
X91010Y92710D02*
X127000D01*
X226160Y257010D02*
Y295440D01*
X147320Y113030D02*
X200090D01*
X127000Y92710D02*
X147320Y113030D01*
D65*
X278260Y297640D02*
X280760Y300140D01*
X285820D02*
X296460Y310780D01*
X280760Y300140D02*
X285820D01*
X278260Y294640D02*
Y297640D01*
X310260Y273510D02*
X321310Y284560D01*
Y368300D01*
D66*
X294640Y151130D02*
X295673D01*
X330716Y116086D01*
D67*
X218880Y140170D02*
X237960D01*
X178890Y136450D02*
X186310Y129030D01*
X175640Y136700D02*
Y139700D01*
Y136700D02*
X175890Y136450D01*
X178890D01*
X186310Y129030D02*
X211580D01*
X218880Y136330D01*
Y140170D01*
D68*
X224090Y92140D02*
Y113030D01*
X226310Y71620D02*
Y89920D01*
X226810Y71120D02*
X228230D01*
X224090Y92140D02*
X226310Y89920D01*
Y71620D02*
X226810Y71120D01*
X61820Y217580D02*
Y274320D01*
Y217580D02*
X62230Y217170D01*
X105820Y274320D02*
Y325980D01*
X77470Y354330D02*
X105820Y325980D01*
D69*
X77470Y354330D02*
D03*
X128270D02*
D03*
D70*
X510490Y363630D02*
D03*
Y319630D02*
D03*
D71*
X280670Y57150D02*
D03*
X306070D02*
D03*
X331470D02*
D03*
X356870D02*
D03*
X228600Y368300D02*
D03*
X203200D02*
D03*
X372110D02*
D03*
X346710D02*
D03*
X321310D02*
D03*
X295910D02*
D03*
D72*
X354629Y224482D02*
D03*
X301289Y341322D02*
D03*
X392729Y84782D02*
D03*
X434340Y195580D02*
D03*
X423209Y388312D02*
D03*
X24429Y384502D02*
D03*
X159049Y303222D02*
D03*
Y197812D02*
D03*
X115869Y124152D02*
D03*
X96819Y32712D02*
D03*
X189230Y52070D02*
D03*
X453390Y33020D02*
D03*
M02*
