G04*
G04 #@! TF.GenerationSoftware,Altium Limited,Altium Designer,22.9.1 (49)*
G04*
G04 Layer_Color=2752767*
%FSLAX44Y44*%
%MOMM*%
G71*
G04*
G04 #@! TF.SameCoordinates,24B0C1BF-96A6-467D-9BB2-DF91BAA7A13C*
G04*
G04*
G04 #@! TF.FilePolarity,Positive*
G04*
G01*
G75*
%ADD73C,0.0508*%
%ADD74C,0.0677*%
D73*
X75438Y352298D02*
Y356362D01*
X79502D01*
Y352298D01*
X75438D01*
X126238D02*
Y356362D01*
X130302D01*
Y352298D01*
X126238D01*
X280670Y55118D02*
X278638Y59182D01*
X282702D01*
X280670Y55118D01*
X306070D02*
X304038Y59182D01*
X308102D01*
X306070Y55118D01*
X331470D02*
X329438Y59182D01*
X333502D01*
X331470Y55118D01*
X356870D02*
X354838Y59182D01*
X358902D01*
X356870Y55118D01*
X228600Y366268D02*
X226568Y370332D01*
X230632D01*
X228600Y366268D01*
X203200D02*
X201168Y370332D01*
X205232D01*
X203200Y366268D01*
X372110D02*
X370078Y370332D01*
X374142D01*
X372110Y366268D01*
X346710D02*
X344678Y370332D01*
X348742D01*
X346710Y366268D01*
X321310D02*
X319278Y370332D01*
X323342D01*
X321310Y366268D01*
X295910D02*
X293878Y370332D01*
X297942D01*
X295910Y366268D01*
X354629Y222450D02*
X352597Y226514D01*
X356661D01*
X354629Y222450D01*
X301289Y339290D02*
X299257Y343354D01*
X303321D01*
X301289Y339290D01*
X392729Y82750D02*
X390697Y86814D01*
X394761D01*
X392729Y82750D01*
X434340Y193548D02*
X432308Y197612D01*
X436372D01*
X434340Y193548D01*
X423209Y386280D02*
X421177Y390344D01*
X425241D01*
X423209Y386280D01*
X24429Y382470D02*
X22397Y386534D01*
X26461D01*
X24429Y382470D01*
X159049Y301190D02*
X157017Y305254D01*
X161081D01*
X159049Y301190D01*
Y195780D02*
X157017Y199844D01*
X161081D01*
X159049Y195780D01*
X115869Y122120D02*
X113837Y126184D01*
X117901D01*
X115869Y122120D01*
X96819Y30680D02*
X94787Y34744D01*
X98851D01*
X96819Y30680D01*
X189230Y50038D02*
X187198Y54102D01*
X191262D01*
X189230Y50038D01*
X453390Y30988D02*
X451358Y35052D01*
X455422D01*
X453390Y30988D01*
D74*
X512522Y363630D02*
G03*
X512522Y363630I-2032J0D01*
G01*
Y319630D02*
G03*
X512522Y319630I-2032J0D01*
G01*
M02*
