G04*
G04 #@! TF.GenerationSoftware,Altium Limited,Altium Designer,22.9.1 (49)*
G04*
G04 Layer_Physical_Order=2*
G04 Layer_Color=16711680*
%FSLAX44Y44*%
%MOMM*%
G71*
G04*
G04 #@! TF.SameCoordinates,24B0C1BF-96A6-467D-9BB2-DF91BAA7A13C*
G04*
G04*
G04 #@! TF.FilePolarity,Positive*
G04*
G01*
G75*
%ADD69C,2.2000*%
%ADD70C,0.9000*%
%ADD71C,2.0000*%
%ADD72C,1.0000*%
D69*
X77470Y354330D02*
D03*
X128270D02*
D03*
D70*
X510490Y363630D02*
D03*
Y319630D02*
D03*
D71*
X280670Y57150D02*
D03*
X306070D02*
D03*
X331470D02*
D03*
X356870D02*
D03*
X228600Y368300D02*
D03*
X203200D02*
D03*
X372110D02*
D03*
X346710D02*
D03*
X321310D02*
D03*
X295910D02*
D03*
D72*
X354629Y224482D02*
D03*
X301289Y341322D02*
D03*
X392729Y84782D02*
D03*
X434340Y195580D02*
D03*
X423209Y388312D02*
D03*
X24429Y384502D02*
D03*
X159049Y303222D02*
D03*
Y197812D02*
D03*
X115869Y124152D02*
D03*
X96819Y32712D02*
D03*
X189230Y52070D02*
D03*
X453390Y33020D02*
D03*
M02*
