G04*
G04 #@! TF.GenerationSoftware,Altium Limited,Altium Designer,22.9.1 (49)*
G04*
G04 Layer_Color=8421504*
%FSLAX44Y44*%
%MOMM*%
G71*
G04*
G04 #@! TF.SameCoordinates,24B0C1BF-96A6-467D-9BB2-DF91BAA7A13C*
G04*
G04*
G04 #@! TF.FilePolarity,Positive*
G04*
G01*
G75*
G04:AMPARAMS|DCode=15|XSize=0.3mm|YSize=1mm|CornerRadius=0mm|HoleSize=0mm|Usage=FLASHONLY|Rotation=135.000|XOffset=0mm|YOffset=0mm|HoleType=Round|Shape=Rectangle|*
%AMROTATEDRECTD15*
4,1,4,0.4596,0.2475,-0.2475,-0.4596,-0.4596,-0.2475,0.2475,0.4596,0.4596,0.2475,0.0*
%
%ADD15ROTATEDRECTD15*%

G04:AMPARAMS|DCode=16|XSize=3.6mm|YSize=3.6mm|CornerRadius=0.09mm|HoleSize=0mm|Usage=FLASHONLY|Rotation=45.000|XOffset=0mm|YOffset=0mm|HoleType=Round|Shape=RoundedRectangle|*
%AMROUNDEDRECTD16*
21,1,3.6000,3.4200,0,0,45.0*
21,1,3.4200,3.6000,0,0,45.0*
1,1,0.1800,2.4183,0.0000*
1,1,0.1800,0.0000,-2.4183*
1,1,0.1800,-2.4183,0.0000*
1,1,0.1800,0.0000,2.4183*
%
%ADD16ROUNDEDRECTD16*%
G04:AMPARAMS|DCode=17|XSize=0.3mm|YSize=1mm|CornerRadius=0mm|HoleSize=0mm|Usage=FLASHONLY|Rotation=225.000|XOffset=0mm|YOffset=0mm|HoleType=Round|Shape=Rectangle|*
%AMROTATEDRECTD17*
4,1,4,-0.2475,0.4596,0.4596,-0.2475,0.2475,-0.4596,-0.4596,0.2475,-0.2475,0.4596,0.0*
%
%ADD17ROTATEDRECTD17*%

G04:AMPARAMS|DCode=18|XSize=1.9mm|YSize=3.37mm|CornerRadius=0.0665mm|HoleSize=0mm|Usage=FLASHONLY|Rotation=90.000|XOffset=0mm|YOffset=0mm|HoleType=Round|Shape=RoundedRectangle|*
%AMROUNDEDRECTD18*
21,1,1.9000,3.2370,0,0,90.0*
21,1,1.7670,3.3700,0,0,90.0*
1,1,0.1330,1.6185,0.8835*
1,1,0.1330,1.6185,-0.8835*
1,1,0.1330,-1.6185,-0.8835*
1,1,0.1330,-1.6185,0.8835*
%
%ADD18ROUNDEDRECTD18*%
%ADD19R,0.9000X1.0000*%
%ADD20R,2.1500X1.0000*%
%ADD21R,2.1500X3.2500*%
%ADD22R,2.1500X1.0000*%
%ADD23R,2.1800X1.6000*%
%ADD24R,1.2000X1.8000*%
G04:AMPARAMS|DCode=25|XSize=1.2mm|YSize=1.8mm|CornerRadius=0mm|HoleSize=0mm|Usage=FLASHONLY|Rotation=225.000|XOffset=0mm|YOffset=0mm|HoleType=Round|Shape=Rectangle|*
%AMROTATEDRECTD25*
4,1,4,-0.2121,1.0607,1.0607,-0.2121,0.2121,-1.0607,-1.0607,0.2121,-0.2121,1.0607,0.0*
%
%ADD25ROTATEDRECTD25*%

%ADD26R,1.8000X1.2000*%
%ADD27R,1.1000X1.7000*%
%ADD28R,1.7000X1.1000*%
%ADD29R,2.5000X2.0000*%
%ADD30R,2.5000X0.5000*%
%ADD31R,1.8000X2.5000*%
%ADD32R,0.8000X1.4000*%
%ADD33R,1.4000X0.8000*%
%ADD34R,0.9500X2.1500*%
%ADD35R,3.2500X2.1500*%
D15*
X316932Y233018D02*
D03*
X320468Y229483D02*
D03*
X345217Y204734D02*
D03*
X341681Y208270D02*
D03*
X338146Y211805D02*
D03*
X331075Y218876D02*
D03*
X327539Y222412D02*
D03*
X334610Y215341D02*
D03*
X324003Y225947D02*
D03*
X313397Y236554D02*
D03*
X309861Y240090D02*
D03*
X306326Y243625D02*
D03*
X256404Y193562D02*
D03*
X270546Y179420D02*
D03*
X267011Y182955D02*
D03*
X263475Y186491D02*
D03*
X259940Y190026D02*
D03*
X295295Y154671D02*
D03*
X291759Y158207D02*
D03*
X288224Y161742D02*
D03*
X277617Y172349D02*
D03*
X281153Y168813D02*
D03*
X284688Y165278D02*
D03*
X274082Y175884D02*
D03*
D16*
X302260Y196850D02*
D03*
D17*
X306609Y154600D02*
D03*
X310144Y158136D02*
D03*
X313680Y161672D02*
D03*
X317215Y165207D02*
D03*
X295012Y244261D02*
D03*
X320751Y168743D02*
D03*
X324286Y172278D02*
D03*
X327822Y175814D02*
D03*
X331357Y179349D02*
D03*
X334893Y182885D02*
D03*
X338428Y186420D02*
D03*
X341964Y189956D02*
D03*
X345500Y193491D02*
D03*
X291477Y240726D02*
D03*
X287941Y237190D02*
D03*
X284406Y233655D02*
D03*
X280870Y230119D02*
D03*
X277334Y226584D02*
D03*
X273799Y223048D02*
D03*
X270263Y219513D02*
D03*
X266728Y215977D02*
D03*
X263192Y212442D02*
D03*
X259657Y208906D02*
D03*
X256121Y205371D02*
D03*
D18*
X420370Y342900D02*
D03*
Y289700D02*
D03*
D19*
X200680Y140370D02*
D03*
X218880Y140170D02*
D03*
X218880Y164970D02*
D03*
X200680Y164670D02*
D03*
D20*
X459950Y196710D02*
D03*
Y219710D02*
D03*
D21*
X517950D02*
D03*
D22*
X459950Y242710D02*
D03*
D23*
X147690Y256540D02*
D03*
X225690D02*
D03*
X150230Y71120D02*
D03*
X228230D02*
D03*
D24*
X382400Y229870D02*
D03*
X406400D02*
D03*
X225930Y295910D02*
D03*
X201930D02*
D03*
X224090Y113030D02*
D03*
X200090D02*
D03*
X396810Y134620D02*
D03*
X372810D02*
D03*
X373380Y162560D02*
D03*
X397380D02*
D03*
X396810Y111760D02*
D03*
X372810D02*
D03*
X301560Y317500D02*
D03*
X277560D02*
D03*
X84520Y209550D02*
D03*
X108520D02*
D03*
X107380Y180340D02*
D03*
X131380D02*
D03*
D25*
X360275Y280265D02*
D03*
X343305Y263295D02*
D03*
X375515Y263755D02*
D03*
X358545Y246785D02*
D03*
D26*
X36830Y92140D02*
D03*
Y116140D02*
D03*
D27*
X302260Y294640D02*
D03*
X278260D02*
D03*
X440690Y134620D02*
D03*
X416690D02*
D03*
X439990Y111760D02*
D03*
X415990D02*
D03*
D28*
X34290Y163130D02*
D03*
Y139130D02*
D03*
D29*
X539490Y297630D02*
D03*
Y385630D02*
D03*
X484490D02*
D03*
Y297630D02*
D03*
D30*
Y357630D02*
D03*
Y349630D02*
D03*
Y341630D02*
D03*
Y333630D02*
D03*
Y325630D02*
D03*
D31*
X61820Y274320D02*
D03*
X105820D02*
D03*
D32*
X175640Y139700D02*
D03*
X159640D02*
D03*
X176020Y165100D02*
D03*
X160020D02*
D03*
X444120Y166370D02*
D03*
X460120D02*
D03*
X472440Y269240D02*
D03*
X456440D02*
D03*
X416050Y187960D02*
D03*
X400050D02*
D03*
X310260Y270510D02*
D03*
X294260D02*
D03*
X46230Y194310D02*
D03*
X62230D02*
D03*
X73660Y64770D02*
D03*
X89660D02*
D03*
D33*
X196850Y220090D02*
D03*
Y204090D02*
D03*
X373380Y191390D02*
D03*
Y207390D02*
D03*
X220980Y220090D02*
D03*
Y204090D02*
D03*
X250190Y117220D02*
D03*
Y101220D02*
D03*
D34*
X108090Y151130D02*
D03*
X85090D02*
D03*
X62090D02*
D03*
D35*
X85090Y93130D02*
D03*
M02*
