G04*
G04 #@! TF.GenerationSoftware,Altium Limited,Altium Designer,22.9.1 (49)*
G04*
G04 Layer_Color=8388736*
%FSLAX44Y44*%
%MOMM*%
G71*
G04*
G04 #@! TF.SameCoordinates,24B0C1BF-96A6-467D-9BB2-DF91BAA7A13C*
G04*
G04*
G04 #@! TF.FilePolarity,Negative*
G04*
G01*
G75*
%ADD24R,1.2000X1.8000*%
%ADD26R,1.8000X1.2000*%
G04:AMPARAMS|DCode=36|XSize=0.4mm|YSize=1.1mm|CornerRadius=0mm|HoleSize=0mm|Usage=FLASHONLY|Rotation=135.000|XOffset=0mm|YOffset=0mm|HoleType=Round|Shape=Rectangle|*
%AMROTATEDRECTD36*
4,1,4,0.5303,0.2475,-0.2475,-0.5303,-0.5303,-0.2475,0.2475,0.5303,0.5303,0.2475,0.0*
%
%ADD36ROTATEDRECTD36*%

G04:AMPARAMS|DCode=37|XSize=3.7mm|YSize=3.7mm|CornerRadius=0.14mm|HoleSize=0mm|Usage=FLASHONLY|Rotation=45.000|XOffset=0mm|YOffset=0mm|HoleType=Round|Shape=RoundedRectangle|*
%AMROUNDEDRECTD37*
21,1,3.7000,3.4200,0,0,45.0*
21,1,3.4200,3.7000,0,0,45.0*
1,1,0.2800,2.4183,0.0000*
1,1,0.2800,0.0000,-2.4183*
1,1,0.2800,-2.4183,0.0000*
1,1,0.2800,0.0000,2.4183*
%
%ADD37ROUNDEDRECTD37*%
G04:AMPARAMS|DCode=38|XSize=0.4mm|YSize=1.1mm|CornerRadius=0mm|HoleSize=0mm|Usage=FLASHONLY|Rotation=225.000|XOffset=0mm|YOffset=0mm|HoleType=Round|Shape=Rectangle|*
%AMROTATEDRECTD38*
4,1,4,-0.2475,0.5303,0.5303,-0.2475,0.2475,-0.5303,-0.5303,0.2475,-0.2475,0.5303,0.0*
%
%ADD38ROTATEDRECTD38*%

G04:AMPARAMS|DCode=39|XSize=2.1032mm|YSize=3.5732mm|CornerRadius=0.1681mm|HoleSize=0mm|Usage=FLASHONLY|Rotation=90.000|XOffset=0mm|YOffset=0mm|HoleType=Round|Shape=RoundedRectangle|*
%AMROUNDEDRECTD39*
21,1,2.1032,3.2370,0,0,90.0*
21,1,1.7670,3.5732,0,0,90.0*
1,1,0.3362,1.6185,0.8835*
1,1,0.3362,1.6185,-0.8835*
1,1,0.3362,-1.6185,-0.8835*
1,1,0.3362,-1.6185,0.8835*
%
%ADD39ROUNDEDRECTD39*%
%ADD40R,1.1032X1.2032*%
%ADD41R,2.2500X1.1000*%
%ADD42R,2.2500X3.3500*%
%ADD43R,2.2500X1.1000*%
%ADD44R,2.3832X1.8032*%
%ADD45R,1.3000X1.9000*%
G04:AMPARAMS|DCode=46|XSize=1.3mm|YSize=1.9mm|CornerRadius=0mm|HoleSize=0mm|Usage=FLASHONLY|Rotation=225.000|XOffset=0mm|YOffset=0mm|HoleType=Round|Shape=Rectangle|*
%AMROTATEDRECTD46*
4,1,4,-0.2121,1.1314,1.1314,-0.2121,0.2121,-1.1314,-1.1314,0.2121,-0.2121,1.1314,0.0*
%
%ADD46ROTATEDRECTD46*%

%ADD47R,1.9000X1.3000*%
%ADD48R,2.7032X2.2032*%
%ADD49R,2.7032X0.7032*%
%ADD50R,1.9000X2.6000*%
%ADD51R,0.9000X1.5000*%
%ADD52R,1.5000X0.9000*%
%ADD53R,1.1532X2.3532*%
%ADD54R,3.4532X2.3532*%
%ADD55C,2.3000*%
%ADD56C,1.1032*%
%ADD57C,2.1000*%
%ADD58C,1.2032*%
D24*
X302260Y294640D02*
D03*
X278260D02*
D03*
X440690Y134620D02*
D03*
X416690D02*
D03*
X439990Y111760D02*
D03*
X415990D02*
D03*
D26*
X34290Y163130D02*
D03*
Y139130D02*
D03*
D36*
X316932Y233018D02*
D03*
X320468Y229483D02*
D03*
X345217Y204734D02*
D03*
X341681Y208270D02*
D03*
X338146Y211805D02*
D03*
X331075Y218876D02*
D03*
X327539Y222412D02*
D03*
X334610Y215341D02*
D03*
X324003Y225947D02*
D03*
X313397Y236554D02*
D03*
X309861Y240090D02*
D03*
X306326Y243625D02*
D03*
X256404Y193562D02*
D03*
X270546Y179420D02*
D03*
X267011Y182955D02*
D03*
X263475Y186491D02*
D03*
X259940Y190026D02*
D03*
X295295Y154671D02*
D03*
X291759Y158207D02*
D03*
X288224Y161742D02*
D03*
X277617Y172349D02*
D03*
X281153Y168813D02*
D03*
X284688Y165278D02*
D03*
X274082Y175884D02*
D03*
D37*
X302260Y196850D02*
D03*
D38*
X306609Y154600D02*
D03*
X310144Y158136D02*
D03*
X313680Y161672D02*
D03*
X317215Y165207D02*
D03*
X295012Y244261D02*
D03*
X320751Y168743D02*
D03*
X324286Y172278D02*
D03*
X327822Y175814D02*
D03*
X331357Y179349D02*
D03*
X334893Y182885D02*
D03*
X338428Y186420D02*
D03*
X341964Y189956D02*
D03*
X345500Y193491D02*
D03*
X291477Y240726D02*
D03*
X287941Y237190D02*
D03*
X284406Y233655D02*
D03*
X280870Y230119D02*
D03*
X277334Y226584D02*
D03*
X273799Y223048D02*
D03*
X270263Y219513D02*
D03*
X266728Y215977D02*
D03*
X263192Y212442D02*
D03*
X259657Y208906D02*
D03*
X256121Y205371D02*
D03*
D39*
X420370Y342900D02*
D03*
Y289700D02*
D03*
D40*
X200680Y140370D02*
D03*
X218880Y140170D02*
D03*
X218880Y164970D02*
D03*
X200680Y164670D02*
D03*
D41*
X459950Y196710D02*
D03*
Y219710D02*
D03*
D42*
X517950D02*
D03*
D43*
X459950Y242710D02*
D03*
D44*
X147690Y256540D02*
D03*
X225690D02*
D03*
X150230Y71120D02*
D03*
X228230D02*
D03*
D45*
X382400Y229870D02*
D03*
X406400D02*
D03*
X225930Y295910D02*
D03*
X201930D02*
D03*
X224090Y113030D02*
D03*
X200090D02*
D03*
X396810Y134620D02*
D03*
X372810D02*
D03*
X373380Y162560D02*
D03*
X397380D02*
D03*
X396810Y111760D02*
D03*
X372810D02*
D03*
X301560Y317500D02*
D03*
X277560D02*
D03*
X84520Y209550D02*
D03*
X108520D02*
D03*
X107380Y180340D02*
D03*
X131380D02*
D03*
D46*
X360275Y280265D02*
D03*
X343305Y263295D02*
D03*
X375515Y263755D02*
D03*
X358545Y246785D02*
D03*
D47*
X36830Y92140D02*
D03*
Y116140D02*
D03*
D48*
X539490Y297630D02*
D03*
Y385630D02*
D03*
X484490D02*
D03*
Y297630D02*
D03*
D49*
Y357630D02*
D03*
Y349630D02*
D03*
Y341630D02*
D03*
Y333630D02*
D03*
Y325630D02*
D03*
D50*
X61820Y274320D02*
D03*
X105820D02*
D03*
D51*
X175640Y139700D02*
D03*
X159640D02*
D03*
X176020Y165100D02*
D03*
X160020D02*
D03*
X444120Y166370D02*
D03*
X460120D02*
D03*
X472440Y269240D02*
D03*
X456440D02*
D03*
X416050Y187960D02*
D03*
X400050D02*
D03*
X310260Y270510D02*
D03*
X294260D02*
D03*
X46230Y194310D02*
D03*
X62230D02*
D03*
X73660Y64770D02*
D03*
X89660D02*
D03*
D52*
X196850Y220090D02*
D03*
Y204090D02*
D03*
X373380Y191390D02*
D03*
Y207390D02*
D03*
X220980Y220090D02*
D03*
Y204090D02*
D03*
X250190Y117220D02*
D03*
Y101220D02*
D03*
D53*
X108090Y151130D02*
D03*
X85090D02*
D03*
X62090D02*
D03*
D54*
X85090Y93130D02*
D03*
D55*
X77470Y354330D02*
D03*
X128270D02*
D03*
D56*
X510490Y363630D02*
D03*
Y319630D02*
D03*
D57*
X280670Y57150D02*
D03*
X306070D02*
D03*
X331470D02*
D03*
X356870D02*
D03*
X228600Y368300D02*
D03*
X203200D02*
D03*
X372110D02*
D03*
X346710D02*
D03*
X321310D02*
D03*
X295910D02*
D03*
D58*
X354629Y224482D02*
D03*
X301289Y341322D02*
D03*
X392729Y84782D02*
D03*
X434340Y195580D02*
D03*
X423209Y388312D02*
D03*
X24429Y384502D02*
D03*
X159049Y303222D02*
D03*
Y197812D02*
D03*
X115869Y124152D02*
D03*
X96819Y32712D02*
D03*
X189230Y52070D02*
D03*
X453390Y33020D02*
D03*
M02*
