G04*
G04 #@! TF.GenerationSoftware,Altium Limited,Altium Designer,22.9.1 (49)*
G04*
G04 Layer_Color=65535*
%FSLAX25Y25*%
%MOIN*%
G70*
G04*
G04 #@! TF.SameCoordinates,98696D13-EABD-4F9F-9DF4-DD99C549A471*
G04*
G04*
G04 #@! TF.FilePolarity,Positive*
G04*
G01*
G75*
%ADD10C,0.01575*%
%ADD11C,0.00787*%
%ADD12C,0.00600*%
%ADD13C,0.00000*%
%ADD14C,0.00394*%
%ADD15C,0.00500*%
%ADD16C,0.01000*%
D10*
X187008Y43602D02*
G03*
X187008Y43602I-394J0D01*
G01*
D11*
X133642Y152165D02*
G03*
X133642Y152165I-394J0D01*
G01*
X119291Y22047D02*
Y25591D01*
Y39370D02*
Y42913D01*
X73228Y39764D02*
Y42913D01*
Y22047D02*
Y25984D01*
Y22047D02*
X119291D01*
X73228Y42913D02*
X119291D01*
X146457Y109055D02*
X153543D01*
Y120079D01*
X146457D02*
X153543D01*
X146457Y109055D02*
Y120079D01*
X32677Y72441D02*
Y79528D01*
Y72441D02*
X46457D01*
X32677Y93701D02*
Y100787D01*
X46457D01*
Y72441D02*
Y100787D01*
X52756Y103937D02*
Y111024D01*
Y103937D02*
X63779D01*
Y111024D01*
X52756D02*
X63779D01*
X33071Y57087D02*
Y64173D01*
Y57087D02*
X44094D01*
Y64173D01*
X33071D02*
X44094D01*
X180512Y22835D02*
Y31890D01*
X211614Y22835D02*
Y31890D01*
X183858Y41437D02*
X187402D01*
X204724D02*
X208268D01*
X180512Y4232D02*
Y10236D01*
Y4232D02*
X211614D01*
Y10236D01*
X150000Y186614D02*
Y193701D01*
X138976D02*
X150000D01*
X138976Y186614D02*
Y193701D01*
Y186614D02*
X150000D01*
X182283Y103543D02*
Y149606D01*
X203150Y103543D02*
Y149606D01*
X199213Y103543D02*
X203150D01*
X182283D02*
X185433D01*
X182283Y149606D02*
X185827D01*
X199606D02*
X203150D01*
X207087Y135827D02*
X214173D01*
Y146850D01*
X207087D02*
X214173D01*
X207087Y135827D02*
Y146850D01*
Y114567D02*
X214173D01*
X207087Y103543D02*
Y114567D01*
Y103543D02*
X214173D01*
Y114567D01*
X87402Y13386D02*
Y20472D01*
X76378D02*
X87402D01*
X76378Y13386D02*
Y20472D01*
Y13386D02*
X87402D01*
X74410Y78740D02*
X85433D01*
Y71653D02*
Y78740D01*
X74410Y71653D02*
X85433D01*
X74410D02*
Y78740D01*
X151575Y58268D02*
X158661D01*
Y69291D01*
X151575D02*
X158661D01*
X151575Y58268D02*
Y69291D01*
X75197Y61417D02*
Y68504D01*
Y61417D02*
X86221D01*
Y68504D01*
X75197D02*
X86221D01*
X142913Y44882D02*
X150000D01*
Y55905D01*
X142913D02*
X150000D01*
X142913Y44882D02*
Y55905D01*
X116535Y13386D02*
Y20472D01*
X105512D02*
X116535D01*
X105512Y13386D02*
Y20472D01*
Y13386D02*
X116535D01*
X4724Y8268D02*
Y51968D01*
X38189D01*
Y8268D02*
Y51968D01*
X4724Y8268D02*
X38189D01*
D12*
X109398Y82166D02*
G03*
X109398Y82166I-1414J0D01*
G01*
X132169Y57980D02*
Y84752D01*
X105398Y57980D02*
X132169D01*
X105398D02*
Y84752D01*
X132169D01*
D13*
X102067Y86130D02*
G03*
X102067Y86130I-1000J0D01*
G01*
D14*
X131102Y130709D02*
Y138583D01*
Y130709D02*
X146063D01*
Y138583D01*
X131102D02*
X146063D01*
X156299Y107087D02*
Y114961D01*
Y107087D02*
X171260D01*
Y114961D01*
X156299D02*
X171260D01*
X156988Y86929D02*
Y94803D01*
X142028D02*
X156988D01*
X142028Y86929D02*
Y94803D01*
Y86929D02*
X156988D01*
X154626Y95591D02*
Y97953D01*
X153445Y96772D02*
X155807D01*
X48031Y113386D02*
Y121260D01*
Y113386D02*
X62992D01*
Y121260D01*
X48031D02*
X62992D01*
X41339Y123228D02*
X43701D01*
X42520Y122047D02*
Y124409D01*
X29921Y113386D02*
X44882D01*
X29921D02*
Y121260D01*
X44882D01*
Y113386D02*
Y121260D01*
X122835Y121653D02*
X130709D01*
X122835Y106693D02*
Y121653D01*
Y106693D02*
X130709D01*
Y121653D01*
X134646D02*
X142520D01*
X134646Y106693D02*
Y121653D01*
Y106693D02*
X142520D01*
Y121653D01*
X74409Y105512D02*
X82284D01*
X74409Y90551D02*
Y105512D01*
Y90551D02*
X82284D01*
Y105512D01*
X157264Y75929D02*
Y83803D01*
X142303D02*
X157264D01*
X142303Y75929D02*
Y83803D01*
Y75929D02*
X157264D01*
X155643Y109843D02*
Y111942D01*
X154594Y110892D02*
X156693D01*
X53543Y101837D02*
X55642D01*
X54593Y102886D02*
Y100787D01*
X33858Y54987D02*
X35957D01*
X34908Y56036D02*
Y53937D01*
X149213Y195801D02*
X147114D01*
X148163Y194751D02*
Y196850D01*
X216273Y136614D02*
Y138713D01*
X215224Y137664D02*
X217323D01*
X204987Y113779D02*
Y111680D01*
X206036Y112730D02*
X203937D01*
X274496Y19986D02*
X272397D01*
X273446Y18936D02*
Y21035D01*
X75197Y69554D02*
X77296D01*
X76246Y70603D02*
Y68504D01*
X160761Y59055D02*
Y61154D01*
X159712Y60105D02*
X161811D01*
X75984Y59317D02*
X78083D01*
X77034Y60367D02*
Y58268D01*
X152100Y45669D02*
Y47768D01*
X151050Y46719D02*
X153150D01*
X115748Y22572D02*
X113649D01*
X114699Y21523D02*
Y23622D01*
D15*
X175591Y156004D02*
Y169980D01*
X136221Y156004D02*
Y169980D01*
X84646Y128150D02*
X108268D01*
X84646D02*
Y141929D01*
X108268D01*
Y128150D02*
Y141929D01*
D16*
X74182Y51265D02*
X73182Y52264D01*
X71183D01*
X70183Y51265D01*
Y47266D01*
X71183Y46266D01*
X73182D01*
X74182Y47266D01*
X76182Y52264D02*
Y51265D01*
X78181Y49265D01*
X80180Y51265D01*
Y52264D01*
X78181Y49265D02*
Y46266D01*
X86178Y51265D02*
X85179Y52264D01*
X83179D01*
X82180Y51265D01*
Y50265D01*
X83179Y49265D01*
X85179D01*
X86178Y48265D01*
Y47266D01*
X85179Y46266D01*
X83179D01*
X82180Y47266D01*
X88178Y46266D02*
X90177D01*
X89177D01*
Y52264D01*
X88178Y51265D01*
X130483Y149764D02*
Y143766D01*
X133483D01*
X134482Y144766D01*
Y148765D01*
X133483Y149764D01*
X130483D01*
X139480Y143766D02*
X137481D01*
X136481Y144766D01*
Y146765D01*
X137481Y147765D01*
X139480D01*
X140480Y146765D01*
Y145765D01*
X136481D01*
X142480Y143766D02*
X145479D01*
X146478Y144766D01*
X145479Y145765D01*
X143479D01*
X142480Y146765D01*
X143479Y147765D01*
X146478D01*
X148478Y143766D02*
X150477D01*
X149477D01*
Y147765D01*
X148478D01*
X155475Y141767D02*
X156475D01*
X157475Y142766D01*
Y147765D01*
X154476D01*
X153476Y146765D01*
Y144766D01*
X154476Y143766D01*
X157475D01*
X159474D02*
Y147765D01*
X162473D01*
X163473Y146765D01*
Y143766D01*
X166472Y147765D02*
X168471D01*
X169471Y146765D01*
Y143766D01*
X166472D01*
X165472Y144766D01*
X166472Y145765D01*
X169471D01*
X172470Y148765D02*
Y147765D01*
X171470D01*
X173470D01*
X172470D01*
Y144766D01*
X173470Y143766D01*
X177468D02*
X179468D01*
X180467Y144766D01*
Y146765D01*
X179468Y147765D01*
X177468D01*
X176469Y146765D01*
Y144766D01*
X177468Y143766D01*
X182467Y147765D02*
Y143766D01*
Y145765D01*
X183466Y146765D01*
X184466Y147765D01*
X185466D01*
X188465Y143766D02*
X190464D01*
X189464D01*
Y149764D01*
X188465Y148765D01*
X193463D02*
X194463Y149764D01*
X196462D01*
X197462Y148765D01*
Y147765D01*
X196462Y146765D01*
X195462D01*
X196462D01*
X197462Y145765D01*
Y144766D01*
X196462Y143766D01*
X194463D01*
X193463Y144766D01*
X199461D02*
X200461Y143766D01*
X202460D01*
X203460Y144766D01*
Y148765D01*
X202460Y149764D01*
X200461D01*
X199461Y148765D01*
Y147765D01*
X200461Y146765D01*
X203460D01*
X155684Y126164D02*
Y120166D01*
X158683D01*
X159682Y121166D01*
Y125164D01*
X158683Y126164D01*
X155684D01*
X164681Y120166D02*
X162681D01*
X161681Y121166D01*
Y123165D01*
X162681Y124165D01*
X164681D01*
X165680Y123165D01*
Y122166D01*
X161681D01*
X167680Y120166D02*
X170679D01*
X171678Y121166D01*
X170679Y122166D01*
X168679D01*
X167680Y123165D01*
X168679Y124165D01*
X171678D01*
X173678Y120166D02*
X175677D01*
X174677D01*
Y124165D01*
X173678D01*
X180675Y118167D02*
X181675D01*
X182675Y119167D01*
Y124165D01*
X179676D01*
X178676Y123165D01*
Y121166D01*
X179676Y120166D01*
X182675D01*
X184674D02*
Y124165D01*
X187673D01*
X188673Y123165D01*
Y120166D01*
X191672Y124165D02*
X193671D01*
X194671Y123165D01*
Y120166D01*
X191672D01*
X190672Y121166D01*
X191672Y122166D01*
X194671D01*
X197670Y125164D02*
Y124165D01*
X196670D01*
X198670D01*
X197670D01*
Y121166D01*
X198670Y120166D01*
X202668D02*
X204668D01*
X205667Y121166D01*
Y123165D01*
X204668Y124165D01*
X202668D01*
X201669Y123165D01*
Y121166D01*
X202668Y120166D01*
X207667Y124165D02*
Y120166D01*
Y122166D01*
X208666Y123165D01*
X209666Y124165D01*
X210666D01*
X213665Y120166D02*
X215664D01*
X214664D01*
Y126164D01*
X213665Y125164D01*
X218663D02*
X219663Y126164D01*
X221662D01*
X222662Y125164D01*
Y124165D01*
X221662Y123165D01*
X220662D01*
X221662D01*
X222662Y122166D01*
Y121166D01*
X221662Y120166D01*
X219663D01*
X218663Y121166D01*
X224661Y125164D02*
X225661Y126164D01*
X227660D01*
X228660Y125164D01*
Y124165D01*
X227660Y123165D01*
X228660Y122166D01*
Y121166D01*
X227660Y120166D01*
X225661D01*
X224661Y121166D01*
Y122166D01*
X225661Y123165D01*
X224661Y124165D01*
Y125164D01*
X225661Y123165D02*
X227660D01*
X151082Y128464D02*
X150083Y129464D01*
X148083D01*
X147083Y128464D01*
Y124466D01*
X148083Y123466D01*
X150083D01*
X151082Y124466D01*
X153082D02*
X154081Y123466D01*
X156080D01*
X157080Y124466D01*
Y128464D01*
X156080Y129464D01*
X154081D01*
X153082Y128464D01*
Y127465D01*
X154081Y126465D01*
X157080D01*
X142783Y107164D02*
Y101166D01*
X146782D01*
X148782D02*
X150781D01*
X149781D01*
Y107164D01*
X148782Y106165D01*
X25284Y110164D02*
Y105166D01*
X26283Y104166D01*
X28282D01*
X29282Y105166D01*
Y110164D01*
X35280Y104166D02*
X31282D01*
X35280Y108165D01*
Y109165D01*
X34280Y110164D01*
X32281D01*
X31282Y109165D01*
X47484Y124466D02*
Y130464D01*
X50482D01*
X51482Y129464D01*
Y127465D01*
X50482Y126465D01*
X47484D01*
X49483D02*
X51482Y124466D01*
X53482Y129464D02*
X54481Y130464D01*
X56481D01*
X57480Y129464D01*
Y128465D01*
X56481Y127465D01*
X55481D01*
X56481D01*
X57480Y126465D01*
Y125466D01*
X56481Y124466D01*
X54481D01*
X53482Y125466D01*
X57382Y119465D02*
X56383Y120464D01*
X54383D01*
X53383Y119465D01*
Y115466D01*
X54383Y114466D01*
X56383D01*
X57382Y115466D01*
X59382Y119465D02*
X60381Y120464D01*
X62381D01*
X63380Y119465D01*
Y118465D01*
X62381Y117465D01*
X63380Y116465D01*
Y115466D01*
X62381Y114466D01*
X60381D01*
X59382Y115466D01*
Y116465D01*
X60381Y117465D01*
X59382Y118465D01*
Y119465D01*
X60381Y117465D02*
X62381D01*
X37682Y72565D02*
X36683Y73564D01*
X34683D01*
X33683Y72565D01*
Y68566D01*
X34683Y67566D01*
X36683D01*
X37682Y68566D01*
X39682Y73564D02*
X43680D01*
Y72565D01*
X39682Y68566D01*
Y67566D01*
X30683Y133564D02*
Y127566D01*
X34682D01*
X40680D02*
X36682D01*
X40680Y131565D01*
Y132564D01*
X39680Y133564D01*
X37681D01*
X36682Y132564D01*
X178982Y53764D02*
X176983D01*
X177982D01*
Y48766D01*
X176983Y47766D01*
X175983D01*
X174984Y48766D01*
X180982Y47766D02*
X182981D01*
X181981D01*
Y53764D01*
X180982Y52764D01*
X133484Y186464D02*
Y181466D01*
X134483Y180466D01*
X136483D01*
X137482Y181466D01*
Y186464D01*
X139481Y185465D02*
X140481Y186464D01*
X142481D01*
X143480Y185465D01*
Y184465D01*
X142481Y183465D01*
X141481D01*
X142481D01*
X143480Y182466D01*
Y181466D01*
X142481Y180466D01*
X140481D01*
X139481Y181466D01*
X123684Y126266D02*
Y132264D01*
X126682D01*
X127682Y131264D01*
Y129265D01*
X126682Y128266D01*
X123684D01*
X125683D02*
X127682Y126266D01*
X132680D02*
Y132264D01*
X129682Y129265D01*
X133680D01*
X135484Y126266D02*
Y132264D01*
X138482D01*
X139482Y131264D01*
Y129265D01*
X138482Y128266D01*
X135484D01*
X137483D02*
X139482Y126266D01*
X145480Y132264D02*
X141481D01*
Y129265D01*
X143481Y130265D01*
X144481D01*
X145480Y129265D01*
Y127266D01*
X144481Y126266D01*
X142481D01*
X141481Y127266D01*
X143582Y205264D02*
X142582Y206264D01*
X140583D01*
X139584Y205264D01*
Y201266D01*
X140583Y200266D01*
X142582D01*
X143582Y201266D01*
X145581Y200266D02*
X147581D01*
X146581D01*
Y206264D01*
X145581Y205264D01*
X150580D02*
X151580Y206264D01*
X153579D01*
X154579Y205264D01*
Y201266D01*
X153579Y200266D01*
X151580D01*
X150580Y201266D01*
Y205264D01*
X186882Y162065D02*
X185882Y163064D01*
X183883D01*
X182884Y162065D01*
Y158066D01*
X183883Y157066D01*
X185882D01*
X186882Y158066D01*
X188882Y163064D02*
Y162065D01*
X190881Y160065D01*
X192880Y162065D01*
Y163064D01*
X190881Y160065D02*
Y157066D01*
X198878Y162065D02*
X197879Y163064D01*
X195879D01*
X194880Y162065D01*
Y161065D01*
X195879Y160065D01*
X197879D01*
X198878Y159065D01*
Y158066D01*
X197879Y157066D01*
X195879D01*
X194880Y158066D01*
X204876Y157066D02*
X200878D01*
X204876Y161065D01*
Y162065D01*
X203877Y163064D01*
X201877D01*
X200878Y162065D01*
X211682Y155264D02*
X210683Y156264D01*
X208683D01*
X207683Y155264D01*
Y151266D01*
X208683Y150266D01*
X210683D01*
X211682Y151266D01*
X213682Y150266D02*
X215681D01*
X214681D01*
Y156264D01*
X213682Y155264D01*
X222679Y150266D02*
X218680D01*
X222679Y154265D01*
Y155264D01*
X221679Y156264D01*
X219680D01*
X218680Y155264D01*
X208582Y122965D02*
X207582Y123964D01*
X205583D01*
X204584Y122965D01*
Y118966D01*
X205583Y117966D01*
X207582D01*
X208582Y118966D01*
X210581Y117966D02*
X212581D01*
X211581D01*
Y123964D01*
X210581Y122965D01*
X215580Y117966D02*
X217579D01*
X216580D01*
Y123964D01*
X215580Y122965D01*
X78982Y87164D02*
X77982Y88164D01*
X75983D01*
X74984Y87164D01*
Y83166D01*
X75983Y82166D01*
X77982D01*
X78982Y83166D01*
X84980Y82166D02*
X80981D01*
X84980Y86165D01*
Y87164D01*
X83981Y88164D01*
X81981D01*
X80981Y87164D01*
X97983Y102164D02*
Y97166D01*
X98983Y96166D01*
X100982D01*
X101982Y97166D01*
Y102164D01*
X103981Y96166D02*
X105981D01*
X104981D01*
Y102164D01*
X103981Y101164D01*
X78482Y150964D02*
X77482Y151964D01*
X75483D01*
X74484Y150964D01*
Y149965D01*
X75483Y148965D01*
X77482D01*
X78482Y147966D01*
Y146966D01*
X77482Y145966D01*
X75483D01*
X74484Y146966D01*
X80481Y151964D02*
Y145966D01*
X82481Y147966D01*
X84480Y145966D01*
Y151964D01*
X86480Y145966D02*
X88479D01*
X87479D01*
Y151964D01*
X86480Y150964D01*
X143084Y86966D02*
Y92964D01*
X146082D01*
X147082Y91965D01*
Y89965D01*
X146082Y88965D01*
X143084D01*
X145083D02*
X147082Y86966D01*
X153080D02*
X149082D01*
X153080Y90965D01*
Y91965D01*
X152081Y92964D01*
X150081D01*
X149082Y91965D01*
X75183Y110066D02*
Y116064D01*
X78183D01*
X79182Y115065D01*
Y113065D01*
X78183Y112065D01*
X75183D01*
X77183D02*
X79182Y110066D01*
X81182D02*
X83181D01*
X82181D01*
Y116064D01*
X81182Y115065D01*
X5283Y61364D02*
Y55366D01*
Y57366D01*
X9282Y61364D01*
X6283Y58365D01*
X9282Y55366D01*
X11282Y61364D02*
Y55366D01*
X15280D01*
X17280D02*
Y61364D01*
X19279Y59365D01*
X21278Y61364D01*
Y55366D01*
X23278D02*
X25277D01*
X24277D01*
Y61364D01*
X23278Y60365D01*
X110082Y31964D02*
X109082Y32964D01*
X107083D01*
X106084Y31964D01*
Y27966D01*
X107083Y26966D01*
X109082D01*
X110082Y27966D01*
X116080Y32964D02*
X114081Y31964D01*
X112082Y29965D01*
Y27966D01*
X113081Y26966D01*
X115080D01*
X116080Y27966D01*
Y28965D01*
X115080Y29965D01*
X112082D01*
X209090Y13390D02*
X210090Y12391D01*
X212089D01*
X213089Y13390D01*
Y17389D01*
X212089Y18389D01*
X210090D01*
X209090Y17389D01*
X203092Y12391D02*
X207091D01*
Y15390D01*
X205092Y14390D01*
X204092D01*
X203092Y15390D01*
Y17389D01*
X204092Y18389D01*
X206091D01*
X207091Y17389D01*
X79782Y76864D02*
X78782Y77864D01*
X76783D01*
X75783Y76864D01*
Y72866D01*
X76783Y71866D01*
X78782D01*
X79782Y72866D01*
X84781Y71866D02*
Y77864D01*
X81782Y74865D01*
X85780D01*
X147482Y64265D02*
X146483Y65264D01*
X144483D01*
X143483Y64265D01*
Y60266D01*
X144483Y59266D01*
X146483D01*
X147482Y60266D01*
X149481Y64265D02*
X150481Y65264D01*
X152480D01*
X153480Y64265D01*
Y63265D01*
X152480Y62265D01*
X151481D01*
X152480D01*
X153480Y61265D01*
Y60266D01*
X152480Y59266D01*
X150481D01*
X149481Y60266D01*
X156182Y77665D02*
X155183Y78664D01*
X153183D01*
X152183Y77665D01*
Y73666D01*
X153183Y72666D01*
X155183D01*
X156182Y73666D01*
X158182Y72666D02*
X160181D01*
X159181D01*
Y78664D01*
X158182Y77665D01*
M02*
