G04*
G04 #@! TF.GenerationSoftware,Altium Limited,Altium Designer,22.9.1 (49)*
G04*
G04 Layer_Physical_Order=2*
G04 Layer_Color=16711680*
%FSLAX25Y25*%
%MOIN*%
G70*
G04*
G04 #@! TF.SameCoordinates,98696D13-EABD-4F9F-9DF4-DD99C549A471*
G04*
G04*
G04 #@! TF.FilePolarity,Positive*
G04*
G01*
G75*
%ADD16C,0.01000*%
%ADD59C,0.03543*%
%ADD60C,0.08661*%
%ADD61C,0.05000*%
G36*
X83148Y113783D02*
X83004Y113909D01*
X82839Y114021D01*
X82652Y114120D01*
X82443Y114205D01*
X82212Y114276D01*
X81960Y114334D01*
X81686Y114378D01*
X81390Y114409D01*
X80734Y114429D01*
X83209Y116904D01*
X83212Y116565D01*
X83259Y115952D01*
X83304Y115678D01*
X83361Y115426D01*
X83433Y115195D01*
X83518Y114986D01*
X83617Y114799D01*
X83729Y114634D01*
X83855Y114490D01*
X83148Y113783D01*
D02*
G37*
G36*
X122035Y97744D02*
X122225Y97757D01*
X122422Y97794D01*
X122624Y97857D01*
X122832Y97944D01*
X123045Y98057D01*
X123265Y98194D01*
X123489Y98357D01*
X123720Y98544D01*
X124199Y98994D01*
Y95494D01*
X123957Y95732D01*
X123489Y96132D01*
X123265Y96294D01*
X123045Y96432D01*
X122832Y96544D01*
X122624Y96632D01*
X122422Y96694D01*
X122225Y96732D01*
X122035Y96744D01*
Y97744D01*
D02*
G37*
G36*
X81209Y120879D02*
X81221Y120688D01*
X81259Y120492D01*
X81321Y120290D01*
X81409Y120082D01*
X81521Y119868D01*
X81659Y119649D01*
X81821Y119424D01*
X82009Y119193D01*
X82459Y118714D01*
X78959D01*
X79196Y118957D01*
X79596Y119424D01*
X79759Y119649D01*
X79896Y119868D01*
X80009Y120082D01*
X80096Y120290D01*
X80159Y120492D01*
X80196Y120688D01*
X80209Y120879D01*
X81209D01*
D02*
G37*
G36*
X127169Y187718D02*
X127295Y187862D01*
X127407Y188027D01*
X127506Y188214D01*
X127591Y188423D01*
X127662Y188654D01*
X127720Y188906D01*
X127764Y189180D01*
X127795Y189476D01*
X127815Y190132D01*
X130290Y187658D01*
X129951Y187654D01*
X129338Y187607D01*
X129064Y187563D01*
X128811Y187505D01*
X128581Y187433D01*
X128372Y187348D01*
X128185Y187250D01*
X128019Y187137D01*
X127876Y187011D01*
X127169Y187718D01*
D02*
G37*
D16*
X80709Y116929D02*
Y140551D01*
Y116929D02*
X100394Y97244D01*
X80709Y140551D02*
X130315Y190157D01*
X100394Y97244D02*
X125984D01*
D59*
X187402Y27854D02*
D03*
X204724D02*
D03*
D60*
X20866Y21102D02*
D03*
Y41102D02*
D03*
D61*
X80709Y116929D02*
D03*
X130315Y190157D02*
D03*
X125984Y97244D02*
D03*
M02*
