G04*
G04 #@! TF.GenerationSoftware,Altium Limited,Altium Designer,22.9.1 (49)*
G04*
G04 Layer_Physical_Order=1*
G04 Layer_Color=255*
%FSLAX25Y25*%
%MOIN*%
G70*
G04*
G04 #@! TF.SameCoordinates,98696D13-EABD-4F9F-9DF4-DD99C549A471*
G04*
G04*
G04 #@! TF.FilePolarity,Positive*
G04*
G01*
G75*
%ADD17R,0.18701X0.07874*%
%ADD18R,0.04724X0.07087*%
%ADD19R,0.05512X0.03150*%
%ADD20R,0.04331X0.06693*%
%ADD21R,0.08465X0.03937*%
%ADD22R,0.08465X0.12795*%
%ADD23R,0.08465X0.03937*%
%ADD24R,0.03150X0.05512*%
%ADD25R,0.01968X0.09843*%
%ADD26R,0.07874X0.09843*%
G04:AMPARAMS|DCode=27|XSize=51.58mil|YSize=24.41mil|CornerRadius=3.05mil|HoleSize=0mil|Usage=FLASHONLY|Rotation=90.000|XOffset=0mil|YOffset=0mil|HoleType=Round|Shape=RoundedRectangle|*
%AMROUNDEDRECTD27*
21,1,0.05158,0.01831,0,0,90.0*
21,1,0.04547,0.02441,0,0,90.0*
1,1,0.00610,0.00915,0.02274*
1,1,0.00610,0.00915,-0.02274*
1,1,0.00610,-0.00915,-0.02274*
1,1,0.00610,-0.00915,0.02274*
%
%ADD27ROUNDEDRECTD27*%
%ADD28R,0.07087X0.04724*%
%ADD29R,0.07874X0.18701*%
%ADD30R,0.05906X0.02165*%
%ADD31R,0.02165X0.05906*%
%ADD32R,0.08583X0.06299*%
%ADD51C,0.02756*%
%ADD52C,0.02000*%
%ADD53C,0.01968*%
%ADD54C,0.03937*%
%ADD55C,0.05906*%
%ADD56C,0.02953*%
%ADD57C,0.02362*%
%ADD58C,0.01181*%
%ADD59C,0.03543*%
%ADD60C,0.08661*%
%ADD61C,0.05000*%
G36*
X155405Y201468D02*
X155118Y201181D01*
Y186614D01*
X227559D01*
Y1575D01*
X228672Y462D01*
X228481Y0D01*
X0D01*
Y198819D01*
X2487Y201306D01*
X2922Y201060D01*
X2756Y200394D01*
X4331Y201969D01*
X155255D01*
X155405Y201468D01*
D02*
G37*
%LPC*%
G36*
X124803Y197653D02*
X124496Y197592D01*
X124235Y197418D01*
X119905Y193087D01*
X119731Y192827D01*
X119670Y192520D01*
Y186614D01*
X119731Y186307D01*
X119905Y186047D01*
X120165Y185872D01*
X120472Y185811D01*
X120534D01*
X125417Y180928D01*
X125677Y180754D01*
X125984Y180693D01*
X142126D01*
X142126Y180693D01*
X142433Y180754D01*
X142694Y180928D01*
X142694Y180928D01*
X143875Y182109D01*
X144049Y182370D01*
X144110Y182677D01*
X144049Y182984D01*
X143875Y183245D01*
X143875Y183245D01*
X143716Y183403D01*
Y186402D01*
X143679Y186588D01*
X143701Y186614D01*
X143701D01*
Y193701D01*
X143701D01*
X143679Y193727D01*
X143716Y193913D01*
Y194882D01*
X143716Y194882D01*
X143655Y195189D01*
X143481Y195450D01*
X141513Y197418D01*
X141252Y197592D01*
X140945Y197653D01*
X124803D01*
X124803Y197653D01*
D02*
G37*
G36*
X174321Y177206D02*
X172490D01*
X172064Y177122D01*
X171703Y176880D01*
X171461Y176519D01*
X171376Y176093D01*
Y171545D01*
X171461Y171119D01*
X171703Y170758D01*
X172064Y170516D01*
X172490Y170431D01*
X174321D01*
X174747Y170516D01*
X175109Y170758D01*
X175350Y171119D01*
X175435Y171545D01*
Y176093D01*
X175350Y176519D01*
X175109Y176880D01*
X174747Y177122D01*
X174321Y177206D01*
D02*
G37*
G36*
X169321D02*
X167490D01*
X167064Y177122D01*
X166702Y176880D01*
X166461Y176519D01*
X166376Y176093D01*
Y171545D01*
X166461Y171119D01*
X166702Y170758D01*
X167064Y170516D01*
X167490Y170431D01*
X169321D01*
X169747Y170516D01*
X170108Y170758D01*
X170350Y171119D01*
X170435Y171545D01*
Y176093D01*
X170350Y176519D01*
X170108Y176880D01*
X169747Y177122D01*
X169321Y177206D01*
D02*
G37*
G36*
X164321D02*
X162490D01*
X162064Y177122D01*
X161703Y176880D01*
X161461Y176519D01*
X161376Y176093D01*
Y171545D01*
X161461Y171119D01*
X161703Y170758D01*
X162064Y170516D01*
X162490Y170431D01*
X164321D01*
X164747Y170516D01*
X165109Y170758D01*
X165350Y171119D01*
X165435Y171545D01*
Y176093D01*
X165350Y176519D01*
X165109Y176880D01*
X164747Y177122D01*
X164321Y177206D01*
D02*
G37*
G36*
X159321D02*
X157490D01*
X157064Y177122D01*
X156702Y176880D01*
X156461Y176519D01*
X156376Y176093D01*
Y171545D01*
X156461Y171119D01*
X156702Y170758D01*
X157064Y170516D01*
X157490Y170431D01*
X159321D01*
X159747Y170516D01*
X160108Y170758D01*
X160350Y171119D01*
X160435Y171545D01*
Y176093D01*
X160350Y176519D01*
X160108Y176880D01*
X159747Y177122D01*
X159321Y177206D01*
D02*
G37*
G36*
X150000Y193701D02*
X145276D01*
Y186614D01*
X145980D01*
X146198Y186288D01*
Y184892D01*
X146366Y184047D01*
X146844Y183331D01*
X151198Y178977D01*
Y173819D01*
X151366Y172974D01*
X151376Y172958D01*
Y171545D01*
X151461Y171119D01*
X151702Y170758D01*
X152064Y170516D01*
X152490Y170431D01*
X154321D01*
X154747Y170516D01*
X155108Y170758D01*
X155350Y171119D01*
X155435Y171545D01*
Y172958D01*
X155445Y172974D01*
X155613Y173819D01*
Y179892D01*
X155445Y180737D01*
X154967Y181453D01*
X150613Y185806D01*
Y187165D01*
X150445Y188010D01*
X150042Y188613D01*
Y188779D01*
X150000Y188993D01*
Y193701D01*
D02*
G37*
G36*
X149321Y177206D02*
X147490D01*
X147064Y177122D01*
X146703Y176880D01*
X146461Y176519D01*
X146376Y176093D01*
Y171545D01*
X146461Y171119D01*
X146703Y170758D01*
X147064Y170516D01*
X147490Y170431D01*
X149321D01*
X149747Y170516D01*
X150109Y170758D01*
X150350Y171119D01*
X150435Y171545D01*
Y176093D01*
X150350Y176519D01*
X150109Y176880D01*
X149747Y177122D01*
X149321Y177206D01*
D02*
G37*
G36*
X51772Y177591D02*
X50795Y177463D01*
X49885Y177086D01*
X49104Y176486D01*
X12293Y139675D01*
X11694Y138894D01*
X11317Y137984D01*
X11188Y137008D01*
Y46220D01*
X11317Y45244D01*
X11694Y44334D01*
X12293Y43553D01*
X15869Y39977D01*
X16097Y39127D01*
X16771Y37960D01*
X17724Y37007D01*
X18891Y36333D01*
X20192Y35984D01*
X21540D01*
X22442Y36226D01*
X51184Y7483D01*
X51760Y7041D01*
X52430Y6764D01*
X53150Y6669D01*
X148481D01*
X149201Y6764D01*
X149871Y7041D01*
X150447Y7483D01*
X152753Y9789D01*
X153195Y10365D01*
X153472Y11036D01*
X153567Y11755D01*
Y35226D01*
X163619Y45279D01*
X164061Y45854D01*
X164339Y46525D01*
X164433Y47244D01*
X164407Y47443D01*
X166208Y49243D01*
X181596D01*
X187333Y43506D01*
X187333Y43506D01*
X187957Y42882D01*
Y37203D01*
X187992Y37028D01*
Y32382D01*
X200378D01*
Y32169D01*
X201862D01*
Y38091D01*
Y44012D01*
X200378D01*
Y43799D01*
X197869D01*
Y52743D01*
X198103Y53092D01*
X198271Y53937D01*
X198103Y54782D01*
X197624Y55498D01*
X170310Y82812D01*
Y106693D01*
X171653D01*
Y115354D01*
X165468D01*
Y129134D01*
X165330Y129825D01*
X165212Y130002D01*
Y149259D01*
X165350Y149466D01*
X165435Y149892D01*
Y154439D01*
X165350Y154865D01*
X165109Y155227D01*
X164747Y155468D01*
X164321Y155553D01*
X162490D01*
X162064Y155468D01*
X160839Y156693D01*
X159843D01*
Y155959D01*
X159343Y155549D01*
X159321Y155553D01*
X157490D01*
X157064Y155468D01*
X156702Y155227D01*
X156461Y154865D01*
X156376Y154439D01*
Y149892D01*
X156461Y149466D01*
X156599Y149259D01*
Y129390D01*
X156737Y128699D01*
X157052Y128227D01*
Y115354D01*
X155905D01*
Y106693D01*
X161855D01*
Y82415D01*
X161622Y82065D01*
X161454Y81221D01*
X161622Y80376D01*
X162100Y79659D01*
X191107Y50653D01*
Y45549D01*
X190607Y45342D01*
X189888Y46061D01*
X189888Y46061D01*
X183622Y52327D01*
X183036Y52719D01*
X182344Y52856D01*
X165459D01*
X164768Y52719D01*
X164182Y52327D01*
X161853Y49998D01*
X161654Y50024D01*
X160934Y49929D01*
X160264Y49651D01*
X159688Y49210D01*
X148822Y38343D01*
X148380Y37768D01*
X148102Y37097D01*
X148008Y36378D01*
Y12906D01*
X147330Y12229D01*
X54301D01*
X28669Y37861D01*
X28860Y38323D01*
X48819D01*
X49433Y38404D01*
X49449Y38401D01*
X52520D01*
X53403Y38576D01*
X54152Y39077D01*
X63948Y48873D01*
X75907D01*
X76241Y48598D01*
Y45533D01*
X76241Y45533D01*
X76218Y45042D01*
X76103Y44461D01*
X76103Y44461D01*
Y37402D01*
X68602D01*
Y27953D01*
X76432D01*
Y20472D01*
X76378D01*
Y13386D01*
X81102D01*
Y20472D01*
X81048D01*
Y27953D01*
X88878D01*
Y37402D01*
X104035D01*
Y27953D01*
X111865D01*
Y20472D01*
X111811D01*
Y13386D01*
X116535D01*
Y16674D01*
X116586Y16929D01*
X116535Y17184D01*
Y18445D01*
X116586Y18701D01*
X116535Y18956D01*
Y20472D01*
X116481D01*
Y27953D01*
X124311D01*
Y37402D01*
X115996D01*
Y41732D01*
X115996Y41732D01*
X115857Y42430D01*
X115462Y43021D01*
X115462Y43021D01*
X112312Y46170D01*
X111721Y46566D01*
X111024Y46704D01*
X111024Y46704D01*
X101149D01*
X98279Y49574D01*
Y56060D01*
X100691Y58473D01*
X105512D01*
X105724Y58307D01*
X105798Y58212D01*
X105890Y57897D01*
Y50697D01*
X131677D01*
Y57854D01*
X131744Y58180D01*
X131843Y58307D01*
X132055Y58473D01*
X139453D01*
Y61587D01*
X142822D01*
X145335Y59074D01*
Y55905D01*
X142913D01*
Y51181D01*
X150000D01*
Y55905D01*
X148980D01*
Y59829D01*
X149213Y60061D01*
Y65107D01*
X151575D01*
Y64567D01*
X158661D01*
Y69291D01*
X151575D01*
Y68752D01*
X147048D01*
X144999Y70801D01*
X144408Y71196D01*
X143710Y71334D01*
X143710Y71334D01*
X139665D01*
Y72441D01*
X135713D01*
Y73441D01*
X139665D01*
Y75024D01*
X139453D01*
Y77418D01*
X141909D01*
Y75535D01*
X151358D01*
X151358Y75535D01*
Y75535D01*
X157658D01*
Y84197D01*
X157288D01*
Y90591D01*
X157193Y91310D01*
X157185Y91329D01*
Y95000D01*
X149128D01*
X147949Y95213D01*
X147949Y95213D01*
X147749Y95213D01*
X145283D01*
Y90866D01*
Y86520D01*
X147709D01*
X147949Y86520D01*
X148209Y86127D01*
Y84197D01*
X141909D01*
Y81063D01*
X139453D01*
Y84260D01*
X132055D01*
X131843Y84425D01*
X131815Y84461D01*
X131677Y84904D01*
Y92035D01*
X132064Y92422D01*
Y93133D01*
X134820Y95889D01*
X134994Y96149D01*
X135055Y96457D01*
Y100000D01*
X135055Y100000D01*
X134994Y100307D01*
X134820Y100568D01*
X134820Y100568D01*
X134522Y100865D01*
X134713Y101327D01*
X136614D01*
X136614Y101327D01*
X137312Y101466D01*
X137903Y101861D01*
X139871Y103829D01*
X139871Y103830D01*
X140266Y104421D01*
X140405Y105118D01*
X140405Y105118D01*
Y106299D01*
X142913D01*
Y112598D01*
X122441D01*
Y111271D01*
X120866D01*
X120866Y111271D01*
X120169Y111133D01*
X119578Y110738D01*
X119578Y110737D01*
X109621Y100781D01*
X109226Y100189D01*
X109087Y99492D01*
X109087Y99492D01*
Y92035D01*
X105890D01*
Y84989D01*
X105890Y84555D01*
X105489Y84316D01*
X105408Y84287D01*
X105408Y84287D01*
X105397Y84260D01*
X98114D01*
Y80520D01*
Y78173D01*
X97902D01*
Y76591D01*
X101854D01*
Y75590D01*
X97902D01*
Y74763D01*
X96712D01*
X95182Y76293D01*
X94591Y76688D01*
X93894Y76826D01*
X93894Y76826D01*
X85433D01*
Y78740D01*
X85379D01*
Y82677D01*
X85203Y83560D01*
X84703Y84309D01*
X80655Y88358D01*
Y90158D01*
X82677D01*
Y96457D01*
X74016D01*
Y90158D01*
X76038D01*
Y87402D01*
X76214Y86518D01*
X76714Y85769D01*
X80763Y81721D01*
Y78740D01*
X80709D01*
Y71653D01*
X81248D01*
Y67888D01*
X81248Y67888D01*
X81387Y67191D01*
X81461Y67080D01*
Y65535D01*
X81461Y65535D01*
X81496Y65359D01*
Y61417D01*
X82213D01*
X82248Y60917D01*
X82245Y60784D01*
X74951Y53489D01*
X62992D01*
X62109Y53313D01*
X61360Y52813D01*
X54816Y46270D01*
X54355Y46461D01*
Y74803D01*
X56595D01*
Y80315D01*
X51755D01*
X51575Y80339D01*
X51394Y80315D01*
X46555D01*
Y74803D01*
X48795D01*
Y44426D01*
X48729Y44417D01*
X48059Y44140D01*
X47723Y43882D01*
X46403D01*
X46212Y44344D01*
X46697Y44829D01*
X47139Y45405D01*
X47416Y46075D01*
X47511Y46794D01*
Y57237D01*
X47416Y57957D01*
X47139Y58627D01*
X46697Y59203D01*
X44717Y61183D01*
X44533Y61626D01*
X44094Y62198D01*
Y64173D01*
X39370D01*
Y62078D01*
X39325Y62020D01*
X39047Y61349D01*
X38953Y60630D01*
X39047Y59911D01*
X39325Y59240D01*
X39370Y59181D01*
Y57087D01*
X40951D01*
X41952Y56086D01*
Y47946D01*
X41274Y47268D01*
X25530D01*
X24811Y47173D01*
X24140Y46895D01*
X23565Y46454D01*
X22931Y45820D01*
X22842Y45872D01*
X21540Y46220D01*
X20296D01*
X18733Y47783D01*
Y135445D01*
X54327Y171039D01*
X136514D01*
X136703Y170758D01*
X137064Y170516D01*
X137490Y170431D01*
X139321D01*
X139747Y170516D01*
X140109Y170758D01*
X140350Y171119D01*
X140435Y171545D01*
Y171936D01*
X140813Y172429D01*
X140876Y172582D01*
X141376Y172483D01*
Y171545D01*
X141461Y171119D01*
X141702Y170758D01*
X142064Y170516D01*
X142490Y170431D01*
X144321D01*
X144747Y170516D01*
X145108Y170758D01*
X145350Y171119D01*
X145435Y171545D01*
Y176093D01*
X145350Y176519D01*
X145108Y176880D01*
X144747Y177122D01*
X144321Y177206D01*
X142490D01*
X142064Y177122D01*
X141702Y176880D01*
X141461Y176519D01*
X141376Y176093D01*
Y175155D01*
X140876Y175056D01*
X140813Y175209D01*
X140435Y175701D01*
Y176093D01*
X140350Y176519D01*
X140109Y176880D01*
X139747Y177122D01*
X139321Y177206D01*
X137490D01*
X137064Y177122D01*
X136703Y176880D01*
X136514Y176599D01*
X54293D01*
X53658Y177086D01*
X52748Y177463D01*
X51772Y177591D01*
D02*
G37*
G36*
X139321Y155770D02*
X138906D01*
Y152665D01*
X140652D01*
Y154439D01*
X140550Y154948D01*
X140262Y155380D01*
X139830Y155668D01*
X139321Y155770D01*
D02*
G37*
G36*
X137906D02*
X137490D01*
X136981Y155668D01*
X136549Y155380D01*
X136261Y154948D01*
X136160Y154439D01*
Y152665D01*
X137906D01*
Y155770D01*
D02*
G37*
G36*
X174321Y155553D02*
X172490D01*
X172064Y155468D01*
X171703Y155227D01*
X171461Y154865D01*
X171376Y154439D01*
Y149892D01*
X170952Y149459D01*
X170828Y149446D01*
X170426Y149848D01*
X170435Y149892D01*
Y154439D01*
X170350Y154865D01*
X170108Y155227D01*
X169747Y155468D01*
X169321Y155553D01*
X167490D01*
X167064Y155468D01*
X166702Y155227D01*
X166461Y154865D01*
X166376Y154439D01*
Y149892D01*
X166445Y149545D01*
Y149429D01*
X166445Y149429D01*
X166584Y148732D01*
X166979Y148141D01*
X177311Y137808D01*
Y116929D01*
X177311Y116929D01*
X177450Y116232D01*
X177845Y115640D01*
X185466Y108020D01*
X185466Y108020D01*
X186057Y107625D01*
X186754Y107486D01*
X186754Y107486D01*
X187795D01*
Y98917D01*
X197244D01*
Y103597D01*
X207087D01*
Y103543D01*
X214173D01*
Y108268D01*
X207087D01*
Y108214D01*
X197244D01*
Y119193D01*
X187795D01*
Y111552D01*
X187295Y111345D01*
X180956Y117684D01*
Y138563D01*
X180818Y139260D01*
X180422Y139852D01*
X180422Y139852D01*
X178096Y142178D01*
X178149Y142409D01*
X178315Y142666D01*
X187795D01*
Y134350D01*
X197244D01*
Y142180D01*
X207087D01*
Y142126D01*
X214173D01*
Y146850D01*
X207087D01*
Y146796D01*
X197244D01*
Y154626D01*
X187795D01*
Y146311D01*
X178963D01*
X175448Y149826D01*
Y150587D01*
X175448Y150587D01*
X175435Y150655D01*
Y154439D01*
X175350Y154865D01*
X175109Y155227D01*
X174747Y155468D01*
X174321Y155553D01*
D02*
G37*
G36*
X140652Y151665D02*
X138906D01*
Y148561D01*
X139321D01*
X139830Y148662D01*
X140262Y148951D01*
X140550Y149382D01*
X140652Y149892D01*
Y151665D01*
D02*
G37*
G36*
X137906D02*
X136160D01*
Y149892D01*
X136261Y149382D01*
X136549Y148951D01*
X136981Y148662D01*
X137490Y148561D01*
X137906D01*
Y151665D01*
D02*
G37*
G36*
X149321Y155553D02*
X147490D01*
X147064Y155468D01*
X146703Y155227D01*
X146461Y154865D01*
X146376Y154439D01*
Y149892D01*
X146461Y149466D01*
X146583Y149283D01*
Y141680D01*
X143879Y138976D01*
X140405D01*
Y141765D01*
X144596Y145955D01*
X144991Y146547D01*
X145130Y147244D01*
X145130Y147244D01*
Y149135D01*
X145350Y149466D01*
X145435Y149892D01*
Y154439D01*
X145350Y154865D01*
X145108Y155227D01*
X144747Y155468D01*
X144321Y155553D01*
X142490D01*
X142064Y155468D01*
X141702Y155227D01*
X141461Y154865D01*
X141376Y154439D01*
Y149892D01*
X141461Y149466D01*
X141485Y149430D01*
Y147999D01*
X137294Y143808D01*
X136899Y143217D01*
X136760Y142520D01*
X136760Y142520D01*
Y138976D01*
X130709D01*
Y135996D01*
X130405Y135936D01*
X129814Y135541D01*
X129814Y135541D01*
X125483Y131210D01*
X125088Y130619D01*
X124949Y129921D01*
X124949Y129921D01*
Y122047D01*
X122441D01*
Y115748D01*
X131102D01*
Y122047D01*
X128594D01*
Y129166D01*
X130247Y130819D01*
X130709Y130628D01*
Y130315D01*
X136760D01*
Y122047D01*
X134252D01*
Y115748D01*
X142913D01*
Y122047D01*
X140405D01*
Y130315D01*
X146457D01*
Y136399D01*
X149694Y139637D01*
X150089Y140228D01*
X150228Y140925D01*
X150228Y140925D01*
Y149283D01*
X150350Y149466D01*
X150435Y149892D01*
Y154439D01*
X150350Y154865D01*
X150109Y155227D01*
X149747Y155468D01*
X149321Y155553D01*
D02*
G37*
G36*
X214386Y140764D02*
X211130D01*
Y138689D01*
X214386D01*
Y140764D01*
D02*
G37*
G36*
X210130D02*
X206874D01*
Y138689D01*
X210130D01*
Y140764D01*
D02*
G37*
G36*
X214386Y137689D02*
X211130D01*
Y135614D01*
X214386D01*
Y137689D01*
D02*
G37*
G36*
X210130D02*
X206874D01*
Y135614D01*
X210130D01*
Y137689D01*
D02*
G37*
G36*
X117102Y139189D02*
X112311D01*
Y135539D01*
X117102D01*
Y139189D01*
D02*
G37*
G36*
X111311D02*
X106520D01*
Y135539D01*
X111311D01*
Y139189D01*
D02*
G37*
G36*
X117102Y134539D02*
X112311D01*
Y130890D01*
X117102D01*
Y134539D01*
D02*
G37*
G36*
X111311D02*
X106520D01*
Y130890D01*
X111311D01*
Y134539D01*
D02*
G37*
G36*
X53937Y121653D02*
X47638D01*
Y120103D01*
X45079D01*
Y121457D01*
X39173D01*
Y113189D01*
X45079D01*
Y114543D01*
X47638D01*
Y112992D01*
X53937D01*
Y121653D01*
D02*
G37*
G36*
X35842Y121669D02*
X33177D01*
Y117823D01*
X35842D01*
Y121669D01*
D02*
G37*
G36*
X32177D02*
X29512D01*
Y117823D01*
X32177D01*
Y121669D01*
D02*
G37*
G36*
X79528Y162938D02*
X78644Y162762D01*
X77895Y162262D01*
X58604Y142971D01*
X58104Y142222D01*
X57928Y141339D01*
Y121653D01*
X57087D01*
Y112992D01*
X58619D01*
Y108071D01*
X58787Y107226D01*
X59055Y106825D01*
Y103937D01*
X59611D01*
Y94941D01*
X57262Y92592D01*
X56807Y92844D01*
X56807Y93141D01*
Y95169D01*
X52075D01*
Y92701D01*
X56331D01*
X56664Y92701D01*
X56915Y92246D01*
X54040Y89370D01*
X46555D01*
Y83858D01*
X56595D01*
Y86816D01*
X62695Y92916D01*
X63086Y93502D01*
X63224Y94193D01*
Y103937D01*
X63779D01*
Y111024D01*
X63034D01*
Y112992D01*
X63386D01*
Y121653D01*
X62544D01*
Y140383D01*
X80785Y158623D01*
X150634D01*
X151599Y157657D01*
Y155072D01*
X151461Y154865D01*
X151376Y154439D01*
Y149892D01*
X151461Y149466D01*
X151599Y149259D01*
Y120689D01*
X150989Y120079D01*
X146457D01*
Y115354D01*
X153543D01*
Y117524D01*
X154683Y118664D01*
X155074Y119250D01*
X155212Y119941D01*
Y149259D01*
X155350Y149466D01*
X155435Y149892D01*
Y154439D01*
X155350Y154865D01*
X155212Y155072D01*
Y158405D01*
X155074Y159097D01*
X154683Y159683D01*
X153052Y161313D01*
X153035Y161398D01*
X152600Y162049D01*
X151949Y162484D01*
X151181Y162637D01*
X80598D01*
X80411Y162762D01*
X79528Y162938D01*
D02*
G37*
G36*
X35842Y116823D02*
X33177D01*
Y112976D01*
X35842D01*
Y116823D01*
D02*
G37*
G36*
X32177D02*
X29512D01*
Y112976D01*
X32177D01*
Y116823D01*
D02*
G37*
G36*
X214386Y114779D02*
X211130D01*
Y112705D01*
X214386D01*
Y114779D01*
D02*
G37*
G36*
X210130D02*
X206874D01*
Y112705D01*
X210130D01*
Y114779D01*
D02*
G37*
G36*
X153756Y113992D02*
X150500D01*
Y111917D01*
X153756D01*
Y113992D01*
D02*
G37*
G36*
X149500D02*
X146244D01*
Y111917D01*
X149500D01*
Y113992D01*
D02*
G37*
G36*
X214386Y111705D02*
X211130D01*
Y109630D01*
X214386D01*
Y111705D01*
D02*
G37*
G36*
X210130D02*
X206874D01*
Y109630D01*
X210130D01*
Y111705D01*
D02*
G37*
G36*
X153756Y110917D02*
X150500D01*
Y108843D01*
X153756D01*
Y110917D01*
D02*
G37*
G36*
X149500D02*
X146244D01*
Y108843D01*
X149500D01*
Y110917D01*
D02*
G37*
G36*
X57693Y111236D02*
X55618D01*
Y107980D01*
X57693D01*
Y111236D01*
D02*
G37*
G36*
X54618D02*
X52543D01*
Y107980D01*
X54618D01*
Y111236D01*
D02*
G37*
G36*
X57693Y106980D02*
X55618D01*
Y103724D01*
X57693D01*
Y106980D01*
D02*
G37*
G36*
X54618D02*
X52543D01*
Y103724D01*
X54618D01*
Y106980D01*
D02*
G37*
G36*
X71153Y144716D02*
X70846Y144655D01*
X70586Y144481D01*
X70412Y144221D01*
X70351Y143913D01*
Y100394D01*
X70412Y100086D01*
X70586Y99826D01*
X70846Y99652D01*
X71153Y99591D01*
X73803D01*
X73989Y99628D01*
X74016Y99606D01*
Y99606D01*
X82677D01*
Y99606D01*
X82704Y99628D01*
X82890Y99591D01*
X88976Y99591D01*
X89067Y99609D01*
X89159Y99612D01*
X89219Y99639D01*
X89284Y99652D01*
X89360Y99703D01*
X89444Y99741D01*
X89489Y99789D01*
X89544Y99826D01*
X89595Y99903D01*
X89658Y99970D01*
X91016Y102156D01*
X91039Y102218D01*
X91075Y102272D01*
X91093Y102363D01*
X91126Y102449D01*
X91124Y102515D01*
X91137Y102580D01*
Y133682D01*
X91075Y133989D01*
X90901Y134250D01*
X87423Y137728D01*
X87163Y137902D01*
X86856Y137963D01*
X86681Y137928D01*
X86181Y138212D01*
Y138976D01*
X85417D01*
X85133Y139476D01*
X85168Y139651D01*
X85107Y139958D01*
X84933Y140219D01*
X80670Y144481D01*
X80410Y144655D01*
X80102Y144716D01*
X71153Y144716D01*
D02*
G37*
G36*
X56807Y98638D02*
X52075D01*
Y96169D01*
X56807D01*
Y98638D01*
D02*
G37*
G36*
X51075D02*
X46343D01*
Y96169D01*
X51075D01*
Y98638D01*
D02*
G37*
G36*
Y95169D02*
X46343D01*
Y92701D01*
X51075D01*
Y95169D01*
D02*
G37*
G36*
X144283Y95213D02*
X141618D01*
Y91366D01*
X144283D01*
Y95213D01*
D02*
G37*
G36*
Y90366D02*
X141618D01*
Y86520D01*
X144283D01*
Y90366D01*
D02*
G37*
G36*
X33760Y93799D02*
X23720D01*
Y79429D01*
X33760D01*
Y93799D01*
D02*
G37*
G36*
X79347Y78953D02*
X77272D01*
Y75697D01*
X79347D01*
Y78953D01*
D02*
G37*
G36*
X76272D02*
X74197D01*
Y75697D01*
X76272D01*
Y78953D01*
D02*
G37*
G36*
X79347Y74697D02*
X77272D01*
Y71441D01*
X79347D01*
Y74697D01*
D02*
G37*
G36*
X76272D02*
X74197D01*
Y71441D01*
X76272D01*
Y74697D01*
D02*
G37*
G36*
X80134Y68717D02*
X78059D01*
Y65461D01*
X80134D01*
Y68717D01*
D02*
G37*
G36*
X77059D02*
X74984D01*
Y65461D01*
X77059D01*
Y68717D01*
D02*
G37*
G36*
X80134Y64461D02*
X78059D01*
Y61205D01*
X80134D01*
Y64461D01*
D02*
G37*
G36*
X77059D02*
X74984D01*
Y61205D01*
X77059D01*
Y64461D01*
D02*
G37*
G36*
X38008Y64386D02*
X35933D01*
Y61130D01*
X38008D01*
Y64386D01*
D02*
G37*
G36*
X34933D02*
X32858D01*
Y61130D01*
X34933D01*
Y64386D01*
D02*
G37*
G36*
X158874Y63205D02*
X155618D01*
Y61130D01*
X158874D01*
Y63205D01*
D02*
G37*
G36*
X154618D02*
X151362D01*
Y61130D01*
X154618D01*
Y63205D01*
D02*
G37*
G36*
X158874Y60130D02*
X155618D01*
Y58055D01*
X158874D01*
Y60130D01*
D02*
G37*
G36*
X154618D02*
X151362D01*
Y58055D01*
X154618D01*
Y60130D01*
D02*
G37*
G36*
X38008Y60130D02*
X35933D01*
Y56874D01*
X38008D01*
Y60130D01*
D02*
G37*
G36*
X34933D02*
X32858D01*
Y56874D01*
X34933D01*
Y60130D01*
D02*
G37*
G36*
X150213Y49819D02*
X146957D01*
Y47744D01*
X150213D01*
Y49819D01*
D02*
G37*
G36*
X145957D02*
X142701D01*
Y47744D01*
X145957D01*
Y49819D01*
D02*
G37*
G36*
X150213Y46744D02*
X146957D01*
Y44669D01*
X150213D01*
Y46744D01*
D02*
G37*
G36*
X145957D02*
X142701D01*
Y44669D01*
X145957D01*
Y46744D01*
D02*
G37*
G36*
X204346Y44012D02*
X202862D01*
Y38591D01*
X204346D01*
Y44012D01*
D02*
G37*
G36*
X218110Y43799D02*
X208661D01*
Y32382D01*
X218110D01*
Y43799D01*
D02*
G37*
G36*
X183465D02*
X174016D01*
Y32382D01*
X183465D01*
Y43799D01*
D02*
G37*
G36*
X204346Y37591D02*
X202862D01*
Y32169D01*
X204346D01*
Y37591D01*
D02*
G37*
G36*
X205061Y30413D02*
X204387D01*
X203737Y30239D01*
X203153Y29902D01*
X202677Y29426D01*
X202340Y28842D01*
X202165Y28191D01*
Y27517D01*
X202340Y26867D01*
X202677Y26283D01*
X203153Y25807D01*
X203737Y25470D01*
X204387Y25295D01*
X205061D01*
X205712Y25470D01*
X206296Y25807D01*
X206772Y26283D01*
X207109Y26867D01*
X207283Y27517D01*
Y28191D01*
X207109Y28842D01*
X206772Y29426D01*
X206296Y29902D01*
X205712Y30239D01*
X205061Y30413D01*
D02*
G37*
G36*
X187739D02*
X187065D01*
X186414Y30239D01*
X185830Y29902D01*
X185354Y29426D01*
X185017Y28842D01*
X184843Y28191D01*
Y27517D01*
X185017Y26867D01*
X185354Y26283D01*
X185830Y25807D01*
X186414Y25470D01*
X187065Y25295D01*
X187739D01*
X188389Y25470D01*
X188973Y25807D01*
X189449Y26283D01*
X189786Y26867D01*
X189961Y27517D01*
Y28191D01*
X189786Y28842D01*
X189449Y29426D01*
X188973Y29902D01*
X188389Y30239D01*
X187739Y30413D01*
D02*
G37*
G36*
X21568Y26433D02*
X21366D01*
Y21602D01*
X26197D01*
Y21804D01*
X25834Y23160D01*
X25132Y24375D01*
X24139Y25368D01*
X22924Y26070D01*
X21568Y26433D01*
D02*
G37*
G36*
X20366D02*
X20164D01*
X18809Y26070D01*
X17593Y25368D01*
X16601Y24375D01*
X15899Y23160D01*
X15535Y21804D01*
Y21602D01*
X20366D01*
Y26433D01*
D02*
G37*
G36*
X110449Y20685D02*
X108374D01*
Y17429D01*
X110449D01*
Y20685D01*
D02*
G37*
G36*
X87614D02*
X85539D01*
Y17429D01*
X87614D01*
Y20685D01*
D02*
G37*
G36*
X107374D02*
X105299D01*
Y17429D01*
X107374D01*
Y20685D01*
D02*
G37*
G36*
X84539D02*
X82465D01*
Y17429D01*
X84539D01*
Y20685D01*
D02*
G37*
G36*
X26197Y20602D02*
X21366D01*
Y15772D01*
X21568D01*
X22924Y16135D01*
X24139Y16837D01*
X25132Y17829D01*
X25834Y19045D01*
X26197Y20401D01*
Y20602D01*
D02*
G37*
G36*
X20366D02*
X15535D01*
Y20401D01*
X15899Y19045D01*
X16601Y17829D01*
X17593Y16837D01*
X18809Y16135D01*
X20164Y15772D01*
X20366D01*
Y20602D01*
D02*
G37*
G36*
X110449Y16429D02*
X108374D01*
Y13173D01*
X110449D01*
Y16429D01*
D02*
G37*
G36*
X107374D02*
X105299D01*
Y13173D01*
X107374D01*
Y16429D01*
D02*
G37*
G36*
X87614D02*
X85539D01*
Y13173D01*
X87614D01*
Y16429D01*
D02*
G37*
G36*
X84539D02*
X82465D01*
Y13173D01*
X84539D01*
Y16429D01*
D02*
G37*
G36*
X218110Y22146D02*
X208661D01*
Y10728D01*
X218110D01*
Y22146D01*
D02*
G37*
G36*
X183465D02*
X174016D01*
Y10728D01*
X183465D01*
Y22146D01*
D02*
G37*
%LPD*%
G36*
X142913Y194882D02*
Y193913D01*
X141839D01*
Y190157D01*
Y186402D01*
X142913D01*
Y183071D01*
X143307Y182677D01*
X142126Y181496D01*
X125984D01*
X120866Y186614D01*
X120472D01*
Y192520D01*
X124803Y196850D01*
X140945D01*
X142913Y194882D01*
D02*
G37*
%LPC*%
G36*
X130815Y193647D02*
Y190657D01*
X133804D01*
X133576Y191508D01*
X133116Y192306D01*
X132464Y192958D01*
X131666Y193419D01*
X130815Y193647D01*
D02*
G37*
G36*
X129815D02*
X128964Y193419D01*
X128166Y192958D01*
X127514Y192306D01*
X127053Y191508D01*
X126825Y190657D01*
X129815D01*
Y193647D01*
D02*
G37*
G36*
X140839Y193913D02*
X138764D01*
Y190657D01*
X140839D01*
Y193913D01*
D02*
G37*
G36*
X133804Y189657D02*
X130815D01*
Y186668D01*
X131666Y186896D01*
X132464Y187357D01*
X133116Y188008D01*
X133576Y188806D01*
X133804Y189657D01*
D02*
G37*
G36*
X129815D02*
X126825D01*
X127053Y188806D01*
X127514Y188008D01*
X128166Y187357D01*
X128964Y186896D01*
X129815Y186668D01*
Y189657D01*
D02*
G37*
G36*
X140839D02*
X138764D01*
Y186402D01*
X140839D01*
Y189657D01*
D02*
G37*
%LPD*%
G36*
X134252Y100000D02*
Y96457D01*
X131496Y93701D01*
X127847D01*
X127713Y94201D01*
X128133Y94443D01*
X128785Y95095D01*
X129246Y95893D01*
X129474Y96744D01*
X122495D01*
X122723Y95893D01*
X123184Y95095D01*
X123835Y94443D01*
X124255Y94201D01*
X124121Y93701D01*
X121260D01*
X119791Y92232D01*
X119291Y92248D01*
Y92248D01*
X117709D01*
Y88295D01*
X116709D01*
Y92248D01*
X116142D01*
Y95276D01*
X122193Y101327D01*
X132925D01*
X134252Y100000D01*
D02*
G37*
G36*
X115130Y91236D02*
X112988D01*
X113017Y91256D01*
X113044Y91316D01*
X113067Y91416D01*
X113086Y91556D01*
X113117Y91956D01*
X113142Y93236D01*
X115142D01*
X115130Y91236D01*
D02*
G37*
G36*
X111980D02*
X109839D01*
X109852Y91256D01*
X109864Y91316D01*
X109875Y91416D01*
X109892Y91736D01*
X109909Y93236D01*
X111909D01*
X111980Y91236D01*
D02*
G37*
G36*
X156403Y87492D02*
X156418Y87374D01*
X156432Y87177D01*
X156475Y84343D01*
X156476Y83595D01*
X152539D01*
X152535Y84343D01*
X152374Y86902D01*
X152314Y87177D01*
X152245Y87374D01*
X152166Y87492D01*
X152079Y87532D01*
X156386D01*
X156403Y87492D01*
D02*
G37*
G36*
X132772Y71870D02*
X132752Y71884D01*
X132692Y71896D01*
X132592Y71906D01*
X132272Y71923D01*
X130772Y71941D01*
Y73941D01*
X132772Y74012D01*
Y71870D01*
D02*
G37*
G36*
X84107Y74116D02*
X84099Y74019D01*
X84078Y73054D01*
X84071Y71158D01*
X82071D01*
X82026Y74154D01*
X84115D01*
X84107Y74116D01*
D02*
G37*
G36*
X104815Y70849D02*
X104875Y70837D01*
X104975Y70826D01*
X105295Y70809D01*
X106795Y70791D01*
Y68791D01*
X104795Y68721D01*
Y70862D01*
X104815Y70849D01*
D02*
G37*
G36*
X94668Y71652D02*
X94668Y71652D01*
X95259Y71257D01*
X95957Y71118D01*
X97902D01*
Y70291D01*
X101854D01*
Y69291D01*
X97902D01*
Y68358D01*
X91261D01*
X91261Y68358D01*
X90564Y68219D01*
X89972Y67824D01*
X89972Y67824D01*
X86682Y64534D01*
X86221Y64726D01*
Y68504D01*
X84893D01*
Y71653D01*
X85433D01*
Y73181D01*
X93139D01*
X94668Y71652D01*
D02*
G37*
G36*
X104815Y67693D02*
X104875Y67676D01*
X104975Y67660D01*
X105115Y67647D01*
X105775Y67619D01*
X106795Y67610D01*
Y65610D01*
X104795Y65571D01*
Y67712D01*
X104815Y67693D01*
D02*
G37*
G36*
X132772Y62422D02*
X132752Y62429D01*
X132692Y62436D01*
X132452Y62446D01*
X130772Y62461D01*
Y64461D01*
X132772Y64563D01*
Y62422D01*
D02*
G37*
G36*
X98914D02*
X98894Y62435D01*
X98835Y62447D01*
X98738Y62458D01*
X98424Y62475D01*
X96957Y62492D01*
Y64492D01*
X98914Y64563D01*
Y62422D01*
D02*
G37*
G36*
X138673Y64534D02*
X138733Y64508D01*
X138833Y64485D01*
X138973Y64465D01*
X139373Y64434D01*
X140653Y64409D01*
Y62409D01*
X138653Y62422D01*
Y64563D01*
X138673Y64534D01*
D02*
G37*
G36*
X85085Y63394D02*
X85127Y63096D01*
X85198Y62867D01*
X85297Y62706D01*
X85424Y62613D01*
X85580Y62589D01*
X85764Y62633D01*
X85976Y62745D01*
X86216Y62925D01*
X86485Y63174D01*
X86280Y62848D01*
X87634Y61494D01*
X85547Y59344D01*
X84641Y60250D01*
X84071Y59345D01*
X84307Y60389D01*
X83026D01*
X83035Y60427D01*
X83042Y60523D01*
X83064Y61488D01*
X83071Y63384D01*
X84986D01*
X85071Y63759D01*
X85085Y63394D01*
D02*
G37*
G36*
X52619Y42814D02*
X51824Y41932D01*
X51848Y41909D01*
X51806Y41893D01*
X51765Y41867D01*
X51398Y41460D01*
X51346Y41511D01*
X50493Y40688D01*
X48405Y42776D01*
X49200Y43658D01*
X49176Y43682D01*
X49218Y43698D01*
X49258Y43724D01*
X49625Y44131D01*
X49677Y44079D01*
X50531Y44902D01*
X52619Y42814D01*
D02*
G37*
G36*
X24180Y43932D02*
X24427Y43751D01*
X24699Y43592D01*
X24997Y43453D01*
X25321Y43337D01*
X25670Y43241D01*
X26044Y43167D01*
X26445Y43113D01*
X26871Y43082D01*
X27322Y43071D01*
Y39134D01*
X26871Y39123D01*
X26044Y39038D01*
X25670Y38964D01*
X25321Y38868D01*
X24997Y38751D01*
X24699Y38613D01*
X24427Y38454D01*
X24180Y38273D01*
X23959Y38071D01*
Y44134D01*
X24180Y43932D01*
D02*
G37*
G36*
X115218Y33720D02*
X113129D01*
X113137Y33759D01*
X113145Y33855D01*
X113166Y34820D01*
X113173Y36716D01*
X115173D01*
X115218Y33720D01*
D02*
G37*
%LPC*%
G36*
X126484Y100734D02*
Y97744D01*
X129474D01*
X129246Y98595D01*
X128785Y99393D01*
X128133Y100045D01*
X127335Y100506D01*
X126484Y100734D01*
D02*
G37*
G36*
X125484D02*
X124633Y100506D01*
X123835Y100045D01*
X123184Y99393D01*
X122723Y98595D01*
X122495Y97744D01*
X125484D01*
Y100734D01*
D02*
G37*
%LPD*%
G36*
X195504Y107381D02*
X193981Y105858D01*
X193959Y105900D01*
X193896Y105982D01*
X193792Y106103D01*
X192290Y107657D01*
X191894Y108054D01*
X193308Y109468D01*
X195504Y107381D01*
D02*
G37*
G36*
X44353Y115371D02*
X44173Y115342D01*
X43999Y115304D01*
X43831Y115255D01*
X43670Y115197D01*
X43514Y115130D01*
X43365Y115052D01*
X43223Y114965D01*
X43087Y114869D01*
X42957Y114763D01*
X42833Y114647D01*
X41419Y116061D01*
X41535Y116185D01*
X41641Y116315D01*
X41737Y116451D01*
X41824Y116594D01*
X41901Y116743D01*
X41969Y116898D01*
X42027Y117059D01*
X42075Y117227D01*
X42114Y117401D01*
X42143Y117581D01*
X44353Y115371D01*
D02*
G37*
G36*
X80102Y143913D02*
X84365Y139651D01*
X84174Y139189D01*
X81602D01*
Y135539D01*
X86394D01*
Y136969D01*
X86856Y137160D01*
X90334Y133682D01*
Y102580D01*
X88976Y100394D01*
X82890Y100394D01*
Y102256D01*
X78347D01*
X73803D01*
Y100394D01*
X71153D01*
Y143913D01*
X80102Y143913D01*
D02*
G37*
%LPC*%
G36*
X80602Y139189D02*
X75811D01*
Y135539D01*
X80602D01*
Y139189D01*
D02*
G37*
G36*
X86394Y134539D02*
X81602D01*
Y130890D01*
X86394D01*
Y134539D01*
D02*
G37*
G36*
X80602D02*
X75811D01*
Y130890D01*
X80602D01*
Y134539D01*
D02*
G37*
G36*
X81209Y120419D02*
Y117429D01*
X84198D01*
X83970Y118280D01*
X83509Y119078D01*
X82858Y119730D01*
X82060Y120191D01*
X81209Y120419D01*
D02*
G37*
G36*
X80209D02*
X79358Y120191D01*
X78560Y119730D01*
X77908Y119078D01*
X77447Y118280D01*
X77219Y117429D01*
X80209D01*
Y120419D01*
D02*
G37*
G36*
X84198Y116429D02*
X81209D01*
Y113440D01*
X82060Y113668D01*
X82858Y114128D01*
X83509Y114780D01*
X83970Y115578D01*
X84198Y116429D01*
D02*
G37*
G36*
X80209D02*
X77219D01*
X77447Y115578D01*
X77908Y114780D01*
X78560Y114128D01*
X79358Y113668D01*
X80209Y113440D01*
Y116429D01*
D02*
G37*
G36*
X82890Y106118D02*
X78847D01*
Y103256D01*
X82890D01*
Y106118D01*
D02*
G37*
G36*
X77846D02*
X73803D01*
Y103256D01*
X77846D01*
Y106118D01*
D02*
G37*
%LPD*%
D17*
X114173Y32677D02*
D03*
X78740D02*
D03*
D18*
X133858Y134646D02*
D03*
X143307D02*
D03*
X159055Y111024D02*
D03*
X168504D02*
D03*
X50787Y117323D02*
D03*
X60236D02*
D03*
X154508Y79866D02*
D03*
X145059D02*
D03*
D19*
X150000Y117717D02*
D03*
Y111417D02*
D03*
X210630Y144488D02*
D03*
Y138189D02*
D03*
Y105905D02*
D03*
Y112205D02*
D03*
X155118Y66929D02*
D03*
Y60630D02*
D03*
X146457Y53543D02*
D03*
Y47244D02*
D03*
D20*
X154232Y90866D02*
D03*
X144783D02*
D03*
X32677Y117323D02*
D03*
X42126D02*
D03*
D21*
X51575Y95669D02*
D03*
Y86614D02*
D03*
D22*
X28740D02*
D03*
D23*
X51575Y77559D02*
D03*
D24*
X61417Y107480D02*
D03*
X55118D02*
D03*
X41732Y60630D02*
D03*
X35433D02*
D03*
X141339Y190157D02*
D03*
X147638D02*
D03*
X78740Y16929D02*
D03*
X85039D02*
D03*
X76772Y75197D02*
D03*
X83071D02*
D03*
X83858Y64961D02*
D03*
X77559D02*
D03*
X107874Y16929D02*
D03*
X114173D02*
D03*
D25*
X189764Y38091D02*
D03*
X192913D02*
D03*
X196063D02*
D03*
X199213D02*
D03*
X202362D02*
D03*
D26*
X178740D02*
D03*
X213386D02*
D03*
Y16437D02*
D03*
X178740D02*
D03*
D27*
X138406Y173819D02*
D03*
X143405D02*
D03*
X173406Y152165D02*
D03*
X168405Y173819D02*
D03*
Y152165D02*
D03*
X158405D02*
D03*
X173406Y173819D02*
D03*
X163406Y152165D02*
D03*
Y173819D02*
D03*
X158405D02*
D03*
X148406D02*
D03*
X153405Y152165D02*
D03*
X148406D02*
D03*
X138406D02*
D03*
X153405Y173819D02*
D03*
X143405Y152165D02*
D03*
D28*
X126772Y118898D02*
D03*
Y109449D02*
D03*
X138583Y118898D02*
D03*
Y109449D02*
D03*
X78347Y102756D02*
D03*
Y93307D02*
D03*
D29*
X192520Y109055D02*
D03*
Y144488D02*
D03*
D30*
X101854Y82390D02*
D03*
Y79240D02*
D03*
Y76091D02*
D03*
Y72941D02*
D03*
Y69791D02*
D03*
Y66642D02*
D03*
Y63492D02*
D03*
Y60343D02*
D03*
X135713D02*
D03*
Y63492D02*
D03*
Y66642D02*
D03*
Y69791D02*
D03*
Y72941D02*
D03*
Y76091D02*
D03*
Y79240D02*
D03*
Y82390D02*
D03*
D31*
X107760Y54437D02*
D03*
X110909D02*
D03*
X114059D02*
D03*
X117209D02*
D03*
X120358D02*
D03*
X123508D02*
D03*
X126657D02*
D03*
X129807D02*
D03*
Y88295D02*
D03*
X126657D02*
D03*
X123508D02*
D03*
X120358D02*
D03*
X117209D02*
D03*
X114059D02*
D03*
X110909D02*
D03*
X107760D02*
D03*
D32*
X81102Y135039D02*
D03*
X111811D02*
D03*
D51*
X147835Y187736D02*
X148406Y187165D01*
X147638Y188976D02*
X147835Y188779D01*
X153405Y173819D02*
Y179892D01*
X148406Y184892D02*
X153405Y179892D01*
X148406Y184892D02*
Y187165D01*
X147835Y187736D02*
Y188779D01*
X147638Y188976D02*
Y190157D01*
X60827Y108071D02*
Y116732D01*
X168504Y81496D02*
X196063Y53937D01*
X163661Y81221D02*
X192913Y51968D01*
D52*
X173268Y150787D02*
X173425D01*
X178209Y144488D02*
X192520D01*
X173626Y149071D02*
Y150587D01*
X173425Y150787D02*
X173626Y150587D01*
Y149071D02*
X178209Y144488D01*
X112311Y72941D02*
X135713D01*
X101854Y69791D02*
X109161D01*
X112311Y72941D01*
X111024Y44882D02*
X114173Y41732D01*
X96457Y48819D02*
X100394Y44882D01*
X111024D01*
X114173Y32677D02*
Y41732D01*
X77925Y29555D02*
Y44461D01*
Y29555D02*
X78740Y28740D01*
X136614Y103150D02*
X138583Y105118D01*
X114142Y97213D02*
X120079Y103150D01*
X136614D01*
X192520Y108843D02*
Y109055D01*
Y108843D02*
X195457Y105905D01*
X114173Y16929D02*
X114764D01*
X114173Y19291D02*
X114764Y18701D01*
X143710Y69512D02*
X146293Y66929D01*
X154331D01*
X138613Y69512D02*
X143710D01*
X138417Y69709D02*
X138613Y69512D01*
X135795Y69709D02*
X138417D01*
X135713Y69791D02*
X135795Y69709D01*
Y63409D02*
X143577D01*
X84071Y59345D02*
Y65173D01*
X143577Y63409D02*
X147158Y59829D01*
Y53543D02*
Y59829D01*
X135713Y63492D02*
X135795Y63409D01*
X42126Y115354D02*
X44094Y117323D01*
X83646Y75004D02*
X93894D01*
X83284Y65535D02*
Y67676D01*
X83071Y67888D02*
X83284Y67676D01*
X83071Y67888D02*
Y75197D01*
X83284Y65535D02*
X83858Y64961D01*
X84071Y59345D02*
X91261Y66535D01*
X101748D01*
X114142Y88378D02*
Y97213D01*
X120866Y109449D02*
X126772D01*
X110909Y88295D02*
Y99492D01*
X120866Y109449D01*
X143307Y152067D02*
X143405Y152165D01*
X143307Y147244D02*
Y152067D01*
X138583Y118898D02*
Y142520D01*
X143307Y147244D01*
X148406Y140925D02*
Y152165D01*
X143307Y134646D02*
Y135827D01*
X148406Y140925D01*
X131102Y134252D02*
X133465D01*
X133858Y134646D01*
X126772Y118898D02*
Y129921D01*
X131102Y134252D01*
X179134Y116929D02*
Y138563D01*
Y116929D02*
X186754Y109309D01*
X168268Y149429D02*
X179134Y138563D01*
X138583Y105118D02*
Y109449D01*
X114059Y88295D02*
X114142Y88378D01*
X192266Y109309D02*
X192520Y109055D01*
X186754Y109309D02*
X192266D01*
X168268Y149429D02*
Y150787D01*
X96457Y48819D02*
Y56815D01*
X115279Y66610D02*
X118429Y63461D01*
X135681D01*
X101886Y66610D02*
X115279D01*
X135681Y63461D02*
X135713Y63492D01*
X101854Y66642D02*
X101886Y66610D01*
X95957Y72941D02*
X101854D01*
X93894Y75004D02*
X95957Y72941D01*
X101748Y66535D02*
X101854Y66642D01*
X96457Y56815D02*
X99984Y60343D01*
X135713Y79240D02*
X144433D01*
X145059Y79866D01*
X99984Y60343D02*
X101854D01*
X96957Y63492D02*
X101854D01*
X77925Y44461D02*
X96957Y63492D01*
D53*
X60236Y117323D02*
X60827Y116732D01*
Y108071D02*
X61417Y107480D01*
X61417Y107480D02*
X61417Y107480D01*
X165459Y51050D02*
X182344D01*
X161654Y47244D02*
X165459Y51050D01*
X188611Y44783D02*
X188611D01*
X182344Y51050D02*
X188611Y44783D01*
X188611D02*
X189764Y43630D01*
Y37203D02*
Y43630D01*
X192913Y38383D02*
Y51968D01*
X196063Y38091D02*
Y53937D01*
X163661Y81221D02*
Y129134D01*
X168504Y81496D02*
Y111024D01*
X51575Y86614D02*
X53839D01*
X61417Y94193D02*
Y107480D01*
X53839Y86614D02*
X61417Y94193D01*
X151181Y160630D02*
X153405Y158405D01*
X151181Y117717D02*
X153405Y119941D01*
X150000Y117717D02*
X151181D01*
X153405Y119941D02*
Y152165D01*
Y158405D01*
X163406Y129390D02*
Y152165D01*
Y129390D02*
X163661Y129134D01*
X158405Y129390D02*
X158858Y128937D01*
X158405Y129390D02*
Y152165D01*
X158858Y111221D02*
Y128937D01*
Y111221D02*
X159055Y111024D01*
D54*
X44731Y46794D02*
Y57237D01*
X22145Y41102D02*
X25530Y44488D01*
X20866Y41102D02*
X22145D01*
X25530Y44488D02*
X42425D01*
X44731Y46794D01*
X42126Y59842D02*
X44731Y57237D01*
X41732Y60630D02*
X42126Y60236D01*
Y59842D02*
Y60236D01*
X20866Y41102D02*
X48819D01*
X49449Y41732D01*
X53150Y9449D02*
X148481D01*
X21890Y40709D02*
X53150Y9449D01*
X51772Y173819D02*
X138406D01*
X51575Y43858D02*
Y77559D01*
X44094Y117323D02*
X50787D01*
X148481Y9449D02*
X150787Y11755D01*
Y36378D01*
X161654Y47244D01*
X154508Y79866D02*
Y90591D01*
X154232Y90866D02*
X154508Y90591D01*
D55*
X14961Y46220D02*
X20472Y40709D01*
X14961Y46220D02*
Y137008D01*
X51772Y173819D01*
D56*
X49449Y40709D02*
X52520D01*
X49449Y41732D02*
X51575Y43858D01*
X75907Y51181D02*
X84071Y59345D01*
X52520Y40709D02*
X62992Y51181D01*
X75907D01*
X60236Y117323D02*
Y141339D01*
X79528Y160630D01*
X83071Y75197D02*
Y82677D01*
X78347Y87402D02*
X83071Y82677D01*
X78347Y87402D02*
Y93307D01*
X195457Y105905D02*
X210630D01*
X192520Y144488D02*
X210630D01*
X78740Y16929D02*
Y28740D01*
X114173Y19291D02*
Y32677D01*
D57*
X79528Y160630D02*
X151181D01*
D58*
X157874Y198423D02*
Y191863D01*
X159186Y190551D01*
X161810D01*
X163122Y191863D01*
Y198423D01*
X165745Y190551D02*
Y195799D01*
X168369Y198423D01*
X170993Y195799D01*
Y190551D01*
Y194487D01*
X165745D01*
X173617Y190551D02*
Y198423D01*
X177553D01*
X178865Y197111D01*
Y194487D01*
X177553Y193175D01*
X173617D01*
X176241D02*
X178865Y190551D01*
X181488Y198423D02*
X186736D01*
X184112D01*
Y190551D01*
X189360Y194487D02*
X194608D01*
X197231Y190551D02*
X201167Y194487D01*
X197231Y198423D01*
X203791D02*
Y191863D01*
X205103Y190551D01*
X207727D01*
X209039Y191863D01*
Y198423D01*
X216910Y197111D02*
X215598Y198423D01*
X212974D01*
X211662Y197111D01*
Y195799D01*
X212974Y194487D01*
X215598D01*
X216910Y193175D01*
Y191863D01*
X215598Y190551D01*
X212974D01*
X211662Y191863D01*
X219534Y198423D02*
Y190551D01*
X223470D01*
X224782Y191863D01*
Y193175D01*
X223470Y194487D01*
X219534D01*
X223470D01*
X224782Y195799D01*
Y197111D01*
X223470Y198423D01*
X219534D01*
D59*
X187402Y27854D02*
D03*
X204724D02*
D03*
D60*
X20866Y21102D02*
D03*
Y41102D02*
D03*
D61*
X80709Y116929D02*
D03*
X130315Y190157D02*
D03*
X125984Y97244D02*
D03*
M02*
