G04*
G04 #@! TF.GenerationSoftware,Altium Limited,Altium Designer,22.9.1 (49)*
G04*
G04 Layer_Color=16711935*
%FSLAX25Y25*%
%MOIN*%
G70*
G04*
G04 #@! TF.SameCoordinates,5637A8B9-9DC4-41E7-96B4-60DE8AE1DB3B*
G04*
G04*
G04 #@! TF.FilePolarity,Negative*
G04*
G01*
G75*
%ADD62C,0.08268*%
%ADD63O,0.02769X0.01981*%
%ADD64O,0.02375X0.01981*%
%ADD65C,0.08674*%
%ADD66R,0.06706X0.06706*%
%ADD67C,0.06706*%
%ADD68C,0.09055*%
%ADD69C,0.02375*%
%ADD70C,0.04737*%
%ADD71C,0.03162*%
%ADD72C,0.12611*%
%ADD73C,0.05800*%
%ADD74C,0.24422*%
D62*
X44094Y32126D02*
D03*
Y110866D02*
D03*
X53425Y307323D02*
D03*
Y327008D02*
D03*
X175787Y124528D02*
D03*
X185787D02*
D03*
X195787D02*
D03*
X205787D02*
D03*
D63*
X118276Y344949D02*
D03*
X125500D02*
D03*
X114663Y341337D02*
D03*
X129112D02*
D03*
X118276Y337724D02*
D03*
X125500D02*
D03*
X114663Y334112D02*
D03*
X121888D02*
D03*
X129112D02*
D03*
X118276Y330500D02*
D03*
X125500D02*
D03*
D64*
X121888Y341337D02*
D03*
D65*
X159095Y182717D02*
D03*
Y202716D02*
D03*
Y212717D02*
D03*
Y222716D02*
D03*
Y172716D02*
D03*
Y192717D02*
D03*
X138500Y55500D02*
D03*
Y65500D02*
D03*
Y75500D02*
D03*
Y85500D02*
D03*
Y95500D02*
D03*
Y105500D02*
D03*
D66*
X94055Y7598D02*
D03*
D67*
Y17598D02*
D03*
X104055Y7598D02*
D03*
Y17598D02*
D03*
X114055Y7598D02*
D03*
Y17598D02*
D03*
X124055Y7598D02*
D03*
Y17598D02*
D03*
X134055Y7598D02*
D03*
Y17598D02*
D03*
X85630Y267165D02*
D03*
X69646Y354370D02*
D03*
D68*
X15000Y322000D02*
D03*
Y342000D02*
D03*
D69*
X34291Y208898D02*
D03*
X120472Y206181D02*
D03*
X111496Y188937D02*
D03*
X110433Y164331D02*
D03*
X110079Y147283D02*
D03*
X110787Y127598D02*
D03*
X116063Y109646D02*
D03*
X103779Y108937D02*
D03*
X90748Y109291D02*
D03*
X79488Y108780D02*
D03*
X76823Y221406D02*
D03*
X168150Y382638D02*
D03*
X74882Y389134D02*
D03*
X174134Y374252D02*
D03*
X183661Y282874D02*
D03*
X218858Y189409D02*
D03*
X211575Y171850D02*
D03*
X211850Y157283D02*
D03*
X199803Y237874D02*
D03*
X192913Y228976D02*
D03*
X185866Y221614D02*
D03*
X88228Y246260D02*
D03*
X77402Y245984D02*
D03*
X100855Y246909D02*
D03*
X142441Y240433D02*
D03*
X158228Y241142D02*
D03*
X125709Y240709D02*
D03*
X54134Y296969D02*
D03*
X64213Y305157D02*
D03*
X35945Y300787D02*
D03*
X85630Y133701D02*
D03*
X2244Y106457D02*
D03*
Y89606D02*
D03*
X2795Y77244D02*
D03*
X2520Y59842D02*
D03*
X1693Y44134D02*
D03*
X1417Y30945D02*
D03*
X235354Y316535D02*
D03*
X234173Y295905D02*
D03*
Y271457D02*
D03*
X233189Y254606D02*
D03*
X234173Y237559D02*
D03*
X233465Y219764D02*
D03*
X145000Y105276D02*
D03*
X138347Y111575D02*
D03*
X132953Y105197D02*
D03*
X69134Y331811D02*
D03*
X68740Y319016D02*
D03*
X68858Y309724D02*
D03*
X58583Y300866D02*
D03*
X49331Y292559D02*
D03*
X48189Y271890D02*
D03*
X48622Y262480D02*
D03*
X55343Y236350D02*
D03*
X33728Y236705D02*
D03*
X19016Y237362D02*
D03*
X205945Y258819D02*
D03*
X187008Y259016D02*
D03*
X83701Y377559D02*
D03*
X122953Y35669D02*
D03*
X65394Y5906D02*
D03*
X69252Y36299D02*
D03*
X175591Y8701D02*
D03*
X175157Y35669D02*
D03*
X229095Y53622D02*
D03*
X231457Y84882D02*
D03*
X189055Y70315D02*
D03*
X204252Y87008D02*
D03*
X216260Y103504D02*
D03*
X233780Y100079D02*
D03*
X233583Y123583D02*
D03*
X232716Y153976D02*
D03*
X232283Y171732D02*
D03*
X232087Y203858D02*
D03*
X211339Y363347D02*
D03*
X232323Y349410D02*
D03*
X3583Y361181D02*
D03*
X4134Y334016D02*
D03*
X5866Y272480D02*
D03*
X6654Y218110D02*
D03*
X67547Y214050D02*
D03*
X72492Y217941D02*
D03*
X62862Y209067D02*
D03*
X57638Y204921D02*
D03*
X52992Y200905D02*
D03*
D70*
X142520Y258701D02*
D03*
X90669Y52716D02*
D03*
X47717D02*
D03*
X43504Y20433D02*
D03*
X121299Y53228D02*
D03*
X159724Y52480D02*
D03*
X197165Y52716D02*
D03*
X75315Y124803D02*
D03*
X124646Y258819D02*
D03*
X133041Y258977D02*
D03*
X151535Y258898D02*
D03*
X167008Y213189D02*
D03*
X174764Y212992D02*
D03*
X182205Y212677D02*
D03*
X196181Y249252D02*
D03*
X28268Y350354D02*
D03*
X32638Y371299D02*
D03*
X14921Y352323D02*
D03*
D71*
X222130Y5051D02*
D03*
Y23122D02*
D03*
X231106Y14028D02*
D03*
X213350D02*
D03*
X14110Y4850D02*
D03*
Y22921D02*
D03*
X23087Y13827D02*
D03*
X5331D02*
D03*
X13909Y370350D02*
D03*
Y388421D02*
D03*
X22886Y379327D02*
D03*
X5130D02*
D03*
X213150Y379528D02*
D03*
X230906D02*
D03*
X221929Y388622D02*
D03*
Y370551D02*
D03*
D72*
X52362Y165748D02*
D03*
D73*
X84646Y327205D02*
D03*
X91260Y285984D02*
D03*
X40748Y282874D02*
D03*
X68189Y345354D02*
D03*
D74*
X14201Y14000D02*
D03*
X222220Y14201D02*
D03*
X222020Y379701D02*
D03*
X14000Y379500D02*
D03*
M02*
