G04*
G04 #@! TF.GenerationSoftware,Altium Limited,Altium Designer,22.9.1 (49)*
G04*
G04 Layer_Physical_Order=1*
G04 Layer_Color=255*
%FSLAX25Y25*%
%MOIN*%
G70*
G04*
G04 #@! TF.SameCoordinates,5637A8B9-9DC4-41E7-96B4-60DE8AE1DB3B*
G04*
G04*
G04 #@! TF.FilePolarity,Positive*
G04*
G01*
G75*
%ADD15C,0.01000*%
G04:AMPARAMS|DCode=16|XSize=78.74mil|YSize=118.11mil|CornerRadius=19.68mil|HoleSize=0mil|Usage=FLASHONLY|Rotation=180.000|XOffset=0mil|YOffset=0mil|HoleType=Round|Shape=RoundedRectangle|*
%AMROUNDEDRECTD16*
21,1,0.07874,0.07874,0,0,180.0*
21,1,0.03937,0.11811,0,0,180.0*
1,1,0.03937,-0.01968,0.03937*
1,1,0.03937,0.01968,0.03937*
1,1,0.03937,0.01968,-0.03937*
1,1,0.03937,-0.01968,-0.03937*
%
%ADD16ROUNDEDRECTD16*%
G04:AMPARAMS|DCode=17|XSize=59.06mil|YSize=157.48mil|CornerRadius=14.76mil|HoleSize=0mil|Usage=FLASHONLY|Rotation=0.000|XOffset=0mil|YOffset=0mil|HoleType=Round|Shape=RoundedRectangle|*
%AMROUNDEDRECTD17*
21,1,0.05906,0.12795,0,0,0.0*
21,1,0.02953,0.15748,0,0,0.0*
1,1,0.02953,0.01476,-0.06398*
1,1,0.02953,-0.01476,-0.06398*
1,1,0.02953,-0.01476,0.06398*
1,1,0.02953,0.01476,0.06398*
%
%ADD17ROUNDEDRECTD17*%
G04:AMPARAMS|DCode=18|XSize=78.74mil|YSize=118.11mil|CornerRadius=19.68mil|HoleSize=0mil|Usage=FLASHONLY|Rotation=90.000|XOffset=0mil|YOffset=0mil|HoleType=Round|Shape=RoundedRectangle|*
%AMROUNDEDRECTD18*
21,1,0.07874,0.07874,0,0,90.0*
21,1,0.03937,0.11811,0,0,90.0*
1,1,0.03937,0.03937,0.01968*
1,1,0.03937,0.03937,-0.01968*
1,1,0.03937,-0.03937,-0.01968*
1,1,0.03937,-0.03937,0.01968*
%
%ADD18ROUNDEDRECTD18*%
G04:AMPARAMS|DCode=19|XSize=59.06mil|YSize=157.48mil|CornerRadius=14.76mil|HoleSize=0mil|Usage=FLASHONLY|Rotation=270.000|XOffset=0mil|YOffset=0mil|HoleType=Round|Shape=RoundedRectangle|*
%AMROUNDEDRECTD19*
21,1,0.05906,0.12795,0,0,270.0*
21,1,0.02953,0.15748,0,0,270.0*
1,1,0.02953,-0.06398,-0.01476*
1,1,0.02953,-0.06398,0.01476*
1,1,0.02953,0.06398,0.01476*
1,1,0.02953,0.06398,-0.01476*
%
%ADD19ROUNDEDRECTD19*%
%ADD20R,0.03150X0.03937*%
G04:AMPARAMS|DCode=21|XSize=74.8mil|YSize=132.68mil|CornerRadius=2.62mil|HoleSize=0mil|Usage=FLASHONLY|Rotation=135.000|XOffset=0mil|YOffset=0mil|HoleType=Round|Shape=RoundedRectangle|*
%AMROUNDEDRECTD21*
21,1,0.07480,0.12744,0,0,135.0*
21,1,0.06957,0.13268,0,0,135.0*
1,1,0.00524,0.02046,0.06965*
1,1,0.00524,0.06965,0.02046*
1,1,0.00524,-0.02046,-0.06965*
1,1,0.00524,-0.06965,-0.02046*
%
%ADD21ROUNDEDRECTD21*%
%ADD22R,0.06299X0.08583*%
%ADD23R,0.05512X0.03150*%
%ADD24R,0.07087X0.04724*%
%ADD25R,0.07874X0.03543*%
%ADD26R,0.03543X0.07874*%
%ADD27R,0.05236X0.05236*%
%ADD28R,0.04724X0.07087*%
%ADD29R,0.06693X0.04331*%
%ADD30R,0.03937X0.07874*%
%ADD31R,0.08858X0.07874*%
%ADD32R,0.04331X0.06693*%
%ADD33R,0.03150X0.05512*%
%ADD34R,0.07087X0.09843*%
G04:AMPARAMS|DCode=35|XSize=74.8mil|YSize=132.68mil|CornerRadius=2.62mil|HoleSize=0mil|Usage=FLASHONLY|Rotation=0.000|XOffset=0mil|YOffset=0mil|HoleType=Round|Shape=RoundedRectangle|*
%AMROUNDEDRECTD35*
21,1,0.07480,0.12744,0,0,0.0*
21,1,0.06957,0.13268,0,0,0.0*
1,1,0.00524,0.03478,-0.06372*
1,1,0.00524,-0.03478,-0.06372*
1,1,0.00524,-0.03478,0.06372*
1,1,0.00524,0.03478,0.06372*
%
%ADD35ROUNDEDRECTD35*%
G04:AMPARAMS|DCode=36|XSize=74.8mil|YSize=132.68mil|CornerRadius=2.62mil|HoleSize=0mil|Usage=FLASHONLY|Rotation=45.000|XOffset=0mil|YOffset=0mil|HoleType=Round|Shape=RoundedRectangle|*
%AMROUNDEDRECTD36*
21,1,0.07480,0.12744,0,0,45.0*
21,1,0.06957,0.13268,0,0,45.0*
1,1,0.00524,0.06965,-0.02046*
1,1,0.00524,0.02046,-0.06965*
1,1,0.00524,-0.06965,0.02046*
1,1,0.00524,-0.02046,0.06965*
%
%ADD36ROUNDEDRECTD36*%
%ADD37R,0.05906X0.01968*%
%ADD38R,0.08465X0.12795*%
%ADD39R,0.08465X0.03740*%
%ADD75C,0.03150*%
%ADD76C,0.03937*%
%ADD77C,0.02362*%
%ADD78C,0.02953*%
%ADD79C,0.01968*%
%ADD80C,0.04921*%
%ADD81C,0.04882*%
%ADD82C,0.07874*%
%ADD83C,0.06890*%
%ADD84C,0.04945*%
%ADD85C,0.02205*%
%ADD86C,0.03543*%
%ADD87C,0.07874*%
%ADD88O,0.01968X0.01181*%
%ADD89O,0.01575X0.01181*%
%ADD90R,0.05906X0.05906*%
%ADD91C,0.05906*%
%ADD92C,0.08661*%
%ADD93C,0.01575*%
%ADD94C,0.03937*%
%ADD95C,0.02362*%
%ADD96C,0.11811*%
%ADD97C,0.05000*%
%ADD98C,0.23622*%
G36*
X53006Y394866D02*
X52958Y394804D01*
X52659Y394082D01*
X52557Y393307D01*
Y385433D01*
X52659Y384658D01*
X52958Y383936D01*
X53434Y383316D01*
X54054Y382840D01*
X54776Y382541D01*
X55551Y382439D01*
X55850D01*
X55993Y382253D01*
X56613Y381777D01*
X57335Y381478D01*
X58110Y381376D01*
X62047D01*
X62822Y381478D01*
X62858Y381493D01*
X63252Y381115D01*
Y376541D01*
X59773Y373062D01*
X59773Y373062D01*
X55127Y368416D01*
X54651Y367796D01*
X54470Y367358D01*
X53529D01*
Y378130D01*
X53337Y379096D01*
X52789Y379915D01*
X51970Y380463D01*
X51004Y380655D01*
X48051D01*
X47085Y380463D01*
X46266Y379915D01*
X45871Y379325D01*
X45288Y379299D01*
X44955Y379797D01*
X44135Y380345D01*
X43169Y380537D01*
X42193D01*
Y371614D01*
Y362692D01*
X43169D01*
X44135Y362884D01*
X44955Y363431D01*
X45349Y364021D01*
X45933Y364048D01*
X46266Y363549D01*
X47085Y363002D01*
X47518Y362916D01*
Y362779D01*
X47620Y362004D01*
X47919Y361282D01*
X48395Y360662D01*
X49717Y359339D01*
X49826Y359256D01*
X49656Y358756D01*
X49512D01*
Y358551D01*
X41801D01*
Y355827D01*
X46142D01*
X46293Y355327D01*
X46145Y355228D01*
X45172Y354255D01*
X45069Y354234D01*
X44250Y353687D01*
X43777Y353214D01*
X43406D01*
X43161Y353165D01*
X35933D01*
Y350197D01*
Y347228D01*
X45882D01*
Y348017D01*
X47273Y349552D01*
X47356Y349569D01*
X48175Y350116D01*
X48741Y350683D01*
X48841Y350694D01*
X49230Y350664D01*
X49338Y350627D01*
X49382Y350561D01*
X49452Y350514D01*
X49510Y350452D01*
X49512Y350451D01*
Y349669D01*
X49145Y349346D01*
X49118D01*
Y340334D01*
X44504D01*
X43453Y341385D01*
X42636Y342312D01*
X42308Y342743D01*
X42061Y343117D01*
X41945Y343332D01*
Y345291D01*
X36795D01*
Y339354D01*
X38995D01*
X39305Y339137D01*
X40023Y338525D01*
X42010Y336538D01*
X42010Y336538D01*
X42732Y336056D01*
X43583Y335886D01*
X43583Y335886D01*
X52228D01*
X56798Y331317D01*
X56457Y330959D01*
X55331Y331608D01*
X54075Y331945D01*
X52775D01*
X51520Y331608D01*
X50394Y330959D01*
X49475Y330039D01*
X48825Y328913D01*
X48488Y327658D01*
Y327604D01*
X40875Y319991D01*
X40399Y319371D01*
X40100Y318649D01*
X39998Y317874D01*
Y298607D01*
X39858Y298165D01*
X36602D01*
Y295591D01*
X35602D01*
Y298165D01*
X32346D01*
Y295536D01*
X31885Y295345D01*
X30705Y296525D01*
Y297421D01*
X29765D01*
X29563Y297556D01*
X29173Y297634D01*
X22835D01*
X22736Y297614D01*
X22635Y297614D01*
X22542Y297576D01*
X22445Y297556D01*
X22361Y297500D01*
X22267Y297461D01*
X22227Y297421D01*
X21618D01*
Y296627D01*
X21514Y296471D01*
X21476Y296379D01*
X21420Y296296D01*
X21400Y296197D01*
X21362Y296103D01*
X21362Y296004D01*
X21343Y295905D01*
X21362Y295807D01*
X21362Y295706D01*
X21401Y295613D01*
X21420Y295515D01*
X21476Y295431D01*
X21515Y295338D01*
X21586Y295268D01*
X21618Y295219D01*
Y285579D01*
X21995D01*
X29183Y278391D01*
X28991Y277929D01*
X27228D01*
Y274673D01*
X29803D01*
X32378D01*
Y277091D01*
X33108D01*
Y274173D01*
Y268463D01*
X33088Y268437D01*
X32876Y267925D01*
X28185D01*
Y262185D01*
X35487D01*
X35681Y262159D01*
X35876Y262185D01*
X38650D01*
Y264959D01*
X38675Y265154D01*
Y265838D01*
X38695Y265864D01*
X38995Y266586D01*
X39097Y267361D01*
Y274173D01*
Y277091D01*
X41299D01*
X41689Y277168D01*
X42020Y277389D01*
X45642Y281011D01*
X45863Y281342D01*
X45941Y281732D01*
Y288639D01*
X45863Y289029D01*
X45642Y289360D01*
X45642Y289360D01*
X45517Y290011D01*
X45585Y290101D01*
X45709Y290400D01*
X45884Y290823D01*
X45986Y291598D01*
Y316634D01*
X51709Y322357D01*
X52775Y322071D01*
X54075D01*
X55331Y322407D01*
X56457Y323057D01*
X57376Y323976D01*
X58026Y325102D01*
X58362Y326358D01*
Y327658D01*
X58026Y328913D01*
X57376Y330039D01*
X57735Y330380D01*
X61438Y326677D01*
Y317220D01*
X55844Y311627D01*
X55331Y311923D01*
X54075Y312260D01*
X52775D01*
X51520Y311923D01*
X50394Y311273D01*
X49475Y310354D01*
X48825Y309228D01*
X48488Y307973D01*
Y306673D01*
X48825Y305417D01*
X49475Y304291D01*
X50394Y303372D01*
X50564Y303274D01*
X50593Y303231D01*
X51314Y302749D01*
X51730Y302666D01*
X52775Y302386D01*
X54075D01*
X55331Y302722D01*
X56457Y303372D01*
X57376Y304291D01*
X58026Y305417D01*
X58362Y306673D01*
Y307855D01*
X65234Y314727D01*
X65234Y314727D01*
X65716Y315448D01*
X65885Y316299D01*
X65885Y316299D01*
Y327598D01*
X65716Y328450D01*
X65234Y329171D01*
X65234Y329171D01*
X54722Y339683D01*
X54607Y339760D01*
X54758Y340260D01*
X55843D01*
Y349346D01*
X56209Y349669D01*
X56236D01*
Y358272D01*
X58961D01*
Y354713D01*
X62323D01*
Y353713D01*
X58961D01*
Y350441D01*
X58885Y350390D01*
X58664Y350060D01*
X58587Y349669D01*
Y349346D01*
X58567D01*
Y340260D01*
X59401D01*
X61129Y338531D01*
X61460Y338310D01*
X61850Y338232D01*
X68583D01*
X68973Y338310D01*
X69304Y338531D01*
X71705Y340933D01*
X71746Y340993D01*
X72246Y340841D01*
Y306418D01*
X66113Y300286D01*
X65466Y299657D01*
X64068Y298430D01*
X63484Y297988D01*
X62965Y297646D01*
X62530Y297411D01*
X62406Y297362D01*
X58957D01*
Y294711D01*
X58844Y294515D01*
X58540Y294079D01*
X57610Y292981D01*
X57119Y292473D01*
X53164Y288517D01*
X52751Y287980D01*
X52491Y287353D01*
X52403Y286681D01*
Y261637D01*
X52391Y261181D01*
X52350Y260714D01*
X52286Y260328D01*
X52205Y260027D01*
X52118Y259813D01*
X52040Y259686D01*
X51987Y259628D01*
X51956Y259608D01*
X51923Y259595D01*
X51838Y259587D01*
X51507D01*
X51469Y259594D01*
X51430Y259587D01*
X50457D01*
Y258910D01*
X50400Y258890D01*
X50143Y258831D01*
X49813Y258781D01*
X48874Y258715D01*
X48488Y258709D01*
X40518D01*
X39208Y258722D01*
X38650Y258747D01*
Y258870D01*
X37688D01*
X37653Y258878D01*
X37646Y258876D01*
X37638Y258878D01*
X37599Y258870D01*
X28185D01*
Y253130D01*
X37596D01*
X37633Y253122D01*
X37635Y253123D01*
X37638Y253122D01*
X37676Y253130D01*
X38650D01*
Y253408D01*
X40227Y253514D01*
X40394Y253515D01*
X48550D01*
X48885Y253512D01*
X49841Y253461D01*
X50191Y253421D01*
X50457Y253376D01*
Y252862D01*
X51430D01*
X51469Y252855D01*
X51507Y252862D01*
X54419D01*
X54891Y252667D01*
X55665Y252565D01*
X59382D01*
X65077Y246870D01*
Y234616D01*
X63867Y233405D01*
X63454Y232868D01*
X63194Y232241D01*
X63106Y231569D01*
Y230449D01*
X59354D01*
Y222728D01*
X59332Y222559D01*
Y218787D01*
X59008Y218463D01*
X51559D01*
X51118Y218606D01*
X51118Y218874D01*
Y230449D01*
X42031D01*
Y224778D01*
X41672Y224582D01*
X41236Y224875D01*
Y228201D01*
X38571D01*
Y224354D01*
X38882D01*
X39052Y223854D01*
X38684Y223572D01*
X36882Y221770D01*
X35354D01*
X35186Y221748D01*
X31205D01*
Y212661D01*
X37929D01*
Y216341D01*
X38213Y216415D01*
X38606Y216026D01*
Y212980D01*
X40681D01*
Y216236D01*
X38902D01*
X38803Y216736D01*
X39257Y216924D01*
X39794Y217337D01*
X41543Y219086D01*
X42031Y219031D01*
Y218606D01*
X43003D01*
X43041Y218599D01*
X43080Y218606D01*
X44565D01*
X44918Y218252D01*
X44905Y216236D01*
Y212649D01*
X44883Y212480D01*
Y206015D01*
X44588Y205303D01*
X44486Y204528D01*
Y202380D01*
X44256Y202200D01*
X43756Y202435D01*
Y204028D01*
X41681D01*
Y200772D01*
X42341D01*
X42532Y200310D01*
X41190Y198968D01*
X40714Y198347D01*
X40655Y198205D01*
X39945D01*
Y188331D01*
X45882D01*
Y192141D01*
X45900Y192164D01*
X46199Y192886D01*
X46301Y193661D01*
Y195610D01*
X49597Y198907D01*
X50073Y199527D01*
X50197Y199826D01*
X50372Y200249D01*
X50474Y201024D01*
Y204528D01*
X50372Y205303D01*
X50077Y206015D01*
Y210863D01*
X50167Y211045D01*
X50377Y211383D01*
X50663Y211776D01*
X51968Y213269D01*
X60084D01*
X60756Y213358D01*
X61383Y213617D01*
X61920Y214030D01*
X63766Y215875D01*
X64178Y216413D01*
X64438Y217039D01*
X64526Y217711D01*
Y217838D01*
X64536Y218354D01*
X64555Y218606D01*
X68441D01*
Y224135D01*
X69262Y224956D01*
X69300Y224951D01*
X78524D01*
X80567Y222907D01*
X80567Y222907D01*
X80676Y222824D01*
X83179Y220321D01*
X83596Y220042D01*
X84088Y219944D01*
X84358Y219998D01*
X84605Y219537D01*
X63300Y198232D01*
X63162Y198205D01*
X59945D01*
Y188331D01*
X75882D01*
Y194532D01*
X92267Y210917D01*
X92550Y210880D01*
X92836Y210779D01*
X93070Y210430D01*
X97989Y205511D01*
X98406Y205232D01*
X98899Y205134D01*
X99391Y205232D01*
X99808Y205511D01*
X103326Y209028D01*
X103435Y209073D01*
X104466Y209865D01*
X112338Y217737D01*
X143604D01*
X143795Y217275D01*
X133634Y207114D01*
X133080Y206391D01*
X132731Y205549D01*
X132612Y204646D01*
Y157953D01*
X132731Y157049D01*
X133080Y156208D01*
X133634Y155485D01*
X166494Y122624D01*
X167217Y122070D01*
X168059Y121721D01*
X168963Y121602D01*
X171776D01*
X171837Y121496D01*
X172375Y120958D01*
X172382Y120934D01*
X172411Y120808D01*
X172437Y120645D01*
X172510Y119458D01*
Y115162D01*
X156338Y98990D01*
X143476D01*
X142770Y99006D01*
X142220Y99049D01*
X142034Y99074D01*
X141901Y99099D01*
X141876Y99106D01*
X141531Y99451D01*
X140406Y100101D01*
X139150Y100437D01*
X137850D01*
X136594Y100101D01*
X135469Y99451D01*
X135062Y99044D01*
X134992Y99001D01*
X134785Y98807D01*
X134599Y98662D01*
X134402Y98534D01*
X134190Y98422D01*
X133962Y98326D01*
X133716Y98245D01*
X133451Y98181D01*
X133237Y98146D01*
X131752Y98097D01*
X85185D01*
X84513Y98009D01*
X83886Y97749D01*
X83349Y97336D01*
X75578Y89565D01*
X64481D01*
X63809Y89477D01*
X63182Y89218D01*
X62965Y89051D01*
X60825D01*
X60630Y89090D01*
X58377D01*
X55958Y91509D01*
X55871Y91598D01*
X55353Y92169D01*
Y109512D01*
X57299D01*
Y116236D01*
X48213D01*
Y114437D01*
X47713Y114230D01*
X47126Y114817D01*
X46000Y115467D01*
X44745Y115803D01*
X43444D01*
X42189Y115467D01*
X41063Y114817D01*
X40300Y114054D01*
X16548D01*
X5471Y125131D01*
Y158648D01*
X5971Y159127D01*
X6559Y159118D01*
X15252D01*
Y164399D01*
X15260Y164437D01*
X15252Y164475D01*
Y165449D01*
X14367D01*
X14329Y165455D01*
X14270Y165545D01*
X14179Y165761D01*
X14086Y166087D01*
X14008Y166504D01*
X13955Y167116D01*
X14020Y167606D01*
X14110Y168027D01*
X14213Y168343D01*
X14313Y168550D01*
X14388Y168652D01*
X14420Y168678D01*
X14561Y168697D01*
X15449D01*
Y169671D01*
X15456Y169709D01*
X15449Y169747D01*
Y175421D01*
X15449D01*
X15449D01*
Y178146D01*
Y184870D01*
X14067D01*
X13983Y184879D01*
X13949Y184891D01*
X13919Y184911D01*
X13865Y184969D01*
X13787Y185097D01*
X13701Y185310D01*
X13620Y185611D01*
X13555Y185998D01*
X13514Y186465D01*
X13502Y186921D01*
Y188151D01*
X19945Y188331D01*
X19945Y188331D01*
X19945Y188331D01*
X35882D01*
Y197141D01*
X35889Y197175D01*
X35888Y197184D01*
X35890Y197193D01*
X35882Y197231D01*
Y198205D01*
X35614D01*
X35511Y199780D01*
X35510Y199934D01*
Y201299D01*
X35422Y201971D01*
X35162Y202598D01*
X34750Y203136D01*
X27914Y209972D01*
Y210360D01*
X27932Y211361D01*
X27997Y212295D01*
X28041Y212620D01*
X28049Y212661D01*
X28480D01*
Y213576D01*
X28485Y213591D01*
X28480Y213628D01*
Y213635D01*
X28488Y213673D01*
X28480Y213712D01*
Y221748D01*
X21756D01*
Y213712D01*
X21748Y213673D01*
X21756Y213635D01*
Y213628D01*
X21752Y213591D01*
X21756Y213576D01*
Y212661D01*
X22187D01*
X22189Y212652D01*
X22234Y212018D01*
X21893Y211652D01*
X13504D01*
X12832Y211564D01*
X12205Y211304D01*
X11668Y210892D01*
X1038Y200262D01*
X625Y199724D01*
X365Y199097D01*
X277Y198425D01*
Y124055D01*
X365Y123383D01*
X625Y122757D01*
X1038Y122219D01*
X13636Y109620D01*
X14174Y109208D01*
X14800Y108948D01*
X15472Y108860D01*
X39552D01*
X40144Y107835D01*
X41063Y106916D01*
X42189Y106266D01*
X43444Y105929D01*
X44745D01*
X46000Y106266D01*
X47126Y106916D01*
X48045Y107835D01*
X48695Y108960D01*
X48843Y109512D01*
X50159D01*
Y91850D01*
X50247Y91178D01*
X50507Y90552D01*
X50920Y90014D01*
X51457Y89601D01*
X52084Y89342D01*
X52293Y89314D01*
X54094Y87652D01*
X56109Y85636D01*
X56677Y85257D01*
Y85083D01*
X57344D01*
X57539Y85044D01*
X60630D01*
X60825Y85083D01*
X62709D01*
X63182Y84719D01*
X63588Y84551D01*
X63489Y84051D01*
X61130D01*
Y82067D01*
Y80083D01*
X64583D01*
X64668Y79593D01*
X64346Y79211D01*
X60630D01*
X59829Y79051D01*
X56677D01*
Y75083D01*
Y70083D01*
X60435D01*
X60630Y70044D01*
X69937D01*
X70009Y69950D01*
X70629Y69474D01*
X71351Y69175D01*
X72126Y69073D01*
X133533Y69073D01*
X134308Y69175D01*
X134612Y69301D01*
X134895Y68877D01*
X134549Y68531D01*
X133899Y67406D01*
X133563Y66150D01*
Y64850D01*
X133899Y63594D01*
X134549Y62469D01*
X135469Y61549D01*
X136594Y60899D01*
X137119Y60759D01*
Y60241D01*
X136594Y60101D01*
X135469Y59451D01*
X134549Y58531D01*
X133899Y57406D01*
X133563Y56150D01*
Y54850D01*
X133899Y53594D01*
X134549Y52469D01*
X135469Y51549D01*
X136594Y50899D01*
X137850Y50563D01*
X139150D01*
X140406Y50899D01*
X141531Y51549D01*
X142451Y52469D01*
X143101Y53594D01*
X143437Y54850D01*
Y56150D01*
X143101Y57406D01*
X142451Y58531D01*
X141531Y59451D01*
X140406Y60101D01*
X139881Y60241D01*
Y60759D01*
X140406Y60899D01*
X141531Y61549D01*
X142451Y62469D01*
X143101Y63594D01*
X143437Y64850D01*
Y66150D01*
X143101Y67406D01*
X142451Y68531D01*
X141531Y69451D01*
X140406Y70101D01*
X139881Y70241D01*
Y70759D01*
X140406Y70899D01*
X141531Y71549D01*
X141876Y71894D01*
X141901Y71901D01*
X141999Y71920D01*
X143407Y72009D01*
X164997D01*
X165900Y72128D01*
X166742Y72477D01*
X167465Y73032D01*
X208468Y114035D01*
X209023Y114758D01*
X209371Y115600D01*
X209490Y116504D01*
Y121249D01*
X209738Y121496D01*
X210388Y122622D01*
X210724Y123878D01*
Y125178D01*
X210388Y126433D01*
X209738Y127559D01*
X209612Y127684D01*
Y129428D01*
X209935D01*
X210427Y129526D01*
X210845Y129805D01*
X211124Y130222D01*
X211222Y130715D01*
Y143459D01*
X211124Y143951D01*
X210845Y144368D01*
X210427Y144647D01*
X209935Y144745D01*
X202978D01*
X202486Y144647D01*
X202069Y144368D01*
X201790Y143951D01*
X198422Y144247D01*
Y160045D01*
X198320Y160820D01*
X198144Y161243D01*
X198021Y161542D01*
X197545Y162162D01*
X172470Y187237D01*
X172677Y187737D01*
X196929D01*
X198218Y187907D01*
X199419Y188404D01*
X200450Y189195D01*
X201242Y190227D01*
X201739Y191428D01*
X201905Y192691D01*
X201987Y192870D01*
X202180Y193187D01*
X206014Y197565D01*
X206261Y197814D01*
X229834Y221387D01*
X230310Y222007D01*
X230609Y222729D01*
X230711Y223504D01*
Y299145D01*
X230609Y299920D01*
X230310Y300642D01*
X229834Y301262D01*
X229214Y301738D01*
X228501Y302033D01*
X224183Y306351D01*
X224348Y306893D01*
X224507Y306925D01*
X224924Y307204D01*
X229843Y312123D01*
X230122Y312540D01*
X230220Y313033D01*
X230122Y313525D01*
X229843Y313942D01*
X225722Y318064D01*
X227033Y319375D01*
X227446Y319913D01*
X227705Y320540D01*
X227794Y321212D01*
Y326693D01*
X227705Y327365D01*
X227446Y327991D01*
X227033Y328529D01*
X226304Y329259D01*
X226537Y329733D01*
X226614Y329722D01*
X234488D01*
X235263Y329824D01*
X235985Y330123D01*
X236605Y330599D01*
X237059Y331191D01*
X237112Y331194D01*
X237559Y330953D01*
Y317190D01*
X237059Y317091D01*
X236870Y317548D01*
X236367Y318051D01*
X235854Y318263D01*
Y316535D01*
Y314808D01*
X236367Y315020D01*
X236870Y315523D01*
X237059Y315980D01*
X237559Y315881D01*
Y-323D01*
X237331Y-551D01*
X-904D01*
X-1260Y-195D01*
Y392795D01*
X-1378Y392913D01*
X1024Y395315D01*
X27795D01*
X27894Y394815D01*
X27283Y394562D01*
X26662Y394086D01*
X26186Y393466D01*
X25887Y392743D01*
X25785Y391968D01*
Y385660D01*
X25299Y385543D01*
X24957Y386214D01*
X23772Y387846D01*
X22346Y389272D01*
X20714Y390457D01*
X18918Y391372D01*
X17000Y391996D01*
X15008Y392311D01*
X12992D01*
X11000Y391996D01*
X9082Y391372D01*
X7286Y390457D01*
X5654Y389272D01*
X4228Y387846D01*
X3043Y386214D01*
X2128Y384418D01*
X1504Y382500D01*
X1189Y380508D01*
Y378492D01*
X1504Y376500D01*
X2128Y374582D01*
X3043Y372786D01*
X4228Y371154D01*
X5654Y369728D01*
X7286Y368543D01*
X9082Y367628D01*
X11000Y367004D01*
X12992Y366689D01*
X15008D01*
X17000Y367004D01*
X18918Y367628D01*
X20714Y368543D01*
X22346Y369728D01*
X23772Y371154D01*
X24957Y372786D01*
X25872Y374582D01*
X26496Y376500D01*
X26811Y378492D01*
Y380508D01*
X26680Y381333D01*
X27143Y381609D01*
X27283Y381502D01*
X28005Y381202D01*
X28780Y381100D01*
X32717D01*
X33492Y381202D01*
X34214Y381502D01*
X34834Y381977D01*
X35127Y382360D01*
X35827D01*
X36602Y382462D01*
X37324Y382761D01*
X37944Y383237D01*
X38420Y383857D01*
X38719Y384579D01*
X38821Y385354D01*
Y393228D01*
X38719Y394003D01*
X38420Y394725D01*
X38311Y394866D01*
X38533Y395315D01*
X52785D01*
X53006Y394866D01*
D02*
G37*
G36*
X200693Y395012D02*
X200454Y394436D01*
X200352Y393661D01*
Y385787D01*
X200454Y385013D01*
X200753Y384290D01*
X201229Y383670D01*
X201849Y383194D01*
X202572Y382895D01*
X203346Y382793D01*
X203646D01*
X203788Y382607D01*
X204408Y382131D01*
X205131Y381832D01*
X205906Y381730D01*
X208985D01*
X209310Y381350D01*
X209209Y380709D01*
Y378693D01*
X209524Y376701D01*
X210147Y374783D01*
X211063Y372986D01*
X212248Y371355D01*
X213674Y369929D01*
X215305Y368744D01*
X217102Y367828D01*
X219020Y367205D01*
X221011Y366890D01*
X222985D01*
X222993Y366887D01*
X223058Y366854D01*
X223405Y366443D01*
X223344Y365984D01*
Y362047D01*
X223446Y361272D01*
X223746Y360550D01*
X224221Y359930D01*
X224604Y359636D01*
Y358937D01*
X224706Y358162D01*
X225005Y357440D01*
X225481Y356820D01*
X226101Y356344D01*
X226823Y356045D01*
X227598Y355943D01*
X235472D01*
X236247Y356045D01*
X236969Y356344D01*
X237111Y356452D01*
X237559Y356231D01*
Y341979D01*
X237111Y341758D01*
X237048Y341806D01*
X236326Y342105D01*
X235551Y342207D01*
X227677D01*
X226902Y342105D01*
X226180Y341806D01*
X225560Y341330D01*
X225084Y340710D01*
X224785Y339988D01*
X224683Y339213D01*
Y338913D01*
X224497Y338771D01*
X224021Y338151D01*
X223722Y337428D01*
X223620Y336653D01*
Y332716D01*
X223630Y332639D01*
X223157Y332406D01*
X216931Y338631D01*
Y341235D01*
X220374D01*
X221340Y341427D01*
X222159Y341974D01*
X222707Y342794D01*
X222899Y343760D01*
Y346713D01*
X222707Y347679D01*
X222159Y348498D01*
X221569Y348892D01*
X221543Y349476D01*
X222041Y349809D01*
X222589Y350628D01*
X222781Y351594D01*
Y354547D01*
X222589Y355514D01*
X222041Y356333D01*
X221222Y356880D01*
X220256Y357072D01*
X207461D01*
X206494Y356880D01*
X205675Y356333D01*
X205128Y355514D01*
X204936Y354547D01*
Y353611D01*
X204560Y353536D01*
X203838Y353054D01*
X203838Y353054D01*
X202349Y351564D01*
X201867Y350843D01*
X201751Y350260D01*
X201208Y350095D01*
X197287Y354017D01*
X197230Y354054D01*
X197167Y354698D01*
X199108Y356640D01*
X199655Y357459D01*
X199848Y358425D01*
Y363411D01*
X200585Y363904D01*
X201132Y364723D01*
X201324Y365689D01*
Y378484D01*
X201132Y379450D01*
X200585Y380270D01*
X199766Y380817D01*
X198799Y381009D01*
X195846D01*
X194880Y380817D01*
X194061Y380270D01*
X193795Y379872D01*
X193262Y379974D01*
X193189Y380315D01*
X192259Y381119D01*
X191741D01*
X191621Y380761D01*
X190965Y380891D01*
X188012D01*
X187046Y380699D01*
X186226Y380152D01*
X185679Y379332D01*
X185487Y378366D01*
Y366470D01*
X185025Y366278D01*
X182476Y368827D01*
X182059Y369106D01*
X181567Y369204D01*
X181074Y369106D01*
X180657Y368827D01*
X172513Y360683D01*
X171700Y360140D01*
X171337Y359777D01*
X164640D01*
X164226Y359803D01*
Y364480D01*
Y366752D01*
X154352D01*
Y365614D01*
X154055Y365236D01*
X154055Y364104D01*
Y359857D01*
Y354857D01*
Y349857D01*
Y344857D01*
Y339857D01*
Y334857D01*
Y329857D01*
Y324857D01*
Y319857D01*
Y314857D01*
Y309857D01*
X154055Y304540D01*
X154352Y304163D01*
Y299480D01*
X163099D01*
X163103Y299479D01*
X163121Y299480D01*
X163176D01*
X163214Y299473D01*
X163252Y299480D01*
X164226D01*
Y299663D01*
X165204Y299725D01*
X168230Y296699D01*
X168794Y296096D01*
X169199Y295597D01*
X169431Y295269D01*
X169457Y295142D01*
Y291138D01*
Y286984D01*
X169190Y286340D01*
X169020Y285051D01*
Y239685D01*
X157032Y227696D01*
X110276D01*
X110276Y227696D01*
X109674Y227617D01*
X109440Y228091D01*
X120161Y238811D01*
X120574Y239349D01*
X120833Y239976D01*
X120922Y240648D01*
Y267941D01*
X155961Y268008D01*
Y271126D01*
Y276407D01*
X155968Y276445D01*
X155961Y276483D01*
Y277071D01*
X156236D01*
Y278045D01*
X156244Y278083D01*
X156236Y278121D01*
Y283795D01*
X156236D01*
X156236D01*
Y286520D01*
Y293244D01*
X152151D01*
Y293840D01*
X151959Y294806D01*
X151411Y295625D01*
X151145Y295891D01*
Y298020D01*
X151096Y298264D01*
Y303252D01*
X103825D01*
Y298315D01*
Y293378D01*
X105800D01*
Y290985D01*
X105800Y290985D01*
X97011Y290675D01*
X96902Y290839D01*
X95445Y292296D01*
X95115Y292517D01*
X94724Y292594D01*
X88425D01*
X88035Y292517D01*
X87704Y292296D01*
X85775Y290367D01*
X85554Y290036D01*
X85476Y289646D01*
Y274567D01*
X85554Y274177D01*
X85775Y273846D01*
X86917Y272704D01*
X87248Y272483D01*
X87638Y272406D01*
X90014D01*
X90299Y272024D01*
Y267980D01*
X93661D01*
Y267480D01*
X94161D01*
Y262937D01*
X106472D01*
X110228Y262951D01*
X110728Y262460D01*
Y245660D01*
X94794Y229726D01*
X94333Y229972D01*
X94386Y230242D01*
X94288Y230735D01*
X94010Y231152D01*
X89091Y236071D01*
X88673Y236350D01*
X88181Y236448D01*
X87688Y236350D01*
X87271Y236071D01*
X84380Y233179D01*
X84108Y233451D01*
X83077Y234243D01*
X81875Y234740D01*
X80587Y234910D01*
X80587Y234910D01*
X71065D01*
Y248110D01*
X70963Y248885D01*
X70788Y249308D01*
X70664Y249607D01*
X70188Y250227D01*
X62739Y257676D01*
X62119Y258152D01*
X61397Y258451D01*
X60622Y258553D01*
X59543D01*
Y259587D01*
X58162D01*
X58077Y259595D01*
X58044Y259608D01*
X58013Y259628D01*
X57960Y259686D01*
X57882Y259813D01*
X57795Y260027D01*
X57714Y260328D01*
X57650Y260714D01*
X57609Y261181D01*
X57597Y261637D01*
Y272205D01*
X57638Y272205D01*
Y272205D01*
X59386Y272245D01*
X59744Y271895D01*
Y270350D01*
X63500D01*
X67256D01*
Y272425D01*
Y277674D01*
X67264Y277712D01*
X67256Y277751D01*
Y278724D01*
X66385D01*
X66323Y278860D01*
X66252Y279095D01*
X66190Y279403D01*
X66140Y279946D01*
X66150Y280061D01*
X66214Y280448D01*
X66295Y280749D01*
X66382Y280962D01*
X66460Y281090D01*
X66513Y281148D01*
X66544Y281168D01*
X66577Y281180D01*
X66662Y281189D01*
X68043D01*
Y281954D01*
X72425D01*
X73097Y282043D01*
X73724Y282302D01*
X74262Y282715D01*
X76610Y285063D01*
X80650D01*
Y291973D01*
X80852Y292175D01*
X81265Y292713D01*
X81524Y293340D01*
X81613Y294012D01*
Y309431D01*
X87069Y309460D01*
X87423Y309107D01*
Y304480D01*
Y299480D01*
X97297D01*
Y303387D01*
X99764Y303583D01*
X99567Y309252D01*
X99772Y309264D01*
X99851Y364563D01*
X97657Y364492D01*
X97297Y364840D01*
Y366752D01*
X87423D01*
Y364556D01*
X80811D01*
X80151Y364425D01*
X78724D01*
Y364408D01*
X69773D01*
X69661Y364493D01*
Y367358D01*
X63245D01*
X63038Y367858D01*
X64007Y368828D01*
X64007Y368828D01*
X67722Y372543D01*
X69583D01*
Y381236D01*
X63545D01*
X63446Y381736D01*
X63544Y381777D01*
X64164Y382253D01*
X64640Y382873D01*
X64939Y383595D01*
X65041Y384370D01*
Y392244D01*
X64939Y393019D01*
X64640Y393741D01*
X64164Y394361D01*
X63573Y394815D01*
X63570Y394867D01*
X63811Y395315D01*
X88976D01*
X89370Y395002D01*
Y371614D01*
X89475Y371510D01*
X89671Y371216D01*
X89964Y371020D01*
X90236Y370748D01*
X161929D01*
Y371183D01*
X161979Y371216D01*
X162200Y371547D01*
X162277Y371937D01*
Y394049D01*
X163740Y395512D01*
X175210D01*
X175310Y395012D01*
X175078Y394916D01*
X174458Y394440D01*
X173982Y393820D01*
X173683Y393098D01*
X173581Y392323D01*
Y384449D01*
X173683Y383674D01*
X173982Y382952D01*
X174458Y382332D01*
X175078Y381856D01*
X175800Y381557D01*
X176575Y381455D01*
X180512D01*
X181287Y381557D01*
X182009Y381856D01*
X182629Y382332D01*
X182923Y382715D01*
X183622D01*
X184397Y382817D01*
X185119Y383116D01*
X185739Y383592D01*
X186215Y384212D01*
X186514Y384934D01*
X186616Y385709D01*
Y393583D01*
X186514Y394358D01*
X186243Y395012D01*
X186436Y395512D01*
X200453D01*
X200693Y395012D01*
D02*
G37*
G36*
X237559Y393228D02*
Y366969D01*
X237059Y366869D01*
X236806Y367481D01*
X236330Y368101D01*
X235710Y368577D01*
X234987Y368876D01*
X234213Y368978D01*
X229866D01*
X229712Y369454D01*
X230365Y369929D01*
X231791Y371355D01*
X232977Y372986D01*
X233892Y374783D01*
X234515Y376701D01*
X234831Y378693D01*
Y380709D01*
X234515Y382701D01*
X233892Y384618D01*
X232977Y386415D01*
X231791Y388047D01*
X230365Y389473D01*
X228734Y390658D01*
X226937Y391573D01*
X225020Y392196D01*
X223028Y392512D01*
X221011D01*
X219020Y392196D01*
X217102Y391573D01*
X215305Y390658D01*
X213674Y389473D01*
X213299Y389097D01*
X212837Y389289D01*
Y392598D01*
X212735Y393373D01*
X212436Y394095D01*
X211960Y394716D01*
X211574Y395012D01*
X211743Y395512D01*
X235276D01*
X237559Y393228D01*
D02*
G37*
G36*
X163244Y358958D02*
X163332Y358910D01*
X163480Y358867D01*
X163687Y358830D01*
X163953Y358799D01*
X164661Y358754D01*
X166167Y358728D01*
Y355776D01*
X165606Y355773D01*
X163480Y355637D01*
X163332Y355594D01*
X163244Y355546D01*
X163214Y355492D01*
Y359012D01*
X163244Y358958D01*
D02*
G37*
G36*
X88435Y355492D02*
X86779Y355480D01*
Y358630D01*
X88447Y358711D01*
X88435Y355492D01*
D02*
G37*
G36*
X50103Y351282D02*
X50081Y351412D01*
X50016Y351528D01*
X49907Y351631D01*
X49755Y351720D01*
X49560Y351795D01*
X49321Y351856D01*
X49038Y351904D01*
X48713Y351939D01*
X47930Y351966D01*
Y354919D01*
X48343Y354925D01*
X49038Y354980D01*
X49321Y355028D01*
X49560Y355090D01*
X49755Y355165D01*
X49907Y355254D01*
X50016Y355356D01*
X50081Y355473D01*
X50103Y355603D01*
Y351282D01*
D02*
G37*
G36*
X68708Y349992D02*
X70984Y347716D01*
Y341653D01*
X68583Y339252D01*
X61850D01*
X59606Y341496D01*
Y349669D01*
X65252D01*
Y349669D01*
X65607Y350021D01*
X68708Y349992D01*
D02*
G37*
G36*
X47079Y350858D02*
X44858Y348405D01*
X44870Y352153D01*
X44750Y352161D01*
X44660Y352185D01*
X44599Y352225D01*
X44567Y352280D01*
X44565Y352351D01*
X44592Y352438D01*
X44648Y352541D01*
X44733Y352660D01*
X44848Y352795D01*
X44991Y352945D01*
X47079Y350858D01*
D02*
G37*
G36*
X163246Y343939D02*
X163340Y343874D01*
X163498Y343817D01*
X163718Y343767D01*
X164002Y343725D01*
X164758Y343664D01*
X166364Y343630D01*
Y340480D01*
X163214Y340492D01*
Y344012D01*
X163246Y343939D01*
D02*
G37*
G36*
X40815Y343892D02*
X40788Y343637D01*
X40840Y343335D01*
X40973Y342987D01*
X41185Y342593D01*
X41476Y342152D01*
X41847Y341665D01*
X42828Y340551D01*
X43438Y339925D01*
X41327Y338696D01*
X40824Y339182D01*
X39930Y339943D01*
X39540Y340218D01*
X39187Y340421D01*
X38871Y340554D01*
X38594Y340616D01*
X38353Y340608D01*
X38151Y340528D01*
X37986Y340378D01*
X40921Y344101D01*
X40815Y343892D01*
D02*
G37*
G36*
X201697Y346117D02*
Y342245D01*
X201697Y342245D01*
X201792Y341772D01*
Y337001D01*
X201766Y336968D01*
X201507Y336342D01*
X201418Y335670D01*
X201507Y334998D01*
X201766Y334371D01*
X202179Y333833D01*
X204146Y331867D01*
X202046Y329767D01*
X201817Y329424D01*
X201278Y329256D01*
X194685Y335849D01*
Y339757D01*
X201236Y346308D01*
X201697Y346117D01*
D02*
G37*
G36*
X86746Y330223D02*
X84669D01*
X83894Y330120D01*
X83172Y329821D01*
X82552Y329345D01*
X82076Y328725D01*
X81777Y328003D01*
X81675Y327228D01*
X81777Y326453D01*
X82076Y325731D01*
X82552Y325111D01*
X83172Y324635D01*
X83894Y324336D01*
X84669Y324234D01*
X86400D01*
X85512Y323346D01*
X83110D01*
X81613Y324844D01*
Y329644D01*
X82677Y330709D01*
X86260D01*
X86746Y330223D01*
D02*
G37*
G36*
X207579Y341235D02*
X210943D01*
Y337953D01*
X211045Y337178D01*
X211344Y336456D01*
X211820Y335836D01*
X212440Y335360D01*
X213152Y335065D01*
X222600Y325617D01*
Y322288D01*
X222049Y321737D01*
X220832Y322954D01*
X220415Y323233D01*
X219922Y323330D01*
X219430Y323233D01*
X219013Y322954D01*
X214093Y318035D01*
X213815Y317617D01*
X213783Y317458D01*
X213240Y317294D01*
X212366Y318168D01*
X212534Y318707D01*
X212877Y318936D01*
X217796Y323855D01*
X218075Y324272D01*
X218173Y324765D01*
X218075Y325257D01*
X217796Y325675D01*
X208785Y334686D01*
X208444Y334914D01*
X206239Y337119D01*
Y341121D01*
X206739Y341402D01*
X207579Y341235D01*
D02*
G37*
G36*
X163244Y303958D02*
X163332Y303910D01*
X163480Y303867D01*
X163687Y303830D01*
X163953Y303799D01*
X164661Y303754D01*
X166167Y303728D01*
Y300776D01*
X165606Y300773D01*
X163480Y300637D01*
X163332Y300594D01*
X163244Y300546D01*
X163214Y300492D01*
Y304012D01*
X163244Y303958D01*
D02*
G37*
G36*
X69258Y297531D02*
X68581Y296831D01*
X67528Y295601D01*
X67152Y295071D01*
X66878Y294597D01*
X66705Y294180D01*
X66632Y293819D01*
X66660Y293515D01*
X66789Y293268D01*
X67019Y293077D01*
X61396Y296338D01*
X61704Y296225D01*
X62067Y296212D01*
X62486Y296299D01*
X62960Y296484D01*
X63489Y296770D01*
X64073Y297155D01*
X64713Y297639D01*
X66158Y298907D01*
X66964Y299691D01*
X69258Y297531D01*
D02*
G37*
G36*
X171358Y299251D02*
X173307Y297613D01*
X173854Y297252D01*
X174351Y296984D01*
X174796Y296809D01*
X175190Y296726D01*
X175534Y296736D01*
X175826Y296838D01*
X170481Y293856D01*
X170700Y294031D01*
X170823Y294260D01*
X170851Y294544D01*
X170784Y294881D01*
X170622Y295271D01*
X170364Y295716D01*
X170011Y296214D01*
X169563Y296766D01*
X168381Y298031D01*
X170606Y299982D01*
X171358Y299251D01*
D02*
G37*
G36*
X186273Y296196D02*
X186362Y296181D01*
X186510Y296168D01*
X187691Y296134D01*
X189197Y296126D01*
Y293173D01*
X186244Y293087D01*
Y296212D01*
X186273Y296196D01*
D02*
G37*
G36*
X151104Y293532D02*
X151186Y292285D01*
X151209Y292236D01*
X151234Y292220D01*
X148162Y292232D01*
X148159Y292248D01*
X148157Y292296D01*
X148150Y293840D01*
X151102D01*
X151104Y293532D01*
D02*
G37*
G36*
X177561Y296684D02*
X177649Y296536D01*
X177797Y296405D01*
X178004Y296291D01*
X178270Y296195D01*
X178594Y296116D01*
X178978Y296055D01*
X179198Y296033D01*
X180638Y296127D01*
X180727Y296168D01*
X180756Y296212D01*
Y293087D01*
X180727Y293075D01*
X180638Y293064D01*
X180490Y293055D01*
X180484Y293055D01*
Y293024D01*
X179923Y293015D01*
X178978Y292945D01*
X178594Y292884D01*
X178270Y292805D01*
X178004Y292709D01*
X177797Y292595D01*
X177649Y292464D01*
X177561Y292316D01*
X177531Y292150D01*
Y296850D01*
X177561Y296684D01*
D02*
G37*
G36*
X215982Y299321D02*
Y234626D01*
X193405Y212049D01*
X193143Y211790D01*
X190559Y209377D01*
X189292Y208332D01*
X188820Y207993D01*
X188460Y207774D01*
X188289Y207696D01*
X159095D01*
X158771Y207653D01*
X158444D01*
X158129Y207569D01*
X157806Y207526D01*
X157504Y207402D01*
X157189Y207317D01*
X156906Y207154D01*
X156605Y207029D01*
X156346Y206830D01*
X156063Y206667D01*
X155832Y206436D01*
X155573Y206238D01*
X155375Y205979D01*
X155144Y205748D01*
X155052Y205589D01*
X154555Y205523D01*
X153713Y205174D01*
X152990Y204620D01*
X145091Y196720D01*
X144536Y195997D01*
X144187Y195155D01*
X144069Y194252D01*
Y162913D01*
X144187Y162010D01*
X144536Y161168D01*
X145091Y160445D01*
X169855Y135681D01*
X170578Y135127D01*
X171419Y134778D01*
X172323Y134659D01*
X177235D01*
X177737Y134646D01*
X178505Y134578D01*
X179157Y134470D01*
X179689Y134327D01*
X180096Y134161D01*
X180384Y133986D01*
X180566Y133817D01*
X180675Y133654D01*
X180740Y133469D01*
X180747Y133405D01*
Y130715D01*
X180845Y130222D01*
X181124Y129805D01*
X181541Y129526D01*
X182034Y129428D01*
X187763D01*
X188067Y129031D01*
X188040Y128928D01*
X190388Y126433D01*
X190529Y125908D01*
X190636D01*
X190940Y125512D01*
X190850Y125178D01*
Y123878D01*
X190980Y123394D01*
X190562Y123120D01*
X190529Y123147D01*
X189738Y121496D01*
X186287Y119591D01*
X185137D01*
X182756Y120577D01*
X181837Y121496D01*
X181187Y122622D01*
X181046Y123147D01*
X180663Y123647D01*
X180724Y123878D01*
Y125178D01*
X180388Y126433D01*
X179738Y127559D01*
X178819Y128478D01*
X177693Y129128D01*
X176437Y129465D01*
X175137D01*
X173882Y129128D01*
X172938Y128583D01*
X170408D01*
X139593Y159399D01*
Y203200D01*
X149357Y212964D01*
X149911Y213687D01*
X150260Y214529D01*
X150266Y214575D01*
X153428Y217737D01*
X159094D01*
X159095Y217737D01*
X159418Y217779D01*
X159745D01*
X160060Y217864D01*
X160383Y217907D01*
X160685Y218032D01*
X161000Y218116D01*
X161283Y218279D01*
X161584Y218404D01*
X161843Y218603D01*
X162126Y218766D01*
X162357Y218997D01*
X162616Y219195D01*
X177521Y234101D01*
X177521Y234101D01*
X178313Y235132D01*
X178810Y236333D01*
X178980Y237622D01*
Y285051D01*
X178810Y286340D01*
X178543Y286984D01*
Y291820D01*
X178564Y291827D01*
X178795Y291883D01*
X179096Y291931D01*
X179688Y291975D01*
X182169D01*
X182671Y292075D01*
X186206D01*
X186244Y292067D01*
X186259Y292070D01*
X186274Y292068D01*
X186518Y292075D01*
X187256D01*
Y292096D01*
X188223Y292125D01*
X191801D01*
X191874Y292051D01*
Y284354D01*
X200173D01*
Y293915D01*
X201553D01*
X202226Y294003D01*
X202852Y294263D01*
X203390Y294675D01*
X204701Y295987D01*
X208295Y292393D01*
X208712Y292115D01*
X209204Y292017D01*
X209697Y292115D01*
X210114Y292393D01*
X215033Y297313D01*
X215312Y297730D01*
X215410Y298222D01*
X215312Y298715D01*
X215033Y299132D01*
X211171Y302994D01*
X211307Y303450D01*
X211753Y303551D01*
X215982Y299321D01*
D02*
G37*
G36*
X64423Y291662D02*
X64179Y291839D01*
X63890Y291927D01*
X63557Y291926D01*
X63179Y291835D01*
X62756Y291656D01*
X62288Y291387D01*
X61775Y291030D01*
X61218Y290583D01*
X59969Y289423D01*
X57742Y291650D01*
X58366Y292297D01*
X59349Y293456D01*
X59706Y293969D01*
X59975Y294437D01*
X60154Y294860D01*
X60244Y295238D01*
X60246Y295571D01*
X60158Y295860D01*
X59981Y296104D01*
X64423Y291662D01*
D02*
G37*
G36*
X144913Y294691D02*
X144941Y294390D01*
X145084D01*
X145050Y294360D01*
X145019Y294272D01*
X144991Y294124D01*
X144977Y294003D01*
X145001Y293746D01*
X145079Y293362D01*
X145179Y293037D01*
X145301Y292772D01*
X145446Y292565D01*
X145612Y292417D01*
X145801Y292329D01*
X146012Y292299D01*
X144915Y292297D01*
X144902Y291437D01*
X141949D01*
X141945Y291998D01*
X141925Y292290D01*
X140472Y292287D01*
X140753Y292317D01*
X141004Y292407D01*
X141225Y292555D01*
X141417Y292763D01*
X141580Y293030D01*
X141713Y293356D01*
X141816Y293741D01*
X141821Y293771D01*
X141811Y293917D01*
X141761Y294124D01*
X141703Y294272D01*
X141638Y294360D01*
X141565Y294390D01*
X141908D01*
X141934Y294689D01*
X141949Y295252D01*
X144902D01*
X144913Y294691D01*
D02*
G37*
G36*
X76419Y302593D02*
Y295646D01*
X72350D01*
Y288948D01*
X72328Y288779D01*
Y288127D01*
X71350Y287148D01*
X68043D01*
Y287913D01*
X60558D01*
X60367Y288375D01*
X60729Y288737D01*
X61884Y289811D01*
X62386Y290213D01*
X62834Y290525D01*
X63030Y290638D01*
X68043D01*
Y294565D01*
X68333Y294974D01*
X69335Y296145D01*
X69872Y296699D01*
X75957Y302784D01*
X76419Y302593D01*
D02*
G37*
G36*
X32346Y293441D02*
Y293016D01*
X32772D01*
X33851Y291936D01*
X33916Y291763D01*
X33971Y291390D01*
X33509Y290788D01*
X33210Y290066D01*
X33108Y289291D01*
X33210Y288516D01*
X33509Y287794D01*
X33985Y287174D01*
Y287174D01*
X34605Y286698D01*
X35327Y286399D01*
X36102Y286297D01*
X40686D01*
X41461Y286399D01*
X42183Y286698D01*
X42803Y287174D01*
X44459Y288830D01*
X44921Y288639D01*
Y281732D01*
X41299Y278110D01*
X30906D01*
X22677Y286339D01*
Y291392D01*
X23177Y291425D01*
X23269Y290725D01*
X23568Y290003D01*
X24044Y289383D01*
X25558Y287869D01*
X26178Y287393D01*
X26900Y287094D01*
X27675Y286992D01*
X28450Y287094D01*
X29172Y287393D01*
X29792Y287869D01*
X30268Y288489D01*
X30567Y289211D01*
X30669Y289986D01*
X30567Y290761D01*
X30268Y291483D01*
X29792Y292103D01*
X28279Y293617D01*
X27659Y294093D01*
X26936Y294392D01*
X26161Y294494D01*
X25387Y294392D01*
X24664Y294093D01*
X24044Y293617D01*
X23568Y292997D01*
X23269Y292275D01*
X23177Y291575D01*
X22677Y291608D01*
Y295590D01*
X22362Y295905D01*
X22835Y296614D01*
X29173D01*
X32346Y293441D01*
D02*
G37*
G36*
X66350Y282181D02*
X66083Y282086D01*
X65847Y281928D01*
X65642Y281707D01*
X65469Y281423D01*
X65327Y281075D01*
X65216Y280664D01*
X65138Y280190D01*
X65116Y279944D01*
X65180Y279256D01*
X65262Y278846D01*
X65367Y278500D01*
X65496Y278216D01*
X65648Y277996D01*
X65823Y277838D01*
X66022Y277744D01*
X66244Y277712D01*
X60756D01*
X60978Y277744D01*
X61177Y277838D01*
X61352Y277996D01*
X61504Y278216D01*
X61633Y278500D01*
X61738Y278846D01*
X61820Y279256D01*
X61878Y279728D01*
X61889Y279887D01*
X61862Y280190D01*
X61783Y280664D01*
X61673Y281075D01*
X61532Y281423D01*
X61358Y281707D01*
X61154Y281928D01*
X60917Y282086D01*
X60650Y282181D01*
X60350Y282213D01*
X66650D01*
X66350Y282181D01*
D02*
G37*
G36*
X153635Y279634D02*
X153741Y278374D01*
X153794Y278083D01*
X155224D01*
X154920Y278045D01*
X154647Y277933D01*
X154407Y277745D01*
X154199Y277483D01*
X154050Y277196D01*
X154100Y277075D01*
X154272Y276799D01*
X154471Y276602D01*
X154697Y276484D01*
X154949Y276445D01*
X153812D01*
X153766Y276244D01*
X153686Y275681D01*
X153638Y275044D01*
X153622Y274331D01*
X149685D01*
X149670Y275044D01*
X149548Y276244D01*
X149504Y276445D01*
X148280D01*
X148547Y276484D01*
X148786Y276602D01*
X148996Y276799D01*
X149179Y277075D01*
X149254Y277246D01*
X149137Y277483D01*
X148939Y277745D01*
X148710Y277933D01*
X148451Y278045D01*
X148162Y278083D01*
X149503D01*
X149559Y278374D01*
X149629Y278964D01*
X149671Y279634D01*
X149685Y280382D01*
X153622D01*
X153635Y279634D01*
D02*
G37*
G36*
X144472Y279567D02*
X144582Y278307D01*
X144612Y278150D01*
X146012D01*
X145717Y278111D01*
X145452Y277993D01*
X145220Y277797D01*
X145018Y277523D01*
X144867Y277212D01*
X144954Y277008D01*
X145133Y276732D01*
X145339Y276535D01*
X145573Y276417D01*
X145834Y276378D01*
X144630D01*
X144598Y276231D01*
X144521Y275644D01*
X144474Y274978D01*
X144459Y274234D01*
X140522D01*
X140506Y274978D01*
X140380Y276231D01*
X140348Y276378D01*
X139166D01*
X139423Y276417D01*
X139654Y276535D01*
X139857Y276732D01*
X140033Y277008D01*
X140114Y277200D01*
X139955Y277523D01*
X139751Y277797D01*
X139515Y277993D01*
X139248Y278111D01*
X138949Y278150D01*
X140371D01*
X140400Y278307D01*
X140467Y278897D01*
X140508Y279567D01*
X140522Y280315D01*
X144459D01*
X144472Y279567D01*
D02*
G37*
G36*
X96181Y290118D02*
X96220Y281709D01*
X95868Y281354D01*
X94358D01*
Y276811D01*
X93858D01*
Y276311D01*
X90496D01*
Y273425D01*
X87638D01*
X86496Y274567D01*
Y289646D01*
X88425Y291575D01*
X94724D01*
X96181Y290118D01*
D02*
G37*
G36*
X56590Y261123D02*
X56638Y260586D01*
X56717Y260112D01*
X56827Y259701D01*
X56968Y259353D01*
X57142Y259068D01*
X57346Y258847D01*
X57583Y258689D01*
X57850Y258594D01*
X58150Y258563D01*
X51850D01*
X52150Y258594D01*
X52417Y258689D01*
X52653Y258847D01*
X52858Y259068D01*
X53031Y259353D01*
X53173Y259701D01*
X53284Y260112D01*
X53362Y260586D01*
X53409Y261123D01*
X53425Y261724D01*
X56575D01*
X56590Y261123D01*
D02*
G37*
G36*
X37669Y257826D02*
X37764Y257797D01*
X37921Y257771D01*
X38142Y257749D01*
X39181Y257702D01*
X40787Y257687D01*
Y254537D01*
X40189Y254533D01*
X38142Y254395D01*
X37921Y254344D01*
X37764Y254284D01*
X37669Y254217D01*
X37638Y254142D01*
Y257858D01*
X37669Y257826D01*
D02*
G37*
G36*
X51469Y253874D02*
X51437Y254000D01*
X51343Y254113D01*
X51185Y254212D01*
X50965Y254299D01*
X50681Y254372D01*
X50335Y254431D01*
X49925Y254478D01*
X48917Y254531D01*
X48319Y254537D01*
Y257687D01*
X48917Y257696D01*
X49925Y257767D01*
X50335Y257829D01*
X50681Y257909D01*
X50965Y258007D01*
X51185Y258122D01*
X51343Y258255D01*
X51437Y258406D01*
X51469Y258575D01*
Y253874D01*
D02*
G37*
G36*
X43044Y219618D02*
X43018Y219721D01*
X42943Y219813D01*
X42816Y219895D01*
X42640Y219965D01*
X42413Y220025D01*
X42135Y220074D01*
X41807Y220112D01*
X41000Y220155D01*
X40520Y220161D01*
Y223310D01*
X41001Y223320D01*
X41812Y223395D01*
X42142Y223462D01*
X42421Y223547D01*
X42649Y223652D01*
X42826Y223775D01*
X42953Y223917D01*
X43030Y224078D01*
X43055Y224259D01*
X43044Y219618D01*
D02*
G37*
G36*
X63773Y219611D02*
X63717Y219553D01*
X63667Y219457D01*
X63624Y219323D01*
X63587Y219150D01*
X63557Y218939D01*
X63517Y218402D01*
X63504Y217711D01*
X60354D01*
X60366Y219618D01*
X63836Y219630D01*
X63773Y219611D01*
D02*
G37*
G36*
X51980Y214753D02*
X51334Y214093D01*
X49865Y212413D01*
X49531Y211952D01*
X49275Y211541D01*
X49097Y211180D01*
X48997Y210870D01*
X48975Y210608D01*
X49031Y210397D01*
X46578Y215212D01*
X46695Y215062D01*
X46857Y214985D01*
X47063Y214980D01*
X47314Y215048D01*
X47609Y215188D01*
X47949Y215401D01*
X48333Y215687D01*
X48762Y216045D01*
X49753Y216980D01*
X51980Y214753D01*
D02*
G37*
G36*
X27358Y213638D02*
X27260Y213532D01*
X27173Y213354D01*
X27098Y213106D01*
X27034Y212788D01*
X26982Y212398D01*
X26913Y211406D01*
X26890Y210130D01*
X23347D01*
X23341Y210803D01*
X23202Y212788D01*
X23138Y213106D01*
X23063Y213354D01*
X22976Y213532D01*
X22878Y213638D01*
X22768Y213673D01*
X27468D01*
X27358Y213638D01*
D02*
G37*
G36*
X197678Y209303D02*
X196645Y208260D01*
X192733Y203793D01*
X192462Y203348D01*
X192299Y202988D01*
X192244Y202714D01*
X188305Y206653D01*
X188579Y206708D01*
X188938Y206871D01*
X189383Y207143D01*
X189914Y207523D01*
X191232Y208610D01*
X193850Y211055D01*
X194894Y212087D01*
X197678Y209303D01*
D02*
G37*
G36*
X156890Y199454D02*
X156800Y199488D01*
X156685Y199483D01*
X156544Y199439D01*
X156378Y199358D01*
X156187Y199238D01*
X155971Y199080D01*
X155462Y198649D01*
X154852Y198065D01*
X151827Y201999D01*
X155652Y204627D01*
X156890Y199454D01*
D02*
G37*
G36*
X34492Y199744D02*
X34626Y197697D01*
X34675Y197476D01*
X34732Y197319D01*
X34797Y197224D01*
X34870Y197193D01*
X30957D01*
X31029Y197224D01*
X31094Y197319D01*
X31152Y197476D01*
X31201Y197697D01*
X31243Y197980D01*
X31304Y198736D01*
X31339Y200342D01*
X34488D01*
X34492Y199744D01*
D02*
G37*
G36*
X24314Y198961D02*
X24398Y197978D01*
X24449Y197738D01*
X24510Y197542D01*
X24584Y197389D01*
X24668Y197280D01*
X24763Y197215D01*
X24870Y197193D01*
X20957D01*
X20995Y197215D01*
X21030Y197280D01*
X21060Y197389D01*
X21086Y197542D01*
X21108Y197738D01*
X21151Y198590D01*
X21159Y199375D01*
X24308D01*
X24314Y198961D01*
D02*
G37*
G36*
X206300Y199303D02*
X205268Y198259D01*
X201356Y193793D01*
X201084Y193348D01*
X200921Y192988D01*
X200866Y192714D01*
X196927Y196653D01*
X197201Y196708D01*
X197560Y196871D01*
X198005Y197143D01*
X198536Y197523D01*
X199854Y198610D01*
X202472Y201055D01*
X203516Y202087D01*
X206300Y199303D01*
D02*
G37*
G36*
X12496Y186407D02*
X12543Y185870D01*
X12622Y185395D01*
X12732Y184984D01*
X12874Y184636D01*
X13047Y184352D01*
X13252Y184131D01*
X13488Y183973D01*
X13756Y183878D01*
X14055Y183846D01*
X7756D01*
X8055Y183878D01*
X8323Y183973D01*
X8559Y184131D01*
X8764Y184352D01*
X8937Y184636D01*
X9079Y184984D01*
X9189Y185395D01*
X9268Y185870D01*
X9315Y186407D01*
X9331Y187008D01*
X12480D01*
X12496Y186407D01*
D02*
G37*
G36*
X166085Y192172D02*
X165985Y192011D01*
X166693Y192719D01*
X166747Y192445D01*
X166911Y192085D01*
X167182Y191640D01*
X167563Y191110D01*
X168649Y189792D01*
X171094Y187174D01*
X172126Y186130D01*
X169343Y183346D01*
X168299Y184378D01*
X163832Y188290D01*
X163387Y188562D01*
X163028Y188725D01*
X162753Y188779D01*
X163296Y189322D01*
X163077Y189504D01*
X162824Y189673D01*
X162590Y189799D01*
X162376Y189881D01*
X162181Y189920D01*
X162005Y189916D01*
X161850Y189868D01*
X161713Y189777D01*
X162365Y194908D01*
X166085Y192172D01*
D02*
G37*
G36*
X14140Y169669D02*
X13874Y169551D01*
X13640Y169354D01*
X13437Y169079D01*
X13265Y168725D01*
X13124Y168291D01*
X13015Y167780D01*
X12936Y167189D01*
X12932Y167119D01*
X12997Y166366D01*
X13093Y165854D01*
X13216Y165421D01*
X13366Y165067D01*
X13543Y164791D01*
X13748Y164594D01*
X13980Y164476D01*
X14240Y164437D01*
X7571D01*
X7831Y164476D01*
X8063Y164594D01*
X8268Y164791D01*
X8445Y165067D01*
X8596Y165421D01*
X8719Y165854D01*
X8814Y166366D01*
X8880Y166936D01*
X8796Y167780D01*
X8687Y168291D01*
X8546Y168725D01*
X8374Y169079D01*
X8171Y169354D01*
X7937Y169551D01*
X7671Y169669D01*
X7374Y169709D01*
X14437D01*
X14140Y169669D01*
D02*
G37*
G36*
X156906Y198279D02*
X157189Y198116D01*
X157504Y198031D01*
X157669Y197963D01*
X157665Y197445D01*
X157189Y197317D01*
X156063Y196667D01*
X155144Y195748D01*
X154494Y194622D01*
X154157Y193367D01*
Y192067D01*
X154494Y190811D01*
X155144Y189685D01*
X156063Y188766D01*
X157189Y188116D01*
X157714Y187975D01*
Y187458D01*
X157189Y187317D01*
X156063Y186667D01*
X155144Y185748D01*
X154494Y184622D01*
X154157Y183367D01*
Y182067D01*
X154494Y180811D01*
X155144Y179685D01*
X156063Y178766D01*
X157189Y178116D01*
X157714Y177975D01*
Y177458D01*
X157189Y177317D01*
X156063Y176667D01*
X155144Y175748D01*
X154494Y174622D01*
X154157Y173366D01*
Y172067D01*
X154494Y170811D01*
X155144Y169685D01*
X156063Y168766D01*
X157189Y168116D01*
X158444Y167780D01*
X159745D01*
X161000Y168116D01*
X162126Y168766D01*
X163045Y169685D01*
X163695Y170811D01*
X164032Y172067D01*
Y173366D01*
X163695Y174622D01*
X163045Y175748D01*
X162126Y176667D01*
X161000Y177317D01*
X160475Y177458D01*
Y177975D01*
X161000Y178116D01*
X162126Y178766D01*
X163045Y179685D01*
X163695Y180811D01*
X164032Y182067D01*
Y183367D01*
X163695Y184622D01*
X163045Y185748D01*
X162126Y186667D01*
X161000Y187317D01*
X160475Y187458D01*
Y187975D01*
X160977Y188110D01*
X161467Y187907D01*
X162730Y187740D01*
X162909Y187659D01*
X163226Y187466D01*
X167604Y183631D01*
X167854Y183384D01*
X192433Y158805D01*
Y145494D01*
X192323Y145039D01*
X189482Y144647D01*
X188990Y144745D01*
X182034D01*
X181541Y144647D01*
X181124Y144368D01*
X180845Y143951D01*
X180747Y143459D01*
Y142895D01*
X180740Y142830D01*
X180675Y142646D01*
X180566Y142482D01*
X180384Y142314D01*
X180096Y142139D01*
X179689Y141972D01*
X179157Y141829D01*
X178505Y141721D01*
X177737Y141653D01*
X177235Y141640D01*
X173769D01*
X151049Y164359D01*
Y192806D01*
X155907Y197663D01*
X156145Y197891D01*
X156602Y198278D01*
X156713Y198359D01*
X156906Y198279D01*
D02*
G37*
G36*
X181791Y133228D02*
X181741Y133696D01*
X181593Y134114D01*
X181347Y134483D01*
X181001Y134803D01*
X180558Y135074D01*
X180015Y135295D01*
X179374Y135468D01*
X178633Y135591D01*
X177795Y135664D01*
X176857Y135689D01*
Y140610D01*
X177795Y140635D01*
X178633Y140709D01*
X179374Y140832D01*
X180015Y141004D01*
X180558Y141225D01*
X181001Y141496D01*
X181347Y141816D01*
X181593Y142185D01*
X181741Y142603D01*
X181791Y143071D01*
Y133228D01*
D02*
G37*
G36*
X198231Y129532D02*
X198325Y127921D01*
X198360Y127724D01*
X198400Y127569D01*
X198446Y127455D01*
X198497Y127383D01*
X193077D01*
X193129Y127455D01*
X193174Y127569D01*
X193215Y127724D01*
X193250Y127921D01*
X193303Y128440D01*
X193336Y129126D01*
X193347Y129979D01*
X198228D01*
X198231Y129532D01*
D02*
G37*
G36*
X178647Y121798D02*
X178608Y121685D01*
X178574Y121530D01*
X178544Y121333D01*
X178498Y120814D01*
X178463Y119723D01*
X178461Y119275D01*
X173539Y118933D01*
X173536Y119379D01*
X173451Y120757D01*
X173413Y121001D01*
X173367Y121204D01*
X173314Y121367D01*
X173254Y121489D01*
X173187Y121571D01*
X178691Y121869D01*
X178647Y121798D01*
D02*
G37*
G36*
X135688Y97206D02*
X136761Y97241D01*
Y93759D01*
X136680Y93791D01*
X136505Y93819D01*
X136235Y93844D01*
X135688Y93862D01*
Y92744D01*
X135448Y92968D01*
X135192Y93169D01*
X134918Y93347D01*
X134627Y93500D01*
X134320Y93630D01*
X133995Y93736D01*
X133654Y93819D01*
X133296Y93878D01*
X132921Y93913D01*
X132736Y93919D01*
X131688Y93925D01*
Y97075D01*
X133337Y97129D01*
X133654Y97181D01*
X133995Y97264D01*
X134320Y97370D01*
X134627Y97500D01*
X134918Y97654D01*
X135192Y97831D01*
X135448Y98032D01*
X135688Y98256D01*
Y97206D01*
D02*
G37*
G36*
X141390Y98200D02*
X141509Y98150D01*
X141669Y98105D01*
X141870Y98067D01*
X142112Y98035D01*
X142719Y97987D01*
X143936Y97961D01*
Y93039D01*
X143489Y93036D01*
X141870Y92933D01*
X141669Y92895D01*
X141509Y92850D01*
X141390Y92800D01*
X141312Y92744D01*
Y98256D01*
X141390Y98200D01*
D02*
G37*
G36*
X54353Y91794D02*
X54419Y91697D01*
X54530Y91558D01*
X55129Y90899D01*
X56548Y89450D01*
X55156Y88058D01*
X52755Y90276D01*
X54331Y91851D01*
X54353Y91794D01*
D02*
G37*
G36*
X135688Y87194D02*
X136775Y87227D01*
Y83773D01*
X136697Y83802D01*
X136525Y83828D01*
X136259Y83851D01*
X135688Y83868D01*
Y82744D01*
X135448Y82968D01*
X135192Y83169D01*
X134918Y83346D01*
X134627Y83500D01*
X134320Y83630D01*
X133995Y83736D01*
X133654Y83819D01*
X133296Y83878D01*
X132921Y83913D01*
X132702Y83920D01*
X131753Y83925D01*
Y87075D01*
X133289Y87121D01*
X133296Y87122D01*
X133654Y87181D01*
X133995Y87264D01*
X134320Y87370D01*
X134627Y87500D01*
X134918Y87653D01*
X135192Y87831D01*
X135448Y88032D01*
X135688Y88256D01*
Y87194D01*
D02*
G37*
G36*
X141394Y88196D02*
X141516Y88143D01*
X141679Y88095D01*
X141882Y88054D01*
X142126Y88020D01*
X142735Y87969D01*
X143951Y87941D01*
Y83059D01*
X143505Y83056D01*
X141882Y82946D01*
X141679Y82905D01*
X141516Y82858D01*
X141394Y82804D01*
X141312Y82744D01*
Y88256D01*
X141394Y88196D01*
D02*
G37*
G36*
X82686Y75953D02*
X82653Y75955D01*
X82175Y75960D01*
X79525Y75965D01*
Y78169D01*
X82686Y78181D01*
Y75953D01*
D02*
G37*
G36*
X141390Y78200D02*
X141509Y78150D01*
X141669Y78105D01*
X141870Y78067D01*
X142112Y78035D01*
X142719Y77987D01*
X143936Y77961D01*
Y73039D01*
X143489Y73036D01*
X141870Y72933D01*
X141669Y72895D01*
X141509Y72850D01*
X141390Y72800D01*
X141312Y72744D01*
Y78256D01*
X141390Y78200D01*
D02*
G37*
G36*
X137070Y71832D02*
X136920Y71870D01*
X136757Y71874D01*
X136578Y71844D01*
X136385Y71780D01*
X136178Y71681D01*
X135956Y71548D01*
X135720Y71381D01*
X135469Y71180D01*
X134925Y70675D01*
X132913Y74231D01*
X133228Y74549D01*
X134542Y76039D01*
X134602Y76148D01*
X134631Y76230D01*
X137070Y71832D01*
D02*
G37*
%LPC*%
G36*
X41193Y380537D02*
X40216D01*
X39250Y380345D01*
X38431Y379797D01*
X37884Y378978D01*
X37692Y378012D01*
Y372114D01*
X41193D01*
Y380537D01*
D02*
G37*
G36*
X33138Y374238D02*
Y371799D01*
X35577D01*
X35404Y372445D01*
X35013Y373122D01*
X34460Y373675D01*
X33784Y374065D01*
X33138Y374238D01*
D02*
G37*
G36*
X32138D02*
X31492Y374065D01*
X30815Y373675D01*
X30262Y373122D01*
X29872Y372445D01*
X29699Y371799D01*
X32138D01*
Y374238D01*
D02*
G37*
G36*
X35577Y370799D02*
X33138D01*
Y368360D01*
X33784Y368533D01*
X34460Y368924D01*
X35013Y369477D01*
X35404Y370153D01*
X35577Y370799D01*
D02*
G37*
G36*
X32138D02*
X29699D01*
X29872Y370153D01*
X30262Y369477D01*
X30815Y368924D01*
X31492Y368533D01*
X32138Y368360D01*
Y370799D01*
D02*
G37*
G36*
X41193Y371114D02*
X37692D01*
Y365217D01*
X37884Y364250D01*
X38431Y363431D01*
X39250Y362884D01*
X40216Y362692D01*
X41193D01*
Y371114D01*
D02*
G37*
G36*
X4083Y362909D02*
Y361681D01*
X5310D01*
X5098Y362194D01*
X4595Y362696D01*
X4083Y362909D01*
D02*
G37*
G36*
X3083D02*
X2570Y362696D01*
X2067Y362194D01*
X1855Y361681D01*
X3083D01*
Y362909D01*
D02*
G37*
G36*
X5310Y360681D02*
X4083D01*
Y359454D01*
X4595Y359666D01*
X5098Y360169D01*
X5310Y360681D01*
D02*
G37*
G36*
X3083D02*
X1855D01*
X2067Y360169D01*
X2570Y359666D01*
X3083Y359454D01*
Y360681D01*
D02*
G37*
G36*
X15421Y355262D02*
Y352823D01*
X17861D01*
X17687Y353469D01*
X17297Y354146D01*
X16744Y354698D01*
X16067Y355089D01*
X15421Y355262D01*
D02*
G37*
G36*
X14421D02*
X13776Y355089D01*
X13099Y354698D01*
X12546Y354146D01*
X12155Y353469D01*
X11982Y352823D01*
X14421D01*
Y355262D01*
D02*
G37*
G36*
X28768Y353294D02*
Y350854D01*
X31207D01*
X31034Y351500D01*
X30643Y352177D01*
X30090Y352730D01*
X29414Y353120D01*
X28768Y353294D01*
D02*
G37*
G36*
X27768D02*
X27122Y353120D01*
X26445Y352730D01*
X25892Y352177D01*
X25501Y351500D01*
X25328Y350854D01*
X27768D01*
Y353294D01*
D02*
G37*
G36*
X34933Y353165D02*
X32858D01*
Y350697D01*
X34933D01*
Y353165D01*
D02*
G37*
G36*
X17861Y351823D02*
X15421D01*
Y349384D01*
X16067Y349557D01*
X16744Y349947D01*
X17297Y350500D01*
X17687Y351177D01*
X17861Y351823D01*
D02*
G37*
G36*
X14421D02*
X11982D01*
X12155Y351177D01*
X12546Y350500D01*
X13099Y349947D01*
X13776Y349557D01*
X14421Y349384D01*
Y351823D01*
D02*
G37*
G36*
X31207Y349854D02*
X28768D01*
Y347415D01*
X29414Y347588D01*
X30090Y347979D01*
X30643Y348532D01*
X31034Y349208D01*
X31207Y349854D01*
D02*
G37*
G36*
X27768D02*
X25328D01*
X25501Y349208D01*
X25892Y348532D01*
X26445Y347979D01*
X27122Y347588D01*
X27768Y347415D01*
Y349854D01*
D02*
G37*
G36*
X34933Y349697D02*
X32858D01*
Y347228D01*
X34933D01*
Y349697D01*
D02*
G37*
G36*
X15702Y347331D02*
X15500D01*
Y342500D01*
X20331D01*
Y342702D01*
X19967Y344058D01*
X19266Y345273D01*
X18273Y346266D01*
X17058Y346967D01*
X15702Y347331D01*
D02*
G37*
G36*
X14500D02*
X14298D01*
X12942Y346967D01*
X11727Y346266D01*
X10734Y345273D01*
X10033Y344058D01*
X9669Y342702D01*
Y342500D01*
X14500D01*
Y347331D01*
D02*
G37*
G36*
X20331Y341500D02*
X15500D01*
Y336669D01*
X15702D01*
X17058Y337033D01*
X18273Y337734D01*
X19266Y338727D01*
X19967Y339942D01*
X20331Y341298D01*
Y341500D01*
D02*
G37*
G36*
X14500D02*
X9669D01*
Y341298D01*
X10033Y339942D01*
X10734Y338727D01*
X11727Y337734D01*
X12942Y337033D01*
X14298Y336669D01*
X14500D01*
Y341500D01*
D02*
G37*
G36*
X4634Y335743D02*
Y334516D01*
X5861D01*
X5649Y335028D01*
X5146Y335531D01*
X4634Y335743D01*
D02*
G37*
G36*
X3634D02*
X3121Y335531D01*
X2619Y335028D01*
X2406Y334516D01*
X3634D01*
Y335743D01*
D02*
G37*
G36*
X69634Y333539D02*
Y332311D01*
X70861D01*
X70649Y332823D01*
X70146Y333326D01*
X69634Y333539D01*
D02*
G37*
G36*
X68634D02*
X68121Y333326D01*
X67619Y332823D01*
X67406Y332311D01*
X68634D01*
Y333539D01*
D02*
G37*
G36*
X5861Y333516D02*
X4634D01*
Y332288D01*
X5146Y332501D01*
X5649Y333003D01*
X5861Y333516D01*
D02*
G37*
G36*
X3634D02*
X2406D01*
X2619Y333003D01*
X3121Y332501D01*
X3634Y332288D01*
Y333516D01*
D02*
G37*
G36*
X70861Y331311D02*
X69634D01*
Y330083D01*
X70146Y330296D01*
X70649Y330799D01*
X70861Y331311D01*
D02*
G37*
G36*
X68634D02*
X67406D01*
X67619Y330799D01*
X68121Y330296D01*
X68634Y330083D01*
Y331311D01*
D02*
G37*
G36*
X69240Y320743D02*
Y319516D01*
X70468D01*
X70255Y320028D01*
X69753Y320531D01*
X69240Y320743D01*
D02*
G37*
G36*
X68240D02*
X67728Y320531D01*
X67225Y320028D01*
X67013Y319516D01*
X68240D01*
Y320743D01*
D02*
G37*
G36*
X70468Y318516D02*
X69240D01*
Y317288D01*
X69753Y317500D01*
X70255Y318003D01*
X70468Y318516D01*
D02*
G37*
G36*
X68240D02*
X67013D01*
X67225Y318003D01*
X67728Y317500D01*
X68240Y317288D01*
Y318516D01*
D02*
G37*
G36*
X234854Y318263D02*
X234342Y318051D01*
X233839Y317548D01*
X233627Y317035D01*
X234854D01*
Y318263D01*
D02*
G37*
G36*
Y316035D02*
X233627D01*
X233839Y315523D01*
X234342Y315020D01*
X234854Y314808D01*
Y316035D01*
D02*
G37*
G36*
X69358Y311452D02*
Y310224D01*
X70586D01*
X70374Y310737D01*
X69871Y311240D01*
X69358Y311452D01*
D02*
G37*
G36*
X68358D02*
X67846Y311240D01*
X67343Y310737D01*
X67131Y310224D01*
X68358D01*
Y311452D01*
D02*
G37*
G36*
X70586Y309224D02*
X69358D01*
Y307997D01*
X69871Y308209D01*
X70374Y308712D01*
X70586Y309224D01*
D02*
G37*
G36*
X68358D02*
X67131D01*
X67343Y308712D01*
X67846Y308209D01*
X68358Y307997D01*
Y309224D01*
D02*
G37*
G36*
X64713Y306885D02*
Y305658D01*
X65940D01*
X65728Y306170D01*
X65225Y306673D01*
X64713Y306885D01*
D02*
G37*
G36*
X63713D02*
X63200Y306673D01*
X62697Y306170D01*
X62485Y305658D01*
X63713D01*
Y306885D01*
D02*
G37*
G36*
X65940Y304658D02*
X64713D01*
Y303430D01*
X65225Y303642D01*
X65728Y304145D01*
X65940Y304658D01*
D02*
G37*
G36*
X63713D02*
X62485D01*
X62697Y304145D01*
X63200Y303642D01*
X63713Y303430D01*
Y304658D01*
D02*
G37*
G36*
X59083Y302594D02*
Y301366D01*
X60310D01*
X60098Y301879D01*
X59595Y302381D01*
X59083Y302594D01*
D02*
G37*
G36*
X58083D02*
X57570Y302381D01*
X57067Y301879D01*
X56855Y301366D01*
X58083D01*
Y302594D01*
D02*
G37*
G36*
X36445Y302515D02*
Y301287D01*
X37672D01*
X37460Y301800D01*
X36957Y302303D01*
X36445Y302515D01*
D02*
G37*
G36*
X35445D02*
X34932Y302303D01*
X34430Y301800D01*
X34217Y301287D01*
X35445D01*
Y302515D01*
D02*
G37*
G36*
X60310Y300366D02*
X59083D01*
Y299139D01*
X59595Y299351D01*
X60098Y299854D01*
X60310Y300366D01*
D02*
G37*
G36*
X58083D02*
X56855D01*
X57067Y299854D01*
X57570Y299351D01*
X58083Y299139D01*
Y300366D01*
D02*
G37*
G36*
X37672Y300287D02*
X36445D01*
Y299060D01*
X36957Y299272D01*
X37460Y299775D01*
X37672Y300287D01*
D02*
G37*
G36*
X35445D02*
X34217D01*
X34430Y299775D01*
X34932Y299272D01*
X35445Y299060D01*
Y300287D01*
D02*
G37*
G36*
X54634Y298696D02*
Y297468D01*
X55861D01*
X55649Y297981D01*
X55146Y298484D01*
X54634Y298696D01*
D02*
G37*
G36*
X53634D02*
X53121Y298484D01*
X52619Y297981D01*
X52406Y297468D01*
X53634D01*
Y298696D01*
D02*
G37*
G36*
X234673Y297633D02*
Y296406D01*
X235901D01*
X235688Y296918D01*
X235186Y297421D01*
X234673Y297633D01*
D02*
G37*
G36*
X233673D02*
X233161Y297421D01*
X232658Y296918D01*
X232446Y296406D01*
X233673D01*
Y297633D01*
D02*
G37*
G36*
X55861Y296468D02*
X54634D01*
Y295241D01*
X55146Y295453D01*
X55649Y295956D01*
X55861Y296468D01*
D02*
G37*
G36*
X53634D02*
X52406D01*
X52619Y295956D01*
X53121Y295453D01*
X53634Y295241D01*
Y296468D01*
D02*
G37*
G36*
X235901Y295406D02*
X234673D01*
Y294178D01*
X235186Y294390D01*
X235688Y294893D01*
X235901Y295406D01*
D02*
G37*
G36*
X233673D02*
X232446D01*
X232658Y294893D01*
X233161Y294390D01*
X233673Y294178D01*
Y295406D01*
D02*
G37*
G36*
X49831Y294287D02*
Y293059D01*
X51058D01*
X50846Y293571D01*
X50343Y294074D01*
X49831Y294287D01*
D02*
G37*
G36*
X48831D02*
X48318Y294074D01*
X47815Y293571D01*
X47603Y293059D01*
X48831D01*
Y294287D01*
D02*
G37*
G36*
X51058Y292059D02*
X49831D01*
Y290831D01*
X50343Y291044D01*
X50846Y291547D01*
X51058Y292059D01*
D02*
G37*
G36*
X48831D02*
X47603D01*
X47815Y291547D01*
X48318Y291044D01*
X48831Y290831D01*
Y292059D01*
D02*
G37*
G36*
X15702Y327331D02*
X14298D01*
X12942Y326967D01*
X11727Y326266D01*
X10734Y325273D01*
X10033Y324058D01*
X9669Y322702D01*
Y321298D01*
X10033Y319942D01*
X10517Y319104D01*
Y308471D01*
X5806Y303761D01*
X5094Y302832D01*
X4646Y301751D01*
X4493Y300590D01*
Y298612D01*
X4492Y298485D01*
X4445Y297421D01*
X4295D01*
Y296455D01*
X4288Y296419D01*
X4289Y296414D01*
X4288Y296409D01*
X4295Y296371D01*
Y285579D01*
X13382D01*
Y291047D01*
X13460Y291638D01*
Y298733D01*
X18170Y303444D01*
X18883Y304373D01*
X19331Y305454D01*
X19483Y306614D01*
Y319104D01*
X19967Y319942D01*
X20331Y321298D01*
Y322702D01*
X19967Y324058D01*
X19266Y325273D01*
X18273Y326266D01*
X17058Y326967D01*
X15702Y327331D01*
D02*
G37*
G36*
X6366Y274208D02*
Y272980D01*
X7594D01*
X7381Y273493D01*
X6879Y273996D01*
X6366Y274208D01*
D02*
G37*
G36*
X5366D02*
X4854Y273996D01*
X4351Y273493D01*
X4139Y272980D01*
X5366D01*
Y274208D01*
D02*
G37*
G36*
X48689Y273617D02*
Y272390D01*
X49916D01*
X49704Y272902D01*
X49202Y273405D01*
X48689Y273617D01*
D02*
G37*
G36*
X47689D02*
X47177Y273405D01*
X46674Y272902D01*
X46461Y272390D01*
X47689D01*
Y273617D01*
D02*
G37*
G36*
X234673Y273184D02*
Y271957D01*
X235901D01*
X235688Y272469D01*
X235186Y272972D01*
X234673Y273184D01*
D02*
G37*
G36*
X233673D02*
X233161Y272972D01*
X232658Y272469D01*
X232446Y271957D01*
X233673D01*
Y273184D01*
D02*
G37*
G36*
X7594Y271980D02*
X6366D01*
Y270753D01*
X6879Y270965D01*
X7381Y271468D01*
X7594Y271980D01*
D02*
G37*
G36*
X5366D02*
X4139D01*
X4351Y271468D01*
X4854Y270965D01*
X5366Y270753D01*
Y271980D01*
D02*
G37*
G36*
X32378Y273673D02*
X30303D01*
Y270417D01*
X32378D01*
Y273673D01*
D02*
G37*
G36*
X29303D02*
X27228D01*
Y270417D01*
X29303D01*
Y273673D01*
D02*
G37*
G36*
X49916Y271390D02*
X48689D01*
Y270162D01*
X49202Y270374D01*
X49704Y270877D01*
X49916Y271390D01*
D02*
G37*
G36*
X47689D02*
X46461D01*
X46674Y270877D01*
X47177Y270374D01*
X47689Y270162D01*
Y271390D01*
D02*
G37*
G36*
X235901Y270957D02*
X234673D01*
Y269729D01*
X235186Y269941D01*
X235688Y270444D01*
X235901Y270957D01*
D02*
G37*
G36*
X233673D02*
X232446D01*
X232658Y270444D01*
X233161Y269941D01*
X233673Y269729D01*
Y270957D01*
D02*
G37*
G36*
X49122Y264208D02*
Y262980D01*
X50350D01*
X50137Y263493D01*
X49635Y263996D01*
X49122Y264208D01*
D02*
G37*
G36*
X48122D02*
X47610Y263996D01*
X47107Y263493D01*
X46894Y262980D01*
X48122D01*
Y264208D01*
D02*
G37*
G36*
X50350Y261980D02*
X49122D01*
Y260753D01*
X49635Y260965D01*
X50137Y261468D01*
X50350Y261980D01*
D02*
G37*
G36*
X48122D02*
X46894D01*
X47107Y261468D01*
X47610Y260965D01*
X48122Y260753D01*
Y261980D01*
D02*
G37*
G36*
X233689Y256334D02*
Y255106D01*
X234916D01*
X234704Y255619D01*
X234202Y256122D01*
X233689Y256334D01*
D02*
G37*
G36*
X232689D02*
X232176Y256122D01*
X231674Y255619D01*
X231461Y255106D01*
X232689D01*
Y256334D01*
D02*
G37*
G36*
X234916Y254106D02*
X233689D01*
Y252879D01*
X234202Y253091D01*
X234704Y253594D01*
X234916Y254106D01*
D02*
G37*
G36*
X232689D02*
X231461D01*
X231674Y253594D01*
X232176Y253091D01*
X232689Y252879D01*
Y254106D01*
D02*
G37*
G36*
X51469Y250145D02*
X51462Y250144D01*
X51455Y250145D01*
X51420Y250138D01*
X50457D01*
Y249788D01*
X49682Y249733D01*
X49543Y249862D01*
Y249862D01*
X48629D01*
X48614Y249866D01*
X48577Y249862D01*
X48570D01*
X48531Y249870D01*
X48493Y249862D01*
X43957D01*
X43374Y249939D01*
X33417D01*
X32642Y249837D01*
X32589Y249815D01*
X28185D01*
Y244075D01*
X32589D01*
X32642Y244053D01*
X33417Y243951D01*
X38071D01*
X38247Y243949D01*
X39456Y243885D01*
X39908Y243834D01*
X40271Y243772D01*
X40457Y243724D01*
Y243138D01*
X41431D01*
X41469Y243130D01*
X41507Y243138D01*
X48493D01*
X48531Y243130D01*
X48538Y243131D01*
X48545Y243130D01*
X48580Y243138D01*
X49543D01*
Y243487D01*
X50318Y243542D01*
X50457Y243413D01*
Y243413D01*
X51371D01*
X51386Y243409D01*
X51423Y243413D01*
X51430D01*
X51469Y243406D01*
X51507Y243413D01*
X59543D01*
Y250138D01*
X51507D01*
X51469Y250145D01*
D02*
G37*
G36*
X15724Y241512D02*
X13650D01*
Y238256D01*
X15724D01*
Y241512D01*
D02*
G37*
G36*
X12650D02*
X10575D01*
Y238256D01*
X12650D01*
Y241512D01*
D02*
G37*
G36*
X234673Y239287D02*
Y238059D01*
X235901D01*
X235688Y238572D01*
X235186Y239074D01*
X234673Y239287D01*
D02*
G37*
G36*
X233673D02*
X233161Y239074D01*
X232658Y238572D01*
X232446Y238059D01*
X233673D01*
Y239287D01*
D02*
G37*
G36*
X19516Y239090D02*
Y237862D01*
X20743D01*
X20531Y238375D01*
X20028Y238878D01*
X19516Y239090D01*
D02*
G37*
G36*
X18516D02*
X18003Y238878D01*
X17501Y238375D01*
X17288Y237862D01*
X18516D01*
Y239090D01*
D02*
G37*
G36*
X49543Y240413D02*
X45500D01*
Y237551D01*
X49543D01*
Y240413D01*
D02*
G37*
G36*
X44500D02*
X40457D01*
Y237551D01*
X44500D01*
Y240413D01*
D02*
G37*
G36*
X34228Y238432D02*
Y237205D01*
X35456D01*
X35244Y237717D01*
X34741Y238220D01*
X34228Y238432D01*
D02*
G37*
G36*
X33228D02*
X32716Y238220D01*
X32213Y237717D01*
X32001Y237205D01*
X33228D01*
Y238432D01*
D02*
G37*
G36*
X55843Y238078D02*
Y236850D01*
X57070D01*
X56858Y237363D01*
X56355Y237866D01*
X55843Y238078D01*
D02*
G37*
G36*
X54843D02*
X54330Y237866D01*
X53827Y237363D01*
X53615Y236850D01*
X54843D01*
Y238078D01*
D02*
G37*
G36*
X235901Y237059D02*
X234673D01*
Y235831D01*
X235186Y236044D01*
X235688Y236547D01*
X235901Y237059D01*
D02*
G37*
G36*
X233673D02*
X232446D01*
X232658Y236547D01*
X233161Y236044D01*
X233673Y235831D01*
Y237059D01*
D02*
G37*
G36*
X20743Y236862D02*
X19516D01*
Y235635D01*
X20028Y235847D01*
X20531Y236350D01*
X20743Y236862D01*
D02*
G37*
G36*
X18516D02*
X17288D01*
X17501Y236350D01*
X18003Y235847D01*
X18516Y235635D01*
Y236862D01*
D02*
G37*
G36*
X35456Y236205D02*
X34228D01*
Y234977D01*
X34741Y235189D01*
X35244Y235692D01*
X35456Y236205D01*
D02*
G37*
G36*
X33228D02*
X32001D01*
X32213Y235692D01*
X32716Y235189D01*
X33228Y234977D01*
Y236205D01*
D02*
G37*
G36*
X57070Y235850D02*
X55843D01*
Y234623D01*
X56355Y234835D01*
X56858Y235338D01*
X57070Y235850D01*
D02*
G37*
G36*
X54843D02*
X53615D01*
X53827Y235338D01*
X54330Y234835D01*
X54843Y234623D01*
Y235850D01*
D02*
G37*
G36*
X15724Y237256D02*
X13650D01*
Y234000D01*
X15724D01*
Y237256D01*
D02*
G37*
G36*
X12650D02*
X10575D01*
Y234000D01*
X12650D01*
Y237256D01*
D02*
G37*
G36*
X49543Y236551D02*
X45500D01*
Y233689D01*
X49543D01*
Y236551D01*
D02*
G37*
G36*
X44500D02*
X40457D01*
Y233689D01*
X44500D01*
Y236551D01*
D02*
G37*
G36*
X41236Y233047D02*
X38571D01*
Y229201D01*
X41236D01*
Y233047D01*
D02*
G37*
G36*
X37571D02*
X34905D01*
Y229201D01*
X37571D01*
Y233047D01*
D02*
G37*
G36*
Y228201D02*
X34905D01*
Y224354D01*
X37571D01*
Y228201D01*
D02*
G37*
G36*
X23756Y233126D02*
X17031D01*
Y224039D01*
X23756D01*
Y225480D01*
X23765Y225564D01*
X23777Y225598D01*
X23797Y225628D01*
X23855Y225682D01*
X23983Y225760D01*
X24196Y225847D01*
X24497Y225927D01*
X24606Y225946D01*
X24715Y225927D01*
X25017Y225847D01*
X25230Y225760D01*
X25357Y225682D01*
X25416Y225628D01*
X25436Y225598D01*
X25448Y225564D01*
X25457Y225480D01*
Y224354D01*
X31787D01*
Y233047D01*
X25457D01*
Y231803D01*
X25448Y231719D01*
X25436Y231685D01*
X25416Y231655D01*
X25357Y231601D01*
X25230Y231524D01*
X25017Y231437D01*
X24715Y231356D01*
X24606Y231338D01*
X24497Y231356D01*
X24196Y231437D01*
X23983Y231524D01*
X23855Y231601D01*
X23797Y231655D01*
X23777Y231685D01*
X23765Y231719D01*
X23756Y231803D01*
Y233126D01*
D02*
G37*
G36*
X15815Y263398D02*
X5350D01*
Y252275D01*
X4542Y251466D01*
X4129Y250928D01*
X3869Y250302D01*
X3781Y249630D01*
Y245709D01*
X3869Y245037D01*
X4129Y244410D01*
X4253Y244248D01*
Y237756D01*
Y230701D01*
X4342Y230029D01*
X4601Y229402D01*
X4997Y228886D01*
X4999Y228884D01*
X5001Y228882D01*
X5014Y228864D01*
X5084Y228795D01*
X6010Y227824D01*
X6771Y226920D01*
X7050Y226542D01*
X7272Y226202D01*
X7432Y225914D01*
X7530Y225687D01*
X7574Y225536D01*
X7583Y225453D01*
Y224039D01*
X10263D01*
X10379Y223991D01*
X11051Y223903D01*
X11723Y223991D01*
X11839Y224039D01*
X14307D01*
Y233126D01*
X9447D01*
Y237756D01*
Y245236D01*
X9359Y245908D01*
X9099Y246535D01*
X8979Y246692D01*
X8987Y247006D01*
X9028Y247472D01*
X9092Y247858D01*
X9173Y248159D01*
X9260Y248373D01*
X9338Y248501D01*
X9392Y248560D01*
X9424Y248581D01*
X9458Y248593D01*
X9543Y248602D01*
X15815D01*
Y263398D01*
D02*
G37*
G36*
X77323Y223133D02*
Y221905D01*
X78550D01*
X78338Y222418D01*
X77835Y222921D01*
X77323Y223133D01*
D02*
G37*
G36*
X76323D02*
X75810Y222921D01*
X75308Y222418D01*
X75095Y221905D01*
X76323D01*
Y223133D01*
D02*
G37*
G36*
X233965Y221491D02*
Y220264D01*
X235192D01*
X234980Y220776D01*
X234477Y221279D01*
X233965Y221491D01*
D02*
G37*
G36*
X232965D02*
X232452Y221279D01*
X231949Y220776D01*
X231737Y220264D01*
X232965D01*
Y221491D01*
D02*
G37*
G36*
X78550Y220905D02*
X77323D01*
Y219678D01*
X77835Y219890D01*
X78338Y220393D01*
X78550Y220905D01*
D02*
G37*
G36*
X76323D02*
X75095D01*
X75308Y220393D01*
X75810Y219890D01*
X76323Y219678D01*
Y220905D01*
D02*
G37*
G36*
X7153Y219838D02*
Y218610D01*
X8381D01*
X8169Y219123D01*
X7666Y219625D01*
X7153Y219838D01*
D02*
G37*
G36*
X6154D02*
X5641Y219625D01*
X5138Y219123D01*
X4926Y218610D01*
X6154D01*
Y219838D01*
D02*
G37*
G36*
X72992Y219669D02*
Y218441D01*
X74220D01*
X74007Y218953D01*
X73505Y219456D01*
X72992Y219669D01*
D02*
G37*
G36*
X71992D02*
X71480Y219456D01*
X70977Y218953D01*
X70765Y218441D01*
X71992D01*
Y219669D01*
D02*
G37*
G36*
X235192Y219264D02*
X233965D01*
Y218036D01*
X234477Y218249D01*
X234980Y218751D01*
X235192Y219264D01*
D02*
G37*
G36*
X232965D02*
X231737D01*
X231949Y218751D01*
X232452Y218249D01*
X232965Y218036D01*
Y219264D01*
D02*
G37*
G36*
X8381Y217610D02*
X7153D01*
Y216383D01*
X7666Y216595D01*
X8169Y217098D01*
X8381Y217610D01*
D02*
G37*
G36*
X6154D02*
X4926D01*
X5138Y217098D01*
X5641Y216595D01*
X6154Y216383D01*
Y217610D01*
D02*
G37*
G36*
X74220Y217441D02*
X72992D01*
Y216213D01*
X73505Y216426D01*
X74007Y216929D01*
X74220Y217441D01*
D02*
G37*
G36*
X71992D02*
X70765D01*
X70977Y216929D01*
X71480Y216426D01*
X71992Y216213D01*
Y217441D01*
D02*
G37*
G36*
X68047Y215778D02*
Y214550D01*
X69275D01*
X69063Y215063D01*
X68560Y215566D01*
X68047Y215778D01*
D02*
G37*
G36*
X67047D02*
X66535Y215566D01*
X66032Y215063D01*
X65820Y214550D01*
X67047D01*
Y215778D01*
D02*
G37*
G36*
X43756Y216236D02*
X41681D01*
Y212980D01*
X43756D01*
Y216236D01*
D02*
G37*
G36*
X69275Y213550D02*
X68047D01*
Y212323D01*
X68560Y212535D01*
X69063Y213038D01*
X69275Y213550D01*
D02*
G37*
G36*
X67047D02*
X65820D01*
X66032Y213038D01*
X66535Y212535D01*
X67047Y212323D01*
Y213550D01*
D02*
G37*
G36*
X63362Y210794D02*
Y209567D01*
X64590D01*
X64377Y210079D01*
X63875Y210582D01*
X63362Y210794D01*
D02*
G37*
G36*
X62362D02*
X61850Y210582D01*
X61347Y210079D01*
X61135Y209567D01*
X62362D01*
Y210794D01*
D02*
G37*
G36*
X64590Y208567D02*
X63362D01*
Y207339D01*
X63875Y207552D01*
X64377Y208054D01*
X64590Y208567D01*
D02*
G37*
G36*
X62362D02*
X61135D01*
X61347Y208054D01*
X61850Y207552D01*
X62362Y207339D01*
Y208567D01*
D02*
G37*
G36*
X58138Y206649D02*
Y205421D01*
X59365D01*
X59153Y205934D01*
X58650Y206436D01*
X58138Y206649D01*
D02*
G37*
G36*
X57138D02*
X56625Y206436D01*
X56122Y205934D01*
X55910Y205421D01*
X57138D01*
Y206649D01*
D02*
G37*
G36*
X43756Y211980D02*
X38606D01*
Y208784D01*
X38606Y208724D01*
Y208283D01*
X38606Y208224D01*
Y205028D01*
X41181D01*
X43756D01*
Y208224D01*
X43756Y208283D01*
Y208724D01*
X43756Y208784D01*
Y211980D01*
D02*
G37*
G36*
X232587Y205586D02*
Y204358D01*
X233814D01*
X233602Y204871D01*
X233099Y205374D01*
X232587Y205586D01*
D02*
G37*
G36*
X231587D02*
X231074Y205374D01*
X230571Y204871D01*
X230359Y204358D01*
X231587D01*
Y205586D01*
D02*
G37*
G36*
X59365Y204421D02*
X58138D01*
Y203194D01*
X58650Y203406D01*
X59153Y203909D01*
X59365Y204421D01*
D02*
G37*
G36*
X57138D02*
X55910D01*
X56122Y203909D01*
X56625Y203406D01*
X57138Y203194D01*
Y204421D01*
D02*
G37*
G36*
X233814Y203358D02*
X232587D01*
Y202131D01*
X233099Y202343D01*
X233602Y202846D01*
X233814Y203358D01*
D02*
G37*
G36*
X231587D02*
X230359D01*
X230571Y202846D01*
X231074Y202343D01*
X231587Y202131D01*
Y203358D01*
D02*
G37*
G36*
X53492Y202633D02*
Y201406D01*
X54720D01*
X54507Y201918D01*
X54005Y202421D01*
X53492Y202633D01*
D02*
G37*
G36*
X52492D02*
X51980Y202421D01*
X51477Y201918D01*
X51265Y201406D01*
X52492D01*
Y202633D01*
D02*
G37*
G36*
X40681Y204028D02*
X38606D01*
Y200772D01*
X40681D01*
Y204028D01*
D02*
G37*
G36*
X54720Y200406D02*
X53492D01*
Y199178D01*
X54005Y199390D01*
X54507Y199893D01*
X54720Y200406D01*
D02*
G37*
G36*
X52492D02*
X51265D01*
X51477Y199893D01*
X51980Y199390D01*
X52492Y199178D01*
Y200406D01*
D02*
G37*
G36*
X55882Y198205D02*
X53413D01*
Y193768D01*
X55882D01*
Y198205D01*
D02*
G37*
G36*
X52413D02*
X49945D01*
Y193768D01*
X52413D01*
Y198205D01*
D02*
G37*
G36*
X219358Y191137D02*
Y189909D01*
X220586D01*
X220374Y190422D01*
X219871Y190925D01*
X219358Y191137D01*
D02*
G37*
G36*
X218358D02*
X217846Y190925D01*
X217343Y190422D01*
X217131Y189909D01*
X218358D01*
Y191137D01*
D02*
G37*
G36*
X55882Y192768D02*
X53413D01*
Y188331D01*
X55882D01*
Y192768D01*
D02*
G37*
G36*
X52413D02*
X49945D01*
Y188331D01*
X52413D01*
Y192768D01*
D02*
G37*
G36*
X220586Y188909D02*
X219358D01*
Y187682D01*
X219871Y187894D01*
X220374Y188397D01*
X220586Y188909D01*
D02*
G37*
G36*
X218358D02*
X217131D01*
X217343Y188397D01*
X217846Y187894D01*
X218358Y187682D01*
Y188909D01*
D02*
G37*
G36*
X212075Y173578D02*
Y172350D01*
X213302D01*
X213090Y172863D01*
X212587Y173366D01*
X212075Y173578D01*
D02*
G37*
G36*
X211075D02*
X210562Y173366D01*
X210059Y172863D01*
X209847Y172350D01*
X211075D01*
Y173578D01*
D02*
G37*
G36*
X232784Y173460D02*
Y172232D01*
X234011D01*
X233799Y172745D01*
X233296Y173248D01*
X232784Y173460D01*
D02*
G37*
G36*
X231784D02*
X231271Y173248D01*
X230768Y172745D01*
X230556Y172232D01*
X231784D01*
Y173460D01*
D02*
G37*
G36*
X213302Y171350D02*
X212075D01*
Y170123D01*
X212587Y170335D01*
X213090Y170838D01*
X213302Y171350D01*
D02*
G37*
G36*
X211075D02*
X209847D01*
X210059Y170838D01*
X210562Y170335D01*
X211075Y170123D01*
Y171350D01*
D02*
G37*
G36*
X234011Y171232D02*
X232784D01*
Y170005D01*
X233296Y170217D01*
X233799Y170720D01*
X234011Y171232D01*
D02*
G37*
G36*
X231784D02*
X230556D01*
X230768Y170720D01*
X231271Y170217D01*
X231784Y170005D01*
Y171232D01*
D02*
G37*
G36*
X53042Y172653D02*
X52862D01*
Y166248D01*
X59268D01*
Y166428D01*
X59002Y167762D01*
X58482Y169019D01*
X57726Y170150D01*
X56764Y171112D01*
X55633Y171868D01*
X54377Y172388D01*
X53042Y172653D01*
D02*
G37*
G36*
X51862D02*
X51682D01*
X50348Y172388D01*
X49091Y171868D01*
X47960Y171112D01*
X46998Y170150D01*
X46243Y169019D01*
X45722Y167762D01*
X45457Y166428D01*
Y166248D01*
X51862D01*
Y172653D01*
D02*
G37*
G36*
X59268Y165248D02*
X52862D01*
Y158843D01*
X53042D01*
X54377Y159108D01*
X55633Y159628D01*
X56764Y160384D01*
X57726Y161346D01*
X58482Y162477D01*
X59002Y163734D01*
X59268Y165068D01*
Y165248D01*
D02*
G37*
G36*
X51862D02*
X45457D01*
Y165068D01*
X45722Y163734D01*
X46243Y162477D01*
X46998Y161346D01*
X47960Y160384D01*
X49091Y159628D01*
X50348Y159108D01*
X51682Y158843D01*
X51862D01*
Y165248D01*
D02*
G37*
G36*
X212350Y159011D02*
Y157783D01*
X213578D01*
X213366Y158296D01*
X212863Y158799D01*
X212350Y159011D01*
D02*
G37*
G36*
X211350D02*
X210838Y158799D01*
X210335Y158296D01*
X210123Y157783D01*
X211350D01*
Y159011D01*
D02*
G37*
G36*
X213578Y156783D02*
X212350D01*
Y155556D01*
X212863Y155768D01*
X213366Y156271D01*
X213578Y156783D01*
D02*
G37*
G36*
X211350D02*
X210123D01*
X210335Y156271D01*
X210838Y155768D01*
X211350Y155556D01*
Y156783D01*
D02*
G37*
G36*
X233217Y155704D02*
Y154476D01*
X234444D01*
X234232Y154989D01*
X233729Y155492D01*
X233217Y155704D01*
D02*
G37*
G36*
X232217D02*
X231704Y155492D01*
X231201Y154989D01*
X230989Y154476D01*
X232217D01*
Y155704D01*
D02*
G37*
G36*
X15252Y156000D02*
X11406D01*
Y153335D01*
X15252D01*
Y156000D01*
D02*
G37*
G36*
X10406D02*
X6559D01*
Y153335D01*
X10406D01*
Y156000D01*
D02*
G37*
G36*
X234444Y153476D02*
X233217D01*
Y152249D01*
X233729Y152461D01*
X234232Y152964D01*
X234444Y153476D01*
D02*
G37*
G36*
X232217D02*
X230989D01*
X231201Y152964D01*
X231704Y152461D01*
X232217Y152249D01*
Y153476D01*
D02*
G37*
G36*
X15252Y152335D02*
X11406D01*
Y149669D01*
X15252D01*
Y152335D01*
D02*
G37*
G36*
X10406D02*
X6559D01*
Y149669D01*
X10406D01*
Y152335D01*
D02*
G37*
G36*
X80783Y138953D02*
X75854D01*
Y134516D01*
X80783D01*
Y138953D01*
D02*
G37*
G36*
X74854D02*
X69925D01*
Y134516D01*
X74854D01*
Y138953D01*
D02*
G37*
G36*
X86130Y135428D02*
Y134201D01*
X87357D01*
X87145Y134713D01*
X86642Y135216D01*
X86130Y135428D01*
D02*
G37*
G36*
X85130D02*
X84617Y135216D01*
X84115Y134713D01*
X83902Y134201D01*
X85130D01*
Y135428D01*
D02*
G37*
G36*
X87357Y133201D02*
X86130D01*
Y131973D01*
X86642Y132185D01*
X87145Y132688D01*
X87357Y133201D01*
D02*
G37*
G36*
X85130D02*
X83902D01*
X84115Y132688D01*
X84617Y132185D01*
X85130Y131973D01*
Y133201D01*
D02*
G37*
G36*
X80783Y133516D02*
X75854D01*
Y129079D01*
X80783D01*
Y133516D01*
D02*
G37*
G36*
X74854D02*
X69925D01*
Y129079D01*
X74854D01*
Y133516D01*
D02*
G37*
G36*
X65882Y138953D02*
X59945D01*
Y129079D01*
X65882D01*
Y138953D01*
D02*
G37*
G36*
X45882D02*
X39945D01*
Y129079D01*
X45882D01*
Y138953D01*
D02*
G37*
G36*
X35882D02*
X29945D01*
Y129079D01*
X35882D01*
Y138953D01*
D02*
G37*
G36*
X25882D02*
X19945D01*
Y129079D01*
X25882D01*
Y138953D01*
D02*
G37*
G36*
X75815Y127742D02*
Y125303D01*
X78254D01*
X78081Y125949D01*
X77690Y126626D01*
X77138Y127179D01*
X76461Y127569D01*
X75815Y127742D01*
D02*
G37*
G36*
X74815D02*
X74169Y127569D01*
X73492Y127179D01*
X72940Y126626D01*
X72549Y125949D01*
X72376Y125303D01*
X74815D01*
Y127742D01*
D02*
G37*
G36*
X234083Y125310D02*
Y124083D01*
X235310D01*
X235098Y124595D01*
X234595Y125098D01*
X234083Y125310D01*
D02*
G37*
G36*
X233083D02*
X232570Y125098D01*
X232067Y124595D01*
X231855Y124083D01*
X233083D01*
Y125310D01*
D02*
G37*
G36*
X78254Y124303D02*
X75815D01*
Y121864D01*
X76461Y122037D01*
X77138Y122428D01*
X77690Y122980D01*
X78081Y123657D01*
X78254Y124303D01*
D02*
G37*
G36*
X74815D02*
X72376D01*
X72549Y123657D01*
X72940Y122980D01*
X73492Y122428D01*
X74169Y122037D01*
X74815Y121864D01*
Y124303D01*
D02*
G37*
G36*
X235310Y123083D02*
X234083D01*
Y121855D01*
X234595Y122067D01*
X235098Y122570D01*
X235310Y123083D01*
D02*
G37*
G36*
X233083D02*
X231855D01*
X232067Y122570D01*
X232570Y122067D01*
X233083Y121855D01*
Y123083D01*
D02*
G37*
G36*
X55882Y138953D02*
X49945D01*
Y130206D01*
X49943Y130201D01*
X49945Y130182D01*
Y130129D01*
X49937Y130091D01*
X49945Y130053D01*
Y129079D01*
X50136D01*
X50233Y127569D01*
X50226Y127280D01*
X50185Y126813D01*
X50120Y126426D01*
X50040Y126125D01*
X49953Y125912D01*
X49875Y125784D01*
X49821Y125726D01*
X49791Y125706D01*
X49757Y125694D01*
X49673Y125685D01*
X48213D01*
Y118961D01*
X57299D01*
Y125685D01*
X55996D01*
X55912Y125694D01*
X55878Y125706D01*
X55848Y125726D01*
X55794Y125784D01*
X55717Y125912D01*
X55630Y126125D01*
X55549Y126426D01*
X55485Y126813D01*
X55444Y127280D01*
X55438Y127490D01*
X55447Y128035D01*
X55499Y128864D01*
X55524Y129079D01*
X55882D01*
Y130017D01*
X55888Y130043D01*
X55885Y130067D01*
X55889Y130091D01*
X55882Y130129D01*
Y138953D01*
D02*
G37*
G36*
X138847Y113302D02*
Y112075D01*
X140074D01*
X139862Y112587D01*
X139359Y113090D01*
X138847Y113302D01*
D02*
G37*
G36*
X137847D02*
X137334Y113090D01*
X136831Y112587D01*
X136619Y112075D01*
X137847D01*
Y113302D01*
D02*
G37*
G36*
X140074Y111075D02*
X138847D01*
Y109847D01*
X139359Y110059D01*
X139862Y110562D01*
X140074Y111075D01*
D02*
G37*
G36*
X137847D02*
X136619D01*
X136831Y110562D01*
X137334Y110059D01*
X137847Y109847D01*
Y111075D01*
D02*
G37*
G36*
X2744Y108184D02*
Y106957D01*
X3972D01*
X3759Y107469D01*
X3257Y107972D01*
X2744Y108184D01*
D02*
G37*
G36*
X1744D02*
X1232Y107972D01*
X729Y107469D01*
X516Y106957D01*
X1744D01*
Y108184D01*
D02*
G37*
G36*
X145500Y107003D02*
Y105776D01*
X146728D01*
X146515Y106288D01*
X146012Y106791D01*
X145500Y107003D01*
D02*
G37*
G36*
X144500D02*
X143988Y106791D01*
X143485Y106288D01*
X143272Y105776D01*
X144500D01*
Y107003D01*
D02*
G37*
G36*
X133453Y106924D02*
Y105697D01*
X134680D01*
X134468Y106209D01*
X133965Y106712D01*
X133453Y106924D01*
D02*
G37*
G36*
X132453D02*
X131940Y106712D01*
X131438Y106209D01*
X131225Y105697D01*
X132453D01*
Y106924D01*
D02*
G37*
G36*
X25055Y107732D02*
X21799D01*
Y105657D01*
X25055D01*
Y107732D01*
D02*
G37*
G36*
X35252D02*
X31996D01*
Y105657D01*
X35252D01*
Y107732D01*
D02*
G37*
G36*
X30996D02*
X27740D01*
Y105657D01*
X30996D01*
Y107732D01*
D02*
G37*
G36*
X20799D02*
X17543D01*
Y105657D01*
X20799D01*
Y107732D01*
D02*
G37*
G36*
X3972Y105957D02*
X2744D01*
Y104729D01*
X3257Y104941D01*
X3759Y105444D01*
X3972Y105957D01*
D02*
G37*
G36*
X1744D02*
X516D01*
X729Y105444D01*
X1232Y104941D01*
X1744Y104729D01*
Y105957D01*
D02*
G37*
G36*
X216760Y105231D02*
Y104004D01*
X217987D01*
X217775Y104516D01*
X217272Y105019D01*
X216760Y105231D01*
D02*
G37*
G36*
X215760D02*
X215247Y105019D01*
X214744Y104516D01*
X214532Y104004D01*
X215760D01*
Y105231D01*
D02*
G37*
G36*
X146728Y104776D02*
X145500D01*
Y103548D01*
X146012Y103760D01*
X146515Y104263D01*
X146728Y104776D01*
D02*
G37*
G36*
X144500D02*
X143272D01*
X143485Y104263D01*
X143988Y103760D01*
X144500Y103548D01*
Y104776D01*
D02*
G37*
G36*
X134680Y104697D02*
X133453D01*
Y103469D01*
X133965Y103682D01*
X134468Y104184D01*
X134680Y104697D01*
D02*
G37*
G36*
X132453D02*
X131225D01*
X131438Y104184D01*
X131940Y103682D01*
X132453Y103469D01*
Y104697D01*
D02*
G37*
G36*
X35252Y104657D02*
X31996D01*
Y102583D01*
X35252D01*
Y104657D01*
D02*
G37*
G36*
X30996D02*
X27740D01*
Y102583D01*
X30996D01*
Y104657D01*
D02*
G37*
G36*
X25055D02*
X21799D01*
Y102583D01*
X25055D01*
Y104657D01*
D02*
G37*
G36*
X20799D02*
X17543D01*
Y102583D01*
X20799D01*
Y104657D01*
D02*
G37*
G36*
X217987Y103004D02*
X216760D01*
Y101776D01*
X217272Y101989D01*
X217775Y102491D01*
X217987Y103004D01*
D02*
G37*
G36*
X215760D02*
X214532D01*
X214744Y102491D01*
X215247Y101989D01*
X215760Y101776D01*
Y103004D01*
D02*
G37*
G36*
X234279Y101806D02*
Y100579D01*
X235507D01*
X235295Y101091D01*
X234792Y101594D01*
X234279Y101806D01*
D02*
G37*
G36*
X233279D02*
X232767Y101594D01*
X232264Y101091D01*
X232052Y100579D01*
X233279D01*
Y101806D01*
D02*
G37*
G36*
X235507Y99579D02*
X234279D01*
Y98351D01*
X234792Y98563D01*
X235295Y99066D01*
X235507Y99579D01*
D02*
G37*
G36*
X233279D02*
X232052D01*
X232264Y99066D01*
X232767Y98563D01*
X233279Y98351D01*
Y99579D01*
D02*
G37*
G36*
X73992Y95842D02*
X70736D01*
Y93768D01*
X73992D01*
Y95842D01*
D02*
G37*
G36*
X69736D02*
X66480D01*
Y93768D01*
X69736D01*
Y95842D01*
D02*
G37*
G36*
X73992Y92768D02*
X70736D01*
Y90693D01*
X73992D01*
Y92768D01*
D02*
G37*
G36*
X69736D02*
X66480D01*
Y90693D01*
X69736D01*
Y92768D01*
D02*
G37*
G36*
X2744Y91334D02*
Y90106D01*
X3972D01*
X3759Y90619D01*
X3257Y91122D01*
X2744Y91334D01*
D02*
G37*
G36*
X1744D02*
X1232Y91122D01*
X729Y90619D01*
X516Y90106D01*
X1744D01*
Y91334D01*
D02*
G37*
G36*
X3972Y89106D02*
X2744D01*
Y87879D01*
X3257Y88091D01*
X3759Y88594D01*
X3972Y89106D01*
D02*
G37*
G36*
X1744D02*
X516D01*
X729Y88594D01*
X1232Y88091D01*
X1744Y87879D01*
Y89106D01*
D02*
G37*
G36*
X42929Y89051D02*
X39476D01*
Y87567D01*
X42929D01*
Y89051D01*
D02*
G37*
G36*
X38476D02*
X35024D01*
Y87567D01*
X38476D01*
Y89051D01*
D02*
G37*
G36*
X204752Y88735D02*
Y87508D01*
X205979D01*
X205767Y88020D01*
X205264Y88523D01*
X204752Y88735D01*
D02*
G37*
G36*
X203752D02*
X203239Y88523D01*
X202737Y88020D01*
X202524Y87508D01*
X203752D01*
Y88735D01*
D02*
G37*
G36*
X231957Y86610D02*
Y85382D01*
X233184D01*
X232972Y85894D01*
X232469Y86397D01*
X231957Y86610D01*
D02*
G37*
G36*
X230957D02*
X230444Y86397D01*
X229941Y85894D01*
X229729Y85382D01*
X230957D01*
Y86610D01*
D02*
G37*
G36*
X205979Y86508D02*
X204752D01*
Y85280D01*
X205264Y85493D01*
X205767Y85995D01*
X205979Y86508D01*
D02*
G37*
G36*
X203752D02*
X202524D01*
X202737Y85995D01*
X203239Y85493D01*
X203752Y85280D01*
Y86508D01*
D02*
G37*
G36*
X42929Y86567D02*
X39476D01*
Y85083D01*
X42929D01*
Y86567D01*
D02*
G37*
G36*
X38476D02*
X35024D01*
Y85083D01*
X38476D01*
Y86567D01*
D02*
G37*
G36*
X233184Y84382D02*
X231957D01*
Y83154D01*
X232469Y83367D01*
X232972Y83869D01*
X233184Y84382D01*
D02*
G37*
G36*
X230957D02*
X229729D01*
X229941Y83869D01*
X230444Y83367D01*
X230957Y83154D01*
Y84382D01*
D02*
G37*
G36*
X42929Y84051D02*
X39476D01*
Y82567D01*
X42929D01*
Y84051D01*
D02*
G37*
G36*
X60130D02*
X56677D01*
Y82567D01*
X60130D01*
Y84051D01*
D02*
G37*
G36*
X38476D02*
X35024D01*
Y82567D01*
X38476D01*
Y84051D01*
D02*
G37*
G36*
X60130Y81567D02*
X56677D01*
Y80083D01*
X60130D01*
Y81567D01*
D02*
G37*
G36*
X42929D02*
X39476D01*
Y80083D01*
X42929D01*
Y81567D01*
D02*
G37*
G36*
X38476D02*
X35024D01*
Y80083D01*
X38476D01*
Y81567D01*
D02*
G37*
G36*
X3295Y78972D02*
Y77744D01*
X4523D01*
X4311Y78257D01*
X3808Y78759D01*
X3295Y78972D01*
D02*
G37*
G36*
X2295D02*
X1783Y78759D01*
X1280Y78257D01*
X1068Y77744D01*
X2295D01*
Y78972D01*
D02*
G37*
G36*
X42929Y79051D02*
X39476D01*
Y77567D01*
X42929D01*
Y79051D01*
D02*
G37*
G36*
X38476D02*
X35024D01*
Y77567D01*
X38476D01*
Y79051D01*
D02*
G37*
G36*
X4523Y76744D02*
X3295D01*
Y75516D01*
X3808Y75729D01*
X4311Y76232D01*
X4523Y76744D01*
D02*
G37*
G36*
X2295D02*
X1068D01*
X1280Y76232D01*
X1783Y75729D01*
X2295Y75516D01*
Y76744D01*
D02*
G37*
G36*
X42929Y76567D02*
X39476D01*
Y75083D01*
X42929D01*
Y76567D01*
D02*
G37*
G36*
X38476D02*
X35024D01*
Y75083D01*
X38476D01*
Y76567D01*
D02*
G37*
G36*
X42929Y74051D02*
X39476D01*
Y72567D01*
X42929D01*
Y74051D01*
D02*
G37*
G36*
X38476D02*
X35024D01*
Y72567D01*
X38476D01*
Y74051D01*
D02*
G37*
G36*
X189555Y72043D02*
Y70815D01*
X190783D01*
X190570Y71327D01*
X190068Y71830D01*
X189555Y72043D01*
D02*
G37*
G36*
X188555D02*
X188043Y71830D01*
X187540Y71327D01*
X187328Y70815D01*
X188555D01*
Y72043D01*
D02*
G37*
G36*
X42929Y71567D02*
X39476D01*
Y70083D01*
X42929D01*
Y71567D01*
D02*
G37*
G36*
X38476D02*
X35024D01*
Y70083D01*
X38476D01*
Y71567D01*
D02*
G37*
G36*
X190783Y69815D02*
X189555D01*
Y68587D01*
X190068Y68800D01*
X190570Y69302D01*
X190783Y69815D01*
D02*
G37*
G36*
X188555D02*
X187328D01*
X187540Y69302D01*
X188043Y68800D01*
X188555Y68587D01*
Y69815D01*
D02*
G37*
G36*
X3020Y61570D02*
Y60343D01*
X4247D01*
X4035Y60855D01*
X3532Y61358D01*
X3020Y61570D01*
D02*
G37*
G36*
X2020D02*
X1507Y61358D01*
X1004Y60855D01*
X792Y60343D01*
X2020D01*
Y61570D01*
D02*
G37*
G36*
X4247Y59342D02*
X3020D01*
Y58115D01*
X3532Y58327D01*
X4035Y58830D01*
X4247Y59342D01*
D02*
G37*
G36*
X2020D02*
X792D01*
X1004Y58830D01*
X1507Y58327D01*
X2020Y58115D01*
Y59342D01*
D02*
G37*
G36*
X229594Y55350D02*
Y54122D01*
X230822D01*
X230610Y54634D01*
X230107Y55137D01*
X229594Y55350D01*
D02*
G37*
G36*
X228594D02*
X228082Y55137D01*
X227579Y54634D01*
X227367Y54122D01*
X228594D01*
Y55350D01*
D02*
G37*
G36*
X121799Y56168D02*
Y53728D01*
X124238D01*
X124065Y54374D01*
X123675Y55051D01*
X123122Y55604D01*
X122445Y55995D01*
X121799Y56168D01*
D02*
G37*
G36*
X120799D02*
X120153Y55995D01*
X119476Y55604D01*
X118924Y55051D01*
X118533Y54374D01*
X118360Y53728D01*
X120799D01*
Y56168D01*
D02*
G37*
G36*
X197665Y55656D02*
Y53216D01*
X200105D01*
X199932Y53862D01*
X199541Y54539D01*
X198988Y55092D01*
X198311Y55483D01*
X197665Y55656D01*
D02*
G37*
G36*
X196665D02*
X196020Y55483D01*
X195343Y55092D01*
X194790Y54539D01*
X194399Y53862D01*
X194226Y53216D01*
X196665D01*
Y55656D01*
D02*
G37*
G36*
X91169D02*
Y53216D01*
X93608D01*
X93436Y53862D01*
X93045Y54539D01*
X92492Y55092D01*
X91815Y55483D01*
X91169Y55656D01*
D02*
G37*
G36*
X90169D02*
X89524Y55483D01*
X88847Y55092D01*
X88294Y54539D01*
X87903Y53862D01*
X87730Y53216D01*
X90169D01*
Y55656D01*
D02*
G37*
G36*
X48217D02*
Y53216D01*
X50656D01*
X50483Y53862D01*
X50092Y54539D01*
X49539Y55092D01*
X48862Y55483D01*
X48217Y55656D01*
D02*
G37*
G36*
X47216D02*
X46571Y55483D01*
X45894Y55092D01*
X45341Y54539D01*
X44950Y53862D01*
X44777Y53216D01*
X47216D01*
Y55656D01*
D02*
G37*
G36*
X160224Y55420D02*
Y52980D01*
X162664D01*
X162491Y53626D01*
X162100Y54303D01*
X161547Y54856D01*
X160870Y55247D01*
X160224Y55420D01*
D02*
G37*
G36*
X159224D02*
X158579Y55247D01*
X157902Y54856D01*
X157349Y54303D01*
X156958Y53626D01*
X156785Y52980D01*
X159224D01*
Y55420D01*
D02*
G37*
G36*
X230822Y53122D02*
X229594D01*
Y51894D01*
X230107Y52107D01*
X230610Y52610D01*
X230822Y53122D01*
D02*
G37*
G36*
X228594D02*
X227367D01*
X227579Y52610D01*
X228082Y52107D01*
X228594Y51894D01*
Y53122D01*
D02*
G37*
G36*
X124238Y52728D02*
X121799D01*
Y50289D01*
X122445Y50462D01*
X123122Y50853D01*
X123675Y51406D01*
X124065Y52083D01*
X124238Y52728D01*
D02*
G37*
G36*
X120799D02*
X118360D01*
X118533Y52083D01*
X118924Y51406D01*
X119476Y50853D01*
X120153Y50462D01*
X120799Y50289D01*
Y52728D01*
D02*
G37*
G36*
X200105Y52217D02*
X197665D01*
Y49777D01*
X198311Y49950D01*
X198988Y50341D01*
X199541Y50894D01*
X199932Y51571D01*
X200105Y52217D01*
D02*
G37*
G36*
X196665D02*
X194226D01*
X194399Y51571D01*
X194790Y50894D01*
X195343Y50341D01*
X196020Y49950D01*
X196665Y49777D01*
Y52217D01*
D02*
G37*
G36*
X93608D02*
X91169D01*
Y49777D01*
X91815Y49950D01*
X92492Y50341D01*
X93045Y50894D01*
X93436Y51571D01*
X93608Y52217D01*
D02*
G37*
G36*
X90169D02*
X87730D01*
X87903Y51571D01*
X88294Y50894D01*
X88847Y50341D01*
X89524Y49950D01*
X90169Y49777D01*
Y52217D01*
D02*
G37*
G36*
X50656D02*
X48217D01*
Y49777D01*
X48862Y49950D01*
X49539Y50341D01*
X50092Y50894D01*
X50483Y51571D01*
X50656Y52217D01*
D02*
G37*
G36*
X47216D02*
X44777D01*
X44950Y51571D01*
X45341Y50894D01*
X45894Y50341D01*
X46571Y49950D01*
X47216Y49777D01*
Y52217D01*
D02*
G37*
G36*
X162664Y51980D02*
X160224D01*
Y49541D01*
X160870Y49714D01*
X161547Y50105D01*
X162100Y50658D01*
X162491Y51335D01*
X162664Y51980D01*
D02*
G37*
G36*
X159224D02*
X156785D01*
X156958Y51335D01*
X157349Y50658D01*
X157902Y50105D01*
X158579Y49714D01*
X159224Y49541D01*
Y51980D01*
D02*
G37*
G36*
X2193Y45861D02*
Y44634D01*
X3421D01*
X3208Y45146D01*
X2705Y45649D01*
X2193Y45861D01*
D02*
G37*
G36*
X1193D02*
X680Y45649D01*
X178Y45146D01*
X-35Y44634D01*
X1193D01*
Y45861D01*
D02*
G37*
G36*
X3421Y43634D02*
X2193D01*
Y42406D01*
X2705Y42619D01*
X3208Y43121D01*
X3421Y43634D01*
D02*
G37*
G36*
X1193D02*
X-35D01*
X178Y43121D01*
X680Y42619D01*
X1193Y42406D01*
Y43634D01*
D02*
G37*
G36*
X69752Y38027D02*
Y36799D01*
X70979D01*
X70767Y37312D01*
X70264Y37815D01*
X69752Y38027D01*
D02*
G37*
G36*
X68752D02*
X68239Y37815D01*
X67737Y37312D01*
X67524Y36799D01*
X68752D01*
Y38027D01*
D02*
G37*
G36*
X175657Y37397D02*
Y36169D01*
X176885D01*
X176673Y36682D01*
X176170Y37185D01*
X175657Y37397D01*
D02*
G37*
G36*
X174657D02*
X174145Y37185D01*
X173642Y36682D01*
X173430Y36169D01*
X174657D01*
Y37397D01*
D02*
G37*
G36*
X123453D02*
Y36169D01*
X124680D01*
X124468Y36682D01*
X123965Y37185D01*
X123453Y37397D01*
D02*
G37*
G36*
X122453D02*
X121940Y37185D01*
X121438Y36682D01*
X121225Y36169D01*
X122453D01*
Y37397D01*
D02*
G37*
G36*
X70979Y35799D02*
X69752D01*
Y34572D01*
X70264Y34784D01*
X70767Y35287D01*
X70979Y35799D01*
D02*
G37*
G36*
X68752D02*
X67524D01*
X67737Y35287D01*
X68239Y34784D01*
X68752Y34572D01*
Y35799D01*
D02*
G37*
G36*
X176885Y35169D02*
X175657D01*
Y33942D01*
X176170Y34154D01*
X176673Y34657D01*
X176885Y35169D01*
D02*
G37*
G36*
X174657D02*
X173430D01*
X173642Y34657D01*
X174145Y34154D01*
X174657Y33942D01*
Y35169D01*
D02*
G37*
G36*
X124680D02*
X123453D01*
Y33942D01*
X123965Y34154D01*
X124468Y34657D01*
X124680Y35169D01*
D02*
G37*
G36*
X122453D02*
X121225D01*
X121438Y34657D01*
X121940Y34154D01*
X122453Y33942D01*
Y35169D01*
D02*
G37*
G36*
X44745Y37063D02*
X44594D01*
Y32626D01*
X49031D01*
Y32776D01*
X48695Y34032D01*
X48045Y35157D01*
X47126Y36077D01*
X46000Y36726D01*
X44745Y37063D01*
D02*
G37*
G36*
X43595D02*
X43444D01*
X42189Y36726D01*
X41063Y36077D01*
X40144Y35157D01*
X39494Y34032D01*
X39158Y32776D01*
Y32626D01*
X43595D01*
Y37063D01*
D02*
G37*
G36*
X1917Y32672D02*
Y31445D01*
X3145D01*
X2933Y31957D01*
X2430Y32460D01*
X1917Y32672D01*
D02*
G37*
G36*
X917D02*
X405Y32460D01*
X-98Y31957D01*
X-310Y31445D01*
X917D01*
Y32672D01*
D02*
G37*
G36*
X3145Y30445D02*
X1917D01*
Y29217D01*
X2430Y29430D01*
X2933Y29932D01*
X3145Y30445D01*
D02*
G37*
G36*
X917D02*
X-310D01*
X-98Y29932D01*
X405Y29430D01*
X917Y29217D01*
Y30445D01*
D02*
G37*
G36*
X49031Y31626D02*
X44594D01*
Y27189D01*
X44745D01*
X46000Y27525D01*
X47126Y28175D01*
X48045Y29095D01*
X48695Y30220D01*
X49031Y31476D01*
Y31626D01*
D02*
G37*
G36*
X43595D02*
X39158D01*
Y31476D01*
X39494Y30220D01*
X40144Y29095D01*
X41063Y28175D01*
X42189Y27525D01*
X43444Y27189D01*
X43595D01*
Y31626D01*
D02*
G37*
G36*
X44004Y23372D02*
Y20933D01*
X46443D01*
X46270Y21579D01*
X45879Y22256D01*
X45327Y22808D01*
X44650Y23199D01*
X44004Y23372D01*
D02*
G37*
G36*
X43004D02*
X42358Y23199D01*
X41681Y22808D01*
X41129Y22256D01*
X40738Y21579D01*
X40565Y20933D01*
X43004D01*
Y23372D01*
D02*
G37*
G36*
X46443Y19933D02*
X44004D01*
Y17494D01*
X44650Y17667D01*
X45327Y18058D01*
X45879Y18610D01*
X46270Y19287D01*
X46443Y19933D01*
D02*
G37*
G36*
X43004D02*
X40565D01*
X40738Y19287D01*
X41129Y18610D01*
X41681Y18058D01*
X42358Y17667D01*
X43004Y17494D01*
Y19933D01*
D02*
G37*
G36*
X134575Y21551D02*
X133535D01*
X132529Y21282D01*
X131628Y20761D01*
X130892Y20026D01*
X130372Y19124D01*
X130102Y18119D01*
Y17078D01*
X130372Y16073D01*
X130892Y15171D01*
X131628Y14435D01*
X132529Y13915D01*
X133535Y13646D01*
X134575D01*
X135581Y13915D01*
X136482Y14435D01*
X137218Y15171D01*
X137739Y16073D01*
X138008Y17078D01*
Y18119D01*
X137739Y19124D01*
X137218Y20026D01*
X136482Y20761D01*
X135581Y21282D01*
X134575Y21551D01*
D02*
G37*
G36*
X124575D02*
X123535D01*
X122529Y21282D01*
X121628Y20761D01*
X120892Y20026D01*
X120372Y19124D01*
X120102Y18119D01*
Y17078D01*
X120372Y16073D01*
X120892Y15171D01*
X121628Y14435D01*
X122529Y13915D01*
X123535Y13646D01*
X124575D01*
X125581Y13915D01*
X126482Y14435D01*
X127218Y15171D01*
X127738Y16073D01*
X128008Y17078D01*
Y18119D01*
X127738Y19124D01*
X127218Y20026D01*
X126482Y20761D01*
X125581Y21282D01*
X124575Y21551D01*
D02*
G37*
G36*
X114576D02*
X113535D01*
X112529Y21282D01*
X111628Y20761D01*
X110892Y20026D01*
X110372Y19124D01*
X110102Y18119D01*
Y17078D01*
X110372Y16073D01*
X110892Y15171D01*
X111628Y14435D01*
X112529Y13915D01*
X113535Y13646D01*
X114576D01*
X115581Y13915D01*
X116482Y14435D01*
X117218Y15171D01*
X117738Y16073D01*
X118008Y17078D01*
Y18119D01*
X117738Y19124D01*
X117218Y20026D01*
X116482Y20761D01*
X115581Y21282D01*
X114576Y21551D01*
D02*
G37*
G36*
X104576D02*
X103535D01*
X102529Y21282D01*
X101628Y20761D01*
X100892Y20026D01*
X100372Y19124D01*
X100102Y18119D01*
Y17078D01*
X100372Y16073D01*
X100892Y15171D01*
X101628Y14435D01*
X102529Y13915D01*
X103535Y13646D01*
X104576D01*
X105581Y13915D01*
X106482Y14435D01*
X107218Y15171D01*
X107738Y16073D01*
X108008Y17078D01*
Y18119D01*
X107738Y19124D01*
X107218Y20026D01*
X106482Y20761D01*
X105581Y21282D01*
X104576Y21551D01*
D02*
G37*
G36*
X94576D02*
X93535D01*
X92529Y21282D01*
X91628Y20761D01*
X90892Y20026D01*
X90372Y19124D01*
X90102Y18119D01*
Y17078D01*
X90372Y16073D01*
X90892Y15171D01*
X91628Y14435D01*
X92529Y13915D01*
X93535Y13646D01*
X94576D01*
X95581Y13915D01*
X96482Y14435D01*
X97218Y15171D01*
X97738Y16073D01*
X98008Y17078D01*
Y18119D01*
X97738Y19124D01*
X97218Y20026D01*
X96482Y20761D01*
X95581Y21282D01*
X94576Y21551D01*
D02*
G37*
G36*
X176091Y10428D02*
Y9201D01*
X177318D01*
X177106Y9713D01*
X176603Y10216D01*
X176091Y10428D01*
D02*
G37*
G36*
X175091D02*
X174578Y10216D01*
X174075Y9713D01*
X173863Y9201D01*
X175091D01*
Y10428D01*
D02*
G37*
G36*
X177318Y8201D02*
X176091D01*
Y6973D01*
X176603Y7186D01*
X177106Y7688D01*
X177318Y8201D01*
D02*
G37*
G36*
X175091D02*
X173863D01*
X174075Y7688D01*
X174578Y7186D01*
X175091Y6973D01*
Y8201D01*
D02*
G37*
G36*
X65894Y7633D02*
Y6406D01*
X67121D01*
X66909Y6918D01*
X66406Y7421D01*
X65894Y7633D01*
D02*
G37*
G36*
X64894D02*
X64381Y7421D01*
X63878Y6918D01*
X63666Y6406D01*
X64894D01*
Y7633D01*
D02*
G37*
G36*
X67121Y5406D02*
X65894D01*
Y4178D01*
X66406Y4390D01*
X66909Y4893D01*
X67121Y5406D01*
D02*
G37*
G36*
X64894D02*
X63666D01*
X63878Y4893D01*
X64381Y4390D01*
X64894Y4178D01*
Y5406D01*
D02*
G37*
G36*
X134575Y11551D02*
X133535D01*
X132529Y11282D01*
X131628Y10761D01*
X130892Y10025D01*
X130372Y9124D01*
X130102Y8119D01*
Y7078D01*
X130372Y6073D01*
X130892Y5171D01*
X131628Y4435D01*
X132529Y3915D01*
X133535Y3646D01*
X134575D01*
X135581Y3915D01*
X136482Y4435D01*
X137218Y5171D01*
X137739Y6073D01*
X138008Y7078D01*
Y8119D01*
X137739Y9124D01*
X137218Y10025D01*
X136482Y10761D01*
X135581Y11282D01*
X134575Y11551D01*
D02*
G37*
G36*
X124575D02*
X123535D01*
X122529Y11282D01*
X121628Y10761D01*
X120892Y10025D01*
X120372Y9124D01*
X120102Y8119D01*
Y7078D01*
X120372Y6073D01*
X120892Y5171D01*
X121628Y4435D01*
X122529Y3915D01*
X123535Y3646D01*
X124575D01*
X125581Y3915D01*
X126482Y4435D01*
X127218Y5171D01*
X127738Y6073D01*
X128008Y7078D01*
Y8119D01*
X127738Y9124D01*
X127218Y10025D01*
X126482Y10761D01*
X125581Y11282D01*
X124575Y11551D01*
D02*
G37*
G36*
X114576D02*
X113535D01*
X112529Y11282D01*
X111628Y10761D01*
X110892Y10025D01*
X110372Y9124D01*
X110102Y8119D01*
Y7078D01*
X110372Y6073D01*
X110892Y5171D01*
X111628Y4435D01*
X112529Y3915D01*
X113535Y3646D01*
X114576D01*
X115581Y3915D01*
X116482Y4435D01*
X117218Y5171D01*
X117738Y6073D01*
X118008Y7078D01*
Y8119D01*
X117738Y9124D01*
X117218Y10025D01*
X116482Y10761D01*
X115581Y11282D01*
X114576Y11551D01*
D02*
G37*
G36*
X104576D02*
X103535D01*
X102529Y11282D01*
X101628Y10761D01*
X100892Y10025D01*
X100372Y9124D01*
X100102Y8119D01*
Y7078D01*
X100372Y6073D01*
X100892Y5171D01*
X101628Y4435D01*
X102529Y3915D01*
X103535Y3646D01*
X104576D01*
X105581Y3915D01*
X106482Y4435D01*
X107218Y5171D01*
X107738Y6073D01*
X108008Y7078D01*
Y8119D01*
X107738Y9124D01*
X107218Y10025D01*
X106482Y10761D01*
X105581Y11282D01*
X104576Y11551D01*
D02*
G37*
G36*
X98008D02*
X90102D01*
Y3646D01*
X98008D01*
Y11551D01*
D02*
G37*
G36*
X223229Y27012D02*
X221212D01*
X219221Y26696D01*
X217303Y26073D01*
X215506Y25158D01*
X213875Y23972D01*
X212449Y22547D01*
X211263Y20915D01*
X210348Y19118D01*
X209725Y17201D01*
X209409Y15209D01*
Y13193D01*
X209725Y11201D01*
X210348Y9283D01*
X211263Y7486D01*
X212449Y5855D01*
X213875Y4429D01*
X215506Y3244D01*
X217303Y2328D01*
X219221Y1705D01*
X221212Y1390D01*
X223229D01*
X225220Y1705D01*
X227138Y2328D01*
X228935Y3244D01*
X230566Y4429D01*
X231992Y5855D01*
X233177Y7486D01*
X234093Y9283D01*
X234716Y11201D01*
X235032Y13193D01*
Y15209D01*
X234716Y17201D01*
X234093Y19118D01*
X233177Y20915D01*
X231992Y22547D01*
X230566Y23972D01*
X228935Y25158D01*
X227138Y26073D01*
X225220Y26696D01*
X223229Y27012D01*
D02*
G37*
G36*
X15209Y26811D02*
X13193D01*
X11201Y26496D01*
X9283Y25872D01*
X7486Y24957D01*
X5855Y23772D01*
X4429Y22346D01*
X3244Y20714D01*
X2328Y18918D01*
X1705Y17000D01*
X1390Y15008D01*
Y12992D01*
X1705Y11000D01*
X2328Y9082D01*
X3244Y7286D01*
X4429Y5654D01*
X5855Y4228D01*
X7486Y3043D01*
X9283Y2128D01*
X11201Y1504D01*
X13193Y1189D01*
X15209D01*
X17201Y1504D01*
X19118Y2128D01*
X20915Y3043D01*
X22547Y4228D01*
X23972Y5654D01*
X25158Y7286D01*
X26073Y9082D01*
X26696Y11000D01*
X27012Y12992D01*
Y15008D01*
X26696Y17000D01*
X26073Y18918D01*
X25158Y20714D01*
X23972Y22346D01*
X22547Y23772D01*
X20915Y24957D01*
X19118Y25872D01*
X17201Y26496D01*
X15209Y26811D01*
D02*
G37*
%LPD*%
G36*
X12370Y296409D02*
X5307D01*
X5350Y296451D01*
X5388Y296576D01*
X5422Y296786D01*
X5451Y297078D01*
X5511Y298458D01*
X5531Y300590D01*
X12421D01*
X12370Y296409D01*
D02*
G37*
G36*
X51469Y248622D02*
X52468Y248606D01*
Y244669D01*
X51720Y244664D01*
X51469Y244646D01*
Y244425D01*
X51429Y244472D01*
X51311Y244513D01*
X51114Y244550D01*
X50839Y244582D01*
X50689Y244591D01*
X49161Y244482D01*
X48886Y244415D01*
X48689Y244337D01*
X48571Y244249D01*
X48531Y244150D01*
Y244654D01*
X47532Y244669D01*
Y248606D01*
X48280Y248611D01*
X48531Y248629D01*
Y248850D01*
X48571Y248804D01*
X48689Y248762D01*
X48886Y248726D01*
X49161Y248694D01*
X49311Y248685D01*
X50839Y248793D01*
X51114Y248861D01*
X51311Y248939D01*
X51429Y249027D01*
X51469Y249126D01*
Y248622D01*
D02*
G37*
G36*
X41469Y248850D02*
Y244150D01*
X41429Y244307D01*
X41311Y244447D01*
X41114Y244571D01*
X40839Y244679D01*
X40484Y244770D01*
X40051Y244844D01*
X39540Y244902D01*
X38280Y244968D01*
X37532Y244976D01*
Y248913D01*
X41469Y248850D01*
D02*
G37*
G36*
X26481Y225492D02*
X26449Y225791D01*
X26354Y226059D01*
X26196Y226295D01*
X25975Y226500D01*
X25690Y226673D01*
X25343Y226815D01*
X24931Y226925D01*
X24606Y226979D01*
X24281Y226925D01*
X23870Y226815D01*
X23522Y226673D01*
X23238Y226500D01*
X23016Y226295D01*
X22858Y226059D01*
X22763Y225791D01*
X22732Y225492D01*
Y231791D01*
X22763Y231492D01*
X22858Y231224D01*
X23016Y230988D01*
X23238Y230784D01*
X23522Y230610D01*
X23870Y230469D01*
X24281Y230358D01*
X24606Y230304D01*
X24931Y230358D01*
X25343Y230469D01*
X25690Y230610D01*
X25975Y230784D01*
X26196Y230988D01*
X26354Y231224D01*
X26449Y231492D01*
X26481Y231791D01*
Y225492D01*
D02*
G37*
G36*
X9228Y249594D02*
X8961Y249498D01*
X8724Y249339D01*
X8520Y249118D01*
X8347Y248833D01*
X8205Y248485D01*
X8095Y248075D01*
X8016Y247601D01*
X7969Y247064D01*
X7953Y246465D01*
X4803D01*
X6362Y249614D01*
X9528Y249626D01*
X9228Y249594D01*
D02*
G37*
G36*
X8607Y225468D02*
X8578Y225734D01*
X8491Y226033D01*
X8347Y226364D01*
X8146Y226728D01*
X7888Y227124D01*
X7572Y227552D01*
X6769Y228505D01*
X5737Y229587D01*
X7964Y231814D01*
X8084Y231704D01*
X8191Y231625D01*
X8286Y231576D01*
X8368Y231559D01*
X8437Y231574D01*
X8494Y231620D01*
X8538Y231696D01*
X8569Y231804D01*
X8588Y231943D01*
X8595Y232114D01*
X8607Y225468D01*
D02*
G37*
G36*
X54782Y130059D02*
X54704Y129965D01*
X54635Y129807D01*
X54575Y129587D01*
X54525Y129303D01*
X54483Y128957D01*
X54428Y128075D01*
X54418Y127485D01*
X54425Y127222D01*
X54473Y126684D01*
X54551Y126210D01*
X54661Y125799D01*
X54803Y125451D01*
X54976Y125167D01*
X55181Y124946D01*
X55417Y124787D01*
X55685Y124693D01*
X55984Y124661D01*
X49685D01*
X49984Y124693D01*
X50252Y124787D01*
X50488Y124946D01*
X50693Y125167D01*
X50866Y125451D01*
X51008Y125799D01*
X51118Y126210D01*
X51197Y126684D01*
X51244Y127222D01*
X51254Y127588D01*
X51111Y129807D01*
X51066Y129965D01*
X51014Y130059D01*
X50957Y130091D01*
X54870D01*
X54782Y130059D01*
D02*
G37*
G36*
X18820Y12049D02*
X19127Y12029D01*
X19284Y12003D01*
X19388Y11977D01*
X19453Y11964D01*
X19629Y11945D01*
X19845Y11912D01*
X19949Y11886D01*
X20021Y11853D01*
X20112Y11827D01*
X20203Y11814D01*
X20288Y11795D01*
X20340Y11782D01*
X20412Y11749D01*
X20478Y11723D01*
X20582Y11697D01*
X20667Y11677D01*
X20732Y11651D01*
X20830Y11592D01*
X20921Y11566D01*
X20993Y11547D01*
X21058Y11521D01*
X21156Y11462D01*
X21189Y11455D01*
X21195Y11449D01*
X21280Y11429D01*
X21384Y11364D01*
X21404Y11344D01*
X21469Y11318D01*
X21521Y11305D01*
X21613Y11253D01*
X21639Y11227D01*
X21704Y11201D01*
X21789Y11168D01*
X21815Y11142D01*
X21828Y11090D01*
X21789Y11025D01*
X21737Y10946D01*
X21724Y10894D01*
X21639Y10770D01*
X21619Y10751D01*
X21574Y10627D01*
X21528Y10581D01*
X21515Y10555D01*
X21423Y10385D01*
X21397Y10359D01*
X21384Y10333D01*
X21332Y10216D01*
X21319Y10190D01*
X21267Y10137D01*
X21215Y10020D01*
X21176Y9955D01*
X21149Y9929D01*
X21136Y9903D01*
X21045Y9733D01*
X20980Y9641D01*
X20967Y9589D01*
X20882Y9465D01*
X20856Y9452D01*
X20791Y9426D01*
X20719Y9446D01*
X20673Y9478D01*
X20621Y9531D01*
X20530Y9557D01*
X20445Y9589D01*
X20367Y9641D01*
X20295Y9674D01*
X20158Y9707D01*
X19995Y9792D01*
X19942Y9805D01*
X19851Y9818D01*
X19799Y9831D01*
X19714Y9863D01*
X19603Y9909D01*
X19551Y9922D01*
X19460Y9935D01*
X19244Y9968D01*
X19140Y9994D01*
X19068Y10013D01*
X19016Y10026D01*
X18846Y10040D01*
X18755Y10053D01*
X18338Y10066D01*
X18298Y10053D01*
X17763Y10040D01*
X17724Y10026D01*
X17594Y10013D01*
X17528Y9987D01*
X17444Y9968D01*
X17378Y9955D01*
X17202Y9935D01*
X17150Y9922D01*
X17072Y9909D01*
X16928Y9844D01*
X16824Y9818D01*
X16733Y9805D01*
X16648Y9772D01*
X16550Y9713D01*
X16445Y9687D01*
X16321Y9641D01*
X16302Y9622D01*
X16276Y9609D01*
X16158Y9557D01*
X16093Y9531D01*
X16021Y9472D01*
X15852Y9407D01*
X15832Y9387D01*
X15806Y9374D01*
X15767Y9335D01*
X15623Y9257D01*
X15584Y9217D01*
X15441Y9139D01*
X15375Y9074D01*
X15284Y9022D01*
X15219Y8957D01*
X15193Y8943D01*
X15095Y8872D01*
X15082Y8846D01*
X15023Y8800D01*
X14997Y8787D01*
X14964Y8754D01*
X14951Y8728D01*
X14919Y8696D01*
X14893Y8682D01*
X14821Y8611D01*
X14814Y8591D01*
X14788Y8578D01*
X14690Y8480D01*
X14677Y8454D01*
X14658Y8435D01*
X14632Y8422D01*
X14599Y8389D01*
X14586Y8363D01*
X14527Y8291D01*
X14469Y8232D01*
X14456Y8206D01*
X14397Y8134D01*
X14351Y8089D01*
X14286Y7971D01*
X14234Y7919D01*
X14182Y7828D01*
X14129Y7776D01*
X14142Y7697D01*
X14266Y7573D01*
X14292Y7560D01*
X14319Y7534D01*
X14338Y7528D01*
X14351Y7502D01*
X14397Y7456D01*
X14423Y7443D01*
X14717Y7149D01*
X14730Y7123D01*
X14834Y7019D01*
X14847Y6993D01*
X14893Y6934D01*
X14919Y6921D01*
X14951Y6888D01*
X14964Y6862D01*
X15023Y6790D01*
X15049Y6777D01*
X15108Y6679D01*
X15121Y6653D01*
X15186Y6588D01*
X15251Y6471D01*
X15304Y6419D01*
X15317Y6392D01*
X15369Y6301D01*
X15434Y6236D01*
X15460Y6171D01*
X15526Y6053D01*
X15552Y6027D01*
X15604Y5897D01*
X15643Y5831D01*
X15682Y5792D01*
X15708Y5727D01*
X15747Y5623D01*
X15813Y5531D01*
X15832Y5460D01*
X15858Y5355D01*
X15878Y5309D01*
X15930Y5231D01*
X15956Y5166D01*
X15989Y5029D01*
X16060Y4866D01*
X16087Y4761D01*
X16106Y4637D01*
X16145Y4533D01*
X16171Y4468D01*
X16191Y4396D01*
X16204Y4344D01*
X16217Y4213D01*
X16230Y4122D01*
X16256Y3965D01*
X16295Y3809D01*
X16308Y3717D01*
X16321Y3587D01*
X16334Y3300D01*
X16341Y3124D01*
X16321Y3078D01*
X16289Y3046D01*
X14371Y3059D01*
X14338Y3091D01*
X14325Y3182D01*
X14332Y3280D01*
X14319Y3463D01*
X14306Y3593D01*
X14292Y3659D01*
X14266Y3763D01*
X14247Y3835D01*
X14227Y3920D01*
X14188Y4155D01*
X14162Y4220D01*
X14103Y4357D01*
X14084Y4442D01*
X14071Y4494D01*
X14044Y4559D01*
X13992Y4637D01*
X13973Y4696D01*
X13960Y4748D01*
X13934Y4814D01*
X13842Y4944D01*
X13823Y5016D01*
X13777Y5088D01*
X13738Y5127D01*
X13712Y5192D01*
X13660Y5283D01*
X13594Y5349D01*
X13542Y5440D01*
X13490Y5492D01*
X13477Y5518D01*
X13386Y5636D01*
X13346Y5675D01*
X13333Y5701D01*
X13275Y5773D01*
X13236Y5812D01*
X13216Y5818D01*
X13203Y5844D01*
X13118Y5929D01*
X13092Y5942D01*
X13072Y5962D01*
X13059Y5988D01*
X13014Y6034D01*
X12988Y6047D01*
X12916Y6105D01*
X12857Y6164D01*
X12766Y6216D01*
X12700Y6282D01*
X12674Y6295D01*
X12583Y6360D01*
X12544Y6399D01*
X12374Y6490D01*
X12335Y6530D01*
X12211Y6575D01*
X12133Y6627D01*
X12113Y6647D01*
X12048Y6673D01*
X11976Y6693D01*
X11911Y6719D01*
X11891Y6738D01*
X11865Y6751D01*
X11774Y6790D01*
X11618Y6830D01*
X11448Y6908D01*
X11356Y6921D01*
X11304Y6934D01*
X11180Y6954D01*
X11115Y6967D01*
X11004Y6999D01*
X10952Y7012D01*
X10861Y7025D01*
X10808Y7038D01*
X10482Y7051D01*
X9817Y7038D01*
X9778Y7025D01*
X9673Y7012D01*
X9634Y6999D01*
X9504Y6960D01*
X9347Y6934D01*
X9256Y6921D01*
X9204Y6908D01*
X9034Y6830D01*
X8982Y6816D01*
X8897Y6797D01*
X8845Y6784D01*
X8740Y6719D01*
X8655Y6686D01*
X8603Y6673D01*
X8512Y6621D01*
X8486Y6595D01*
X8394Y6556D01*
X8329Y6530D01*
X8258Y6471D01*
X8081Y6373D01*
X8068Y6347D01*
X8042Y6334D01*
X7951Y6295D01*
X7886Y6308D01*
X7853Y6327D01*
X7840Y6353D01*
X7755Y6477D01*
X7709Y6523D01*
X7657Y6614D01*
X7605Y6667D01*
X7592Y6693D01*
X7501Y6810D01*
X7462Y6849D01*
X7409Y6940D01*
X7344Y7006D01*
X7279Y7123D01*
X7214Y7188D01*
X7201Y7215D01*
X7135Y7306D01*
X7083Y7358D01*
X7031Y7449D01*
X6966Y7515D01*
X6953Y7541D01*
X6887Y7632D01*
X6861Y7658D01*
X6848Y7684D01*
X6822Y7710D01*
X6757Y7854D01*
X6770Y7893D01*
X6803Y7926D01*
X6894Y7978D01*
X6933Y8017D01*
X6959Y8030D01*
X7051Y8082D01*
X7122Y8141D01*
X7142Y8161D01*
X7227Y8193D01*
X7298Y8239D01*
X7338Y8278D01*
X7403Y8304D01*
X7455Y8317D01*
X7546Y8369D01*
X7586Y8409D01*
X7651Y8435D01*
X7703Y8448D01*
X7794Y8500D01*
X7820Y8526D01*
X7912Y8552D01*
X8036Y8598D01*
X8134Y8656D01*
X8225Y8682D01*
X8310Y8702D01*
X8375Y8728D01*
X8512Y8787D01*
X8564Y8800D01*
X8766Y8846D01*
X8832Y8872D01*
X8982Y8917D01*
X9204Y8943D01*
X9295Y8957D01*
X9399Y8983D01*
X9484Y9002D01*
X9549Y9015D01*
X9725Y9035D01*
X9778Y9048D01*
X10378Y9061D01*
X10900Y9048D01*
X10939Y9035D01*
X11089Y9015D01*
X11167Y9002D01*
X11220Y8989D01*
X11415Y8950D01*
X11520Y8937D01*
X11637Y8924D01*
X11702Y8911D01*
X11846Y8859D01*
X11957Y8826D01*
X12048Y8813D01*
X12100Y8800D01*
X12185Y8767D01*
X12205Y8748D01*
X12257Y8735D01*
X12361Y8748D01*
X12387Y8774D01*
X12413Y8787D01*
X12433Y8806D01*
X12498Y8924D01*
X12550Y8976D01*
X12629Y9120D01*
X12681Y9172D01*
X12746Y9289D01*
X12824Y9368D01*
X12837Y9394D01*
X12883Y9452D01*
X12909Y9465D01*
X12929Y9485D01*
X12942Y9511D01*
X13033Y9629D01*
X13072Y9668D01*
X13085Y9694D01*
X13144Y9765D01*
X13216Y9837D01*
X13229Y9863D01*
X13288Y9922D01*
X13314Y9935D01*
X13346Y9968D01*
X13360Y9994D01*
X13405Y10040D01*
X13431Y10053D01*
X13503Y10124D01*
X13510Y10144D01*
X13536Y10157D01*
X13679Y10300D01*
X13705Y10313D01*
X13731Y10340D01*
X13758Y10353D01*
X13823Y10418D01*
X13849Y10431D01*
X13934Y10490D01*
X13947Y10516D01*
X13979Y10548D01*
X14071Y10601D01*
X14123Y10666D01*
X14149Y10679D01*
X14240Y10744D01*
X14279Y10783D01*
X14371Y10823D01*
X14436Y10862D01*
X14488Y10914D01*
X14632Y10992D01*
X14671Y11031D01*
X14697Y11044D01*
X14814Y11109D01*
X14841Y11136D01*
X14867Y11149D01*
X14958Y11188D01*
X15023Y11214D01*
X15049Y11227D01*
X15088Y11266D01*
X15114Y11279D01*
X15206Y11318D01*
X15323Y11383D01*
X15349Y11410D01*
X15441Y11436D01*
X15565Y11481D01*
X15663Y11540D01*
X15754Y11566D01*
X15826Y11586D01*
X15871Y11605D01*
X15950Y11658D01*
X16054Y11684D01*
X16204Y11716D01*
X16269Y11742D01*
X16341Y11775D01*
X16432Y11801D01*
X16485Y11814D01*
X16596Y11834D01*
X16648Y11847D01*
X16798Y11892D01*
X16889Y11919D01*
X17111Y11945D01*
X17163Y11958D01*
X17287Y11977D01*
X17600Y12029D01*
X17718Y12043D01*
X17848Y12055D01*
X18781Y12062D01*
X18820Y12049D01*
D02*
G37*
%LPC*%
G36*
X75382Y390861D02*
Y389634D01*
X76609D01*
X76397Y390146D01*
X75894Y390649D01*
X75382Y390861D01*
D02*
G37*
G36*
X74382D02*
X73869Y390649D01*
X73367Y390146D01*
X73154Y389634D01*
X74382D01*
Y390861D01*
D02*
G37*
G36*
X76609Y388634D02*
X75382D01*
Y387406D01*
X75894Y387619D01*
X76397Y388121D01*
X76609Y388634D01*
D02*
G37*
G36*
X74382D02*
X73154D01*
X73367Y388121D01*
X73869Y387619D01*
X74382Y387406D01*
Y388634D01*
D02*
G37*
G36*
X168650Y384365D02*
Y383138D01*
X169877D01*
X169665Y383650D01*
X169162Y384153D01*
X168650Y384365D01*
D02*
G37*
G36*
X167650D02*
X167137Y384153D01*
X166634Y383650D01*
X166422Y383138D01*
X167650D01*
Y384365D01*
D02*
G37*
G36*
X169877Y382138D02*
X168650D01*
Y380910D01*
X169162Y381122D01*
X169665Y381625D01*
X169877Y382138D01*
D02*
G37*
G36*
X167650D02*
X166422D01*
X166634Y381625D01*
X167137Y381122D01*
X167650Y380910D01*
Y382138D01*
D02*
G37*
G36*
X84201Y379287D02*
Y378059D01*
X85428D01*
X85216Y378572D01*
X84713Y379074D01*
X84201Y379287D01*
D02*
G37*
G36*
X83201D02*
X82688Y379074D01*
X82186Y378572D01*
X81973Y378059D01*
X83201D01*
Y379287D01*
D02*
G37*
G36*
X79031Y381236D02*
X76366D01*
Y377390D01*
X79031D01*
Y381236D01*
D02*
G37*
G36*
X75366D02*
X72701D01*
Y377390D01*
X75366D01*
Y381236D01*
D02*
G37*
G36*
X85428Y377059D02*
X84201D01*
Y375832D01*
X84713Y376044D01*
X85216Y376547D01*
X85428Y377059D01*
D02*
G37*
G36*
X83201D02*
X81973D01*
X82186Y376547D01*
X82688Y376044D01*
X83201Y375832D01*
Y377059D01*
D02*
G37*
G36*
X174634Y375979D02*
Y374752D01*
X175861D01*
X175649Y375264D01*
X175146Y375767D01*
X174634Y375979D01*
D02*
G37*
G36*
X173634D02*
X173121Y375767D01*
X172619Y375264D01*
X172406Y374752D01*
X173634D01*
Y375979D01*
D02*
G37*
G36*
X79031Y376390D02*
X76366D01*
Y372543D01*
X79031D01*
Y376390D01*
D02*
G37*
G36*
X75366D02*
X72701D01*
Y372543D01*
X75366D01*
Y376390D01*
D02*
G37*
G36*
X175861Y373752D02*
X174634D01*
Y372524D01*
X175146Y372737D01*
X175649Y373239D01*
X175861Y373752D01*
D02*
G37*
G36*
X173634D02*
X172406D01*
X172619Y373239D01*
X173121Y372737D01*
X173634Y372524D01*
Y373752D01*
D02*
G37*
G36*
X86236Y370724D02*
X82980D01*
Y368650D01*
X86236D01*
Y370724D01*
D02*
G37*
G36*
X81980D02*
X78724D01*
Y368650D01*
X81980D01*
Y370724D01*
D02*
G37*
G36*
X77929Y370606D02*
X74673D01*
Y368531D01*
X77929D01*
Y370606D01*
D02*
G37*
G36*
X73673D02*
X70417D01*
Y368531D01*
X73673D01*
Y370606D01*
D02*
G37*
G36*
X164226Y370024D02*
X159789D01*
Y367752D01*
X164226D01*
Y370024D01*
D02*
G37*
G36*
X158789D02*
X154352D01*
Y367752D01*
X158789D01*
Y370024D01*
D02*
G37*
G36*
X97297D02*
X92860D01*
Y367752D01*
X97297D01*
Y370024D01*
D02*
G37*
G36*
X91860D02*
X87423D01*
Y367752D01*
X91860D01*
Y370024D01*
D02*
G37*
G36*
X86236Y367650D02*
X82980D01*
Y365575D01*
X86236D01*
Y367650D01*
D02*
G37*
G36*
X81980D02*
X78724D01*
Y365575D01*
X81980D01*
Y367650D01*
D02*
G37*
G36*
X77929Y367531D02*
X74673D01*
Y365457D01*
X77929D01*
Y367531D01*
D02*
G37*
G36*
X73673D02*
X70417D01*
Y365457D01*
X73673D01*
Y367531D01*
D02*
G37*
G36*
X211839Y365074D02*
Y363846D01*
X213066D01*
X212854Y364359D01*
X212351Y364862D01*
X211839Y365074D01*
D02*
G37*
G36*
X210839D02*
X210326Y364862D01*
X209823Y364359D01*
X209611Y363846D01*
X210839D01*
Y365074D01*
D02*
G37*
G36*
X213066Y362846D02*
X211839D01*
Y361619D01*
X212351Y361831D01*
X212854Y362334D01*
X213066Y362846D01*
D02*
G37*
G36*
X210839D02*
X209611D01*
X209823Y362334D01*
X210326Y361831D01*
X210839Y361619D01*
Y362846D01*
D02*
G37*
G36*
X232823Y351137D02*
Y349909D01*
X234050D01*
X233838Y350422D01*
X233335Y350925D01*
X232823Y351137D01*
D02*
G37*
G36*
X231823D02*
X231310Y350925D01*
X230807Y350422D01*
X230595Y349909D01*
X231823D01*
Y351137D01*
D02*
G37*
G36*
X234050Y348909D02*
X232823D01*
Y347682D01*
X233335Y347894D01*
X233838Y348397D01*
X234050Y348909D01*
D02*
G37*
G36*
X231823D02*
X230595D01*
X230807Y348397D01*
X231310Y347894D01*
X231823Y347682D01*
Y348909D01*
D02*
G37*
G36*
X132730Y348567D02*
X129612D01*
Y345449D01*
X132730D01*
Y348567D01*
D02*
G37*
G36*
X114163D02*
X111045D01*
Y345449D01*
X114163D01*
Y348567D01*
D02*
G37*
G36*
X128612D02*
X122388D01*
Y344949D01*
X121388D01*
Y348567D01*
X115163D01*
Y344949D01*
X114663D01*
Y344449D01*
X111045D01*
Y341331D01*
Y338224D01*
X114663D01*
Y337224D01*
X111045D01*
Y334106D01*
Y331000D01*
X114663D01*
Y330500D01*
X115163D01*
Y326882D01*
X121388D01*
Y330500D01*
X122388D01*
Y326882D01*
X128612D01*
Y330500D01*
X129112D01*
Y331000D01*
X132730D01*
Y334106D01*
Y337224D01*
X129112D01*
Y338224D01*
X132730D01*
Y341331D01*
Y344449D01*
X129112D01*
Y344949D01*
X128612D01*
Y348567D01*
D02*
G37*
G36*
X132730Y330000D02*
X129612D01*
Y326882D01*
X132730D01*
Y330000D01*
D02*
G37*
G36*
X114163D02*
X111045D01*
Y326882D01*
X114163D01*
Y330000D01*
D02*
G37*
G36*
X102825Y303252D02*
X100553D01*
Y298815D01*
X102825D01*
Y303252D01*
D02*
G37*
G36*
Y297815D02*
X100553D01*
Y293378D01*
X102825D01*
Y297815D01*
D02*
G37*
G36*
X86150Y271118D02*
X86130D01*
Y267665D01*
X89583D01*
Y267686D01*
X89313Y268691D01*
X88793Y269592D01*
X88057Y270328D01*
X87156Y270849D01*
X86150Y271118D01*
D02*
G37*
G36*
X85130D02*
X85110D01*
X84104Y270849D01*
X83203Y270328D01*
X82467Y269592D01*
X81946Y268691D01*
X81677Y267686D01*
Y267665D01*
X85130D01*
Y271118D01*
D02*
G37*
G36*
X67256Y269350D02*
X64000D01*
Y267276D01*
X67256D01*
Y269350D01*
D02*
G37*
G36*
X63000D02*
X59744D01*
Y267276D01*
X63000D01*
Y269350D01*
D02*
G37*
G36*
X89583Y266665D02*
X86130D01*
Y263213D01*
X86150D01*
X87156Y263482D01*
X88057Y264002D01*
X88793Y264738D01*
X89313Y265640D01*
X89583Y266645D01*
Y266665D01*
D02*
G37*
G36*
X85130D02*
X81677D01*
Y266645D01*
X81946Y265640D01*
X82467Y264738D01*
X83203Y264002D01*
X84104Y263482D01*
X85110Y263213D01*
X85130D01*
Y266665D01*
D02*
G37*
G36*
X93161Y266980D02*
X90299D01*
Y262937D01*
X93161D01*
Y266980D01*
D02*
G37*
G36*
X80650Y264937D02*
X77000D01*
Y260146D01*
X80650D01*
Y264937D01*
D02*
G37*
G36*
X76000D02*
X72350D01*
Y260146D01*
X76000D01*
Y264937D01*
D02*
G37*
G36*
X133541Y261916D02*
Y259477D01*
X135980D01*
X135807Y260122D01*
X135416Y260799D01*
X134863Y261352D01*
X134187Y261743D01*
X133541Y261916D01*
D02*
G37*
G36*
X132541D02*
X131895Y261743D01*
X131218Y261352D01*
X130665Y260799D01*
X130274Y260122D01*
X130102Y259477D01*
X132541D01*
Y261916D01*
D02*
G37*
G36*
X152035Y261837D02*
Y259398D01*
X154475D01*
X154302Y260043D01*
X153911Y260720D01*
X153358Y261273D01*
X152681Y261664D01*
X152035Y261837D01*
D02*
G37*
G36*
X151035D02*
X150390Y261664D01*
X149713Y261273D01*
X149160Y260720D01*
X148769Y260043D01*
X148596Y259398D01*
X151035D01*
Y261837D01*
D02*
G37*
G36*
X125146Y261758D02*
Y259319D01*
X127585D01*
X127412Y259965D01*
X127021Y260642D01*
X126468Y261194D01*
X125792Y261585D01*
X125146Y261758D01*
D02*
G37*
G36*
X124146D02*
X123500Y261585D01*
X122823Y261194D01*
X122270Y260642D01*
X121879Y259965D01*
X121706Y259319D01*
X124146D01*
Y261758D01*
D02*
G37*
G36*
X143020Y261640D02*
Y259201D01*
X145459D01*
X145286Y259847D01*
X144895Y260524D01*
X144342Y261076D01*
X143666Y261467D01*
X143020Y261640D01*
D02*
G37*
G36*
X142020D02*
X141374Y261467D01*
X140697Y261076D01*
X140144Y260524D01*
X139753Y259847D01*
X139580Y259201D01*
X142020D01*
Y261640D01*
D02*
G37*
G36*
X135980Y258477D02*
X133541D01*
Y256037D01*
X134187Y256210D01*
X134863Y256601D01*
X135416Y257154D01*
X135807Y257831D01*
X135980Y258477D01*
D02*
G37*
G36*
X132541D02*
X130102D01*
X130274Y257831D01*
X130665Y257154D01*
X131218Y256601D01*
X131895Y256210D01*
X132541Y256037D01*
Y258477D01*
D02*
G37*
G36*
X154475Y258398D02*
X152035D01*
Y255958D01*
X152681Y256131D01*
X153358Y256522D01*
X153911Y257075D01*
X154302Y257752D01*
X154475Y258398D01*
D02*
G37*
G36*
X151035D02*
X148596D01*
X148769Y257752D01*
X149160Y257075D01*
X149713Y256522D01*
X150390Y256131D01*
X151035Y255958D01*
Y258398D01*
D02*
G37*
G36*
X127585Y258319D02*
X125146D01*
Y255880D01*
X125792Y256053D01*
X126468Y256444D01*
X127021Y256996D01*
X127412Y257673D01*
X127585Y258319D01*
D02*
G37*
G36*
X124146D02*
X121706D01*
X121879Y257673D01*
X122270Y256996D01*
X122823Y256444D01*
X123500Y256053D01*
X124146Y255880D01*
Y258319D01*
D02*
G37*
G36*
X145459Y258201D02*
X143020D01*
Y255762D01*
X143666Y255935D01*
X144342Y256325D01*
X144895Y256878D01*
X145286Y257555D01*
X145459Y258201D01*
D02*
G37*
G36*
X142020D02*
X139580D01*
X139753Y257555D01*
X140144Y256878D01*
X140697Y256325D01*
X141374Y255935D01*
X142020Y255762D01*
Y258201D01*
D02*
G37*
G36*
X80650Y259146D02*
X77000D01*
Y254354D01*
X80650D01*
Y259146D01*
D02*
G37*
G36*
X76000D02*
X72350D01*
Y254354D01*
X76000D01*
Y259146D01*
D02*
G37*
G36*
X101355Y248637D02*
Y247409D01*
X102583D01*
X102370Y247921D01*
X101867Y248424D01*
X101355Y248637D01*
D02*
G37*
G36*
X100355D02*
X99843Y248424D01*
X99340Y247921D01*
X99127Y247409D01*
X100355D01*
Y248637D01*
D02*
G37*
G36*
X88728Y247987D02*
Y246760D01*
X89956D01*
X89744Y247272D01*
X89241Y247775D01*
X88728Y247987D01*
D02*
G37*
G36*
X87728D02*
X87216Y247775D01*
X86713Y247272D01*
X86501Y246760D01*
X87728D01*
Y247987D01*
D02*
G37*
G36*
X77902Y247712D02*
Y246484D01*
X79129D01*
X78917Y246997D01*
X78414Y247499D01*
X77902Y247712D01*
D02*
G37*
G36*
X76902D02*
X76389Y247499D01*
X75886Y246997D01*
X75674Y246484D01*
X76902D01*
Y247712D01*
D02*
G37*
G36*
X102583Y246409D02*
X101355D01*
Y245181D01*
X101867Y245394D01*
X102370Y245897D01*
X102583Y246409D01*
D02*
G37*
G36*
X100355D02*
X99127D01*
X99340Y245897D01*
X99843Y245394D01*
X100355Y245181D01*
Y246409D01*
D02*
G37*
G36*
X89956Y245760D02*
X88728D01*
Y244532D01*
X89241Y244744D01*
X89744Y245247D01*
X89956Y245760D01*
D02*
G37*
G36*
X87728D02*
X86501D01*
X86713Y245247D01*
X87216Y244744D01*
X87728Y244532D01*
Y245760D01*
D02*
G37*
G36*
X79129Y245484D02*
X77902D01*
Y244257D01*
X78414Y244469D01*
X78917Y244972D01*
X79129Y245484D01*
D02*
G37*
G36*
X76902D02*
X75674D01*
X75886Y244972D01*
X76389Y244469D01*
X76902Y244257D01*
Y245484D01*
D02*
G37*
G36*
X158728Y242869D02*
Y241642D01*
X159956D01*
X159744Y242154D01*
X159241Y242657D01*
X158728Y242869D01*
D02*
G37*
G36*
X157728D02*
X157216Y242657D01*
X156713Y242154D01*
X156501Y241642D01*
X157728D01*
Y242869D01*
D02*
G37*
G36*
X126209Y242436D02*
Y241209D01*
X127436D01*
X127224Y241721D01*
X126721Y242224D01*
X126209Y242436D01*
D02*
G37*
G36*
X125209D02*
X124696Y242224D01*
X124193Y241721D01*
X123981Y241209D01*
X125209D01*
Y242436D01*
D02*
G37*
G36*
X142941Y242161D02*
Y240933D01*
X144168D01*
X143956Y241446D01*
X143453Y241948D01*
X142941Y242161D01*
D02*
G37*
G36*
X141941D02*
X141428Y241948D01*
X140926Y241446D01*
X140713Y240933D01*
X141941D01*
Y242161D01*
D02*
G37*
G36*
X159956Y240642D02*
X158728D01*
Y239414D01*
X159241Y239626D01*
X159744Y240129D01*
X159956Y240642D01*
D02*
G37*
G36*
X157728D02*
X156501D01*
X156713Y240129D01*
X157216Y239626D01*
X157728Y239414D01*
Y240642D01*
D02*
G37*
G36*
X127436Y240209D02*
X126209D01*
Y238981D01*
X126721Y239193D01*
X127224Y239696D01*
X127436Y240209D01*
D02*
G37*
G36*
X125209D02*
X123981D01*
X124193Y239696D01*
X124696Y239193D01*
X125209Y238981D01*
Y240209D01*
D02*
G37*
G36*
X144168Y239933D02*
X142941D01*
Y238705D01*
X143453Y238918D01*
X143956Y239421D01*
X144168Y239933D01*
D02*
G37*
G36*
X141941D02*
X140713D01*
X140926Y239421D01*
X141428Y238918D01*
X141941Y238705D01*
Y239933D01*
D02*
G37*
G36*
X187256Y290925D02*
X184000D01*
Y288850D01*
X187256D01*
Y290925D01*
D02*
G37*
G36*
X183000D02*
X179744D01*
Y288850D01*
X183000D01*
Y290925D01*
D02*
G37*
G36*
X187256Y287850D02*
X184000D01*
Y285776D01*
X187256D01*
Y287850D01*
D02*
G37*
G36*
X183000D02*
X179744D01*
Y285776D01*
X183000D01*
Y287850D01*
D02*
G37*
G36*
X184161Y284602D02*
Y283374D01*
X185389D01*
X185177Y283887D01*
X184674Y284389D01*
X184161Y284602D01*
D02*
G37*
G36*
X183161D02*
X182649Y284389D01*
X182146Y283887D01*
X181934Y283374D01*
X183161D01*
Y284602D01*
D02*
G37*
G36*
X185389Y282374D02*
X184161D01*
Y281147D01*
X184674Y281359D01*
X185177Y281861D01*
X185389Y282374D01*
D02*
G37*
G36*
X183161D02*
X181934D01*
X182146Y281861D01*
X182649Y281359D01*
X183161Y281147D01*
Y282374D01*
D02*
G37*
G36*
X187508Y260743D02*
Y259516D01*
X188735D01*
X188523Y260028D01*
X188020Y260531D01*
X187508Y260743D01*
D02*
G37*
G36*
X186508D02*
X185995Y260531D01*
X185493Y260028D01*
X185280Y259516D01*
X186508D01*
Y260743D01*
D02*
G37*
G36*
X200173Y264228D02*
X196524D01*
Y259437D01*
X200173D01*
Y264228D01*
D02*
G37*
G36*
X195524D02*
X191874D01*
Y259437D01*
X195524D01*
Y264228D01*
D02*
G37*
G36*
X206445Y260546D02*
Y259319D01*
X207672D01*
X207460Y259831D01*
X206957Y260334D01*
X206445Y260546D01*
D02*
G37*
G36*
X205445D02*
X204932Y260334D01*
X204430Y259831D01*
X204217Y259319D01*
X205445D01*
Y260546D01*
D02*
G37*
G36*
X188735Y258516D02*
X187508D01*
Y257288D01*
X188020Y257501D01*
X188523Y258003D01*
X188735Y258516D01*
D02*
G37*
G36*
X186508D02*
X185280D01*
X185493Y258003D01*
X185995Y257501D01*
X186508Y257288D01*
Y258516D01*
D02*
G37*
G36*
X207672Y258319D02*
X206445D01*
Y257091D01*
X206957Y257304D01*
X207460Y257806D01*
X207672Y258319D01*
D02*
G37*
G36*
X205445D02*
X204217D01*
X204430Y257806D01*
X204932Y257304D01*
X205445Y257091D01*
Y258319D01*
D02*
G37*
G36*
X200173Y258437D02*
X196524D01*
Y253646D01*
X200173D01*
Y258437D01*
D02*
G37*
G36*
X195524D02*
X191874D01*
Y253646D01*
X195524D01*
Y258437D01*
D02*
G37*
G36*
X196681Y252191D02*
Y249752D01*
X199120D01*
X198947Y250398D01*
X198556Y251075D01*
X198004Y251627D01*
X197327Y252018D01*
X196681Y252191D01*
D02*
G37*
G36*
X195681D02*
X195035Y252018D01*
X194358Y251627D01*
X193806Y251075D01*
X193415Y250398D01*
X193242Y249752D01*
X195681D01*
Y252191D01*
D02*
G37*
G36*
X199120Y248752D02*
X196681D01*
Y246313D01*
X197327Y246486D01*
X198004Y246877D01*
X198556Y247429D01*
X198947Y248106D01*
X199120Y248752D01*
D02*
G37*
G36*
X195681D02*
X193242D01*
X193415Y248106D01*
X193806Y247429D01*
X194358Y246877D01*
X195035Y246486D01*
X195681Y246313D01*
Y248752D01*
D02*
G37*
G36*
X200303Y239602D02*
Y238374D01*
X201531D01*
X201318Y238886D01*
X200816Y239389D01*
X200303Y239602D01*
D02*
G37*
G36*
X199303D02*
X198791Y239389D01*
X198288Y238886D01*
X198076Y238374D01*
X199303D01*
Y239602D01*
D02*
G37*
G36*
X201531Y237374D02*
X200303D01*
Y236146D01*
X200816Y236359D01*
X201318Y236861D01*
X201531Y237374D01*
D02*
G37*
G36*
X199303D02*
X198076D01*
X198288Y236861D01*
X198791Y236359D01*
X199303Y236146D01*
Y237374D01*
D02*
G37*
G36*
X193413Y230704D02*
Y229476D01*
X194641D01*
X194429Y229989D01*
X193926Y230492D01*
X193413Y230704D01*
D02*
G37*
G36*
X192413D02*
X191901Y230492D01*
X191398Y229989D01*
X191186Y229476D01*
X192413D01*
Y230704D01*
D02*
G37*
G36*
X194641Y228476D02*
X193413D01*
Y227249D01*
X193926Y227461D01*
X194429Y227964D01*
X194641Y228476D01*
D02*
G37*
G36*
X192413D02*
X191186D01*
X191398Y227964D01*
X191901Y227461D01*
X192413Y227249D01*
Y228476D01*
D02*
G37*
G36*
X186366Y223342D02*
Y222114D01*
X187594D01*
X187381Y222627D01*
X186879Y223130D01*
X186366Y223342D01*
D02*
G37*
G36*
X185366D02*
X184854Y223130D01*
X184351Y222627D01*
X184139Y222114D01*
X185366D01*
Y223342D01*
D02*
G37*
G36*
X187594Y221114D02*
X186366D01*
Y219887D01*
X186879Y220099D01*
X187381Y220602D01*
X187594Y221114D01*
D02*
G37*
G36*
X185366D02*
X184139D01*
X184351Y220602D01*
X184854Y220099D01*
X185366Y219887D01*
Y221114D01*
D02*
G37*
G36*
X167508Y216128D02*
Y213689D01*
X169947D01*
X169774Y214335D01*
X169383Y215012D01*
X168831Y215564D01*
X168154Y215955D01*
X167508Y216128D01*
D02*
G37*
G36*
X166508D02*
X165862Y215955D01*
X165185Y215564D01*
X164632Y215012D01*
X164242Y214335D01*
X164069Y213689D01*
X166508D01*
Y216128D01*
D02*
G37*
G36*
X175264Y215931D02*
Y213492D01*
X177703D01*
X177530Y214138D01*
X177139Y214815D01*
X176586Y215368D01*
X175910Y215758D01*
X175264Y215931D01*
D02*
G37*
G36*
X174264D02*
X173618Y215758D01*
X172941Y215368D01*
X172388Y214815D01*
X171998Y214138D01*
X171825Y213492D01*
X174264D01*
Y215931D01*
D02*
G37*
G36*
X182705Y215616D02*
Y213177D01*
X185144D01*
X184971Y213823D01*
X184580Y214500D01*
X184027Y215053D01*
X183351Y215443D01*
X182705Y215616D01*
D02*
G37*
G36*
X181705D02*
X181059Y215443D01*
X180382Y215053D01*
X179829Y214500D01*
X179438Y213823D01*
X179265Y213177D01*
X181705D01*
Y215616D01*
D02*
G37*
G36*
X169947Y212689D02*
X167508D01*
Y210250D01*
X168154Y210423D01*
X168831Y210814D01*
X169383Y211366D01*
X169774Y212043D01*
X169947Y212689D01*
D02*
G37*
G36*
X166508D02*
X164069D01*
X164242Y212043D01*
X164632Y211366D01*
X165185Y210814D01*
X165862Y210423D01*
X166508Y210250D01*
Y212689D01*
D02*
G37*
G36*
X177703Y212492D02*
X175264D01*
Y210053D01*
X175910Y210226D01*
X176586Y210617D01*
X177139Y211169D01*
X177530Y211846D01*
X177703Y212492D01*
D02*
G37*
G36*
X174264D02*
X171825D01*
X171998Y211846D01*
X172388Y211169D01*
X172941Y210617D01*
X173618Y210226D01*
X174264Y210053D01*
Y212492D01*
D02*
G37*
G36*
X185144Y212177D02*
X182705D01*
Y209738D01*
X183351Y209911D01*
X184027Y210302D01*
X184580Y210855D01*
X184971Y211531D01*
X185144Y212177D01*
D02*
G37*
G36*
X181705D02*
X179265D01*
X179438Y211531D01*
X179829Y210855D01*
X180382Y210302D01*
X181059Y209911D01*
X181705Y209738D01*
Y212177D01*
D02*
G37*
G36*
X93358Y281354D02*
X90496D01*
Y277311D01*
X93358D01*
Y281354D01*
D02*
G37*
%LPD*%
D15*
X221847Y379528D02*
X222020Y379701D01*
X213150Y379528D02*
X221847D01*
X222020Y379701D02*
X230811D01*
X230906Y379606D01*
D16*
X205315Y389724D02*
D03*
X181653Y389646D02*
D03*
X178543Y388386D02*
D03*
X207874Y388661D02*
D03*
X57520Y389370D02*
D03*
X33858Y389291D02*
D03*
X30748Y388032D02*
D03*
X60079Y388307D02*
D03*
D17*
X197323Y372087D02*
D03*
X189488Y371969D02*
D03*
X49528Y371732D02*
D03*
X41693Y371614D02*
D03*
D18*
X231614Y337244D02*
D03*
X231535Y360906D02*
D03*
X230276Y364016D02*
D03*
X230551Y334685D02*
D03*
D19*
X213976Y345236D02*
D03*
X213858Y353071D02*
D03*
D20*
X39370Y342323D02*
D03*
X35433Y350197D02*
D03*
X43307D02*
D03*
D21*
X194331Y346142D02*
D03*
X179520Y360952D02*
D03*
X100945Y213386D02*
D03*
X86135Y228196D02*
D03*
D22*
X196024Y289646D02*
D03*
Y258937D02*
D03*
X76500Y259646D02*
D03*
Y290354D02*
D03*
D23*
X183500Y294650D02*
D03*
Y288350D02*
D03*
X36102Y295590D02*
D03*
Y289291D02*
D03*
X74173Y368032D02*
D03*
Y361732D02*
D03*
X82480Y368150D02*
D03*
Y361850D02*
D03*
X21299Y105157D02*
D03*
Y111457D02*
D03*
X31496D02*
D03*
Y105157D02*
D03*
X63500Y269850D02*
D03*
Y276150D02*
D03*
X70236Y93268D02*
D03*
Y86968D02*
D03*
D24*
X174000Y285051D02*
D03*
Y294500D02*
D03*
X151693Y289882D02*
D03*
Y280433D02*
D03*
X142480Y289949D02*
D03*
Y280500D02*
D03*
X133500Y289949D02*
D03*
Y280500D02*
D03*
X124409Y289961D02*
D03*
Y280512D02*
D03*
X10905Y172059D02*
D03*
Y181508D02*
D03*
X63500Y294000D02*
D03*
Y284551D02*
D03*
X45000Y237051D02*
D03*
Y246500D02*
D03*
X52756Y112874D02*
D03*
Y122323D02*
D03*
X55000Y246776D02*
D03*
Y256224D02*
D03*
D25*
X92360Y367252D02*
D03*
Y362252D02*
D03*
Y357252D02*
D03*
Y352252D02*
D03*
Y347252D02*
D03*
Y342252D02*
D03*
Y337252D02*
D03*
Y332252D02*
D03*
Y327252D02*
D03*
Y322252D02*
D03*
Y317252D02*
D03*
Y312252D02*
D03*
Y307252D02*
D03*
Y302252D02*
D03*
X159289D02*
D03*
Y307252D02*
D03*
Y312252D02*
D03*
Y317252D02*
D03*
Y322252D02*
D03*
Y327252D02*
D03*
Y332252D02*
D03*
Y337252D02*
D03*
Y342252D02*
D03*
Y347252D02*
D03*
Y352252D02*
D03*
Y357252D02*
D03*
Y362252D02*
D03*
Y367252D02*
D03*
D26*
X103325Y298315D02*
D03*
X108325D02*
D03*
X113325D02*
D03*
X118325D02*
D03*
X123325D02*
D03*
X128325D02*
D03*
X133325D02*
D03*
X138325D02*
D03*
X143325D02*
D03*
X148325D02*
D03*
D27*
X114663Y344949D02*
D03*
X121888D02*
D03*
X129112D02*
D03*
X114663Y337724D02*
D03*
X121888D02*
D03*
X129112D02*
D03*
X114663Y330500D02*
D03*
X121888D02*
D03*
X129112D02*
D03*
D28*
X52874Y354213D02*
D03*
X62323D02*
D03*
X61929Y344803D02*
D03*
X52480D02*
D03*
X66299Y362815D02*
D03*
X56850D02*
D03*
X10945Y228583D02*
D03*
X20394D02*
D03*
X25118Y217205D02*
D03*
X34567D02*
D03*
X103307Y276811D02*
D03*
X93858D02*
D03*
X93661Y267480D02*
D03*
X103110D02*
D03*
D29*
X133500Y274224D02*
D03*
Y264776D02*
D03*
X142500Y274224D02*
D03*
Y264776D02*
D03*
X151614Y274291D02*
D03*
Y264843D02*
D03*
X124409Y274224D02*
D03*
Y264776D02*
D03*
X10905Y162284D02*
D03*
Y152835D02*
D03*
D30*
X72913Y193268D02*
D03*
X62913Y134016D02*
D03*
X52913D02*
D03*
X42913D02*
D03*
X32913D02*
D03*
X22913D02*
D03*
Y193268D02*
D03*
X32913D02*
D03*
X42913D02*
D03*
X52913D02*
D03*
X62913D02*
D03*
D31*
X75354Y134016D02*
D03*
D32*
X28622Y228701D02*
D03*
X38071D02*
D03*
X66417Y376890D02*
D03*
X75866D02*
D03*
D33*
X13150Y237756D02*
D03*
X6850D02*
D03*
X47480Y204528D02*
D03*
X41181D02*
D03*
Y212480D02*
D03*
X47480D02*
D03*
X36102Y274173D02*
D03*
X29803D02*
D03*
D34*
X63898Y224528D02*
D03*
X46575D02*
D03*
X8839Y291500D02*
D03*
X26161D02*
D03*
D35*
X206457Y137087D02*
D03*
X185512D02*
D03*
D36*
X221969Y315079D02*
D03*
X207158Y300269D02*
D03*
X209921Y326811D02*
D03*
X195111Y312001D02*
D03*
D37*
X38976Y87067D02*
D03*
Y82067D02*
D03*
Y77067D02*
D03*
Y72067D02*
D03*
X60630D02*
D03*
Y77067D02*
D03*
Y82067D02*
D03*
Y87067D02*
D03*
D38*
X10583Y256000D02*
D03*
D39*
X33417Y265055D02*
D03*
Y256000D02*
D03*
Y246945D02*
D03*
D75*
X62402Y354291D02*
X69567D01*
X69646Y354370D01*
X62323Y354213D02*
X62402Y354291D01*
X15472Y111457D02*
X31496D01*
X213937Y337953D02*
X225197Y326693D01*
X66682Y232548D02*
X68071Y233937D01*
X65703Y229930D02*
Y231569D01*
X74173Y361811D02*
X79409D01*
X66260Y362559D02*
X67953D01*
X70236Y86968D02*
X76653D01*
X64481D02*
X70236D01*
X10264Y228468D02*
X11051Y227681D01*
X68385Y361811D02*
X74173D01*
X66260Y362559D02*
X66299Y362598D01*
Y363032D01*
X204015Y335670D02*
X209921Y329764D01*
X222047Y316625D02*
X225197Y313476D01*
X209921Y326811D02*
Y329764D01*
X225197Y321212D02*
Y326693D01*
X222047Y318062D02*
X225197Y321212D01*
X222047Y316625D02*
Y318062D01*
X204703Y299661D02*
X207881D01*
X65703Y231569D02*
X66682Y232548D01*
X192088Y334773D02*
X227716Y299145D01*
X176921Y342055D02*
X218976Y300000D01*
X159486Y342055D02*
X176921D01*
X192088Y334773D02*
Y344135D01*
X190504Y317252D02*
X190787Y316968D01*
X159289Y317252D02*
X190504D01*
X196713Y296512D02*
X201553D01*
X204703Y299661D01*
X194449Y298701D02*
X194525D01*
X207881Y299661D02*
X208122Y299421D01*
X180898Y312252D02*
X194449Y298701D01*
X194525D02*
X196713Y296512D01*
X79016Y349291D02*
X86779Y357055D01*
X76500Y291496D02*
X79016Y294012D01*
Y349291D01*
X73014Y195337D02*
X118325Y240648D01*
Y298315D01*
X159289Y342252D02*
X159486Y342055D01*
X74925Y287051D02*
Y288779D01*
X63500Y284551D02*
X72425D01*
X74925Y288779D02*
X76500Y290354D01*
X72425Y284551D02*
X74925Y287051D01*
X2874Y124055D02*
Y198425D01*
Y124055D02*
X15472Y111457D01*
X31496D02*
X43504D01*
X44094Y110866D01*
X159289Y312252D02*
X180898D01*
X65703Y226333D02*
Y229930D01*
X64468Y195728D02*
X113325Y244585D01*
Y298315D01*
X85185Y95500D02*
X138500D01*
X76653Y86968D02*
X85185Y95500D01*
X80546Y357357D02*
Y361811D01*
X74843Y305343D02*
Y351654D01*
X65469Y295969D02*
X74843Y305343D01*
Y351654D02*
X80546Y357357D01*
X76500Y290354D02*
Y291496D01*
X86779Y357055D02*
X92163D01*
X28563Y228642D02*
X28622Y228701D01*
X20394Y228583D02*
X20453Y228642D01*
X28563D01*
X37958Y219173D02*
X40520Y221735D01*
X44606D01*
X35354Y219173D02*
X37958D01*
X44606Y221735D02*
X46575Y223704D01*
Y224528D01*
X34567Y217205D02*
Y218386D01*
X35354Y219173D01*
X52756Y91850D02*
Y112874D01*
X52835Y133937D02*
X52913Y134016D01*
X52835Y122402D02*
Y133937D01*
X52756Y122323D02*
X52835Y122402D01*
X92232Y85500D02*
X138500D01*
X83799Y77067D02*
X92232Y85500D01*
X47480Y204528D02*
Y212480D01*
X25157Y209055D02*
X32913Y201299D01*
X25118Y209095D02*
X25157Y209055D01*
X32913Y193268D02*
Y201299D01*
X13504Y209055D02*
X25157D01*
X2874Y198425D02*
X13504Y209055D01*
X12751Y201220D02*
X20888D01*
X10905Y199375D02*
X12751Y201220D01*
X10905Y181508D02*
Y199375D01*
X22734Y193448D02*
X22913Y193268D01*
X20888Y201220D02*
X22734Y199375D01*
Y193448D02*
Y199375D01*
X42913Y193268D02*
X43307Y193661D01*
X45158Y198701D02*
X45635D01*
X47756Y213661D02*
X48661D01*
X61929Y222559D02*
X63898Y224528D01*
X48661Y213661D02*
X50866Y215866D01*
X60084D01*
X61929Y217711D01*
Y222559D01*
X92163Y357055D02*
X92360Y357252D01*
X55000Y256224D02*
X55665Y255559D01*
X11051Y226500D02*
Y227681D01*
X6850Y230701D02*
Y237756D01*
Y230701D02*
X9083Y228468D01*
X10264D01*
X6850Y237756D02*
Y245236D01*
X6378Y245709D02*
X6850Y245236D01*
X6378Y249630D02*
X10583Y253835D01*
X6378Y245709D02*
Y249630D01*
X10583Y253835D02*
Y256000D01*
X63500Y276150D02*
Y284551D01*
X65469Y294787D02*
Y295969D01*
X63500Y294000D02*
X64681D01*
X65469Y294787D01*
X55000Y286681D02*
X62319Y294000D01*
X55000Y256224D02*
Y286681D01*
X62319Y294000D02*
X63500D01*
X33529Y256112D02*
X54888D01*
X55000Y256224D01*
X33417Y256000D02*
X33529Y256112D01*
D76*
X27736Y289685D02*
X35709D01*
X26161Y291260D02*
Y291500D01*
X35709Y289685D02*
X36102Y289291D01*
X26161Y291260D02*
X27736Y289685D01*
X36102Y282520D02*
X36220Y282638D01*
X36102Y274173D02*
Y282520D01*
X66220Y375512D02*
X66299Y375590D01*
X61890Y370945D02*
X66220Y375276D01*
X61890Y370945D02*
X61890D01*
X66220Y375276D02*
Y375512D01*
X57244Y366299D02*
X61890Y370945D01*
X213937Y337953D02*
Y342215D01*
X57244Y363209D02*
Y366299D01*
X56850Y362815D02*
X57244Y363209D01*
X56457Y361457D02*
X57244Y362244D01*
Y364390D01*
X50512Y362779D02*
Y370748D01*
X51834Y361457D02*
X56457D01*
X49528Y371732D02*
X50512Y370748D01*
Y362779D02*
X51834Y361457D01*
X42992Y317874D02*
X52323Y327205D01*
X42992Y291598D02*
Y317874D01*
X218976Y233386D02*
Y300000D01*
X36102Y289291D02*
X36102Y289291D01*
X40686D02*
X42992Y291598D01*
X36102Y289291D02*
X40686D01*
X84669Y327228D02*
X92337D01*
X36102Y267361D02*
Y274173D01*
X35681Y265154D02*
Y266940D01*
X36102Y267361D01*
X45158Y198701D02*
X47480Y201024D01*
Y204528D01*
X196929Y192717D02*
X227716Y223504D01*
X146889Y215432D02*
X153611Y222154D01*
X188307Y202716D02*
X218976Y233386D01*
X195428Y131572D02*
X196000Y131000D01*
X162756Y192717D02*
X195428Y160045D01*
Y131572D02*
Y160045D01*
X227716Y223504D02*
Y299145D01*
X159095Y192717D02*
X162756D01*
X72126Y72067D02*
X133533Y72067D01*
X136966Y75500D01*
X10905Y162284D02*
Y172059D01*
X43307Y193661D02*
Y196850D01*
X45158Y198701D01*
X68071Y233937D02*
Y248110D01*
X60622Y255559D02*
X68071Y248110D01*
X26161Y291500D02*
X27675Y289986D01*
X55665Y255559D02*
X60622D01*
X151654Y274331D02*
Y280394D01*
X151693Y280433D01*
X151614Y274291D02*
X151654Y274331D01*
X142480Y280500D02*
X142490Y280490D01*
Y274234D02*
Y280490D01*
Y274234D02*
X142500Y274224D01*
X133500D02*
Y280500D01*
X124409Y274224D02*
Y280512D01*
X54862Y246638D02*
X55000Y246776D01*
X45000Y246500D02*
X45138Y246638D01*
X54862D01*
X43819Y246500D02*
X45000D01*
X33417Y246945D02*
X43374D01*
X43819Y246500D01*
D77*
X203921Y342245D02*
Y349992D01*
X205411Y351482D01*
X212269D02*
X213858Y353071D01*
X205411Y351482D02*
X212269D01*
X204015Y335670D02*
Y342151D01*
X203921Y342245D02*
X204015Y342151D01*
X40157Y341535D02*
X43583Y338110D01*
X39764Y341535D02*
X40157D01*
X39370Y341929D02*
X39764Y341535D01*
X52165Y304803D02*
X63661Y316299D01*
Y327598D01*
X53150Y338110D02*
X63661Y327598D01*
X43583Y338110D02*
X53150D01*
X39370Y341929D02*
Y342323D01*
D78*
X82661Y362032D02*
X92140D01*
X80811D02*
X82661D01*
X173485Y358355D02*
X177199D01*
X179245Y360401D01*
X172383Y357252D02*
X173485Y358355D01*
X52579Y353170D02*
X52852Y353442D01*
X52402Y345787D02*
X52579Y345965D01*
Y353170D01*
X183650Y351209D02*
X189488Y357047D01*
Y371969D01*
X197323Y358425D02*
Y372087D01*
X186150Y347252D02*
X197323Y358425D01*
X164543Y351209D02*
X183650D01*
X159289Y347252D02*
X186150D01*
X192847Y294650D02*
X196000Y291496D01*
X182319Y294650D02*
X183500D01*
X192847D01*
X196000Y290354D02*
Y291496D01*
X63406Y195728D02*
X64468D01*
X62913Y193268D02*
Y195236D01*
X63406Y195728D01*
X107638Y289252D02*
X108325Y289939D01*
Y298315D01*
X103307Y284921D02*
X107638Y289252D01*
X103307Y276811D02*
Y284921D01*
X43339Y350528D02*
Y350622D01*
X43406Y350689D02*
X44823D01*
X46035Y351902D02*
X46390D01*
X43339Y350622D02*
X43406Y350689D01*
X47930Y353442D02*
X52852D01*
X44823Y350689D02*
X46035Y351902D01*
X46390D02*
X47930Y353442D01*
X164252Y351500D02*
X164543Y351209D01*
X163480Y351500D02*
X164252D01*
X159289Y352252D02*
X159585Y351957D01*
X163023D01*
X163480Y351500D01*
X174000Y294500D02*
X182169D01*
X182319Y294650D01*
X166248Y302252D02*
X171933Y296567D01*
Y295386D02*
X172819Y294500D01*
X159289Y302252D02*
X166248D01*
X171933Y295386D02*
Y296567D01*
X172819Y294500D02*
X174000D01*
X159289Y357252D02*
X172383D01*
X149626Y290768D02*
Y293840D01*
Y290768D02*
X150512Y289882D01*
X151693D01*
X148620Y294846D02*
X149626Y293840D01*
X148620Y294846D02*
Y298020D01*
X148325Y298315D02*
X148620Y298020D01*
X143425Y290894D02*
Y298215D01*
X133325Y290124D02*
Y298315D01*
D79*
X82661Y362032D02*
X82701Y362071D01*
X82480Y361850D02*
X82661Y362032D01*
X84646Y327205D02*
X84669Y327228D01*
X72126Y72067D02*
X72126Y72067D01*
X60630Y72067D02*
X72126D01*
X92337Y327228D02*
X92360Y327252D01*
X57539Y87067D02*
X60630D01*
X52756Y91850D02*
X57539Y87067D01*
X125591Y289961D02*
X127756Y292126D01*
Y297746D01*
X128325Y298315D01*
X143325D02*
X143425Y298215D01*
X142480Y289949D02*
X143425Y290894D01*
X133325Y290124D02*
X133500Y289949D01*
X124409Y289961D02*
X125591D01*
X92140Y362032D02*
X92360Y362252D01*
D80*
X175435Y125092D02*
X176000Y124528D01*
Y113716D02*
Y124528D01*
X136102Y157953D02*
Y204646D01*
X168963Y125092D02*
X175435D01*
X136102Y157953D02*
X168963Y125092D01*
X206122Y124862D02*
Y136752D01*
X205787Y124528D02*
X206122Y124862D01*
Y136752D02*
X206457Y137087D01*
X136102Y204646D02*
X146889Y215432D01*
X65703Y226333D02*
X69300Y229930D01*
X63898Y224528D02*
X65703Y226333D01*
X158529Y202152D02*
X159095Y202716D01*
X155459Y202152D02*
X158529D01*
X147559Y194252D02*
X155459Y202152D01*
X147559Y162913D02*
Y194252D01*
X206000Y116504D02*
Y124528D01*
X147559Y162913D02*
X172323Y138150D01*
X184252D01*
X157783Y95500D02*
X176000Y113716D01*
X138500Y95500D02*
X157783D01*
X164997Y75500D02*
X206000Y116504D01*
X138500Y75500D02*
X164997D01*
D81*
X195039Y119685D02*
Y124528D01*
X195787D02*
Y130787D01*
X160854Y85500D02*
X195039Y119685D01*
X138500Y85500D02*
X160854D01*
D82*
X162756Y192717D02*
X196929D01*
X174000Y237622D02*
Y285051D01*
X159095Y222716D02*
X174000Y237622D01*
X84088Y226428D02*
X84367D01*
X69300Y229930D02*
X80587D01*
X84367Y226428D02*
X86135Y228196D01*
X80587Y229930D02*
X84088Y226428D01*
X100945Y213386D02*
X110276Y222716D01*
X159095D01*
Y202716D02*
X188307D01*
D83*
X8839Y291500D02*
X8976Y291638D01*
Y300590D01*
X15000Y306614D01*
Y322000D01*
D84*
X103209Y267579D02*
Y276713D01*
X103307Y276811D01*
X103110Y267480D02*
X103209Y267579D01*
D85*
X60630Y77067D02*
X83799D01*
X136966Y75500D02*
X138500D01*
D86*
X25118Y209095D02*
Y217205D01*
D87*
X44094Y32126D02*
D03*
Y110866D02*
D03*
X53425Y307323D02*
D03*
Y327008D02*
D03*
X175787Y124528D02*
D03*
X185787D02*
D03*
X195787D02*
D03*
X205787D02*
D03*
X159095Y182717D02*
D03*
Y202716D02*
D03*
Y212717D02*
D03*
Y222716D02*
D03*
Y172716D02*
D03*
Y192717D02*
D03*
X138500Y55500D02*
D03*
Y65500D02*
D03*
Y75500D02*
D03*
Y85500D02*
D03*
Y95500D02*
D03*
Y105500D02*
D03*
D88*
X118276Y344949D02*
D03*
X125500D02*
D03*
X114663Y341337D02*
D03*
X129112D02*
D03*
X118276Y337724D02*
D03*
X125500D02*
D03*
X114663Y334112D02*
D03*
X121888D02*
D03*
X129112D02*
D03*
X118276Y330500D02*
D03*
X125500D02*
D03*
D89*
X121888Y341337D02*
D03*
D90*
X94055Y7598D02*
D03*
D91*
Y17598D02*
D03*
X104055Y7598D02*
D03*
Y17598D02*
D03*
X114055Y7598D02*
D03*
Y17598D02*
D03*
X124055Y7598D02*
D03*
Y17598D02*
D03*
X134055Y7598D02*
D03*
Y17598D02*
D03*
X85630Y267165D02*
D03*
X69646Y354370D02*
D03*
D92*
X15000Y322000D02*
D03*
Y342000D02*
D03*
D93*
X34291Y208898D02*
D03*
X120472Y206181D02*
D03*
X111496Y188937D02*
D03*
X110433Y164331D02*
D03*
X110079Y147283D02*
D03*
X110787Y127598D02*
D03*
X116063Y109646D02*
D03*
X103779Y108937D02*
D03*
X90748Y109291D02*
D03*
X79488Y108780D02*
D03*
X76823Y221406D02*
D03*
X168150Y382638D02*
D03*
X74882Y389134D02*
D03*
X174134Y374252D02*
D03*
X183661Y282874D02*
D03*
X218858Y189409D02*
D03*
X211575Y171850D02*
D03*
X211850Y157283D02*
D03*
X199803Y237874D02*
D03*
X192913Y228976D02*
D03*
X185866Y221614D02*
D03*
X88228Y246260D02*
D03*
X77402Y245984D02*
D03*
X100855Y246909D02*
D03*
X142441Y240433D02*
D03*
X158228Y241142D02*
D03*
X125709Y240709D02*
D03*
X54134Y296969D02*
D03*
X64213Y305157D02*
D03*
X35945Y300787D02*
D03*
X85630Y133701D02*
D03*
X2244Y106457D02*
D03*
Y89606D02*
D03*
X2795Y77244D02*
D03*
X2520Y59842D02*
D03*
X1693Y44134D02*
D03*
X1417Y30945D02*
D03*
X235354Y316535D02*
D03*
X234173Y295905D02*
D03*
Y271457D02*
D03*
X233189Y254606D02*
D03*
X234173Y237559D02*
D03*
X233465Y219764D02*
D03*
X145000Y105276D02*
D03*
X138347Y111575D02*
D03*
X132953Y105197D02*
D03*
X69134Y331811D02*
D03*
X68740Y319016D02*
D03*
X68858Y309724D02*
D03*
X58583Y300866D02*
D03*
X49331Y292559D02*
D03*
X48189Y271890D02*
D03*
X48622Y262480D02*
D03*
X55343Y236350D02*
D03*
X33728Y236705D02*
D03*
X19016Y237362D02*
D03*
X205945Y258819D02*
D03*
X187008Y259016D02*
D03*
X83701Y377559D02*
D03*
X122953Y35669D02*
D03*
X65394Y5906D02*
D03*
X69252Y36299D02*
D03*
X175591Y8701D02*
D03*
X175157Y35669D02*
D03*
X229095Y53622D02*
D03*
X231457Y84882D02*
D03*
X189055Y70315D02*
D03*
X204252Y87008D02*
D03*
X216260Y103504D02*
D03*
X233780Y100079D02*
D03*
X233583Y123583D02*
D03*
X232716Y153976D02*
D03*
X232283Y171732D02*
D03*
X232087Y203858D02*
D03*
X211339Y363347D02*
D03*
X232323Y349410D02*
D03*
X3583Y361181D02*
D03*
X4134Y334016D02*
D03*
X5866Y272480D02*
D03*
X6654Y218110D02*
D03*
X67547Y214050D02*
D03*
X72492Y217941D02*
D03*
X62862Y209067D02*
D03*
X57638Y204921D02*
D03*
X52992Y200905D02*
D03*
D94*
X142520Y258701D02*
D03*
X90669Y52716D02*
D03*
X47717D02*
D03*
X43504Y20433D02*
D03*
X121299Y53228D02*
D03*
X159724Y52480D02*
D03*
X197165Y52716D02*
D03*
X75315Y124803D02*
D03*
X124646Y258819D02*
D03*
X133041Y258977D02*
D03*
X151535Y258898D02*
D03*
X167008Y213189D02*
D03*
X174764Y212992D02*
D03*
X182205Y212677D02*
D03*
X196181Y249252D02*
D03*
X28268Y350354D02*
D03*
X32638Y371299D02*
D03*
X14921Y352323D02*
D03*
D95*
X222130Y5051D02*
D03*
Y23122D02*
D03*
X231106Y14028D02*
D03*
X213350D02*
D03*
X14110Y4850D02*
D03*
Y22921D02*
D03*
X23087Y13827D02*
D03*
X5331D02*
D03*
X13909Y370350D02*
D03*
Y388421D02*
D03*
X22886Y379327D02*
D03*
X5130D02*
D03*
X213150Y379528D02*
D03*
X230906D02*
D03*
X221929Y388622D02*
D03*
Y370551D02*
D03*
D96*
X52362Y165748D02*
D03*
D97*
X84646Y327205D02*
D03*
X91260Y285984D02*
D03*
X40748Y282874D02*
D03*
X68189Y345354D02*
D03*
D98*
X14201Y14000D02*
D03*
X222220Y14201D02*
D03*
X222020Y379701D02*
D03*
X14000Y379500D02*
D03*
M02*
