G04*
G04 #@! TF.GenerationSoftware,Altium Limited,Altium Designer,22.9.1 (49)*
G04*
G04 Layer_Color=8388736*
%FSLAX25Y25*%
%MOIN*%
G70*
G04*
G04 #@! TF.SameCoordinates,5637A8B9-9DC4-41E7-96B4-60DE8AE1DB3B*
G04*
G04*
G04 #@! TF.FilePolarity,Negative*
G04*
G01*
G75*
%ADD24R,0.07087X0.04724*%
%ADD28R,0.04724X0.07087*%
G04:AMPARAMS|DCode=40|XSize=86.74mil|YSize=126.11mil|CornerRadius=23.68mil|HoleSize=0mil|Usage=FLASHONLY|Rotation=180.000|XOffset=0mil|YOffset=0mil|HoleType=Round|Shape=RoundedRectangle|*
%AMROUNDEDRECTD40*
21,1,0.08674,0.07874,0,0,180.0*
21,1,0.03937,0.12611,0,0,180.0*
1,1,0.04737,-0.01968,0.03937*
1,1,0.04737,0.01968,0.03937*
1,1,0.04737,0.01968,-0.03937*
1,1,0.04737,-0.01968,-0.03937*
%
%ADD40ROUNDEDRECTD40*%
G04:AMPARAMS|DCode=41|XSize=67.06mil|YSize=165.48mil|CornerRadius=18.76mil|HoleSize=0mil|Usage=FLASHONLY|Rotation=0.000|XOffset=0mil|YOffset=0mil|HoleType=Round|Shape=RoundedRectangle|*
%AMROUNDEDRECTD41*
21,1,0.06706,0.12795,0,0,0.0*
21,1,0.02953,0.16548,0,0,0.0*
1,1,0.03753,0.01476,-0.06398*
1,1,0.03753,-0.01476,-0.06398*
1,1,0.03753,-0.01476,0.06398*
1,1,0.03753,0.01476,0.06398*
%
%ADD41ROUNDEDRECTD41*%
G04:AMPARAMS|DCode=42|XSize=86.74mil|YSize=126.11mil|CornerRadius=23.68mil|HoleSize=0mil|Usage=FLASHONLY|Rotation=90.000|XOffset=0mil|YOffset=0mil|HoleType=Round|Shape=RoundedRectangle|*
%AMROUNDEDRECTD42*
21,1,0.08674,0.07874,0,0,90.0*
21,1,0.03937,0.12611,0,0,90.0*
1,1,0.04737,0.03937,0.01968*
1,1,0.04737,0.03937,-0.01968*
1,1,0.04737,-0.03937,-0.01968*
1,1,0.04737,-0.03937,0.01968*
%
%ADD42ROUNDEDRECTD42*%
G04:AMPARAMS|DCode=43|XSize=67.06mil|YSize=165.48mil|CornerRadius=18.76mil|HoleSize=0mil|Usage=FLASHONLY|Rotation=270.000|XOffset=0mil|YOffset=0mil|HoleType=Round|Shape=RoundedRectangle|*
%AMROUNDEDRECTD43*
21,1,0.06706,0.12795,0,0,270.0*
21,1,0.02953,0.16548,0,0,270.0*
1,1,0.03753,-0.06398,-0.01476*
1,1,0.03753,-0.06398,0.01476*
1,1,0.03753,0.06398,0.01476*
1,1,0.03753,0.06398,-0.01476*
%
%ADD43ROUNDEDRECTD43*%
%ADD44R,0.03543X0.04331*%
G04:AMPARAMS|DCode=45|XSize=82.8mil|YSize=140.68mil|CornerRadius=6.62mil|HoleSize=0mil|Usage=FLASHONLY|Rotation=135.000|XOffset=0mil|YOffset=0mil|HoleType=Round|Shape=RoundedRectangle|*
%AMROUNDEDRECTD45*
21,1,0.08280,0.12744,0,0,135.0*
21,1,0.06957,0.14068,0,0,135.0*
1,1,0.01324,0.02046,0.06965*
1,1,0.01324,0.06965,0.02046*
1,1,0.01324,-0.02046,-0.06965*
1,1,0.01324,-0.06965,-0.02046*
%
%ADD45ROUNDEDRECTD45*%
%ADD46R,0.07099X0.09383*%
%ADD47R,0.05906X0.03543*%
%ADD48R,0.07480X0.05118*%
%ADD49R,0.08674X0.04343*%
%ADD50R,0.04343X0.08674*%
%ADD51R,0.06036X0.06036*%
%ADD52R,0.05118X0.07480*%
%ADD53R,0.04331X0.08268*%
%ADD54R,0.09252X0.08268*%
%ADD55R,0.03543X0.05906*%
%ADD56R,0.07480X0.10236*%
G04:AMPARAMS|DCode=57|XSize=82.8mil|YSize=140.68mil|CornerRadius=6.62mil|HoleSize=0mil|Usage=FLASHONLY|Rotation=0.000|XOffset=0mil|YOffset=0mil|HoleType=Round|Shape=RoundedRectangle|*
%AMROUNDEDRECTD57*
21,1,0.08280,0.12744,0,0,0.0*
21,1,0.06957,0.14068,0,0,0.0*
1,1,0.01324,0.03478,-0.06372*
1,1,0.01324,-0.03478,-0.06372*
1,1,0.01324,-0.03478,0.06372*
1,1,0.01324,0.03478,0.06372*
%
%ADD57ROUNDEDRECTD57*%
G04:AMPARAMS|DCode=58|XSize=82.8mil|YSize=140.68mil|CornerRadius=6.62mil|HoleSize=0mil|Usage=FLASHONLY|Rotation=45.000|XOffset=0mil|YOffset=0mil|HoleType=Round|Shape=RoundedRectangle|*
%AMROUNDEDRECTD58*
21,1,0.08280,0.12744,0,0,45.0*
21,1,0.06957,0.14068,0,0,45.0*
1,1,0.01324,0.06965,-0.02046*
1,1,0.01324,0.02046,-0.06965*
1,1,0.01324,-0.06965,0.02046*
1,1,0.01324,-0.02046,0.06965*
%
%ADD58ROUNDEDRECTD58*%
%ADD59R,0.06299X0.02362*%
%ADD60R,0.09265X0.13595*%
%ADD61R,0.09265X0.04540*%
%ADD62C,0.08268*%
%ADD63O,0.02769X0.01981*%
%ADD64O,0.02375X0.01981*%
%ADD65C,0.08674*%
%ADD66R,0.06706X0.06706*%
%ADD67C,0.06706*%
%ADD68C,0.09055*%
%ADD69C,0.02375*%
%ADD70C,0.04737*%
%ADD71C,0.03162*%
%ADD72C,0.12611*%
%ADD73C,0.05800*%
%ADD74C,0.24422*%
D24*
X133500Y274224D02*
D03*
Y264776D02*
D03*
X142500Y274224D02*
D03*
Y264776D02*
D03*
X151614Y274291D02*
D03*
Y264843D02*
D03*
X124409Y274224D02*
D03*
Y264776D02*
D03*
X10905Y162284D02*
D03*
Y152835D02*
D03*
D28*
X28622Y228701D02*
D03*
X38071D02*
D03*
X66417Y376890D02*
D03*
X75866D02*
D03*
D40*
X205315Y389724D02*
D03*
X181653Y389646D02*
D03*
X178543Y388386D02*
D03*
X207874Y388661D02*
D03*
X57520Y389370D02*
D03*
X33858Y389291D02*
D03*
X30748Y388032D02*
D03*
X60079Y388307D02*
D03*
D41*
X197323Y372087D02*
D03*
X189488Y371969D02*
D03*
X49528Y371732D02*
D03*
X41693Y371614D02*
D03*
D42*
X231614Y337244D02*
D03*
X231535Y360906D02*
D03*
X230276Y364016D02*
D03*
X230551Y334685D02*
D03*
D43*
X213976Y345236D02*
D03*
X213858Y353071D02*
D03*
D44*
X39370Y342323D02*
D03*
X35433Y350197D02*
D03*
X43307D02*
D03*
D45*
X194331Y346142D02*
D03*
X179520Y360952D02*
D03*
X100945Y213386D02*
D03*
X86135Y228196D02*
D03*
D46*
X196024Y289646D02*
D03*
Y258937D02*
D03*
X76500Y259646D02*
D03*
Y290354D02*
D03*
D47*
X183500Y294650D02*
D03*
Y288350D02*
D03*
X36102Y295590D02*
D03*
Y289291D02*
D03*
X74173Y368032D02*
D03*
Y361732D02*
D03*
X82480Y368150D02*
D03*
Y361850D02*
D03*
X21299Y105157D02*
D03*
Y111457D02*
D03*
X31496D02*
D03*
Y105157D02*
D03*
X63500Y269850D02*
D03*
Y276150D02*
D03*
X70236Y93268D02*
D03*
Y86968D02*
D03*
D48*
X174000Y285051D02*
D03*
Y294500D02*
D03*
X151693Y289882D02*
D03*
Y280433D02*
D03*
X142480Y289949D02*
D03*
Y280500D02*
D03*
X133500Y289949D02*
D03*
Y280500D02*
D03*
X124409Y289961D02*
D03*
Y280512D02*
D03*
X10905Y172059D02*
D03*
Y181508D02*
D03*
X63500Y294000D02*
D03*
Y284551D02*
D03*
X45000Y237051D02*
D03*
Y246500D02*
D03*
X52756Y112874D02*
D03*
Y122323D02*
D03*
X55000Y246776D02*
D03*
Y256224D02*
D03*
D49*
X92360Y367252D02*
D03*
Y362252D02*
D03*
Y357252D02*
D03*
Y352252D02*
D03*
Y347252D02*
D03*
Y342252D02*
D03*
Y337252D02*
D03*
Y332252D02*
D03*
Y327252D02*
D03*
Y322252D02*
D03*
Y317252D02*
D03*
Y312252D02*
D03*
Y307252D02*
D03*
Y302252D02*
D03*
X159289D02*
D03*
Y307252D02*
D03*
Y312252D02*
D03*
Y317252D02*
D03*
Y322252D02*
D03*
Y327252D02*
D03*
Y332252D02*
D03*
Y337252D02*
D03*
Y342252D02*
D03*
Y347252D02*
D03*
Y352252D02*
D03*
Y357252D02*
D03*
Y362252D02*
D03*
Y367252D02*
D03*
D50*
X103325Y298315D02*
D03*
X108325D02*
D03*
X113325D02*
D03*
X118325D02*
D03*
X123325D02*
D03*
X128325D02*
D03*
X133325D02*
D03*
X138325D02*
D03*
X143325D02*
D03*
X148325D02*
D03*
D51*
X114663Y344949D02*
D03*
X121888D02*
D03*
X129112D02*
D03*
X114663Y337724D02*
D03*
X121888D02*
D03*
X129112D02*
D03*
X114663Y330500D02*
D03*
X121888D02*
D03*
X129112D02*
D03*
D52*
X52874Y354213D02*
D03*
X62323D02*
D03*
X61929Y344803D02*
D03*
X52480D02*
D03*
X66299Y362815D02*
D03*
X56850D02*
D03*
X10945Y228583D02*
D03*
X20394D02*
D03*
X25118Y217205D02*
D03*
X34567D02*
D03*
X103307Y276811D02*
D03*
X93858D02*
D03*
X93661Y267480D02*
D03*
X103110D02*
D03*
D53*
X72913Y193268D02*
D03*
X62913Y134016D02*
D03*
X52913D02*
D03*
X42913D02*
D03*
X32913D02*
D03*
X22913D02*
D03*
Y193268D02*
D03*
X32913D02*
D03*
X42913D02*
D03*
X52913D02*
D03*
X62913D02*
D03*
D54*
X75354Y134016D02*
D03*
D55*
X13150Y237756D02*
D03*
X6850D02*
D03*
X47480Y204528D02*
D03*
X41181D02*
D03*
Y212480D02*
D03*
X47480D02*
D03*
X36102Y274173D02*
D03*
X29803D02*
D03*
D56*
X63898Y224528D02*
D03*
X46575D02*
D03*
X8839Y291500D02*
D03*
X26161D02*
D03*
D57*
X206457Y137087D02*
D03*
X185512D02*
D03*
D58*
X221969Y315079D02*
D03*
X207158Y300269D02*
D03*
X209921Y326811D02*
D03*
X195111Y312001D02*
D03*
D59*
X38976Y87067D02*
D03*
Y82067D02*
D03*
Y77067D02*
D03*
Y72067D02*
D03*
X60630D02*
D03*
Y77067D02*
D03*
Y82067D02*
D03*
Y87067D02*
D03*
D60*
X10583Y256000D02*
D03*
D61*
X33417Y265055D02*
D03*
Y256000D02*
D03*
Y246945D02*
D03*
D62*
X44094Y32126D02*
D03*
Y110866D02*
D03*
X53425Y307323D02*
D03*
Y327008D02*
D03*
X175787Y124528D02*
D03*
X185787D02*
D03*
X195787D02*
D03*
X205787D02*
D03*
D63*
X118276Y344949D02*
D03*
X125500D02*
D03*
X114663Y341337D02*
D03*
X129112D02*
D03*
X118276Y337724D02*
D03*
X125500D02*
D03*
X114663Y334112D02*
D03*
X121888D02*
D03*
X129112D02*
D03*
X118276Y330500D02*
D03*
X125500D02*
D03*
D64*
X121888Y341337D02*
D03*
D65*
X159095Y182717D02*
D03*
Y202716D02*
D03*
Y212717D02*
D03*
Y222716D02*
D03*
Y172716D02*
D03*
Y192717D02*
D03*
X138500Y55500D02*
D03*
Y65500D02*
D03*
Y75500D02*
D03*
Y85500D02*
D03*
Y95500D02*
D03*
Y105500D02*
D03*
D66*
X94055Y7598D02*
D03*
D67*
Y17598D02*
D03*
X104055Y7598D02*
D03*
Y17598D02*
D03*
X114055Y7598D02*
D03*
Y17598D02*
D03*
X124055Y7598D02*
D03*
Y17598D02*
D03*
X134055Y7598D02*
D03*
Y17598D02*
D03*
X85630Y267165D02*
D03*
X69646Y354370D02*
D03*
D68*
X15000Y322000D02*
D03*
Y342000D02*
D03*
D69*
X34291Y208898D02*
D03*
X120472Y206181D02*
D03*
X111496Y188937D02*
D03*
X110433Y164331D02*
D03*
X110079Y147283D02*
D03*
X110787Y127598D02*
D03*
X116063Y109646D02*
D03*
X103779Y108937D02*
D03*
X90748Y109291D02*
D03*
X79488Y108780D02*
D03*
X76823Y221406D02*
D03*
X168150Y382638D02*
D03*
X74882Y389134D02*
D03*
X174134Y374252D02*
D03*
X183661Y282874D02*
D03*
X218858Y189409D02*
D03*
X211575Y171850D02*
D03*
X211850Y157283D02*
D03*
X199803Y237874D02*
D03*
X192913Y228976D02*
D03*
X185866Y221614D02*
D03*
X88228Y246260D02*
D03*
X77402Y245984D02*
D03*
X100855Y246909D02*
D03*
X142441Y240433D02*
D03*
X158228Y241142D02*
D03*
X125709Y240709D02*
D03*
X54134Y296969D02*
D03*
X64213Y305157D02*
D03*
X35945Y300787D02*
D03*
X85630Y133701D02*
D03*
X2244Y106457D02*
D03*
Y89606D02*
D03*
X2795Y77244D02*
D03*
X2520Y59842D02*
D03*
X1693Y44134D02*
D03*
X1417Y30945D02*
D03*
X235354Y316535D02*
D03*
X234173Y295905D02*
D03*
Y271457D02*
D03*
X233189Y254606D02*
D03*
X234173Y237559D02*
D03*
X233465Y219764D02*
D03*
X145000Y105276D02*
D03*
X138347Y111575D02*
D03*
X132953Y105197D02*
D03*
X69134Y331811D02*
D03*
X68740Y319016D02*
D03*
X68858Y309724D02*
D03*
X58583Y300866D02*
D03*
X49331Y292559D02*
D03*
X48189Y271890D02*
D03*
X48622Y262480D02*
D03*
X55343Y236350D02*
D03*
X33728Y236705D02*
D03*
X19016Y237362D02*
D03*
X205945Y258819D02*
D03*
X187008Y259016D02*
D03*
X83701Y377559D02*
D03*
X122953Y35669D02*
D03*
X65394Y5906D02*
D03*
X69252Y36299D02*
D03*
X175591Y8701D02*
D03*
X175157Y35669D02*
D03*
X229095Y53622D02*
D03*
X231457Y84882D02*
D03*
X189055Y70315D02*
D03*
X204252Y87008D02*
D03*
X216260Y103504D02*
D03*
X233780Y100079D02*
D03*
X233583Y123583D02*
D03*
X232716Y153976D02*
D03*
X232283Y171732D02*
D03*
X232087Y203858D02*
D03*
X211339Y363347D02*
D03*
X232323Y349410D02*
D03*
X3583Y361181D02*
D03*
X4134Y334016D02*
D03*
X5866Y272480D02*
D03*
X6654Y218110D02*
D03*
X67547Y214050D02*
D03*
X72492Y217941D02*
D03*
X62862Y209067D02*
D03*
X57638Y204921D02*
D03*
X52992Y200905D02*
D03*
D70*
X142520Y258701D02*
D03*
X90669Y52716D02*
D03*
X47717D02*
D03*
X43504Y20433D02*
D03*
X121299Y53228D02*
D03*
X159724Y52480D02*
D03*
X197165Y52716D02*
D03*
X75315Y124803D02*
D03*
X124646Y258819D02*
D03*
X133041Y258977D02*
D03*
X151535Y258898D02*
D03*
X167008Y213189D02*
D03*
X174764Y212992D02*
D03*
X182205Y212677D02*
D03*
X196181Y249252D02*
D03*
X28268Y350354D02*
D03*
X32638Y371299D02*
D03*
X14921Y352323D02*
D03*
D71*
X222130Y5051D02*
D03*
Y23122D02*
D03*
X231106Y14028D02*
D03*
X213350D02*
D03*
X14110Y4850D02*
D03*
Y22921D02*
D03*
X23087Y13827D02*
D03*
X5331D02*
D03*
X13909Y370350D02*
D03*
Y388421D02*
D03*
X22886Y379327D02*
D03*
X5130D02*
D03*
X213150Y379528D02*
D03*
X230906D02*
D03*
X221929Y388622D02*
D03*
Y370551D02*
D03*
D72*
X52362Y165748D02*
D03*
D73*
X84646Y327205D02*
D03*
X91260Y285984D02*
D03*
X40748Y282874D02*
D03*
X68189Y345354D02*
D03*
D74*
X14201Y14000D02*
D03*
X222220Y14201D02*
D03*
X222020Y379701D02*
D03*
X14000Y379500D02*
D03*
M02*
