M48
;Layer_Color=9474304
;FILE_FORMAT=2:5
INCH,LZ
;TYPE=PLATED
T1F00S00C0.00787
T2F00S00C0.01181
T3F00S00C0.01575
T4F00S00C0.02362
T5F00S00C0.03150
T6F00S00C0.03543
T7F00S00C0.03937
T8F00S00C0.04724
T9F00S00C0.11811
%
T01
X0002244Y0106457
T02
X0001417Y0030945
X0001693Y0044134
X0069252Y0036299
X0065394Y0005906
X0122953Y0035669
X0175157
X0175591Y0008701
X0229095Y0053622
X0231457Y0084882
X023378Y0100079
X021626Y0103504
X0233583Y0123583
X0232716Y0153976
X0232283Y0171732
X0218858Y0189409
X0232087Y0203858
X0211575Y017185
X021185Y0157283
X0204252Y0087008
X0189055Y0070315
X0145Y0105276
X0132953Y0105197
X0138347Y0111575
X0116063Y0109646
X0103779Y0108937
X0090748Y0109291
X0079488Y010878
X008563Y0133701
X0110787Y0127598
X0110079Y0147283
X0110433Y0164331
X0111496Y0188937
X0120472Y0206181
X0062862Y0209067
X0057638Y0204921
X0052992Y0200905
X0034291Y0208898
X0002244Y0089606
X0002795Y0077244
X000252Y0059842
X0006654Y021811
X0019016Y0237362
X0033728Y0236705
X0055343Y023635
X0048622Y026248
X0048189Y027189
X0049331Y0292559
X0054134Y0296969
X0035945Y0300787
X0005866Y027248
X0004134Y0334016
X0003583Y0361181
X0069134Y0331811
X006874Y0319016
X0068858Y0309724
X0064213Y0305157
X0058583Y0300866
X0077402Y0245984
X0088228Y024626
X0100855Y0246909
X0125709Y0240709
X0142441Y0240433
X0158228Y0241142
X0199803Y0237874
X0192913Y0228976
X0185866Y0221614
X0187008Y0259016
X0205945Y0258819
X0183661Y0282874
X01255Y03305
Y0337724
X0129112Y0334112
Y0341337
X01255Y0344949
X0118276
X0121888Y0341337
X0114663
Y0334112
X0118276Y0337724
X0121888Y0334112
X0118276Y03305
X0211339Y0363347
X0076823Y0221406
X0072492Y0217941
X0067547Y021405
X0233465Y0219764
X0234173Y0237559
X0233189Y0254606
X0234173Y0271457
Y0295905
X0235354Y0316535
X0232323Y034941
X0174134Y0374252
X016815Y0382638
X0083701Y0377559
X0074882Y0389134
T03
X0047717Y0052716
X0090669
X0121299Y0053228
X0159724Y005248
X0197165Y0052716
X0028268Y0350354
X0014921Y0352323
X008563Y0267165
X0124646Y0258819
X0133041Y0258977
X014252Y0258701
X0151535Y0258898
X0032638Y0371299
T04
X001411Y000485
X0005331Y0013827
X0023087
X001411Y0022921
X0043504Y0020433
X021335Y0014028
X022213Y0005051
X0231106Y0014028
X022213Y0023122
X0075315Y0124803
X0167008Y0213189
X0174764Y0212992
X0182205Y0212677
X0196181Y0249252
X0069646Y035437
X0221929Y0370551
X021315Y0379528
X0230906
X0221929Y0388622
X0013909Y0388421
X000513Y0379327
X0013909Y037035
X0022886Y0379327
T05
X0040748Y0282874
X0053425Y0307323
Y0327008
X0084646Y0327205
X0068189Y0345354
X009126Y0285984
T06
X0094055Y0007598
Y0017598
X0104055
Y0007598
X0114055
Y0017598
X0124055
Y0007598
X0134055
Y0017598
T07
X0044094Y0032126
X01385Y00555
Y00655
Y00755
Y00855
Y00955
Y01055
X0175787Y0124528
X0185787
X0195787
X0205787
X0044094Y0110866
T08
X0159095Y0172716
Y0182717
Y0192717
Y0202716
X0015Y0322
Y0342
X0159095Y0222716
Y0212717
T09
X0014201Y0014
X022222Y0014201
X0052362Y0165748
X022202Y0379701
X0014Y03795
M30
