G04*
G04 #@! TF.GenerationSoftware,Altium Limited,Altium Designer,22.9.1 (49)*
G04*
G04 Layer_Color=8421504*
%FSLAX25Y25*%
%MOIN*%
G70*
G04*
G04 #@! TF.SameCoordinates,F91FD0B8-2741-413C-87D7-DF85A8DA950D*
G04*
G04*
G04 #@! TF.FilePolarity,Positive*
G04*
G01*
G75*
G04:AMPARAMS|DCode=15|XSize=59.06mil|YSize=157.48mil|CornerRadius=14.76mil|HoleSize=0mil|Usage=FLASHONLY|Rotation=180.000|XOffset=0mil|YOffset=0mil|HoleType=Round|Shape=RoundedRectangle|*
%AMROUNDEDRECTD15*
21,1,0.05906,0.12795,0,0,180.0*
21,1,0.02953,0.15748,0,0,180.0*
1,1,0.02953,-0.01476,0.06398*
1,1,0.02953,0.01476,0.06398*
1,1,0.02953,0.01476,-0.06398*
1,1,0.02953,-0.01476,-0.06398*
%
%ADD15ROUNDEDRECTD15*%
%ADD16R,0.04724X0.07087*%
%ADD17R,0.07087X0.04724*%
%ADD18R,0.06299X0.08583*%
%ADD19R,0.06693X0.04331*%
%ADD20R,0.03150X0.05512*%
%ADD21R,0.03740X0.02362*%
%ADD22R,0.02362X0.03740*%
%ADD23R,0.04331X0.03150*%
%ADD24R,0.09843X0.07087*%
%ADD25R,0.05512X0.03150*%
%ADD26R,0.01968X0.05906*%
%ADD27R,0.01968X0.01378*%
%ADD28R,0.05906X0.01968*%
%ADD29R,0.07087X0.09843*%
%ADD30R,0.06299X0.02756*%
%ADD31R,0.07874X0.03543*%
%ADD32R,0.05236X0.05236*%
%ADD33R,0.03543X0.07874*%
G04:AMPARAMS|DCode=34|XSize=111.42mil|YSize=48.03mil|CornerRadius=6mil|HoleSize=0mil|Usage=FLASHONLY|Rotation=270.000|XOffset=0mil|YOffset=0mil|HoleType=Round|Shape=RoundedRectangle|*
%AMROUNDEDRECTD34*
21,1,0.11142,0.03602,0,0,270.0*
21,1,0.09941,0.04803,0,0,270.0*
1,1,0.01201,-0.01801,-0.04970*
1,1,0.01201,-0.01801,0.04970*
1,1,0.01201,0.01801,0.04970*
1,1,0.01201,0.01801,-0.04970*
%
%ADD34ROUNDEDRECTD34*%
%ADD35R,0.08150X0.13819*%
G04:AMPARAMS|DCode=36|XSize=149.21mil|YSize=38.98mil|CornerRadius=4.87mil|HoleSize=0mil|Usage=FLASHONLY|Rotation=90.000|XOffset=0mil|YOffset=0mil|HoleType=Round|Shape=RoundedRectangle|*
%AMROUNDEDRECTD36*
21,1,0.14921,0.02923,0,0,90.0*
21,1,0.13947,0.03898,0,0,90.0*
1,1,0.00974,0.01462,0.06973*
1,1,0.00974,0.01462,-0.06973*
1,1,0.00974,-0.01462,-0.06973*
1,1,0.00974,-0.01462,0.06973*
%
%ADD36ROUNDEDRECTD36*%
%ADD37R,0.04331X0.06693*%
%ADD38R,0.17717X0.07874*%
%ADD39R,0.07874X0.07874*%
G04:AMPARAMS|DCode=40|XSize=59.06mil|YSize=157.48mil|CornerRadius=14.76mil|HoleSize=0mil|Usage=FLASHONLY|Rotation=90.000|XOffset=0mil|YOffset=0mil|HoleType=Round|Shape=RoundedRectangle|*
%AMROUNDEDRECTD40*
21,1,0.05906,0.12795,0,0,90.0*
21,1,0.02953,0.15748,0,0,90.0*
1,1,0.02953,0.06398,0.01476*
1,1,0.02953,0.06398,-0.01476*
1,1,0.02953,-0.06398,-0.01476*
1,1,0.02953,-0.06398,0.01476*
%
%ADD40ROUNDEDRECTD40*%
G04:AMPARAMS|DCode=41|XSize=74.8mil|YSize=132.68mil|CornerRadius=2.62mil|HoleSize=0mil|Usage=FLASHONLY|Rotation=90.000|XOffset=0mil|YOffset=0mil|HoleType=Round|Shape=RoundedRectangle|*
%AMROUNDEDRECTD41*
21,1,0.07480,0.12744,0,0,90.0*
21,1,0.06957,0.13268,0,0,90.0*
1,1,0.00524,0.06372,0.03478*
1,1,0.00524,0.06372,-0.03478*
1,1,0.00524,-0.06372,-0.03478*
1,1,0.00524,-0.06372,0.03478*
%
%ADD41ROUNDEDRECTD41*%
G04:AMPARAMS|DCode=42|XSize=74.8mil|YSize=132.68mil|CornerRadius=2.62mil|HoleSize=0mil|Usage=FLASHONLY|Rotation=0.000|XOffset=0mil|YOffset=0mil|HoleType=Round|Shape=RoundedRectangle|*
%AMROUNDEDRECTD42*
21,1,0.07480,0.12744,0,0,0.0*
21,1,0.06957,0.13268,0,0,0.0*
1,1,0.00524,0.03478,-0.06372*
1,1,0.00524,-0.03478,-0.06372*
1,1,0.00524,-0.03478,0.06372*
1,1,0.00524,0.03478,0.06372*
%
%ADD42ROUNDEDRECTD42*%
%ADD43R,0.08858X0.07874*%
%ADD44R,0.03937X0.07874*%
%ADD45R,0.02441X0.03701*%
G36*
X100858Y346843D02*
X95898D01*
Y352551D01*
X100858D01*
Y346843D01*
D02*
G37*
G36*
X93772D02*
X88811D01*
Y352551D01*
X93772D01*
Y346843D01*
D02*
G37*
G36*
X86685D02*
X81724D01*
Y352551D01*
X86685D01*
Y346843D01*
D02*
G37*
G36*
X79598D02*
X74638D01*
Y352551D01*
X79598D01*
Y346843D01*
D02*
G37*
G36*
X72512D02*
X67551D01*
Y352551D01*
X72512D01*
Y346843D01*
D02*
G37*
G36*
X65425D02*
X60465D01*
Y352551D01*
X65425D01*
Y346843D01*
D02*
G37*
G36*
X100858Y336842D02*
X95898D01*
Y342551D01*
X100858D01*
Y336842D01*
D02*
G37*
G36*
X93772D02*
X88811D01*
Y342551D01*
X93772D01*
Y336842D01*
D02*
G37*
G36*
X86685D02*
X81724D01*
Y342551D01*
X86685D01*
Y336842D01*
D02*
G37*
G36*
X79598D02*
X74638D01*
Y342551D01*
X79598D01*
Y336842D01*
D02*
G37*
G36*
X72512D02*
X67551D01*
Y342551D01*
X72512D01*
Y336842D01*
D02*
G37*
G36*
X65425D02*
X60465D01*
Y342551D01*
X65425D01*
Y336842D01*
D02*
G37*
G36*
X100858Y326842D02*
X95898D01*
Y332551D01*
X100858D01*
Y326842D01*
D02*
G37*
G36*
X93772D02*
X88811D01*
Y332551D01*
X93772D01*
Y326842D01*
D02*
G37*
G36*
X86685D02*
X81724D01*
Y332551D01*
X86685D01*
Y326842D01*
D02*
G37*
G36*
X79598D02*
X74638D01*
Y332551D01*
X79598D01*
Y326842D01*
D02*
G37*
G36*
X72512D02*
X67551D01*
Y332551D01*
X72512D01*
Y326842D01*
D02*
G37*
G36*
X65425D02*
X60465D01*
Y332551D01*
X65425D01*
Y326842D01*
D02*
G37*
G36*
X82216Y219153D02*
X68583D01*
Y232140D01*
X82216D01*
Y219153D01*
D02*
G37*
G36*
X355800Y123264D02*
X343587D01*
Y132717D01*
X355800D01*
Y123264D01*
D02*
G37*
D15*
X303512Y33492D02*
D03*
X335697D02*
D03*
X327941D02*
D03*
X320028D02*
D03*
X311799D02*
D03*
X345776Y8098D02*
D03*
X294102D02*
D03*
X305433Y359846D02*
D03*
X313189D02*
D03*
X321102D02*
D03*
X329331D02*
D03*
X295354Y385240D02*
D03*
X337913Y385043D02*
D03*
D16*
X311260Y281787D02*
D03*
X301811D02*
D03*
X301748Y271284D02*
D03*
X292299D02*
D03*
X270220Y165075D02*
D03*
X260772D02*
D03*
X369508Y39618D02*
D03*
X360059D02*
D03*
X193835Y17500D02*
D03*
X203283D02*
D03*
X70909Y282260D02*
D03*
X80358D02*
D03*
X85728Y371248D02*
D03*
X76279D02*
D03*
X115736Y345563D02*
D03*
X106287D02*
D03*
D17*
X278941Y287968D02*
D03*
Y297417D02*
D03*
X224685Y284083D02*
D03*
Y274634D02*
D03*
X214008Y284177D02*
D03*
Y274728D02*
D03*
X310606Y218563D02*
D03*
Y209114D02*
D03*
X310622Y239815D02*
D03*
Y230366D02*
D03*
X331933Y96280D02*
D03*
Y86831D02*
D03*
X341090Y86843D02*
D03*
Y96291D02*
D03*
X322543Y96280D02*
D03*
Y86831D02*
D03*
X313090Y96256D02*
D03*
Y86807D02*
D03*
X252524Y232350D02*
D03*
Y241799D02*
D03*
X155980Y110685D02*
D03*
Y120134D02*
D03*
X147221Y64728D02*
D03*
Y74177D02*
D03*
X154469Y284390D02*
D03*
Y274941D02*
D03*
X144504Y284303D02*
D03*
Y274854D02*
D03*
X135244Y284213D02*
D03*
Y274764D02*
D03*
X151665Y321949D02*
D03*
Y312500D02*
D03*
X160630Y312539D02*
D03*
Y321988D02*
D03*
X59709Y281264D02*
D03*
Y290713D02*
D03*
X289201Y139488D02*
D03*
Y148937D02*
D03*
D18*
X263898Y259134D02*
D03*
Y295354D02*
D03*
X369646Y93768D02*
D03*
Y57547D02*
D03*
X138784Y312150D02*
D03*
Y348370D02*
D03*
D19*
X224780Y257598D02*
D03*
Y267047D02*
D03*
X213917Y257689D02*
D03*
Y267138D02*
D03*
X350453Y96358D02*
D03*
Y86910D02*
D03*
X303709Y96354D02*
D03*
Y86905D02*
D03*
X380559Y39630D02*
D03*
Y49079D02*
D03*
X147209Y46000D02*
D03*
Y55449D02*
D03*
D20*
X262653Y139764D02*
D03*
X256354D02*
D03*
X278437Y135512D02*
D03*
X272138D02*
D03*
X193472Y114138D02*
D03*
X199772D02*
D03*
X193378Y103996D02*
D03*
X199677D02*
D03*
X146118Y221252D02*
D03*
X152417D02*
D03*
X92067Y281492D02*
D03*
X98366D02*
D03*
D21*
X272087Y151906D02*
D03*
X256339D02*
D03*
X145461Y245185D02*
D03*
Y240264D02*
D03*
Y235343D02*
D03*
Y230421D02*
D03*
X153335D02*
D03*
Y235343D02*
D03*
Y240264D02*
D03*
Y245185D02*
D03*
D22*
X256339Y147968D02*
D03*
X259488D02*
D03*
X262638D02*
D03*
X265787D02*
D03*
X268937D02*
D03*
X272087D02*
D03*
Y155842D02*
D03*
X268937D02*
D03*
X265787D02*
D03*
X262638D02*
D03*
X259488D02*
D03*
X256339D02*
D03*
D23*
X327819Y227016D02*
D03*
X320339Y223276D02*
D03*
Y230756D02*
D03*
D24*
X318181Y159583D02*
D03*
Y176906D02*
D03*
D25*
X355720Y57717D02*
D03*
Y64016D02*
D03*
X346744Y44417D02*
D03*
Y50717D02*
D03*
X227858Y233035D02*
D03*
Y239335D02*
D03*
X227811Y226067D02*
D03*
Y219768D02*
D03*
X236854Y207559D02*
D03*
Y213858D02*
D03*
X146000Y110634D02*
D03*
Y116933D02*
D03*
X136126Y110591D02*
D03*
Y116890D02*
D03*
X137016Y245256D02*
D03*
Y251555D02*
D03*
X136779Y236858D02*
D03*
Y230559D02*
D03*
X125543Y347087D02*
D03*
Y340787D02*
D03*
X157866Y358106D02*
D03*
Y364405D02*
D03*
X147736Y358146D02*
D03*
Y364445D02*
D03*
X249429Y291598D02*
D03*
Y297898D02*
D03*
D26*
X339472Y72760D02*
D03*
X334472D02*
D03*
X329472D02*
D03*
X324472D02*
D03*
Y51106D02*
D03*
X329472D02*
D03*
X334472D02*
D03*
X339472D02*
D03*
D27*
X243606Y230126D02*
D03*
X237307D02*
D03*
Y227567D02*
D03*
Y232685D02*
D03*
X243606D02*
D03*
X237307Y225008D02*
D03*
X243606Y227567D02*
D03*
Y225008D02*
D03*
D28*
X214906Y200988D02*
D03*
Y195988D02*
D03*
Y190988D02*
D03*
Y185988D02*
D03*
X236559D02*
D03*
Y190988D02*
D03*
Y195988D02*
D03*
Y200988D02*
D03*
D29*
X184476Y115559D02*
D03*
X167154D02*
D03*
D30*
X143409Y300795D02*
D03*
Y296661D02*
D03*
Y292527D02*
D03*
X155220Y300795D02*
D03*
Y296661D02*
D03*
Y292527D02*
D03*
D31*
X170636Y337795D02*
D03*
X237565Y362795D02*
D03*
Y357795D02*
D03*
Y352795D02*
D03*
Y347795D02*
D03*
Y342795D02*
D03*
Y337795D02*
D03*
Y332795D02*
D03*
Y327795D02*
D03*
Y322795D02*
D03*
Y317795D02*
D03*
Y312795D02*
D03*
Y307795D02*
D03*
Y302795D02*
D03*
Y297795D02*
D03*
X170636D02*
D03*
Y302795D02*
D03*
Y307795D02*
D03*
Y312795D02*
D03*
Y317795D02*
D03*
Y322795D02*
D03*
Y327795D02*
D03*
Y332795D02*
D03*
Y342795D02*
D03*
Y347795D02*
D03*
Y352795D02*
D03*
Y357795D02*
D03*
Y362795D02*
D03*
D32*
X207388Y326043D02*
D03*
X200163D02*
D03*
X192939D02*
D03*
X207388Y333268D02*
D03*
X200163D02*
D03*
X192939D02*
D03*
X207388Y340492D02*
D03*
X200163D02*
D03*
X192939D02*
D03*
D33*
X226600Y293858D02*
D03*
X221600D02*
D03*
X216600D02*
D03*
X211600D02*
D03*
X206600D02*
D03*
X201600D02*
D03*
X196600D02*
D03*
X191600D02*
D03*
X186600D02*
D03*
X181600D02*
D03*
D34*
X66378Y251831D02*
D03*
X84409D02*
D03*
D35*
X58984Y268669D02*
D03*
X78441D02*
D03*
D36*
X90661Y296862D02*
D03*
X80661D02*
D03*
X70661D02*
D03*
D37*
X57598Y371083D02*
D03*
X67047D02*
D03*
D38*
X115551Y115161D02*
D03*
D39*
X110630Y101185D02*
D03*
D40*
X41581Y53480D02*
D03*
Y61236D02*
D03*
Y69150D02*
D03*
Y77378D02*
D03*
X16187Y43402D02*
D03*
X16384Y85961D02*
D03*
D41*
X293595Y335669D02*
D03*
Y356614D02*
D03*
X322866Y255323D02*
D03*
Y276268D02*
D03*
X266634Y210780D02*
D03*
Y231724D02*
D03*
D42*
X183622Y244795D02*
D03*
X204567D02*
D03*
D43*
X225709Y32953D02*
D03*
D44*
X213268Y92205D02*
D03*
X203268D02*
D03*
X193268D02*
D03*
X183268D02*
D03*
X173268D02*
D03*
Y32953D02*
D03*
X183268D02*
D03*
X193268D02*
D03*
X203268D02*
D03*
X213268D02*
D03*
X223268Y92205D02*
D03*
D45*
X342189Y136476D02*
D03*
X347189D02*
D03*
X352189D02*
D03*
X357189D02*
D03*
X342189Y115571D02*
D03*
X347189D02*
D03*
X352189D02*
D03*
X357189D02*
D03*
M02*
