M48
;Layer_Color=9474304
;FILE_FORMAT=4:4
METRIC,LZ
;TYPE=PLATED
T1F00S00C0.3000
T2F00S00C0.4000
T3F00S00C0.8000
T4F00S00C0.9000
T5F00S00C1.0000
T6F00S00C1.5000
T7F00S00C2.6000
T8F00S00C3.0000
%
T01
X0007741Y0000667
X0017153Y0000704
X0023705Y0000603
X0023237Y0008
X002134Y0010134
X0032148Y0000578
X0039935Y0000552
X0047477Y0000455
X0053342Y0000476
X0057966Y0000433
X0058107Y0006718
X005733Y0006239
X0056549Y000672
X006196Y0008011
X0066001Y0007981
X0069474Y0008071
X0073665Y0007981
X0071334Y0000429
X0066806
X0078354
X0093448Y0000479
X0099114Y0009919
X0089962Y0012469
X0089191Y0012806
X0089986Y0013409
X0099196Y0015202
X0099216Y0021903
X0099268Y0027867
X0099145Y0033791
X0099244Y004272
X009921Y0048311
X0092934Y0052731
X0079324Y0029237
X0077956Y0026775
X0076369Y0023175
X0073239Y0022673
X0073922Y0029169
X0070367Y0027391
X0067222Y0024519
X0068395Y0016368
X0062164Y0016215
X0055372Y001612
X004637Y0016029
X0041737Y0015898
X0050307Y0023464
X0052838
X0052383Y002592
X0051731Y002645
X0052201Y0027087
X0051929Y0029072
X006642Y0035629
X0067809Y0035632
X006711Y0036358
X0070782Y0036557
X007076Y0035805
X0071479Y0036236
X0071536Y0039859
X0074278Y0041625
X0076695Y0043856
X0071815Y004525
X0068329Y0044786
X0068283Y004209
X0067352Y0050769
X0075223Y0052127
X0074929Y0036606
X0076509Y0017365
X0029518Y0018786
X0024642Y0014463
X002134Y0015823
X0013278Y0015575
X0005122Y0013618
X0001289Y0016295
X0006826Y0019453
X000736Y0030024
X0014661Y0031085
Y0028301
X0014707Y0034102
X0015867Y0036747
X001712Y0038511
X0021529Y0042688
X0025242Y0046447
X0026634Y0047839
X0028212Y0049742
X002979Y0051691
X003274Y0043122
X0034731Y0045076
X0036838Y0047125
X0033957Y0037358
X0032954Y0033215
X0031116Y0034993
X002982Y0032431
X0035938Y0032009
X0024222Y0034312
X0026671Y0037059
X0021597Y0031687
X0021354Y0028069
X0001069Y0024814
X0001093Y0032868
X0001102Y003946
X0001182Y0044493
X0001093Y0048878
X001042Y00513
X0013341Y0048246
X0017126Y0051865
X0010021Y0044129
X0001093Y0054623
X0000972Y0060826
X0001093Y0066619
X0001451Y0072025
X0001722Y0076901
X0001542Y0082356
X0001538Y0087672
X0000816Y0092111
X0007103Y0090853
X0011422Y0091072
X0008907Y0087573
X0005518Y008637
X0013248Y0069746
X0012665Y0068485
X0013248Y0067259
X0028406Y0071068
X0028363Y0076382
X0031154Y0076902
Y0081513
X0033637
X0036025
X0032566Y0084892
X0031868Y0085301
X0031149Y0084892
X0036638Y0068051
X003551Y0064602
X0036093Y0063938
X0035559Y0063188
X003384Y0057482
X0035878Y0055596
X0031415Y0053408
X0043575Y0053979
X0043617Y0057272
X0043521Y0061007
X0040279Y0063729
X0039229Y0068051
X0041062Y0069895
X0041918Y0073824
X0044255Y0072274
X004715Y0072287
X0049924Y0082815
X0051759
X00526765Y00837325
X0051759Y008465
X00508415Y00837325
X0049924Y008465
X00490065Y00837325
Y00855675
X00508415
X0049924Y0086485
X0051759
X00526765Y00855675
X0059628Y0073222
X00594Y0068624
X0059976Y0066043
X0062418Y0066401
X0064125Y0064772
X0060472Y0063621
X0059757Y0060821
X0057831Y0062191
X0056044Y0060801
X0066647Y0061834
X006899Y0063859
X0071591Y006642
X0065376Y0068505
X0072082Y0057874
X0075156Y0056605
X0074341Y0060133
X0073188Y005423
X0092848Y0056031
X0099355Y0053902
X0099427Y0058663
X0099481Y0062937
Y0066941
X0099492Y0071042
X0099625Y0075998
X0098774Y0084264
X0094789Y0088117
X009494Y0092684
X0090352Y0090561
X0086236Y0093005
X0087381Y0097291
X0090094Y0097185
X009273Y0094955
X0095016Y0097211
X009727Y0095045
X0080455Y0094496
X0080834Y0097185
X0075946Y0093391
X0071455Y00939
X007132Y009847
X0065573Y0098393
X0065592Y009397
X0040854Y0094525
X0039518
X0040087Y0093714
X0037508
X0038087Y0094415
X0036737Y009445
X0013022Y0094951
X0013096Y0093551
X0012286Y0094196
T02
X000494Y0002684
X000273Y0004955
X0007211Y0004985
X0005016Y0007211
X009273Y0004955
X009494Y0002684
X0095016Y0007211
X009727Y0005045
X0015171Y0074736
X000494Y0092684
X009494
X009273Y0094955
X0095016Y0097211
X009727Y0095045
X000727
X0005016Y0097211
X000273Y0094955
T03
X0090267Y0055154
Y0060154
T04
X0026521Y0006618
X0029061
X0031601
X0034141
X0036681
X0039221
T05
X0011482Y0006261
X0063592Y0001122
X0079435Y0012179
X0081566Y00100991
X0080797Y0036509
X0088556Y0049987
X0074169Y004825
X0061986Y0042217
X00598513Y00402974
X0055473Y0039068
X0066902Y002963
X0070864Y0024887
X0041954Y0049691
X0039414
X0036874
X0034334
X0031794
X0023469Y0044384
X0018947Y0047728
X0011482Y0026261
X0035554Y0025996
X0035703Y0035071
X0035121Y0056759
X0025386Y0055272
X002538Y0058997
X0025386Y0062214
X0028406Y0068422
X0028348Y007386
X00283183Y00790049
X0033449Y0076821
X00389Y0083877
X0038885Y0086363
X0044179Y0068803
X0062301Y0068391
X0072677Y007074
X0076842Y0075523
X0068109Y0081146
X0066808Y0083571
X0063644Y0083973
X0065515Y0091456
X0062518Y0055188
X0078941Y006289
X0081565Y0075293
T06
X0010716Y0035466
X0010756Y0040476
X0010754Y0056446
X0010794Y0061456
X0010734Y0077389
X0010774Y0082399
T07
X0086291Y0039965
Y0044765
X0091191Y0044665
X0091291Y0040015
X0091383Y0071156
Y0075956
X0086383Y0075906
X0086483Y0071256
T08
X0005Y0005
X0095
X0051297Y0016362
X0095Y0095
X0005
M30
