G04*
G04 #@! TF.GenerationSoftware,Altium Limited,Altium Designer,22.9.1 (49)*
G04*
G04 Layer_Color=16711935*
%FSLAX25Y25*%
%MOIN*%
G70*
G04*
G04 #@! TF.SameCoordinates,F91FD0B8-2741-413C-87D7-DF85A8DA950D*
G04*
G04*
G04 #@! TF.FilePolarity,Negative*
G04*
G01*
G75*
%ADD77C,0.08268*%
%ADD78R,0.06706X0.06706*%
%ADD79C,0.06706*%
%ADD80C,0.02375*%
%ADD81O,0.20485X0.12611*%
%ADD82O,0.18517X0.16548*%
%ADD83C,0.01981*%
%ADD84C,0.06312*%
%ADD85C,0.24422*%
%ADD86C,0.08674*%
%ADD87C,0.04737*%
%ADD88C,0.12611*%
%ADD89C,0.10642*%
G04:AMPARAMS|DCode=115|XSize=82.8mil|YSize=140.68mil|CornerRadius=6.62mil|HoleSize=0mil|Usage=FLASHONLY|Rotation=45.000|XOffset=0mil|YOffset=0mil|HoleType=Round|Shape=RoundedRectangle|*
%AMROUNDEDRECTD115*
21,1,0.08280,0.12744,0,0,45.0*
21,1,0.06957,0.14068,0,0,45.0*
1,1,0.01324,0.06965,-0.02046*
1,1,0.01324,0.02046,-0.06965*
1,1,0.01324,-0.06965,0.02046*
1,1,0.01324,-0.02046,0.06965*
%
%ADD115ROUNDEDRECTD115*%
D77*
X45205Y103390D02*
D03*
Y24650D02*
D03*
X355382Y217142D02*
D03*
Y236827D02*
D03*
X165173Y195634D02*
D03*
X155173D02*
D03*
X145173D02*
D03*
X135173D02*
D03*
X125173D02*
D03*
D78*
X154413Y26055D02*
D03*
D79*
X144413D02*
D03*
X134413D02*
D03*
X124413D02*
D03*
X114413D02*
D03*
X104413D02*
D03*
D80*
X203776Y326043D02*
D03*
X196551D02*
D03*
X207388Y329656D02*
D03*
X200163D02*
D03*
X192939D02*
D03*
X203776Y333268D02*
D03*
X196551D02*
D03*
X207388Y336880D02*
D03*
X200163D02*
D03*
X192939D02*
D03*
X203776Y340492D02*
D03*
X196551D02*
D03*
X59728Y294236D02*
D03*
X373780Y364898D02*
D03*
X365079Y373839D02*
D03*
X374079Y382720D02*
D03*
X382953Y374193D02*
D03*
Y19862D02*
D03*
X28622Y374193D02*
D03*
X374079Y28390D02*
D03*
X365079Y19508D02*
D03*
X373780Y10567D02*
D03*
X19748Y382720D02*
D03*
X10748Y373839D02*
D03*
X19449Y364898D02*
D03*
Y10567D02*
D03*
X10748Y19508D02*
D03*
X19748Y28390D02*
D03*
X28390Y19626D02*
D03*
D81*
X42347Y159354D02*
D03*
X42189Y139630D02*
D03*
X42339Y222228D02*
D03*
X42496Y241953D02*
D03*
X42260Y304681D02*
D03*
X42417Y324406D02*
D03*
D82*
X340090Y298843D02*
D03*
X359776Y299039D02*
D03*
Y280142D02*
D03*
X340484Y280535D02*
D03*
X359413Y157539D02*
D03*
X339728Y157343D02*
D03*
Y176240D02*
D03*
X359020Y175847D02*
D03*
D83*
X354181Y49091D02*
D03*
X354276Y52791D02*
D03*
X351146Y50417D02*
D03*
X264213Y143142D02*
D03*
X266965Y140284D02*
D03*
X261496Y140272D02*
D03*
X290020Y31421D02*
D03*
X259846D02*
D03*
X141252Y218882D02*
D03*
X142098Y251724D02*
D03*
X139996Y248772D02*
D03*
X171555Y212516D02*
D03*
X28976Y118205D02*
D03*
X164319Y62590D02*
D03*
X182559Y63106D02*
D03*
X97016Y56941D02*
D03*
X234756Y288276D02*
D03*
X365543Y220595D02*
D03*
X365882Y207602D02*
D03*
X392224Y299205D02*
D03*
X391701Y279693D02*
D03*
X277035Y107839D02*
D03*
X264653Y96531D02*
D03*
X288342Y89264D02*
D03*
X306913Y105413D02*
D03*
X312299Y115106D02*
D03*
X291032Y114839D02*
D03*
X41024Y201969D02*
D03*
X39453Y173736D02*
D03*
X67425Y204193D02*
D03*
X52524Y189945D02*
D03*
X161661Y275177D02*
D03*
X165032Y290646D02*
D03*
X174232Y284543D02*
D03*
X185630Y284594D02*
D03*
X281854Y261496D02*
D03*
X271614Y251413D02*
D03*
X262390Y243441D02*
D03*
X227681Y244847D02*
D03*
X235264Y239453D02*
D03*
X220646Y239374D02*
D03*
X233858Y270173D02*
D03*
X257386Y269705D02*
D03*
X245740Y261421D02*
D03*
X252461Y255008D02*
D03*
X238079Y250476D02*
D03*
X236126Y260012D02*
D03*
X141488Y126020D02*
D03*
X117402Y127681D02*
D03*
X129740Y130768D02*
D03*
X122504Y137768D02*
D03*
X133689Y147079D02*
D03*
X91484Y31496D02*
D03*
X84016Y39898D02*
D03*
Y62295D02*
D03*
X116213Y73961D02*
D03*
X3213Y362642D02*
D03*
X21724Y340039D02*
D03*
X44969Y358551D02*
D03*
X27965Y357689D02*
D03*
X35067Y344776D02*
D03*
X122653Y302764D02*
D03*
X132429Y320917D02*
D03*
X141831D02*
D03*
X122653D02*
D03*
X158579Y250902D02*
D03*
X171721Y225480D02*
D03*
X171343Y240185D02*
D03*
X296153Y205224D02*
D03*
X283787Y227850D02*
D03*
X292681Y236744D02*
D03*
X295890Y222854D02*
D03*
X288142Y213504D02*
D03*
X265165Y199878D02*
D03*
X282736Y178150D02*
D03*
X301949Y172661D02*
D03*
X294996Y144118D02*
D03*
X281638Y156925D02*
D03*
X268831Y165709D02*
D03*
X269012Y176323D02*
D03*
X292433Y163878D02*
D03*
X300665Y91240D02*
D03*
X301217Y68366D02*
D03*
X218000Y63465D02*
D03*
X243937Y31539D02*
D03*
X244740Y63839D02*
D03*
X269272Y64441D02*
D03*
X273520Y31776D02*
D03*
X228768Y26449D02*
D03*
X222634Y26457D02*
D03*
X225709Y24563D02*
D03*
X198059Y92378D02*
D03*
X208024D02*
D03*
X204445Y114457D02*
D03*
X206232Y102047D02*
D03*
X205516Y106642D02*
D03*
X203665Y104134D02*
D03*
X139803Y254339D02*
D03*
X160843Y372146D02*
D03*
X155583D02*
D03*
X149949Y371713D02*
D03*
X144634Y371850D02*
D03*
X157823Y368953D02*
D03*
X147669D02*
D03*
X367905Y1886D02*
D03*
X308480Y1689D02*
D03*
X280842D02*
D03*
X263016D02*
D03*
X228213Y1705D02*
D03*
X210008Y1874D02*
D03*
X4303Y215051D02*
D03*
X3827Y239472D02*
D03*
X390724Y168189D02*
D03*
X258236Y369961D02*
D03*
X281319Y369685D02*
D03*
X339512Y366161D02*
D03*
X299000Y367681D02*
D03*
X316752Y372031D02*
D03*
X388874Y331748D02*
D03*
X373185Y346917D02*
D03*
X355716Y356539D02*
D03*
X354701Y382618D02*
D03*
X344020Y383035D02*
D03*
X318244Y382618D02*
D03*
X280787Y387677D02*
D03*
X258161Y387374D02*
D03*
X391657Y263547D02*
D03*
Y247783D02*
D03*
X391445Y230957D02*
D03*
X391161Y212213D02*
D03*
X390591Y190201D02*
D03*
X390335Y133035D02*
D03*
X390819Y109713D02*
D03*
X390614Y86232D02*
D03*
X390535Y59850D02*
D03*
X390213Y39051D02*
D03*
X52276Y61319D02*
D03*
X4209Y97693D02*
D03*
X4303Y129402D02*
D03*
X4339Y155354D02*
D03*
X4654Y175169D02*
D03*
X4303Y192433D02*
D03*
Y262280D02*
D03*
X5713Y283563D02*
D03*
X6780Y302760D02*
D03*
X6071Y324236D02*
D03*
X6055Y345165D02*
D03*
X93327Y2374D02*
D03*
X186917Y1791D02*
D03*
X67532Y2772D02*
D03*
X30476Y2626D02*
D03*
X157224Y2173D02*
D03*
X126567Y2276D02*
D03*
X26874Y76587D02*
D03*
X20165Y53614D02*
D03*
X5075Y64153D02*
D03*
X84071Y110508D02*
D03*
X85028Y124752D02*
D03*
X95362Y135087D02*
D03*
X105004Y145902D02*
D03*
X128898Y169772D02*
D03*
X136736Y177465D02*
D03*
X145031Y185531D02*
D03*
X133228Y226307D02*
D03*
X154445Y267917D02*
D03*
X144244D02*
D03*
X128213Y334221D02*
D03*
X122634D02*
D03*
X125465Y335831D02*
D03*
X67402Y151618D02*
D03*
X62468Y144673D02*
D03*
X57902Y134260D02*
D03*
X57721Y122382D02*
D03*
Y111421D02*
D03*
X84760Y168063D02*
D03*
X99378Y182862D02*
D03*
X104858Y188342D02*
D03*
X111071Y195835D02*
D03*
X117283Y203508D02*
D03*
X123681Y210268D02*
D03*
X49862Y269626D02*
D03*
X52157Y274590D02*
D03*
Y264799D02*
D03*
X51559Y368311D02*
D03*
X51268Y373823D02*
D03*
X48370Y370850D02*
D03*
X111665Y300716D02*
D03*
X111835Y279795D02*
D03*
X382953Y374193D02*
D03*
X374079Y382720D02*
D03*
X365079Y373839D02*
D03*
X373780Y364898D02*
D03*
X281413Y142661D02*
D03*
X278669Y143925D02*
D03*
X278583Y140965D02*
D03*
D84*
X321126Y39760D02*
D03*
D85*
X374016Y374016D02*
D03*
X19685Y19685D02*
D03*
Y374016D02*
D03*
X374016Y19685D02*
D03*
D86*
X250362Y4417D02*
D03*
X348646Y196799D02*
D03*
X246134Y217276D02*
D03*
X263394Y116654D02*
D03*
X312736Y47949D02*
D03*
X173933Y270878D02*
D03*
X245280Y269256D02*
D03*
X321122Y296429D02*
D03*
X278992Y97980D02*
D03*
X292004Y189961D02*
D03*
X218398Y153811D02*
D03*
X140563Y138075D02*
D03*
X92398Y174740D02*
D03*
X74594Y187906D02*
D03*
X153150Y330224D02*
D03*
X153091Y340012D02*
D03*
X257933Y360063D02*
D03*
X250567Y330602D02*
D03*
X263024Y329020D02*
D03*
X268146Y319472D02*
D03*
X310791Y247598D02*
D03*
X111489Y311043D02*
D03*
X111606Y290787D02*
D03*
X111835Y269378D02*
D03*
X318098Y143736D02*
D03*
X139976Y102347D02*
D03*
X286130Y278504D02*
D03*
X99945Y244937D02*
D03*
X99921Y232272D02*
D03*
X99945Y217606D02*
D03*
X131689Y302445D02*
D03*
D87*
X138272Y223461D02*
D03*
D88*
X201957Y64417D02*
D03*
X302528Y297335D02*
D03*
D89*
X235635Y158651D02*
D03*
X244039Y166209D02*
D03*
D115*
X120520Y52209D02*
D03*
X135330Y67019D02*
D03*
M02*
