G04*
G04 #@! TF.GenerationSoftware,Altium Limited,Altium Designer,22.9.1 (49)*
G04*
G04 Layer_Color=255*
%FSLAX25Y25*%
%MOIN*%
G70*
G04*
G04 #@! TF.SameCoordinates,F91FD0B8-2741-413C-87D7-DF85A8DA950D*
G04*
G04*
G04 #@! TF.FilePolarity,Positive*
G04*
G01*
G75*
%ADD102C,0.07874*%
%ADD103R,0.05906X0.05906*%
%ADD104C,0.05906*%
%ADD105C,0.01575*%
%ADD106O,0.19685X0.11811*%
%ADD107O,0.17717X0.15748*%
G04:AMPARAMS|DCode=114|XSize=74.8mil|YSize=132.68mil|CornerRadius=2.62mil|HoleSize=0mil|Usage=FLASHONLY|Rotation=45.000|XOffset=0mil|YOffset=0mil|HoleType=Round|Shape=RoundedRectangle|*
%AMROUNDEDRECTD114*
21,1,0.07480,0.12744,0,0,45.0*
21,1,0.06957,0.13268,0,0,45.0*
1,1,0.00524,0.06965,-0.02046*
1,1,0.00524,0.02046,-0.06965*
1,1,0.00524,-0.06965,0.02046*
1,1,0.00524,-0.02046,0.06965*
%
%ADD114ROUNDEDRECTD114*%
D102*
X45205Y103390D02*
D03*
Y24650D02*
D03*
X355382Y217142D02*
D03*
Y236827D02*
D03*
X165173Y195634D02*
D03*
X155173D02*
D03*
X145173D02*
D03*
X135173D02*
D03*
X125173D02*
D03*
D103*
X154413Y26055D02*
D03*
D104*
X144413D02*
D03*
X134413D02*
D03*
X124413D02*
D03*
X114413D02*
D03*
X104413D02*
D03*
D105*
X203776Y326043D02*
D03*
X196551D02*
D03*
X207388Y329656D02*
D03*
X200163D02*
D03*
X192939D02*
D03*
X203776Y333268D02*
D03*
X196551D02*
D03*
X207388Y336880D02*
D03*
X200163D02*
D03*
X192939D02*
D03*
X203776Y340492D02*
D03*
X196551D02*
D03*
D106*
X42347Y159354D02*
D03*
X42189Y139630D02*
D03*
X42339Y222228D02*
D03*
X42496Y241953D02*
D03*
X42260Y304681D02*
D03*
X42417Y324406D02*
D03*
D107*
X340090Y298843D02*
D03*
X359776Y299039D02*
D03*
Y280142D02*
D03*
X340484Y280535D02*
D03*
X359413Y157539D02*
D03*
X339728Y157343D02*
D03*
Y176240D02*
D03*
X359020Y175847D02*
D03*
D114*
X120520Y52209D02*
D03*
X135330Y67019D02*
D03*
M02*
