G04*
G04 #@! TF.GenerationSoftware,Altium Limited,Altium Designer,22.9.1 (49)*
G04*
G04 Layer_Color=2752767*
%FSLAX25Y25*%
%MOIN*%
G70*
G04*
G04 #@! TF.SameCoordinates,F91FD0B8-2741-413C-87D7-DF85A8DA950D*
G04*
G04*
G04 #@! TF.FilePolarity,Positive*
G04*
G01*
G75*
%ADD117C,0.00200*%
%ADD118C,0.00267*%
D117*
X45205Y102590D02*
X45605Y102990D01*
X46005D01*
X45605Y103390D01*
X46005Y103790D01*
X45605D01*
X45205Y104190D01*
X44805Y103790D01*
X44405D01*
X44805Y103390D01*
X44405Y102990D01*
X44805D01*
X45205Y102590D01*
Y23850D02*
X45605Y24250D01*
X46005D01*
X45605Y24650D01*
X46005Y25050D01*
X45605D01*
X45205Y25450D01*
X44805Y25050D01*
X44405D01*
X44805Y24650D01*
X44405Y24250D01*
X44805D01*
X45205Y23850D01*
X154013Y25655D02*
Y25255D01*
X154813D01*
Y25655D01*
X155213D01*
Y26455D01*
X154813D01*
Y26855D01*
X154013D01*
Y26455D01*
X153613D01*
Y25655D01*
X154013D01*
X144013D02*
Y25255D01*
X144813D01*
Y25655D01*
X145213D01*
Y26455D01*
X144813D01*
Y26855D01*
X144013D01*
Y26455D01*
X143613D01*
Y25655D01*
X144013D01*
X134013D02*
Y25255D01*
X134813D01*
Y25655D01*
X135213D01*
Y26455D01*
X134813D01*
Y26855D01*
X134013D01*
Y26455D01*
X133613D01*
Y25655D01*
X134013D01*
X124013D02*
Y25255D01*
X124813D01*
Y25655D01*
X125213D01*
Y26455D01*
X124813D01*
Y26855D01*
X124013D01*
Y26455D01*
X123613D01*
Y25655D01*
X124013D01*
X354582Y216342D02*
X354982Y217142D01*
X354582Y217942D01*
X355382Y217542D01*
X356182Y217942D01*
X355782Y217142D01*
X356182Y216342D01*
X355382Y216742D01*
X354582Y216342D01*
Y236027D02*
X354982Y236827D01*
X354582Y237627D01*
X355382Y237227D01*
X356182Y237627D01*
X355782Y236827D01*
X356182Y236027D01*
X355382Y236427D01*
X354582Y236027D01*
X202976Y326043D02*
X203776Y326843D01*
X204576Y326043D01*
X203776Y325243D01*
X202976Y326043D01*
X195751D02*
X196551Y326843D01*
X197351Y326043D01*
X196551Y325243D01*
X195751Y326043D01*
X206588Y329656D02*
X207388Y330455D01*
X208188Y329656D01*
X207388Y328855D01*
X206588Y329656D01*
X199363D02*
X200163Y330455D01*
X200963Y329656D01*
X200163Y328855D01*
X199363Y329656D01*
X192139D02*
X192939Y330455D01*
X193739Y329656D01*
X192939Y328855D01*
X192139Y329656D01*
X202976Y333268D02*
X203776Y334068D01*
X204576Y333268D01*
X203776Y332468D01*
X202976Y333268D01*
X195751D02*
X196551Y334068D01*
X197351Y333268D01*
X196551Y332468D01*
X195751Y333268D01*
X206588Y336880D02*
X207388Y337680D01*
X208188Y336880D01*
X207388Y336080D01*
X206588Y336880D01*
X199363D02*
X200163Y337680D01*
X200963Y336880D01*
X200163Y336080D01*
X199363Y336880D01*
X192139D02*
X192939Y337680D01*
X193739Y336880D01*
X192939Y336080D01*
X192139Y336880D01*
X202976Y340492D02*
X203776Y341292D01*
X204576Y340492D01*
X203776Y339692D01*
X202976Y340492D01*
X195751D02*
X196551Y341292D01*
X197351Y340492D01*
X196551Y339692D01*
X195751Y340492D01*
X41546Y158554D02*
X41947D01*
X42347Y158954D01*
X42746Y158554D01*
X43146D01*
Y158954D01*
X42746Y159354D01*
X43146Y159754D01*
Y160154D01*
X42746D01*
X42347Y159754D01*
X41947Y160154D01*
X41546D01*
Y159754D01*
X41947Y159354D01*
X41546Y158954D01*
Y158554D01*
X41389Y138830D02*
X41789D01*
X42189Y139230D01*
X42589Y138830D01*
X42989D01*
Y139230D01*
X42589Y139630D01*
X42989Y140030D01*
Y140430D01*
X42589D01*
X42189Y140030D01*
X41789Y140430D01*
X41389D01*
Y140030D01*
X41789Y139630D01*
X41389Y139230D01*
Y138830D01*
X41539Y221428D02*
X41939D01*
X42339Y221828D01*
X42739Y221428D01*
X43139D01*
Y221828D01*
X42739Y222228D01*
X43139Y222628D01*
Y223028D01*
X42739D01*
X42339Y222628D01*
X41939Y223028D01*
X41539D01*
Y222628D01*
X41939Y222228D01*
X41539Y221828D01*
Y221428D01*
X41696Y241153D02*
X42096D01*
X42496Y241553D01*
X42896Y241153D01*
X43296D01*
Y241553D01*
X42896Y241953D01*
X43296Y242353D01*
Y242753D01*
X42896D01*
X42496Y242353D01*
X42096Y242753D01*
X41696D01*
Y242353D01*
X42096Y241953D01*
X41696Y241553D01*
Y241153D01*
X41460Y303881D02*
X41860D01*
X42260Y304281D01*
X42660Y303881D01*
X43060D01*
Y304281D01*
X42660Y304681D01*
X43060Y305081D01*
Y305481D01*
X42660D01*
X42260Y305081D01*
X41860Y305481D01*
X41460D01*
Y305081D01*
X41860Y304681D01*
X41460Y304281D01*
Y303881D01*
X41617Y323605D02*
X42017D01*
X42417Y324006D01*
X42817Y323605D01*
X43217D01*
Y324006D01*
X42817Y324406D01*
X43217Y324805D01*
Y325205D01*
X42817D01*
X42417Y324805D01*
X42017Y325205D01*
X41617D01*
Y324805D01*
X42017Y324406D01*
X41617Y324006D01*
Y323605D01*
X339290Y298042D02*
Y299642D01*
X340891D01*
Y298042D01*
X339290D01*
X358976Y298239D02*
Y299839D01*
X360576D01*
Y298239D01*
X358976D01*
Y279342D02*
Y280942D01*
X360576D01*
Y279342D01*
X358976D01*
X339684Y279735D02*
Y281335D01*
X341284D01*
Y279735D01*
X339684D01*
X358613Y156739D02*
Y158339D01*
X360213D01*
Y156739D01*
X358613D01*
X338928Y156543D02*
Y158142D01*
X340528D01*
Y156543D01*
X338928D01*
Y175440D02*
Y177040D01*
X340528D01*
Y175440D01*
X338928D01*
X358220Y175047D02*
Y176646D01*
X359820D01*
Y175047D01*
X358220D01*
X165173Y194834D02*
X165573Y195234D01*
X165973D01*
X165573Y195634D01*
X165973Y196034D01*
X165573D01*
X165173Y196434D01*
X164773Y196034D01*
X164373D01*
X164773Y195634D01*
X164373Y195234D01*
X164773D01*
X165173Y194834D01*
X155173D02*
X155573Y195234D01*
X155973D01*
X155573Y195634D01*
X155973Y196034D01*
X155573D01*
X155173Y196434D01*
X154773Y196034D01*
X154373D01*
X154773Y195634D01*
X154373Y195234D01*
X154773D01*
X155173Y194834D01*
X145173D02*
X145573Y195234D01*
X145973D01*
X145573Y195634D01*
X145973Y196034D01*
X145573D01*
X145173Y196434D01*
X144773Y196034D01*
X144373D01*
X144773Y195634D01*
X144373Y195234D01*
X144773D01*
X145173Y194834D01*
X135173D02*
X135573Y195234D01*
X135973D01*
X135573Y195634D01*
X135973Y196034D01*
X135573D01*
X135173Y196434D01*
X134773Y196034D01*
X134373D01*
X134773Y195634D01*
X134373Y195234D01*
X134773D01*
X135173Y194834D01*
X125173D02*
X125573Y195234D01*
X125973D01*
X125573Y195634D01*
X125973Y196034D01*
X125573D01*
X125173Y196434D01*
X124773Y196034D01*
X124373D01*
X124773Y195634D01*
X124373Y195234D01*
X124773D01*
X125173Y194834D01*
X114013Y25655D02*
Y25255D01*
X114813D01*
Y25655D01*
X115213D01*
Y26455D01*
X114813D01*
Y26855D01*
X114013D01*
Y26455D01*
X113613D01*
Y25655D01*
X114013D01*
X104013D02*
Y25255D01*
X104813D01*
Y25655D01*
X105213D01*
Y26455D01*
X104813D01*
Y26855D01*
X104013D01*
Y26455D01*
X103613D01*
Y25655D01*
X104013D01*
X353381Y49091D02*
X354181Y49891D01*
X354981Y49091D01*
X354181Y48291D01*
X353381Y49091D01*
X353476Y52791D02*
X354276Y53591D01*
X355076Y52791D01*
X354276Y51991D01*
X353476Y52791D01*
X350346Y50417D02*
X351146Y51217D01*
X351946Y50417D01*
X351146Y49617D01*
X350346Y50417D01*
X263413Y143142D02*
X264213Y143942D01*
X265013Y143142D01*
X264213Y142342D01*
X263413Y143142D01*
X266165Y140284D02*
X266965Y141084D01*
X267765Y140284D01*
X266965Y139483D01*
X266165Y140284D01*
X260696Y140272D02*
X261496Y141072D01*
X262296Y140272D01*
X261496Y139472D01*
X260696Y140272D01*
X289220Y31421D02*
X290020Y32221D01*
X290820Y31421D01*
X290020Y30621D01*
X289220Y31421D01*
X259047D02*
X259846Y32221D01*
X260647Y31421D01*
X259846Y30621D01*
X259047Y31421D01*
X140452Y218882D02*
X141252Y219682D01*
X142052Y218882D01*
X141252Y218082D01*
X140452Y218882D01*
X141298Y251724D02*
X142098Y252524D01*
X142898Y251724D01*
X142098Y250924D01*
X141298Y251724D01*
X139196Y248772D02*
X139996Y249572D01*
X140796Y248772D01*
X139996Y247972D01*
X139196Y248772D01*
X170755Y212516D02*
X171555Y213316D01*
X172355Y212516D01*
X171555Y211716D01*
X170755Y212516D01*
X28176Y118205D02*
X28976Y119005D01*
X29776Y118205D01*
X28976Y117405D01*
X28176Y118205D01*
X163519Y62590D02*
X164319Y63390D01*
X165119Y62590D01*
X164319Y61791D01*
X163519Y62590D01*
X181759Y63106D02*
X182559Y63906D01*
X183359Y63106D01*
X182559Y62306D01*
X181759Y63106D01*
X96216Y56941D02*
X97016Y57741D01*
X97816Y56941D01*
X97016Y56141D01*
X96216Y56941D01*
X233956Y288276D02*
X234756Y289076D01*
X235556Y288276D01*
X234756Y287476D01*
X233956Y288276D01*
X364743Y220595D02*
X365543Y221394D01*
X366343Y220595D01*
X365543Y219795D01*
X364743Y220595D01*
X365082Y207602D02*
X365882Y208402D01*
X366682Y207602D01*
X365882Y206802D01*
X365082Y207602D01*
X391424Y299205D02*
X392224Y300005D01*
X393024Y299205D01*
X392224Y298405D01*
X391424Y299205D01*
X390901Y279693D02*
X391701Y280493D01*
X392501Y279693D01*
X391701Y278893D01*
X390901Y279693D01*
X276235Y107839D02*
X277035Y108639D01*
X277835Y107839D01*
X277035Y107039D01*
X276235Y107839D01*
X263854Y96531D02*
X264653Y97332D01*
X265454Y96531D01*
X264653Y95732D01*
X263854Y96531D01*
X287543Y89264D02*
X288342Y90064D01*
X289142Y89264D01*
X288342Y88464D01*
X287543Y89264D01*
X306113Y105413D02*
X306913Y106213D01*
X307713Y105413D01*
X306913Y104613D01*
X306113Y105413D01*
X311499Y115106D02*
X312299Y115906D01*
X313099Y115106D01*
X312299Y114306D01*
X311499Y115106D01*
X290231Y114839D02*
X291032Y115639D01*
X291831Y114839D01*
X291032Y114039D01*
X290231Y114839D01*
X40224Y201969D02*
X41024Y202768D01*
X41824Y201969D01*
X41024Y201168D01*
X40224Y201969D01*
X38653Y173736D02*
X39453Y174536D01*
X40253Y173736D01*
X39453Y172936D01*
X38653Y173736D01*
X66625Y204193D02*
X67425Y204993D01*
X68225Y204193D01*
X67425Y203393D01*
X66625Y204193D01*
X51724Y189945D02*
X52524Y190745D01*
X53324Y189945D01*
X52524Y189145D01*
X51724Y189945D01*
X160861Y275177D02*
X161661Y275977D01*
X162461Y275177D01*
X161661Y274377D01*
X160861Y275177D01*
X164232Y290646D02*
X165032Y291446D01*
X165831Y290646D01*
X165032Y289846D01*
X164232Y290646D01*
X173432Y284543D02*
X174232Y285343D01*
X175032Y284543D01*
X174232Y283743D01*
X173432Y284543D01*
X184830Y284594D02*
X185630Y285395D01*
X186430Y284594D01*
X185630Y283794D01*
X184830Y284594D01*
X281054Y261496D02*
X281854Y262296D01*
X282654Y261496D01*
X281854Y260696D01*
X281054Y261496D01*
X270814Y251413D02*
X271614Y252213D01*
X272414Y251413D01*
X271614Y250613D01*
X270814Y251413D01*
X261590Y243441D02*
X262390Y244241D01*
X263190Y243441D01*
X262390Y242641D01*
X261590Y243441D01*
X226881Y244847D02*
X227681Y245647D01*
X228481Y244847D01*
X227681Y244046D01*
X226881Y244847D01*
X234464Y239453D02*
X235264Y240253D01*
X236064Y239453D01*
X235264Y238653D01*
X234464Y239453D01*
X219846Y239374D02*
X220646Y240174D01*
X221446Y239374D01*
X220646Y238574D01*
X219846Y239374D01*
X233058Y270173D02*
X233858Y270973D01*
X234658Y270173D01*
X233858Y269373D01*
X233058Y270173D01*
X256586Y269705D02*
X257386Y270505D01*
X258186Y269705D01*
X257386Y268905D01*
X256586Y269705D01*
X244940Y261421D02*
X245740Y262221D01*
X246540Y261421D01*
X245740Y260621D01*
X244940Y261421D01*
X251661Y255008D02*
X252461Y255808D01*
X253261Y255008D01*
X252461Y254208D01*
X251661Y255008D01*
X237279Y250476D02*
X238079Y251276D01*
X238879Y250476D01*
X238079Y249676D01*
X237279Y250476D01*
X235326Y260012D02*
X236126Y260812D01*
X236926Y260012D01*
X236126Y259212D01*
X235326Y260012D01*
X140688Y126020D02*
X141488Y126820D01*
X142288Y126020D01*
X141488Y125220D01*
X140688Y126020D01*
X116602Y127681D02*
X117402Y128481D01*
X118202Y127681D01*
X117402Y126881D01*
X116602Y127681D01*
X128940Y130768D02*
X129740Y131568D01*
X130540Y130768D01*
X129740Y129968D01*
X128940Y130768D01*
X121704Y137768D02*
X122504Y138568D01*
X123304Y137768D01*
X122504Y136968D01*
X121704Y137768D01*
X132889Y147079D02*
X133689Y147879D01*
X134489Y147079D01*
X133689Y146279D01*
X132889Y147079D01*
X90684Y31496D02*
X91484Y32296D01*
X92284Y31496D01*
X91484Y30696D01*
X90684Y31496D01*
X83216Y39898D02*
X84016Y40698D01*
X84816Y39898D01*
X84016Y39098D01*
X83216Y39898D01*
Y62295D02*
X84016Y63095D01*
X84816Y62295D01*
X84016Y61495D01*
X83216Y62295D01*
X115413Y73961D02*
X116213Y74761D01*
X117013Y73961D01*
X116213Y73161D01*
X115413Y73961D01*
X2413Y362642D02*
X3213Y363442D01*
X4013Y362642D01*
X3213Y361842D01*
X2413Y362642D01*
X20924Y340039D02*
X21724Y340839D01*
X22524Y340039D01*
X21724Y339239D01*
X20924Y340039D01*
X44168Y358551D02*
X44969Y359351D01*
X45768Y358551D01*
X44969Y357751D01*
X44168Y358551D01*
X27165Y357689D02*
X27965Y358489D01*
X28765Y357689D01*
X27965Y356889D01*
X27165Y357689D01*
X34267Y344776D02*
X35067Y345576D01*
X35867Y344776D01*
X35067Y343976D01*
X34267Y344776D01*
X121853Y302764D02*
X122653Y303564D01*
X123453Y302764D01*
X122653Y301964D01*
X121853Y302764D01*
X131629Y320917D02*
X132429Y321717D01*
X133229Y320917D01*
X132429Y320117D01*
X131629Y320917D01*
X141031D02*
X141831Y321717D01*
X142631Y320917D01*
X141831Y320117D01*
X141031Y320917D01*
X121853D02*
X122653Y321717D01*
X123453Y320917D01*
X122653Y320117D01*
X121853Y320917D01*
X157779Y250902D02*
X158579Y251702D01*
X159379Y250902D01*
X158579Y250102D01*
X157779Y250902D01*
X170921Y225480D02*
X171721Y226280D01*
X172520Y225480D01*
X171721Y224680D01*
X170921Y225480D01*
X170543Y240185D02*
X171343Y240985D01*
X172143Y240185D01*
X171343Y239385D01*
X170543Y240185D01*
X295354Y205224D02*
X296153Y206024D01*
X296954Y205224D01*
X296153Y204424D01*
X295354Y205224D01*
X282987Y227850D02*
X283787Y228650D01*
X284587Y227850D01*
X283787Y227050D01*
X282987Y227850D01*
X291881Y236744D02*
X292681Y237544D01*
X293481Y236744D01*
X292681Y235944D01*
X291881Y236744D01*
X295090Y222854D02*
X295890Y223654D01*
X296690Y222854D01*
X295890Y222054D01*
X295090Y222854D01*
X287342Y213504D02*
X288142Y214304D01*
X288942Y213504D01*
X288142Y212704D01*
X287342Y213504D01*
X264365Y199878D02*
X265165Y200678D01*
X265965Y199878D01*
X265165Y199078D01*
X264365Y199878D01*
X281936Y178150D02*
X282736Y178950D01*
X283536Y178150D01*
X282736Y177350D01*
X281936Y178150D01*
X301149Y172661D02*
X301949Y173461D01*
X302749Y172661D01*
X301949Y171861D01*
X301149Y172661D01*
X294196Y144118D02*
X294996Y144918D01*
X295796Y144118D01*
X294996Y143318D01*
X294196Y144118D01*
X280838Y156925D02*
X281638Y157725D01*
X282438Y156925D01*
X281638Y156125D01*
X280838Y156925D01*
X268031Y165709D02*
X268831Y166509D01*
X269631Y165709D01*
X268831Y164909D01*
X268031Y165709D01*
X268212Y176323D02*
X269012Y177123D01*
X269812Y176323D01*
X269012Y175523D01*
X268212Y176323D01*
X291633Y163878D02*
X292433Y164678D01*
X293233Y163878D01*
X292433Y163078D01*
X291633Y163878D01*
X299865Y91240D02*
X300665Y92040D01*
X301465Y91240D01*
X300665Y90440D01*
X299865Y91240D01*
X300416Y68366D02*
X301217Y69166D01*
X302016Y68366D01*
X301217Y67566D01*
X300416Y68366D01*
X217200Y63465D02*
X218000Y64265D01*
X218800Y63465D01*
X218000Y62665D01*
X217200Y63465D01*
X243137Y31539D02*
X243937Y32339D01*
X244737Y31539D01*
X243937Y30739D01*
X243137Y31539D01*
X243940Y63839D02*
X244740Y64639D01*
X245540Y63839D01*
X244740Y63039D01*
X243940Y63839D01*
X268472Y64441D02*
X269272Y65241D01*
X270072Y64441D01*
X269272Y63641D01*
X268472Y64441D01*
X272720Y31776D02*
X273520Y32576D01*
X274320Y31776D01*
X273520Y30976D01*
X272720Y31776D01*
X321126Y38960D02*
X321526Y39360D01*
X321926D01*
X321526Y39760D01*
X321926Y40160D01*
X321526D01*
X321126Y40560D01*
X320726Y40160D01*
X320326D01*
X320726Y39760D01*
X320326Y39360D01*
X320726D01*
X321126Y38960D01*
X227968Y26449D02*
X228768Y27249D01*
X229568Y26449D01*
X228768Y25649D01*
X227968Y26449D01*
X221834Y26457D02*
X222634Y27257D01*
X223434Y26457D01*
X222634Y25657D01*
X221834Y26457D01*
X224909Y24563D02*
X225709Y25363D01*
X226509Y24563D01*
X225709Y23763D01*
X224909Y24563D01*
X197259Y92378D02*
X198059Y93178D01*
X198859Y92378D01*
X198059Y91578D01*
X197259Y92378D01*
X207224D02*
X208024Y93178D01*
X208824Y92378D01*
X208024Y91578D01*
X207224Y92378D01*
X203645Y114457D02*
X204445Y115257D01*
X205245Y114457D01*
X204445Y113657D01*
X203645Y114457D01*
X205432Y102047D02*
X206232Y102847D01*
X207032Y102047D01*
X206232Y101247D01*
X205432Y102047D01*
X204716Y106642D02*
X205516Y107442D01*
X206316Y106642D01*
X205516Y105842D01*
X204716Y106642D01*
X202865Y104134D02*
X203665Y104934D01*
X204465Y104134D01*
X203665Y103334D01*
X202865Y104134D01*
X139003Y254339D02*
X139803Y255139D01*
X140603Y254339D01*
X139803Y253539D01*
X139003Y254339D01*
X160043Y372146D02*
X160843Y372946D01*
X161643Y372146D01*
X160843Y371346D01*
X160043Y372146D01*
X154783D02*
X155583Y372946D01*
X156383Y372146D01*
X155583Y371346D01*
X154783Y372146D01*
X149149Y371713D02*
X149949Y372513D01*
X150749Y371713D01*
X149949Y370913D01*
X149149Y371713D01*
X143834Y371850D02*
X144634Y372650D01*
X145434Y371850D01*
X144634Y371050D01*
X143834Y371850D01*
X157023Y368953D02*
X157823Y369753D01*
X158623Y368953D01*
X157823Y368153D01*
X157023Y368953D01*
X146869D02*
X147669Y369753D01*
X148469Y368953D01*
X147669Y368153D01*
X146869Y368953D01*
X367106Y1886D02*
X367905Y2686D01*
X368706Y1886D01*
X367905Y1086D01*
X367106Y1886D01*
X307680Y1689D02*
X308480Y2489D01*
X309280Y1689D01*
X308480Y889D01*
X307680Y1689D01*
X280043D02*
X280842Y2489D01*
X281643Y1689D01*
X280842Y889D01*
X280043Y1689D01*
X262216D02*
X263016Y2489D01*
X263816Y1689D01*
X263016Y889D01*
X262216Y1689D01*
X227413Y1705D02*
X228213Y2505D01*
X229013Y1705D01*
X228213Y905D01*
X227413Y1705D01*
X209208Y1874D02*
X210008Y2674D01*
X210808Y1874D01*
X210008Y1074D01*
X209208Y1874D01*
X3503Y215051D02*
X4303Y215851D01*
X5103Y215051D01*
X4303Y214251D01*
X3503Y215051D01*
X3027Y239472D02*
X3827Y240272D01*
X4627Y239472D01*
X3827Y238672D01*
X3027Y239472D01*
X389924Y168189D02*
X390724Y168989D01*
X391524Y168189D01*
X390724Y167389D01*
X389924Y168189D01*
X257436Y369961D02*
X258236Y370761D01*
X259036Y369961D01*
X258236Y369161D01*
X257436Y369961D01*
X280519Y369685D02*
X281319Y370485D01*
X282119Y369685D01*
X281319Y368885D01*
X280519Y369685D01*
X338712Y366161D02*
X339512Y366961D01*
X340312Y366161D01*
X339512Y365361D01*
X338712Y366161D01*
X298200Y367681D02*
X299000Y368481D01*
X299800Y367681D01*
X299000Y366881D01*
X298200Y367681D01*
X315952Y372031D02*
X316752Y372832D01*
X317552Y372031D01*
X316752Y371232D01*
X315952Y372031D01*
X388074Y331748D02*
X388874Y332548D01*
X389674Y331748D01*
X388874Y330948D01*
X388074Y331748D01*
X372385Y346917D02*
X373185Y347717D01*
X373985Y346917D01*
X373185Y346117D01*
X372385Y346917D01*
X354917Y356539D02*
X355716Y357339D01*
X356517Y356539D01*
X355716Y355739D01*
X354917Y356539D01*
X353901Y382618D02*
X354701Y383418D01*
X355501Y382618D01*
X354701Y381818D01*
X353901Y382618D01*
X343220Y383035D02*
X344020Y383835D01*
X344820Y383035D01*
X344020Y382235D01*
X343220Y383035D01*
X317444Y382618D02*
X318244Y383418D01*
X319044Y382618D01*
X318244Y381818D01*
X317444Y382618D01*
X279987Y387677D02*
X280787Y388477D01*
X281587Y387677D01*
X280787Y386877D01*
X279987Y387677D01*
X257361Y387374D02*
X258161Y388174D01*
X258961Y387374D01*
X258161Y386574D01*
X257361Y387374D01*
X390858Y263547D02*
X391657Y264347D01*
X392458Y263547D01*
X391657Y262747D01*
X390858Y263547D01*
Y247783D02*
X391657Y248584D01*
X392458Y247783D01*
X391657Y246984D01*
X390858Y247783D01*
X390645Y230957D02*
X391445Y231757D01*
X392245Y230957D01*
X391445Y230157D01*
X390645Y230957D01*
X390361Y212213D02*
X391161Y213013D01*
X391961Y212213D01*
X391161Y211413D01*
X390361Y212213D01*
X389791Y190201D02*
X390591Y191001D01*
X391390Y190201D01*
X390591Y189401D01*
X389791Y190201D01*
X389535Y133035D02*
X390335Y133835D01*
X391135Y133035D01*
X390335Y132235D01*
X389535Y133035D01*
X390019Y109713D02*
X390819Y110513D01*
X391619Y109713D01*
X390819Y108913D01*
X390019Y109713D01*
X389814Y86232D02*
X390614Y87032D01*
X391414Y86232D01*
X390614Y85432D01*
X389814Y86232D01*
X389735Y59850D02*
X390535Y60650D01*
X391335Y59850D01*
X390535Y59050D01*
X389735Y59850D01*
X389413Y39051D02*
X390213Y39851D01*
X391013Y39051D01*
X390213Y38251D01*
X389413Y39051D01*
X51476Y61319D02*
X52276Y62119D01*
X53076Y61319D01*
X52276Y60519D01*
X51476Y61319D01*
X3409Y97693D02*
X4209Y98493D01*
X5009Y97693D01*
X4209Y96893D01*
X3409Y97693D01*
X3503Y129402D02*
X4303Y130202D01*
X5103Y129402D01*
X4303Y128602D01*
X3503Y129402D01*
X3539Y155354D02*
X4339Y156154D01*
X5139Y155354D01*
X4339Y154554D01*
X3539Y155354D01*
X3853Y175169D02*
X4654Y175969D01*
X5454Y175169D01*
X4654Y174369D01*
X3853Y175169D01*
X3503Y192433D02*
X4303Y193233D01*
X5103Y192433D01*
X4303Y191633D01*
X3503Y192433D01*
Y262280D02*
X4303Y263080D01*
X5103Y262280D01*
X4303Y261479D01*
X3503Y262280D01*
X4913Y283563D02*
X5713Y284363D01*
X6513Y283563D01*
X5713Y282763D01*
X4913Y283563D01*
X5979Y302760D02*
X6780Y303560D01*
X7580Y302760D01*
X6780Y301960D01*
X5979Y302760D01*
X5271Y324236D02*
X6071Y325036D01*
X6871Y324236D01*
X6071Y323436D01*
X5271Y324236D01*
X5255Y345165D02*
X6055Y345965D01*
X6855Y345165D01*
X6055Y344365D01*
X5255Y345165D01*
X92527Y2374D02*
X93327Y3174D01*
X94127Y2374D01*
X93327Y1574D01*
X92527Y2374D01*
X186117Y1791D02*
X186917Y2591D01*
X187717Y1791D01*
X186917Y991D01*
X186117Y1791D01*
X66732Y2772D02*
X67532Y3572D01*
X68331Y2772D01*
X67532Y1972D01*
X66732Y2772D01*
X29676Y2626D02*
X30476Y3426D01*
X31276Y2626D01*
X30476Y1826D01*
X29676Y2626D01*
X156424Y2173D02*
X157224Y2973D01*
X158024Y2173D01*
X157224Y1373D01*
X156424Y2173D01*
X125767Y2276D02*
X126567Y3076D01*
X127367Y2276D01*
X126567Y1476D01*
X125767Y2276D01*
X26074Y76587D02*
X26874Y77387D01*
X27674Y76587D01*
X26874Y75787D01*
X26074Y76587D01*
X19365Y53614D02*
X20165Y54414D01*
X20965Y53614D01*
X20165Y52814D01*
X19365Y53614D01*
X4275Y64153D02*
X5075Y64954D01*
X5875Y64153D01*
X5075Y63354D01*
X4275Y64153D01*
X83271Y110508D02*
X84071Y111308D01*
X84871Y110508D01*
X84071Y109708D01*
X83271Y110508D01*
X84228Y124752D02*
X85028Y125552D01*
X85828Y124752D01*
X85028Y123952D01*
X84228Y124752D01*
X94562Y135087D02*
X95362Y135887D01*
X96162Y135087D01*
X95362Y134287D01*
X94562Y135087D01*
X104204Y145902D02*
X105004Y146702D01*
X105804Y145902D01*
X105004Y145102D01*
X104204Y145902D01*
X128098Y169772D02*
X128898Y170572D01*
X129698Y169772D01*
X128898Y168972D01*
X128098Y169772D01*
X135936Y177465D02*
X136736Y178265D01*
X137536Y177465D01*
X136736Y176665D01*
X135936Y177465D01*
X144231Y185531D02*
X145031Y186331D01*
X145832Y185531D01*
X145031Y184731D01*
X144231Y185531D01*
X132428Y226307D02*
X133228Y227107D01*
X134028Y226307D01*
X133228Y225507D01*
X132428Y226307D01*
X153645Y267917D02*
X154445Y268717D01*
X155245Y267917D01*
X154445Y267117D01*
X153645Y267917D01*
X143444D02*
X144244Y268717D01*
X145044Y267917D01*
X144244Y267117D01*
X143444Y267917D01*
X127413Y334221D02*
X128213Y335020D01*
X129013Y334221D01*
X128213Y333420D01*
X127413Y334221D01*
X121834D02*
X122634Y335020D01*
X123434Y334221D01*
X122634Y333420D01*
X121834Y334221D01*
X124665Y335831D02*
X125465Y336631D01*
X126265Y335831D01*
X125465Y335031D01*
X124665Y335831D01*
X66602Y151618D02*
X67402Y152418D01*
X68202Y151618D01*
X67402Y150818D01*
X66602Y151618D01*
X61668Y144673D02*
X62468Y145473D01*
X63269Y144673D01*
X62468Y143873D01*
X61668Y144673D01*
X57102Y134260D02*
X57902Y135060D01*
X58702Y134260D01*
X57902Y133460D01*
X57102Y134260D01*
X56920Y122382D02*
X57721Y123182D01*
X58521Y122382D01*
X57721Y121582D01*
X56920Y122382D01*
Y111421D02*
X57721Y112221D01*
X58521Y111421D01*
X57721Y110621D01*
X56920Y111421D01*
X83960Y168063D02*
X84760Y168863D01*
X85560Y168063D01*
X84760Y167263D01*
X83960Y168063D01*
X98578Y182862D02*
X99378Y183662D01*
X100178Y182862D01*
X99378Y182062D01*
X98578Y182862D01*
X104058Y188342D02*
X104858Y189143D01*
X105658Y188342D01*
X104858Y187542D01*
X104058Y188342D01*
X110271Y195835D02*
X111071Y196635D01*
X111871Y195835D01*
X111071Y195035D01*
X110271Y195835D01*
X116483Y203508D02*
X117283Y204308D01*
X118084Y203508D01*
X117283Y202708D01*
X116483Y203508D01*
X122881Y210268D02*
X123681Y211068D01*
X124481Y210268D01*
X123681Y209468D01*
X122881Y210268D01*
X49062Y269626D02*
X49862Y270426D01*
X50662Y269626D01*
X49862Y268826D01*
X49062Y269626D01*
X51358Y274590D02*
X52157Y275391D01*
X52957Y274590D01*
X52157Y273791D01*
X51358Y274590D01*
Y264799D02*
X52157Y265599D01*
X52957Y264799D01*
X52157Y263999D01*
X51358Y264799D01*
X58928Y293436D02*
Y295036D01*
X60528D01*
Y293436D01*
X58928D01*
X59328Y293836D02*
Y294636D01*
X60128D01*
Y293836D01*
X59328D01*
X50759Y368311D02*
X51559Y369111D01*
X52359Y368311D01*
X51559Y367511D01*
X50759Y368311D01*
X50468Y373823D02*
X51268Y374623D01*
X52068Y373823D01*
X51268Y373023D01*
X50468Y373823D01*
X47570Y370850D02*
X48370Y371650D01*
X49170Y370850D01*
X48370Y370050D01*
X47570Y370850D01*
X110865Y300716D02*
X111665Y301517D01*
X112465Y300716D01*
X111665Y299917D01*
X110865Y300716D01*
X111035Y279795D02*
X111835Y280595D01*
X112635Y279795D01*
X111835Y278995D01*
X111035Y279795D01*
X372979Y364098D02*
Y365698D01*
X374580D01*
Y364098D01*
X372979D01*
X373379Y364498D02*
Y365298D01*
X374180D01*
Y364498D01*
X373379D01*
X364279Y373039D02*
Y374639D01*
X365879D01*
Y373039D01*
X364279D01*
X364679Y373439D02*
Y374239D01*
X365479D01*
Y373439D01*
X364679D01*
X373279Y381921D02*
Y383521D01*
X374879D01*
Y381921D01*
X373279D01*
X373679Y382320D02*
Y383120D01*
X374479D01*
Y382320D01*
X373679D01*
X382153Y373393D02*
Y374993D01*
X383753D01*
Y373393D01*
X382153D01*
X382553Y373793D02*
Y374593D01*
X383353D01*
Y373793D01*
X382553D01*
X382153Y19062D02*
Y20662D01*
X383753D01*
Y19062D01*
X382153D01*
X382553Y19462D02*
Y20262D01*
X383353D01*
Y19462D01*
X382553D01*
X27822Y373393D02*
Y374993D01*
X29422D01*
Y373393D01*
X27822D01*
X28222Y373793D02*
Y374593D01*
X29022D01*
Y373793D01*
X28222D01*
X373279Y27590D02*
Y29190D01*
X374879D01*
Y27590D01*
X373279D01*
X373679Y27990D02*
Y28790D01*
X374479D01*
Y27990D01*
X373679D01*
X364279Y18708D02*
Y20308D01*
X365879D01*
Y18708D01*
X364279D01*
X364679Y19108D02*
Y19908D01*
X365479D01*
Y19108D01*
X364679D01*
X372979Y9767D02*
Y11367D01*
X374580D01*
Y9767D01*
X372979D01*
X373379Y10167D02*
Y10967D01*
X374180D01*
Y10167D01*
X373379D01*
X18948Y381921D02*
Y383521D01*
X20548D01*
Y381921D01*
X18948D01*
X19348Y382320D02*
Y383120D01*
X20148D01*
Y382320D01*
X19348D01*
X9948Y373039D02*
Y374639D01*
X11548D01*
Y373039D01*
X9948D01*
X10348Y373439D02*
Y374239D01*
X11148D01*
Y373439D01*
X10348D01*
X18649Y364098D02*
Y365698D01*
X20249D01*
Y364098D01*
X18649D01*
X19049Y364498D02*
Y365298D01*
X19849D01*
Y364498D01*
X19049D01*
X18649Y9767D02*
Y11367D01*
X20249D01*
Y9767D01*
X18649D01*
X19049Y10167D02*
Y10967D01*
X19849D01*
Y10167D01*
X19049D01*
X9948Y18708D02*
Y20308D01*
X11548D01*
Y18708D01*
X9948D01*
X10348Y19108D02*
Y19908D01*
X11148D01*
Y19108D01*
X10348D01*
X18948Y27590D02*
Y29190D01*
X20548D01*
Y27590D01*
X18948D01*
X19348Y27990D02*
Y28790D01*
X20148D01*
Y27990D01*
X19348D01*
X27590Y18826D02*
Y20426D01*
X29190D01*
Y18826D01*
X27590D01*
X27990Y19226D02*
Y20026D01*
X28790D01*
Y19226D01*
X27990D01*
X250362Y3617D02*
X250762Y4017D01*
X251162D01*
X250762Y4417D01*
X251162Y4817D01*
X250762D01*
X250362Y5217D01*
X249962Y4817D01*
X249562D01*
X249962Y4417D01*
X249562Y4017D01*
X249962D01*
X250362Y3617D01*
X280613Y142661D02*
X281413Y143461D01*
X282213Y142661D01*
X281413Y141861D01*
X280613Y142661D01*
X277869Y143925D02*
X278669Y144725D01*
X279469Y143925D01*
X278669Y143125D01*
X277869Y143925D01*
X277783Y140965D02*
X278583Y141765D01*
X279383Y140965D01*
X278583Y140165D01*
X277783Y140965D01*
X138272Y222661D02*
X138672Y223061D01*
X139072D01*
X138672Y223461D01*
X139072Y223861D01*
X138672D01*
X138272Y224261D01*
X137872Y223861D01*
X137472D01*
X137872Y223461D01*
X137472Y223061D01*
X137872D01*
X138272Y222661D01*
X348646Y195999D02*
X349046Y196399D01*
X349446D01*
X349046Y196799D01*
X349446Y197199D01*
X349046D01*
X348646Y197599D01*
X348246Y197199D01*
X347846D01*
X348246Y196799D01*
X347846Y196399D01*
X348246D01*
X348646Y195999D01*
X246134Y216476D02*
X246534Y216876D01*
X246934D01*
X246534Y217276D01*
X246934Y217676D01*
X246534D01*
X246134Y218076D01*
X245734Y217676D01*
X245334D01*
X245734Y217276D01*
X245334Y216876D01*
X245734D01*
X246134Y216476D01*
X263394Y115854D02*
X263794Y116253D01*
X264194D01*
X263794Y116654D01*
X264194Y117053D01*
X263794D01*
X263394Y117454D01*
X262994Y117053D01*
X262594D01*
X262994Y116654D01*
X262594Y116253D01*
X262994D01*
X263394Y115854D01*
X312736Y47149D02*
X313136Y47549D01*
X313536D01*
X313136Y47949D01*
X313536Y48349D01*
X313136D01*
X312736Y48749D01*
X312336Y48349D01*
X311936D01*
X312336Y47949D01*
X311936Y47549D01*
X312336D01*
X312736Y47149D01*
X173933Y270078D02*
X174333Y270478D01*
X174733D01*
X174333Y270878D01*
X174733Y271278D01*
X174333D01*
X173933Y271678D01*
X173533Y271278D01*
X173133D01*
X173533Y270878D01*
X173133Y270478D01*
X173533D01*
X173933Y270078D01*
X245280Y268456D02*
X245679Y268856D01*
X246079D01*
X245679Y269256D01*
X246079Y269656D01*
X245679D01*
X245280Y270056D01*
X244880Y269656D01*
X244479D01*
X244880Y269256D01*
X244479Y268856D01*
X244880D01*
X245280Y268456D01*
X321122Y295629D02*
X321522Y296029D01*
X321922D01*
X321522Y296429D01*
X321922Y296829D01*
X321522D01*
X321122Y297229D01*
X320722Y296829D01*
X320322D01*
X320722Y296429D01*
X320322Y296029D01*
X320722D01*
X321122Y295629D01*
X278992Y97180D02*
X279392Y97580D01*
X279792D01*
X279392Y97980D01*
X279792Y98380D01*
X279392D01*
X278992Y98780D01*
X278592Y98380D01*
X278192D01*
X278592Y97980D01*
X278192Y97580D01*
X278592D01*
X278992Y97180D01*
X292004Y189161D02*
X292404Y189561D01*
X292804D01*
X292404Y189961D01*
X292804Y190361D01*
X292404D01*
X292004Y190761D01*
X291604Y190361D01*
X291204D01*
X291604Y189961D01*
X291204Y189561D01*
X291604D01*
X292004Y189161D01*
X218398Y153011D02*
X218798Y153411D01*
X219198D01*
X218798Y153811D01*
X219198Y154211D01*
X218798D01*
X218398Y154611D01*
X217998Y154211D01*
X217598D01*
X217998Y153811D01*
X217598Y153411D01*
X217998D01*
X218398Y153011D01*
X140563Y137275D02*
X140963Y137675D01*
X141363D01*
X140963Y138075D01*
X141363Y138475D01*
X140963D01*
X140563Y138875D01*
X140163Y138475D01*
X139763D01*
X140163Y138075D01*
X139763Y137675D01*
X140163D01*
X140563Y137275D01*
X92398Y173940D02*
X92798Y174340D01*
X93198D01*
X92798Y174740D01*
X93198Y175140D01*
X92798D01*
X92398Y175540D01*
X91998Y175140D01*
X91598D01*
X91998Y174740D01*
X91598Y174340D01*
X91998D01*
X92398Y173940D01*
X74594Y187106D02*
X74994Y187505D01*
X75394D01*
X74994Y187906D01*
X75394Y188305D01*
X74994D01*
X74594Y188706D01*
X74195Y188305D01*
X73795D01*
X74195Y187906D01*
X73795Y187505D01*
X74195D01*
X74594Y187106D01*
X153150Y329424D02*
X153550Y329824D01*
X153950D01*
X153550Y330224D01*
X153950Y330624D01*
X153550D01*
X153150Y331024D01*
X152750Y330624D01*
X152350D01*
X152750Y330224D01*
X152350Y329824D01*
X152750D01*
X153150Y329424D01*
X153091Y339212D02*
X153491Y339612D01*
X153891D01*
X153491Y340012D01*
X153891Y340412D01*
X153491D01*
X153091Y340812D01*
X152691Y340412D01*
X152291D01*
X152691Y340012D01*
X152291Y339612D01*
X152691D01*
X153091Y339212D01*
X257933Y359263D02*
X258333Y359663D01*
X258733D01*
X258333Y360063D01*
X258733Y360463D01*
X258333D01*
X257933Y360863D01*
X257533Y360463D01*
X257133D01*
X257533Y360063D01*
X257133Y359663D01*
X257533D01*
X257933Y359263D01*
X250567Y329802D02*
X250967Y330202D01*
X251367D01*
X250967Y330602D01*
X251367Y331002D01*
X250967D01*
X250567Y331402D01*
X250167Y331002D01*
X249767D01*
X250167Y330602D01*
X249767Y330202D01*
X250167D01*
X250567Y329802D01*
X263024Y328220D02*
X263424Y328620D01*
X263824D01*
X263424Y329020D01*
X263824Y329420D01*
X263424D01*
X263024Y329820D01*
X262624Y329420D01*
X262224D01*
X262624Y329020D01*
X262224Y328620D01*
X262624D01*
X263024Y328220D01*
X268146Y318672D02*
X268546Y319072D01*
X268946D01*
X268546Y319472D01*
X268946Y319872D01*
X268546D01*
X268146Y320272D01*
X267746Y319872D01*
X267346D01*
X267746Y319472D01*
X267346Y319072D01*
X267746D01*
X268146Y318672D01*
X302528Y296535D02*
X302928Y296935D01*
X303328D01*
X302928Y297335D01*
X303328Y297735D01*
X302928D01*
X302528Y298135D01*
X302128Y297735D01*
X301728D01*
X302128Y297335D01*
X301728Y296935D01*
X302128D01*
X302528Y296535D01*
X310791Y246798D02*
X311191Y247198D01*
X311591D01*
X311191Y247598D01*
X311591Y247998D01*
X311191D01*
X310791Y248398D01*
X310391Y247998D01*
X309991D01*
X310391Y247598D01*
X309991Y247198D01*
X310391D01*
X310791Y246798D01*
X111489Y310243D02*
X111889Y310643D01*
X112289D01*
X111889Y311043D01*
X112289Y311443D01*
X111889D01*
X111489Y311843D01*
X111089Y311443D01*
X110689D01*
X111089Y311043D01*
X110689Y310643D01*
X111089D01*
X111489Y310243D01*
X111606Y289987D02*
X112006Y290387D01*
X112406D01*
X112006Y290787D01*
X112406Y291187D01*
X112006D01*
X111606Y291587D01*
X111206Y291187D01*
X110806D01*
X111206Y290787D01*
X110806Y290387D01*
X111206D01*
X111606Y289987D01*
X111835Y268578D02*
X112235Y268978D01*
X112635D01*
X112235Y269378D01*
X112635Y269778D01*
X112235D01*
X111835Y270178D01*
X111435Y269778D01*
X111035D01*
X111435Y269378D01*
X111035Y268978D01*
X111435D01*
X111835Y268578D01*
X318098Y142936D02*
X318498Y143336D01*
X318898D01*
X318498Y143736D01*
X318898Y144136D01*
X318498D01*
X318098Y144536D01*
X317698Y144136D01*
X317298D01*
X317698Y143736D01*
X317298Y143336D01*
X317698D01*
X318098Y142936D01*
X139976Y101547D02*
X140376Y101946D01*
X140776D01*
X140376Y102347D01*
X140776Y102746D01*
X140376D01*
X139976Y103147D01*
X139576Y102746D01*
X139176D01*
X139576Y102347D01*
X139176Y101946D01*
X139576D01*
X139976Y101547D01*
X235635Y157851D02*
X236035Y158251D01*
X236435D01*
X236035Y158651D01*
X236435Y159051D01*
X236035D01*
X235635Y159451D01*
X235235Y159051D01*
X234835D01*
X235235Y158651D01*
X234835Y158251D01*
X235235D01*
X235635Y157851D01*
X244039Y165409D02*
X244439Y165809D01*
X244839D01*
X244439Y166209D01*
X244839Y166609D01*
X244439D01*
X244039Y167009D01*
X243639Y166609D01*
X243239D01*
X243639Y166209D01*
X243239Y165809D01*
X243639D01*
X244039Y165409D01*
X286130Y277704D02*
X286530Y278104D01*
X286930D01*
X286530Y278504D01*
X286930Y278904D01*
X286530D01*
X286130Y279304D01*
X285730Y278904D01*
X285330D01*
X285730Y278504D01*
X285330Y278104D01*
X285730D01*
X286130Y277704D01*
X99945Y244137D02*
X100345Y244537D01*
X100745D01*
X100345Y244937D01*
X100745Y245337D01*
X100345D01*
X99945Y245737D01*
X99545Y245337D01*
X99145D01*
X99545Y244937D01*
X99145Y244537D01*
X99545D01*
X99945Y244137D01*
X99921Y231472D02*
X100321Y231872D01*
X100721D01*
X100321Y232272D01*
X100721Y232672D01*
X100321D01*
X99921Y233072D01*
X99521Y232672D01*
X99121D01*
X99521Y232272D01*
X99121Y231872D01*
X99521D01*
X99921Y231472D01*
X99945Y216806D02*
X100345Y217206D01*
X100745D01*
X100345Y217606D01*
X100745Y218006D01*
X100345D01*
X99945Y218406D01*
X99545Y218006D01*
X99145D01*
X99545Y217606D01*
X99145Y217206D01*
X99545D01*
X99945Y216806D01*
X131689Y301645D02*
X132089Y302045D01*
X132489D01*
X132089Y302445D01*
X132489Y302845D01*
X132089D01*
X131689Y303245D01*
X131289Y302845D01*
X130889D01*
X131289Y302445D01*
X130889Y302045D01*
X131289D01*
X131689Y301645D01*
D118*
X374816Y374016D02*
G03*
X374816Y374016I-800J0D01*
G01*
X202757Y64417D02*
G03*
X202757Y64417I-800J0D01*
G01*
X20485Y19685D02*
G03*
X20485Y19685I-800J0D01*
G01*
Y374016D02*
G03*
X20485Y374016I-800J0D01*
G01*
X374816Y19685D02*
G03*
X374816Y19685I-800J0D01*
G01*
M02*
