G04*
G04 #@! TF.GenerationSoftware,Altium Limited,Altium Designer,22.9.1 (49)*
G04*
G04 Layer_Color=8388736*
%FSLAX25Y25*%
%MOIN*%
G70*
G04*
G04 #@! TF.SameCoordinates,F91FD0B8-2741-413C-87D7-DF85A8DA950D*
G04*
G04*
G04 #@! TF.FilePolarity,Negative*
G04*
G01*
G75*
%ADD16R,0.04724X0.07087*%
%ADD17R,0.07087X0.04724*%
G04:AMPARAMS|DCode=46|XSize=67.06mil|YSize=165.48mil|CornerRadius=18.76mil|HoleSize=0mil|Usage=FLASHONLY|Rotation=180.000|XOffset=0mil|YOffset=0mil|HoleType=Round|Shape=RoundedRectangle|*
%AMROUNDEDRECTD46*
21,1,0.06706,0.12795,0,0,180.0*
21,1,0.02953,0.16548,0,0,180.0*
1,1,0.03753,-0.01476,0.06398*
1,1,0.03753,0.01476,0.06398*
1,1,0.03753,0.01476,-0.06398*
1,1,0.03753,-0.01476,-0.06398*
%
%ADD46ROUNDEDRECTD46*%
%ADD47R,0.05118X0.07480*%
%ADD48R,0.07480X0.05118*%
%ADD49R,0.07099X0.09383*%
%ADD50R,0.03543X0.05906*%
%ADD51R,0.04540X0.03162*%
%ADD52R,0.03162X0.04540*%
%ADD53R,0.04724X0.03543*%
%ADD54R,0.10236X0.07480*%
%ADD55R,0.05906X0.03543*%
%ADD56R,0.02362X0.06299*%
%ADD57R,0.02769X0.02178*%
%ADD58R,0.06299X0.02362*%
%ADD59R,0.07480X0.10236*%
%ADD60R,0.07099X0.03556*%
%ADD61R,0.08674X0.04343*%
%ADD62R,0.06036X0.06036*%
%ADD63R,0.04343X0.08674*%
G04:AMPARAMS|DCode=64|XSize=248.16mil|YSize=229.65mil|CornerRadius=31.71mil|HoleSize=0mil|Usage=FLASHONLY|Rotation=270.000|XOffset=0mil|YOffset=0mil|HoleType=Round|Shape=RoundedRectangle|*
%AMROUNDEDRECTD64*
21,1,0.24816,0.16624,0,0,270.0*
21,1,0.18474,0.22965,0,0,270.0*
1,1,0.06341,-0.08312,-0.09237*
1,1,0.06341,-0.08312,0.09237*
1,1,0.06341,0.08312,0.09237*
1,1,0.06341,0.08312,-0.09237*
%
%ADD64ROUNDEDRECTD64*%
G04:AMPARAMS|DCode=65|XSize=119.42mil|YSize=56.03mil|CornerRadius=10mil|HoleSize=0mil|Usage=FLASHONLY|Rotation=270.000|XOffset=0mil|YOffset=0mil|HoleType=Round|Shape=RoundedRectangle|*
%AMROUNDEDRECTD65*
21,1,0.11942,0.03602,0,0,270.0*
21,1,0.09941,0.05603,0,0,270.0*
1,1,0.02001,-0.01801,-0.04970*
1,1,0.02001,-0.01801,0.04970*
1,1,0.02001,0.01801,0.04970*
1,1,0.02001,0.01801,-0.04970*
%
%ADD65ROUNDEDRECTD65*%
%ADD66R,0.08950X0.14619*%
%ADD67R,0.43477X0.30800*%
G04:AMPARAMS|DCode=68|XSize=157.21mil|YSize=46.98mil|CornerRadius=8.87mil|HoleSize=0mil|Usage=FLASHONLY|Rotation=90.000|XOffset=0mil|YOffset=0mil|HoleType=Round|Shape=RoundedRectangle|*
%AMROUNDEDRECTD68*
21,1,0.15721,0.02923,0,0,90.0*
21,1,0.13947,0.04698,0,0,90.0*
1,1,0.01774,0.01462,0.06973*
1,1,0.01774,0.01462,-0.06973*
1,1,0.01774,-0.01462,-0.06973*
1,1,0.01774,-0.01462,0.06973*
%
%ADD68ROUNDEDRECTD68*%
%ADD69R,0.18517X0.08674*%
%ADD70R,0.08674X0.08674*%
G04:AMPARAMS|DCode=71|XSize=67.06mil|YSize=165.48mil|CornerRadius=18.76mil|HoleSize=0mil|Usage=FLASHONLY|Rotation=90.000|XOffset=0mil|YOffset=0mil|HoleType=Round|Shape=RoundedRectangle|*
%AMROUNDEDRECTD71*
21,1,0.06706,0.12795,0,0,90.0*
21,1,0.02953,0.16548,0,0,90.0*
1,1,0.03753,0.06398,0.01476*
1,1,0.03753,0.06398,-0.01476*
1,1,0.03753,-0.06398,-0.01476*
1,1,0.03753,-0.06398,0.01476*
%
%ADD71ROUNDEDRECTD71*%
G04:AMPARAMS|DCode=72|XSize=82.8mil|YSize=140.68mil|CornerRadius=6.62mil|HoleSize=0mil|Usage=FLASHONLY|Rotation=90.000|XOffset=0mil|YOffset=0mil|HoleType=Round|Shape=RoundedRectangle|*
%AMROUNDEDRECTD72*
21,1,0.08280,0.12744,0,0,90.0*
21,1,0.06957,0.14068,0,0,90.0*
1,1,0.01324,0.06372,0.03478*
1,1,0.01324,0.06372,-0.03478*
1,1,0.01324,-0.06372,-0.03478*
1,1,0.01324,-0.06372,0.03478*
%
%ADD72ROUNDEDRECTD72*%
G04:AMPARAMS|DCode=73|XSize=82.8mil|YSize=140.68mil|CornerRadius=6.62mil|HoleSize=0mil|Usage=FLASHONLY|Rotation=0.000|XOffset=0mil|YOffset=0mil|HoleType=Round|Shape=RoundedRectangle|*
%AMROUNDEDRECTD73*
21,1,0.08280,0.12744,0,0,0.0*
21,1,0.06957,0.14068,0,0,0.0*
1,1,0.01324,0.03478,-0.06372*
1,1,0.01324,-0.03478,-0.06372*
1,1,0.01324,-0.03478,0.06372*
1,1,0.01324,0.03478,0.06372*
%
%ADD73ROUNDEDRECTD73*%
%ADD74R,0.09252X0.08268*%
%ADD75R,0.04331X0.08268*%
%ADD76R,0.03241X0.04501*%
%ADD77C,0.08268*%
%ADD78R,0.06706X0.06706*%
%ADD79C,0.06706*%
%ADD80C,0.02375*%
%ADD81O,0.20485X0.12611*%
%ADD82O,0.18517X0.16548*%
%ADD83C,0.01981*%
%ADD84C,0.06312*%
%ADD85C,0.24422*%
%ADD86C,0.08674*%
%ADD87C,0.04737*%
%ADD88C,0.12611*%
%ADD89C,0.10642*%
G36*
X358756Y134882D02*
X360522D01*
Y131342D01*
X358756D01*
Y125236D01*
X360525D01*
Y121689D01*
X358756D01*
Y120899D01*
X340634D01*
Y121688D01*
X338862D01*
Y125236D01*
X340634D01*
Y131340D01*
X338862D01*
Y134882D01*
X340634D01*
Y136850D01*
X358756D01*
Y134882D01*
D02*
G37*
D16*
X57598Y371083D02*
D03*
X67047D02*
D03*
D17*
X224780Y257598D02*
D03*
Y267047D02*
D03*
X213917Y257689D02*
D03*
Y267138D02*
D03*
X350453Y96358D02*
D03*
Y86910D02*
D03*
X303709Y96354D02*
D03*
Y86905D02*
D03*
X380559Y39630D02*
D03*
Y49079D02*
D03*
X147209Y46000D02*
D03*
Y55449D02*
D03*
D46*
X303512Y33492D02*
D03*
X335697D02*
D03*
X327941D02*
D03*
X320028D02*
D03*
X311799D02*
D03*
X345776Y8098D02*
D03*
X294102D02*
D03*
X305433Y359846D02*
D03*
X313189D02*
D03*
X321102D02*
D03*
X329331D02*
D03*
X295354Y385240D02*
D03*
X337913Y385043D02*
D03*
D47*
X311260Y281787D02*
D03*
X301811D02*
D03*
X301748Y271284D02*
D03*
X292299D02*
D03*
X270220Y165075D02*
D03*
X260772D02*
D03*
X369508Y39618D02*
D03*
X360059D02*
D03*
X193835Y17500D02*
D03*
X203283D02*
D03*
X70909Y282260D02*
D03*
X80358D02*
D03*
X85728Y371248D02*
D03*
X76279D02*
D03*
X115736Y345563D02*
D03*
X106287D02*
D03*
D48*
X278941Y287968D02*
D03*
Y297417D02*
D03*
X224685Y284083D02*
D03*
Y274634D02*
D03*
X214008Y284177D02*
D03*
Y274728D02*
D03*
X310606Y218563D02*
D03*
Y209114D02*
D03*
X310622Y239815D02*
D03*
Y230366D02*
D03*
X331933Y96280D02*
D03*
Y86831D02*
D03*
X341090Y86843D02*
D03*
Y96291D02*
D03*
X322543Y96280D02*
D03*
Y86831D02*
D03*
X313090Y96256D02*
D03*
Y86807D02*
D03*
X252524Y232350D02*
D03*
Y241799D02*
D03*
X155980Y110685D02*
D03*
Y120134D02*
D03*
X147221Y64728D02*
D03*
Y74177D02*
D03*
X154469Y284390D02*
D03*
Y274941D02*
D03*
X144504Y284303D02*
D03*
Y274854D02*
D03*
X135244Y284213D02*
D03*
Y274764D02*
D03*
X151665Y321949D02*
D03*
Y312500D02*
D03*
X160630Y312539D02*
D03*
Y321988D02*
D03*
X59709Y281264D02*
D03*
Y290713D02*
D03*
X289201Y139488D02*
D03*
Y148937D02*
D03*
D49*
X263898Y259134D02*
D03*
Y295354D02*
D03*
X369646Y93768D02*
D03*
Y57547D02*
D03*
X138784Y312150D02*
D03*
Y348370D02*
D03*
D50*
X262653Y139764D02*
D03*
X256354D02*
D03*
X278437Y135512D02*
D03*
X272138D02*
D03*
X193472Y114138D02*
D03*
X199772D02*
D03*
X193378Y103996D02*
D03*
X199677D02*
D03*
X146118Y221252D02*
D03*
X152417D02*
D03*
X92067Y281492D02*
D03*
X98366D02*
D03*
D51*
X272087Y151906D02*
D03*
X256339D02*
D03*
X145461Y245185D02*
D03*
Y240264D02*
D03*
Y235343D02*
D03*
Y230421D02*
D03*
X153335D02*
D03*
Y235343D02*
D03*
Y240264D02*
D03*
Y245185D02*
D03*
D52*
X256339Y147968D02*
D03*
X259488D02*
D03*
X262638D02*
D03*
X265787D02*
D03*
X268937D02*
D03*
X272087D02*
D03*
Y155842D02*
D03*
X268937D02*
D03*
X265787D02*
D03*
X262638D02*
D03*
X259488D02*
D03*
X256339D02*
D03*
D53*
X327819Y227016D02*
D03*
X320339Y223276D02*
D03*
Y230756D02*
D03*
D54*
X318181Y159583D02*
D03*
Y176906D02*
D03*
D55*
X355720Y57717D02*
D03*
Y64016D02*
D03*
X346744Y44417D02*
D03*
Y50717D02*
D03*
X227858Y233035D02*
D03*
Y239335D02*
D03*
X227811Y226067D02*
D03*
Y219768D02*
D03*
X236854Y207559D02*
D03*
Y213858D02*
D03*
X146000Y110634D02*
D03*
Y116933D02*
D03*
X136126Y110591D02*
D03*
Y116890D02*
D03*
X137016Y245256D02*
D03*
Y251555D02*
D03*
X136779Y236858D02*
D03*
Y230559D02*
D03*
X125543Y347087D02*
D03*
Y340787D02*
D03*
X157866Y358106D02*
D03*
Y364405D02*
D03*
X147736Y358146D02*
D03*
Y364445D02*
D03*
X249429Y291598D02*
D03*
Y297898D02*
D03*
D56*
X339472Y72760D02*
D03*
X334472D02*
D03*
X329472D02*
D03*
X324472D02*
D03*
Y51106D02*
D03*
X329472D02*
D03*
X334472D02*
D03*
X339472D02*
D03*
D57*
X243606Y230126D02*
D03*
X237307D02*
D03*
Y227567D02*
D03*
Y232685D02*
D03*
X243606D02*
D03*
X237307Y225008D02*
D03*
X243606Y227567D02*
D03*
Y225008D02*
D03*
D58*
X214906Y200988D02*
D03*
Y195988D02*
D03*
Y190988D02*
D03*
Y185988D02*
D03*
X236559D02*
D03*
Y190988D02*
D03*
Y195988D02*
D03*
Y200988D02*
D03*
D59*
X184476Y115559D02*
D03*
X167154D02*
D03*
D60*
X143409Y300795D02*
D03*
Y296661D02*
D03*
Y292527D02*
D03*
X155220Y300795D02*
D03*
Y296661D02*
D03*
Y292527D02*
D03*
D61*
X170636Y337795D02*
D03*
X237565Y362795D02*
D03*
Y357795D02*
D03*
Y352795D02*
D03*
Y347795D02*
D03*
Y342795D02*
D03*
Y337795D02*
D03*
Y332795D02*
D03*
Y327795D02*
D03*
Y322795D02*
D03*
Y317795D02*
D03*
Y312795D02*
D03*
Y307795D02*
D03*
Y302795D02*
D03*
Y297795D02*
D03*
X170636D02*
D03*
Y302795D02*
D03*
Y307795D02*
D03*
Y312795D02*
D03*
Y317795D02*
D03*
Y322795D02*
D03*
Y327795D02*
D03*
Y332795D02*
D03*
Y342795D02*
D03*
Y347795D02*
D03*
Y352795D02*
D03*
Y357795D02*
D03*
Y362795D02*
D03*
D62*
X207388Y326043D02*
D03*
X200163D02*
D03*
X192939D02*
D03*
X207388Y333268D02*
D03*
X200163D02*
D03*
X192939D02*
D03*
X207388Y340492D02*
D03*
X200163D02*
D03*
X192939D02*
D03*
D63*
X226600Y293858D02*
D03*
X221600D02*
D03*
X216600D02*
D03*
X211600D02*
D03*
X206600D02*
D03*
X201600D02*
D03*
X196600D02*
D03*
X191600D02*
D03*
X186600D02*
D03*
X181600D02*
D03*
D64*
X75394Y225650D02*
D03*
D65*
X66378Y251831D02*
D03*
X84409D02*
D03*
D66*
X58984Y268669D02*
D03*
X78441D02*
D03*
D67*
X80661Y339697D02*
D03*
D68*
X90661Y296862D02*
D03*
X80661D02*
D03*
X70661D02*
D03*
D69*
X115551Y115161D02*
D03*
D70*
X110630Y101185D02*
D03*
D71*
X41581Y53480D02*
D03*
Y61236D02*
D03*
Y69150D02*
D03*
Y77378D02*
D03*
X16187Y43402D02*
D03*
X16384Y85961D02*
D03*
D72*
X293595Y335669D02*
D03*
Y356614D02*
D03*
X322866Y255323D02*
D03*
Y276268D02*
D03*
X266634Y210780D02*
D03*
Y231724D02*
D03*
D73*
X183622Y244795D02*
D03*
X204567D02*
D03*
D74*
X225709Y32953D02*
D03*
D75*
X213268Y92205D02*
D03*
X203268D02*
D03*
X193268D02*
D03*
X183268D02*
D03*
X173268D02*
D03*
Y32953D02*
D03*
X183268D02*
D03*
X193268D02*
D03*
X203268D02*
D03*
X213268D02*
D03*
X223268Y92205D02*
D03*
D76*
X342189Y136476D02*
D03*
X347189D02*
D03*
X352189D02*
D03*
X357189D02*
D03*
X342189Y115571D02*
D03*
X347189D02*
D03*
X352189D02*
D03*
X357189D02*
D03*
D77*
X45205Y103390D02*
D03*
Y24650D02*
D03*
X355382Y217142D02*
D03*
Y236827D02*
D03*
X165173Y195634D02*
D03*
X155173D02*
D03*
X145173D02*
D03*
X135173D02*
D03*
X125173D02*
D03*
D78*
X154413Y26055D02*
D03*
D79*
X144413D02*
D03*
X134413D02*
D03*
X124413D02*
D03*
X114413D02*
D03*
X104413D02*
D03*
D80*
X203776Y326043D02*
D03*
X196551D02*
D03*
X207388Y329656D02*
D03*
X200163D02*
D03*
X192939D02*
D03*
X203776Y333268D02*
D03*
X196551D02*
D03*
X207388Y336880D02*
D03*
X200163D02*
D03*
X192939D02*
D03*
X203776Y340492D02*
D03*
X196551D02*
D03*
X59728Y294236D02*
D03*
X373780Y364898D02*
D03*
X365079Y373839D02*
D03*
X374079Y382720D02*
D03*
X382953Y374193D02*
D03*
Y19862D02*
D03*
X28622Y374193D02*
D03*
X374079Y28390D02*
D03*
X365079Y19508D02*
D03*
X373780Y10567D02*
D03*
X19748Y382720D02*
D03*
X10748Y373839D02*
D03*
X19449Y364898D02*
D03*
Y10567D02*
D03*
X10748Y19508D02*
D03*
X19748Y28390D02*
D03*
X28390Y19626D02*
D03*
D81*
X42347Y159354D02*
D03*
X42189Y139630D02*
D03*
X42339Y222228D02*
D03*
X42496Y241953D02*
D03*
X42260Y304681D02*
D03*
X42417Y324406D02*
D03*
D82*
X340090Y298843D02*
D03*
X359776Y299039D02*
D03*
Y280142D02*
D03*
X340484Y280535D02*
D03*
X359413Y157539D02*
D03*
X339728Y157343D02*
D03*
Y176240D02*
D03*
X359020Y175847D02*
D03*
D83*
X354181Y49091D02*
D03*
X354276Y52791D02*
D03*
X351146Y50417D02*
D03*
X264213Y143142D02*
D03*
X266965Y140284D02*
D03*
X261496Y140272D02*
D03*
X290020Y31421D02*
D03*
X259846D02*
D03*
X141252Y218882D02*
D03*
X142098Y251724D02*
D03*
X139996Y248772D02*
D03*
X171555Y212516D02*
D03*
X28976Y118205D02*
D03*
X164319Y62590D02*
D03*
X182559Y63106D02*
D03*
X97016Y56941D02*
D03*
X234756Y288276D02*
D03*
X365543Y220595D02*
D03*
X365882Y207602D02*
D03*
X392224Y299205D02*
D03*
X391701Y279693D02*
D03*
X277035Y107839D02*
D03*
X264653Y96531D02*
D03*
X288342Y89264D02*
D03*
X306913Y105413D02*
D03*
X312299Y115106D02*
D03*
X291032Y114839D02*
D03*
X41024Y201969D02*
D03*
X39453Y173736D02*
D03*
X67425Y204193D02*
D03*
X52524Y189945D02*
D03*
X161661Y275177D02*
D03*
X165032Y290646D02*
D03*
X174232Y284543D02*
D03*
X185630Y284594D02*
D03*
X281854Y261496D02*
D03*
X271614Y251413D02*
D03*
X262390Y243441D02*
D03*
X227681Y244847D02*
D03*
X235264Y239453D02*
D03*
X220646Y239374D02*
D03*
X233858Y270173D02*
D03*
X257386Y269705D02*
D03*
X245740Y261421D02*
D03*
X252461Y255008D02*
D03*
X238079Y250476D02*
D03*
X236126Y260012D02*
D03*
X141488Y126020D02*
D03*
X117402Y127681D02*
D03*
X129740Y130768D02*
D03*
X122504Y137768D02*
D03*
X133689Y147079D02*
D03*
X91484Y31496D02*
D03*
X84016Y39898D02*
D03*
Y62295D02*
D03*
X116213Y73961D02*
D03*
X3213Y362642D02*
D03*
X21724Y340039D02*
D03*
X44969Y358551D02*
D03*
X27965Y357689D02*
D03*
X35067Y344776D02*
D03*
X122653Y302764D02*
D03*
X132429Y320917D02*
D03*
X141831D02*
D03*
X122653D02*
D03*
X158579Y250902D02*
D03*
X171721Y225480D02*
D03*
X171343Y240185D02*
D03*
X296153Y205224D02*
D03*
X283787Y227850D02*
D03*
X292681Y236744D02*
D03*
X295890Y222854D02*
D03*
X288142Y213504D02*
D03*
X265165Y199878D02*
D03*
X282736Y178150D02*
D03*
X301949Y172661D02*
D03*
X294996Y144118D02*
D03*
X281638Y156925D02*
D03*
X268831Y165709D02*
D03*
X269012Y176323D02*
D03*
X292433Y163878D02*
D03*
X300665Y91240D02*
D03*
X301217Y68366D02*
D03*
X218000Y63465D02*
D03*
X243937Y31539D02*
D03*
X244740Y63839D02*
D03*
X269272Y64441D02*
D03*
X273520Y31776D02*
D03*
X228768Y26449D02*
D03*
X222634Y26457D02*
D03*
X225709Y24563D02*
D03*
X198059Y92378D02*
D03*
X208024D02*
D03*
X204445Y114457D02*
D03*
X206232Y102047D02*
D03*
X205516Y106642D02*
D03*
X203665Y104134D02*
D03*
X139803Y254339D02*
D03*
X160843Y372146D02*
D03*
X155583D02*
D03*
X149949Y371713D02*
D03*
X144634Y371850D02*
D03*
X157823Y368953D02*
D03*
X147669D02*
D03*
X367905Y1886D02*
D03*
X308480Y1689D02*
D03*
X280842D02*
D03*
X263016D02*
D03*
X228213Y1705D02*
D03*
X210008Y1874D02*
D03*
X4303Y215051D02*
D03*
X3827Y239472D02*
D03*
X390724Y168189D02*
D03*
X258236Y369961D02*
D03*
X281319Y369685D02*
D03*
X339512Y366161D02*
D03*
X299000Y367681D02*
D03*
X316752Y372031D02*
D03*
X388874Y331748D02*
D03*
X373185Y346917D02*
D03*
X355716Y356539D02*
D03*
X354701Y382618D02*
D03*
X344020Y383035D02*
D03*
X318244Y382618D02*
D03*
X280787Y387677D02*
D03*
X258161Y387374D02*
D03*
X391657Y263547D02*
D03*
Y247783D02*
D03*
X391445Y230957D02*
D03*
X391161Y212213D02*
D03*
X390591Y190201D02*
D03*
X390335Y133035D02*
D03*
X390819Y109713D02*
D03*
X390614Y86232D02*
D03*
X390535Y59850D02*
D03*
X390213Y39051D02*
D03*
X52276Y61319D02*
D03*
X4209Y97693D02*
D03*
X4303Y129402D02*
D03*
X4339Y155354D02*
D03*
X4654Y175169D02*
D03*
X4303Y192433D02*
D03*
Y262280D02*
D03*
X5713Y283563D02*
D03*
X6780Y302760D02*
D03*
X6071Y324236D02*
D03*
X6055Y345165D02*
D03*
X93327Y2374D02*
D03*
X186917Y1791D02*
D03*
X67532Y2772D02*
D03*
X30476Y2626D02*
D03*
X157224Y2173D02*
D03*
X126567Y2276D02*
D03*
X26874Y76587D02*
D03*
X20165Y53614D02*
D03*
X5075Y64153D02*
D03*
X84071Y110508D02*
D03*
X85028Y124752D02*
D03*
X95362Y135087D02*
D03*
X105004Y145902D02*
D03*
X128898Y169772D02*
D03*
X136736Y177465D02*
D03*
X145031Y185531D02*
D03*
X133228Y226307D02*
D03*
X154445Y267917D02*
D03*
X144244D02*
D03*
X128213Y334221D02*
D03*
X122634D02*
D03*
X125465Y335831D02*
D03*
X67402Y151618D02*
D03*
X62468Y144673D02*
D03*
X57902Y134260D02*
D03*
X57721Y122382D02*
D03*
Y111421D02*
D03*
X84760Y168063D02*
D03*
X99378Y182862D02*
D03*
X104858Y188342D02*
D03*
X111071Y195835D02*
D03*
X117283Y203508D02*
D03*
X123681Y210268D02*
D03*
X49862Y269626D02*
D03*
X52157Y274590D02*
D03*
Y264799D02*
D03*
X51559Y368311D02*
D03*
X51268Y373823D02*
D03*
X48370Y370850D02*
D03*
X111665Y300716D02*
D03*
X111835Y279795D02*
D03*
X382953Y374193D02*
D03*
X374079Y382720D02*
D03*
X365079Y373839D02*
D03*
X373780Y364898D02*
D03*
X281413Y142661D02*
D03*
X278669Y143925D02*
D03*
X278583Y140965D02*
D03*
D84*
X321126Y39760D02*
D03*
D85*
X374016Y374016D02*
D03*
X19685Y19685D02*
D03*
Y374016D02*
D03*
X374016Y19685D02*
D03*
D86*
X250362Y4417D02*
D03*
X348646Y196799D02*
D03*
X246134Y217276D02*
D03*
X263394Y116654D02*
D03*
X312736Y47949D02*
D03*
X173933Y270878D02*
D03*
X245280Y269256D02*
D03*
X321122Y296429D02*
D03*
X278992Y97980D02*
D03*
X292004Y189961D02*
D03*
X218398Y153811D02*
D03*
X140563Y138075D02*
D03*
X92398Y174740D02*
D03*
X74594Y187906D02*
D03*
X153150Y330224D02*
D03*
X153091Y340012D02*
D03*
X257933Y360063D02*
D03*
X250567Y330602D02*
D03*
X263024Y329020D02*
D03*
X268146Y319472D02*
D03*
X310791Y247598D02*
D03*
X111489Y311043D02*
D03*
X111606Y290787D02*
D03*
X111835Y269378D02*
D03*
X318098Y143736D02*
D03*
X139976Y102347D02*
D03*
X286130Y278504D02*
D03*
X99945Y244937D02*
D03*
X99921Y232272D02*
D03*
X99945Y217606D02*
D03*
X131689Y302445D02*
D03*
D87*
X138272Y223461D02*
D03*
D88*
X201957Y64417D02*
D03*
X302528Y297335D02*
D03*
D89*
X235635Y158651D02*
D03*
X244039Y166209D02*
D03*
M02*
