G04*
G04 #@! TF.GenerationSoftware,Altium Limited,Altium Designer,22.9.1 (49)*
G04*
G04 Layer_Physical_Order=2*
G04 Layer_Color=16711680*
%FSLAX25Y25*%
%MOIN*%
G70*
G04*
G04 #@! TF.SameCoordinates,F91FD0B8-2741-413C-87D7-DF85A8DA950D*
G04*
G04*
G04 #@! TF.FilePolarity,Positive*
G04*
G01*
G75*
%ADD92C,0.03150*%
%ADD96C,0.03937*%
%ADD98C,0.05906*%
%ADD100C,0.07874*%
%ADD102C,0.07874*%
%ADD103R,0.05906X0.05906*%
%ADD104C,0.05906*%
%ADD105C,0.01575*%
%ADD106O,0.19685X0.11811*%
%ADD107O,0.17717X0.15748*%
%ADD108C,0.01181*%
%ADD109C,0.05512*%
%ADD110C,0.23622*%
%ADD111C,0.03937*%
%ADD112C,0.11811*%
%ADD113C,0.09843*%
G04:AMPARAMS|DCode=114|XSize=74.8mil|YSize=132.68mil|CornerRadius=2.62mil|HoleSize=0mil|Usage=FLASHONLY|Rotation=45.000|XOffset=0mil|YOffset=0mil|HoleType=Round|Shape=RoundedRectangle|*
%AMROUNDEDRECTD114*
21,1,0.07480,0.12744,0,0,45.0*
21,1,0.06957,0.13268,0,0,45.0*
1,1,0.00524,0.06965,-0.02046*
1,1,0.00524,0.02046,-0.06965*
1,1,0.00524,-0.06965,0.02046*
1,1,0.00524,-0.02046,0.06965*
%
%ADD114ROUNDEDRECTD114*%
G36*
X18768Y393394D02*
X167173D01*
Y367929D01*
X167654Y367448D01*
X167725Y367090D01*
X167946Y366759D01*
X168277Y366538D01*
X168667Y366461D01*
X239533D01*
X239924Y366538D01*
X239931Y366543D01*
X240563D01*
Y367083D01*
X244598Y371118D01*
Y393394D01*
X375969D01*
X393488Y375874D01*
X393339Y375724D01*
Y18488D01*
X374969Y118D01*
X374874Y213D01*
X19126D01*
Y354D01*
X236Y19244D01*
X520Y19528D01*
Y375366D01*
X524Y375394D01*
X18646Y393516D01*
X18768Y393394D01*
D02*
G37*
%LPC*%
G36*
X375024Y386827D02*
X373007D01*
X371016Y386511D01*
X369098Y385888D01*
X367301Y384973D01*
X365670Y383787D01*
X364244Y382362D01*
X363059Y380730D01*
X362143Y378934D01*
X361520Y377016D01*
X361205Y375024D01*
Y373007D01*
X361520Y371016D01*
X362143Y369098D01*
X363059Y367301D01*
X364244Y365670D01*
X365670Y364244D01*
X367301Y363059D01*
X369098Y362143D01*
X371016Y361520D01*
X373007Y361205D01*
X375024D01*
X377016Y361520D01*
X378934Y362143D01*
X380730Y363059D01*
X382362Y364244D01*
X383787Y365670D01*
X384973Y367301D01*
X385888Y369098D01*
X386511Y371016D01*
X386827Y373007D01*
Y375024D01*
X386511Y377016D01*
X385888Y378934D01*
X384973Y380730D01*
X383787Y382362D01*
X382362Y383787D01*
X380730Y384973D01*
X378934Y385888D01*
X377016Y386511D01*
X375024Y386827D01*
D02*
G37*
G36*
X20693D02*
X18677D01*
X16685Y386511D01*
X14767Y385888D01*
X12971Y384973D01*
X11339Y383787D01*
X9913Y382362D01*
X8728Y380730D01*
X7813Y378934D01*
X7190Y377016D01*
X6874Y375024D01*
Y373007D01*
X7190Y371016D01*
X7813Y369098D01*
X8728Y367301D01*
X9913Y365670D01*
X11339Y364244D01*
X12971Y363059D01*
X14767Y362143D01*
X16685Y361520D01*
X18677Y361205D01*
X20693D01*
X22685Y361520D01*
X24603Y362143D01*
X26399Y363059D01*
X28031Y364244D01*
X29457Y365670D01*
X30642Y367301D01*
X31558Y369098D01*
X32181Y371016D01*
X32496Y373007D01*
Y375024D01*
X32181Y377016D01*
X31558Y378934D01*
X30642Y380730D01*
X29457Y382362D01*
X28031Y383787D01*
X26399Y384973D01*
X24603Y385888D01*
X22685Y386511D01*
X20693Y386827D01*
D02*
G37*
G36*
X258583Y365000D02*
X257283D01*
X256028Y364664D01*
X254902Y364014D01*
X253982Y363094D01*
X253332Y361969D01*
X252996Y360713D01*
Y359413D01*
X253332Y358157D01*
X253982Y357032D01*
X254902Y356112D01*
X256028Y355462D01*
X257283Y355126D01*
X257411D01*
X257695Y355078D01*
X258125Y354981D01*
X258535Y354862D01*
X258701Y354802D01*
X274333Y339170D01*
X274142Y338708D01*
X256807D01*
X255985Y338600D01*
X255219Y338283D01*
X254561Y337778D01*
X252089Y335306D01*
X251217Y335539D01*
X249917D01*
X248661Y335203D01*
X247535Y334553D01*
X246616Y333634D01*
X245966Y332508D01*
X245630Y331252D01*
Y329952D01*
X245966Y328697D01*
X246616Y327571D01*
X247535Y326652D01*
X248661Y326002D01*
X249917Y325665D01*
X251217D01*
X252472Y326002D01*
X253598Y326652D01*
X254518Y327571D01*
X255168Y328697D01*
X255437Y329701D01*
X256304Y330568D01*
X256444Y330676D01*
X258123Y332355D01*
X258710D01*
X258960Y331855D01*
X258423Y330925D01*
X258087Y329670D01*
Y328370D01*
X258423Y327114D01*
X259073Y325988D01*
X259992Y325069D01*
X261118Y324419D01*
X262374Y324083D01*
X263674D01*
X264929Y324419D01*
X266055Y325069D01*
X266974Y325988D01*
X267546Y326978D01*
X268015Y327172D01*
X268509Y327552D01*
X271079D01*
X271270Y327090D01*
X268914Y324733D01*
X268747Y324673D01*
X268338Y324555D01*
X267907Y324457D01*
X267624Y324410D01*
X267496D01*
X266240Y324073D01*
X265114Y323423D01*
X264195Y322504D01*
X263545Y321378D01*
X263209Y320122D01*
Y318823D01*
X263545Y317567D01*
X264195Y316441D01*
X265114Y315522D01*
X266240Y314872D01*
X267496Y314535D01*
X268796D01*
X270051Y314872D01*
X271177Y315522D01*
X272096Y316441D01*
X272746Y317567D01*
X273083Y318823D01*
Y318951D01*
X273130Y319234D01*
X273228Y319664D01*
X273347Y320074D01*
X273407Y320241D01*
X276040Y322874D01*
X358688D01*
X369457Y312105D01*
Y302980D01*
X369258Y302801D01*
X368766Y302886D01*
X368174Y303993D01*
X367065Y305345D01*
X365714Y306453D01*
X364172Y307278D01*
X362499Y307785D01*
X360760Y307956D01*
X358791D01*
X357052Y307785D01*
X355379Y307278D01*
X353837Y306453D01*
X352486Y305345D01*
X351377Y303993D01*
X350553Y302452D01*
X350165Y301170D01*
X349642D01*
X349313Y302255D01*
X348489Y303797D01*
X347380Y305148D01*
X346029Y306257D01*
X344487Y307081D01*
X342814Y307588D01*
X341075Y307759D01*
X339106D01*
X337367Y307588D01*
X335694Y307081D01*
X334152Y306257D01*
X332801Y305148D01*
X331692Y303797D01*
X330868Y302255D01*
X330361Y300582D01*
X330189Y298843D01*
X330361Y297103D01*
X330868Y295430D01*
X331692Y293888D01*
X332801Y292537D01*
X334152Y291428D01*
X335694Y290604D01*
X337367Y290097D01*
X339106Y289926D01*
X341075D01*
X342814Y290097D01*
X344487Y290604D01*
X346029Y291428D01*
X347380Y292537D01*
X348489Y293888D01*
X349313Y295430D01*
X349702Y296711D01*
X350224D01*
X350553Y295627D01*
X351377Y294085D01*
X352486Y292734D01*
X353837Y291625D01*
X355379Y290801D01*
X355710Y290701D01*
X355636Y290201D01*
X354146D01*
X353755Y290123D01*
X353425Y289902D01*
X350425Y286902D01*
X350204Y286571D01*
X350126Y286181D01*
Y282146D01*
X350046Y281881D01*
X349874Y280142D01*
X350046Y278402D01*
X350126Y278137D01*
Y260155D01*
X334745Y244773D01*
X334644Y244622D01*
X334564Y244511D01*
X334318Y244347D01*
X309185Y219213D01*
X308963Y218882D01*
X308886Y218492D01*
Y149623D01*
X307263Y148001D01*
X297148Y137886D01*
X205966D01*
X178615Y165237D01*
X178284Y165458D01*
X177894Y165535D01*
X49369D01*
X48939Y165765D01*
X47637Y166160D01*
X46284Y166293D01*
X38409D01*
X37056Y166160D01*
X35754Y165765D01*
X34554Y165124D01*
X33503Y164261D01*
X32640Y163209D01*
X31999Y162010D01*
X31604Y160708D01*
X31471Y159354D01*
X31604Y158001D01*
X31999Y156699D01*
X32640Y155499D01*
X33503Y154448D01*
X34554Y153585D01*
X35754Y152944D01*
X37056Y152549D01*
X38409Y152415D01*
X46284D01*
X47637Y152549D01*
X48939Y152944D01*
X49177Y153071D01*
X130779D01*
X142096Y141753D01*
X142207Y141679D01*
X142307Y141591D01*
X142968Y141209D01*
X143698Y140480D01*
X144079Y139819D01*
X144167Y139719D01*
X144241Y139608D01*
X163118Y120732D01*
X163448Y120511D01*
X163839Y120433D01*
X262229D01*
X262360Y120459D01*
X262493Y120468D01*
X262878Y120571D01*
X263909D01*
X264294Y120468D01*
X264427Y120459D01*
X264558Y120433D01*
X307051D01*
X307441Y120511D01*
X307772Y120732D01*
X324458Y137417D01*
X324709D01*
X325099Y137495D01*
X325430Y137716D01*
X325651Y138047D01*
X325728Y138437D01*
Y196885D01*
X358162Y229319D01*
X364201D01*
X364591Y229397D01*
X364922Y229618D01*
X365143Y229948D01*
X365220Y230339D01*
Y241595D01*
X365184Y241775D01*
X365220Y241926D01*
X365217Y241943D01*
X365220Y241961D01*
Y270660D01*
X368957Y274397D01*
X369457Y274208D01*
Y159967D01*
X368957Y159893D01*
X368636Y160952D01*
X367812Y162493D01*
X366703Y163845D01*
X365352Y164953D01*
X363810Y165778D01*
X362137Y166285D01*
X360398Y166456D01*
X360301D01*
X360276Y166956D01*
X361744Y167101D01*
X363416Y167608D01*
X364958Y168432D01*
X366309Y169541D01*
X367418Y170893D01*
X368242Y172434D01*
X368750Y174107D01*
X368921Y175847D01*
X368750Y177586D01*
X368242Y179259D01*
X367418Y180800D01*
X366309Y182152D01*
X364958Y183261D01*
X363416Y184085D01*
X361744Y184592D01*
X360004Y184763D01*
X358035D01*
X356296Y184592D01*
X354623Y184085D01*
X353081Y183261D01*
X351730Y182152D01*
X350621Y180800D01*
X349797Y179259D01*
X349684Y178885D01*
X349184D01*
X348951Y179653D01*
X348127Y181194D01*
X347018Y182545D01*
X345667Y183654D01*
X344125Y184478D01*
X342452Y184986D01*
X340713Y185157D01*
X338744D01*
X337004Y184986D01*
X335332Y184478D01*
X333790Y183654D01*
X332439Y182545D01*
X331330Y181194D01*
X330506Y179653D01*
X329998Y177980D01*
X329827Y176240D01*
X329998Y174501D01*
X330506Y172828D01*
X331330Y171286D01*
X332439Y169935D01*
X333790Y168826D01*
X335332Y168002D01*
X337004Y167495D01*
X338744Y167323D01*
X340713D01*
X342452Y167495D01*
X344125Y168002D01*
X345667Y168826D01*
X347018Y169935D01*
X348127Y171286D01*
X348951Y172828D01*
X349064Y173202D01*
X349564D01*
X349797Y172434D01*
X350621Y170893D01*
X351730Y169541D01*
X353081Y168432D01*
X354623Y167608D01*
X356296Y167101D01*
X358035Y166929D01*
X358132D01*
X358157Y166429D01*
X356690Y166285D01*
X355017Y165778D01*
X353475Y164953D01*
X352124Y163845D01*
X351015Y162493D01*
X350191Y160952D01*
X349802Y159670D01*
X349280D01*
X348951Y160755D01*
X348127Y162296D01*
X347018Y163648D01*
X345667Y164757D01*
X344125Y165581D01*
X342452Y166088D01*
X340713Y166260D01*
X338744D01*
X337004Y166088D01*
X335332Y165581D01*
X333790Y164757D01*
X332439Y163648D01*
X331330Y162296D01*
X330506Y160755D01*
X329998Y159082D01*
X329827Y157343D01*
X329998Y155603D01*
X330506Y153930D01*
X331330Y152389D01*
X332439Y151037D01*
X333790Y149928D01*
X335332Y149104D01*
X337004Y148597D01*
X338744Y148426D01*
X340713D01*
X342452Y148597D01*
X344125Y149104D01*
X345667Y149928D01*
X347018Y151037D01*
X348127Y152389D01*
X348951Y153930D01*
X349340Y155211D01*
X349862D01*
X350191Y154127D01*
X351015Y152585D01*
X352124Y151234D01*
X353475Y150125D01*
X355017Y149301D01*
X356690Y148794D01*
X358429Y148622D01*
X360398D01*
X362137Y148794D01*
X363810Y149301D01*
X365352Y150125D01*
X366703Y151234D01*
X367812Y152585D01*
X368636Y154127D01*
X368957Y155186D01*
X369457Y155112D01*
Y106871D01*
X346495Y83909D01*
X76709D01*
X75886Y83801D01*
X75120Y83483D01*
X74462Y82979D01*
X66612Y75128D01*
X66107Y74470D01*
X65790Y73704D01*
X65681Y72882D01*
Y38789D01*
X65790Y37967D01*
X66107Y37201D01*
X66612Y36543D01*
X83197Y19958D01*
X83006Y19496D01*
X77001D01*
X20976Y75521D01*
Y245078D01*
X102946Y327048D01*
X149344D01*
X150118Y326274D01*
X151244Y325624D01*
X152500Y325287D01*
X153800D01*
X155055Y325624D01*
X156181Y326274D01*
X157100Y327193D01*
X157750Y328319D01*
X158087Y329574D01*
Y330874D01*
X157750Y332130D01*
X157100Y333256D01*
X156181Y334175D01*
X155055Y334825D01*
X154865Y334876D01*
Y335376D01*
X154996Y335411D01*
X156122Y336061D01*
X157041Y336980D01*
X157691Y338106D01*
X158028Y339362D01*
Y340662D01*
X157691Y341917D01*
X157041Y343043D01*
X156122Y343962D01*
X154996Y344612D01*
X153741Y344949D01*
X152441D01*
X151185Y344612D01*
X150059Y343962D01*
X149979Y343883D01*
X149852Y343794D01*
X149576Y343634D01*
X149476Y343586D01*
X100186D01*
X99261Y343464D01*
X98399Y343107D01*
X97659Y342539D01*
X9127Y254007D01*
X8559Y253267D01*
X8202Y252405D01*
X8080Y251480D01*
Y73209D01*
X8202Y72284D01*
X8559Y71422D01*
X9127Y70682D01*
X70561Y9249D01*
X71301Y8681D01*
X72163Y8324D01*
X73088Y8202D01*
X183067D01*
X183992Y8324D01*
X184854Y8681D01*
X185169Y8922D01*
X293768D01*
X294693Y9044D01*
X295555Y9401D01*
X296295Y9969D01*
X322601Y36275D01*
X323432Y36755D01*
X324131Y37454D01*
X324626Y38311D01*
X324882Y39266D01*
Y40255D01*
X324626Y41210D01*
X324131Y42067D01*
X323432Y42766D01*
X322576Y43260D01*
X321620Y43516D01*
X320632D01*
X319676Y43260D01*
X318820Y42766D01*
X318121Y42067D01*
X317897Y41680D01*
X292287Y16070D01*
X286531D01*
X286339Y16532D01*
X312819Y43012D01*
X313386D01*
X314642Y43348D01*
X315768Y43998D01*
X316687Y44917D01*
X317337Y46043D01*
X317673Y47299D01*
Y48599D01*
X317337Y49854D01*
X316687Y50980D01*
X315768Y51899D01*
X314642Y52549D01*
X314399Y52615D01*
X314464Y53115D01*
X344721D01*
X345543Y53223D01*
X346309Y53540D01*
X346967Y54045D01*
X387329Y94407D01*
X387834Y95065D01*
X388151Y95831D01*
X388260Y96654D01*
Y321172D01*
X388151Y321994D01*
X387834Y322761D01*
X387329Y323419D01*
X368167Y342581D01*
X367509Y343086D01*
X366743Y343403D01*
X365920Y343511D01*
X278977D01*
X263194Y359295D01*
X263134Y359462D01*
X263015Y359871D01*
X262918Y360301D01*
X262870Y360585D01*
Y360713D01*
X262534Y361969D01*
X261884Y363094D01*
X260964Y364014D01*
X259839Y364664D01*
X258583Y365000D01*
D02*
G37*
G36*
X46354Y331344D02*
X38480D01*
X37127Y331211D01*
X35825Y330816D01*
X34625Y330175D01*
X33574Y329312D01*
X32711Y328261D01*
X32070Y327061D01*
X31675Y325759D01*
X31541Y324406D01*
X31675Y323052D01*
X32070Y321750D01*
X32711Y320550D01*
X33574Y319499D01*
X34625Y318636D01*
X35825Y317995D01*
X37127Y317600D01*
X38480Y317467D01*
X46354D01*
X47708Y317600D01*
X49010Y317995D01*
X50209Y318636D01*
X51261Y319499D01*
X52124Y320550D01*
X52765Y321750D01*
X53160Y323052D01*
X53293Y324406D01*
X53160Y325759D01*
X52765Y327061D01*
X52124Y328261D01*
X51261Y329312D01*
X50209Y330175D01*
X49010Y330816D01*
X47708Y331211D01*
X46354Y331344D01*
D02*
G37*
G36*
X111982Y302307D02*
X111349D01*
X110764Y302065D01*
X110317Y301618D01*
X110075Y301033D01*
Y300400D01*
X110317Y299816D01*
X110764Y299368D01*
X111349Y299126D01*
X111982D01*
X112566Y299368D01*
X113014Y299816D01*
X113256Y300400D01*
Y301033D01*
X113014Y301618D01*
X112566Y302065D01*
X111982Y302307D01*
D02*
G37*
G36*
X46197Y311620D02*
X38323D01*
X36969Y311487D01*
X35667Y311092D01*
X34468Y310451D01*
X33416Y309588D01*
X32553Y308536D01*
X31912Y307336D01*
X31517Y306035D01*
X31384Y304681D01*
X31517Y303327D01*
X31912Y302026D01*
X32553Y300826D01*
X33416Y299775D01*
X34468Y298912D01*
X35667Y298270D01*
X36969Y297875D01*
X38323Y297742D01*
X46197D01*
X47551Y297875D01*
X48852Y298270D01*
X50052Y298912D01*
X51103Y299775D01*
X51966Y300826D01*
X52608Y302026D01*
X53002Y303327D01*
X53136Y304681D01*
X53002Y306035D01*
X52608Y307336D01*
X51966Y308536D01*
X51103Y309588D01*
X50052Y310451D01*
X48852Y311092D01*
X47551Y311487D01*
X46197Y311620D01*
D02*
G37*
G36*
X112256Y295724D02*
X110956D01*
X109701Y295388D01*
X108575Y294738D01*
X107656Y293819D01*
X107006Y292693D01*
X106669Y291437D01*
Y290137D01*
X107006Y288882D01*
X107656Y287756D01*
X108575Y286837D01*
X109701Y286187D01*
X110956Y285850D01*
X112256D01*
X113512Y286187D01*
X114638Y286837D01*
X115557Y287756D01*
X116207Y288882D01*
X116543Y290137D01*
Y291437D01*
X116207Y292693D01*
X115557Y293819D01*
X114638Y294738D01*
X113512Y295388D01*
X112256Y295724D01*
D02*
G37*
G36*
X112151Y281386D02*
X111518D01*
X110934Y281144D01*
X110486Y280696D01*
X110244Y280112D01*
Y279479D01*
X110486Y278894D01*
X110934Y278447D01*
X111518Y278205D01*
X112151D01*
X112736Y278447D01*
X113183Y278894D01*
X113425Y279479D01*
Y280112D01*
X113183Y280696D01*
X112736Y281144D01*
X112151Y281386D01*
D02*
G37*
G36*
X112139Y315980D02*
X110839D01*
X109584Y315644D01*
X108458Y314994D01*
X107539Y314074D01*
X106889Y312948D01*
X106552Y311693D01*
Y310393D01*
X106889Y309137D01*
X107539Y308012D01*
X108458Y307092D01*
X109584Y306442D01*
X110839Y306106D01*
X112139D01*
X113395Y306442D01*
X114521Y307092D01*
X114607Y307179D01*
X114749Y307278D01*
X115027Y307441D01*
X115149Y307501D01*
X128403D01*
X128572Y307001D01*
X127758Y306376D01*
X126874Y305225D01*
X126319Y303884D01*
X126130Y302445D01*
Y250063D01*
X99573Y223506D01*
X98715Y222388D01*
X98039Y222207D01*
X96913Y221557D01*
X95994Y220638D01*
X95344Y219512D01*
X95008Y218256D01*
Y216956D01*
X95344Y215701D01*
X95994Y214575D01*
X96913Y213656D01*
X98039Y213006D01*
X99295Y212669D01*
X100595D01*
X101850Y213006D01*
X102976Y213656D01*
X103356Y214035D01*
X103504Y214015D01*
X104943Y214205D01*
X106284Y214760D01*
X107435Y215644D01*
X135620Y243829D01*
X136504Y244980D01*
X137059Y246321D01*
X137248Y247760D01*
Y302445D01*
X137059Y303884D01*
X136958Y304127D01*
X137382Y304410D01*
X166402Y275390D01*
X167142Y274822D01*
X168004Y274465D01*
X168929Y274343D01*
X283426D01*
X283530Y274285D01*
X283607Y274260D01*
X284224Y273903D01*
X285480Y273567D01*
X286780D01*
X288035Y273903D01*
X289161Y274553D01*
X290080Y275473D01*
X290731Y276598D01*
X291067Y277854D01*
Y279154D01*
X290731Y280410D01*
X290080Y281535D01*
X289161Y282454D01*
X288035Y283104D01*
X286780Y283441D01*
X285480D01*
X284224Y283104D01*
X283099Y282454D01*
X282885Y282241D01*
X282857Y282225D01*
X282530Y281954D01*
X282221Y281733D01*
X281902Y281540D01*
X281805Y281491D01*
X170410D01*
X138299Y313602D01*
X137559Y314170D01*
X136697Y314527D01*
X135772Y314649D01*
X115059D01*
X114980Y314686D01*
X114707Y314843D01*
X114594Y314920D01*
X114521Y314994D01*
X113395Y315644D01*
X112139Y315980D01*
D02*
G37*
G36*
X112485Y274315D02*
X111185D01*
X109929Y273978D01*
X108803Y273328D01*
X107884Y272409D01*
X107234Y271284D01*
X106898Y270028D01*
Y268728D01*
X107234Y267472D01*
X107884Y266347D01*
X108803Y265427D01*
X109929Y264777D01*
X111185Y264441D01*
X112485D01*
X113740Y264777D01*
X114866Y265427D01*
X115785Y266347D01*
X116435Y267472D01*
X116772Y268728D01*
Y270028D01*
X116435Y271284D01*
X115785Y272409D01*
X114866Y273328D01*
X113740Y273978D01*
X112485Y274315D01*
D02*
G37*
G36*
X303208Y304240D02*
X301847D01*
X300513Y303975D01*
X299257Y303454D01*
X298126Y302698D01*
X297164Y301737D01*
X296408Y300606D01*
X295887Y299349D01*
X295622Y298015D01*
Y296655D01*
X295887Y295320D01*
X296408Y294064D01*
X297164Y292933D01*
X298126Y291971D01*
X299257Y291215D01*
X300513Y290694D01*
X301283Y290541D01*
X305232Y286592D01*
Y247598D01*
X305421Y246160D01*
X305977Y244819D01*
X306860Y243667D01*
X308012Y242784D01*
X309352Y242229D01*
X310791Y242039D01*
X312230Y242229D01*
X313571Y242784D01*
X314722Y243667D01*
X315606Y244819D01*
X316161Y246160D01*
X316351Y247598D01*
Y288895D01*
X316161Y290334D01*
X315606Y291675D01*
X314722Y292826D01*
X309420Y298128D01*
X309380Y298309D01*
X309370Y298333D01*
X309168Y299349D01*
X308647Y300606D01*
X307891Y301737D01*
X306930Y302698D01*
X305799Y303454D01*
X304542Y303975D01*
X303208Y304240D01*
D02*
G37*
G36*
X100595Y249874D02*
X99295D01*
X98039Y249538D01*
X96913Y248888D01*
X95994Y247968D01*
X95344Y246843D01*
X95008Y245587D01*
Y244287D01*
X95344Y243031D01*
X95994Y241906D01*
X96913Y240986D01*
X98039Y240336D01*
X99295Y240000D01*
X100595D01*
X101850Y240336D01*
X102976Y240986D01*
X103895Y241906D01*
X104545Y243031D01*
X104882Y244287D01*
Y245587D01*
X104545Y246843D01*
X103895Y247968D01*
X102976Y248888D01*
X101850Y249538D01*
X100595Y249874D01*
D02*
G37*
G36*
X4143Y241063D02*
X3510D01*
X2926Y240821D01*
X2478Y240373D01*
X2236Y239789D01*
Y239156D01*
X2478Y238572D01*
X2926Y238124D01*
X3510Y237882D01*
X4143D01*
X4728Y238124D01*
X5175Y238572D01*
X5417Y239156D01*
Y239789D01*
X5175Y240373D01*
X4728Y240821D01*
X4143Y241063D01*
D02*
G37*
G36*
X100571Y237209D02*
X99271D01*
X98016Y236872D01*
X96890Y236222D01*
X95971Y235303D01*
X95321Y234177D01*
X94984Y232922D01*
Y231622D01*
X95321Y230366D01*
X95971Y229240D01*
X96890Y228321D01*
X98016Y227671D01*
X99271Y227335D01*
X100571D01*
X101827Y227671D01*
X102953Y228321D01*
X103872Y229240D01*
X104522Y230366D01*
X104858Y231622D01*
Y232922D01*
X104522Y234177D01*
X103872Y235303D01*
X102953Y236222D01*
X101827Y236872D01*
X100571Y237209D01*
D02*
G37*
G36*
X46276Y229167D02*
X38402D01*
X37048Y229034D01*
X35746Y228639D01*
X34547Y227998D01*
X33495Y227135D01*
X32632Y226083D01*
X31991Y224884D01*
X31596Y223582D01*
X31463Y222228D01*
X31596Y220875D01*
X31991Y219573D01*
X32632Y218373D01*
X33495Y217322D01*
X34547Y216459D01*
X35746Y215818D01*
X37048Y215423D01*
X38402Y215289D01*
X46276D01*
X47629Y215423D01*
X48931Y215818D01*
X50131Y216459D01*
X51182Y217322D01*
X52045Y218373D01*
X52686Y219573D01*
X53081Y220875D01*
X53215Y222228D01*
X53081Y223582D01*
X52686Y224884D01*
X52045Y226083D01*
X51182Y227135D01*
X50131Y227998D01*
X48931Y228639D01*
X47629Y229034D01*
X46276Y229167D01*
D02*
G37*
G36*
X4620Y216642D02*
X3987D01*
X3402Y216400D01*
X2955Y215952D01*
X2713Y215368D01*
Y214735D01*
X2955Y214150D01*
X3402Y213703D01*
X3987Y213461D01*
X4620D01*
X5204Y213703D01*
X5652Y214150D01*
X5894Y214735D01*
Y215368D01*
X5652Y215952D01*
X5204Y216400D01*
X4620Y216642D01*
D02*
G37*
G36*
X356032Y222079D02*
X354732D01*
X353476Y221742D01*
X352350Y221092D01*
X351431Y220173D01*
X350781Y219047D01*
X350445Y217792D01*
Y216492D01*
X350781Y215236D01*
X351431Y214110D01*
X352350Y213191D01*
X353476Y212541D01*
X354732Y212205D01*
X356032D01*
X357288Y212541D01*
X358413Y213191D01*
X359332Y214110D01*
X359982Y215236D01*
X360319Y216492D01*
Y217792D01*
X359982Y219047D01*
X359332Y220173D01*
X358413Y221092D01*
X357288Y221742D01*
X356032Y222079D01*
D02*
G37*
G36*
X141713Y207184D02*
X140788Y207062D01*
X139926Y206705D01*
X139186Y206137D01*
X139186Y206137D01*
X133288Y200240D01*
X133268Y200234D01*
X132142Y199584D01*
X131223Y198665D01*
X130573Y197539D01*
X130432Y197015D01*
X129914D01*
X129774Y197539D01*
X129124Y198665D01*
X128205Y199584D01*
X127079Y200234D01*
X125823Y200571D01*
X124523D01*
X123268Y200234D01*
X122142Y199584D01*
X121223Y198665D01*
X120573Y197539D01*
X120236Y196284D01*
Y194984D01*
X120573Y193728D01*
X121223Y192603D01*
X122142Y191683D01*
X123268Y191033D01*
X124523Y190697D01*
X125823D01*
X127079Y191033D01*
X128205Y191683D01*
X129124Y192603D01*
X129774Y193728D01*
X129914Y194253D01*
X130432D01*
X130573Y193728D01*
X131223Y192603D01*
X132142Y191683D01*
X133268Y191033D01*
X134523Y190697D01*
X135823D01*
X137079Y191033D01*
X138205Y191683D01*
X139124Y192603D01*
X139774Y193728D01*
X139914Y194253D01*
X140432D01*
X140573Y193728D01*
X141223Y192603D01*
X142142Y191683D01*
X143268Y191033D01*
X143911Y190861D01*
X143983Y190823D01*
X144024Y190811D01*
X151378Y183457D01*
X152119Y182889D01*
X152980Y182532D01*
X153905Y182410D01*
X206821D01*
X229156Y160075D01*
X229196Y159983D01*
X229376Y159481D01*
X229529Y158955D01*
X229654Y158402D01*
X229756Y157797D01*
X229780Y157733D01*
X229941Y156924D01*
X230388Y155846D01*
X231036Y154876D01*
X231860Y154052D01*
X232830Y153404D01*
X233908Y152957D01*
X235052Y152730D01*
X236218D01*
X237362Y152957D01*
X238440Y153404D01*
X239410Y154052D01*
X240234Y154876D01*
X240882Y155846D01*
X241329Y156924D01*
X241556Y158068D01*
Y159234D01*
X241329Y160378D01*
X241327Y160382D01*
X241710Y160764D01*
X242312Y160515D01*
X243456Y160287D01*
X244623D01*
X245766Y160515D01*
X246844Y160961D01*
X247814Y161609D01*
X248639Y162434D01*
X249287Y163404D01*
X249733Y164481D01*
X249961Y165626D01*
Y166792D01*
X249733Y167936D01*
X249287Y169013D01*
X248639Y169983D01*
X247814Y170808D01*
X246844Y171456D01*
X245766Y171902D01*
X244957Y172063D01*
X244894Y172088D01*
X244288Y172189D01*
X243736Y172315D01*
X243209Y172467D01*
X242707Y172647D01*
X242615Y172687D01*
X209165Y206137D01*
X208425Y206705D01*
X207563Y207062D01*
X206638Y207184D01*
X141713D01*
X141713Y207184D01*
D02*
G37*
G36*
X75244Y192842D02*
X73944D01*
X72689Y192506D01*
X71563Y191856D01*
X70644Y190937D01*
X69994Y189811D01*
X69657Y188556D01*
Y187256D01*
X69994Y186000D01*
X70644Y184874D01*
X71563Y183955D01*
X72689Y183305D01*
X73944Y182968D01*
X75244D01*
X76500Y183305D01*
X77626Y183955D01*
X78545Y184874D01*
X79195Y186000D01*
X79532Y187256D01*
Y188556D01*
X79195Y189811D01*
X78545Y190937D01*
X77626Y191856D01*
X76500Y192506D01*
X75244Y192842D01*
D02*
G37*
G36*
X46126Y146569D02*
X38252D01*
X36898Y146435D01*
X35597Y146041D01*
X34397Y145399D01*
X33345Y144536D01*
X32482Y143485D01*
X31841Y142285D01*
X31446Y140984D01*
X31313Y139630D01*
X31446Y138276D01*
X31841Y136975D01*
X32482Y135775D01*
X33345Y134723D01*
X34397Y133860D01*
X35597Y133219D01*
X36898Y132824D01*
X38252Y132691D01*
X46126D01*
X47480Y132824D01*
X48781Y133219D01*
X49981Y133860D01*
X51033Y134723D01*
X51895Y135775D01*
X52537Y136975D01*
X52932Y138276D01*
X53065Y139630D01*
X52932Y140984D01*
X52537Y142285D01*
X51895Y143485D01*
X51033Y144536D01*
X49981Y145399D01*
X48781Y146041D01*
X47480Y146435D01*
X46126Y146569D01*
D02*
G37*
G36*
X45855Y108327D02*
X44555D01*
X43299Y107990D01*
X42173Y107340D01*
X41254Y106421D01*
X40604Y105295D01*
X40268Y104040D01*
Y102740D01*
X40604Y101484D01*
X41254Y100358D01*
X42173Y99439D01*
X43299Y98789D01*
X44344Y98509D01*
X44497Y98392D01*
X45599Y97935D01*
X46781Y97780D01*
X138012D01*
X138071Y97746D01*
X139326Y97409D01*
X140626D01*
X141882Y97746D01*
X143008Y98396D01*
X143927Y99315D01*
X144577Y100441D01*
X144913Y101697D01*
Y102996D01*
X144577Y104252D01*
X143927Y105378D01*
X143008Y106297D01*
X141882Y106947D01*
X140626Y107283D01*
X139326D01*
X138071Y106947D01*
X138012Y106913D01*
X48688D01*
X48677Y106922D01*
X48624Y106952D01*
X48236Y107340D01*
X47110Y107990D01*
X45855Y108327D01*
D02*
G37*
G36*
X375024Y32496D02*
X373007D01*
X371016Y32181D01*
X369098Y31558D01*
X367301Y30642D01*
X365670Y29457D01*
X364244Y28031D01*
X363059Y26399D01*
X362143Y24603D01*
X361520Y22685D01*
X361205Y20693D01*
Y18677D01*
X361520Y16685D01*
X362143Y14767D01*
X363059Y12971D01*
X364244Y11339D01*
X365670Y9913D01*
X367301Y8728D01*
X369098Y7813D01*
X371016Y7190D01*
X373007Y6874D01*
X375024D01*
X377016Y7190D01*
X378934Y7813D01*
X380730Y8728D01*
X382362Y9913D01*
X383787Y11339D01*
X384973Y12971D01*
X385888Y14767D01*
X386511Y16685D01*
X386827Y18677D01*
Y20693D01*
X386511Y22685D01*
X385888Y24603D01*
X384973Y26399D01*
X383787Y28031D01*
X382362Y29457D01*
X380730Y30642D01*
X378934Y31558D01*
X377016Y32181D01*
X375024Y32496D01*
D02*
G37*
G36*
X20693D02*
X18677D01*
X16685Y32181D01*
X14767Y31558D01*
X12971Y30642D01*
X11339Y29457D01*
X9913Y28031D01*
X8728Y26399D01*
X7813Y24603D01*
X7190Y22685D01*
X6874Y20693D01*
Y18677D01*
X7190Y16685D01*
X7813Y14767D01*
X8728Y12971D01*
X9913Y11339D01*
X11339Y9913D01*
X12971Y8728D01*
X14767Y7813D01*
X16685Y7190D01*
X18677Y6874D01*
X20693D01*
X22685Y7190D01*
X24603Y7813D01*
X26399Y8728D01*
X28031Y9913D01*
X29457Y11339D01*
X30642Y12971D01*
X31558Y14767D01*
X32181Y16685D01*
X32496Y18677D01*
Y20693D01*
X32181Y22685D01*
X31558Y24603D01*
X30642Y26399D01*
X29457Y28031D01*
X28031Y29457D01*
X26399Y30642D01*
X24603Y31558D01*
X22685Y32181D01*
X20693Y32496D01*
D02*
G37*
%LPD*%
G36*
X261917Y360104D02*
X262028Y359616D01*
X262164Y359147D01*
X262325Y358697D01*
X262512Y358266D01*
X262724Y357855D01*
X262961Y357462D01*
X263224Y357088D01*
X263512Y356734D01*
X263825Y356398D01*
X261598Y354171D01*
X261262Y354484D01*
X260908Y354772D01*
X260534Y355035D01*
X260141Y355272D01*
X259730Y355484D01*
X259299Y355671D01*
X258849Y355832D01*
X258380Y355968D01*
X257892Y356079D01*
X257385Y356164D01*
X261832Y360611D01*
X261917Y360104D01*
D02*
G37*
G36*
X150721Y336867D02*
X150399Y337091D01*
X150054Y337291D01*
X149689Y337467D01*
X149302Y337620D01*
X148894Y337749D01*
X148464Y337855D01*
X148013Y337937D01*
X147540Y337996D01*
X147047Y338032D01*
X146531Y338043D01*
Y341980D01*
X147047Y341992D01*
X148013Y342086D01*
X148464Y342168D01*
X148894Y342274D01*
X149302Y342404D01*
X149689Y342557D01*
X150054Y342733D01*
X150399Y342933D01*
X150721Y343156D01*
Y336867D01*
D02*
G37*
G36*
X274038Y323137D02*
X273724Y322802D01*
X273436Y322447D01*
X273174Y322074D01*
X272936Y321681D01*
X272724Y321269D01*
X272538Y320838D01*
X272376Y320388D01*
X272240Y319919D01*
X272130Y319431D01*
X272044Y318924D01*
X267598Y323371D01*
X268105Y323456D01*
X268593Y323567D01*
X269061Y323703D01*
X269511Y323864D01*
X269942Y324051D01*
X270354Y324263D01*
X270747Y324500D01*
X271121Y324763D01*
X271475Y325051D01*
X271811Y325365D01*
X274038Y323137D01*
D02*
G37*
G36*
X149576Y336389D02*
X149852Y336229D01*
X149979Y336141D01*
X150059Y336061D01*
X151185Y335411D01*
X151375Y335360D01*
Y334860D01*
X151244Y334825D01*
X150118Y334175D01*
X149344Y333401D01*
X101630D01*
X100808Y333293D01*
X100041Y332976D01*
X99384Y332471D01*
X15728Y248815D01*
X15228Y249022D01*
Y249999D01*
X101666Y336438D01*
X149476D01*
X149576Y336389D01*
D02*
G37*
G36*
X368370Y275252D02*
X364201Y271083D01*
Y241961D01*
X364011Y241784D01*
X364201Y241595D01*
Y230339D01*
X357740D01*
X324709Y197307D01*
Y138437D01*
X324035D01*
X307051Y121453D01*
X264558D01*
X264044Y121591D01*
X262744D01*
X262229Y121453D01*
X163839D01*
X144962Y140329D01*
X144514Y141106D01*
X143594Y142025D01*
X142817Y142474D01*
X131201Y154091D01*
X35783D01*
Y162024D01*
X38276Y164516D01*
X38276Y164516D01*
X38323D01*
X177894D01*
X205543Y136866D01*
X297571D01*
X307984Y147280D01*
X309906Y149201D01*
Y218492D01*
X335039Y243626D01*
X335625D01*
X335466Y244052D01*
X351146Y259732D01*
Y286181D01*
X354146Y289181D01*
X368370D01*
Y275252D01*
D02*
G37*
G36*
X140912Y77094D02*
X136867Y73049D01*
X134608Y75308D01*
X134000Y75714D01*
X133284Y75857D01*
X132567Y75714D01*
X131960Y75308D01*
X127041Y70389D01*
X126635Y69782D01*
X126571Y69462D01*
X126130Y69226D01*
X125893Y69324D01*
X125071Y69433D01*
X110492D01*
X109670Y69324D01*
X108904Y69007D01*
X108246Y68502D01*
X99470Y59727D01*
X98965Y59069D01*
X98648Y58302D01*
X98540Y57480D01*
Y48752D01*
X98648Y47930D01*
X98965Y47164D01*
X99470Y46506D01*
X115639Y30336D01*
X115381Y29888D01*
X114934Y30008D01*
X113893D01*
X112888Y29739D01*
X111986Y29218D01*
X111250Y28482D01*
X110730Y27581D01*
X110461Y26575D01*
Y25535D01*
X110730Y24529D01*
X110956Y24137D01*
X110706Y23704D01*
X88436D01*
X72035Y40105D01*
Y71566D01*
X78025Y77556D01*
X140721D01*
X140912Y77094D01*
D02*
G37*
G36*
X141310Y70772D02*
X140897Y70336D01*
X140550Y69923D01*
X140270Y69532D01*
X140058Y69163D01*
X139912Y68817D01*
X139833Y68493D01*
X139822Y68192D01*
X139877Y67913D01*
X139999Y67657D01*
X140188Y67423D01*
X135734Y71877D01*
X135968Y71688D01*
X136224Y71566D01*
X136503Y71510D01*
X136804Y71522D01*
X137128Y71601D01*
X137474Y71747D01*
X137843Y71959D01*
X138234Y72239D01*
X138647Y72586D01*
X139083Y72999D01*
X141310Y70772D01*
D02*
G37*
G36*
X348166Y72172D02*
X339611Y63618D01*
X305303D01*
X304481Y63510D01*
X303715Y63192D01*
X303057Y62687D01*
X291361Y50992D01*
X144828D01*
X137968Y57851D01*
X138159Y58368D01*
X138700Y58729D01*
X143619Y63649D01*
X144025Y64256D01*
X144168Y64973D01*
X144025Y65689D01*
X143619Y66297D01*
X141360Y68556D01*
X145438Y72634D01*
X347974D01*
X348166Y72172D01*
D02*
G37*
G36*
X308322Y50178D02*
X308136Y49854D01*
X307799Y48599D01*
Y47299D01*
X307867Y47045D01*
X281038Y20216D01*
X180291D01*
X179469Y20108D01*
X178703Y19791D01*
X178319Y19496D01*
X153000D01*
X152808Y19958D01*
X154953Y22102D01*
X158366D01*
Y30008D01*
X150461D01*
Y26595D01*
X148695Y24829D01*
X148246Y25088D01*
X148366Y25535D01*
Y26575D01*
X148097Y27581D01*
X147576Y28482D01*
X147331Y28728D01*
Y30354D01*
X147223Y31176D01*
X146905Y31942D01*
X146400Y32600D01*
X145231Y33770D01*
X145230Y33770D01*
X139356Y39645D01*
X139528Y39994D01*
X139617Y40091D01*
X296213D01*
X297035Y40199D01*
X297801Y40517D01*
X298459Y41021D01*
X307922Y50485D01*
X308322Y50178D01*
D02*
G37*
%LPC*%
G36*
X44153Y162928D02*
X42347D01*
X41421Y162806D01*
X40560Y162449D01*
X39819Y161881D01*
X39251Y161141D01*
X38894Y160279D01*
X38773Y159354D01*
X38894Y158429D01*
X39251Y157567D01*
X39819Y156827D01*
X40560Y156259D01*
X41421Y155902D01*
X42347Y155780D01*
X44153D01*
X45078Y155902D01*
X45940Y156259D01*
X46680Y156827D01*
X47248Y157567D01*
X47605Y158429D01*
X47727Y159354D01*
X47605Y160279D01*
X47248Y161141D01*
X46680Y161881D01*
X45940Y162449D01*
X45078Y162806D01*
X44153Y162928D01*
D02*
G37*
%LPD*%
G36*
X114165Y313979D02*
X114507Y313782D01*
X114871Y313609D01*
X115256Y313459D01*
X115664Y313332D01*
X116094Y313228D01*
X116545Y313147D01*
X117018Y313089D01*
X118030Y313043D01*
X118067Y309106D01*
X117553Y309094D01*
X116589Y308999D01*
X116138Y308915D01*
X115708Y308807D01*
X115299Y308675D01*
X114911Y308520D01*
X114544Y308340D01*
X114198Y308137D01*
X113873Y307909D01*
X113844Y314198D01*
X114165Y313979D01*
D02*
G37*
G36*
X284030Y275173D02*
X283769Y275321D01*
X283475Y275453D01*
X283150Y275569D01*
X282793Y275670D01*
X282404Y275755D01*
X281532Y275879D01*
X281048Y275918D01*
X279985Y275949D01*
X279294Y279886D01*
X279781Y279901D01*
X280253Y279948D01*
X280711Y280026D01*
X281155Y280135D01*
X281583Y280275D01*
X281997Y280446D01*
X282397Y280648D01*
X282782Y280881D01*
X283153Y281146D01*
X283508Y281441D01*
X284030Y275173D01*
D02*
G37*
G36*
X308451Y297791D02*
X308577Y297457D01*
X308764Y297088D01*
X309010Y296683D01*
X309317Y296242D01*
X310111Y295253D01*
X311146Y294121D01*
X311753Y293501D01*
X306028Y288091D01*
X305403Y288706D01*
X302898Y290867D01*
X302520Y291116D01*
X302185Y291304D01*
X301890Y291431D01*
X301637Y291497D01*
X308385Y298088D01*
X308451Y297791D01*
D02*
G37*
G36*
X140775Y199889D02*
X140456Y199544D01*
X140172Y199182D01*
X139921Y198803D01*
X139703Y198406D01*
X139520Y197991D01*
X139371Y197559D01*
X139255Y197109D01*
X139173Y196641D01*
X139125Y196156D01*
X139110Y195653D01*
X134065Y199412D01*
X134265Y199485D01*
X134488Y199595D01*
X134734Y199741D01*
X135003Y199924D01*
X135611Y200399D01*
X136312Y201020D01*
X137105Y201787D01*
X140775Y199889D01*
D02*
G37*
G36*
X237561Y167633D02*
X237601Y167541D01*
X237781Y167039D01*
X237933Y166512D01*
X238059Y165960D01*
X238161Y165354D01*
X238185Y165291D01*
X238346Y164481D01*
X238347Y164478D01*
X237964Y164095D01*
X237362Y164345D01*
X236553Y164506D01*
X236489Y164530D01*
X235884Y164632D01*
X235331Y164757D01*
X234805Y164910D01*
X234303Y165090D01*
X234211Y165129D01*
X210829Y188511D01*
X210089Y189079D01*
X209227Y189436D01*
X208302Y189558D01*
X155386D01*
X150345Y194599D01*
X150304Y194730D01*
X150217Y195097D01*
X150158Y195477D01*
X150122Y195907D01*
X150110Y195947D01*
Y196284D01*
X149774Y197539D01*
X149124Y198665D01*
X148253Y199536D01*
X148316Y199998D01*
X148326Y200036D01*
X162021D01*
X162031Y199998D01*
X162094Y199536D01*
X161223Y198665D01*
X160573Y197539D01*
X160236Y196284D01*
Y194984D01*
X160573Y193728D01*
X161223Y192603D01*
X162142Y191683D01*
X163268Y191033D01*
X164523Y190697D01*
X165823D01*
X167079Y191033D01*
X168205Y191683D01*
X169124Y192603D01*
X169774Y193728D01*
X170110Y194984D01*
Y196284D01*
X169774Y197539D01*
X169124Y198665D01*
X168253Y199536D01*
X168315Y199998D01*
X168326Y200036D01*
X205157D01*
X237561Y167633D01*
D02*
G37*
G36*
X149145Y195355D02*
X149216Y194900D01*
X149320Y194458D01*
X149456Y194029D01*
X149625Y193612D01*
X149826Y193208D01*
X150060Y192816D01*
X150327Y192437D01*
X150625Y192071D01*
X150956Y191717D01*
X147629Y189476D01*
X147235Y189861D01*
X146129Y190811D01*
X145786Y191061D01*
X145140Y191458D01*
X144837Y191607D01*
X144546Y191721D01*
X144269Y191802D01*
X149106Y195822D01*
X149145Y195355D01*
D02*
G37*
G36*
X239878Y173182D02*
X240321Y172822D01*
X240788Y172494D01*
X241279Y172197D01*
X241794Y171932D01*
X242332Y171699D01*
X242895Y171497D01*
X243481Y171327D01*
X244091Y171189D01*
X244724Y171082D01*
X239166Y165524D01*
X239059Y166157D01*
X238921Y166767D01*
X238751Y167353D01*
X238549Y167916D01*
X238316Y168454D01*
X238051Y168969D01*
X237754Y169460D01*
X237426Y169927D01*
X237066Y170370D01*
X236674Y170790D01*
X239458Y173574D01*
X239878Y173182D01*
D02*
G37*
G36*
X231473Y165624D02*
X231916Y165264D01*
X232384Y164936D01*
X232874Y164639D01*
X233389Y164374D01*
X233928Y164141D01*
X234490Y163939D01*
X235076Y163769D01*
X235686Y163631D01*
X236320Y163524D01*
X230762Y157966D01*
X230655Y158600D01*
X230517Y159210D01*
X230347Y159796D01*
X230145Y160358D01*
X229912Y160897D01*
X229647Y161411D01*
X229350Y161902D01*
X229022Y162370D01*
X228662Y162813D01*
X228270Y163232D01*
X231054Y166016D01*
X231473Y165624D01*
D02*
G37*
G36*
X48201Y105987D02*
X48432Y105843D01*
X48704Y105716D01*
X49019Y105605D01*
X49376Y105512D01*
X49776Y105435D01*
X50218Y105376D01*
X51228Y105308D01*
X51797Y105299D01*
X52151Y99394D01*
X47079Y99928D01*
X48013Y106149D01*
X48201Y105987D01*
D02*
G37*
G36*
X137607Y99202D02*
X137528Y99239D01*
X137390Y99271D01*
X137196Y99300D01*
X136634Y99346D01*
X134820Y99392D01*
X134223Y99394D01*
Y105299D01*
X134820Y105301D01*
X137528Y105454D01*
X137607Y105491D01*
Y99202D01*
D02*
G37*
D92*
X75685Y16319D02*
X179571D01*
X17799Y74205D02*
Y246394D01*
Y74205D02*
X75685Y16319D01*
X87120Y20528D02*
X148886D01*
X68858Y38789D02*
X87120Y20528D01*
X122299Y52209D02*
X142984Y31524D01*
Y31524D02*
X144154Y30354D01*
Y27324D02*
X144316Y27162D01*
X120520Y52209D02*
X122299D01*
X142984Y31524D02*
Y31524D01*
X144154Y27324D02*
Y30354D01*
X139594Y43268D02*
X296213D01*
X113969Y62106D02*
X120756D01*
X139594Y43268D01*
X101716Y48752D02*
Y57480D01*
Y48752D02*
X124413Y26055D01*
X107513Y53042D02*
X134413Y26142D01*
X107513Y55651D02*
X113969Y62106D01*
X107513Y53042D02*
Y55651D01*
X148886Y20528D02*
X154413Y26055D01*
X110492Y66256D02*
X125071D01*
X101716Y57480D02*
X110492Y66256D01*
X125071D02*
X143512Y47815D01*
X292677D01*
X179571Y16319D02*
X180291Y17039D01*
X282354D01*
X312736Y47421D01*
X68858Y72882D02*
X76709Y80732D01*
X347811D01*
X68858Y38789D02*
Y72882D01*
X347811Y80732D02*
X372634Y105555D01*
X309236Y56291D02*
X344721D01*
X385083Y96654D01*
Y321172D01*
X135330Y67019D02*
X144122Y75811D01*
X349504D01*
X376783Y103090D01*
X305303Y60441D02*
X340927D01*
X292677Y47815D02*
X305303Y60441D01*
X296213Y43268D02*
X309236Y56291D01*
X312736Y47421D02*
Y47949D01*
X340927Y60441D02*
X380933Y100447D01*
X101630Y330224D02*
X153150D01*
X17799Y246394D02*
X101630Y330224D01*
X256807Y335531D02*
X363931D01*
X267231Y330728D02*
X361941D01*
X257933Y360063D02*
X277661Y340335D01*
X254197Y332922D02*
X256807Y335531D01*
X254165Y332922D02*
X254197D01*
X251845Y330602D02*
X254165Y332922D01*
X250567Y330602D02*
X251845D01*
X263928Y329924D02*
X266426D01*
X267231Y330728D01*
X263024Y329020D02*
X263928Y329924D01*
X268146Y319472D02*
X274724Y326051D01*
X365920Y340335D02*
X385083Y321172D01*
X380933Y100447D02*
Y318529D01*
X376783Y103090D02*
Y315886D01*
X361941Y330728D02*
X376783Y315886D01*
X372634Y105555D02*
Y313421D01*
X277661Y340335D02*
X365920D01*
X363931Y335531D02*
X380933Y318529D01*
X360004Y326051D02*
X372634Y313421D01*
X274724Y326051D02*
X360004D01*
D96*
X111437Y311075D02*
X135772D01*
X11654Y251480D02*
X100186Y340012D01*
X11654Y73209D02*
Y251480D01*
Y73209D02*
X73088Y11776D01*
X183788Y12496D02*
X293768D01*
X73088Y11776D02*
X183067D01*
X183788Y12496D01*
X293768D02*
X321032Y39760D01*
X321126D01*
X42347Y159354D02*
X44153D01*
X100186Y340012D02*
X153091D01*
X135772Y311075D02*
X168929Y277917D01*
X285543D01*
X145173Y194717D02*
Y195634D01*
X208302Y185984D02*
X235635Y158651D01*
X145173Y194717D02*
X153905Y185984D01*
X208302D01*
X141713Y203610D02*
X206638D01*
X135173Y197071D02*
X141713Y203610D01*
X135173Y195634D02*
Y197071D01*
X206638Y203610D02*
X244039Y166209D01*
X285543Y277917D02*
X286130Y278504D01*
X99945Y217606D02*
X101010D01*
X102979Y219575D02*
X103504D01*
X101010Y217606D02*
X102979Y219575D01*
D98*
X45737Y103390D02*
X46781Y102347D01*
X139444D01*
X45205Y103390D02*
X45737D01*
D100*
X302528Y297159D02*
Y297335D01*
X310791Y247598D02*
Y288895D01*
X302528Y297159D02*
X310791Y288895D01*
X131689Y247760D02*
Y302445D01*
X103504Y219575D02*
X131689Y247760D01*
D102*
X45205Y103390D02*
D03*
Y24650D02*
D03*
X355382Y217142D02*
D03*
Y236827D02*
D03*
X165173Y195634D02*
D03*
X155173D02*
D03*
X145173D02*
D03*
X135173D02*
D03*
X125173D02*
D03*
X250362Y4417D02*
D03*
X348646Y196799D02*
D03*
X246134Y217276D02*
D03*
X263394Y116654D02*
D03*
X312736Y47949D02*
D03*
X173933Y270878D02*
D03*
X245280Y269256D02*
D03*
X321122Y296429D02*
D03*
X278992Y97980D02*
D03*
X292004Y189961D02*
D03*
X218398Y153811D02*
D03*
X140563Y138075D02*
D03*
X92398Y174740D02*
D03*
X74594Y187906D02*
D03*
X153150Y330224D02*
D03*
X153091Y340012D02*
D03*
X257933Y360063D02*
D03*
X250567Y330602D02*
D03*
X263024Y329020D02*
D03*
X268146Y319472D02*
D03*
X310791Y247598D02*
D03*
X111489Y311043D02*
D03*
X111606Y290787D02*
D03*
X111835Y269378D02*
D03*
X318098Y143736D02*
D03*
X139976Y102347D02*
D03*
X286130Y278504D02*
D03*
X99945Y244937D02*
D03*
X99921Y232272D02*
D03*
X99945Y217606D02*
D03*
X131689Y302445D02*
D03*
D103*
X154413Y26055D02*
D03*
D104*
X144413D02*
D03*
X134413D02*
D03*
X124413D02*
D03*
X114413D02*
D03*
X104413D02*
D03*
D105*
X203776Y326043D02*
D03*
X196551D02*
D03*
X207388Y329656D02*
D03*
X200163D02*
D03*
X192939D02*
D03*
X203776Y333268D02*
D03*
X196551D02*
D03*
X207388Y336880D02*
D03*
X200163D02*
D03*
X192939D02*
D03*
X203776Y340492D02*
D03*
X196551D02*
D03*
X59728Y294236D02*
D03*
X373780Y364898D02*
D03*
X365079Y373839D02*
D03*
X374079Y382720D02*
D03*
X382953Y374193D02*
D03*
Y19862D02*
D03*
X28622Y374193D02*
D03*
X374079Y28390D02*
D03*
X365079Y19508D02*
D03*
X373780Y10567D02*
D03*
X19748Y382720D02*
D03*
X10748Y373839D02*
D03*
X19449Y364898D02*
D03*
Y10567D02*
D03*
X10748Y19508D02*
D03*
X19748Y28390D02*
D03*
X28390Y19626D02*
D03*
D106*
X42347Y159354D02*
D03*
X42189Y139630D02*
D03*
X42339Y222228D02*
D03*
X42496Y241953D02*
D03*
X42260Y304681D02*
D03*
X42417Y324406D02*
D03*
D107*
X340090Y298843D02*
D03*
X359776Y299039D02*
D03*
Y280142D02*
D03*
X340484Y280535D02*
D03*
X359413Y157539D02*
D03*
X339728Y157343D02*
D03*
Y176240D02*
D03*
X359020Y175847D02*
D03*
D108*
X354181Y49091D02*
D03*
X354276Y52791D02*
D03*
X351146Y50417D02*
D03*
X264213Y143142D02*
D03*
X266965Y140284D02*
D03*
X261496Y140272D02*
D03*
X290020Y31421D02*
D03*
X259846D02*
D03*
X141252Y218882D02*
D03*
X142098Y251724D02*
D03*
X139996Y248772D02*
D03*
X171555Y212516D02*
D03*
X28976Y118205D02*
D03*
X164319Y62590D02*
D03*
X182559Y63106D02*
D03*
X97016Y56941D02*
D03*
X234756Y288276D02*
D03*
X365543Y220595D02*
D03*
X365882Y207602D02*
D03*
X392224Y299205D02*
D03*
X391701Y279693D02*
D03*
X277035Y107839D02*
D03*
X264653Y96531D02*
D03*
X288342Y89264D02*
D03*
X306913Y105413D02*
D03*
X312299Y115106D02*
D03*
X291032Y114839D02*
D03*
X41024Y201969D02*
D03*
X39453Y173736D02*
D03*
X67425Y204193D02*
D03*
X52524Y189945D02*
D03*
X161661Y275177D02*
D03*
X165032Y290646D02*
D03*
X174232Y284543D02*
D03*
X185630Y284594D02*
D03*
X281854Y261496D02*
D03*
X271614Y251413D02*
D03*
X262390Y243441D02*
D03*
X227681Y244847D02*
D03*
X235264Y239453D02*
D03*
X220646Y239374D02*
D03*
X233858Y270173D02*
D03*
X257386Y269705D02*
D03*
X245740Y261421D02*
D03*
X252461Y255008D02*
D03*
X238079Y250476D02*
D03*
X236126Y260012D02*
D03*
X141488Y126020D02*
D03*
X117402Y127681D02*
D03*
X129740Y130768D02*
D03*
X122504Y137768D02*
D03*
X133689Y147079D02*
D03*
X91484Y31496D02*
D03*
X84016Y39898D02*
D03*
Y62295D02*
D03*
X116213Y73961D02*
D03*
X3213Y362642D02*
D03*
X21724Y340039D02*
D03*
X44969Y358551D02*
D03*
X27965Y357689D02*
D03*
X35067Y344776D02*
D03*
X122653Y302764D02*
D03*
X132429Y320917D02*
D03*
X141831D02*
D03*
X122653D02*
D03*
X158579Y250902D02*
D03*
X171721Y225480D02*
D03*
X171343Y240185D02*
D03*
X296153Y205224D02*
D03*
X283787Y227850D02*
D03*
X292681Y236744D02*
D03*
X295890Y222854D02*
D03*
X288142Y213504D02*
D03*
X265165Y199878D02*
D03*
X282736Y178150D02*
D03*
X301949Y172661D02*
D03*
X294996Y144118D02*
D03*
X281638Y156925D02*
D03*
X268831Y165709D02*
D03*
X269012Y176323D02*
D03*
X292433Y163878D02*
D03*
X300665Y91240D02*
D03*
X301217Y68366D02*
D03*
X218000Y63465D02*
D03*
X243937Y31539D02*
D03*
X244740Y63839D02*
D03*
X269272Y64441D02*
D03*
X273520Y31776D02*
D03*
X228768Y26449D02*
D03*
X222634Y26457D02*
D03*
X225709Y24563D02*
D03*
X198059Y92378D02*
D03*
X208024D02*
D03*
X204445Y114457D02*
D03*
X206232Y102047D02*
D03*
X205516Y106642D02*
D03*
X203665Y104134D02*
D03*
X139803Y254339D02*
D03*
X160843Y372146D02*
D03*
X155583D02*
D03*
X149949Y371713D02*
D03*
X144634Y371850D02*
D03*
X157823Y368953D02*
D03*
X147669D02*
D03*
X367905Y1886D02*
D03*
X308480Y1689D02*
D03*
X280842D02*
D03*
X263016D02*
D03*
X228213Y1705D02*
D03*
X210008Y1874D02*
D03*
X4303Y215051D02*
D03*
X3827Y239472D02*
D03*
X390724Y168189D02*
D03*
X258236Y369961D02*
D03*
X281319Y369685D02*
D03*
X339512Y366161D02*
D03*
X299000Y367681D02*
D03*
X316752Y372031D02*
D03*
X388874Y331748D02*
D03*
X373185Y346917D02*
D03*
X355716Y356539D02*
D03*
X354701Y382618D02*
D03*
X344020Y383035D02*
D03*
X318244Y382618D02*
D03*
X280787Y387677D02*
D03*
X258161Y387374D02*
D03*
X391657Y263547D02*
D03*
Y247783D02*
D03*
X391445Y230957D02*
D03*
X391161Y212213D02*
D03*
X390591Y190201D02*
D03*
X390335Y133035D02*
D03*
X390819Y109713D02*
D03*
X390614Y86232D02*
D03*
X390535Y59850D02*
D03*
X390213Y39051D02*
D03*
X52276Y61319D02*
D03*
X4209Y97693D02*
D03*
X4303Y129402D02*
D03*
X4339Y155354D02*
D03*
X4654Y175169D02*
D03*
X4303Y192433D02*
D03*
Y262280D02*
D03*
X5713Y283563D02*
D03*
X6780Y302760D02*
D03*
X6071Y324236D02*
D03*
X6055Y345165D02*
D03*
X93327Y2374D02*
D03*
X186917Y1791D02*
D03*
X67532Y2772D02*
D03*
X30476Y2626D02*
D03*
X157224Y2173D02*
D03*
X126567Y2276D02*
D03*
X26874Y76587D02*
D03*
X20165Y53614D02*
D03*
X5075Y64153D02*
D03*
X84071Y110508D02*
D03*
X85028Y124752D02*
D03*
X95362Y135087D02*
D03*
X105004Y145902D02*
D03*
X128898Y169772D02*
D03*
X136736Y177465D02*
D03*
X145031Y185531D02*
D03*
X133228Y226307D02*
D03*
X154445Y267917D02*
D03*
X144244D02*
D03*
X128213Y334221D02*
D03*
X122634D02*
D03*
X125465Y335831D02*
D03*
X67402Y151618D02*
D03*
X62468Y144673D02*
D03*
X57902Y134260D02*
D03*
X57721Y122382D02*
D03*
Y111421D02*
D03*
X84760Y168063D02*
D03*
X99378Y182862D02*
D03*
X104858Y188342D02*
D03*
X111071Y195835D02*
D03*
X117283Y203508D02*
D03*
X123681Y210268D02*
D03*
X49862Y269626D02*
D03*
X52157Y274590D02*
D03*
Y264799D02*
D03*
X51559Y368311D02*
D03*
X51268Y373823D02*
D03*
X48370Y370850D02*
D03*
X111665Y300716D02*
D03*
X111835Y279795D02*
D03*
X382953Y374193D02*
D03*
X374079Y382720D02*
D03*
X365079Y373839D02*
D03*
X373780Y364898D02*
D03*
X281413Y142661D02*
D03*
X278669Y143925D02*
D03*
X278583Y140965D02*
D03*
D109*
X321126Y39760D02*
D03*
D110*
X374016Y374016D02*
D03*
X19685Y19685D02*
D03*
Y374016D02*
D03*
X374016Y19685D02*
D03*
D111*
X138272Y223461D02*
D03*
D112*
X201957Y64417D02*
D03*
X302528Y297335D02*
D03*
D113*
X235635Y158651D02*
D03*
X244039Y166209D02*
D03*
D114*
X120520Y52209D02*
D03*
X135330Y67019D02*
D03*
M02*
