G04*
G04 #@! TF.GenerationSoftware,Altium Limited,Altium Designer,22.9.1 (49)*
G04*
G04 Layer_Physical_Order=1*
G04 Layer_Color=255*
%FSLAX25Y25*%
%MOIN*%
G70*
G04*
G04 #@! TF.SameCoordinates,F91FD0B8-2741-413C-87D7-DF85A8DA950D*
G04*
G04*
G04 #@! TF.FilePolarity,Positive*
G04*
G01*
G75*
%ADD12C,0.01181*%
G04:AMPARAMS|DCode=15|XSize=59.06mil|YSize=157.48mil|CornerRadius=14.76mil|HoleSize=0mil|Usage=FLASHONLY|Rotation=180.000|XOffset=0mil|YOffset=0mil|HoleType=Round|Shape=RoundedRectangle|*
%AMROUNDEDRECTD15*
21,1,0.05906,0.12795,0,0,180.0*
21,1,0.02953,0.15748,0,0,180.0*
1,1,0.02953,-0.01476,0.06398*
1,1,0.02953,0.01476,0.06398*
1,1,0.02953,0.01476,-0.06398*
1,1,0.02953,-0.01476,-0.06398*
%
%ADD15ROUNDEDRECTD15*%
%ADD16R,0.04724X0.07087*%
%ADD17R,0.07087X0.04724*%
%ADD18R,0.06299X0.08583*%
%ADD19R,0.06693X0.04331*%
%ADD20R,0.03150X0.05512*%
%ADD21R,0.03740X0.02362*%
%ADD22R,0.02362X0.03740*%
%ADD23R,0.04331X0.03150*%
%ADD24R,0.09843X0.07087*%
%ADD25R,0.05512X0.03150*%
%ADD26R,0.01968X0.05906*%
%ADD27R,0.01968X0.01378*%
%ADD28R,0.05906X0.01968*%
%ADD29R,0.07087X0.09843*%
%ADD30R,0.06299X0.02756*%
%ADD31R,0.07874X0.03543*%
%ADD32R,0.05236X0.05236*%
%ADD33R,0.03543X0.07874*%
G04:AMPARAMS|DCode=34|XSize=111.42mil|YSize=48.03mil|CornerRadius=6mil|HoleSize=0mil|Usage=FLASHONLY|Rotation=270.000|XOffset=0mil|YOffset=0mil|HoleType=Round|Shape=RoundedRectangle|*
%AMROUNDEDRECTD34*
21,1,0.11142,0.03602,0,0,270.0*
21,1,0.09941,0.04803,0,0,270.0*
1,1,0.01201,-0.01801,-0.04970*
1,1,0.01201,-0.01801,0.04970*
1,1,0.01201,0.01801,0.04970*
1,1,0.01201,0.01801,-0.04970*
%
%ADD34ROUNDEDRECTD34*%
%ADD35R,0.08150X0.13819*%
G04:AMPARAMS|DCode=36|XSize=149.21mil|YSize=38.98mil|CornerRadius=4.87mil|HoleSize=0mil|Usage=FLASHONLY|Rotation=90.000|XOffset=0mil|YOffset=0mil|HoleType=Round|Shape=RoundedRectangle|*
%AMROUNDEDRECTD36*
21,1,0.14921,0.02923,0,0,90.0*
21,1,0.13947,0.03898,0,0,90.0*
1,1,0.00974,0.01462,0.06973*
1,1,0.00974,0.01462,-0.06973*
1,1,0.00974,-0.01462,-0.06973*
1,1,0.00974,-0.01462,0.06973*
%
%ADD36ROUNDEDRECTD36*%
%ADD37R,0.04331X0.06693*%
%ADD38R,0.17717X0.07874*%
%ADD39R,0.07874X0.07874*%
G04:AMPARAMS|DCode=40|XSize=59.06mil|YSize=157.48mil|CornerRadius=14.76mil|HoleSize=0mil|Usage=FLASHONLY|Rotation=90.000|XOffset=0mil|YOffset=0mil|HoleType=Round|Shape=RoundedRectangle|*
%AMROUNDEDRECTD40*
21,1,0.05906,0.12795,0,0,90.0*
21,1,0.02953,0.15748,0,0,90.0*
1,1,0.02953,0.06398,0.01476*
1,1,0.02953,0.06398,-0.01476*
1,1,0.02953,-0.06398,-0.01476*
1,1,0.02953,-0.06398,0.01476*
%
%ADD40ROUNDEDRECTD40*%
G04:AMPARAMS|DCode=41|XSize=74.8mil|YSize=132.68mil|CornerRadius=2.62mil|HoleSize=0mil|Usage=FLASHONLY|Rotation=90.000|XOffset=0mil|YOffset=0mil|HoleType=Round|Shape=RoundedRectangle|*
%AMROUNDEDRECTD41*
21,1,0.07480,0.12744,0,0,90.0*
21,1,0.06957,0.13268,0,0,90.0*
1,1,0.00524,0.06372,0.03478*
1,1,0.00524,0.06372,-0.03478*
1,1,0.00524,-0.06372,-0.03478*
1,1,0.00524,-0.06372,0.03478*
%
%ADD41ROUNDEDRECTD41*%
G04:AMPARAMS|DCode=42|XSize=74.8mil|YSize=132.68mil|CornerRadius=2.62mil|HoleSize=0mil|Usage=FLASHONLY|Rotation=0.000|XOffset=0mil|YOffset=0mil|HoleType=Round|Shape=RoundedRectangle|*
%AMROUNDEDRECTD42*
21,1,0.07480,0.12744,0,0,0.0*
21,1,0.06957,0.13268,0,0,0.0*
1,1,0.00524,0.03478,-0.06372*
1,1,0.00524,-0.03478,-0.06372*
1,1,0.00524,-0.03478,0.06372*
1,1,0.00524,0.03478,0.06372*
%
%ADD42ROUNDEDRECTD42*%
%ADD43R,0.08858X0.07874*%
%ADD44R,0.03937X0.07874*%
%ADD45R,0.02441X0.03701*%
G04:AMPARAMS|DCode=90|XSize=240.16mil|YSize=221.65mil|CornerRadius=27.71mil|HoleSize=0mil|Usage=FLASHONLY|Rotation=270.000|XOffset=0mil|YOffset=0mil|HoleType=Round|Shape=RoundedRectangle|*
%AMROUNDEDRECTD90*
21,1,0.24016,0.16624,0,0,270.0*
21,1,0.18474,0.22165,0,0,270.0*
1,1,0.05541,-0.08312,-0.09237*
1,1,0.05541,-0.08312,0.09237*
1,1,0.05541,0.08312,0.09237*
1,1,0.05541,0.08312,-0.09237*
%
%ADD90ROUNDEDRECTD90*%
%ADD91R,0.42677X0.30000*%
%ADD92C,0.03150*%
%ADD93C,0.01772*%
%ADD94C,0.02362*%
%ADD95C,0.01575*%
%ADD96C,0.03937*%
%ADD97C,0.04724*%
%ADD98C,0.05906*%
%ADD99C,0.01968*%
%ADD100C,0.07874*%
%ADD101C,0.02756*%
%ADD102C,0.07874*%
%ADD103R,0.05906X0.05906*%
%ADD104C,0.05906*%
%ADD105C,0.01575*%
%ADD106O,0.19685X0.11811*%
%ADD107O,0.17717X0.15748*%
%ADD108C,0.01181*%
%ADD109C,0.05512*%
%ADD110C,0.23622*%
%ADD111C,0.03937*%
%ADD112C,0.11811*%
%ADD113C,0.09843*%
G36*
X393500Y375661D02*
Y18547D01*
X375193Y240D01*
X350399D01*
X350122Y656D01*
X350225Y904D01*
X350329Y1701D01*
Y14496D01*
X350225Y15293D01*
X349917Y16035D01*
X349428Y16672D01*
X348791Y17161D01*
X348048Y17469D01*
X347252Y17574D01*
X344299D01*
X343503Y17469D01*
X342993Y17257D01*
X342709Y17681D01*
X359528Y34500D01*
X363996D01*
Y44736D01*
X359091D01*
X358900Y45198D01*
X365383Y51681D01*
X374370D01*
Y63413D01*
X364921D01*
Y60327D01*
X360051D01*
Y60866D01*
X351390D01*
Y60327D01*
X349427D01*
X342252Y67502D01*
Y72760D01*
X342157Y73479D01*
X342032Y73783D01*
Y77287D01*
X337451D01*
Y79016D01*
X337349Y79787D01*
X337052Y80505D01*
X336578Y81122D01*
X335268Y82432D01*
X335460Y82894D01*
X337051D01*
Y90768D01*
X317425D01*
Y82894D01*
X320330D01*
Y81448D01*
X320431Y80677D01*
X320729Y79958D01*
X321202Y79342D01*
X326494Y74050D01*
Y72760D01*
X326494Y72760D01*
X326596Y71989D01*
X326893Y71271D01*
X326913Y71244D01*
Y68850D01*
X326809Y68807D01*
X325457D01*
X325433Y68783D01*
Y63441D01*
X292426D01*
X259729Y96138D01*
X259535Y96605D01*
Y97308D01*
X274614Y112386D01*
X290554Y128327D01*
X291186Y128589D01*
X292009Y129220D01*
X292640Y130042D01*
X293037Y131000D01*
X293172Y132028D01*
Y135551D01*
X294319D01*
Y143425D01*
X289459D01*
X289201Y143459D01*
X288943Y143425D01*
X284083D01*
Y135551D01*
X285230D01*
Y133111D01*
X275328Y123209D01*
X274866Y123401D01*
Y131181D01*
X275287D01*
Y139842D01*
X274866D01*
Y147902D01*
X275016Y148017D01*
X275350Y148126D01*
X276364Y147112D01*
X276898Y146702D01*
X277521Y146444D01*
X278189Y146356D01*
X284083D01*
Y145000D01*
X294319D01*
Y152874D01*
X284083D01*
Y151518D01*
X279258D01*
X277136Y153640D01*
X276602Y154050D01*
X275979Y154308D01*
X275532Y154367D01*
Y154661D01*
X274843D01*
Y159287D01*
X262370D01*
Y159957D01*
X264709D01*
Y170193D01*
X256835D01*
Y164074D01*
X256811Y163894D01*
Y159287D01*
X253583D01*
Y159287D01*
X253152Y159109D01*
X250290Y161972D01*
X250228Y162243D01*
X250133Y162831D01*
X249978Y165201D01*
X249980Y166134D01*
X249961Y166230D01*
Y166792D01*
X249733Y167936D01*
X249287Y169013D01*
X248639Y169983D01*
X247814Y170808D01*
X246844Y171456D01*
X245766Y171902D01*
X244623Y172130D01*
X244509D01*
X244506Y172131D01*
X243835Y172198D01*
X243227Y172292D01*
X242655Y172416D01*
X242119Y172567D01*
X241803Y172680D01*
X234024Y180460D01*
Y183209D01*
X235039D01*
X235737Y182920D01*
X236559Y182811D01*
X242667D01*
X243489Y182920D01*
X244255Y183237D01*
X244913Y183742D01*
X250140Y188969D01*
X250645Y189626D01*
X250962Y190393D01*
X251070Y191215D01*
Y199078D01*
X258190Y206197D01*
X258830Y206138D01*
X258938Y205977D01*
X259545Y205571D01*
X260262Y205429D01*
X273006D01*
X273723Y205571D01*
X274330Y205977D01*
X274736Y206585D01*
X274879Y207301D01*
Y214258D01*
X274736Y214974D01*
X274330Y215582D01*
X273723Y215988D01*
X273006Y216130D01*
X261084D01*
X260892Y216592D01*
X265158Y220859D01*
X273386D01*
X274208Y220967D01*
X274974Y221284D01*
X275632Y221789D01*
X276605Y222762D01*
X306446Y252603D01*
X307777D01*
X307984Y252103D01*
X305570Y249690D01*
X305349Y249359D01*
X305272Y248969D01*
Y237244D01*
X305349Y236854D01*
X305504Y236623D01*
Y235878D01*
X315740D01*
Y237066D01*
X315957Y237283D01*
X316178Y237614D01*
X316256Y238004D01*
Y249776D01*
X316494Y249972D01*
X329238D01*
X329955Y250114D01*
X330562Y250520D01*
X330968Y251128D01*
X331111Y251845D01*
Y252603D01*
X373358D01*
X374181Y252711D01*
X374947Y253028D01*
X375605Y253533D01*
X389423Y267352D01*
X389928Y268010D01*
X390246Y268776D01*
X390354Y269598D01*
Y306042D01*
X390246Y306864D01*
X389928Y307630D01*
X389423Y308288D01*
X359796Y337916D01*
X359138Y338421D01*
X358372Y338738D01*
X357549Y338846D01*
X314873D01*
X314819Y339343D01*
X315681Y339700D01*
X316421Y340268D01*
X323629Y347477D01*
X324197Y348217D01*
X324554Y349079D01*
X324676Y350004D01*
Y351212D01*
X324755Y351273D01*
X325244Y351910D01*
X325551Y352652D01*
X325656Y353449D01*
Y366244D01*
X325551Y367041D01*
X325244Y367783D01*
X324755Y368420D01*
X324117Y368909D01*
X323375Y369217D01*
X322579Y369322D01*
X319626D01*
X318829Y369217D01*
X318087Y368909D01*
X317464Y368431D01*
X317337Y368350D01*
X316954D01*
X316828Y368431D01*
X316204Y368909D01*
X315462Y369217D01*
X314665Y369322D01*
X311713D01*
X310916Y369217D01*
X310174Y368909D01*
X309537Y368420D01*
X309047Y367783D01*
X308740Y367041D01*
X308635Y366244D01*
Y353449D01*
X308740Y352652D01*
X309047Y351910D01*
X309118Y351818D01*
X308897Y351369D01*
X301528D01*
X301395Y351618D01*
X301329Y351869D01*
X301697Y352419D01*
X301839Y353136D01*
Y360092D01*
X301697Y360809D01*
X301291Y361417D01*
X300683Y361823D01*
X299967Y361965D01*
X287222D01*
X286506Y361823D01*
X285898Y361417D01*
X285492Y360809D01*
X285350Y360092D01*
Y355972D01*
X261531D01*
X261324Y356472D01*
X261884Y357032D01*
X262534Y358157D01*
X262870Y359413D01*
Y360713D01*
X262534Y361969D01*
X261884Y363094D01*
X260964Y364014D01*
X259839Y364664D01*
X258583Y365000D01*
X257283D01*
X256028Y364664D01*
X254902Y364014D01*
X253982Y363094D01*
X253332Y361969D01*
X253065Y360972D01*
X243077D01*
Y361142D01*
X232053D01*
Y354449D01*
Y349449D01*
Y344449D01*
Y339449D01*
Y334449D01*
Y329449D01*
Y324449D01*
Y319449D01*
Y314449D01*
Y309449D01*
Y304449D01*
Y299449D01*
Y294449D01*
X243077D01*
Y294619D01*
X259173D01*
Y289488D01*
X268622D01*
Y294240D01*
X273823D01*
Y293480D01*
X284059D01*
Y298335D01*
X284521Y298526D01*
X288189Y294858D01*
X288930Y294290D01*
X289792Y293933D01*
X290717Y293811D01*
X294963D01*
X295052Y293778D01*
X295673Y293498D01*
X296302Y293169D01*
X297654Y292319D01*
X298109Y291987D01*
X298126Y291971D01*
X298200Y291921D01*
X298351Y291811D01*
X298396Y291790D01*
X299257Y291215D01*
X300513Y290694D01*
X301847Y290429D01*
X303208D01*
X304542Y290694D01*
X305799Y291215D01*
X306930Y291971D01*
X307891Y292933D01*
X308647Y294064D01*
X309168Y295320D01*
X309433Y296655D01*
Y298015D01*
X309168Y299349D01*
X308647Y300606D01*
X307891Y301737D01*
X306930Y302698D01*
X305799Y303454D01*
X304542Y303975D01*
X303819Y304118D01*
X303869Y304619D01*
X329822D01*
X330208Y304232D01*
X330221Y304198D01*
X330436Y303464D01*
X330630Y302637D01*
X330747Y301855D01*
X330361Y300582D01*
X330189Y298843D01*
X330361Y297103D01*
X330868Y295430D01*
X331692Y293888D01*
X332801Y292537D01*
X334152Y291428D01*
X335694Y290604D01*
X337367Y290097D01*
X339106Y289926D01*
X341075D01*
X342814Y290097D01*
X344487Y290604D01*
X346029Y291428D01*
X347380Y292537D01*
X348489Y293888D01*
X349313Y295430D01*
X349702Y296711D01*
X350224D01*
X350553Y295627D01*
X351377Y294085D01*
X352486Y292734D01*
X353837Y291625D01*
X355379Y290801D01*
X357052Y290294D01*
X358791Y290122D01*
X360760D01*
X362499Y290294D01*
X364172Y290801D01*
X365714Y291625D01*
X367065Y292734D01*
X368174Y294085D01*
X368998Y295627D01*
X369506Y297300D01*
X369677Y299039D01*
X369506Y300779D01*
X368998Y302452D01*
X368174Y303993D01*
X367065Y305345D01*
X365714Y306453D01*
X364172Y307278D01*
X362499Y307785D01*
X360760Y307956D01*
X360354D01*
X358192Y308315D01*
X355827Y308862D01*
X354838Y309158D01*
X353961Y309471D01*
X353743Y309565D01*
X348266Y315042D01*
X347608Y315546D01*
X346842Y315864D01*
X346020Y315972D01*
X272281D01*
X272182Y316209D01*
X272114Y316472D01*
X272746Y317567D01*
X273083Y318823D01*
Y320122D01*
X272746Y321378D01*
X272096Y322504D01*
X271177Y323423D01*
X270051Y324073D01*
X268796Y324410D01*
X267496D01*
X266240Y324073D01*
X265114Y323423D01*
X264195Y322504D01*
X264146Y322418D01*
X263911Y322142D01*
X263535Y321744D01*
X263171Y321401D01*
X262820Y321111D01*
X262622Y320972D01*
X260122D01*
X259931Y321434D01*
X262256Y323759D01*
X262422Y323819D01*
X262832Y323937D01*
X263262Y324035D01*
X263545Y324083D01*
X263674D01*
X264929Y324419D01*
X266055Y325069D01*
X266974Y325988D01*
X267624Y327114D01*
X267961Y328370D01*
Y329670D01*
X267624Y330925D01*
X266974Y332051D01*
X266055Y332970D01*
X264929Y333620D01*
X263674Y333957D01*
X262374D01*
X261118Y333620D01*
X259992Y332970D01*
X259073Y332051D01*
X258423Y330925D01*
X258087Y329670D01*
Y329541D01*
X258039Y329258D01*
X257941Y328828D01*
X257823Y328418D01*
X257763Y328252D01*
X255483Y325972D01*
X253421D01*
X253287Y326472D01*
X253598Y326652D01*
X254518Y327571D01*
X255168Y328697D01*
X255504Y329952D01*
Y331252D01*
X255168Y332508D01*
X254518Y333634D01*
X254033Y334119D01*
X254240Y334618D01*
X276591D01*
X284806Y326403D01*
X285465Y325898D01*
X286231Y325581D01*
X287053Y325473D01*
X353326D01*
X376981Y301818D01*
Y275021D01*
X367952Y265992D01*
X318452D01*
X318231Y266083D01*
X310504Y273811D01*
X309763Y274378D01*
X308901Y274736D01*
X307976Y274857D01*
X305685D01*
Y276401D01*
X305685D01*
X305748Y276669D01*
X305748Y276669D01*
X305748Y276875D01*
Y286906D01*
X298643D01*
X296906Y288642D01*
X296575Y288863D01*
X296185Y288941D01*
X284059D01*
Y291905D01*
X273823D01*
Y284032D01*
X274291D01*
Y282599D01*
X272440Y279560D01*
X272413Y279486D01*
X272369Y279420D01*
X272345Y279300D01*
X272304Y279186D01*
X272307Y279107D01*
X272291Y279030D01*
Y274648D01*
Y273083D01*
X272369Y272692D01*
X272590Y272362D01*
X279342Y265610D01*
X279673Y265389D01*
X280063Y265311D01*
X287996D01*
X288188Y264849D01*
X261896Y238557D01*
X257969D01*
X257642Y238692D01*
Y245736D01*
X247406D01*
Y237862D01*
X257322D01*
X257566Y237862D01*
X257642Y237786D01*
Y236287D01*
X247406D01*
Y232590D01*
X243661D01*
X242740Y232406D01*
X242715Y232390D01*
X241047D01*
Y227862D01*
Y225303D01*
Y222744D01*
X242879D01*
X243606Y222599D01*
X257261D01*
X257452Y222137D01*
X241685Y206371D01*
X241185Y206578D01*
Y210709D01*
X237061D01*
X236854Y210736D01*
X233328D01*
X221804Y222260D01*
X221811Y222379D01*
X222003Y222768D01*
X229827D01*
X230649Y222876D01*
X230748Y222917D01*
X232142D01*
Y223387D01*
X233232D01*
X234154Y223570D01*
X234935Y224092D01*
X236001Y225158D01*
X237307D01*
X238035Y225303D01*
X239866D01*
Y229831D01*
X238395D01*
X238210Y230331D01*
X238315Y230421D01*
X239866D01*
Y234949D01*
X238035D01*
X237307Y235093D01*
X232189D01*
Y236185D01*
X223528D01*
Y235444D01*
X210732D01*
X209927Y236249D01*
X210081Y236620D01*
X210270Y238059D01*
Y242098D01*
X210270Y242098D01*
X210126Y243192D01*
Y244795D01*
X209937Y246234D01*
X209918Y246280D01*
Y251167D01*
X209775Y251884D01*
X209369Y252491D01*
X208762Y252897D01*
X208045Y253040D01*
X201089D01*
X200372Y252897D01*
X200218Y252795D01*
X199777Y253030D01*
Y263387D01*
X199803Y263398D01*
X213442D01*
X213913Y263336D01*
X214385Y263398D01*
X218839D01*
Y270410D01*
X218865Y270445D01*
X219339Y270746D01*
X219567Y270697D01*
X219858Y270318D01*
Y263307D01*
X229701D01*
Y270697D01*
X229803D01*
Y278571D01*
Y280146D01*
Y288020D01*
X229803Y288020D01*
X229947Y288347D01*
X229947Y288347D01*
X229947Y288460D01*
Y299370D01*
X183254D01*
Y288347D01*
X188424D01*
Y253022D01*
X187983Y252787D01*
X187817Y252897D01*
X187305Y252999D01*
X176481Y263823D01*
X176150Y264044D01*
X175760Y264122D01*
X125005Y264122D01*
X118716Y270410D01*
Y328855D01*
X118712Y328876D01*
X118716Y328897D01*
X118674Y329070D01*
X118639Y329246D01*
X118627Y329263D01*
X118622Y329283D01*
X113653Y340024D01*
X113923Y340445D01*
X119673D01*
Y344170D01*
X121213D01*
Y343937D01*
X129874D01*
Y344170D01*
X134039D01*
X134059Y344152D01*
Y342504D01*
X143508D01*
Y349221D01*
X165124D01*
Y344449D01*
Y339449D01*
Y335972D01*
X161623D01*
X158351Y339244D01*
X158292Y339410D01*
X158173Y339820D01*
X158075Y340250D01*
X158028Y340534D01*
Y340662D01*
X157691Y341917D01*
X157041Y343043D01*
X156122Y343962D01*
X154996Y344612D01*
X153741Y344949D01*
X152441D01*
X151185Y344612D01*
X150059Y343962D01*
X149140Y343043D01*
X148490Y341917D01*
X148153Y340662D01*
Y339362D01*
X148490Y338106D01*
X149140Y336980D01*
X150059Y336061D01*
X151185Y335411D01*
X151375Y335360D01*
Y334860D01*
X151244Y334825D01*
X150118Y334175D01*
X149199Y333256D01*
X148549Y332130D01*
X148213Y330874D01*
Y329574D01*
X148549Y328319D01*
X149199Y327193D01*
X150006Y326386D01*
X149848Y325886D01*
X146547D01*
Y318012D01*
X156783D01*
Y318051D01*
X165124D01*
Y314449D01*
Y309394D01*
X161040D01*
X160320Y309299D01*
X159650Y309021D01*
X159074Y308580D01*
X157145Y306651D01*
X156783Y306996D01*
Y308563D01*
Y316437D01*
X146547D01*
Y308669D01*
X136625D01*
X135906Y308575D01*
X135236Y308297D01*
X134660Y307855D01*
X133833Y307029D01*
X133730Y307039D01*
X133483Y307086D01*
X133175Y307173D01*
X133174Y307173D01*
X133172Y307174D01*
X133095Y307179D01*
X132339Y307382D01*
X131039D01*
X129783Y307045D01*
X128658Y306396D01*
X127738Y305476D01*
X127088Y304350D01*
X126752Y303095D01*
Y301795D01*
X127088Y300539D01*
X127738Y299413D01*
X128658Y298494D01*
X129783Y297844D01*
X131039Y297508D01*
X131983D01*
X132317Y297008D01*
X132244Y296833D01*
X132150Y296113D01*
Y288150D01*
X130126D01*
Y280276D01*
X140362D01*
Y280366D01*
X149622D01*
Y280453D01*
X159587D01*
Y288327D01*
X159945Y288685D01*
Y289799D01*
X160271Y289842D01*
X160941Y290120D01*
X161517Y290562D01*
X165404Y294449D01*
X176148D01*
Y299449D01*
Y304449D01*
Y309449D01*
Y314449D01*
Y319449D01*
Y324449D01*
Y329449D01*
Y334449D01*
Y339449D01*
Y344449D01*
Y349449D01*
Y354449D01*
Y361142D01*
X171816D01*
X171561Y361247D01*
X170636Y361369D01*
X105098D01*
X104174Y361247D01*
X103312Y360890D01*
X102571Y360322D01*
X99366Y357117D01*
X98904Y357308D01*
Y368327D01*
X98769Y369355D01*
X98372Y370312D01*
X97741Y371135D01*
X94973Y373902D01*
X94151Y374533D01*
X93193Y374930D01*
X92166Y375065D01*
X89665D01*
Y376366D01*
X81791D01*
Y371506D01*
X81757Y371248D01*
Y371094D01*
X81791Y370836D01*
Y366130D01*
X89665D01*
Y367124D01*
X90521D01*
X90962Y366682D01*
Y356272D01*
X57748D01*
Y323122D01*
X102176D01*
X104275Y321229D01*
X104760Y320743D01*
X105343Y256144D01*
X105382Y255954D01*
X105420Y255763D01*
X105423Y255760D01*
X105424Y255755D01*
X105533Y255594D01*
X105641Y255433D01*
X123957Y237117D01*
Y225972D01*
X124034Y225582D01*
X124255Y225252D01*
X136248Y213259D01*
X136578Y213038D01*
X136969Y212961D01*
X143710D01*
X143742Y212967D01*
X143775Y212963D01*
X143936Y213006D01*
X144100Y213038D01*
X144127Y213057D01*
X144159Y213065D01*
X144292Y213167D01*
X144431Y213259D01*
X144449Y213287D01*
X144475Y213307D01*
X147655Y216921D01*
X149268D01*
Y225583D01*
X148732D01*
Y227012D01*
X148702Y227165D01*
X148906Y227665D01*
X148906D01*
Y233177D01*
X142016D01*
Y227665D01*
X142642D01*
Y224917D01*
X142719Y224527D01*
X142940Y224196D01*
X142968Y224168D01*
Y218470D01*
X142030Y217531D01*
X138702D01*
X129524Y226710D01*
Y237503D01*
X131949Y239928D01*
X132449Y239721D01*
Y233709D01*
X141110D01*
Y237484D01*
X145461D01*
X145641Y237508D01*
X148906D01*
Y242429D01*
Y247941D01*
X145641D01*
X145461Y247965D01*
X141347D01*
Y248406D01*
X132685D01*
X132673Y248394D01*
X130808D01*
X130631Y248570D01*
X130631Y248570D01*
X130631Y248570D01*
X130461Y248741D01*
X123837Y255365D01*
X124028Y255827D01*
X160708D01*
X177397Y239137D01*
X177481Y239082D01*
X177552Y239011D01*
X177644Y238972D01*
X177728Y238916D01*
X177826Y238897D01*
X177919Y238858D01*
X178020D01*
X178118Y238839D01*
X178273Y238360D01*
Y214350D01*
X164484Y200560D01*
X163268Y200234D01*
X162142Y199584D01*
X161223Y198665D01*
X160573Y197539D01*
X160236Y196284D01*
Y194984D01*
X160246Y194946D01*
X88745Y123445D01*
X88177Y122705D01*
X87820Y121843D01*
X87698Y120918D01*
Y84566D01*
X60906Y57774D01*
X49150D01*
X48775Y57929D01*
X47979Y58034D01*
X47619D01*
X47427Y58113D01*
X46502Y58235D01*
X42762D01*
X41837Y58113D01*
X41646Y58034D01*
X35183D01*
X34387Y57929D01*
X33645Y57622D01*
X33007Y57133D01*
X32518Y56495D01*
X32211Y55753D01*
X32106Y54957D01*
Y52004D01*
X32211Y51207D01*
X32518Y50465D01*
X33007Y49828D01*
X33645Y49339D01*
X34387Y49031D01*
X35183Y48926D01*
X39171D01*
Y46928D01*
X39293Y46003D01*
X39650Y45141D01*
X40218Y44401D01*
X79587Y5032D01*
X80327Y4464D01*
X81189Y4107D01*
X82114Y3985D01*
X183894D01*
X184819Y4107D01*
X185681Y4464D01*
X186421Y5032D01*
X193771Y12382D01*
X207220D01*
Y22618D01*
X206857D01*
Y30968D01*
X206842Y31088D01*
Y32953D01*
X206811Y33185D01*
Y38465D01*
X199724D01*
Y33185D01*
X199694Y32953D01*
Y30984D01*
X199710Y30865D01*
Y23271D01*
X199248Y23080D01*
X198961Y23367D01*
Y23071D01*
X198461Y22618D01*
X189898D01*
Y18617D01*
X182413Y11133D01*
X83595D01*
X46319Y48409D01*
Y48926D01*
X47979D01*
X48775Y49031D01*
X49517Y49339D01*
X50155Y49828D01*
X50644Y50465D01*
X50710Y50626D01*
X62386D01*
X63311Y50748D01*
X64173Y51105D01*
X64913Y51673D01*
X87236Y73996D01*
X87698Y73804D01*
Y49196D01*
X87820Y48271D01*
X88177Y47409D01*
X88745Y46669D01*
X110673Y24741D01*
X110730Y24529D01*
X111250Y23628D01*
X111986Y22892D01*
X112888Y22372D01*
X113893Y22102D01*
X114934D01*
X115939Y22372D01*
X116840Y22892D01*
X117576Y23628D01*
X118097Y24529D01*
X118366Y25535D01*
Y26575D01*
X118097Y27581D01*
X117576Y28482D01*
X116840Y29218D01*
X115939Y29739D01*
X115727Y29795D01*
X94846Y50677D01*
Y83086D01*
Y119438D01*
X162606Y187197D01*
X163068Y187006D01*
Y138319D01*
X163190Y137394D01*
X163547Y136532D01*
X164115Y135792D01*
X179328Y120579D01*
Y117134D01*
X179358Y116902D01*
Y109063D01*
X187944D01*
X190228Y106779D01*
Y103293D01*
X190173Y103220D01*
X189816Y102358D01*
X189694Y101433D01*
Y92205D01*
X189724Y91973D01*
Y86693D01*
X196811D01*
Y91973D01*
X196842Y92205D01*
Y100706D01*
X196952Y101543D01*
X196830Y102468D01*
X196528Y103199D01*
Y108327D01*
X196087D01*
Y109807D01*
X196622D01*
Y118468D01*
X191521D01*
X189594Y120395D01*
Y122055D01*
X199539D01*
X210091Y111503D01*
Y97716D01*
X209724D01*
Y86693D01*
X226811D01*
Y86819D01*
X259925D01*
X260319Y86562D01*
X288864Y58017D01*
X289522Y57513D01*
X290288Y57195D01*
X291110Y57087D01*
X321832D01*
X321913Y56890D01*
Y53698D01*
X321585Y53370D01*
X309650D01*
X309259Y53292D01*
X308929Y53071D01*
X307070Y51213D01*
X306849Y50882D01*
X306772Y50492D01*
Y44993D01*
X306740Y44835D01*
X306818Y44445D01*
X307039Y44114D01*
X308366Y42786D01*
Y42234D01*
X308147Y42066D01*
X307658Y41429D01*
X307350Y40686D01*
X307245Y39890D01*
Y27095D01*
X307350Y26298D01*
X307658Y25556D01*
X308147Y24918D01*
X308784Y24429D01*
X309526Y24122D01*
X310323Y24017D01*
X313276D01*
X314072Y24122D01*
X314814Y24429D01*
X315452Y24918D01*
X315663Y25194D01*
X316163D01*
X316375Y24918D01*
X317012Y24429D01*
X317755Y24122D01*
X318551Y24017D01*
X321504D01*
X322301Y24122D01*
X323043Y24429D01*
X323680Y24918D01*
X323734Y24989D01*
X324234D01*
X324289Y24918D01*
X324926Y24429D01*
X325533Y24178D01*
Y20890D01*
X325716Y19968D01*
X326238Y19187D01*
X330553Y14872D01*
X331334Y14350D01*
X332256Y14166D01*
X338197D01*
X339119Y14350D01*
X339900Y14872D01*
X341114Y16086D01*
X341538Y15803D01*
X341327Y15293D01*
X341222Y14496D01*
Y1701D01*
X341327Y904D01*
X341429Y656D01*
X341152Y240D01*
X298726D01*
X298448Y656D01*
X298551Y904D01*
X298656Y1701D01*
Y14496D01*
X298551Y15293D01*
X298244Y16035D01*
X297755Y16672D01*
X297117Y17161D01*
X296375Y17469D01*
X295579Y17574D01*
X292626D01*
X291829Y17469D01*
X291087Y17161D01*
X290450Y16672D01*
X289961Y16035D01*
X289653Y15293D01*
X289548Y14496D01*
Y1701D01*
X289653Y904D01*
X289756Y656D01*
X289478Y240D01*
X18996D01*
Y457D01*
X193Y19260D01*
X291Y19358D01*
Y360774D01*
X347Y360799D01*
X303Y360842D01*
X303Y361329D01*
Y375256D01*
X17945Y393347D01*
X166909D01*
Y368571D01*
X167648Y367833D01*
Y367480D01*
X167725Y367090D01*
X167946Y366759D01*
X168277Y366538D01*
X168667Y366461D01*
X239533D01*
X239924Y366538D01*
X240254Y366759D01*
X240475Y367090D01*
X240532Y367374D01*
X241154D01*
X244508Y370728D01*
Y393347D01*
X290742D01*
X291076Y392846D01*
X290905Y392434D01*
X290800Y391638D01*
Y378842D01*
X290905Y378046D01*
X291213Y377304D01*
X291702Y376666D01*
X292339Y376177D01*
X293081Y375870D01*
X293878Y375765D01*
X296831D01*
X297627Y375870D01*
X298370Y376177D01*
X299007Y376666D01*
X299496Y377304D01*
X299803Y378046D01*
X299908Y378842D01*
Y391638D01*
X299803Y392434D01*
X299633Y392846D01*
X299967Y393347D01*
X333485D01*
X333717Y392846D01*
X333464Y392237D01*
X333360Y391441D01*
Y378646D01*
X333464Y377849D01*
X333772Y377107D01*
X334261Y376469D01*
X334898Y375980D01*
X335641Y375673D01*
X336437Y375568D01*
X339390D01*
X340186Y375673D01*
X340929Y375980D01*
X341566Y376469D01*
X342055Y377107D01*
X342362Y377849D01*
X342467Y378646D01*
Y391441D01*
X342362Y392237D01*
X342110Y392846D01*
X342341Y393347D01*
X375815D01*
X393500Y375661D01*
D02*
G37*
G36*
X88119Y374528D02*
X88242Y374303D01*
X88446Y374105D01*
X88732Y373933D01*
X89100Y373787D01*
X89550Y373668D01*
X90081Y373576D01*
X90694Y373510D01*
X92166Y373457D01*
Y368732D01*
X91389Y368722D01*
X89550Y368570D01*
X89100Y368478D01*
X88732Y368367D01*
X88446Y368235D01*
X88242Y368082D01*
X88119Y367910D01*
X88079Y367717D01*
Y374779D01*
X88119Y374528D01*
D02*
G37*
G36*
X241522Y359520D02*
X241616Y359488D01*
X241773Y359461D01*
X241994Y359437D01*
X243033Y359387D01*
X244640Y359370D01*
Y356221D01*
X244041Y356219D01*
X241522Y356071D01*
X241490Y356036D01*
Y359555D01*
X241522Y359520D01*
D02*
G37*
G36*
Y354520D02*
X241616Y354488D01*
X241773Y354461D01*
X241994Y354437D01*
X243033Y354387D01*
X244640Y354370D01*
Y351220D01*
X244041Y351219D01*
X241522Y351071D01*
X241490Y351036D01*
Y354555D01*
X241522Y354520D01*
D02*
G37*
G36*
X135658Y345740D02*
X135642Y345747D01*
X135593Y345753D01*
X135512Y345758D01*
X134035Y345776D01*
Y348925D01*
X135658Y348961D01*
Y345740D01*
D02*
G37*
G36*
X118118Y349061D02*
X118212Y349032D01*
X118370Y349006D01*
X118590Y348984D01*
X119630Y348937D01*
X121236Y348921D01*
Y345772D01*
X120636Y345756D01*
X120099Y345709D01*
X119625Y345630D01*
X119214Y345520D01*
X118867Y345378D01*
X118582Y345205D01*
X118361Y345000D01*
X118202Y344764D01*
X118107Y344496D01*
X118074Y344197D01*
X118086Y349094D01*
X118118Y349061D01*
D02*
G37*
G36*
X241522Y339520D02*
X241616Y339488D01*
X241773Y339461D01*
X241994Y339437D01*
X243033Y339387D01*
X244640Y339370D01*
Y336221D01*
X244041Y336219D01*
X241522Y336071D01*
X241490Y336036D01*
Y339555D01*
X241522Y339520D01*
D02*
G37*
G36*
X157074Y340053D02*
X157185Y339565D01*
X157321Y339096D01*
X157483Y338646D01*
X157669Y338215D01*
X157881Y337804D01*
X158118Y337411D01*
X158381Y337037D01*
X158669Y336682D01*
X158983Y336347D01*
X156756Y334120D01*
X156420Y334433D01*
X156065Y334721D01*
X155692Y334984D01*
X155299Y335221D01*
X154887Y335433D01*
X154456Y335620D01*
X154006Y335781D01*
X153537Y335917D01*
X153050Y336028D01*
X152542Y336113D01*
X156989Y340560D01*
X157074Y340053D01*
D02*
G37*
G36*
X300241Y338520D02*
X300336Y338252D01*
X300494Y338016D01*
X300715Y337811D01*
X301000Y337638D01*
X301347Y337496D01*
X301758Y337386D01*
X302233Y337307D01*
X302770Y337260D01*
X303371Y337244D01*
Y334095D01*
X302770Y334079D01*
X302233Y334032D01*
X301758Y333953D01*
X301347Y333842D01*
X301000Y333701D01*
X300715Y333528D01*
X300494Y333323D01*
X300336Y333087D01*
X300241Y332819D01*
X300209Y332520D01*
Y338819D01*
X300241Y338520D01*
D02*
G37*
G36*
X166711Y331036D02*
X166679Y331071D01*
X166585Y331102D01*
X166427Y331130D01*
X166207Y331154D01*
X165167Y331204D01*
X163561Y331221D01*
Y334370D01*
X164160Y334372D01*
X166679Y334520D01*
X166711Y334555D01*
Y331036D01*
D02*
G37*
G36*
X241522Y329520D02*
X241616Y329488D01*
X241773Y329461D01*
X241994Y329437D01*
X243033Y329387D01*
X244640Y329370D01*
Y326220D01*
X244041Y326219D01*
X241522Y326071D01*
X241490Y326036D01*
Y329555D01*
X241522Y329520D01*
D02*
G37*
G36*
X166711Y326036D02*
X166679Y326071D01*
X166585Y326102D01*
X166427Y326130D01*
X166207Y326154D01*
X165167Y326204D01*
X163561Y326220D01*
Y329370D01*
X164160Y329372D01*
X166679Y329520D01*
X166711Y329555D01*
Y326036D01*
D02*
G37*
G36*
X157099Y324168D02*
X157761Y324161D01*
Y321012D01*
X157274Y321002D01*
X157099Y320985D01*
Y320022D01*
X157073Y320210D01*
X156996Y320379D01*
X156868Y320527D01*
X156688Y320656D01*
X156458Y320764D01*
X156175Y320853D01*
X156148Y320859D01*
X156120Y320853D01*
X155838Y320764D01*
X155607Y320656D01*
X155427Y320527D01*
X155299Y320379D01*
X155222Y320210D01*
X155197Y320022D01*
Y320990D01*
X155022Y321002D01*
X154534Y321012D01*
Y324161D01*
X155022Y324163D01*
X155197Y324173D01*
Y324299D01*
X155222Y324273D01*
X155299Y324250D01*
X155427Y324229D01*
X155607Y324211D01*
X155754Y324204D01*
X156996Y324275D01*
X157073Y324305D01*
X157099Y324338D01*
Y324168D01*
D02*
G37*
G36*
X263572Y325121D02*
X263065Y325036D01*
X262577Y324925D01*
X262108Y324789D01*
X261658Y324628D01*
X261227Y324441D01*
X260815Y324229D01*
X260422Y323992D01*
X260049Y323729D01*
X259694Y323441D01*
X259359Y323128D01*
X257132Y325355D01*
X257445Y325690D01*
X257733Y326045D01*
X257996Y326419D01*
X258233Y326811D01*
X258445Y327223D01*
X258632Y327654D01*
X258793Y328104D01*
X258929Y328573D01*
X259040Y329061D01*
X259125Y329568D01*
X263572Y325121D01*
D02*
G37*
G36*
X241522Y324520D02*
X241616Y324488D01*
X241773Y324461D01*
X241994Y324437D01*
X243033Y324387D01*
X244640Y324370D01*
Y321220D01*
X244041Y321219D01*
X241522Y321071D01*
X241490Y321036D01*
Y324555D01*
X241522Y324520D01*
D02*
G37*
G36*
Y319520D02*
X241616Y319488D01*
X241773Y319461D01*
X241994Y319437D01*
X243033Y319387D01*
X244640Y319370D01*
Y316220D01*
X244041Y316219D01*
X241522Y316071D01*
X241490Y316036D01*
Y319555D01*
X241522Y319520D01*
D02*
G37*
G36*
X266614Y315846D02*
X266402Y315917D01*
X266123Y315981D01*
X265775Y316037D01*
X264875Y316127D01*
X263015Y316206D01*
X261434Y316220D01*
X261060Y319370D01*
X261449Y319396D01*
X261840Y319473D01*
X262235Y319602D01*
X262633Y319783D01*
X263034Y320016D01*
X263438Y320300D01*
X263846Y320635D01*
X264257Y321023D01*
X264671Y321462D01*
X265088Y321952D01*
X266614Y315846D01*
D02*
G37*
G36*
X241522Y314520D02*
X241616Y314488D01*
X241773Y314461D01*
X241994Y314437D01*
X243033Y314387D01*
X244640Y314370D01*
Y311221D01*
X244041Y311219D01*
X241522Y311071D01*
X241490Y311036D01*
Y314555D01*
X241522Y314520D01*
D02*
G37*
G36*
X153268Y310145D02*
X153179Y310093D01*
X153101Y310008D01*
X153034Y309888D01*
X152976Y309734D01*
X152930Y309545D01*
X152893Y309322D01*
X152867Y309066D01*
X152847Y308449D01*
X150484D01*
X150479Y308774D01*
X150437Y309322D01*
X150401Y309545D01*
X150354Y309734D01*
X150297Y309888D01*
X150230Y310008D01*
X150152Y310093D01*
X150063Y310145D01*
X149964Y310162D01*
X153366D01*
X153268Y310145D01*
D02*
G37*
G36*
X241522Y309520D02*
X241616Y309488D01*
X241773Y309461D01*
X241994Y309437D01*
X243033Y309387D01*
X244640Y309370D01*
Y306221D01*
X244041Y306219D01*
X241522Y306071D01*
X241490Y306036D01*
Y309555D01*
X241522Y309520D01*
D02*
G37*
G36*
X137460Y305055D02*
X137179Y304757D01*
X136916Y304448D01*
X136673Y304126D01*
X136450Y303793D01*
X136247Y303449D01*
X136063Y303092D01*
X135898Y302724D01*
X135753Y302343D01*
X135628Y301951D01*
X135522Y301548D01*
X132899Y306191D01*
X133249Y306093D01*
X133585Y306028D01*
X133908Y305997D01*
X134217Y306000D01*
X134513Y306037D01*
X134795Y306107D01*
X135064Y306211D01*
X135320Y306349D01*
X135562Y306520D01*
X135790Y306725D01*
X137460Y305055D01*
D02*
G37*
G36*
X166711Y306036D02*
X164349Y305433D01*
Y307795D01*
X164799Y307807D01*
X165202Y307842D01*
X165557Y307902D01*
X165866Y307984D01*
X166127Y308091D01*
X166341Y308221D01*
X166507Y308374D01*
X166626Y308551D01*
X166698Y308752D01*
X166723Y308976D01*
X166711Y306036D01*
D02*
G37*
G36*
X158358Y302161D02*
X153246D01*
X153580Y302178D01*
X153914Y302228D01*
X154248Y302311D01*
X154582Y302428D01*
X154916Y302578D01*
X155250Y302762D01*
X155584Y302979D01*
X155918Y303230D01*
X156252Y303514D01*
X156586Y303831D01*
X159927D01*
X158358Y302161D01*
D02*
G37*
G36*
X332640Y308583D02*
X333130Y308280D01*
X333721Y308000D01*
X334414Y307744D01*
X335209Y307510D01*
X336104Y307300D01*
X338201Y306950D01*
X340703Y306693D01*
X332240Y298230D01*
X332123Y299532D01*
X331633Y302829D01*
X331423Y303725D01*
X331189Y304519D01*
X330933Y305212D01*
X330653Y305803D01*
X330350Y306293D01*
X330024Y306682D01*
X332251Y308909D01*
X332640Y308583D01*
D02*
G37*
G36*
X351463Y309646D02*
X352059Y309250D01*
X352767Y308875D01*
X353587Y308521D01*
X354520Y308188D01*
X355566Y307876D01*
X357994Y307315D01*
X360872Y306837D01*
X351978Y297943D01*
X351750Y299438D01*
X350939Y303249D01*
X350626Y304295D01*
X350293Y305228D01*
X349940Y306048D01*
X349565Y306756D01*
X349169Y307352D01*
X348752Y307835D01*
X350980Y310062D01*
X351463Y309646D01*
D02*
G37*
G36*
X241522Y299520D02*
X241616Y299488D01*
X241773Y299461D01*
X241994Y299437D01*
X243033Y299387D01*
X244640Y299370D01*
Y296220D01*
X244041Y296219D01*
X241522Y296071D01*
X241490Y296036D01*
Y299555D01*
X241522Y299520D01*
D02*
G37*
G36*
X166711Y296036D02*
X166692Y296146D01*
X166635Y296244D01*
X166541Y296331D01*
X166408Y296406D01*
X166238Y296469D01*
X166030Y296522D01*
X165784Y296562D01*
X165500Y296591D01*
X164819Y296614D01*
Y298976D01*
X165179Y298982D01*
X165784Y299028D01*
X166030Y299069D01*
X166238Y299121D01*
X166408Y299185D01*
X166541Y299260D01*
X166635Y299347D01*
X166692Y299445D01*
X166711Y299555D01*
Y296036D01*
D02*
G37*
G36*
X260772Y294646D02*
X260740Y294945D01*
X260644Y295213D01*
X260486Y295449D01*
X260264Y295654D01*
X259980Y295827D01*
X259632Y295969D01*
X259221Y296079D01*
X258747Y296158D01*
X258210Y296205D01*
X257610Y296220D01*
Y299370D01*
X258209Y299373D01*
X260634Y299539D01*
X260729Y299584D01*
X260760Y299634D01*
X260772Y294646D01*
D02*
G37*
G36*
X267067Y299512D02*
X267161Y299403D01*
X267319Y299307D01*
X267539Y299223D01*
X267823Y299152D01*
X268169Y299095D01*
X268579Y299050D01*
X269586Y298998D01*
X270185Y298992D01*
Y295843D01*
X269585Y295827D01*
X269048Y295779D01*
X268574Y295701D01*
X268163Y295590D01*
X267815Y295449D01*
X267531Y295276D01*
X267309Y295071D01*
X267151Y294835D01*
X267056Y294567D01*
X267023Y294268D01*
X267035Y299634D01*
X267067Y299512D01*
D02*
G37*
G36*
X298951Y292635D02*
X298226Y293163D01*
X296810Y294054D01*
X296119Y294415D01*
X295440Y294721D01*
X294773Y294971D01*
X294117Y295166D01*
X293472Y295305D01*
X292839Y295389D01*
X292218Y295416D01*
X292253Y299354D01*
X292880Y299381D01*
X293517Y299462D01*
X294164Y299598D01*
X294822Y299788D01*
X295491Y300032D01*
X296171Y300331D01*
X296861Y300684D01*
X297562Y301091D01*
X298996Y302068D01*
X298951Y292635D01*
D02*
G37*
G36*
X158358Y293718D02*
X158394Y293716D01*
X159551Y293708D01*
Y291346D01*
X158346Y291334D01*
Y293720D01*
X158358Y293718D01*
D02*
G37*
G36*
X146564Y293675D02*
X146614Y293444D01*
X146697Y293201D01*
X146814Y292947D01*
X146965Y292679D01*
X147148Y292400D01*
X147365Y292109D01*
X147900Y291489D01*
X148217Y291161D01*
X146547Y289491D01*
X146077Y289945D01*
X145227Y290662D01*
X144848Y290925D01*
X144499Y291125D01*
X144180Y291261D01*
X143891Y291334D01*
X143632Y291344D01*
X143404Y291290D01*
X143206Y291173D01*
X146547Y293893D01*
X146564Y293675D01*
D02*
G37*
G36*
X198325Y289902D02*
X198293Y289807D01*
X198266Y289650D01*
X198242Y289429D01*
X198192Y288390D01*
X198175Y286784D01*
X195026D01*
X195024Y287382D01*
X194876Y289902D01*
X194841Y289933D01*
X198360D01*
X198325Y289902D01*
D02*
G37*
G36*
X193325D02*
X193293Y289807D01*
X193266Y289650D01*
X193242Y289429D01*
X193192Y288390D01*
X193175Y286784D01*
X190026D01*
X190024Y287382D01*
X189876Y289902D01*
X189841Y289933D01*
X193360D01*
X193325Y289902D01*
D02*
G37*
G36*
X136122Y288474D02*
X136158Y288070D01*
X136216Y287714D01*
X136299Y287405D01*
X136406Y287144D01*
X136535Y286931D01*
X136689Y286765D01*
X136866Y286646D01*
X137067Y286575D01*
X137291Y286551D01*
X132567D01*
X132791Y286575D01*
X132992Y286646D01*
X133169Y286765D01*
X133323Y286931D01*
X133453Y287144D01*
X133559Y287405D01*
X133642Y287714D01*
X133701Y288070D01*
X133736Y288474D01*
X133748Y288925D01*
X136110D01*
X136122Y288474D01*
D02*
G37*
G36*
X228325Y289902D02*
X228293Y289807D01*
X228266Y289650D01*
X228242Y289429D01*
X228192Y288390D01*
X228191Y288345D01*
X228216Y286433D01*
X223451Y286421D01*
X223750Y286453D01*
X224018Y286549D01*
X224254Y286707D01*
X224459Y286929D01*
X224632Y287213D01*
X224774Y287561D01*
X224884Y287972D01*
X224962Y288440D01*
X224876Y289902D01*
X224841Y289933D01*
X228360D01*
X228325Y289902D01*
D02*
G37*
G36*
X298685Y285421D02*
X304185D01*
X304224Y285327D01*
Y278221D01*
X299205D01*
X295890Y274905D01*
X294516D01*
Y267181D01*
X294657Y267039D01*
X293992Y266374D01*
Y266331D01*
X280063D01*
X273311Y273083D01*
Y274648D01*
Y279030D01*
X275311Y282313D01*
Y286166D01*
X275811Y286266D01*
X275846Y286182D01*
X276414Y285441D01*
X276461Y285394D01*
X277201Y284826D01*
X278063Y284469D01*
X278988Y284347D01*
X279913Y284469D01*
X280775Y284826D01*
X281515Y285394D01*
X281988Y286010D01*
X282083Y286134D01*
X282440Y286996D01*
X282562Y287921D01*
X296185D01*
X298685Y285421D01*
D02*
G37*
G36*
X151452Y287943D02*
X152321Y287207D01*
X152705Y286939D01*
X153055Y286738D01*
X153373Y286603D01*
X153657Y286534D01*
X153908Y286532D01*
X154125Y286597D01*
X154309Y286728D01*
X150949Y283430D01*
X151083Y283612D01*
X151150Y283827D01*
X151149Y284076D01*
X151082Y284359D01*
X150947Y284676D01*
X150745Y285027D01*
X150476Y285412D01*
X150140Y285831D01*
X149267Y286771D01*
X150968Y288410D01*
X151452Y287943D01*
D02*
G37*
G36*
X215896Y272480D02*
X215904Y272378D01*
X217539D01*
X217224Y272339D01*
X216943Y272221D01*
X216694Y272024D01*
X216478Y271748D01*
X216296Y271394D01*
X216147Y270961D01*
X216096Y270736D01*
X216101Y270708D01*
X216224Y270275D01*
X216375Y269921D01*
X216553Y269646D01*
X216759Y269449D01*
X216991Y269331D01*
X217252Y269291D01*
X215906D01*
X215898Y269189D01*
X215882Y268441D01*
X211945D01*
X211930Y269189D01*
X211921Y269291D01*
X210583D01*
X210842Y269331D01*
X211073Y269449D01*
X211278Y269646D01*
X211455Y269921D01*
X211604Y270275D01*
X211727Y270708D01*
X211743Y270795D01*
X211710Y270961D01*
X211578Y271394D01*
X211416Y271748D01*
X211225Y272024D01*
X211005Y272221D01*
X210755Y272339D01*
X210477Y272378D01*
X211925D01*
X211931Y272480D01*
X211945Y273228D01*
X215882D01*
X215896Y272480D01*
D02*
G37*
G36*
X227034Y272390D02*
X227042Y272284D01*
X228216D01*
X227990Y272244D01*
X227787Y272126D01*
X227608Y271929D01*
X227453Y271654D01*
X227322Y271299D01*
X227214Y270866D01*
X227186Y270695D01*
X227198Y270618D01*
X227296Y270185D01*
X227416Y269830D01*
X227558Y269555D01*
X227722Y269358D01*
X227907Y269240D01*
X228114Y269201D01*
X227052D01*
X227024Y268347D01*
X223087D01*
X223067Y269095D01*
X223058Y269201D01*
X221445D01*
X221757Y269240D01*
X222036Y269358D01*
X222282Y269555D01*
X222496Y269830D01*
X222676Y270185D01*
X222824Y270618D01*
X222833Y270657D01*
X222777Y270866D01*
X222603Y271299D01*
X222391Y271654D01*
X222140Y271929D01*
X221850Y272126D01*
X221521Y272244D01*
X221154Y272284D01*
X223062D01*
X223070Y272390D01*
X223087Y273138D01*
X227024D01*
X227034Y272390D01*
D02*
G37*
G36*
X304137Y274518D02*
X304253Y274252D01*
X304447Y274018D01*
X304719Y273815D01*
X305068Y273643D01*
X305494Y273502D01*
X305998Y273393D01*
X306580Y273314D01*
X307240Y273268D01*
X307976Y273252D01*
Y269315D01*
X307240Y269299D01*
X305998Y269174D01*
X305494Y269065D01*
X305068Y268924D01*
X304719Y268752D01*
X304447Y268549D01*
X304253Y268315D01*
X304137Y268049D01*
X304098Y267752D01*
Y274815D01*
X304137Y274518D01*
D02*
G37*
G36*
X329477Y258625D02*
X329574Y258358D01*
X329735Y258123D01*
X329960Y257919D01*
X330248Y257746D01*
X330599Y257605D01*
X331015Y257495D01*
X331494Y257417D01*
X332036Y257370D01*
X332643Y257354D01*
Y254205D01*
X332040Y254189D01*
X331501Y254142D01*
X331026Y254063D01*
X330614Y253953D01*
X330267Y253811D01*
X329982Y253638D01*
X329762Y253433D01*
X329604Y253197D01*
X329511Y252929D01*
X329481Y252630D01*
X329443Y258923D01*
X329477Y258625D01*
D02*
G37*
G36*
X316251Y252630D02*
X316221Y252929D01*
X316128Y253197D01*
X315971Y253433D01*
X315750Y253638D01*
X315466Y253811D01*
X315118Y253953D01*
X314706Y254063D01*
X314231Y254142D01*
X313692Y254189D01*
X313090Y254205D01*
Y257354D01*
X313696Y257370D01*
X314239Y257417D01*
X314718Y257495D01*
X315133Y257605D01*
X315485Y257746D01*
X315773Y257919D01*
X315997Y258123D01*
X316158Y258358D01*
X316255Y258625D01*
X316289Y258923D01*
X316251Y252630D01*
D02*
G37*
G36*
X256622Y239181D02*
X248850D01*
Y243323D01*
X248791Y243382D01*
X248850Y243673D01*
Y244315D01*
X256622D01*
Y239181D01*
D02*
G37*
G36*
X111433Y342394D02*
X111799Y341603D01*
Y340445D01*
X112335D01*
X117697Y328855D01*
Y269988D01*
X124583Y263102D01*
X175760Y263102D01*
X187421Y251441D01*
X187177Y251197D01*
Y238727D01*
X186937Y238327D01*
X186215D01*
Y238445D01*
X186080Y239473D01*
X185683Y240431D01*
X185052Y241253D01*
X185024Y241275D01*
Y242266D01*
X185588Y242830D01*
X186029Y243405D01*
X186307Y244076D01*
X186402Y244795D01*
X186307Y245515D01*
X186029Y246185D01*
X185588Y246761D01*
X185012Y247203D01*
X184342Y247480D01*
X183622Y247575D01*
X182903Y247480D01*
X182232Y247203D01*
X181657Y246761D01*
X180279Y245383D01*
X179837Y244807D01*
X179559Y244137D01*
X179464Y243417D01*
Y241275D01*
X179436Y241253D01*
X178805Y240431D01*
X178609Y239956D01*
X178118Y239858D01*
X161130Y256846D01*
X120913D01*
X129872Y247888D01*
X129910Y247849D01*
X130913Y246847D01*
X134156D01*
X134485Y246346D01*
X134331Y245975D01*
X134236Y245256D01*
X134331Y244536D01*
X134516Y244091D01*
X134231Y243590D01*
X134169D01*
X132196Y241617D01*
X128504Y237925D01*
Y226287D01*
X138279Y216512D01*
X142453D01*
X144409Y218468D01*
X144528D01*
Y223988D01*
X144559Y224020D01*
X143661Y224917D01*
Y231555D01*
X144134Y231622D01*
X146857D01*
X147331Y231559D01*
Y227472D01*
X147291Y227433D01*
X147713Y227012D01*
Y218547D01*
X147721Y218539D01*
X143710Y213980D01*
X136969D01*
X124976Y225972D01*
Y237539D01*
X106362Y256153D01*
X105776Y321170D01*
X104977Y321969D01*
X96303Y329791D01*
Y340004D01*
X106287D01*
X107726Y340193D01*
X109067Y340748D01*
X110219Y341632D01*
X110853Y342458D01*
X111433Y342394D01*
D02*
G37*
G36*
X313358Y251303D02*
X314898Y250071D01*
X315236D01*
Y238004D01*
X314402Y237169D01*
X314327Y237244D01*
X306291D01*
Y248969D01*
X308917Y251594D01*
X313067D01*
X313358Y251303D01*
D02*
G37*
G36*
X276601Y235288D02*
X275822Y234487D01*
X274078Y232409D01*
X273693Y231825D01*
X273407Y231296D01*
X273220Y230820D01*
X273131Y230399D01*
X273140Y230032D01*
X273249Y229720D01*
X270090Y235445D01*
X270276Y235211D01*
X270520Y235078D01*
X270821Y235047D01*
X271181Y235119D01*
X271597Y235291D01*
X272071Y235566D01*
X272603Y235943D01*
X273193Y236422D01*
X274544Y237684D01*
X276601Y235288D01*
D02*
G37*
G36*
X230618Y234110D02*
X230665Y233976D01*
X230744Y233858D01*
X230854Y233756D01*
X230996Y233669D01*
X231169Y233598D01*
X231374Y233543D01*
X231610Y233504D01*
X231878Y233480D01*
X232177Y233472D01*
Y231898D01*
X231878Y231893D01*
X231374Y231859D01*
X231169Y231830D01*
X230996Y231791D01*
X230854Y231745D01*
X230744Y231689D01*
X230665Y231626D01*
X230618Y231553D01*
X230602Y231473D01*
Y234260D01*
X230618Y234110D01*
D02*
G37*
G36*
X225114Y231473D02*
X225099Y231620D01*
X225051Y231752D01*
X224973Y231868D01*
X224862Y231969D01*
X224721Y232054D01*
X224547Y232124D01*
X224343Y232178D01*
X224107Y232217D01*
X223839Y232240D01*
X223540Y232248D01*
Y233823D01*
X223839Y233831D01*
X224107Y233854D01*
X224343Y233893D01*
X224547Y233947D01*
X224721Y234017D01*
X224862Y234102D01*
X224973Y234203D01*
X225051Y234319D01*
X225099Y234451D01*
X225114Y234598D01*
Y231473D01*
D02*
G37*
G36*
X260164Y228011D02*
X260154Y228006D01*
X260108Y228001D01*
X259906Y227994D01*
X258432Y227984D01*
Y229559D01*
X258743Y229567D01*
X259019Y229591D01*
X259262Y229630D01*
X259471Y229685D01*
X259647Y229756D01*
X259789Y229842D01*
X259897Y229945D01*
X259971Y230063D01*
X260012Y230197D01*
X260019Y230346D01*
X260164Y228011D01*
D02*
G37*
G36*
X273245Y223894D02*
X273152Y223956D01*
X273005Y224011D01*
X272802Y224060D01*
X272544Y224103D01*
X271864Y224168D01*
X270432Y224217D01*
X269845Y224220D01*
Y225795D01*
X270432Y225799D01*
X272802Y225955D01*
X273005Y226005D01*
X273152Y226060D01*
X273245Y226122D01*
Y223894D01*
D02*
G37*
G36*
X260082Y207121D02*
X259937Y207303D01*
X259759Y207467D01*
X259549Y207610D01*
X259306Y207735D01*
X259030Y207841D01*
X258720Y207927D01*
X258379Y207994D01*
X258004Y208042D01*
X257596Y208071D01*
X257155Y208081D01*
Y211230D01*
X257702Y211243D01*
X258191Y211281D01*
X258622Y211345D01*
X258995Y211434D01*
X259311Y211549D01*
X259568Y211690D01*
X259768Y211856D01*
X259909Y212047D01*
X259993Y212264D01*
X260019Y212507D01*
X260082Y207121D01*
D02*
G37*
G36*
X238147Y204512D02*
X238189Y203976D01*
X238257Y203504D01*
X238352Y203094D01*
X238475Y202748D01*
X238626Y202464D01*
X238803Y202244D01*
X239008Y202086D01*
X239240Y201992D01*
X239500Y201960D01*
X233618D01*
X233878Y201992D01*
X234110Y202086D01*
X234315Y202244D01*
X234492Y202464D01*
X234643Y202748D01*
X234766Y203094D01*
X234861Y203504D01*
X234930Y203976D01*
X234971Y204512D01*
X234984Y205110D01*
X238134D01*
X238147Y204512D01*
D02*
G37*
G36*
X235536Y184791D02*
X235504Y184794D01*
X235414Y184797D01*
X232628Y184807D01*
Y187169D01*
X235536Y187185D01*
Y184791D01*
D02*
G37*
G36*
X232637Y179576D02*
X229851D01*
X229891Y179656D01*
X229927Y179809D01*
X229959Y180036D01*
X230010Y180712D01*
X230063Y183697D01*
X232425D01*
X232637Y179576D01*
D02*
G37*
G36*
X228039Y176127D02*
X225253D01*
X225293Y176207D01*
X225329Y176360D01*
X225361Y176587D01*
X225412Y177263D01*
X225465Y180248D01*
X227827D01*
X228039Y176127D01*
D02*
G37*
G36*
X239302Y172944D02*
X239738Y172608D01*
X240206Y172304D01*
X240707Y172035D01*
X241241Y171799D01*
X241808Y171596D01*
X242408Y171426D01*
X243041Y171289D01*
X243706Y171186D01*
X244404Y171116D01*
X239222Y165205D01*
X239089Y165759D01*
X238925Y166300D01*
X238729Y166829D01*
X238502Y167344D01*
X238244Y167847D01*
X237953Y168337D01*
X237632Y168814D01*
X237278Y169278D01*
X236893Y169730D01*
X236477Y170168D01*
X238900Y173313D01*
X239302Y172944D01*
D02*
G37*
G36*
X237383Y165490D02*
X237470Y164618D01*
X237546Y164234D01*
X237645Y163887D01*
X237765Y163574D01*
X237907Y163297D01*
X238070Y163056D01*
X238256Y162849D01*
X238463Y162678D01*
X232440Y162394D01*
X232629Y162583D01*
X232798Y162809D01*
X232947Y163073D01*
X233077Y163375D01*
X233186Y163715D01*
X233276Y164092D01*
X233345Y164507D01*
X233395Y164960D01*
X233435Y165979D01*
X237372D01*
X237383Y165490D01*
D02*
G37*
G36*
X261728Y161531D02*
X261527Y161459D01*
X261350Y161340D01*
X261197Y161174D01*
X261067Y160960D01*
X260961Y160699D01*
X260878Y160390D01*
X260819Y160035D01*
X260783Y159632D01*
X260772Y159181D01*
X258409D01*
X258421Y161544D01*
X261953Y161556D01*
X261728Y161531D01*
D02*
G37*
G36*
X248959Y165168D02*
X249119Y162716D01*
X249227Y162048D01*
X249362Y161454D01*
X249525Y160934D01*
X249715Y160490D01*
X249933Y160119D01*
X250177Y159824D01*
X248011Y158649D01*
X247645Y158990D01*
X247240Y159318D01*
X246796Y159634D01*
X246314Y159938D01*
X245233Y160508D01*
X244635Y160775D01*
X243321Y161271D01*
X242607Y161501D01*
X248960Y166135D01*
X248959Y165168D01*
D02*
G37*
G36*
X240636Y158253D02*
X241069Y155934D01*
X241251Y155290D01*
X241452Y154711D01*
X241673Y154197D01*
X241913Y153748D01*
X242172Y153363D01*
X242449Y153043D01*
X240664Y151488D01*
X240328Y151788D01*
X239935Y152074D01*
X239486Y152344D01*
X238981Y152599D01*
X238420Y152838D01*
X237803Y153062D01*
X236399Y153465D01*
X235612Y153643D01*
X234770Y153806D01*
X240530Y159155D01*
X240636Y158253D01*
D02*
G37*
G36*
X268642Y149150D02*
X269331D01*
Y148149D01*
X269307Y147968D01*
Y139842D01*
X268988D01*
Y131181D01*
X269307D01*
Y117188D01*
X259997Y107878D01*
X259535Y108069D01*
Y138067D01*
X259504Y138303D01*
Y144095D01*
X259118D01*
Y147968D01*
X259095Y148149D01*
Y148796D01*
X259303Y149005D01*
X259840Y148888D01*
X259882Y148690D01*
Y144524D01*
X265394D01*
Y151413D01*
X259882Y151413D01*
X259784Y151873D01*
Y152398D01*
X268642D01*
Y149150D01*
D02*
G37*
G36*
X257524Y144421D02*
X257619Y143098D01*
X257663Y142886D01*
X257714Y142720D01*
X257774Y142602D01*
X257842Y142531D01*
X257917Y142508D01*
X254791D01*
X254861Y142531D01*
X254923Y142602D01*
X254978Y142720D01*
X255026Y142886D01*
X255066Y143098D01*
X255099Y143358D01*
X255143Y144019D01*
X255157Y144870D01*
X257520D01*
X257524Y144421D01*
D02*
G37*
G36*
X191535Y117012D02*
X195067D01*
Y106757D01*
X194567Y106486D01*
X194097Y106681D01*
X193378Y106776D01*
X192658Y106681D01*
X192075Y106439D01*
X191973Y106481D01*
X191618Y106831D01*
X187752Y110697D01*
X181059D01*
X180976Y110780D01*
Y113352D01*
X181438Y113543D01*
X181949Y113032D01*
X182689Y112464D01*
X183551Y112107D01*
X184476Y111985D01*
X185401Y112107D01*
X186263Y112464D01*
X187004Y113032D01*
X187571Y113772D01*
X187928Y114634D01*
X188050Y115559D01*
X187928Y116484D01*
X187571Y117346D01*
X187004Y118086D01*
X186475Y118614D01*
Y120547D01*
X188000D01*
X191535Y117012D01*
D02*
G37*
G36*
X210914Y224609D02*
X211121Y224110D01*
X211626Y223452D01*
X229766Y205313D01*
X230423Y204808D01*
X231190Y204490D01*
X232012Y204382D01*
X233382D01*
Y203547D01*
X232031D01*
Y198429D01*
X234720D01*
X234971Y198237D01*
X235737Y197920D01*
X236559Y197811D01*
X237381Y197920D01*
X238147Y198237D01*
X238398Y198429D01*
X240434D01*
Y194165D01*
X236559D01*
X235737Y194057D01*
X235039Y193768D01*
X228862D01*
X228143Y193673D01*
X227472Y193395D01*
X226897Y192954D01*
X224680Y190737D01*
X224238Y190162D01*
X223961Y189491D01*
X223866Y188772D01*
Y176934D01*
X223551Y176523D01*
X223194Y175661D01*
X223072Y174736D01*
X223194Y173811D01*
X223551Y172949D01*
X224119Y172209D01*
X231829Y164498D01*
Y163225D01*
X231720Y163116D01*
X231708Y163098D01*
X231703Y163093D01*
X231686Y163081D01*
X231679Y163069D01*
X231036Y162426D01*
X230388Y161456D01*
X229941Y160378D01*
X229714Y159234D01*
Y158068D01*
X229941Y156924D01*
X230388Y155846D01*
X231036Y154876D01*
X231860Y154052D01*
X232830Y153404D01*
X233908Y152957D01*
X234485Y152842D01*
X234576Y152805D01*
X235403Y152645D01*
X236145Y152477D01*
X237488Y152092D01*
X237977Y151914D01*
X239951Y149940D01*
X240527Y149498D01*
X241197Y149221D01*
X241917Y149126D01*
X253583D01*
Y148149D01*
X253559Y147968D01*
Y144095D01*
X253205D01*
Y138243D01*
X253182Y138067D01*
Y103900D01*
X252719Y103709D01*
X208285Y148143D01*
Y226586D01*
X208747Y226777D01*
X210914Y224609D01*
D02*
G37*
G36*
X194563Y103844D02*
X194591Y103559D01*
X194616Y103427D01*
X194648Y103301D01*
X194687Y103182D01*
X194733Y103070D01*
X194786Y102965D01*
X194846Y102867D01*
X194914Y102775D01*
X191842D01*
X191910Y102867D01*
X191970Y102965D01*
X192023Y103070D01*
X192069Y103182D01*
X192108Y103301D01*
X192140Y103427D01*
X192165Y103559D01*
X192183Y103698D01*
X192193Y103844D01*
X192197Y103996D01*
X194559D01*
X194563Y103844D01*
D02*
G37*
G36*
X224846Y98681D02*
X224980Y96634D01*
X225030Y96413D01*
X225087Y96256D01*
X225152Y96161D01*
X225224Y96130D01*
X221311D01*
X221384Y96161D01*
X221449Y96256D01*
X221506Y96413D01*
X221555Y96634D01*
X221598Y96917D01*
X221659Y97673D01*
X221693Y99279D01*
X224843D01*
X224846Y98681D01*
D02*
G37*
G36*
X214846D02*
X214980Y96634D01*
X215030Y96413D01*
X215087Y96256D01*
X215152Y96161D01*
X215224Y96130D01*
X211311D01*
X211384Y96161D01*
X211449Y96256D01*
X211506Y96413D01*
X211556Y96634D01*
X211597Y96917D01*
X211659Y97673D01*
X211693Y99279D01*
X214843D01*
X214846Y98681D01*
D02*
G37*
G36*
X257955Y98197D02*
X258022Y97595D01*
X258134Y97011D01*
X258289Y96446D01*
X258490Y95899D01*
X258735Y95370D01*
X259024Y94860D01*
X259358Y94369D01*
X259737Y93896D01*
X260160Y93441D01*
X256358Y95016D01*
X257933Y98818D01*
X257955Y98197D01*
D02*
G37*
G36*
X334301Y84465D02*
X334067Y84382D01*
X333860Y84243D01*
X333681Y84050D01*
X333529Y83801D01*
X333405Y83496D01*
X333309Y83136D01*
X333240Y82721D01*
X333199Y82250D01*
X333185Y81725D01*
X330429D01*
X330415Y82250D01*
X330374Y82721D01*
X330305Y83136D01*
X330209Y83496D01*
X330085Y83801D01*
X329933Y84050D01*
X329754Y84243D01*
X329547Y84382D01*
X329313Y84465D01*
X329051Y84492D01*
X334563D01*
X334301Y84465D01*
D02*
G37*
G36*
X325802D02*
X325568Y84382D01*
X325361Y84243D01*
X325182Y84050D01*
X325031Y83801D01*
X324907Y83496D01*
X324810Y83136D01*
X324741Y82721D01*
X324700Y82250D01*
X324686Y81725D01*
X321930D01*
X321917Y82250D01*
X321875Y82721D01*
X321806Y83136D01*
X321710Y83496D01*
X321586Y83801D01*
X321434Y84050D01*
X321255Y84243D01*
X321048Y84382D01*
X320814Y84465D01*
X320552Y84492D01*
X326064D01*
X325802Y84465D01*
D02*
G37*
G36*
X328631Y78068D02*
X330467Y75964D01*
X330529Y75818D01*
X330522Y75730D01*
X330445Y75701D01*
X328512Y72358D01*
X328616Y72622D01*
X328644Y72924D01*
X328596Y73262D01*
X328472Y73638D01*
X328272Y74051D01*
X327996Y74501D01*
X327644Y74989D01*
X327216Y75514D01*
X326132Y76675D01*
X328081Y78624D01*
X328631Y78068D01*
D02*
G37*
G36*
X346310Y55582D02*
X346886Y55140D01*
X347556Y54862D01*
X348276Y54768D01*
X351390D01*
Y54567D01*
X360051D01*
Y54768D01*
X360720D01*
X360911Y54306D01*
X351537Y44931D01*
X351075Y45122D01*
Y47567D01*
X342413D01*
X342252Y48000D01*
Y51106D01*
X342240Y51201D01*
X342431Y51662D01*
X342539Y52484D01*
Y58419D01*
X342505Y58680D01*
X342978Y58914D01*
X346310Y55582D01*
D02*
G37*
G36*
X325350Y48232D02*
X320122D01*
X314957Y43067D01*
Y39701D01*
X309765D01*
X309386Y39992D01*
Y43472D01*
X309122D01*
X307760Y44835D01*
X307791Y44866D01*
Y50492D01*
X309650Y52350D01*
X322008D01*
X323283Y53625D01*
X323638Y53949D01*
X323638Y53949D01*
X325350D01*
Y48232D01*
D02*
G37*
G36*
X205256Y24220D02*
X205439Y21386D01*
X205496Y21189D01*
X205561Y21071D01*
X205634Y21031D01*
X200933D01*
X201006Y21071D01*
X201071Y21189D01*
X201128Y21386D01*
X201178Y21661D01*
X201220Y22016D01*
X201281Y22960D01*
X201315Y24968D01*
X205252D01*
X205256Y24220D01*
D02*
G37*
%LPC*%
G36*
X145693Y391673D02*
X31453D01*
X30843Y391365D01*
Y381384D01*
X30843Y381383D01*
Y381383D01*
X30843Y381305D01*
X30639Y381239D01*
X30343Y381142D01*
X29457Y382362D01*
X28031Y383787D01*
X26399Y384973D01*
X24603Y385888D01*
X22685Y386511D01*
X20693Y386827D01*
X18677D01*
X16685Y386511D01*
X14767Y385888D01*
X12971Y384973D01*
X11339Y383787D01*
X9913Y382362D01*
X8728Y380730D01*
X7813Y378934D01*
X7190Y377016D01*
X6874Y375024D01*
Y373007D01*
X7190Y371016D01*
X7813Y369098D01*
X8728Y367301D01*
X9913Y365670D01*
X11339Y364244D01*
X12971Y363059D01*
X14767Y362143D01*
X16685Y361520D01*
X18677Y361205D01*
X20693D01*
X22685Y361520D01*
X24603Y362143D01*
X26399Y363059D01*
X28031Y364244D01*
X29457Y365670D01*
X30642Y367301D01*
X31558Y369098D01*
X32181Y371016D01*
X32496Y373007D01*
Y375024D01*
X32181Y377016D01*
X31558Y378934D01*
X30752Y380514D01*
X31065Y380976D01*
X31206Y380976D01*
X145693D01*
Y391673D01*
D02*
G37*
G36*
X80216Y376366D02*
X72342D01*
Y375136D01*
X70787D01*
Y376004D01*
X63307D01*
Y372341D01*
X63212Y372110D01*
X63076Y371083D01*
X63212Y370055D01*
X63307Y369824D01*
Y366161D01*
X70787D01*
Y367194D01*
X72342D01*
Y366130D01*
X80216D01*
Y370907D01*
X80251Y371165D01*
Y371248D01*
X80216Y371506D01*
Y376366D01*
D02*
G37*
G36*
X375024Y386827D02*
X373007D01*
X371016Y386511D01*
X369098Y385888D01*
X367301Y384973D01*
X365670Y383787D01*
X364244Y382362D01*
X363059Y380730D01*
X362143Y378934D01*
X361520Y377016D01*
X361205Y375024D01*
Y373007D01*
X361520Y371016D01*
X362143Y369098D01*
X363059Y367301D01*
X364244Y365670D01*
X365670Y364244D01*
X367301Y363059D01*
X369098Y362143D01*
X371016Y361520D01*
X373007Y361205D01*
X375024D01*
X377016Y361520D01*
X378934Y362143D01*
X380730Y363059D01*
X382362Y364244D01*
X383787Y365670D01*
X384973Y367301D01*
X385888Y369098D01*
X386511Y371016D01*
X386827Y373007D01*
Y375024D01*
X386511Y377016D01*
X385888Y378934D01*
X384973Y380730D01*
X383787Y382362D01*
X382362Y383787D01*
X380730Y384973D01*
X378934Y385888D01*
X377016Y386511D01*
X375024Y386827D01*
D02*
G37*
G36*
X93665Y305992D02*
X87323D01*
X86933Y305914D01*
X83741D01*
X83481Y305655D01*
X83091Y305732D01*
X82996D01*
X82928Y305778D01*
X82123Y305938D01*
X79200D01*
X78395Y305778D01*
X72928D01*
X72123Y305938D01*
X69200D01*
X68395Y305778D01*
X67713Y305322D01*
X67257Y304640D01*
X67097Y303836D01*
Y289889D01*
X67257Y289084D01*
X67484Y288745D01*
Y287378D01*
X66972D01*
Y286048D01*
X65621Y284697D01*
X64827D01*
Y285201D01*
X54591D01*
Y277327D01*
X64827D01*
Y277559D01*
X66972D01*
Y277142D01*
X72791D01*
Y260185D01*
X82755D01*
X82946Y259723D01*
X82152Y258928D01*
X81760Y258850D01*
X81040Y258369D01*
X80559Y257650D01*
X80391Y256801D01*
Y246860D01*
X80559Y246011D01*
X81040Y245292D01*
X81760Y244811D01*
X82608Y244642D01*
X86191D01*
X88709Y242125D01*
Y213127D01*
X41875Y166293D01*
X38409D01*
X37056Y166160D01*
X35754Y165765D01*
X34554Y165124D01*
X33503Y164261D01*
X32640Y163209D01*
X31999Y162010D01*
X31604Y160708D01*
X31471Y159354D01*
X31604Y158001D01*
X31999Y156699D01*
X32640Y155499D01*
X32926Y155150D01*
X32928Y155141D01*
X33149Y154811D01*
X33273Y154728D01*
X33503Y154448D01*
X34146Y153920D01*
X35330Y152736D01*
X35661Y152515D01*
X36051Y152437D01*
X38189D01*
X38409Y152415D01*
X46284D01*
X46504Y152437D01*
X50157D01*
X50548Y152515D01*
X50878Y152736D01*
X110674Y212531D01*
X110895Y212862D01*
X110972Y213252D01*
Y248232D01*
X110895Y248622D01*
X110674Y248953D01*
X94685Y264942D01*
Y277161D01*
X95217D01*
Y285823D01*
X94685D01*
Y304528D01*
Y304972D01*
X94607Y305363D01*
X94386Y305693D01*
X94055Y305914D01*
X93665Y305992D01*
D02*
G37*
G36*
X360760Y289059D02*
X358791D01*
X357052Y288887D01*
X355379Y288380D01*
X353837Y287556D01*
X352486Y286447D01*
X351377Y285096D01*
X350553Y283554D01*
X350046Y281881D01*
X349874Y280142D01*
X350046Y278402D01*
X350553Y276729D01*
X351377Y275188D01*
X352486Y273836D01*
X353837Y272728D01*
X355379Y271903D01*
X357052Y271396D01*
X358791Y271225D01*
X360760D01*
X362499Y271396D01*
X364172Y271903D01*
X365714Y272728D01*
X367065Y273836D01*
X368174Y275188D01*
X368998Y276729D01*
X369506Y278402D01*
X369677Y280142D01*
X369506Y281881D01*
X368998Y283554D01*
X368174Y285096D01*
X367065Y286447D01*
X365714Y287556D01*
X364172Y288380D01*
X362499Y288887D01*
X360760Y289059D01*
D02*
G37*
G36*
X315197Y286906D02*
X307323D01*
Y276669D01*
X313145D01*
X314621Y275192D01*
Y272789D01*
X314764Y272073D01*
X315170Y271465D01*
X315777Y271059D01*
X316494Y270917D01*
X329238D01*
X329955Y271059D01*
X330562Y271465D01*
X330968Y272073D01*
X331111Y272789D01*
Y279746D01*
X330968Y280463D01*
X330657Y280928D01*
Y282756D01*
X330580Y283146D01*
X330359Y283477D01*
X327501Y286335D01*
X327170Y286556D01*
X326780Y286634D01*
X326582Y286594D01*
X315197D01*
Y286906D01*
D02*
G37*
G36*
X46197Y311620D02*
X38323D01*
X36969Y311487D01*
X35667Y311092D01*
X34468Y310451D01*
X33416Y309588D01*
X32553Y308536D01*
X31912Y307336D01*
X31517Y306035D01*
X31384Y304681D01*
X31517Y303327D01*
X31912Y302026D01*
X32553Y300826D01*
X33416Y299775D01*
X34468Y298912D01*
X35667Y298270D01*
X36969Y297875D01*
X38323Y297742D01*
X38455D01*
X38470Y297741D01*
X38571Y297705D01*
X38660Y297645D01*
X38686Y297617D01*
Y267063D01*
X38808Y266138D01*
X39165Y265276D01*
X39733Y264536D01*
X54965Y249304D01*
X55705Y248736D01*
X56567Y248379D01*
X57492Y248257D01*
X57492Y248257D01*
X62359D01*
Y246860D01*
X62528Y246011D01*
X63009Y245292D01*
X63728Y244811D01*
X64577Y244642D01*
X68179D01*
X69028Y244811D01*
X69747Y245292D01*
X70228Y246011D01*
X70397Y246860D01*
Y256801D01*
X70228Y257650D01*
X69747Y258369D01*
X69028Y258850D01*
X68179Y259019D01*
X64577D01*
X63728Y258850D01*
X63009Y258369D01*
X62528Y257650D01*
X62359Y256801D01*
Y255405D01*
X58973D01*
X45834Y268543D01*
Y297618D01*
X45859Y297645D01*
X45948Y297705D01*
X46049Y297741D01*
X46064Y297742D01*
X46197D01*
X47551Y297875D01*
X48852Y298270D01*
X50052Y298912D01*
X51103Y299775D01*
X51966Y300826D01*
X52608Y302026D01*
X53002Y303327D01*
X53136Y304681D01*
X53002Y306035D01*
X52608Y307336D01*
X51966Y308536D01*
X51103Y309588D01*
X50052Y310451D01*
X48852Y311092D01*
X47551Y311487D01*
X46197Y311620D01*
D02*
G37*
G36*
X4143Y241063D02*
X3510D01*
X2926Y240821D01*
X2478Y240373D01*
X2236Y239789D01*
Y239156D01*
X2478Y238572D01*
X2926Y238124D01*
X3510Y237882D01*
X4143D01*
X4728Y238124D01*
X5175Y238572D01*
X5417Y239156D01*
Y239789D01*
X5175Y240373D01*
X4728Y240821D01*
X4143Y241063D01*
D02*
G37*
G36*
X320339Y234330D02*
X319414Y234208D01*
X319237Y234135D01*
X315740D01*
Y234303D01*
X305504D01*
Y226429D01*
X307040D01*
Y222500D01*
X305488D01*
Y214626D01*
X315724D01*
Y222500D01*
X314188D01*
Y226429D01*
X315740D01*
Y226987D01*
X320144D01*
X321069Y227109D01*
X321931Y227466D01*
X322113Y227606D01*
X324079Y227606D01*
X324079Y227106D01*
Y223866D01*
X326164D01*
X326894Y223564D01*
X327819Y223442D01*
X344027D01*
X350299Y217171D01*
X350335Y217066D01*
X350417Y216758D01*
X350445Y216605D01*
Y216492D01*
X350781Y215236D01*
X351431Y214110D01*
X352350Y213191D01*
X353476Y212541D01*
X354732Y212205D01*
X356032D01*
X357288Y212541D01*
X358413Y213191D01*
X359332Y214110D01*
X359982Y215236D01*
X360319Y216492D01*
Y217792D01*
X359982Y219047D01*
X359332Y220173D01*
X358413Y221092D01*
X357288Y221742D01*
X356032Y222079D01*
X355919D01*
X355766Y222107D01*
X355458Y222188D01*
X355353Y222225D01*
X348035Y229543D01*
X347295Y230111D01*
X346433Y230468D01*
X345508Y230590D01*
X327819D01*
X326894Y230468D01*
X326164Y230165D01*
X324079Y230165D01*
X324079Y230665D01*
Y233906D01*
X321994D01*
X321264Y234208D01*
X320339Y234330D01*
D02*
G37*
G36*
X356032Y241764D02*
X354732D01*
X353476Y241427D01*
X352350Y240777D01*
X351431Y239858D01*
X350781Y238732D01*
X350445Y237477D01*
Y236177D01*
X350781Y234921D01*
X351431Y233795D01*
X352350Y232876D01*
X353476Y232226D01*
X354732Y231890D01*
X356032D01*
X357288Y232226D01*
X358413Y232876D01*
X359332Y233795D01*
X359982Y234921D01*
X360319Y236177D01*
Y237477D01*
X359982Y238732D01*
X359332Y239858D01*
X358413Y240777D01*
X357288Y241427D01*
X356032Y241764D01*
D02*
G37*
G36*
X4620Y216642D02*
X3987D01*
X3402Y216400D01*
X2955Y215952D01*
X2713Y215368D01*
Y214735D01*
X2955Y214150D01*
X3402Y213703D01*
X3987Y213461D01*
X4620D01*
X5204Y213703D01*
X5652Y214150D01*
X5894Y214735D01*
Y215368D01*
X5652Y215952D01*
X5204Y216400D01*
X4620Y216642D01*
D02*
G37*
G36*
X46354Y331344D02*
X38480D01*
X37127Y331211D01*
X37027Y331181D01*
X25646D01*
X25256Y331103D01*
X24925Y330882D01*
X18826Y324784D01*
X18605Y324453D01*
X18528Y324063D01*
Y144500D01*
X18605Y144110D01*
X18826Y143779D01*
X29712Y132893D01*
X30043Y132672D01*
X30433Y132595D01*
X44370D01*
X44760Y132672D01*
X44788Y132691D01*
X46126D01*
X47480Y132824D01*
X48781Y133219D01*
X49981Y133860D01*
X51033Y134723D01*
X51895Y135775D01*
X52537Y136975D01*
X52932Y138276D01*
X53065Y139630D01*
X52932Y140984D01*
X52537Y142285D01*
X51895Y143485D01*
X51033Y144536D01*
X49981Y145399D01*
X48781Y146041D01*
X47480Y146435D01*
X46126Y146569D01*
X38252D01*
X36898Y146435D01*
X36280Y146248D01*
X35938D01*
X30146Y152041D01*
Y209240D01*
X31740D01*
X32130Y209318D01*
X32461Y209539D01*
X38229Y215306D01*
X38402Y215289D01*
X46276D01*
X47629Y215423D01*
X48931Y215818D01*
X49795Y216280D01*
X59465D01*
X62206Y213609D01*
X62367Y213504D01*
X62527Y213397D01*
X62534Y213395D01*
X62539Y213392D01*
X62728Y213357D01*
X62917Y213319D01*
X63978D01*
X63982Y213313D01*
X64890Y212617D01*
X65947Y212179D01*
X67082Y212029D01*
X83706D01*
X84840Y212179D01*
X85897Y212617D01*
X86805Y213313D01*
X87502Y214221D01*
X87939Y215278D01*
X88089Y216412D01*
Y234887D01*
X87939Y236021D01*
X87502Y237078D01*
X86805Y237986D01*
X85897Y238683D01*
X84840Y239120D01*
X83706Y239270D01*
X67082D01*
X65947Y239120D01*
X64890Y238683D01*
X63982Y237986D01*
X63286Y237078D01*
X62848Y236021D01*
X62801Y235660D01*
X55838Y228697D01*
X48741D01*
X47629Y229034D01*
X46276Y229167D01*
X38402D01*
X37186Y229047D01*
X32174Y234060D01*
X31843Y234281D01*
X31453Y234358D01*
X29858D01*
Y314212D01*
X33033Y317386D01*
X46402D01*
X46792Y317463D01*
X46873Y317518D01*
X47708Y317600D01*
X49010Y317995D01*
X50209Y318636D01*
X51261Y319499D01*
X52124Y320550D01*
X52765Y321750D01*
X53160Y323052D01*
X53293Y324406D01*
X53160Y325759D01*
X52765Y327061D01*
X52124Y328261D01*
X51261Y329312D01*
X50209Y330175D01*
X49010Y330816D01*
X47708Y331211D01*
X46354Y331344D01*
D02*
G37*
G36*
X156618Y247965D02*
X153335D01*
X153154Y247941D01*
X149890D01*
Y242429D01*
Y237508D01*
Y232587D01*
Y227665D01*
X156780D01*
X156921Y227224D01*
Y221313D01*
X136634Y201026D01*
X136591Y201010D01*
X136138Y200874D01*
X135062Y200635D01*
X134662Y200571D01*
X134523D01*
X133268Y200234D01*
X132142Y199584D01*
X131223Y198665D01*
X130573Y197539D01*
X130432Y197015D01*
X129914D01*
X129774Y197539D01*
X129124Y198665D01*
X128205Y199584D01*
X127079Y200234D01*
X125823Y200571D01*
X124523D01*
X123268Y200234D01*
X122142Y199584D01*
X121223Y198665D01*
X120573Y197539D01*
X120236Y196284D01*
Y194984D01*
X120573Y193728D01*
X121223Y192603D01*
X122142Y191683D01*
X123268Y191033D01*
X124523Y190697D01*
X125823D01*
X127079Y191033D01*
X127166Y191084D01*
X127473Y190683D01*
X68861Y132072D01*
X68419Y131496D01*
X68142Y130826D01*
X68047Y130106D01*
Y95955D01*
X51908Y79815D01*
X50883D01*
X50644Y80393D01*
X50155Y81030D01*
X49517Y81519D01*
X48775Y81827D01*
X47979Y81932D01*
X35183D01*
X34387Y81827D01*
X33645Y81519D01*
X33007Y81030D01*
X32518Y80393D01*
X32211Y79651D01*
X32106Y78854D01*
Y75902D01*
X32211Y75105D01*
X32518Y74363D01*
X33007Y73725D01*
X33283Y73514D01*
Y73014D01*
X33007Y72802D01*
X32518Y72165D01*
X32211Y71422D01*
X32106Y70626D01*
Y67673D01*
X32211Y66877D01*
X32518Y66134D01*
X33007Y65497D01*
X33645Y65008D01*
X34387Y64701D01*
X35183Y64596D01*
X47979D01*
X48775Y64701D01*
X49517Y65008D01*
X50155Y65497D01*
X50644Y66134D01*
X50951Y66877D01*
X51040Y67551D01*
X56354D01*
X57074Y67646D01*
X57744Y67923D01*
X58320Y68365D01*
X78970Y89015D01*
X79411Y89591D01*
X79689Y90261D01*
X79784Y90980D01*
Y125467D01*
X144607Y190290D01*
X144807Y190370D01*
X145772Y190676D01*
X146297Y190806D01*
X146382Y190847D01*
X147079Y191033D01*
X148205Y191683D01*
X149124Y192603D01*
X149774Y193728D01*
X150110Y194984D01*
Y196284D01*
X149774Y197539D01*
X149124Y198665D01*
X148459Y199330D01*
Y199831D01*
X165812Y217184D01*
X166254Y217760D01*
X166531Y218430D01*
X166626Y219150D01*
Y237957D01*
X166531Y238676D01*
X166254Y239347D01*
X165812Y239922D01*
X158584Y247151D01*
X158008Y247592D01*
X157337Y247870D01*
X156618Y247965D01*
D02*
G37*
G36*
X340713Y185157D02*
X338744D01*
X337004Y184986D01*
X335332Y184478D01*
X333790Y183654D01*
X332439Y182545D01*
X332060Y182084D01*
X331809Y181985D01*
X331224Y181799D01*
X324677D01*
Y182024D01*
X320818D01*
X320211Y182275D01*
X318772Y182465D01*
X318181D01*
X316742Y182275D01*
X316134Y182024D01*
X311685D01*
Y171787D01*
X316134D01*
X316246Y171741D01*
X316657Y171426D01*
X317998Y170870D01*
X319437Y170681D01*
X331224D01*
X331809Y170495D01*
X332060Y170396D01*
X332439Y169935D01*
X333790Y168826D01*
X335332Y168002D01*
X337004Y167495D01*
X338744Y167323D01*
X340713D01*
X342452Y167495D01*
X344125Y168002D01*
X345667Y168826D01*
X347018Y169935D01*
X347285Y170261D01*
X347498Y170341D01*
X347974Y170484D01*
X350275D01*
X350957Y170257D01*
X351238Y170141D01*
X351730Y169541D01*
X353081Y168432D01*
X354623Y167608D01*
X356296Y167101D01*
X358035Y166929D01*
X358132D01*
X358157Y166429D01*
X356690Y166285D01*
X355017Y165778D01*
X353475Y164953D01*
X352124Y163845D01*
X351015Y162493D01*
X350191Y160952D01*
X349802Y159670D01*
X349280D01*
X348951Y160755D01*
X348127Y162296D01*
X347018Y163648D01*
X345667Y164757D01*
X344125Y165581D01*
X342452Y166088D01*
X340713Y166260D01*
X338744D01*
X337004Y166088D01*
X335332Y165581D01*
X333790Y164757D01*
X332439Y163648D01*
X331330Y162296D01*
X330506Y160755D01*
X329998Y159082D01*
X329827Y157343D01*
X329998Y155603D01*
X330506Y153930D01*
X331330Y152389D01*
X332439Y151037D01*
X333790Y149928D01*
X335332Y149104D01*
X337004Y148597D01*
X338744Y148426D01*
X340395D01*
X340469Y148351D01*
Y139902D01*
X339394D01*
Y135488D01*
X339177D01*
X338787Y135410D01*
X338456Y135189D01*
X338235Y134859D01*
X338158Y134468D01*
Y131319D01*
X338235Y130929D01*
X338456Y130598D01*
X338787Y130377D01*
X339177Y130299D01*
X340008D01*
Y125842D01*
X339177D01*
X338787Y125765D01*
X338456Y125544D01*
X338235Y125213D01*
X338158Y124823D01*
Y121673D01*
X338235Y121283D01*
X338456Y120952D01*
X338787Y120731D01*
X339177Y120654D01*
X340111D01*
X340307Y120362D01*
X340637Y120141D01*
X341028Y120063D01*
X348410D01*
X348800Y120141D01*
X349130Y120362D01*
X349351Y120693D01*
X349429Y121083D01*
Y133051D01*
X349988D01*
Y125000D01*
Y121260D01*
X350066Y120870D01*
X350287Y120539D01*
X350618Y120318D01*
X351008Y120240D01*
X358390D01*
X358780Y120318D01*
X359111Y120539D01*
X359332Y120870D01*
X359348Y120949D01*
X360161D01*
X360552Y121027D01*
X360882Y121248D01*
X361103Y121578D01*
X361181Y121968D01*
Y125118D01*
X361103Y125508D01*
X360882Y125839D01*
X360552Y126060D01*
X360161Y126138D01*
X359409D01*
Y130595D01*
X360161D01*
X360552Y130672D01*
X360882Y130893D01*
X361103Y131224D01*
X361181Y131614D01*
Y134764D01*
X361103Y135154D01*
X360882Y135485D01*
X360552Y135706D01*
X360161Y135783D01*
X359984D01*
Y136779D01*
X360284Y137170D01*
X360641Y138032D01*
X360763Y138957D01*
Y143004D01*
X360836Y143562D01*
Y145383D01*
X361022Y145734D01*
X361494Y146479D01*
X362071Y147275D01*
X363886Y149342D01*
X365352Y150125D01*
X366703Y151234D01*
X367812Y152585D01*
X368636Y154127D01*
X369143Y155800D01*
X369315Y157539D01*
X369143Y159279D01*
X368636Y160952D01*
X367812Y162493D01*
X366703Y163845D01*
X365352Y164953D01*
X363810Y165778D01*
X362137Y166285D01*
X360398Y166456D01*
X360301D01*
X360276Y166956D01*
X361744Y167101D01*
X363416Y167608D01*
X364958Y168432D01*
X366309Y169541D01*
X367418Y170893D01*
X368242Y172434D01*
X368750Y174107D01*
X368921Y175847D01*
X368750Y177586D01*
X368242Y179259D01*
X367418Y180800D01*
X366309Y182152D01*
X364958Y183261D01*
X363416Y184085D01*
X361744Y184592D01*
X360004Y184763D01*
X358035D01*
X356296Y184592D01*
X354623Y184085D01*
X353081Y183261D01*
X351730Y182152D01*
X351463Y181826D01*
X351250Y181746D01*
X350774Y181603D01*
X348473D01*
X347791Y181830D01*
X347510Y181946D01*
X347018Y182545D01*
X345667Y183654D01*
X344125Y184478D01*
X342452Y184986D01*
X340713Y185157D01*
D02*
G37*
G36*
X324677Y164701D02*
X311685D01*
Y163508D01*
X311459Y163084D01*
X311444Y163036D01*
X311416Y162994D01*
X311387Y162847D01*
X311344Y162703D01*
X311349Y162653D01*
X311339Y162604D01*
Y137457D01*
X311416Y137066D01*
X311637Y136736D01*
X314110Y134263D01*
X314440Y134042D01*
X314831Y133965D01*
X321094D01*
X321485Y134042D01*
X321815Y134263D01*
X325985Y138433D01*
X326206Y138763D01*
X326283Y139154D01*
Y163268D01*
X326206Y163658D01*
X325985Y163989D01*
X325654Y164210D01*
X325264Y164287D01*
X324677D01*
Y164701D01*
D02*
G37*
G36*
X161098Y124071D02*
X150862D01*
Y116197D01*
X161098D01*
Y116778D01*
X162035D01*
Y109453D01*
X161098D01*
Y114622D01*
X150862D01*
Y113935D01*
X150780Y113905D01*
X150331Y113784D01*
Y113784D01*
X141669D01*
Y113220D01*
X140457D01*
Y113740D01*
X131795D01*
Y107441D01*
X132244D01*
Y105752D01*
X116142D01*
Y106697D01*
X105118D01*
Y105677D01*
Y97323D01*
Y95673D01*
X116142D01*
Y96618D01*
X132285D01*
X132322Y96433D01*
X132543Y96102D01*
X132874Y95881D01*
X133264Y95803D01*
X143677D01*
X144067Y95881D01*
X144398Y96102D01*
X152879Y104583D01*
X153434Y104656D01*
X153761Y104791D01*
X156327D01*
X156486Y104291D01*
X155875Y103822D01*
X144693Y92641D01*
X144125Y91901D01*
X143768Y91039D01*
X143647Y90114D01*
Y78114D01*
X142102D01*
Y70240D01*
Y68665D01*
Y60791D01*
X143641D01*
Y59189D01*
X142287D01*
Y51709D01*
X152130D01*
Y59189D01*
X150788D01*
Y60791D01*
X152339D01*
Y68665D01*
X152728Y69055D01*
Y70630D01*
X152728Y70630D01*
X152339Y70791D01*
Y78114D01*
X150794D01*
Y86625D01*
X150862Y86693D01*
X176811D01*
Y91973D01*
X176842Y92205D01*
Y97094D01*
X176842Y97095D01*
X176811Y97327D01*
Y97716D01*
X176760D01*
X176720Y98019D01*
X176454Y98660D01*
X176878Y98944D01*
X179724Y96097D01*
Y86693D01*
X186811D01*
Y97716D01*
X185225D01*
X173788Y109154D01*
X173457Y109375D01*
X173067Y109453D01*
X172272D01*
Y122055D01*
X166528D01*
X166382Y122201D01*
X165724Y122706D01*
X164958Y123023D01*
X164136Y123131D01*
X161098D01*
Y124071D01*
D02*
G37*
G36*
X359984Y118996D02*
X354394D01*
Y116538D01*
X354312Y116342D01*
X354211Y115571D01*
Y110080D01*
X351621Y107490D01*
X349284D01*
X349093Y107952D01*
X349295Y108154D01*
X349768Y108771D01*
X350066Y109489D01*
X350167Y110260D01*
X350167Y110260D01*
Y115571D01*
X350066Y116342D01*
X349984Y116538D01*
Y118996D01*
X344394D01*
Y116538D01*
X344312Y116342D01*
X344211Y115571D01*
Y111624D01*
X330264D01*
X330264Y111624D01*
X329493Y111522D01*
X328775Y111225D01*
X328158Y110752D01*
X328158Y110752D01*
X320673Y103267D01*
X320200Y102650D01*
X319903Y101932D01*
X319801Y101161D01*
Y100216D01*
X317425D01*
Y100193D01*
X307972D01*
Y100094D01*
X298787D01*
Y92614D01*
X307972D01*
Y92319D01*
X318209D01*
Y92343D01*
X337051D01*
Y92354D01*
X346209D01*
Y92618D01*
X355374D01*
Y100098D01*
X346209D01*
Y100228D01*
X335972D01*
Y100216D01*
X334911D01*
Y101199D01*
X335245Y101534D01*
X352854D01*
X353625Y101635D01*
X354343Y101933D01*
X354960Y102406D01*
X359295Y106740D01*
X359768Y107357D01*
X360066Y108076D01*
X360167Y108846D01*
Y115571D01*
X360066Y116342D01*
X359984Y116538D01*
Y118996D01*
D02*
G37*
G36*
X45855Y108327D02*
X44555D01*
X43299Y107990D01*
X42173Y107340D01*
X41254Y106421D01*
X40604Y105295D01*
X40268Y104040D01*
Y102740D01*
X40604Y101484D01*
X41254Y100358D01*
X42173Y99439D01*
X43299Y98789D01*
X44555Y98453D01*
X45855D01*
X47110Y98789D01*
X48236Y99439D01*
X49155Y100358D01*
X49805Y101484D01*
X50142Y102740D01*
Y104040D01*
X49805Y105295D01*
X49155Y106421D01*
X48236Y107340D01*
X47110Y107990D01*
X45855Y108327D01*
D02*
G37*
G36*
X22782Y90514D02*
X9986D01*
X9190Y90410D01*
X8448Y90102D01*
X7810Y89613D01*
X7321Y88976D01*
X7014Y88233D01*
X6909Y87437D01*
Y84484D01*
X7014Y83688D01*
X7321Y82945D01*
X7810Y82308D01*
X8448Y81819D01*
X9190Y81511D01*
X9986Y81407D01*
X22782D01*
X23578Y81511D01*
X24320Y81819D01*
X24958Y82308D01*
X25447Y82945D01*
X25754Y83688D01*
X25859Y84484D01*
Y87437D01*
X25754Y88233D01*
X25447Y88976D01*
X24958Y89613D01*
X24320Y90102D01*
X23578Y90410D01*
X22782Y90514D01*
D02*
G37*
G36*
X22585Y47955D02*
X9790D01*
X8993Y47850D01*
X8251Y47543D01*
X7614Y47054D01*
X7124Y46417D01*
X6817Y45674D01*
X6712Y44878D01*
Y41925D01*
X6817Y41129D01*
X7124Y40386D01*
X7614Y39749D01*
X8251Y39260D01*
X8993Y38952D01*
X9790Y38848D01*
X22585D01*
X23381Y38952D01*
X24124Y39260D01*
X24761Y39749D01*
X25250Y40386D01*
X25558Y41129D01*
X25662Y41925D01*
Y44878D01*
X25558Y45674D01*
X25250Y46417D01*
X24761Y47054D01*
X24124Y47543D01*
X23381Y47850D01*
X22585Y47955D01*
D02*
G37*
G36*
X373445Y44736D02*
X365571D01*
Y34500D01*
X373445D01*
Y36428D01*
X375638D01*
Y35890D01*
X385480D01*
Y43370D01*
X375638D01*
Y42781D01*
X373445D01*
Y44736D01*
D02*
G37*
G36*
X216811Y38465D02*
X209724D01*
Y27441D01*
X216811D01*
Y38465D01*
D02*
G37*
G36*
X196811D02*
X189724D01*
Y27441D01*
X196811D01*
Y38465D01*
D02*
G37*
G36*
X186811D02*
X179724D01*
Y27441D01*
X186811D01*
Y38465D01*
D02*
G37*
G36*
X176811D02*
X169724D01*
Y27441D01*
X176811D01*
Y38465D01*
D02*
G37*
G36*
X158366Y30008D02*
X150461D01*
Y22102D01*
X158366D01*
Y30008D01*
D02*
G37*
G36*
X144934D02*
X143893D01*
X142888Y29739D01*
X141986Y29218D01*
X141250Y28482D01*
X140730Y27581D01*
X140461Y26575D01*
Y25535D01*
X140730Y24529D01*
X141250Y23628D01*
X141986Y22892D01*
X142888Y22372D01*
X143893Y22102D01*
X144934D01*
X145939Y22372D01*
X146840Y22892D01*
X147576Y23628D01*
X148097Y24529D01*
X148366Y25535D01*
Y26575D01*
X148097Y27581D01*
X147576Y28482D01*
X146840Y29218D01*
X145939Y29739D01*
X144934Y30008D01*
D02*
G37*
G36*
X134934D02*
X133893D01*
X132888Y29739D01*
X131986Y29218D01*
X131250Y28482D01*
X130730Y27581D01*
X130461Y26575D01*
Y25535D01*
X130730Y24529D01*
X131250Y23628D01*
X131986Y22892D01*
X132888Y22372D01*
X133893Y22102D01*
X134934D01*
X135939Y22372D01*
X136840Y22892D01*
X137576Y23628D01*
X138097Y24529D01*
X138366Y25535D01*
Y26575D01*
X138097Y27581D01*
X137576Y28482D01*
X136840Y29218D01*
X135939Y29739D01*
X134934Y30008D01*
D02*
G37*
G36*
X124934D02*
X123893D01*
X122888Y29739D01*
X121986Y29218D01*
X121250Y28482D01*
X120730Y27581D01*
X120461Y26575D01*
Y25535D01*
X120730Y24529D01*
X121250Y23628D01*
X121986Y22892D01*
X122888Y22372D01*
X123893Y22102D01*
X124934D01*
X125939Y22372D01*
X126840Y22892D01*
X127576Y23628D01*
X128097Y24529D01*
X128366Y25535D01*
Y26575D01*
X128097Y27581D01*
X127576Y28482D01*
X126840Y29218D01*
X125939Y29739D01*
X124934Y30008D01*
D02*
G37*
G36*
X375024Y32496D02*
X373007D01*
X371016Y32181D01*
X369098Y31558D01*
X367301Y30642D01*
X365670Y29457D01*
X364244Y28031D01*
X363059Y26399D01*
X362143Y24603D01*
X361520Y22685D01*
X361205Y20693D01*
Y18677D01*
X361520Y16685D01*
X362143Y14767D01*
X363059Y12971D01*
X364244Y11339D01*
X365670Y9913D01*
X367301Y8728D01*
X369098Y7813D01*
X371016Y7190D01*
X373007Y6874D01*
X375024D01*
X377016Y7190D01*
X378934Y7813D01*
X380730Y8728D01*
X382362Y9913D01*
X383787Y11339D01*
X384973Y12971D01*
X385888Y14767D01*
X386511Y16685D01*
X386827Y18677D01*
Y20693D01*
X386511Y22685D01*
X385888Y24603D01*
X384973Y26399D01*
X383787Y28031D01*
X382362Y29457D01*
X380730Y30642D01*
X378934Y31558D01*
X377016Y32181D01*
X375024Y32496D01*
D02*
G37*
G36*
X20693D02*
X18677D01*
X16685Y32181D01*
X14767Y31558D01*
X12971Y30642D01*
X11339Y29457D01*
X9913Y28031D01*
X8728Y26399D01*
X7813Y24603D01*
X7190Y22685D01*
X6874Y20693D01*
Y18677D01*
X7190Y16685D01*
X7813Y14767D01*
X8728Y12971D01*
X9913Y11339D01*
X11339Y9913D01*
X12971Y8728D01*
X14767Y7813D01*
X16685Y7190D01*
X18677Y6874D01*
X20693D01*
X22685Y7190D01*
X24603Y7813D01*
X26399Y8728D01*
X28031Y9913D01*
X29457Y11339D01*
X30642Y12971D01*
X31558Y14767D01*
X32181Y16685D01*
X32496Y18677D01*
Y20693D01*
X32181Y22685D01*
X31558Y24603D01*
X30642Y26399D01*
X29457Y28031D01*
X28031Y29457D01*
X26399Y30642D01*
X24603Y31558D01*
X22685Y32181D01*
X20693Y32496D01*
D02*
G37*
%LPD*%
G36*
X73929Y367717D02*
X73882Y367923D01*
X73740Y368108D01*
X73504Y368271D01*
X73173Y368412D01*
X72748Y368531D01*
X72228Y368629D01*
X71705Y368694D01*
X70901Y368634D01*
X70382Y368539D01*
X69956Y368423D01*
X69626Y368286D01*
X69390Y368128D01*
X69248Y367949D01*
X69201Y367748D01*
Y374417D01*
X69248Y374248D01*
X69390Y374097D01*
X69626Y373963D01*
X69956Y373848D01*
X70382Y373750D01*
X70901Y373670D01*
X71252Y373642D01*
X72228Y373728D01*
X72748Y373840D01*
X73173Y373978D01*
X73504Y374141D01*
X73740Y374329D01*
X73882Y374541D01*
X73929Y374779D01*
Y367717D01*
D02*
G37*
G36*
X72928Y304214D02*
Y288612D01*
X73142Y288398D01*
Y278579D01*
X56587D01*
X55953Y279213D01*
Y283677D01*
X66043D01*
X68504Y286138D01*
Y302799D01*
X68539Y303185D01*
X68713Y303358D01*
Y304661D01*
X72480D01*
X72928Y304214D01*
D02*
G37*
G36*
X83634Y304169D02*
Y261827D01*
X83693Y261768D01*
X83268Y261343D01*
X74425D01*
Y275157D01*
X74126Y275457D01*
X77638Y278969D01*
X77878D01*
Y285575D01*
X77760Y285693D01*
X78606Y286539D01*
Y297201D01*
X78669Y297311D01*
Y304126D01*
X78519Y304277D01*
X78790Y304713D01*
X83091D01*
X83634Y304169D01*
D02*
G37*
G36*
X93665Y304528D02*
Y264520D01*
X109953Y248232D01*
Y213252D01*
X50157Y153457D01*
X36051D01*
X33976Y155532D01*
X33870D01*
Y161437D01*
X36492Y164059D01*
X36492Y164059D01*
X41083D01*
X89618Y212595D01*
X89728D01*
Y242547D01*
X86232Y246043D01*
X81968D01*
Y257303D01*
X87323Y262657D01*
Y304972D01*
X93665D01*
Y304528D01*
D02*
G37*
G36*
X329638Y282756D02*
Y272476D01*
X329484Y272323D01*
X316232D01*
Y275024D01*
X312831Y278425D01*
X308811D01*
Y285264D01*
X309122Y285575D01*
X326740D01*
X326780Y285614D01*
X329638Y282756D01*
D02*
G37*
G36*
X46196Y298781D02*
X45822Y298742D01*
X45488Y298623D01*
X45193Y298426D01*
X44937Y298149D01*
X44720Y297794D01*
X44543Y297360D01*
X44405Y296846D01*
X44307Y296254D01*
X44248Y295583D01*
X44228Y294832D01*
X40291D01*
X40272Y295583D01*
X40213Y296254D01*
X40114Y296846D01*
X39976Y297360D01*
X39799Y297794D01*
X39583Y298149D01*
X39327Y298426D01*
X39031Y298623D01*
X38697Y298742D01*
X38323Y298781D01*
X46196Y298781D01*
D02*
G37*
G36*
X63989Y247894D02*
X63949Y248268D01*
X63831Y248602D01*
X63633Y248898D01*
X63357Y249153D01*
X63002Y249370D01*
X62567Y249547D01*
X62054Y249685D01*
X61462Y249783D01*
X60790Y249843D01*
X60040Y249862D01*
Y253799D01*
X60790Y253819D01*
X61462Y253878D01*
X62054Y253976D01*
X62567Y254114D01*
X63002Y254291D01*
X63357Y254508D01*
X63633Y254764D01*
X63831Y255059D01*
X63949Y255394D01*
X63989Y255768D01*
Y247894D01*
D02*
G37*
G36*
X314193Y232681D02*
X314311Y232649D01*
X314508Y232621D01*
X314783Y232597D01*
X316673Y232537D01*
X318090Y232529D01*
Y228592D01*
X317342Y228587D01*
X315138Y228448D01*
X314783Y228385D01*
X314508Y228310D01*
X314311Y228223D01*
X314193Y228126D01*
X314153Y228016D01*
X313855Y227977D01*
X313588Y227858D01*
X313352Y227662D01*
X313148Y227386D01*
X312975Y227032D01*
X312834Y226599D01*
X312724Y226087D01*
X312646Y225496D01*
X312598Y224827D01*
X312591Y224463D01*
X312598Y224102D01*
X312723Y222842D01*
X312831Y222330D01*
X312971Y221897D01*
X313142Y221543D01*
X313345Y221268D01*
X313578Y221071D01*
X313842Y220953D01*
X314138Y220913D01*
X307075D01*
X307373Y220953D01*
X307640Y221071D01*
X307876Y221268D01*
X308080Y221543D01*
X308253Y221897D01*
X308394Y222330D01*
X308504Y222842D01*
X308583Y223433D01*
X308630Y224102D01*
X308638Y224466D01*
X308630Y224827D01*
X308506Y226087D01*
X308397Y226599D01*
X308257Y227032D01*
X308086Y227386D01*
X307884Y227662D01*
X307650Y227858D01*
X307386Y227977D01*
X307091Y228016D01*
X314153D01*
Y232716D01*
X314193Y232681D01*
D02*
G37*
G36*
X352508Y222816D02*
X353258Y222199D01*
X353635Y221938D01*
X354014Y221709D01*
X354394Y221512D01*
X354776Y221346D01*
X355159Y221213D01*
X355544Y221111D01*
X355930Y221040D01*
X351483Y216594D01*
X351413Y216980D01*
X351311Y217365D01*
X351177Y217748D01*
X351012Y218129D01*
X350814Y218510D01*
X350585Y218888D01*
X350325Y219265D01*
X350032Y219641D01*
X349708Y220015D01*
X349352Y220388D01*
X352136Y223172D01*
X352508Y222816D01*
D02*
G37*
G36*
X46402Y318406D02*
X32610D01*
X28839Y314634D01*
Y233339D01*
X31453D01*
X37114Y227677D01*
X45386D01*
X45386Y227677D01*
X56260D01*
X66016Y237433D01*
X84748D01*
Y214689D01*
X84256Y214197D01*
X65102D01*
X64961Y214339D01*
X62917D01*
X59880Y217299D01*
X47417D01*
Y216500D01*
X37980D01*
X31740Y210260D01*
X29126D01*
Y151618D01*
X35661Y145083D01*
X35807Y145228D01*
X44191D01*
X44370Y144795D01*
Y133614D01*
X30433D01*
X19547Y144500D01*
Y324063D01*
X25646Y330161D01*
X46402D01*
Y318406D01*
D02*
G37*
G36*
X146866Y200650D02*
X146910Y200066D01*
X146949Y199815D01*
X146998Y199591D01*
X147059Y199393D01*
X147131Y199222D01*
X147214Y199079D01*
X147308Y198962D01*
X147413Y198872D01*
X143833Y199336D01*
X143959Y199396D01*
X144072Y199479D01*
X144172Y199585D01*
X144258Y199715D01*
X144332Y199868D01*
X144392Y200044D01*
X144438Y200244D01*
X144471Y200467D01*
X144491Y200713D01*
X144498Y200982D01*
X146860D01*
X146866Y200650D01*
D02*
G37*
G36*
X140891Y199681D02*
X140627Y199390D01*
X140382Y199061D01*
X140154Y198695D01*
X139945Y198291D01*
X139754Y197850D01*
X139581Y197372D01*
X139426Y196856D01*
X139172Y195713D01*
X139072Y195086D01*
X134625Y199532D01*
X135253Y199633D01*
X136396Y199887D01*
X136911Y200042D01*
X137389Y200215D01*
X137830Y200406D01*
X138234Y200615D01*
X138600Y200842D01*
X138929Y201088D01*
X139221Y201352D01*
X140891Y199681D01*
D02*
G37*
G36*
X146050Y191796D02*
X145494Y191657D01*
X144464Y191331D01*
X143990Y191142D01*
X143124Y190716D01*
X142732Y190478D01*
X142368Y190224D01*
X142031Y189953D01*
X141721Y189665D01*
X139781Y191065D01*
X140024Y191341D01*
X140245Y191662D01*
X140445Y192028D01*
X140623Y192439D01*
X140780Y192895D01*
X140915Y193396D01*
X141029Y193942D01*
X141193Y195169D01*
X141242Y195850D01*
X146050Y191796D01*
D02*
G37*
G36*
X136181Y191828D02*
X135658Y191678D01*
X134682Y191330D01*
X134228Y191131D01*
X133388Y190683D01*
X133002Y190435D01*
X132639Y190170D01*
X132298Y189888D01*
X131981Y189590D01*
X129928Y190878D01*
X130163Y191148D01*
X130375Y191466D01*
X130564Y191831D01*
X130729Y192244D01*
X130872Y192704D01*
X130991Y193212D01*
X131087Y193767D01*
X131210Y195020D01*
X131237Y195717D01*
X136181Y191828D01*
D02*
G37*
G36*
X49338Y79169D02*
X49402Y78970D01*
X49518Y78793D01*
X49688Y78640D01*
X49911Y78511D01*
X50186Y78405D01*
X50515Y78322D01*
X50896Y78264D01*
X51330Y78228D01*
X51818Y78216D01*
X51812Y75854D01*
X51420Y75844D01*
X51053Y75814D01*
X50711Y75765D01*
X50394Y75695D01*
X50103Y75605D01*
X49837Y75495D01*
X49595Y75366D01*
X49379Y75216D01*
X49189Y75047D01*
X49023Y74857D01*
X49327Y79393D01*
X49338Y79169D01*
D02*
G37*
G36*
X48837Y71830D02*
X48993Y71763D01*
X49183Y71704D01*
X49409Y71653D01*
X49671Y71610D01*
X50299Y71547D01*
X51069Y71516D01*
X51507Y71512D01*
X51818Y69150D01*
X51328Y69138D01*
X50893Y69102D01*
X50515Y69043D01*
X50194Y68961D01*
X49928Y68854D01*
X49719Y68724D01*
X49566Y68571D01*
X49469Y68394D01*
X49428Y68193D01*
X49444Y67968D01*
X48717Y71905D01*
X48837Y71830D01*
D02*
G37*
G36*
X334990Y169951D02*
X334344Y170398D01*
X333656Y170798D01*
X332925Y171151D01*
X332151Y171457D01*
X331334Y171715D01*
X330475Y171927D01*
X329573Y172091D01*
X328628Y172209D01*
X327640Y172280D01*
X326610Y172303D01*
Y180177D01*
X327640Y180201D01*
X329573Y180389D01*
X330475Y180553D01*
X331334Y180765D01*
X332151Y181024D01*
X332925Y181330D01*
X333656Y181682D01*
X334344Y182082D01*
X334990Y182529D01*
Y169951D01*
D02*
G37*
G36*
X345214Y181991D02*
X345914Y181569D01*
X346654Y181197D01*
X347434Y180874D01*
X348255Y180601D01*
X349115Y180377D01*
X349603Y180283D01*
X349907Y180335D01*
X350765Y180535D01*
X351577Y180780D01*
X352344Y181068D01*
X353064Y181401D01*
X353740Y181779D01*
X354369Y182200D01*
X354194Y169624D01*
X353534Y170096D01*
X352834Y170518D01*
X352094Y170890D01*
X351314Y171213D01*
X350493Y171486D01*
X349633Y171709D01*
X349145Y171803D01*
X348841Y171751D01*
X347983Y171551D01*
X347171Y171307D01*
X346404Y171019D01*
X345684Y170686D01*
X345008Y170308D01*
X344379Y169886D01*
X344554Y182462D01*
X345214Y181991D01*
D02*
G37*
G36*
X364905Y151896D02*
X363827Y150819D01*
X361274Y147913D01*
X360649Y147052D01*
X360139Y146246D01*
X359742Y145494D01*
X359458Y144796D01*
X359288Y144152D01*
X359231Y143562D01*
X355294Y144530D01*
X355266Y145346D01*
X355181Y146188D01*
X355040Y147054D01*
X354842Y147946D01*
X354278Y149805D01*
X353911Y150772D01*
X353008Y152781D01*
X352471Y153824D01*
X364905Y151896D01*
D02*
G37*
G36*
X358390Y136457D02*
Y134764D01*
X360161D01*
Y131614D01*
X358390D01*
Y125118D01*
X360161D01*
Y121968D01*
X358390D01*
Y121260D01*
X351008D01*
Y121850D01*
Y125000D01*
Y138287D01*
X353390D01*
Y136457D01*
X355988D01*
Y138287D01*
X358390D01*
Y136457D01*
D02*
G37*
G36*
X348410Y136279D02*
Y121083D01*
X341028D01*
Y121673D01*
X339177D01*
Y124823D01*
X341028D01*
Y131319D01*
X339177D01*
Y134468D01*
X341028D01*
Y138110D01*
X343409D01*
Y136279D01*
X346008D01*
Y138110D01*
X348410D01*
Y136279D01*
D02*
G37*
G36*
X325264Y139154D02*
X321094Y134984D01*
X314831D01*
X312358Y137457D01*
Y162604D01*
X312591Y163039D01*
X313005Y163268D01*
X325264D01*
Y139154D01*
D02*
G37*
G36*
X159528Y108905D02*
X159528Y108437D01*
X159563Y108402D01*
X159595Y108433D01*
X160026Y108433D01*
X173067D01*
X185056Y96444D01*
X184840Y95953D01*
X181280D01*
Y95984D01*
X171453Y105811D01*
X152665D01*
X143677Y96823D01*
X133264D01*
Y96923D01*
D01*
Y106783D01*
Y109002D01*
X133557Y109130D01*
X133764Y109142D01*
X134160Y108625D01*
X134736Y108183D01*
X135406Y107906D01*
X136126Y107811D01*
X136845Y107906D01*
X137516Y108183D01*
X138092Y108625D01*
X138139Y108672D01*
X138581Y109248D01*
X138858Y109918D01*
X138953Y110638D01*
X138858Y111357D01*
X138716Y111701D01*
X139050Y112201D01*
X151539D01*
X152421Y113083D01*
X153851D01*
X153915Y112820D01*
X153952Y112583D01*
X153526Y112028D01*
X153248Y111357D01*
X153153Y110638D01*
X153248Y109918D01*
X153526Y109248D01*
X153967Y108672D01*
X154543Y108230D01*
X155214Y107953D01*
X155933Y107858D01*
X156652Y107953D01*
X157323Y108230D01*
X157899Y108672D01*
X157946Y108720D01*
X158388Y109295D01*
X158665Y109966D01*
X158760Y110685D01*
X158665Y111405D01*
X158388Y112075D01*
X157998Y112583D01*
X158121Y113083D01*
X159528D01*
Y108905D01*
D02*
G37*
G36*
X115122Y96807D02*
Y96693D01*
X106138D01*
Y97323D01*
Y105083D01*
Y105677D01*
X115122D01*
Y96807D01*
D02*
G37*
G36*
X149205Y79716D02*
X149330Y78456D01*
X149439Y77945D01*
X149580Y77512D01*
X149752Y77157D01*
X149955Y76882D01*
X150189Y76685D01*
X150455Y76567D01*
X150752Y76527D01*
X143689D01*
X143986Y76567D01*
X144252Y76685D01*
X144486Y76882D01*
X144689Y77157D01*
X144861Y77512D01*
X145002Y77945D01*
X145111Y78456D01*
X145189Y79047D01*
X145236Y79716D01*
X145252Y80464D01*
X149189D01*
X149205Y79716D01*
D02*
G37*
G36*
X150454Y62339D02*
X150187Y62221D01*
X149952Y62024D01*
X149748Y61748D01*
X149575Y61394D01*
X149434Y60961D01*
X149324Y60449D01*
X149265Y60002D01*
X149305Y59531D01*
X149401Y59020D01*
X149523Y58586D01*
X149673Y58232D01*
X149849Y57956D01*
X150054Y57760D01*
X150285Y57642D01*
X150543Y57602D01*
X143874D01*
X144135Y57642D01*
X144368Y57760D01*
X144574Y57956D01*
X144752Y58232D01*
X144903Y58586D01*
X145027Y59020D01*
X145123Y59531D01*
X145163Y59876D01*
X145106Y60449D01*
X144997Y60961D01*
X144857Y61394D01*
X144686Y61748D01*
X144483Y62024D01*
X144250Y62221D01*
X143985Y62339D01*
X143689Y62378D01*
X150752D01*
X150454Y62339D01*
D02*
G37*
%LPC*%
G36*
X139976Y106913D02*
X138795Y106757D01*
X137693Y106301D01*
X136747Y105576D01*
X136371Y105199D01*
X135645Y104253D01*
X135189Y103152D01*
X135033Y101970D01*
X135189Y100788D01*
X135645Y99686D01*
X136371Y98741D01*
X137316Y98015D01*
X138418Y97559D01*
X139600Y97403D01*
X140782Y97559D01*
X141883Y98015D01*
X142829Y98741D01*
X143205Y99117D01*
X143931Y100063D01*
X144387Y101164D01*
X144543Y102347D01*
X144387Y103528D01*
X143931Y104630D01*
X143205Y105576D01*
X142260Y106301D01*
X141158Y106757D01*
X139976Y106913D01*
D02*
G37*
%LPD*%
G36*
X324169Y100678D02*
X324203Y100246D01*
X324261Y99864D01*
X324342Y99533D01*
X324446Y99254D01*
X324573Y99025D01*
X324723Y98847D01*
X324896Y98720D01*
X325092Y98643D01*
X325311Y98618D01*
X320248D01*
X320467Y98643D01*
X320663Y98720D01*
X320836Y98847D01*
X320986Y99025D01*
X321113Y99254D01*
X321217Y99533D01*
X321298Y99864D01*
X321355Y100246D01*
X321390Y100678D01*
X321401Y101161D01*
X324157D01*
X324169Y100678D01*
D02*
G37*
G36*
X337559Y98321D02*
X337984Y98301D01*
X339401Y98287D01*
Y94350D01*
X338653Y94346D01*
X337559Y94268D01*
Y93941D01*
X337520Y94019D01*
X337402Y94089D01*
X337205Y94150D01*
X336929Y94203D01*
X336827Y94216D01*
X335819Y94144D01*
X335622Y94081D01*
X335504Y94009D01*
X335464Y93929D01*
Y94317D01*
X333622Y94350D01*
Y98287D01*
X334370Y98291D01*
X335464Y98357D01*
Y98630D01*
X335504Y98565D01*
X335622Y98506D01*
X335819Y98455D01*
X336094Y98411D01*
X336192Y98400D01*
X337205Y98461D01*
X337402Y98514D01*
X337520Y98574D01*
X337559Y98642D01*
Y98321D01*
D02*
G37*
G36*
X319012Y98310D02*
X319811Y98289D01*
X320559Y98285D01*
Y94348D01*
X319811Y94344D01*
X319012Y94296D01*
Y93929D01*
X318973Y94009D01*
X318854Y94080D01*
X318658Y94143D01*
X318382Y94198D01*
X318068Y94239D01*
X317252Y94189D01*
X316976Y94131D01*
X316779Y94065D01*
X316661Y93990D01*
X316622Y93906D01*
Y94319D01*
X315075Y94348D01*
Y98285D01*
X315823Y98289D01*
X316622Y98335D01*
Y98606D01*
X316661Y98545D01*
X316779Y98491D01*
X316976Y98443D01*
X317252Y98401D01*
X317457Y98384D01*
X318658Y98454D01*
X318854Y98506D01*
X318973Y98564D01*
X319012Y98630D01*
Y98310D01*
D02*
G37*
G36*
X309559Y98300D02*
X310980Y98285D01*
Y94348D01*
X309559Y94295D01*
Y93906D01*
X309520Y93990D01*
X309402Y94065D01*
X309205Y94131D01*
X308929Y94189D01*
X308575Y94238D01*
X308392Y94252D01*
X307043Y94201D01*
Y94320D01*
X305622Y94348D01*
Y98285D01*
X306370Y98289D01*
X307043Y98334D01*
Y98508D01*
X307083Y98466D01*
X307201Y98428D01*
X307397Y98394D01*
X307615Y98372D01*
X309402Y98491D01*
X309520Y98545D01*
X309559Y98606D01*
Y98300D01*
D02*
G37*
G36*
X333312Y101346D02*
X333325Y100860D01*
X333366Y100389D01*
X333435Y99974D01*
X333531Y99614D01*
X333656Y99310D01*
X333807Y99061D01*
X333986Y98867D01*
X334193Y98729D01*
X334427Y98645D01*
X334689Y98618D01*
X333322D01*
X333326Y97671D01*
X330540D01*
X330543Y97713D01*
X330550Y98310D01*
X330550Y98618D01*
X329177D01*
X329439Y98645D01*
X329673Y98729D01*
X329880Y98867D01*
X330059Y99061D01*
X330211Y99310D01*
X330335Y99614D01*
X330431Y99974D01*
X330500Y100389D01*
X330541Y100860D01*
X330555Y101370D01*
X330555Y101622D01*
X333311D01*
X333312Y101346D01*
D02*
G37*
G36*
X344661Y98574D02*
X344779Y98514D01*
X344976Y98461D01*
X345252Y98415D01*
X345551Y98382D01*
X347079Y98469D01*
X347118Y98512D01*
Y98303D01*
X347142Y98302D01*
X348559Y98287D01*
Y94350D01*
X347811Y94346D01*
X347118Y94298D01*
Y94205D01*
X347079Y94233D01*
X346961Y94257D01*
X346794Y94276D01*
X344976Y94150D01*
X344779Y94089D01*
X344661Y94019D01*
X344622Y93941D01*
Y94333D01*
X343181Y94350D01*
Y98287D01*
X343929Y98290D01*
X344622Y98329D01*
Y98642D01*
X344661Y98574D01*
D02*
G37*
D12*
X243508Y227468D02*
X243606D01*
X243508D02*
X243606Y227567D01*
D15*
X303512Y33492D02*
D03*
X335697D02*
D03*
X327941D02*
D03*
X320028D02*
D03*
X311799D02*
D03*
X345776Y8098D02*
D03*
X294102D02*
D03*
X305433Y359846D02*
D03*
X313189D02*
D03*
X321102D02*
D03*
X329331D02*
D03*
X295354Y385240D02*
D03*
X337913Y385043D02*
D03*
D16*
X311260Y281787D02*
D03*
X301811D02*
D03*
X301748Y271284D02*
D03*
X292299D02*
D03*
X270220Y165075D02*
D03*
X260772D02*
D03*
X369508Y39618D02*
D03*
X360059D02*
D03*
X193835Y17500D02*
D03*
X203283D02*
D03*
X70909Y282260D02*
D03*
X80358D02*
D03*
X85728Y371248D02*
D03*
X76279D02*
D03*
X115736Y345563D02*
D03*
X106287D02*
D03*
D17*
X278941Y287968D02*
D03*
Y297417D02*
D03*
X224685Y284083D02*
D03*
Y274634D02*
D03*
X214008Y284177D02*
D03*
Y274728D02*
D03*
X310606Y218563D02*
D03*
Y209114D02*
D03*
X310622Y239815D02*
D03*
Y230366D02*
D03*
X331933Y96280D02*
D03*
Y86831D02*
D03*
X341090Y86843D02*
D03*
Y96291D02*
D03*
X322543Y96280D02*
D03*
Y86831D02*
D03*
X313090Y96256D02*
D03*
Y86807D02*
D03*
X252524Y232350D02*
D03*
Y241799D02*
D03*
X155980Y110685D02*
D03*
Y120134D02*
D03*
X147221Y64728D02*
D03*
Y74177D02*
D03*
X154469Y284390D02*
D03*
Y274941D02*
D03*
X144504Y284303D02*
D03*
Y274854D02*
D03*
X135244Y284213D02*
D03*
Y274764D02*
D03*
X151665Y321949D02*
D03*
Y312500D02*
D03*
X160630Y312539D02*
D03*
Y321988D02*
D03*
X59709Y281264D02*
D03*
Y290713D02*
D03*
X289201Y139488D02*
D03*
Y148937D02*
D03*
D18*
X263898Y259134D02*
D03*
Y295354D02*
D03*
X369646Y93768D02*
D03*
Y57547D02*
D03*
X138784Y312150D02*
D03*
Y348370D02*
D03*
D19*
X224780Y257598D02*
D03*
Y267047D02*
D03*
X213917Y257689D02*
D03*
Y267138D02*
D03*
X350453Y96358D02*
D03*
Y86910D02*
D03*
X303709Y96354D02*
D03*
Y86905D02*
D03*
X380559Y39630D02*
D03*
Y49079D02*
D03*
X147209Y46000D02*
D03*
Y55449D02*
D03*
D20*
X262653Y139764D02*
D03*
X256354D02*
D03*
X278437Y135512D02*
D03*
X272138D02*
D03*
X193472Y114138D02*
D03*
X199772D02*
D03*
X193378Y103996D02*
D03*
X199677D02*
D03*
X146118Y221252D02*
D03*
X152417D02*
D03*
X92067Y281492D02*
D03*
X98366D02*
D03*
D21*
X272087Y151906D02*
D03*
X256339D02*
D03*
X145461Y245185D02*
D03*
Y240264D02*
D03*
Y235343D02*
D03*
Y230421D02*
D03*
X153335D02*
D03*
Y235343D02*
D03*
Y240264D02*
D03*
Y245185D02*
D03*
D22*
X256339Y147968D02*
D03*
X259488D02*
D03*
X262638D02*
D03*
X265787D02*
D03*
X268937D02*
D03*
X272087D02*
D03*
Y155842D02*
D03*
X268937D02*
D03*
X265787D02*
D03*
X262638D02*
D03*
X259488D02*
D03*
X256339D02*
D03*
D23*
X327819Y227016D02*
D03*
X320339Y223276D02*
D03*
Y230756D02*
D03*
D24*
X318181Y159583D02*
D03*
Y176906D02*
D03*
D25*
X355720Y57717D02*
D03*
Y64016D02*
D03*
X346744Y44417D02*
D03*
Y50717D02*
D03*
X227858Y233035D02*
D03*
Y239335D02*
D03*
X227811Y226067D02*
D03*
Y219768D02*
D03*
X236854Y207559D02*
D03*
Y213858D02*
D03*
X146000Y110634D02*
D03*
Y116933D02*
D03*
X136126Y110591D02*
D03*
Y116890D02*
D03*
X137016Y245256D02*
D03*
Y251555D02*
D03*
X136779Y236858D02*
D03*
Y230559D02*
D03*
X125543Y347087D02*
D03*
Y340787D02*
D03*
X157866Y358106D02*
D03*
Y364405D02*
D03*
X147736Y358146D02*
D03*
Y364445D02*
D03*
X249429Y291598D02*
D03*
Y297898D02*
D03*
D26*
X339472Y72760D02*
D03*
X334472D02*
D03*
X329472D02*
D03*
X324472D02*
D03*
Y51106D02*
D03*
X329472D02*
D03*
X334472D02*
D03*
X339472D02*
D03*
D27*
X243606Y230126D02*
D03*
X237307D02*
D03*
Y227567D02*
D03*
Y232685D02*
D03*
X243606D02*
D03*
X237307Y225008D02*
D03*
X243606Y227567D02*
D03*
Y225008D02*
D03*
D28*
X214906Y200988D02*
D03*
Y195988D02*
D03*
Y190988D02*
D03*
Y185988D02*
D03*
X236559D02*
D03*
Y190988D02*
D03*
Y195988D02*
D03*
Y200988D02*
D03*
D29*
X184476Y115559D02*
D03*
X167154D02*
D03*
D30*
X143409Y300795D02*
D03*
Y296661D02*
D03*
Y292527D02*
D03*
X155220Y300795D02*
D03*
Y296661D02*
D03*
Y292527D02*
D03*
D31*
X170636Y337795D02*
D03*
X237565Y362795D02*
D03*
Y357795D02*
D03*
Y352795D02*
D03*
Y347795D02*
D03*
Y342795D02*
D03*
Y337795D02*
D03*
Y332795D02*
D03*
Y327795D02*
D03*
Y322795D02*
D03*
Y317795D02*
D03*
Y312795D02*
D03*
Y307795D02*
D03*
Y302795D02*
D03*
Y297795D02*
D03*
X170636D02*
D03*
Y302795D02*
D03*
Y307795D02*
D03*
Y312795D02*
D03*
Y317795D02*
D03*
Y322795D02*
D03*
Y327795D02*
D03*
Y332795D02*
D03*
Y342795D02*
D03*
Y347795D02*
D03*
Y352795D02*
D03*
Y357795D02*
D03*
Y362795D02*
D03*
D32*
X207388Y326043D02*
D03*
X200163D02*
D03*
X192939D02*
D03*
X207388Y333268D02*
D03*
X200163D02*
D03*
X192939D02*
D03*
X207388Y340492D02*
D03*
X200163D02*
D03*
X192939D02*
D03*
D33*
X226600Y293858D02*
D03*
X221600D02*
D03*
X216600D02*
D03*
X211600D02*
D03*
X206600D02*
D03*
X201600D02*
D03*
X196600D02*
D03*
X191600D02*
D03*
X186600D02*
D03*
X181600D02*
D03*
D34*
X66378Y251831D02*
D03*
X84409D02*
D03*
D35*
X58984Y268669D02*
D03*
X78441D02*
D03*
D36*
X90661Y296862D02*
D03*
X80661D02*
D03*
X70661D02*
D03*
D37*
X57598Y371083D02*
D03*
X67047D02*
D03*
D38*
X115551Y115161D02*
D03*
D39*
X110630Y101185D02*
D03*
D40*
X41581Y53480D02*
D03*
Y61236D02*
D03*
Y69150D02*
D03*
Y77378D02*
D03*
X16187Y43402D02*
D03*
X16384Y85961D02*
D03*
D41*
X293595Y335669D02*
D03*
Y356614D02*
D03*
X322866Y255323D02*
D03*
Y276268D02*
D03*
X266634Y210780D02*
D03*
Y231724D02*
D03*
D42*
X183622Y244795D02*
D03*
X204567D02*
D03*
D43*
X225709Y32953D02*
D03*
D44*
X213268Y92205D02*
D03*
X203268D02*
D03*
X193268D02*
D03*
X183268D02*
D03*
X173268D02*
D03*
Y32953D02*
D03*
X183268D02*
D03*
X193268D02*
D03*
X203268D02*
D03*
X213268D02*
D03*
X223268Y92205D02*
D03*
D45*
X342189Y136476D02*
D03*
X347189D02*
D03*
X352189D02*
D03*
X357189D02*
D03*
X342189Y115571D02*
D03*
X347189D02*
D03*
X352189D02*
D03*
X357189D02*
D03*
D90*
X75394Y225650D02*
D03*
D91*
X80661Y339697D02*
D03*
D92*
X367701Y57547D02*
X369646D01*
X221677Y225945D02*
X229827D01*
X236559Y200988D02*
Y207559D01*
X164136Y119955D02*
X167154Y116937D01*
X156159Y119955D02*
X164136D01*
X167154Y115559D02*
Y116937D01*
X301902Y262815D02*
X316445D01*
X268799Y233890D02*
X272976D01*
X266634Y231724D02*
X268799Y233890D01*
X272976D02*
X301902Y262815D01*
X316862D02*
X369268D01*
X380157Y273705D01*
X153091Y340012D02*
X160307Y332795D01*
X170636D01*
X154428Y330224D02*
X156857Y327795D01*
X170636D01*
X153150Y330224D02*
X154428D01*
X204711Y235305D02*
Y238059D01*
X256655Y360063D02*
X257933D01*
X254387Y357795D02*
X256655Y360063D01*
X237565Y357795D02*
X254387D01*
X249289Y330602D02*
X250567D01*
X246481Y327795D02*
X249289Y330602D01*
X237565Y327795D02*
X246481D01*
X256799Y322795D02*
X263024Y329020D01*
X237565Y322795D02*
X256799D01*
X266867Y319472D02*
X268146D01*
X265190Y317795D02*
X266867Y319472D01*
X237565Y317795D02*
X265190D01*
X237565Y337795D02*
X277907D01*
X237565Y352795D02*
X286882D01*
X290701Y356614D01*
X293595D01*
X277907Y337795D02*
X287053Y328650D01*
X236559Y207559D02*
X236854D01*
X232012D02*
X236559D01*
X256358Y95016D02*
Y99185D01*
X213872Y225698D02*
X232012Y207559D01*
X204711Y235305D02*
X214095Y225921D01*
X196600Y137805D02*
X223268Y111138D01*
X196600Y137805D02*
Y293858D01*
X214095Y225921D02*
X221654D01*
X337517Y60264D02*
X339362Y58419D01*
X291110Y60264D02*
X337517D01*
X339362Y52484D02*
Y58419D01*
X256358Y95016D02*
X291110Y60264D01*
X370606Y39579D02*
X370632Y39604D01*
X380534D01*
X380559Y39630D01*
X155980Y120134D02*
X156159Y119955D01*
X305130Y255780D02*
X373358D01*
X357549Y335669D02*
X387177Y306042D01*
Y269598D02*
Y306042D01*
X293595Y335669D02*
X357549D01*
X373358Y255780D02*
X387177Y269598D01*
X274358Y225008D02*
X305130Y255780D01*
X273386Y224035D02*
X274358Y225008D01*
X262639Y224035D02*
X263843D01*
X273386D01*
X243610Y203803D02*
X263843Y224035D01*
X243610Y192833D02*
Y203803D01*
X241765Y190988D02*
X243610Y192833D01*
X236559Y190988D02*
X241765D01*
X265510Y209655D02*
X266634Y210780D01*
X257155Y209655D02*
X265510D01*
X247894Y200394D02*
X257155Y209655D01*
X247894Y191215D02*
Y200394D01*
X242667Y185988D02*
X247894Y191215D01*
X236559Y185988D02*
X242667D01*
X256358Y99185D02*
Y138067D01*
X354642Y328650D02*
X380157Y303134D01*
X287053Y328650D02*
X354642D01*
X380157Y273705D02*
Y303134D01*
X237565Y297795D02*
X262323D01*
X263898Y295843D02*
X265472Y297417D01*
X278941D01*
X263898Y295354D02*
Y295843D01*
X237565Y312795D02*
X346020D01*
X359776Y299039D01*
X221654Y225921D02*
X221677Y225945D01*
X226600Y285264D02*
Y293858D01*
X158379Y321969D02*
X160610D01*
X157761Y322587D02*
X158379Y321969D01*
X151685D02*
X153916D01*
X154534Y322587D01*
X151665Y321949D02*
X151685Y321969D01*
X160610D02*
X160630Y321988D01*
X154534Y322587D02*
X157761D01*
X191600Y134486D02*
X213268Y112819D01*
X331138Y307795D02*
X340090Y298843D01*
X237565Y307795D02*
X331138D01*
X223268Y92205D02*
Y111138D01*
X213268Y92205D02*
Y112819D01*
X191600Y134486D02*
Y293858D01*
X122374Y347346D02*
X134039D01*
X115172Y345616D02*
X115626Y346071D01*
X115237Y347346D02*
X122374D01*
X138104Y347350D02*
X139748D01*
X134035D02*
X138104D01*
X134035D02*
X134039Y347346D01*
X138784Y348370D02*
Y348724D01*
D93*
X335697Y33492D02*
X343646D01*
X367701Y57547D01*
D94*
X348276D02*
X355720D01*
X367701D01*
X339472Y46118D02*
X341173Y44417D01*
X346744D01*
X272087Y114913D02*
Y147968D01*
X256339Y139366D02*
Y147968D01*
X339472Y46118D02*
Y51106D01*
X182244Y243417D02*
X183622Y244795D01*
X182244Y238445D02*
Y243417D01*
X137016Y245256D02*
X137087Y245185D01*
X145461D01*
X41581Y53480D02*
X41761D01*
X41581D02*
X42762Y54661D01*
X259488Y158528D02*
X259591Y158630D01*
Y163894D02*
X260772Y165075D01*
X259591Y158630D02*
Y163894D01*
X259488Y157791D02*
Y158528D01*
X339472Y66350D02*
X348276Y57547D01*
X339472Y66350D02*
Y72760D01*
X70827Y130106D02*
X134119Y193398D01*
X70827Y94803D02*
Y130106D01*
X134119Y193398D02*
Y194579D01*
X155933Y110638D02*
X155980Y110685D01*
X164791Y119224D02*
X167154Y116862D01*
Y115559D02*
Y116862D01*
X193378Y101543D02*
Y103996D01*
X53059Y77035D02*
X70827Y94803D01*
X56354Y70331D02*
X77004Y90980D01*
X145173Y194787D02*
Y195634D01*
X77004Y90980D02*
Y126618D01*
X145173Y194787D01*
X134119Y194579D02*
X159701Y220161D01*
X43863Y77035D02*
X53059D01*
X241917Y151906D02*
X256339D01*
X236803Y157019D02*
Y158564D01*
X163847Y219150D02*
Y237957D01*
X156618Y245185D02*
X163847Y237957D01*
X145679Y200982D02*
X163847Y219150D01*
X228862Y190988D02*
X236559D01*
X153335Y245185D02*
X156618D01*
X145679Y196140D02*
Y200982D01*
X236663Y158564D02*
X236803D01*
Y157019D02*
X241917Y151906D01*
X235403Y158419D02*
X235635Y158651D01*
X226646Y188772D02*
X228862Y190988D01*
X226646Y174736D02*
Y188772D01*
X252488Y155842D02*
X256339D01*
X159701Y220161D02*
Y237264D01*
X153335Y240264D02*
X156701D01*
X159701Y237264D01*
X244039Y164291D02*
Y166209D01*
Y164291D02*
X252488Y155842D01*
X232628Y185988D02*
X236559D01*
X231244Y184604D02*
X232628Y185988D01*
X231244Y178185D02*
Y184604D01*
X41581Y69150D02*
X42762Y70331D01*
X56354D01*
X224685Y274634D02*
X225055Y274264D01*
X213913Y274634D02*
X214008Y274728D01*
X217754Y287953D02*
X219626D01*
X221010Y289336D02*
Y293268D01*
X219626Y287953D02*
X221010Y289336D01*
Y293268D02*
X221600Y293858D01*
X215189Y284177D02*
X216370Y285358D01*
Y286569D02*
X217754Y287953D01*
X214008Y284177D02*
X215189D01*
X216370Y285358D02*
Y286569D01*
X225419Y284083D02*
X226600Y285264D01*
X224685Y284083D02*
X225419D01*
X136811Y236858D02*
X137205Y237252D01*
X136779Y236858D02*
X136811D01*
X137205Y237252D02*
Y239079D01*
X138390Y240264D01*
X145461D01*
X149106Y305890D02*
X151665Y308449D01*
Y312500D01*
X133180Y302445D02*
X136625Y305890D01*
X131689Y302445D02*
X133180D01*
X136625Y305890D02*
X149106D01*
X138291Y290334D02*
X139972Y288653D01*
X134929Y284528D02*
X135244Y284213D01*
X134929Y284528D02*
Y296113D01*
X139414Y300598D01*
X143213D02*
X143409Y300795D01*
X139414Y300598D02*
X143213D01*
X138291Y290334D02*
Y294721D01*
X140035Y296464D01*
X144126Y284681D02*
X144504Y284303D01*
X142760Y288653D02*
X144126Y287287D01*
Y284681D02*
Y287287D01*
X139972Y288653D02*
X142760D01*
X140035Y296464D02*
X143213D01*
X143409Y296661D01*
X145181Y292527D02*
X152106Y285602D01*
Y285571D02*
X153287Y284390D01*
X143409Y292527D02*
X145181D01*
X152106Y285571D02*
Y285602D01*
X153287Y284390D02*
X154469D01*
X155220Y300795D02*
X161040Y306614D01*
X169455D01*
X170636Y307795D01*
X158930Y296661D02*
X165064Y302795D01*
X155220Y296661D02*
X158930D01*
X165064Y302795D02*
X170636D01*
X155220Y292527D02*
X159551D01*
X164819Y297795D01*
X170636D01*
D95*
X227858Y232685D02*
X237307D01*
X338197Y16575D02*
X360059Y38437D01*
Y39618D01*
X332256Y16575D02*
X338197D01*
X327941Y20890D02*
X332256Y16575D01*
X327941Y20890D02*
Y33492D01*
X206088Y236682D02*
X209735Y233035D01*
X227858D01*
X328449Y39748D02*
X329134D01*
X329213D02*
X329374D01*
X327835Y33528D02*
Y38370D01*
X329213Y39748D01*
X243606Y227606D02*
X256850D01*
X243606Y225008D02*
X274358D01*
X258016Y228772D02*
X262620D01*
X262771Y228922D01*
X256850Y227606D02*
X258016Y228772D01*
X243661Y230181D02*
X254059D01*
X254150Y230272D01*
X235004Y227567D02*
X237307D01*
X233232Y225795D02*
X235004Y227567D01*
X229976Y225795D02*
X233232D01*
X229827Y225945D02*
X229976Y225795D01*
D96*
X105098Y357795D02*
X170636D01*
X182902Y117134D02*
X184476Y115559D01*
X166642Y138319D02*
X182902Y122059D01*
Y117134D02*
Y122059D01*
X165173Y195634D02*
X165927Y194881D01*
Y192097D02*
X166642Y191382D01*
X165927Y192097D02*
Y194881D01*
X166642Y138319D02*
Y191382D01*
X165173Y194819D02*
Y195634D01*
X91272Y49196D02*
X114413Y26055D01*
X91272Y49196D02*
Y83086D01*
Y120918D02*
X165173Y194819D01*
X82114Y7559D02*
X183894D01*
X41761Y53480D02*
X42745Y52496D01*
Y46928D02*
X82114Y7559D01*
X42745Y46928D02*
Y52496D01*
X183894Y7559D02*
X193835Y17500D01*
X91272Y83086D02*
Y120918D01*
X62386Y54200D02*
X91272Y83086D01*
X272087Y114913D02*
X289201Y132028D01*
X301748Y271284D02*
X307976D01*
X316445Y262815D02*
X316862D01*
X307976Y271284D02*
X316445Y262815D01*
X158402Y101295D02*
X169067D01*
X173268Y92205D02*
Y97095D01*
X169067Y101295D02*
X173268Y97095D01*
X147221Y90114D02*
X158402Y101295D01*
X302477Y297385D02*
X302528Y297335D01*
X237565Y342795D02*
X313894D01*
X237565Y347795D02*
X310980D01*
X313894Y342795D02*
X321102Y350004D01*
X310980Y347795D02*
X313189Y350004D01*
Y359846D01*
X290717Y297385D02*
X302477D01*
X285306Y302795D02*
X290717Y297385D01*
X237565Y302795D02*
X285306D01*
X310817Y230561D02*
X320144D01*
X310622Y230366D02*
X310817Y230561D01*
X320144D02*
X320339Y230756D01*
X310614Y218571D02*
Y230358D01*
X310606Y218563D02*
X310614Y218571D01*
Y230358D02*
X310622Y230366D01*
X327819Y227016D02*
X345508D01*
X355382Y217142D01*
X204711Y146663D02*
X256358Y95016D01*
X204711Y146663D02*
Y235305D01*
X256358Y99185D02*
X272087Y114913D01*
X354689Y136457D02*
X357189Y138957D01*
X352189Y138489D02*
X357189Y143489D01*
Y138957D02*
Y143489D01*
X357262Y143562D01*
X352189Y136476D02*
Y138489D01*
X357262Y143562D02*
Y155388D01*
X359413Y157539D01*
X344043Y129579D02*
Y149083D01*
X339728Y154147D02*
X344118Y149757D01*
Y149158D02*
Y149757D01*
X339728Y154147D02*
Y157343D01*
X344043Y149083D02*
X344118Y149158D01*
X331972Y96319D02*
X350413D01*
X313090Y96317D02*
X322506D01*
X303746D02*
X313090D01*
X350413Y96319D02*
X350453Y96358D01*
X331933Y96280D02*
X331972Y96319D01*
X322506Y96317D02*
X322543Y96280D01*
X303709Y96354D02*
X303746Y96317D01*
X147221Y74177D02*
Y90114D01*
X46502Y54200D02*
X62386D01*
X42762Y54661D02*
X46502D01*
X203268Y30984D02*
X203283Y30968D01*
Y17500D02*
Y30968D01*
X203268Y30984D02*
Y32953D01*
X147209Y55449D02*
X147215Y55455D01*
Y64722D02*
X147221Y64728D01*
X147215Y55455D02*
Y64722D01*
X193268Y101433D02*
X193378Y101543D01*
X193268Y92205D02*
Y101433D01*
X235403Y158419D02*
Y165979D01*
X226646Y174736D02*
X235403Y165979D01*
X231244Y178185D02*
X243220Y166209D01*
X244039D01*
X278941Y287968D02*
X278988Y287921D01*
X225055Y266992D02*
Y274264D01*
X213913Y266909D02*
Y274634D01*
X321102Y350004D02*
Y359846D01*
X161024Y322382D02*
X164098D01*
X170636Y322795D02*
X170636Y322795D01*
X164511Y322795D02*
X170636D01*
X160630Y321988D02*
X161024Y322382D01*
X164098D02*
X164511Y322795D01*
X94142Y346839D02*
X105098Y357795D01*
X89043Y346839D02*
X94933Y352728D01*
X138104Y349049D02*
X141850Y352795D01*
X138104Y347350D02*
Y349049D01*
Y346667D02*
Y347350D01*
X137602Y346165D02*
X138104Y346667D01*
X141850Y352795D02*
X170636D01*
X57492Y251831D02*
X66378D01*
X42260Y267063D02*
X57492Y251831D01*
X42260Y267063D02*
Y304681D01*
D97*
X85728Y371094D02*
X92166D01*
X165173Y195634D02*
X182244Y212705D01*
Y238445D01*
X289201Y132028D02*
Y139488D01*
X67130Y371165D02*
X76279D01*
X67047Y371083D02*
X67130Y371165D01*
X76279D02*
Y371248D01*
X92166Y371094D02*
X94933Y368327D01*
Y352728D02*
Y368327D01*
X85728Y371094D02*
Y371248D01*
D98*
X150496Y109067D02*
X152252D01*
X140353Y102723D02*
X144152D01*
X139976Y102347D02*
X140353Y102723D01*
X138189Y106465D02*
X139600Y105054D01*
X138189Y106465D02*
Y108528D01*
X139600Y102723D02*
Y105054D01*
Y102723D02*
X139976Y102347D01*
X110630Y101185D02*
X138282D01*
D99*
X323750Y42387D02*
X329472Y48109D01*
X323750Y42387D02*
Y42387D01*
X329472Y48109D02*
Y51106D01*
X321126Y39762D02*
X323750Y42387D01*
X272177Y151815D02*
X275311D01*
X272087Y151906D02*
X272177Y151815D01*
X275311D02*
X278189Y148937D01*
X289201D01*
X321126Y39760D02*
Y39762D01*
X334472Y45087D02*
Y51106D01*
X329134Y39748D02*
X334472Y45087D01*
D100*
X80661Y339697D02*
X86528Y345563D01*
X106287D01*
X204711Y238059D02*
Y242098D01*
X204567Y242242D02*
Y244795D01*
Y242242D02*
X204711Y242098D01*
X319437Y176240D02*
X339728D01*
X318772Y176906D02*
X319437Y176240D01*
X318181Y176906D02*
X318772D01*
X339728Y176240D02*
X339925Y176043D01*
X358823D02*
X359020Y175847D01*
X339925Y176043D02*
X358823D01*
D101*
X357189Y108846D02*
Y115571D01*
X352854Y104512D02*
X357189Y108846D01*
X334012Y104512D02*
X352854D01*
X331933Y102433D02*
X334012Y104512D01*
X330264Y108646D02*
X345575D01*
X347189Y110260D01*
X322779Y101161D02*
X330264Y108646D01*
X347189Y110260D02*
Y115571D01*
X331933Y96280D02*
Y102433D01*
X322779Y96516D02*
Y101161D01*
X322543Y96280D02*
X322779Y96516D01*
X323308Y81448D02*
Y86066D01*
X322543Y86831D02*
X323308Y86066D01*
X329472Y72760D02*
X329472Y72760D01*
X323308Y81448D02*
X329472Y75283D01*
Y72760D02*
Y75283D01*
X331807Y81681D02*
Y86705D01*
X331933Y86831D01*
X331807Y81681D02*
X334472Y79016D01*
Y72760D02*
Y79016D01*
D102*
X45205Y103390D02*
D03*
Y24650D02*
D03*
X355382Y217142D02*
D03*
Y236827D02*
D03*
X165173Y195634D02*
D03*
X155173D02*
D03*
X145173D02*
D03*
X135173D02*
D03*
X125173D02*
D03*
X250362Y4417D02*
D03*
X348646Y196799D02*
D03*
X246134Y217276D02*
D03*
X263394Y116654D02*
D03*
X312736Y47949D02*
D03*
X173933Y270878D02*
D03*
X245280Y269256D02*
D03*
X321122Y296429D02*
D03*
X278992Y97980D02*
D03*
X292004Y189961D02*
D03*
X218398Y153811D02*
D03*
X140563Y138075D02*
D03*
X92398Y174740D02*
D03*
X74594Y187906D02*
D03*
X153150Y330224D02*
D03*
X153091Y340012D02*
D03*
X257933Y360063D02*
D03*
X250567Y330602D02*
D03*
X263024Y329020D02*
D03*
X268146Y319472D02*
D03*
X310791Y247598D02*
D03*
X111489Y311043D02*
D03*
X111606Y290787D02*
D03*
X111835Y269378D02*
D03*
X318098Y143736D02*
D03*
X139976Y102347D02*
D03*
X286130Y278504D02*
D03*
X99945Y244937D02*
D03*
X99921Y232272D02*
D03*
X99945Y217606D02*
D03*
X131689Y302445D02*
D03*
D103*
X154413Y26055D02*
D03*
D104*
X144413D02*
D03*
X134413D02*
D03*
X124413D02*
D03*
X114413D02*
D03*
X104413D02*
D03*
D105*
X203776Y326043D02*
D03*
X196551D02*
D03*
X207388Y329656D02*
D03*
X200163D02*
D03*
X192939D02*
D03*
X203776Y333268D02*
D03*
X196551D02*
D03*
X207388Y336880D02*
D03*
X200163D02*
D03*
X192939D02*
D03*
X203776Y340492D02*
D03*
X196551D02*
D03*
X59728Y294236D02*
D03*
X373780Y364898D02*
D03*
X365079Y373839D02*
D03*
X374079Y382720D02*
D03*
X382953Y374193D02*
D03*
Y19862D02*
D03*
X28622Y374193D02*
D03*
X374079Y28390D02*
D03*
X365079Y19508D02*
D03*
X373780Y10567D02*
D03*
X19748Y382720D02*
D03*
X10748Y373839D02*
D03*
X19449Y364898D02*
D03*
Y10567D02*
D03*
X10748Y19508D02*
D03*
X19748Y28390D02*
D03*
X28390Y19626D02*
D03*
D106*
X42347Y159354D02*
D03*
X42189Y139630D02*
D03*
X42339Y222228D02*
D03*
X42496Y241953D02*
D03*
X42260Y304681D02*
D03*
X42417Y324406D02*
D03*
D107*
X340090Y298843D02*
D03*
X359776Y299039D02*
D03*
Y280142D02*
D03*
X340484Y280535D02*
D03*
X359413Y157539D02*
D03*
X339728Y157343D02*
D03*
Y176240D02*
D03*
X359020Y175847D02*
D03*
D108*
X354181Y49091D02*
D03*
X354276Y52791D02*
D03*
X351146Y50417D02*
D03*
X264213Y143142D02*
D03*
X266965Y140284D02*
D03*
X261496Y140272D02*
D03*
X290020Y31421D02*
D03*
X259846D02*
D03*
X141252Y218882D02*
D03*
X142098Y251724D02*
D03*
X139996Y248772D02*
D03*
X171555Y212516D02*
D03*
X28976Y118205D02*
D03*
X164319Y62590D02*
D03*
X182559Y63106D02*
D03*
X97016Y56941D02*
D03*
X234756Y288276D02*
D03*
X365543Y220595D02*
D03*
X365882Y207602D02*
D03*
X392224Y299205D02*
D03*
X391701Y279693D02*
D03*
X277035Y107839D02*
D03*
X264653Y96531D02*
D03*
X288342Y89264D02*
D03*
X306913Y105413D02*
D03*
X312299Y115106D02*
D03*
X291032Y114839D02*
D03*
X41024Y201969D02*
D03*
X39453Y173736D02*
D03*
X67425Y204193D02*
D03*
X52524Y189945D02*
D03*
X161661Y275177D02*
D03*
X165032Y290646D02*
D03*
X174232Y284543D02*
D03*
X185630Y284594D02*
D03*
X281854Y261496D02*
D03*
X271614Y251413D02*
D03*
X262390Y243441D02*
D03*
X227681Y244847D02*
D03*
X235264Y239453D02*
D03*
X220646Y239374D02*
D03*
X233858Y270173D02*
D03*
X257386Y269705D02*
D03*
X245740Y261421D02*
D03*
X252461Y255008D02*
D03*
X238079Y250476D02*
D03*
X236126Y260012D02*
D03*
X141488Y126020D02*
D03*
X117402Y127681D02*
D03*
X129740Y130768D02*
D03*
X122504Y137768D02*
D03*
X133689Y147079D02*
D03*
X91484Y31496D02*
D03*
X84016Y39898D02*
D03*
Y62295D02*
D03*
X116213Y73961D02*
D03*
X3213Y362642D02*
D03*
X21724Y340039D02*
D03*
X44969Y358551D02*
D03*
X27965Y357689D02*
D03*
X35067Y344776D02*
D03*
X122653Y302764D02*
D03*
X132429Y320917D02*
D03*
X141831D02*
D03*
X122653D02*
D03*
X158579Y250902D02*
D03*
X171721Y225480D02*
D03*
X171343Y240185D02*
D03*
X296153Y205224D02*
D03*
X283787Y227850D02*
D03*
X292681Y236744D02*
D03*
X295890Y222854D02*
D03*
X288142Y213504D02*
D03*
X265165Y199878D02*
D03*
X282736Y178150D02*
D03*
X301949Y172661D02*
D03*
X294996Y144118D02*
D03*
X281638Y156925D02*
D03*
X268831Y165709D02*
D03*
X269012Y176323D02*
D03*
X292433Y163878D02*
D03*
X300665Y91240D02*
D03*
X301217Y68366D02*
D03*
X218000Y63465D02*
D03*
X243937Y31539D02*
D03*
X244740Y63839D02*
D03*
X269272Y64441D02*
D03*
X273520Y31776D02*
D03*
X228768Y26449D02*
D03*
X222634Y26457D02*
D03*
X225709Y24563D02*
D03*
X198059Y92378D02*
D03*
X208024D02*
D03*
X204445Y114457D02*
D03*
X206232Y102047D02*
D03*
X205516Y106642D02*
D03*
X203665Y104134D02*
D03*
X139803Y254339D02*
D03*
X160843Y372146D02*
D03*
X155583D02*
D03*
X149949Y371713D02*
D03*
X144634Y371850D02*
D03*
X157823Y368953D02*
D03*
X147669D02*
D03*
X367905Y1886D02*
D03*
X308480Y1689D02*
D03*
X280842D02*
D03*
X263016D02*
D03*
X228213Y1705D02*
D03*
X210008Y1874D02*
D03*
X4303Y215051D02*
D03*
X3827Y239472D02*
D03*
X390724Y168189D02*
D03*
X258236Y369961D02*
D03*
X281319Y369685D02*
D03*
X339512Y366161D02*
D03*
X299000Y367681D02*
D03*
X316752Y372031D02*
D03*
X388874Y331748D02*
D03*
X373185Y346917D02*
D03*
X355716Y356539D02*
D03*
X354701Y382618D02*
D03*
X344020Y383035D02*
D03*
X318244Y382618D02*
D03*
X280787Y387677D02*
D03*
X258161Y387374D02*
D03*
X391657Y263547D02*
D03*
Y247783D02*
D03*
X391445Y230957D02*
D03*
X391161Y212213D02*
D03*
X390591Y190201D02*
D03*
X390335Y133035D02*
D03*
X390819Y109713D02*
D03*
X390614Y86232D02*
D03*
X390535Y59850D02*
D03*
X390213Y39051D02*
D03*
X52276Y61319D02*
D03*
X4209Y97693D02*
D03*
X4303Y129402D02*
D03*
X4339Y155354D02*
D03*
X4654Y175169D02*
D03*
X4303Y192433D02*
D03*
Y262280D02*
D03*
X5713Y283563D02*
D03*
X6780Y302760D02*
D03*
X6071Y324236D02*
D03*
X6055Y345165D02*
D03*
X93327Y2374D02*
D03*
X186917Y1791D02*
D03*
X67532Y2772D02*
D03*
X30476Y2626D02*
D03*
X157224Y2173D02*
D03*
X126567Y2276D02*
D03*
X26874Y76587D02*
D03*
X20165Y53614D02*
D03*
X5075Y64153D02*
D03*
X84071Y110508D02*
D03*
X85028Y124752D02*
D03*
X95362Y135087D02*
D03*
X105004Y145902D02*
D03*
X128898Y169772D02*
D03*
X136736Y177465D02*
D03*
X145031Y185531D02*
D03*
X133228Y226307D02*
D03*
X154445Y267917D02*
D03*
X144244D02*
D03*
X128213Y334221D02*
D03*
X122634D02*
D03*
X125465Y335831D02*
D03*
X67402Y151618D02*
D03*
X62468Y144673D02*
D03*
X57902Y134260D02*
D03*
X57721Y122382D02*
D03*
Y111421D02*
D03*
X84760Y168063D02*
D03*
X99378Y182862D02*
D03*
X104858Y188342D02*
D03*
X111071Y195835D02*
D03*
X117283Y203508D02*
D03*
X123681Y210268D02*
D03*
X49862Y269626D02*
D03*
X52157Y274590D02*
D03*
Y264799D02*
D03*
X51559Y368311D02*
D03*
X51268Y373823D02*
D03*
X48370Y370850D02*
D03*
X111665Y300716D02*
D03*
X111835Y279795D02*
D03*
X382953Y374193D02*
D03*
X374079Y382720D02*
D03*
X365079Y373839D02*
D03*
X373780Y364898D02*
D03*
X281413Y142661D02*
D03*
X278669Y143925D02*
D03*
X278583Y140965D02*
D03*
D109*
X321126Y39760D02*
D03*
D110*
X374016Y374016D02*
D03*
X19685Y19685D02*
D03*
Y374016D02*
D03*
X374016Y19685D02*
D03*
D111*
X138272Y223461D02*
D03*
D112*
X201957Y64417D02*
D03*
X302528Y297335D02*
D03*
D113*
X235635Y158651D02*
D03*
X244039Y166209D02*
D03*
M02*
