G04*
G04 #@! TF.GenerationSoftware,Altium Limited,Altium Designer,22.9.1 (49)*
G04*
G04 Layer_Color=65535*
%FSLAX44Y44*%
%MOMM*%
G71*
G04*
G04 #@! TF.SameCoordinates,E343571A-C553-4397-B335-E36F9F7E1520*
G04*
G04*
G04 #@! TF.FilePolarity,Positive*
G04*
G01*
G75*
%ADD10C,0.2000*%
%ADD11C,0.1270*%
%ADD12C,0.2540*%
D10*
X130190Y136650D02*
G03*
X130190Y136650I-1000J0D01*
G01*
X27840Y235790D02*
X138840D01*
X27840D02*
Y320790D01*
X138840D01*
Y235790D02*
Y320790D01*
X-10800Y110200D02*
Y221200D01*
X-95800Y110200D02*
X-10800D01*
X-95800D02*
Y221200D01*
X-10800D01*
X27840Y14810D02*
X138840D01*
X27840D02*
Y99810D01*
X138840D01*
Y14810D02*
Y99810D01*
X304500Y110200D02*
Y221200D01*
X219500Y110200D02*
X304500D01*
X219500D02*
Y221200D01*
X304500D01*
D11*
X46210Y138950D02*
Y141950D01*
Y138950D02*
X108420D01*
Y206350D01*
X46210D02*
X108420D01*
X46210Y203350D02*
Y206350D01*
D12*
X29278Y123623D02*
Y108388D01*
Y113466D01*
X39435Y123623D01*
X31817Y116005D01*
X39435Y108388D01*
X44513Y123623D02*
Y108388D01*
X54670D01*
X59748D02*
Y123623D01*
X64826Y118545D01*
X69905Y123623D01*
Y108388D01*
X82601D02*
Y123623D01*
X74983Y116005D01*
X85140D01*
X221048Y245103D02*
Y229868D01*
Y234946D01*
X231205Y245103D01*
X223587Y237486D01*
X231205Y229868D01*
X236283Y245103D02*
Y229868D01*
X246440D01*
X251518D02*
Y245103D01*
X256597Y240025D01*
X261675Y245103D01*
Y229868D01*
X266753Y242564D02*
X269292Y245103D01*
X274371D01*
X276910Y242564D01*
Y240025D01*
X274371Y237486D01*
X271832D01*
X274371D01*
X276910Y234946D01*
Y232407D01*
X274371Y229868D01*
X269292D01*
X266753Y232407D01*
X-94166Y245035D02*
Y229800D01*
Y234878D01*
X-84009Y245035D01*
X-91627Y237418D01*
X-84009Y229800D01*
X-78931Y245035D02*
Y229800D01*
X-68774D01*
X-63696D02*
Y245035D01*
X-58618Y239957D01*
X-53539Y245035D01*
Y229800D01*
X-38304D02*
X-48461D01*
X-38304Y239957D01*
Y242496D01*
X-40843Y245035D01*
X-45922D01*
X-48461Y242496D01*
X29278Y344603D02*
Y329368D01*
Y334446D01*
X39435Y344603D01*
X31817Y336986D01*
X39435Y329368D01*
X44513Y344603D02*
Y329368D01*
X54670D01*
X59748D02*
Y344603D01*
X64826Y339525D01*
X69905Y344603D01*
Y329368D01*
X74983D02*
X80062D01*
X77522D01*
Y344603D01*
X74983Y342064D01*
X31310Y229542D02*
X41467Y219385D01*
X31310D02*
X41467Y229542D01*
X31310Y224464D02*
X41467D01*
X36388Y219385D02*
Y229542D01*
X46545Y216846D02*
X51623D01*
X49084D01*
Y232081D01*
X46545Y229542D01*
M02*
