G04*
G04 #@! TF.GenerationSoftware,Altium Limited,Altium Designer,22.9.1 (49)*
G04*
G04 Layer_Color=16711935*
%FSLAX44Y44*%
%MOMM*%
G71*
G04*
G04 #@! TF.SameCoordinates,E343571A-C553-4397-B335-E36F9F7E1520*
G04*
G04*
G04 #@! TF.FilePolarity,Positive*
G04*
G01*
G75*
%ADD22C,0.1000*%
D22*
X418194Y95080D02*
G03*
X417952Y95180I-241J-241D01*
G01*
X418502Y237320D02*
G03*
X418260Y237420I-241J-241D01*
G01*
X449290Y95080D02*
G03*
X461990Y107780I0J12700D01*
G01*
Y224620D02*
G03*
X449290Y237320I-12700J0D01*
G01*
X-259290Y107880D02*
G03*
X-246590Y95180I12700J0D01*
G01*
X160850Y250120D02*
G03*
X173550Y237420I12700J0D01*
G01*
X160850Y318700D02*
G03*
X148150Y331400I-12700J0D01*
G01*
X12260D02*
G03*
X-440Y318700I0J-12700D01*
G01*
X-13140Y237420D02*
G03*
X-440Y250120I0J12700D01*
G01*
X174820Y95180D02*
G03*
X162120Y82480I0J-12700D01*
G01*
X149420Y1200D02*
G03*
X162120Y13900I0J12700D01*
G01*
X830D02*
G03*
X13530Y1200I12700J0D01*
G01*
X830Y82480D02*
G03*
X-11870Y95180I-12700J0D01*
G01*
X-246590Y237420D02*
G03*
X-259290Y224720I0J-12700D01*
G01*
X408270Y95180D02*
X417952D01*
X408270Y237420D02*
X418260D01*
X418194Y95080D02*
X449290D01*
X418502Y237320D02*
X449290D01*
X461990Y107780D02*
Y218270D01*
Y224620D01*
X173550Y237420D02*
X341190Y237420D01*
X377174Y95180D02*
X408270D01*
X174820D02*
X339920D01*
X377482Y237420D02*
X408270D01*
X340574Y95180D02*
X377174D01*
X341190Y237420D02*
X379107D01*
X-217427Y95180D02*
X-179510D01*
X-215494Y237420D02*
X-178894D01*
X-259290Y107880D02*
Y114230D01*
Y224720D01*
X-246590Y95180D02*
X-215802D01*
X-178894Y237420D02*
X-178240D01*
X-13140D01*
X160850Y250120D02*
Y318700D01*
X12260Y331400D02*
X148150D01*
X-440Y250120D02*
Y318700D01*
X-246590Y237420D02*
X-215494D01*
X339920Y95180D02*
X340574D01*
X162120Y13900D02*
Y82480D01*
X13530Y1200D02*
X149420D01*
X830Y13900D02*
Y82480D01*
X-179510Y95180D02*
X-11870Y95180D01*
M02*
