G04*
G04 #@! TF.GenerationSoftware,Altium Limited,Altium Designer,22.9.1 (49)*
G04*
G04 Layer_Physical_Order=1*
G04 Layer_Color=255*
%FSLAX44Y44*%
%MOMM*%
G71*
G04*
G04 #@! TF.SameCoordinates,E343571A-C553-4397-B335-E36F9F7E1520*
G04*
G04*
G04 #@! TF.FilePolarity,Positive*
G04*
G01*
G75*
G04:AMPARAMS|DCode=13|XSize=2.83mm|YSize=1.22mm|CornerRadius=0.1525mm|HoleSize=0mm|Usage=FLASHONLY|Rotation=180.000|XOffset=0mm|YOffset=0mm|HoleType=Round|Shape=RoundedRectangle|*
%AMROUNDEDRECTD13*
21,1,2.8300,0.9150,0,0,180.0*
21,1,2.5250,1.2200,0,0,180.0*
1,1,0.3050,-1.2625,0.4575*
1,1,0.3050,1.2625,0.4575*
1,1,0.3050,1.2625,-0.4575*
1,1,0.3050,-1.2625,-0.4575*
%
%ADD13ROUNDEDRECTD13*%
G04:AMPARAMS|DCode=18|XSize=6.1mm|YSize=5.63mm|CornerRadius=0.7038mm|HoleSize=0mm|Usage=FLASHONLY|Rotation=180.000|XOffset=0mm|YOffset=0mm|HoleType=Round|Shape=RoundedRectangle|*
%AMROUNDEDRECTD18*
21,1,6.1000,4.2225,0,0,180.0*
21,1,4.6925,5.6300,0,0,180.0*
1,1,1.4075,-2.3463,2.1113*
1,1,1.4075,2.3463,2.1113*
1,1,1.4075,2.3463,-2.1113*
1,1,1.4075,-2.3463,-2.1113*
%
%ADD18ROUNDEDRECTD18*%
%ADD19C,1.2500*%
%ADD20C,2.2000*%
%ADD21C,6.0000*%
G36*
X158000Y321300D02*
Y243100D01*
X165700Y235400D01*
X453600D01*
X460100Y228900D01*
Y104700D01*
X451800Y96400D01*
X166500D01*
X158800Y88700D01*
X159200Y88300D01*
Y11000D01*
X151000Y2800D01*
X10800D01*
Y3600D01*
X2600Y11800D01*
Y86200D01*
X-8000Y96800D01*
X-250400D01*
X-258200Y104600D01*
X-257400Y105400D01*
Y212300D01*
Y226800D01*
X-249200Y235000D01*
X-248800Y234600D01*
X-6400D01*
X3000Y244000D01*
Y323200D01*
X8800Y329000D01*
X150300D01*
X158000Y321300D01*
D02*
G37*
%LPC*%
G36*
X253979Y204416D02*
X128590D01*
X127479Y204270D01*
X115965D01*
X114379Y203954D01*
X113034Y203056D01*
X112136Y201711D01*
X111820Y200125D01*
Y190975D01*
X112136Y189389D01*
X113034Y188044D01*
X114379Y187146D01*
X115965Y186830D01*
X127479D01*
X128590Y186684D01*
X249996D01*
X250883Y183374D01*
X252665Y180286D01*
X255186Y177765D01*
X258274Y175983D01*
X261717Y175060D01*
X265283D01*
X268726Y175983D01*
X271814Y177765D01*
X274335Y180286D01*
X276117Y183374D01*
X277040Y186817D01*
Y190383D01*
X276117Y193826D01*
X274335Y196914D01*
X271814Y199435D01*
X268726Y201217D01*
X265283Y202140D01*
X261717D01*
X260306Y201762D01*
X260248Y201819D01*
X258412Y203228D01*
X257526Y203595D01*
X256274Y204114D01*
X253979Y204416D01*
D02*
G37*
G36*
X-137739Y200140D02*
X-142861D01*
X-147920Y199339D01*
X-152791Y197756D01*
X-157355Y195431D01*
X-161498Y192420D01*
X-165120Y188798D01*
X-168131Y184655D01*
X-170456Y180091D01*
X-172039Y175220D01*
X-172840Y170161D01*
Y165039D01*
X-172039Y159980D01*
X-170456Y155109D01*
X-168131Y150545D01*
X-165120Y146402D01*
X-161498Y142780D01*
X-157355Y139769D01*
X-152791Y137444D01*
X-147920Y135861D01*
X-142861Y135060D01*
X-137739D01*
X-132680Y135861D01*
X-127809Y137444D01*
X-123245Y139769D01*
X-119102Y142780D01*
X-115480Y146402D01*
X-112469Y150545D01*
X-110144Y155109D01*
X-108561Y159980D01*
X-107760Y165039D01*
Y170161D01*
X-108561Y175220D01*
X-110144Y180091D01*
X-112469Y184655D01*
X-115480Y188798D01*
X-119102Y192420D01*
X-123245Y195431D01*
X-127809Y197756D01*
X-132680Y199339D01*
X-137739Y200140D01*
D02*
G37*
G36*
X347561Y198340D02*
X342439D01*
X337380Y197539D01*
X332509Y195956D01*
X327945Y193631D01*
X323802Y190620D01*
X320180Y186998D01*
X317169Y182855D01*
X314844Y178291D01*
X313261Y173420D01*
X312460Y168361D01*
Y163239D01*
X313261Y158180D01*
X314844Y153309D01*
X317169Y148745D01*
X320180Y144602D01*
X323802Y140980D01*
X327945Y137969D01*
X332509Y135644D01*
X337380Y134061D01*
X342439Y133260D01*
X347561D01*
X352620Y134061D01*
X357491Y135644D01*
X362055Y137969D01*
X366198Y140980D01*
X369820Y144602D01*
X372831Y148745D01*
X375156Y153309D01*
X376739Y158180D01*
X377540Y163239D01*
Y168361D01*
X376739Y173420D01*
X375156Y178291D01*
X372831Y182855D01*
X369820Y186998D01*
X366198Y190620D01*
X362055Y193631D01*
X357491Y195956D01*
X352620Y197539D01*
X347561Y198340D01*
D02*
G37*
G36*
X143070Y158730D02*
X116400D01*
X115409Y158533D01*
X115039Y158285D01*
X114379Y158154D01*
X113034Y157256D01*
X112136Y155911D01*
X112043Y155446D01*
X95519Y138921D01*
X94957Y138081D01*
X94760Y137090D01*
Y124440D01*
X-13577D01*
X-45839Y156701D01*
X-46679Y157263D01*
X-47670Y157460D01*
X-84260D01*
X-85251Y157263D01*
X-86091Y156701D01*
X-86653Y155861D01*
X-86850Y154870D01*
Y110420D01*
X-86653Y109429D01*
X-86091Y108589D01*
X-85251Y108027D01*
X-84260Y107830D01*
X90950D01*
Y46920D01*
D01*
Y46920D01*
X91147Y45929D01*
X91372Y45592D01*
X91709Y45089D01*
X91709Y45089D01*
X95519Y41279D01*
X96359Y40717D01*
X97350Y40520D01*
X112310D01*
X113301Y40717D01*
X114141Y41279D01*
X120771Y47909D01*
X121333Y48749D01*
X121530Y49740D01*
Y119507D01*
X144901Y142879D01*
X145463Y143719D01*
X145660Y144710D01*
Y156140D01*
X145463Y157131D01*
X144901Y157971D01*
X144061Y158533D01*
X143070Y158730D01*
D02*
G37*
G36*
X68140Y292080D02*
X45280D01*
X44289Y291883D01*
X43449Y291321D01*
X38369Y286241D01*
X37807Y285401D01*
X37610Y284410D01*
Y203289D01*
X36783Y203180D01*
X-81720D01*
X-82711Y202983D01*
X-83551Y202421D01*
X-84113Y201581D01*
X-84310Y200590D01*
Y171707D01*
X-84267Y171489D01*
X-84272Y171268D01*
X-84169Y170999D01*
X-84113Y170716D01*
X-83989Y170532D01*
X-83910Y170324D01*
X-83711Y170115D01*
X-83551Y169876D01*
X-83367Y169753D01*
X-83214Y169592D01*
X-82951Y169475D01*
X-82711Y169314D01*
X-82493Y169271D01*
X-82290Y169181D01*
X-63970Y165044D01*
X-63682Y165036D01*
X-63400Y164980D01*
X25157D01*
X28720Y161417D01*
Y147250D01*
X28917Y146259D01*
X29479Y145419D01*
X30319Y144857D01*
X31310Y144660D01*
X31857D01*
X33797Y143172D01*
X36127Y142206D01*
X38628Y141877D01*
X85553D01*
X88053Y142206D01*
X90383Y143172D01*
X92383Y144707D01*
X93918Y146707D01*
X94883Y149037D01*
X95213Y151538D01*
Y162110D01*
X205827D01*
X248069Y119869D01*
X248909Y119307D01*
X249900Y119110D01*
X272700D01*
X273691Y119307D01*
X274531Y119869D01*
X281731Y127069D01*
X282293Y127909D01*
X282490Y128900D01*
Y139000D01*
X282293Y139991D01*
X281731Y140831D01*
X240931Y181631D01*
X240091Y182193D01*
X239100Y182390D01*
X95213D01*
Y193762D01*
X94883Y196263D01*
X93918Y198592D01*
X92383Y200593D01*
X90383Y202128D01*
X88053Y203093D01*
X85553Y203423D01*
X79620D01*
Y280600D01*
X79423Y281591D01*
X78861Y282431D01*
X69971Y291321D01*
X69131Y291883D01*
X68140Y292080D01*
D02*
G37*
%LPD*%
G36*
X143070Y144710D02*
X118940Y120580D01*
Y49740D01*
X112310Y43110D01*
X97350D01*
X93540Y46920D01*
Y110420D01*
X-84260D01*
Y154870D01*
X-47670D01*
X-14650Y121850D01*
X97350D01*
Y137090D01*
X116400Y156140D01*
X143070D01*
Y144710D01*
D02*
G37*
G36*
X77030Y280600D02*
Y191700D01*
X46550D01*
Y147250D01*
X45280Y145980D01*
X44010Y147250D01*
X31310D01*
Y162490D01*
X26230Y167570D01*
X-63400D01*
X-81720Y171707D01*
Y200590D01*
X40200D01*
Y284410D01*
X45280Y289490D01*
X68140D01*
X77030Y280600D01*
D02*
G37*
G36*
X69900Y179800D02*
X239100D01*
X279900Y139000D01*
Y128900D01*
X272700Y121700D01*
X249900D01*
X206900Y164700D01*
X66100D01*
Y180215D01*
X67363Y181018D01*
X69900Y179800D01*
D02*
G37*
D13*
X128590Y149750D02*
D03*
Y195550D02*
D03*
D18*
X62090Y172650D02*
D03*
D19*
X253979Y195550D02*
X260929Y188600D01*
X128590Y195550D02*
X253979D01*
X260929Y188600D02*
X263500D01*
D20*
X106240Y276790D02*
D03*
X55440D02*
D03*
X-51800Y188600D02*
D03*
Y137800D02*
D03*
X106240Y55810D02*
D03*
X55440D02*
D03*
X263500Y188600D02*
D03*
Y137800D02*
D03*
D21*
X345000Y165800D02*
D03*
X-140300Y167600D02*
D03*
M02*
