G04*
G04 #@! TF.GenerationSoftware,Altium Limited,Altium Designer,22.9.1 (49)*
G04*
G04 Layer_Color=8388736*
%FSLAX25Y25*%
%MOIN*%
G70*
G04*
G04 #@! TF.SameCoordinates,238DCCA7-EAB9-45AF-8392-884DA2B8F986*
G04*
G04*
G04 #@! TF.FilePolarity,Negative*
G04*
G01*
G75*
%ADD14R,0.07087X0.04724*%
%ADD17R,0.04540X0.03162*%
%ADD18R,0.07480X0.05118*%
%ADD19R,0.05906X0.03543*%
%ADD20R,0.06706X0.06706*%
%ADD21C,0.06706*%
%ADD22C,0.05800*%
D14*
X61500Y78276D02*
D03*
Y87724D02*
D03*
D17*
X60500Y45500D02*
D03*
X52626Y35658D02*
D03*
Y40579D02*
D03*
Y45500D02*
D03*
Y50421D02*
D03*
X60500D02*
D03*
Y40579D02*
D03*
Y35658D02*
D03*
D18*
X42000Y30776D02*
D03*
Y40224D02*
D03*
X41500Y6776D02*
D03*
Y16224D02*
D03*
X31500Y6276D02*
D03*
Y15724D02*
D03*
X51500Y87724D02*
D03*
Y78276D02*
D03*
D19*
X72000Y62000D02*
D03*
Y68299D02*
D03*
X62500Y62000D02*
D03*
Y68299D02*
D03*
X81500Y62000D02*
D03*
Y68299D02*
D03*
D20*
X20500Y28000D02*
D03*
D21*
Y38000D02*
D03*
Y48000D02*
D03*
Y58000D02*
D03*
Y68000D02*
D03*
Y78000D02*
D03*
D22*
X32000Y88500D02*
D03*
X31500Y68000D02*
D03*
M02*
