G04*
G04 #@! TF.GenerationSoftware,Altium Limited,Altium Designer,22.9.1 (49)*
G04*
G04 Layer_Physical_Order=1*
G04 Layer_Color=255*
%FSLAX25Y25*%
%MOIN*%
G70*
G04*
G04 #@! TF.SameCoordinates,238DCCA7-EAB9-45AF-8392-884DA2B8F986*
G04*
G04*
G04 #@! TF.FilePolarity,Positive*
G04*
G01*
G75*
%ADD13R,0.03740X0.02362*%
%ADD14R,0.07087X0.04724*%
%ADD15R,0.05512X0.03150*%
%ADD16R,0.06693X0.04331*%
%ADD23C,0.03150*%
%ADD24C,0.03937*%
%ADD25C,0.02756*%
%ADD26C,0.02953*%
%ADD27C,0.01968*%
%ADD28R,0.05906X0.05906*%
%ADD29C,0.05906*%
%ADD30C,0.05000*%
G36*
X94500Y91000D02*
Y4500D01*
X90000Y0D01*
X6000D01*
X0Y6000D01*
Y90500D01*
X4500Y95000D01*
X90500D01*
X94500Y91000D01*
D02*
G37*
%LPC*%
G36*
X32500Y91989D02*
Y89000D01*
X35489D01*
X35261Y89851D01*
X34801Y90649D01*
X34149Y91301D01*
X33351Y91761D01*
X32500Y91989D01*
D02*
G37*
G36*
X31500D02*
X30649Y91761D01*
X29851Y91301D01*
X29199Y90649D01*
X28738Y89851D01*
X28510Y89000D01*
X31500D01*
Y91989D01*
D02*
G37*
G36*
X35489Y88000D02*
X32500D01*
Y85010D01*
X33351Y85238D01*
X34149Y85699D01*
X34801Y86351D01*
X35261Y87149D01*
X35489Y88000D01*
D02*
G37*
G36*
X31500D02*
X28510D01*
X28738Y87149D01*
X29199Y86351D01*
X29851Y85699D01*
X30649Y85238D01*
X31500Y85010D01*
Y88000D01*
D02*
G37*
G36*
X56043Y91087D02*
X46957D01*
Y84362D01*
Y81638D01*
Y81270D01*
X42000D01*
X42000D01*
X42000D01*
X32500D01*
X31725Y81168D01*
X31639Y81132D01*
X22958D01*
X22927Y81163D01*
X22026Y81683D01*
X21020Y81953D01*
X19980D01*
X18974Y81683D01*
X18073Y81163D01*
X17337Y80427D01*
X16817Y79526D01*
X16547Y78520D01*
Y78282D01*
X5383Y67117D01*
X4907Y66497D01*
X4696Y65986D01*
X4608Y65775D01*
X4506Y65000D01*
Y11000D01*
X4608Y10225D01*
X4696Y10014D01*
X4907Y9503D01*
X5383Y8883D01*
X10383Y3883D01*
X11003Y3407D01*
X11302Y3283D01*
X11725Y3108D01*
X12500Y3006D01*
X26957D01*
Y2913D01*
X36043D01*
Y3006D01*
X49694D01*
X50469Y3108D01*
X50680Y3196D01*
X51191Y3407D01*
X51811Y3883D01*
X54117Y6189D01*
X54593Y6809D01*
X54717Y7108D01*
X54892Y7531D01*
X54994Y8306D01*
Y15760D01*
X62617Y23383D01*
X63093Y24003D01*
X63392Y24725D01*
X63494Y25500D01*
X63392Y26275D01*
X63093Y26997D01*
X62924Y27217D01*
Y33476D01*
X63370D01*
Y37839D01*
Y37982D01*
X72934D01*
X73646Y37687D01*
X74421Y37585D01*
X75196Y37687D01*
X75918Y37986D01*
X76538Y38462D01*
X83617Y45540D01*
X84093Y46160D01*
X84217Y46459D01*
X84392Y46883D01*
X84494Y47657D01*
Y59425D01*
X85256D01*
Y64575D01*
X83021D01*
X82997Y64593D01*
X82275Y64892D01*
X81500Y64994D01*
X80725Y64892D01*
X80003Y64593D01*
X79979Y64575D01*
X77744D01*
Y59425D01*
X78506D01*
Y48898D01*
X72784Y43176D01*
X60500D01*
X59828Y43087D01*
X59916Y43176D01*
X60500D01*
X59708Y43968D01*
X58500D01*
Y45000D01*
Y48000D01*
X59617D01*
X59828Y47913D01*
X60500Y47824D01*
X67921D01*
X68593Y47913D01*
X68967Y48067D01*
X69275Y48108D01*
X69997Y48407D01*
X70617Y48883D01*
X74117Y52383D01*
X74593Y53003D01*
X74805Y53514D01*
X74892Y53725D01*
X74994Y54500D01*
Y59425D01*
X75756D01*
Y64575D01*
X73521D01*
X73497Y64593D01*
X72775Y64892D01*
X72000Y64994D01*
X48740D01*
X44994Y68740D01*
Y75282D01*
X46957D01*
Y74913D01*
X56043D01*
Y81638D01*
X65650D01*
X65847Y81835D01*
Y84559D01*
X65650Y84362D01*
X56043D01*
Y84730D01*
X57153D01*
Y84559D01*
X65847D01*
Y90890D01*
X57153D01*
Y90719D01*
X56043D01*
Y91087D01*
D02*
G37*
G36*
X65847Y81441D02*
X62000D01*
Y78776D01*
X65847D01*
Y81441D01*
D02*
G37*
G36*
X61000D02*
X57153D01*
Y78776D01*
X61000D01*
Y81441D01*
D02*
G37*
G36*
X65847Y77776D02*
X62000D01*
Y75110D01*
X65847D01*
Y77776D01*
D02*
G37*
G36*
X61000D02*
X57153D01*
Y75110D01*
X61000D01*
Y77776D01*
D02*
G37*
G36*
X85256Y70874D02*
X82000D01*
Y68799D01*
X85256D01*
Y70874D01*
D02*
G37*
G36*
X75756D02*
X72500D01*
Y68799D01*
X75756D01*
Y70874D01*
D02*
G37*
G36*
X66256D02*
X63000D01*
Y68799D01*
X66256D01*
Y70874D01*
D02*
G37*
G36*
X81000D02*
X77744D01*
Y68799D01*
X81000D01*
Y70874D01*
D02*
G37*
G36*
X71500D02*
X68244D01*
Y68799D01*
X71500D01*
Y70874D01*
D02*
G37*
G36*
X62000D02*
X58744D01*
Y68799D01*
X62000D01*
Y70874D01*
D02*
G37*
G36*
X85256Y67799D02*
X82000D01*
Y65724D01*
X85256D01*
Y67799D01*
D02*
G37*
G36*
X81000D02*
X77744D01*
Y65724D01*
X81000D01*
Y67799D01*
D02*
G37*
G36*
X75756D02*
X72500D01*
Y65724D01*
X75756D01*
Y67799D01*
D02*
G37*
G36*
X71500D02*
X68244D01*
Y65724D01*
X71500D01*
Y67799D01*
D02*
G37*
G36*
X66256D02*
X63000D01*
Y65724D01*
X66256D01*
Y67799D01*
D02*
G37*
G36*
X62000D02*
X58744D01*
Y65724D01*
X62000D01*
Y67799D01*
D02*
G37*
%LPD*%
G36*
X39006Y67500D02*
X39108Y66725D01*
X39195Y66514D01*
X39407Y66003D01*
X39883Y65383D01*
X45383Y59883D01*
X46003Y59407D01*
X46364Y59258D01*
X46725Y59108D01*
X47500Y59006D01*
X69006D01*
Y55740D01*
X66383Y53117D01*
X66307Y53018D01*
X60500D01*
X59828Y52930D01*
X59202Y52670D01*
X59113Y52602D01*
X54013D01*
X53925Y52670D01*
X53298Y52930D01*
X52626Y53018D01*
X40716D01*
X33617Y60117D01*
X32997Y60593D01*
X32486Y60804D01*
X32275Y60892D01*
X31500Y60994D01*
X23096D01*
X22927Y61163D01*
X22026Y61683D01*
X21020Y61953D01*
X19980D01*
X18974Y61683D01*
X18073Y61163D01*
X17337Y60427D01*
X16817Y59526D01*
X16547Y58520D01*
Y57480D01*
X16817Y56474D01*
X17337Y55573D01*
X18073Y54837D01*
X18974Y54317D01*
X19980Y54047D01*
X21020D01*
X22026Y54317D01*
X20639Y52930D01*
X19980D01*
X20957Y51953D01*
X19980D01*
X18974Y51683D01*
X18073Y51163D01*
X17337Y50427D01*
X16817Y49526D01*
X16547Y48520D01*
Y47480D01*
X16817Y46474D01*
X17337Y45573D01*
X18073Y44837D01*
X18781Y44428D01*
X16985Y42632D01*
X16000Y42545D01*
Y33041D01*
X16818Y32223D01*
X22462D01*
X22653Y32415D01*
X23115Y31953D01*
X16547D01*
Y24047D01*
X24453D01*
Y25006D01*
X26500D01*
X27275Y25108D01*
X27661Y25268D01*
X28975Y23954D01*
Y19087D01*
X26957D01*
Y12362D01*
X36043D01*
Y19087D01*
X34025D01*
Y25000D01*
X33833Y25966D01*
X33285Y26785D01*
X30902Y29168D01*
X34795Y33061D01*
X37457D01*
Y27413D01*
X39006D01*
Y19587D01*
X36957D01*
Y12862D01*
X46043D01*
Y19587D01*
X44994D01*
Y27413D01*
X46543D01*
Y33061D01*
X52626D01*
X53298Y33149D01*
X53925Y33408D01*
X54013Y33476D01*
X55496D01*
X57977Y30996D01*
Y33476D01*
X58075D01*
Y27310D01*
X49883Y19117D01*
X49407Y18497D01*
X49196Y17986D01*
X49108Y17775D01*
X49006Y17000D01*
Y9546D01*
X48454Y8994D01*
X46043D01*
Y10138D01*
X36957D01*
Y8994D01*
X36043D01*
Y9638D01*
X26957D01*
Y8994D01*
X13740D01*
X10494Y12240D01*
Y63760D01*
X20782Y74047D01*
X21020D01*
X22026Y74317D01*
X22927Y74837D01*
X23234Y75144D01*
X32362D01*
X33137Y75246D01*
X33224Y75282D01*
X39006D01*
Y67500D01*
D02*
G37*
%LPC*%
G36*
X21020Y71953D02*
X21000D01*
Y68500D01*
X24453D01*
Y68520D01*
X24183Y69526D01*
X23663Y70427D01*
X22927Y71163D01*
X22026Y71683D01*
X21020Y71953D01*
D02*
G37*
G36*
X32000Y71490D02*
Y68500D01*
X34990D01*
X34762Y69351D01*
X34301Y70149D01*
X33649Y70801D01*
X32851Y71262D01*
X32000Y71490D01*
D02*
G37*
G36*
X31000D02*
X30149Y71262D01*
X29351Y70801D01*
X28699Y70149D01*
X28238Y69351D01*
X28010Y68500D01*
X31000D01*
Y71490D01*
D02*
G37*
G36*
X20000Y71953D02*
X19980D01*
X18974Y71683D01*
X18073Y71163D01*
X17337Y70427D01*
X16817Y69526D01*
X16547Y68520D01*
Y68500D01*
X20000D01*
Y71953D01*
D02*
G37*
G36*
X34990Y67500D02*
X32000D01*
Y64511D01*
X32851Y64739D01*
X33649Y65199D01*
X34301Y65851D01*
X34762Y66649D01*
X34990Y67500D01*
D02*
G37*
G36*
X31000D02*
X28010D01*
X28238Y66649D01*
X28699Y65851D01*
X29351Y65199D01*
X30149Y64739D01*
X31000Y64511D01*
Y67500D01*
D02*
G37*
G36*
X24453D02*
X21000D01*
Y64047D01*
X21020D01*
X22026Y64317D01*
X22927Y64837D01*
X23663Y65573D01*
X24183Y66474D01*
X24453Y67480D01*
Y67500D01*
D02*
G37*
G36*
X20000D02*
X16547D01*
Y67480D01*
X16817Y66474D01*
X17337Y65573D01*
X18073Y64837D01*
X18974Y64317D01*
X19980Y64047D01*
X20000D01*
Y67500D01*
D02*
G37*
%LPD*%
D13*
X60500Y45500D02*
D03*
X52626Y35658D02*
D03*
Y40579D02*
D03*
Y45500D02*
D03*
Y50421D02*
D03*
X60500D02*
D03*
Y40579D02*
D03*
Y35658D02*
D03*
D14*
X42000Y30776D02*
D03*
Y40224D02*
D03*
X41500Y6776D02*
D03*
Y16224D02*
D03*
X31500Y6276D02*
D03*
Y15724D02*
D03*
X51500Y87724D02*
D03*
Y78276D02*
D03*
D15*
X72000Y62000D02*
D03*
Y68299D02*
D03*
X62500Y62000D02*
D03*
Y68299D02*
D03*
X81500Y62000D02*
D03*
Y68299D02*
D03*
D16*
X61500Y78276D02*
D03*
Y87724D02*
D03*
D23*
X42000Y40224D02*
X42354Y40579D01*
X33158Y35658D02*
X52626D01*
X42354Y40579D02*
X52626D01*
X28500Y45500D02*
X52626D01*
X39079Y50421D02*
X52626D01*
X60500D02*
X67921D01*
X60500Y40579D02*
X74421D01*
D24*
X28895Y38377D02*
X31113Y40595D01*
X21409Y38000D02*
Y38377D01*
X41630Y40595D02*
X42000Y40224D01*
X25500Y28000D02*
X33158Y35658D01*
X21409Y38377D02*
X28895D01*
X31113Y40595D02*
X41630D01*
X52000Y17000D02*
X60500Y25500D01*
X20500Y28000D02*
X26500D01*
X42000Y67500D02*
X47500Y62000D01*
X62500D01*
X51500Y87724D02*
X61500D01*
X20500Y48000D02*
X26000D01*
X28500Y45500D01*
X20500Y58000D02*
X31500D01*
X39079Y50421D01*
X42000Y16724D02*
Y30776D01*
X25000Y6000D02*
X30000D01*
X7500Y11000D02*
Y65000D01*
Y11000D02*
X12500Y6000D01*
X7500Y65000D02*
X20500Y78000D01*
X41500Y6000D02*
X49694D01*
X30000D02*
X41500D01*
X12500D02*
X25000D01*
X74421Y40579D02*
X81500Y47657D01*
Y62000D01*
X52000Y8306D02*
Y17000D01*
X49694Y6000D02*
X52000Y8306D01*
X72000Y54500D02*
Y62000D01*
X68500Y51000D02*
X72000Y54500D01*
X62500Y62000D02*
X72000D01*
X42000Y67500D02*
Y78276D01*
X42000Y78276D02*
X51500D01*
X42000Y78276D02*
X42000Y78276D01*
X42000D02*
X42000Y78276D01*
X32500Y78276D02*
X42000D01*
X20500Y78000D02*
X20638Y78138D01*
X32362D01*
X32500Y78276D01*
D25*
X60500Y25500D02*
Y35658D01*
D26*
X26500Y28000D02*
X28500D01*
X31500Y15724D02*
Y25000D01*
X28500Y28000D02*
X31500Y25000D01*
D27*
X20500Y38000D02*
X21565D01*
X41500Y16224D02*
X42000Y16724D01*
X67921Y50421D02*
X68500Y51000D01*
D28*
X20500Y28000D02*
D03*
D29*
Y38000D02*
D03*
Y48000D02*
D03*
Y58000D02*
D03*
Y68000D02*
D03*
Y78000D02*
D03*
D30*
X32000Y88500D02*
D03*
X31500Y68000D02*
D03*
M02*
