G04*
G04 #@! TF.GenerationSoftware,Altium Limited,Altium Designer,22.9.1 (49)*
G04*
G04 Layer_Color=8421504*
%FSLAX44Y44*%
%MOMM*%
G71*
G04*
G04 #@! TF.SameCoordinates,59EC4BF1-2BCA-4342-B93F-3057B8F9A546*
G04*
G04*
G04 #@! TF.FilePolarity,Positive*
G04*
G01*
G75*
G04:AMPARAMS|DCode=14|XSize=5mm|YSize=4mm|CornerRadius=1mm|HoleSize=0mm|Usage=FLASHONLY|Rotation=0.000|XOffset=0mm|YOffset=0mm|HoleType=Round|Shape=RoundedRectangle|*
%AMROUNDEDRECTD14*
21,1,5.0000,2.0000,0,0,0.0*
21,1,3.0000,4.0000,0,0,0.0*
1,1,2.0000,1.5000,-1.0000*
1,1,2.0000,-1.5000,-1.0000*
1,1,2.0000,-1.5000,1.0000*
1,1,2.0000,1.5000,1.0000*
%
%ADD14ROUNDEDRECTD14*%
G04:AMPARAMS|DCode=15|XSize=3.79mm|YSize=0.99mm|CornerRadius=0.1238mm|HoleSize=0mm|Usage=FLASHONLY|Rotation=90.000|XOffset=0mm|YOffset=0mm|HoleType=Round|Shape=RoundedRectangle|*
%AMROUNDEDRECTD15*
21,1,3.7900,0.7425,0,0,90.0*
21,1,3.5425,0.9900,0,0,90.0*
1,1,0.2475,0.3713,1.7713*
1,1,0.2475,0.3713,-1.7713*
1,1,0.2475,-0.3713,-1.7713*
1,1,0.2475,-0.3713,1.7713*
%
%ADD15ROUNDEDRECTD15*%
%ADD16R,1.4000X0.8000*%
%ADD17R,1.8000X1.2000*%
%ADD18R,2.0700X3.5100*%
G36*
X939640Y502870D02*
X927040D01*
Y517370D01*
X939640D01*
Y502870D01*
D02*
G37*
G36*
X921640D02*
X909040D01*
Y517370D01*
X921640D01*
Y502870D01*
D02*
G37*
G36*
X903640D02*
X891040D01*
Y517370D01*
X903640D01*
Y502870D01*
D02*
G37*
G36*
X939640Y477470D02*
X927040D01*
Y491970D01*
X939640D01*
Y477470D01*
D02*
G37*
G36*
X921640D02*
X909040D01*
Y491970D01*
X921640D01*
Y477470D01*
D02*
G37*
G36*
X903640D02*
X891040D01*
Y491970D01*
X903640D01*
Y477470D01*
D02*
G37*
G36*
X939640Y452070D02*
X927040D01*
Y466570D01*
X939640D01*
Y452070D01*
D02*
G37*
G36*
X921640D02*
X909040D01*
Y466570D01*
X921640D01*
Y452070D01*
D02*
G37*
G36*
X903640D02*
X891040D01*
Y466570D01*
X903640D01*
Y452070D01*
D02*
G37*
G36*
X993640Y502870D02*
X981040D01*
Y517370D01*
X993640D01*
Y502870D01*
D02*
G37*
G36*
X975640D02*
X963040D01*
Y517370D01*
X975640D01*
Y502870D01*
D02*
G37*
G36*
X957640D02*
X945040D01*
Y517370D01*
X957640D01*
Y502870D01*
D02*
G37*
G36*
X993640Y477470D02*
X981040D01*
Y491970D01*
X993640D01*
Y477470D01*
D02*
G37*
G36*
X975640D02*
X963040D01*
Y491970D01*
X975640D01*
Y477470D01*
D02*
G37*
G36*
X957640D02*
X945040D01*
Y491970D01*
X957640D01*
Y477470D01*
D02*
G37*
G36*
X993640Y452070D02*
X981040D01*
Y466570D01*
X993640D01*
Y452070D01*
D02*
G37*
G36*
X975640D02*
X963040D01*
Y466570D01*
X975640D01*
Y452070D01*
D02*
G37*
G36*
X957640D02*
X945040D01*
Y466570D01*
X957640D01*
Y452070D01*
D02*
G37*
D14*
X1172210Y322878D02*
D03*
X753110D02*
D03*
Y485140D02*
D03*
X1172210D02*
D03*
D15*
X916940Y375920D02*
D03*
X942340D02*
D03*
X967740D02*
D03*
D16*
X1009650Y356490D02*
D03*
Y372490D02*
D03*
D17*
X916940Y302960D02*
D03*
Y326960D02*
D03*
X882650Y326960D02*
D03*
Y302960D02*
D03*
D18*
X948110Y312420D02*
D03*
X997530D02*
D03*
M02*
