G04*
G04 #@! TF.GenerationSoftware,Altium Limited,Altium Designer,22.9.1 (49)*
G04*
G04 Layer_Color=8421504*
%FSLAX25Y25*%
%MOIN*%
G70*
G04*
G04 #@! TF.SameCoordinates,48678A20-E73A-45B2-88C3-2CBFC3E8533A*
G04*
G04*
G04 #@! TF.FilePolarity,Positive*
G04*
G01*
G75*
%ADD13R,0.06693X0.04331*%
%ADD14R,0.04724X0.07087*%
%ADD15R,0.07087X0.04724*%
%ADD16R,0.02362X0.03740*%
%ADD17R,0.03740X0.02362*%
%ADD18R,0.05512X0.03150*%
%ADD19R,0.03150X0.05512*%
D13*
X19000Y44276D02*
D03*
Y53724D02*
D03*
D14*
X9276Y63500D02*
D03*
X18724D02*
D03*
D15*
X25000Y113724D02*
D03*
Y104276D02*
D03*
X35000Y113724D02*
D03*
Y104276D02*
D03*
X45000Y113724D02*
D03*
Y104276D02*
D03*
X55500Y51224D02*
D03*
Y41776D02*
D03*
D16*
X40563Y28402D02*
D03*
Y44150D02*
D03*
D17*
X36626D02*
D03*
Y41000D02*
D03*
Y37850D02*
D03*
Y34701D02*
D03*
Y31551D02*
D03*
Y28402D02*
D03*
X44500D02*
D03*
Y31551D02*
D03*
Y34701D02*
D03*
Y37850D02*
D03*
Y41000D02*
D03*
Y44150D02*
D03*
D18*
X28898Y28000D02*
D03*
Y21701D02*
D03*
D19*
X36150Y52000D02*
D03*
X29850D02*
D03*
M02*
