G04*
G04 #@! TF.GenerationSoftware,Altium Limited,Altium Designer,22.9.1 (49)*
G04*
G04 Layer_Color=65535*
%FSLAX25Y25*%
%MOIN*%
G70*
G04*
G04 #@! TF.SameCoordinates,48678A20-E73A-45B2-88C3-2CBFC3E8533A*
G04*
G04*
G04 #@! TF.FilePolarity,Positive*
G04*
G01*
G75*
%ADD10C,0.00787*%
%ADD11C,0.00394*%
%ADD12C,0.01000*%
D10*
X32852Y44150D02*
G03*
X32852Y44150I-557J0D01*
G01*
X55251Y9060D02*
Y38961D01*
X80130D01*
X55251Y9060D02*
X80130D01*
Y12583D02*
Y16913D01*
Y31284D02*
Y35614D01*
Y22031D02*
Y26362D01*
X28701Y100417D02*
X38150D01*
X4685Y74934D02*
X65307D01*
X4685D02*
Y99630D01*
X65307Y74934D02*
Y99630D01*
X51142Y100417D02*
X61378D01*
X8622D02*
X18071D01*
X25354Y19339D02*
X32441D01*
Y30362D01*
X25354D02*
X32441D01*
X25354Y19339D02*
Y30362D01*
X27488Y48457D02*
Y55543D01*
Y48457D02*
X38512D01*
Y55543D01*
X27488D02*
X38512D01*
D11*
X13094Y52937D02*
Y55299D01*
X11913Y54118D02*
X14276D01*
X22937Y41520D02*
Y56480D01*
X15063Y41520D02*
X22937D01*
X15063D02*
Y56480D01*
X22937D01*
X6520Y59563D02*
Y67437D01*
Y59563D02*
X21480D01*
Y67437D01*
X6520D02*
X21480D01*
X21063Y116480D02*
X28937D01*
X21063Y101520D02*
Y116480D01*
Y101520D02*
X28937D01*
Y116480D01*
X31063D02*
X38937D01*
X31063Y101520D02*
Y116480D01*
Y101520D02*
X38937D01*
Y116480D01*
X41063D02*
X48937D01*
X41063Y101520D02*
Y116480D01*
Y101520D02*
X48937D01*
Y116480D01*
X51563Y53980D02*
X59437D01*
X51563Y39020D02*
Y53980D01*
Y39020D02*
X59437D01*
Y53980D01*
X34541Y20126D02*
Y22225D01*
X33492Y21175D02*
X35590D01*
X28276Y46357D02*
X30375D01*
X29325Y47406D02*
Y45307D01*
D12*
X12700Y67098D02*
Y61100D01*
X16699D01*
X18698D02*
X20697D01*
X19698D01*
Y67098D01*
X18698Y66098D01*
X55900Y98598D02*
Y92600D01*
X58899D01*
X59899Y93600D01*
Y97598D01*
X58899Y98598D01*
X55900D01*
X64897Y92600D02*
X62898D01*
X61898Y93600D01*
Y95599D01*
X62898Y96599D01*
X64897D01*
X65897Y95599D01*
Y94599D01*
X61898D01*
X67896Y92600D02*
X70895D01*
X71895Y93600D01*
X70895Y94599D01*
X68896D01*
X67896Y95599D01*
X68896Y96599D01*
X71895D01*
X73894Y92600D02*
X75893D01*
X74894D01*
Y96599D01*
X73894D01*
X80892Y90601D02*
X81892D01*
X82891Y91600D01*
Y96599D01*
X79892D01*
X78893Y95599D01*
Y93600D01*
X79892Y92600D01*
X82891D01*
X84891D02*
Y96599D01*
X87890D01*
X88889Y95599D01*
Y92600D01*
X91888Y96599D02*
X93888D01*
X94887Y95599D01*
Y92600D01*
X91888D01*
X90889Y93600D01*
X91888Y94599D01*
X94887D01*
X97886Y97598D02*
Y96599D01*
X96887D01*
X98886D01*
X97886D01*
Y93600D01*
X98886Y92600D01*
X102885D02*
X104884D01*
X105884Y93600D01*
Y95599D01*
X104884Y96599D01*
X102885D01*
X101885Y95599D01*
Y93600D01*
X102885Y92600D01*
X107883Y96599D02*
Y92600D01*
Y94599D01*
X108883Y95599D01*
X109882Y96599D01*
X110882D01*
X113881Y92600D02*
X115881D01*
X114881D01*
Y98598D01*
X113881Y97598D01*
X122878Y98598D02*
X118880D01*
Y95599D01*
X120879Y96599D01*
X121879D01*
X122878Y95599D01*
Y93600D01*
X121879Y92600D01*
X119879D01*
X118880Y93600D01*
X127877Y92600D02*
Y98598D01*
X124878Y95599D01*
X128876D01*
X9299Y108798D02*
X8299Y109798D01*
X6300D01*
X5300Y108798D01*
Y104800D01*
X6300Y103800D01*
X8299D01*
X9299Y104800D01*
X14297Y109798D02*
X12298D01*
X11298Y108798D01*
Y104800D01*
X12298Y103800D01*
X14297D01*
X15297Y104800D01*
Y108798D01*
X14297Y109798D01*
X17296Y103800D02*
Y109798D01*
X21295Y103800D01*
Y109798D01*
X27293Y103800D02*
X23294D01*
X27293Y107799D01*
Y108798D01*
X26293Y109798D01*
X24294D01*
X23294Y108798D01*
X5900Y70600D02*
Y76598D01*
X8899D01*
X9899Y75598D01*
Y73599D01*
X8899Y72599D01*
X5900D01*
X7899D02*
X9899Y70600D01*
X14897D02*
Y76598D01*
X11898Y73599D01*
X15897D01*
X21900Y121100D02*
Y127098D01*
X24899D01*
X25899Y126098D01*
Y124099D01*
X24899Y123099D01*
X21900D01*
X23899D02*
X25899Y121100D01*
X27898Y126098D02*
X28898Y127098D01*
X30897D01*
X31897Y126098D01*
Y125099D01*
X30897Y124099D01*
X29897D01*
X30897D01*
X31897Y123099D01*
Y122100D01*
X30897Y121100D01*
X28898D01*
X27898Y122100D01*
X31900Y121100D02*
Y127098D01*
X34899D01*
X35899Y126098D01*
Y124099D01*
X34899Y123099D01*
X31900D01*
X33899D02*
X35899Y121100D01*
X41897D02*
X37898D01*
X41897Y125099D01*
Y126098D01*
X40897Y127098D01*
X38898D01*
X37898Y126098D01*
X41900Y121100D02*
Y127098D01*
X44899D01*
X45899Y126098D01*
Y124099D01*
X44899Y123099D01*
X41900D01*
X43899D02*
X45899Y121100D01*
X47898D02*
X49897D01*
X48898D01*
Y127098D01*
X47898Y126098D01*
X32300Y56398D02*
Y51400D01*
X33300Y50400D01*
X35299D01*
X36299Y51400D01*
Y56398D01*
X38298Y50400D02*
X40297D01*
X39298D01*
Y56398D01*
X38298Y55398D01*
X29999Y38798D02*
X28999Y39798D01*
X27000D01*
X26000Y38798D01*
Y34800D01*
X27000Y33800D01*
X28999D01*
X29999Y34800D01*
X35997Y33800D02*
X31998D01*
X35997Y37799D01*
Y38798D01*
X34997Y39798D01*
X32998D01*
X31998Y38798D01*
X32099Y63898D02*
X31099Y64898D01*
X29100D01*
X28100Y63898D01*
Y59900D01*
X29100Y58900D01*
X31099D01*
X32099Y59900D01*
X34098Y58900D02*
X36097D01*
X35098D01*
Y64898D01*
X34098Y63898D01*
X52400Y58600D02*
Y64598D01*
X55399D01*
X56399Y63598D01*
Y61599D01*
X55399Y60599D01*
X52400D01*
X54399D02*
X56399Y58600D01*
X62397Y64598D02*
X58398D01*
Y61599D01*
X60397Y62599D01*
X61397D01*
X62397Y61599D01*
Y59600D01*
X61397Y58600D01*
X59398D01*
X58398Y59600D01*
M02*
