G04*
G04 #@! TF.GenerationSoftware,Altium Limited,Altium Designer,22.9.1 (49)*
G04*
G04 Layer_Physical_Order=1*
G04 Layer_Color=255*
%FSLAX25Y25*%
%MOIN*%
G70*
G04*
G04 #@! TF.SameCoordinates,48678A20-E73A-45B2-88C3-2CBFC3E8533A*
G04*
G04*
G04 #@! TF.FilePolarity,Positive*
G04*
G01*
G75*
%ADD13R,0.06693X0.04331*%
%ADD14R,0.04724X0.07087*%
%ADD15R,0.07087X0.04724*%
%ADD16R,0.02362X0.03740*%
%ADD17R,0.03740X0.02362*%
%ADD18R,0.05512X0.03150*%
%ADD19R,0.03150X0.05512*%
%ADD28C,0.02756*%
%ADD29C,0.03937*%
%ADD30C,0.02362*%
%ADD31C,0.04921*%
%ADD32C,0.03543*%
%ADD33C,0.07874*%
G36*
X84500Y112500D02*
Y6500D01*
X78000Y0D01*
X6500D01*
X500Y6000D01*
Y114500D01*
Y115000D01*
X4000Y118500D01*
X78500D01*
X84500Y112500D01*
D02*
G37*
%LPC*%
G36*
X32653Y24276D02*
X29398D01*
Y22201D01*
X32653D01*
Y24276D01*
D02*
G37*
G36*
X28398D02*
X25142D01*
Y22201D01*
X28398D01*
Y24276D01*
D02*
G37*
G36*
X32653Y21201D02*
X29398D01*
Y19126D01*
X32653D01*
Y21201D01*
D02*
G37*
G36*
X28398D02*
X25142D01*
Y19126D01*
X28398D01*
Y21201D01*
D02*
G37*
G36*
X45000Y117000D02*
X25000D01*
X24252Y116902D01*
X17883D01*
X17035Y116790D01*
X16245Y116463D01*
X15566Y115943D01*
X12684Y113060D01*
X12163Y112381D01*
X11836Y111591D01*
X11724Y110743D01*
Y92405D01*
X11220Y91901D01*
X10598Y90824D01*
X10276Y89622D01*
Y88378D01*
X10332Y88166D01*
X6684Y84518D01*
X6163Y83839D01*
X5836Y83049D01*
X5724Y82201D01*
Y63500D01*
X5836Y62652D01*
X5999Y62256D01*
Y40724D01*
X6111Y39876D01*
X6438Y39086D01*
X6959Y38408D01*
X19683Y25684D01*
X20362Y25163D01*
X21152Y24836D01*
X22000Y24724D01*
X23500D01*
X24348Y24836D01*
X25138Y25163D01*
X25757Y25638D01*
X32441D01*
Y25792D01*
X34295D01*
X35140Y25960D01*
X35848Y26433D01*
X38556D01*
Y23242D01*
X38493Y22925D01*
Y22554D01*
X38184Y22317D01*
X37663Y21638D01*
X37336Y20848D01*
X37224Y20000D01*
X37336Y19152D01*
X37663Y18362D01*
X38184Y17684D01*
X52184Y3683D01*
X52862Y3163D01*
X53652Y2836D01*
X54500Y2724D01*
X69000D01*
X69848Y2836D01*
X70638Y3163D01*
X71316Y3683D01*
X79317Y11683D01*
X79837Y12362D01*
X80164Y13152D01*
X80276Y14000D01*
Y57000D01*
X80164Y57848D01*
X79837Y58638D01*
X79317Y59316D01*
X78638Y59837D01*
X78632Y59839D01*
X49724Y88748D01*
Y89622D01*
X49402Y90824D01*
X48781Y91901D01*
X48276Y92405D01*
Y101126D01*
X49331D01*
Y107425D01*
X45884D01*
X45848Y107440D01*
X45000Y107552D01*
X44152Y107440D01*
X44116Y107425D01*
X40669D01*
Y101126D01*
X41724D01*
Y92405D01*
X41219Y91901D01*
X40598Y90824D01*
X40276Y89622D01*
Y88378D01*
X40598Y87176D01*
X40987Y86502D01*
X39595Y87894D01*
X39724Y88378D01*
Y89622D01*
X39402Y90824D01*
X38781Y91901D01*
X37901Y92781D01*
X37581Y92965D01*
Y101126D01*
X39331D01*
Y107425D01*
X30669D01*
Y101126D01*
X32419D01*
Y92965D01*
X32099Y92781D01*
X31220Y91901D01*
X30598Y90824D01*
X30276Y89622D01*
Y88378D01*
X30540Y87391D01*
X29688Y88243D01*
X29724Y88378D01*
Y89622D01*
X29403Y90824D01*
X28780Y91901D01*
X28276Y92405D01*
Y101126D01*
X29331D01*
Y107425D01*
X25884D01*
X25848Y107440D01*
X25112Y107537D01*
X25000Y107552D01*
D01*
X25000D01*
X24152Y107440D01*
X24116Y107425D01*
X20669D01*
Y101126D01*
X21724D01*
Y92405D01*
X21219Y91901D01*
X20598Y90824D01*
X20276Y89622D01*
Y88378D01*
X20598Y87176D01*
X21219Y86099D01*
X22099Y85220D01*
X23176Y84598D01*
X24378Y84276D01*
X25622D01*
X25757Y84312D01*
X37193Y72876D01*
Y65937D01*
X37288Y65218D01*
X37565Y64547D01*
X38007Y63972D01*
X38355Y63704D01*
Y62503D01*
X38115Y62816D01*
X17208Y83723D01*
Y84819D01*
X17901Y85220D01*
X18780Y86099D01*
X19402Y87176D01*
X19724Y88378D01*
Y89622D01*
X19402Y90824D01*
X18780Y91901D01*
X18276Y92405D01*
Y109386D01*
X19240Y110350D01*
X24902D01*
X25649Y110448D01*
X45000D01*
X45848Y110560D01*
X45884Y110575D01*
X49331D01*
Y116874D01*
X45884D01*
X45848Y116889D01*
X45000Y117000D01*
D02*
G37*
%LPD*%
G36*
X34378Y84276D02*
X35622D01*
X35851Y84337D01*
X41919Y78270D01*
Y76012D01*
X33391Y84540D01*
X34378Y84276D01*
D02*
G37*
G36*
X38523Y52876D02*
X38556Y52827D01*
Y46118D01*
X38357D01*
Y48457D01*
X38512D01*
Y52933D01*
X38523Y52876D01*
D02*
G37*
G36*
X12593Y80610D02*
X13035Y80035D01*
X33370Y59699D01*
Y54850D01*
X33465Y54131D01*
X33742Y53461D01*
X33787Y53402D01*
Y48457D01*
X33942D01*
Y45850D01*
X33968Y45716D01*
Y43181D01*
X33756D01*
Y43007D01*
X30492D01*
X29851Y42880D01*
X29723Y42854D01*
X29072Y42419D01*
X25660Y39007D01*
X23865D01*
X23599Y39185D01*
X22831Y39338D01*
X22062Y39185D01*
X21411Y38750D01*
X20976Y38099D01*
X20823Y37331D01*
X20976Y36562D01*
X21411Y35911D01*
X21742Y35581D01*
X22393Y35146D01*
X22521Y35120D01*
X23161Y34993D01*
X25169D01*
X26880Y33282D01*
X26880Y33282D01*
X29799Y30362D01*
X25757D01*
X25138Y30837D01*
X24348Y31164D01*
X23500Y31276D01*
X23357D01*
X12552Y42081D01*
Y63500D01*
X12440Y64348D01*
X12425Y64384D01*
Y67831D01*
X12276D01*
Y80844D01*
X12432Y80999D01*
X12593Y80610D01*
D02*
G37*
G36*
X43176Y84598D02*
X44378Y84276D01*
X44930D01*
X73724Y55482D01*
Y31133D01*
X73281Y31901D01*
X72401Y32781D01*
X71324Y33402D01*
X70122Y33724D01*
X68878D01*
X67676Y33402D01*
X66599Y32781D01*
X65719Y31901D01*
X65203Y31007D01*
X62840D01*
X60877Y32970D01*
X60225Y33406D01*
X59457Y33558D01*
X47157D01*
Y35882D01*
Y38993D01*
X51169D01*
Y38626D01*
X59831D01*
Y44925D01*
X51169D01*
Y43007D01*
X47157D01*
Y46118D01*
X47081D01*
Y79339D01*
X46993Y80007D01*
X46886Y80265D01*
X46735Y80629D01*
X46325Y81164D01*
X42502Y84987D01*
X43176Y84598D01*
D02*
G37*
G36*
X33756Y38819D02*
X33968D01*
Y36882D01*
X33756D01*
Y36708D01*
X29131D01*
X29084Y36754D01*
X31323Y38993D01*
X33756D01*
Y38819D01*
D02*
G37*
G36*
X60589Y27581D02*
X61240Y27146D01*
X61368Y27120D01*
X62009Y26993D01*
X65203D01*
X65719Y26099D01*
X66599Y25220D01*
X67676Y24598D01*
X68878Y24276D01*
X70122D01*
X71324Y24598D01*
X72401Y25220D01*
X73281Y26099D01*
X73724Y26867D01*
Y21133D01*
X73281Y21901D01*
X72401Y22781D01*
X71324Y23402D01*
X70122Y23724D01*
X68878D01*
X67676Y23402D01*
X66599Y22781D01*
X65719Y21901D01*
X65203Y21007D01*
X64331D01*
X55794Y29544D01*
X58626D01*
X60589Y27581D01*
D02*
G37*
G36*
X44500Y26395D02*
X53267D01*
X62081Y17581D01*
X62732Y17146D01*
X63500Y16993D01*
X65203D01*
X65719Y16099D01*
X66599Y15220D01*
X67676Y14598D01*
X68878Y14276D01*
X70122D01*
X71324Y14598D01*
X72401Y15220D01*
X73281Y16099D01*
X73724Y16867D01*
Y15357D01*
X67643Y9276D01*
X55857D01*
X42816Y22317D01*
X42507Y22554D01*
Y22671D01*
X42570Y22988D01*
Y26433D01*
X44306D01*
X44500Y26395D01*
D02*
G37*
%LPC*%
G36*
X32425Y55756D02*
X30350D01*
Y52500D01*
X32425D01*
Y55756D01*
D02*
G37*
G36*
X29350D02*
X27276D01*
Y52500D01*
X29350D01*
Y55756D01*
D02*
G37*
G36*
X21874Y67831D02*
X15575D01*
Y64384D01*
X15560Y64348D01*
X15448Y63500D01*
Y62516D01*
X15560Y61668D01*
X15575Y61632D01*
Y59169D01*
X15724D01*
Y56677D01*
X14866D01*
Y50772D01*
X17641D01*
X18152Y50560D01*
X19000Y50448D01*
X19848Y50560D01*
X20359Y50772D01*
X23134D01*
Y56677D01*
X22276D01*
Y62240D01*
X22164Y63088D01*
X22001Y63484D01*
Y63500D01*
X21889Y64348D01*
X21874Y64384D01*
Y67831D01*
D02*
G37*
G36*
X32425Y51500D02*
X30350D01*
Y48244D01*
X32425D01*
Y51500D01*
D02*
G37*
G36*
X29350D02*
X27276D01*
Y48244D01*
X29350D01*
Y51500D01*
D02*
G37*
G36*
X23346Y47441D02*
X19500D01*
Y44776D01*
X23346D01*
Y47441D01*
D02*
G37*
G36*
X18500D02*
X14654D01*
Y44776D01*
X18500D01*
Y47441D01*
D02*
G37*
G36*
X23346Y43776D02*
X19500D01*
Y41110D01*
X23346D01*
Y43776D01*
D02*
G37*
G36*
X18500D02*
X14654D01*
Y41110D01*
X18500D01*
Y43776D01*
D02*
G37*
G36*
X60043Y54587D02*
X56000D01*
Y51724D01*
X60043D01*
Y54587D01*
D02*
G37*
G36*
X55000D02*
X50957D01*
Y51724D01*
X55000D01*
Y54587D01*
D02*
G37*
G36*
X60043Y50724D02*
X56000D01*
Y47862D01*
X60043D01*
Y50724D01*
D02*
G37*
G36*
X55000D02*
X50957D01*
Y47862D01*
X55000D01*
Y50724D01*
D02*
G37*
%LPD*%
D13*
X19000Y44276D02*
D03*
Y53724D02*
D03*
D14*
X9276Y63500D02*
D03*
X18724D02*
D03*
D15*
X25000Y113724D02*
D03*
Y104276D02*
D03*
X35000Y113724D02*
D03*
Y104276D02*
D03*
X45000Y113724D02*
D03*
Y104276D02*
D03*
X55500Y51224D02*
D03*
Y41776D02*
D03*
D16*
X40563Y28402D02*
D03*
Y44150D02*
D03*
D17*
X36626D02*
D03*
Y41000D02*
D03*
Y37850D02*
D03*
Y34701D02*
D03*
Y31551D02*
D03*
Y28402D02*
D03*
X44500D02*
D03*
Y31551D02*
D03*
Y34701D02*
D03*
Y37850D02*
D03*
Y41000D02*
D03*
Y44150D02*
D03*
D18*
X28898Y28000D02*
D03*
Y21701D02*
D03*
D19*
X36150Y52000D02*
D03*
X29850D02*
D03*
D28*
X15000Y82000D02*
Y88201D01*
X40563Y53720D02*
Y65346D01*
X36150Y52000D02*
Y54850D01*
X39972Y65937D02*
X40563Y65346D01*
X36150Y45850D02*
Y52000D01*
X15000Y88201D02*
Y89000D01*
X28898Y28000D02*
X34295D01*
X23500D02*
X28898D01*
X55500Y41776D02*
X56000Y41276D01*
X34295Y28000D02*
X34500Y28205D01*
D29*
X15000Y82000D02*
X36150Y60850D01*
Y54850D02*
Y60850D01*
X39972Y65937D02*
Y74028D01*
X25000Y89000D02*
X39972Y74028D01*
D30*
X28299Y34701D02*
X31449Y31551D01*
X28299Y34701D02*
X36626D01*
X26000Y37000D02*
X28299Y34701D01*
X23161Y37000D02*
X26000D01*
X26491D01*
X30492Y41000D01*
X22831Y37331D02*
X23161Y37000D01*
X30492Y41000D02*
X36626D01*
X31449Y31551D02*
X36626D01*
X63500Y19000D02*
X69500D01*
X62009Y29000D02*
X69500D01*
X44500Y28402D02*
X54098D01*
X63500Y19000D01*
X59457Y31551D02*
X62009Y29000D01*
X44500Y31551D02*
X59457D01*
X40500Y20000D02*
Y22925D01*
X40563Y22988D02*
Y28402D01*
X40500Y22925D02*
X40563Y22988D01*
Y44150D02*
Y53720D01*
X44500Y41000D02*
X57276D01*
D31*
X77000Y14000D02*
Y57000D01*
X45000Y88839D02*
Y89000D01*
Y88839D02*
X76839Y57000D01*
X77000D01*
X69000Y6000D02*
X77000Y14000D01*
X54500Y6000D02*
X69000D01*
X40500Y20000D02*
X54500Y6000D01*
X25000Y89000D02*
Y104276D01*
X25000Y104276D02*
X25000Y104276D01*
X9000Y63500D02*
Y82201D01*
X18724Y62516D02*
X19000Y62240D01*
X18724Y62516D02*
Y63500D01*
X19000Y53724D02*
Y62240D01*
X22000Y28000D02*
X23500D01*
X9276Y40724D02*
X22000Y28000D01*
X9276Y40724D02*
Y63500D01*
X15000Y89000D02*
Y110743D01*
X17883Y113626D02*
X24902D01*
X15000Y110743D02*
X17883Y113626D01*
X24902D02*
X25000Y113724D01*
X35000D01*
X45000D01*
Y89000D02*
Y104276D01*
X9000Y82201D02*
X15000Y88201D01*
D32*
X44500Y44740D02*
Y79339D01*
X35000Y88839D02*
X44500Y79339D01*
X35000Y89000D02*
Y104276D01*
Y88839D02*
Y89000D01*
D33*
X69500Y19000D02*
D03*
Y29000D02*
D03*
X15000Y89000D02*
D03*
X55000D02*
D03*
X45000D02*
D03*
X35000D02*
D03*
X25000D02*
D03*
X55000Y61500D02*
D03*
X22831Y37331D02*
D03*
X67031Y85451D02*
D03*
M02*
