G04*
G04 #@! TF.GenerationSoftware,Altium Limited,Altium Designer,22.9.1 (49)*
G04*
G04 Layer_Color=8388736*
%FSLAX25Y25*%
%MOIN*%
G70*
G04*
G04 #@! TF.SameCoordinates,48678A20-E73A-45B2-88C3-2CBFC3E8533A*
G04*
G04*
G04 #@! TF.FilePolarity,Negative*
G04*
G01*
G75*
%ADD15R,0.07087X0.04724*%
%ADD20R,0.05118X0.07480*%
%ADD21R,0.07480X0.05118*%
%ADD22R,0.03162X0.04540*%
%ADD23R,0.04540X0.03162*%
%ADD24R,0.05906X0.03543*%
%ADD25R,0.03543X0.05906*%
%ADD26C,0.08268*%
%ADD27C,0.08674*%
D15*
X19000Y44276D02*
D03*
Y53724D02*
D03*
D20*
X9276Y63500D02*
D03*
X18724D02*
D03*
D21*
X25000Y113724D02*
D03*
Y104276D02*
D03*
X35000Y113724D02*
D03*
Y104276D02*
D03*
X45000Y113724D02*
D03*
Y104276D02*
D03*
X55500Y51224D02*
D03*
Y41776D02*
D03*
D22*
X40563Y28402D02*
D03*
Y44150D02*
D03*
D23*
X36626D02*
D03*
Y41000D02*
D03*
Y37850D02*
D03*
Y34701D02*
D03*
Y31551D02*
D03*
Y28402D02*
D03*
X44500D02*
D03*
Y31551D02*
D03*
Y34701D02*
D03*
Y37850D02*
D03*
Y41000D02*
D03*
Y44150D02*
D03*
D24*
X28898Y28000D02*
D03*
Y21701D02*
D03*
D25*
X36150Y52000D02*
D03*
X29850D02*
D03*
D26*
X69500Y19000D02*
D03*
Y29000D02*
D03*
X15000Y89000D02*
D03*
X55000D02*
D03*
X45000D02*
D03*
X35000D02*
D03*
X25000D02*
D03*
D27*
X55000Y61500D02*
D03*
X22831Y37331D02*
D03*
X67031Y85451D02*
D03*
M02*
