G04*
G04 #@! TF.GenerationSoftware,Altium Limited,Altium Designer,22.9.1 (49)*
G04*
G04 Layer_Physical_Order=1*
G04 Layer_Color=255*
%FSLAX25Y25*%
%MOIN*%
G70*
G04*
G04 #@! TF.SameCoordinates,7F83523E-A3D8-4692-9F7C-F7BD391A3CC7*
G04*
G04*
G04 #@! TF.FilePolarity,Positive*
G04*
G01*
G75*
%ADD13C,0.01000*%
%ADD14R,0.09843X0.07087*%
%ADD15R,0.08465X0.12795*%
%ADD16R,0.08465X0.03740*%
%ADD17R,0.07087X0.04724*%
%ADD18R,0.05512X0.03150*%
%ADD19R,0.04724X0.07087*%
%ADD28C,0.03937*%
%ADD29C,0.04921*%
%ADD30C,0.04724*%
G04:AMPARAMS|DCode=31|XSize=157.48mil|YSize=157.48mil|CornerRadius=39.37mil|HoleSize=0mil|Usage=FLASHONLY|Rotation=0.000|XOffset=0mil|YOffset=0mil|HoleType=Round|Shape=RoundedRectangle|*
%AMROUNDEDRECTD31*
21,1,0.15748,0.07874,0,0,0.0*
21,1,0.07874,0.15748,0,0,0.0*
1,1,0.07874,0.03937,-0.03937*
1,1,0.07874,-0.03937,-0.03937*
1,1,0.07874,-0.03937,0.03937*
1,1,0.07874,0.03937,0.03937*
%
%ADD31ROUNDEDRECTD31*%
G04:AMPARAMS|DCode=32|XSize=98.43mil|YSize=98.43mil|CornerRadius=24.61mil|HoleSize=0mil|Usage=FLASHONLY|Rotation=0.000|XOffset=0mil|YOffset=0mil|HoleType=Round|Shape=RoundedRectangle|*
%AMROUNDEDRECTD32*
21,1,0.09843,0.04921,0,0,0.0*
21,1,0.04921,0.09843,0,0,0.0*
1,1,0.04921,0.02461,-0.02461*
1,1,0.04921,-0.02461,-0.02461*
1,1,0.04921,-0.02461,0.02461*
1,1,0.04921,0.02461,0.02461*
%
%ADD32ROUNDEDRECTD32*%
G36*
X573874Y365000D02*
Y364015D01*
X573490Y362083D01*
X572736Y360263D01*
X571641Y358625D01*
X570249Y357232D01*
X568611Y356138D01*
X566791Y355384D01*
X564859Y355000D01*
X541756D01*
Y356650D01*
X538000D01*
X534244D01*
Y355000D01*
X527606D01*
X526833Y355154D01*
X526105Y355455D01*
X525450Y355893D01*
X524893Y356450D01*
X524455Y357105D01*
X524154Y357833D01*
X524000Y358606D01*
Y371500D01*
X523983Y371843D01*
X523849Y372516D01*
X523587Y373150D01*
X523206Y373720D01*
X523067Y373859D01*
Y379953D01*
X522919D01*
X522706Y380405D01*
X522874Y380610D01*
X523937Y381483D01*
X525150Y382131D01*
X526466Y382530D01*
X527794Y382661D01*
X527835Y382656D01*
X537861D01*
X537945Y382621D01*
X538850Y382502D01*
Y382506D01*
X552583D01*
Y381563D01*
X552753Y380274D01*
X553251Y379073D01*
X554042Y378042D01*
X555073Y377251D01*
X556274Y376753D01*
X557563Y376583D01*
X565437D01*
X566726Y376753D01*
X567927Y377251D01*
X568958Y378042D01*
X569749Y379073D01*
X570247Y380274D01*
X570417Y381563D01*
Y389437D01*
X570247Y390726D01*
X569749Y391927D01*
X568958Y392958D01*
X567927Y393749D01*
X566726Y394247D01*
X565437Y394417D01*
X557563D01*
X556274Y394247D01*
X555073Y393749D01*
X554042Y392958D01*
X553251Y391927D01*
X552753Y390726D01*
X552583Y389437D01*
Y388494D01*
X539976D01*
X539848Y388593D01*
X539125Y388892D01*
X538350Y388994D01*
X538350Y388994D01*
Y388997D01*
X537484Y388883D01*
X536906Y388644D01*
X527835D01*
Y388658D01*
X525800Y388498D01*
X523815Y388021D01*
X521929Y387240D01*
X520188Y386174D01*
X518636Y384848D01*
X517310Y383296D01*
X516244Y381555D01*
X515580Y379953D01*
X512602D01*
Y375000D01*
X500232D01*
Y375425D01*
X495828D01*
X495775Y375447D01*
X495000Y375549D01*
X480471D01*
Y375564D01*
X478436Y375404D01*
X476755Y375000D01*
X470494D01*
Y377795D01*
X473421D01*
Y386882D01*
X461579D01*
Y385333D01*
X457079D01*
X457038Y385327D01*
X455711Y385458D01*
X454394Y385857D01*
X453543Y386312D01*
Y389638D01*
X444457D01*
Y382913D01*
X448146D01*
X449433Y381814D01*
X451173Y380748D01*
X453059Y379967D01*
X455044Y379490D01*
X457079Y379330D01*
Y379345D01*
X461579D01*
Y377795D01*
X464506D01*
Y375000D01*
X427202D01*
X426650Y375228D01*
X426228Y375650D01*
X426000Y376202D01*
Y376500D01*
Y400647D01*
Y401632D01*
X426384Y403564D01*
X427138Y405384D01*
X428232Y407021D01*
X429625Y408414D01*
X431263Y409509D01*
X433083Y410262D01*
X435015Y410647D01*
X573874D01*
Y365000D01*
D02*
G37*
G36*
X504958Y366808D02*
X505868Y366431D01*
X506687Y365884D01*
X507384Y365187D01*
X507931Y364368D01*
X508308Y363458D01*
X508500Y362492D01*
Y354000D01*
X508519Y353805D01*
X508669Y353444D01*
X508944Y353169D01*
X509305Y353019D01*
X509500Y353000D01*
X534244D01*
Y351350D01*
X538000D01*
X541756D01*
Y353000D01*
X543298D01*
X543850Y352772D01*
X544272Y352350D01*
X544500Y351798D01*
Y344007D01*
X544308Y343042D01*
X543931Y342132D01*
X543384Y341313D01*
X542687Y340616D01*
X541868Y340069D01*
X540958Y339692D01*
X539993Y339500D01*
X428301D01*
X427934Y339652D01*
X427652Y339933D01*
X427500Y340301D01*
Y350943D01*
X427673Y351813D01*
X428012Y352631D01*
X428505Y353369D01*
X429131Y353995D01*
X429869Y354488D01*
X430687Y354827D01*
X431557Y355000D01*
X480000D01*
X480343Y355017D01*
X481016Y355151D01*
X481650Y355413D01*
X482220Y355795D01*
X482705Y356280D01*
X483087Y356850D01*
X483349Y357484D01*
X483483Y358157D01*
X483500Y358500D01*
Y366599D01*
X483576Y366783D01*
X483717Y366924D01*
X483900Y367000D01*
X492661D01*
X492914Y366500D01*
X492818Y366370D01*
X489768D01*
Y364000D01*
X495000D01*
X500232D01*
Y366370D01*
X497182D01*
X497086Y366500D01*
X497339Y367000D01*
X503993D01*
X504958Y366808D01*
D02*
G37*
%LPC*%
G36*
X500638Y408543D02*
X493913D01*
Y406994D01*
X475981D01*
Y407009D01*
X473946Y406848D01*
X471961Y406372D01*
X470075Y405591D01*
X468334Y404524D01*
X467960Y404205D01*
X461579D01*
Y402656D01*
X452937D01*
Y402663D01*
X451583Y402530D01*
X450282Y402135D01*
X449082Y401494D01*
X448031Y400631D01*
X447167Y399580D01*
X446904Y399087D01*
X444457D01*
Y397644D01*
X437000D01*
X436225Y397542D01*
X435503Y397243D01*
X435479Y397224D01*
X433244D01*
Y392075D01*
X435479D01*
X435503Y392057D01*
X436225Y391757D01*
X437000Y391655D01*
X446405D01*
Y391649D01*
X447707Y391777D01*
X448958Y392157D01*
X449342Y392362D01*
X453543D01*
Y396667D01*
X461579D01*
Y395118D01*
X473421D01*
Y400519D01*
X474612Y400880D01*
X475940Y401011D01*
X475981Y401006D01*
X491923D01*
X492232Y400613D01*
X492131Y400191D01*
X491998Y398506D01*
X492006D01*
Y384480D01*
X489768D01*
Y378740D01*
X494172D01*
X494225Y378718D01*
X495000Y378616D01*
X495775Y378718D01*
X495828Y378740D01*
X500232D01*
Y384480D01*
X497994D01*
Y398506D01*
X497986Y398569D01*
X498103Y399457D01*
X500638D01*
Y408543D01*
D02*
G37*
G36*
X510087D02*
X507224D01*
Y404500D01*
X510087D01*
Y408543D01*
D02*
G37*
G36*
X506224D02*
X503362D01*
Y404500D01*
X506224D01*
Y408543D01*
D02*
G37*
G36*
X510087Y403500D02*
X507224D01*
Y399457D01*
X510087D01*
Y403500D01*
D02*
G37*
G36*
X506224D02*
X503362D01*
Y399457D01*
X506224D01*
Y403500D01*
D02*
G37*
G36*
X440756Y390925D02*
X437500D01*
Y388850D01*
X440756D01*
Y390925D01*
D02*
G37*
G36*
X436500D02*
X433244D01*
Y388850D01*
X436500D01*
Y390925D01*
D02*
G37*
G36*
X440756Y387850D02*
X437500D01*
Y385776D01*
X440756D01*
Y387850D01*
D02*
G37*
G36*
X436500D02*
X433244D01*
Y385776D01*
X436500D01*
Y387850D01*
D02*
G37*
G36*
X541756Y381776D02*
X538500D01*
Y379701D01*
X541756D01*
Y381776D01*
D02*
G37*
G36*
X537500D02*
X534244D01*
Y379701D01*
X537500D01*
Y381776D01*
D02*
G37*
G36*
X541756Y378701D02*
X538500D01*
Y376626D01*
X541756D01*
Y378701D01*
D02*
G37*
G36*
X537500D02*
X534244D01*
Y376626D01*
X537500D01*
Y378701D01*
D02*
G37*
G36*
X541756Y359724D02*
X538500D01*
Y357650D01*
X541756D01*
Y359724D01*
D02*
G37*
G36*
X537500D02*
X534244D01*
Y357650D01*
X537500D01*
Y359724D01*
D02*
G37*
G36*
X500232Y363000D02*
X495000D01*
X489768D01*
Y360630D01*
X491509D01*
Y356403D01*
X491516Y356354D01*
X491396Y355131D01*
X491024Y353908D01*
X490422Y352780D01*
X489611Y351792D01*
X488623Y350981D01*
X487495Y350379D01*
X486272Y350008D01*
X485049Y349887D01*
X485000Y349894D01*
X473421D01*
Y350946D01*
X468000D01*
Y346403D01*
Y341860D01*
X473421D01*
Y342913D01*
X485000D01*
Y342901D01*
X487112Y343067D01*
X489172Y343562D01*
X491130Y344373D01*
X492936Y345480D01*
X494548Y346856D01*
X495924Y348467D01*
X497031Y350273D01*
X497841Y352231D01*
X498336Y354291D01*
X498502Y356403D01*
X498490D01*
Y360630D01*
X500232D01*
Y363000D01*
D02*
G37*
G36*
X541756Y350350D02*
X538500D01*
Y348276D01*
X541756D01*
Y350350D01*
D02*
G37*
G36*
X537500D02*
X534244D01*
Y348276D01*
X537500D01*
Y350350D01*
D02*
G37*
G36*
X432500Y351437D02*
X432350D01*
X431094Y351101D01*
X429969Y350451D01*
X429049Y349531D01*
X428399Y348406D01*
X428063Y347150D01*
Y347000D01*
X432500D01*
Y351437D01*
D02*
G37*
G36*
X433650D02*
X433500D01*
Y346500D01*
Y341563D01*
X433650D01*
X434906Y341899D01*
X436031Y342549D01*
X436542Y343060D01*
X461579D01*
Y341860D01*
X467000D01*
Y346403D01*
Y350946D01*
X461579D01*
Y349843D01*
X436639D01*
X436031Y350451D01*
X434906Y351101D01*
X433650Y351437D01*
D02*
G37*
G36*
X432500Y346000D02*
X428063D01*
Y345850D01*
X428399Y344594D01*
X429049Y343469D01*
X429969Y342549D01*
X431094Y341899D01*
X432350Y341563D01*
X432500D01*
Y346000D01*
D02*
G37*
%LPD*%
D13*
X429000Y366961D02*
Y363615D01*
Y364730D01*
X431230Y366961D01*
X429558Y365288D01*
X431230Y363615D01*
X432903D02*
X434018D01*
X434576Y364173D01*
Y365288D01*
X434018Y365845D01*
X432903D01*
X432345Y365288D01*
Y364173D01*
X432903Y363615D01*
X435691Y365845D02*
Y364173D01*
X436248Y363615D01*
X437921D01*
Y365845D01*
X441266Y366403D02*
X440709Y366961D01*
X439594D01*
X439036Y366403D01*
Y365845D01*
X439594Y365288D01*
X440709D01*
X441266Y364730D01*
Y364173D01*
X440709Y363615D01*
X439594D01*
X439036Y364173D01*
X442381Y362500D02*
Y365845D01*
X444054D01*
X444612Y365288D01*
Y364173D01*
X444054Y363615D01*
X442381D01*
X446284Y365845D02*
X447400D01*
X447957Y365288D01*
Y363615D01*
X446284D01*
X445727Y364173D01*
X446284Y364730D01*
X447957D01*
X451302Y365845D02*
X449630D01*
X449072Y365288D01*
Y364173D01*
X449630Y363615D01*
X451302D01*
X454090D02*
X452975D01*
X452418Y364173D01*
Y365288D01*
X452975Y365845D01*
X454090D01*
X454648Y365288D01*
Y364730D01*
X452418D01*
D14*
X467500Y363726D02*
D03*
Y346403D02*
D03*
Y399661D02*
D03*
Y382339D02*
D03*
D15*
X517835Y372555D02*
D03*
D16*
X495000Y363500D02*
D03*
Y372555D02*
D03*
Y381610D02*
D03*
D17*
X449000Y395724D02*
D03*
Y386276D02*
D03*
D18*
X538000Y357150D02*
D03*
Y350850D02*
D03*
Y379201D02*
D03*
Y385500D02*
D03*
X437000Y388350D02*
D03*
Y394650D02*
D03*
D19*
X506724Y404000D02*
D03*
X497276D02*
D03*
D28*
X527835Y385650D02*
G03*
X517835Y375650I0J-10000D01*
G01*
X538350Y386000D02*
G03*
X538000Y385650I0J-350D01*
G01*
X538350Y386000D02*
G03*
X538850Y385500I500J0D01*
G01*
X497276Y404000D02*
G03*
X495000Y398506I5494J-5494D01*
G01*
X475981Y404000D02*
G03*
X468910Y401071I0J-10000D01*
G01*
X446405Y394650D02*
G03*
X449000Y395724I0J3670D01*
G01*
X452937Y399661D02*
G03*
X449000Y395724I0J-3937D01*
G01*
X450008Y385267D02*
G03*
X457079Y382339I7071J7071D01*
G01*
X480471Y372555D02*
G03*
X473400Y369626I0J-10000D01*
G01*
X517835Y372555D02*
Y375650D01*
X480471Y372555D02*
X495000D01*
X538850Y385500D02*
X561500D01*
X527835Y385650D02*
X538000D01*
X475981Y404000D02*
X497276D01*
X495000Y381610D02*
Y398506D01*
X452937Y399661D02*
X467500D01*
X468910Y401071D01*
X437000Y394650D02*
X446405D01*
X457079Y382339D02*
X467500D01*
X449000Y386276D02*
X450008Y385267D01*
X467500Y363726D02*
X473400Y369626D01*
X467500Y363726D02*
Y382339D01*
X433000Y346500D02*
X433048Y346452D01*
X467452D02*
X467500Y346403D01*
D29*
X485000D02*
G03*
X495000Y356403I0J10000D01*
G01*
X467500Y346403D02*
X485000D01*
X495000Y356403D02*
Y363500D01*
D30*
X433048Y346452D02*
X467452D01*
D31*
X561500Y385500D02*
D03*
D32*
X433000Y346500D02*
D03*
M02*
