G04*
G04 #@! TF.GenerationSoftware,Altium Limited,Altium Designer,22.9.1 (49)*
G04*
G04 Layer_Color=8388736*
%FSLAX25Y25*%
%MOIN*%
G70*
G04*
G04 #@! TF.SameCoordinates,7F83523E-A3D8-4692-9F7C-F7BD391A3CC7*
G04*
G04*
G04 #@! TF.FilePolarity,Negative*
G04*
G01*
G75*
%ADD20R,0.10236X0.07480*%
%ADD21R,0.09265X0.13595*%
%ADD22R,0.09265X0.04540*%
%ADD23R,0.07480X0.05118*%
%ADD24R,0.05906X0.03543*%
%ADD25R,0.05118X0.07480*%
G04:AMPARAMS|DCode=26|XSize=165.48mil|YSize=165.48mil|CornerRadius=43.37mil|HoleSize=0mil|Usage=FLASHONLY|Rotation=0.000|XOffset=0mil|YOffset=0mil|HoleType=Round|Shape=RoundedRectangle|*
%AMROUNDEDRECTD26*
21,1,0.16548,0.07874,0,0,0.0*
21,1,0.07874,0.16548,0,0,0.0*
1,1,0.08674,0.03937,-0.03937*
1,1,0.08674,-0.03937,-0.03937*
1,1,0.08674,-0.03937,0.03937*
1,1,0.08674,0.03937,0.03937*
%
%ADD26ROUNDEDRECTD26*%
G04:AMPARAMS|DCode=27|XSize=106.42mil|YSize=106.42mil|CornerRadius=28.61mil|HoleSize=0mil|Usage=FLASHONLY|Rotation=0.000|XOffset=0mil|YOffset=0mil|HoleType=Round|Shape=RoundedRectangle|*
%AMROUNDEDRECTD27*
21,1,0.10642,0.04921,0,0,0.0*
21,1,0.04921,0.10642,0,0,0.0*
1,1,0.05721,0.02461,-0.02461*
1,1,0.05721,-0.02461,-0.02461*
1,1,0.05721,-0.02461,0.02461*
1,1,0.05721,0.02461,0.02461*
%
%ADD27ROUNDEDRECTD27*%
D20*
X467500Y363726D02*
D03*
Y346403D02*
D03*
Y399661D02*
D03*
Y382339D02*
D03*
D21*
X517835Y372555D02*
D03*
D22*
X495000Y363500D02*
D03*
Y372555D02*
D03*
Y381610D02*
D03*
D23*
X449000Y395724D02*
D03*
Y386276D02*
D03*
D24*
X538000Y357150D02*
D03*
Y350850D02*
D03*
Y379201D02*
D03*
Y385500D02*
D03*
X437000Y388350D02*
D03*
Y394650D02*
D03*
D25*
X506724Y404000D02*
D03*
X497276D02*
D03*
D26*
X561500Y385500D02*
D03*
D27*
X433000Y346500D02*
D03*
M02*
